<?xml version="1.0" encoding="utf-8"?>
<!-- Generator: Adobe Illustrator 19.1.0, SVG Export Plug-In . SVG Version: 6.00 Build 0)  -->
<svg version="1.1" id="Capa_1" xmlns="http://www.w3.org/2000/svg" xmlns:xlink="http://www.w3.org/1999/xlink" x="0px" y="0px"
	 viewBox="0 0 231.2 231.2" style="enable-background:new 0 0 231.2 231.2;" xml:space="preserve">
<style type="text/css">
	.st0{fill:#E74C40;stroke:#000000;stroke-width:2;stroke-miterlimit:10;}
	.st1{fill:#BCA26C;stroke:#1D1E1C;stroke-width:2;stroke-miterlimit:10;}
	.st2{fill:#FFFFFF;stroke:#1D1E1C;stroke-width:2;stroke-miterlimit:10;}
	.st3{fill:#DE3A28;stroke:#1D1E1C;stroke-width:2;stroke-miterlimit:10;}
	.st4{fill:#F8EEE1;stroke:#1D1D1B;stroke-width:2;stroke-linecap:round;stroke-linejoin:round;stroke-miterlimit:10;}
	.st5{fill:#CD8C94;stroke:#1D1D1B;stroke-width:2;stroke-linecap:round;stroke-linejoin:round;stroke-miterlimit:10;}
	.st6{fill:#FFC1C8;stroke:#1D1D1B;stroke-width:2;stroke-linecap:round;stroke-linejoin:round;stroke-miterlimit:10;}
	.st7{fill:none;stroke:#1D1D1B;stroke-width:2;stroke-linecap:round;stroke-linejoin:round;stroke-miterlimit:10;}
	.st8{fill:#8DA6A6;stroke:#1E1E1C;stroke-width:2;stroke-linecap:round;stroke-linejoin:round;stroke-miterlimit:10;}
	.st9{fill:#A4C3C6;stroke:#1E1E1C;stroke-width:2;stroke-linecap:round;stroke-linejoin:round;stroke-miterlimit:10;}
	.st10{fill:url(#);}
	.st11{fill:#E4E4E4;stroke:#1D1E1C;stroke-width:2;stroke-linecap:round;stroke-linejoin:round;stroke-miterlimit:10;}
	.st12{fill:#ED7069;stroke:#1D1D1B;stroke-width:2;stroke-linecap:round;stroke-linejoin:round;stroke-miterlimit:10;}
	.st13{fill:#1D508A;}
	.st14{fill:#1D508A;stroke:#1D1D1B;stroke-width:2;stroke-linecap:round;stroke-linejoin:round;stroke-miterlimit:10;}
	.st15{fill:#F1A4AB;stroke:#1D1D1B;stroke-width:2;stroke-linecap:round;stroke-linejoin:round;stroke-miterlimit:10;}
	.st16{fill:#1D1D1B;}
	.st17{fill:#989899;stroke:#1D1D1B;stroke-width:2;stroke-linecap:round;stroke-linejoin:round;stroke-miterlimit:10;}
	.st18{fill:#717171;stroke:#1D1D1B;stroke-width:2;stroke-linecap:round;stroke-linejoin:round;stroke-miterlimit:10;}
	.st19{fill:#BCBABB;stroke:#1D1D1B;stroke-width:2;stroke-linecap:round;stroke-linejoin:round;stroke-miterlimit:10;}
	.st20{fill:#64B5B2;}
	.st21{fill:#1D1E1C;}
	.st22{fill:#549793;}
	.st23{fill:#EEC44D;}
	.st24{fill:#D4AC46;}
	.st25{fill:#3B97D0;}
	.st26{fill:#3586B1;}
	.st27{fill:#E84E42;}
	.st28{fill:#D54037;}
	.st29{fill:#CECECD;stroke:#1D1E1C;stroke-width:2;stroke-linecap:round;stroke-linejoin:round;stroke-miterlimit:10;}
	.st30{fill:none;stroke:#1D1E1C;stroke-width:2;stroke-linecap:round;stroke-linejoin:round;stroke-miterlimit:10;}
	.st31{fill:#FFFFFF;stroke:#1E1E1C;stroke-width:2;stroke-linecap:round;stroke-linejoin:round;stroke-miterlimit:10;}
	.st32{fill:#C1737F;stroke:#1D1E1C;stroke-width:2;stroke-linecap:round;stroke-linejoin:round;stroke-miterlimit:10;}
	.st33{fill:#D4AC46;stroke:#1D1E1C;stroke-width:2;stroke-linecap:round;stroke-linejoin:round;stroke-miterlimit:10;}
	.st34{fill:#EEC44D;stroke:#1D1E1C;stroke-width:2;stroke-linecap:round;stroke-linejoin:round;stroke-miterlimit:10;}
	.st35{fill:#F7F7F5;stroke:#1D1D1B;stroke-width:2;stroke-miterlimit:10;}
	.st36{fill:#C9C8B8;stroke:#1D1D1B;stroke-width:2;stroke-miterlimit:10;}
	.st37{fill:none;stroke:#1D1D1B;stroke-width:2;stroke-miterlimit:10;}
	.st38{fill:#DD3D27;stroke:#1D1D1B;stroke-width:2;stroke-miterlimit:10;}
	.st39{clip-path:url(#SVGID_2_);fill:#FAD14D;stroke:#1D1E1C;stroke-width:2;stroke-miterlimit:10;}
	
		.st40{clip-path:url(#SVGID_2_);fill:#325B59;stroke:#1D1D1B;stroke-width:2;stroke-linecap:round;stroke-linejoin:round;stroke-miterlimit:10;}
	.st41{clip-path:url(#SVGID_2_);}
	.st42{fill:#F7F7F5;stroke:#1D1D1B;stroke-width:2;stroke-linecap:round;stroke-linejoin:round;stroke-miterlimit:10;}
	
		.st43{clip-path:url(#SVGID_2_);fill:#65C1BE;stroke:#1D1D1B;stroke-width:2;stroke-linecap:round;stroke-linejoin:round;stroke-miterlimit:10;}
	
		.st44{clip-path:url(#SVGID_2_);fill:#417C79;stroke:#1D1D1B;stroke-width:2;stroke-linecap:round;stroke-linejoin:round;stroke-miterlimit:10;}
	
		.st45{clip-path:url(#SVGID_2_);fill:#26283D;stroke:#1D1D1B;stroke-width:2;stroke-linecap:round;stroke-linejoin:round;stroke-miterlimit:10;}
	
		.st46{clip-path:url(#SVGID_2_);fill:none;stroke:#1D1D1B;stroke-width:2;stroke-linecap:round;stroke-linejoin:round;stroke-miterlimit:10;}
	
		.st47{clip-path:url(#SVGID_2_);fill:#AD6159;stroke:#1E1E1C;stroke-width:2;stroke-linecap:round;stroke-linejoin:round;stroke-miterlimit:10;}
	
		.st48{clip-path:url(#SVGID_2_);fill:#E88676;stroke:#1E1E1C;stroke-width:2;stroke-linecap:round;stroke-linejoin:round;stroke-miterlimit:10;}
	.st49{opacity:0.63;clip-path:url(#SVGID_2_);}
	.st50{fill:#FFFFFF;}
	.st51{opacity:0.36;fill:#FFFFFF;}
	.st52{opacity:0.23;}
	.st53{opacity:0.23;clip-path:url(#SVGID_2_);}
	.st54{fill:#5F999F;stroke:#1D1E1C;stroke-width:2;stroke-miterlimit:10;}
	.st55{fill:#77C1C5;stroke:#1D1E1C;stroke-width:2;stroke-miterlimit:10;}
	.st56{fill:#FBD943;stroke:#000100;stroke-width:2;stroke-miterlimit:10;}
	.st57{fill:#F1F1F1;stroke:#1D1D1B;stroke-width:2;stroke-miterlimit:10;}
	.st58{fill:#FF5546;stroke:#1D1D1B;stroke-width:2;stroke-linecap:round;stroke-miterlimit:10;}
	.st59{fill:#FF5546;stroke:#1D1D1B;stroke-width:2;stroke-miterlimit:10;}
	.st60{fill:#FFBE4A;stroke:#1E1E1C;stroke-width:2;stroke-linecap:square;stroke-linejoin:bevel;stroke-miterlimit:10;}
	.st61{stroke:#1D1E1C;stroke-width:2;stroke-miterlimit:10;}
	.st62{fill:#DDA345;}
	.st63{fill:#1E1E1C;}
	.st64{fill:#458353;}
	.st65{fill:#CB3524;stroke:#000000;stroke-width:2;stroke-linecap:round;stroke-linejoin:round;stroke-miterlimit:10;}
	.st66{fill:#DC3D26;stroke:#000000;stroke-width:2;stroke-linecap:round;stroke-linejoin:round;stroke-miterlimit:10;}
	.st67{fill:#1E508B;}
	.st68{fill:#E3AA24;stroke:#000000;stroke-width:2;stroke-linecap:round;stroke-linejoin:round;stroke-miterlimit:10;}
	.st69{fill:#3CA3DB;}
	.st70{fill:#E78476;stroke:#000000;stroke-width:2;stroke-linecap:round;stroke-linejoin:round;stroke-miterlimit:10;}
	.st71{fill:#D2756C;}
	.st72{fill:#C0BFBE;stroke:#1D1E1C;stroke-width:2;stroke-linecap:round;stroke-linejoin:round;stroke-miterlimit:10;}
	.st73{fill:#F4F4F2;stroke:#1D1E1C;stroke-width:2;stroke-linecap:round;stroke-linejoin:round;stroke-miterlimit:10;}
	.st74{fill:#FFF6EF;stroke:#1D1E1C;stroke-width:2;stroke-linecap:round;stroke-linejoin:round;stroke-miterlimit:10;}
	.st75{fill:#F3A9A6;}
	.st76{fill:#1EAF9A;}
	.st77{fill:#EE828F;}
	.st78{fill:#A4C3C6;}
	.st79{fill:#FAD04D;}
	.st80{fill:none;stroke:#1D1E1C;stroke-width:2;stroke-miterlimit:10;}
	.st81{fill:#F3A9A6;stroke:#1D1E1C;stroke-width:2;stroke-miterlimit:10;}
	.st82{fill:#FFFFFF;stroke:#1D1D1B;stroke-width:2;stroke-linecap:round;stroke-linejoin:round;stroke-miterlimit:10;}
	.st83{fill:#E2D0B3;stroke:#1D1D1B;stroke-width:2;stroke-linecap:round;stroke-linejoin:round;stroke-miterlimit:10;}
	.st84{fill:#C6B399;stroke:#1D1D1B;stroke-width:2;stroke-linecap:round;stroke-linejoin:round;stroke-miterlimit:10;}
	.st85{fill:#9B9A9A;stroke:#1D1D1B;stroke-width:2;stroke-linecap:round;stroke-linejoin:round;stroke-miterlimit:10;}
	.st86{fill:#B7B3B3;stroke:#1D1D1B;stroke-width:2;stroke-linecap:round;stroke-linejoin:round;stroke-miterlimit:10;}
	.st87{fill:#DADADA;stroke:#1D1D1B;stroke-width:2;stroke-linecap:round;stroke-linejoin:round;stroke-miterlimit:10;}
	.st88{fill:#A6C5C8;stroke:#1D1D1B;stroke-width:2;stroke-linecap:round;stroke-linejoin:round;stroke-miterlimit:10;}
	.st89{fill:#39ADAC;stroke:#1D1D1B;stroke-width:2;stroke-linecap:round;stroke-linejoin:round;stroke-miterlimit:10;}
	.st90{fill:#713662;stroke:#1D1D1B;stroke-width:2;stroke-linecap:round;stroke-linejoin:round;stroke-miterlimit:10;}
	.st91{fill:#363A5D;stroke:#1D1D1B;stroke-width:2;stroke-linecap:round;stroke-linejoin:round;stroke-miterlimit:10;}
	.st92{fill:#FF5546;stroke:#1D1D1B;stroke-width:2;stroke-linecap:round;stroke-linejoin:round;stroke-miterlimit:10;}
	.st93{fill:#DF5165;stroke:#1D1D1B;stroke-width:2;stroke-linecap:round;stroke-linejoin:round;stroke-miterlimit:10;}
	.st94{fill:#00B69E;stroke:#1D1D1B;stroke-width:2;stroke-linecap:round;stroke-linejoin:round;stroke-miterlimit:10;}
	.st95{fill:#FAD14D;stroke:#1D1D1B;stroke-width:2;stroke-linecap:round;stroke-linejoin:round;stroke-miterlimit:10;}
	.st96{fill:#00A9CF;stroke:#1D1D1B;stroke-width:2;stroke-linecap:round;stroke-linejoin:round;stroke-miterlimit:10;}
	.st97{fill:#4EB9AC;stroke:#000100;stroke-width:2;stroke-linecap:round;stroke-linejoin:round;stroke-miterlimit:10;}
	.st98{fill:#4EB9AC;}
	.st99{fill:none;stroke:#000100;stroke-width:2;stroke-linecap:round;stroke-linejoin:round;stroke-miterlimit:10;}
	.st100{fill:#FFFFFF;stroke:#000000;stroke-width:2;stroke-linecap:round;stroke-linejoin:round;stroke-miterlimit:10;}
	.st101{fill:#FFFFFF;stroke:#1D1D1B;stroke-width:2;stroke-miterlimit:10;}
	.st102{fill:#FFFFFF;stroke:#1D1D1B;stroke-width:2;stroke-linecap:round;stroke-miterlimit:10;}
	.st103{fill:#1D1D1B;stroke:#1D1D1B;stroke-width:2;stroke-miterlimit:10;}
	.st104{fill:#1D1D1B;stroke:#FFFFFF;stroke-width:2;stroke-miterlimit:10;}
	.st105{fill:#E1E6E1;stroke:#1D1D1B;stroke-width:2;stroke-linecap:round;stroke-linejoin:round;stroke-miterlimit:10;}
	.st106{fill:none;stroke:#010101;stroke-width:2;stroke-linecap:round;stroke-linejoin:round;stroke-miterlimit:10;}
	.st107{fill:#ECD9DF;stroke:#1D1D1B;stroke-width:2;stroke-linecap:round;stroke-linejoin:round;stroke-miterlimit:10;}
	.st108{stroke:#000000;stroke-width:2;stroke-linecap:round;stroke-linejoin:round;stroke-miterlimit:10;}
	.st109{fill:#B7707A;stroke:#1D1D1B;stroke-width:2;stroke-linecap:round;stroke-linejoin:round;stroke-miterlimit:10;}
	.st110{fill:#E58B95;stroke:#1D1D1B;stroke-width:2;stroke-linecap:round;stroke-linejoin:round;stroke-miterlimit:10;}
	.st111{fill:#68999B;stroke:#1D1D1B;stroke-width:2;stroke-linecap:round;stroke-linejoin:round;stroke-miterlimit:10;}
	.st112{fill:#F2C74E;stroke:#000100;stroke-width:2;stroke-linecap:round;stroke-linejoin:round;stroke-miterlimit:10;}
	.st113{fill:#BC973B;stroke:#000100;stroke-width:2;stroke-linecap:round;stroke-linejoin:round;stroke-miterlimit:10;}
	.st114{fill:#646563;stroke:#1D1D1B;stroke-width:2;stroke-linecap:round;stroke-linejoin:round;stroke-miterlimit:10;}
	.st115{fill:#B6803D;stroke:#1D1D1B;stroke-width:2;stroke-linecap:round;stroke-linejoin:round;stroke-miterlimit:10;}
	.st116{fill:#F6B456;stroke:#1D1D1B;stroke-width:2;stroke-linecap:round;stroke-linejoin:round;stroke-miterlimit:10;}
	.st117{fill:#EC716B;stroke:#1D1D1B;stroke-width:2;stroke-linecap:round;stroke-linejoin:round;stroke-miterlimit:10;}
	.st118{fill:#0B434C;stroke:#1D1D1B;stroke-width:2;stroke-linecap:round;stroke-linejoin:round;stroke-miterlimit:10;}
	.st119{fill:#1D1D1B;stroke:#1D1D1B;stroke-width:2;stroke-linecap:round;stroke-linejoin:round;stroke-miterlimit:10;}
	.st120{fill:#1D1D1B;stroke:#1D1D1B;stroke-miterlimit:10;}
	.st121{fill:#F3A5AC;stroke:#010101;stroke-width:2;stroke-linecap:round;stroke-linejoin:round;stroke-miterlimit:10;}
	.st122{fill:#A6D3B6;stroke:#010101;stroke-width:2;stroke-linecap:round;stroke-linejoin:round;stroke-miterlimit:10;}
	.st123{fill:#A5C4C7;stroke:#010101;stroke-width:2;stroke-linecap:round;stroke-linejoin:round;stroke-miterlimit:10;}
	.st124{fill:#FAD14E;stroke:#010101;stroke-width:2;stroke-linecap:round;stroke-linejoin:round;stroke-miterlimit:10;}
	.st125{fill:#4F79A4;stroke:#1D1E1C;stroke-width:2;stroke-linecap:round;stroke-linejoin:round;stroke-miterlimit:10;}
	.st126{fill:#ED716A;stroke:#1D1E1C;stroke-width:2;stroke-miterlimit:10;}
	.st127{fill:#A8B8DC;stroke:#1D1E1C;stroke-width:2;stroke-linecap:round;stroke-linejoin:round;stroke-miterlimit:10;}
	.st128{fill:#65C0BC;stroke:#1D1E1C;stroke-width:2;stroke-linecap:round;stroke-linejoin:round;stroke-miterlimit:10;}
	.st129{fill:#C2C4C2;stroke:#1D1D1B;stroke-width:2;stroke-linecap:round;stroke-linejoin:round;stroke-miterlimit:10;}
	.st130{fill:#AAB0B5;stroke:#1D1D1B;stroke-width:2;stroke-miterlimit:10;}
	.st131{fill:#D3C2A3;stroke:#1D1D1B;stroke-width:2;stroke-linecap:square;stroke-linejoin:bevel;stroke-miterlimit:10;}
	.st132{stroke:#1D1D1B;stroke-width:2;stroke-miterlimit:10;}
	.st133{fill:#D5DCE4;stroke:#1D1D1B;stroke-width:2;stroke-miterlimit:10;}
	.st134{fill:none;stroke:#FFFFFF;stroke-width:2;stroke-linecap:round;stroke-linejoin:round;stroke-miterlimit:10;}
	.st135{fill:#5080A2;stroke:#1D1D1B;stroke-width:2;stroke-linecap:round;stroke-linejoin:round;stroke-miterlimit:10;}
	.st136{fill:#6094C0;stroke:#1D1D1B;stroke-width:2;stroke-linecap:round;stroke-linejoin:round;stroke-miterlimit:10;}
	.st137{fill:#5688AA;stroke:#1D1D1B;stroke-width:2;stroke-linecap:square;stroke-linejoin:bevel;stroke-miterlimit:10;}
	.st138{fill:#F3C43E;stroke:#1D1D1B;stroke-width:2;stroke-linecap:round;stroke-linejoin:round;stroke-miterlimit:10;}
	.st139{fill:#FABB4B;stroke:#1D1D1B;stroke-width:2;stroke-linecap:round;stroke-linejoin:round;stroke-miterlimit:10;}
	.st140{fill:#FFFFFF;stroke:#1D1D1B;stroke-width:2;stroke-linecap:square;stroke-linejoin:bevel;stroke-miterlimit:10;}
	.st141{fill:#61B675;stroke:#1D1D1B;stroke-width:2;stroke-linecap:square;stroke-linejoin:bevel;stroke-miterlimit:10;}
	.st142{fill:#37AB72;stroke:#1D1D1B;stroke-width:2;stroke-linecap:round;stroke-linejoin:round;stroke-miterlimit:10;}
	.st143{fill:none;stroke:#1D1D1B;stroke-width:2;stroke-linecap:round;stroke-miterlimit:10;}
	.st144{fill:#EDDEBC;stroke:#1D1D1B;stroke-width:2;stroke-linecap:square;stroke-linejoin:bevel;stroke-miterlimit:10;}
	.st145{fill:none;}
	.st146{fill:#52B47D;stroke:#1D1D1B;stroke-width:2;stroke-linecap:round;stroke-linejoin:round;stroke-miterlimit:10;}
	.st147{fill:#2E8D5C;stroke:#1D1D1B;stroke-width:2;stroke-linecap:round;stroke-linejoin:round;stroke-miterlimit:10;}
	.st148{opacity:0.25;fill:none;stroke:#FFFFFF;stroke-width:2;stroke-linecap:round;stroke-linejoin:round;stroke-miterlimit:10;}
	.st149{fill:none;stroke:#1D1D1B;stroke-width:2;stroke-linecap:square;stroke-linejoin:bevel;stroke-miterlimit:10;}
	.st150{fill:#E9554B;stroke:#1D1D1B;stroke-width:2;stroke-miterlimit:10;}
	.st151{fill:#E9524B;stroke:#1D1D1B;stroke-width:2;stroke-linecap:round;stroke-linejoin:round;stroke-miterlimit:10;}
	.st152{fill:#EB6661;stroke:#1D1D1B;stroke-width:2;stroke-miterlimit:10;}
	.st153{opacity:0.2;fill:#1D1D1B;}
	
		.st154{opacity:9.000000e-02;fill:none;stroke:#FFFFFF;stroke-width:2;stroke-linecap:round;stroke-linejoin:round;stroke-miterlimit:10;}
	.st155{fill:#FAD04E;stroke:#1D1D1B;stroke-width:2;stroke-linecap:round;stroke-linejoin:round;stroke-miterlimit:10;}
	.st156{fill:#E5BD4A;stroke:#1D1D1B;stroke-width:2;stroke-linecap:round;stroke-linejoin:round;stroke-miterlimit:10;}
	.st157{fill:#B68235;stroke:#1D1D1B;stroke-width:2;stroke-linecap:round;stroke-linejoin:round;stroke-miterlimit:10;}
	.st158{fill:#D2BFB9;stroke:#1D1D1B;stroke-width:2;stroke-linecap:round;stroke-linejoin:round;stroke-miterlimit:10;}
	.st159{fill:#DADAD2;}
	.st160{clip-path:url(#SVGID_6_);}
	.st161{fill:#308C89;}
	.st162{fill:#333333;}
	.st163{fill:#F0584D;}
	.st164{fill:#FAD14D;}
	.st165{fill:#3CA4DC;}
	.st166{clip-path:url(#SVGID_8_);}
	.st167{fill:#D8B144;}
	.st168{fill:#3290BA;}
	.st169{fill:#D84B48;}
	.st170{fill:#E6DDEE;stroke:#1D1E1C;stroke-width:2;stroke-linecap:square;stroke-linejoin:bevel;stroke-miterlimit:10;}
	.st171{fill:#F1F1F1;stroke:#1D1E1C;stroke-width:2;stroke-miterlimit:10;}
	.st172{fill:#F3BC12;stroke:#010101;stroke-width:2;stroke-linecap:round;stroke-linejoin:round;stroke-miterlimit:10;}
	.st173{fill:#FCD28C;stroke:#1D1E1C;stroke-width:2;stroke-linecap:round;stroke-linejoin:round;stroke-miterlimit:10;}
	.st174{fill:#ED706A;stroke:#1D1E1C;stroke-width:2;stroke-linecap:round;stroke-linejoin:round;stroke-miterlimit:10;}
	.st175{fill:#CB615E;stroke:#1D1E1C;stroke-width:2;stroke-linecap:round;stroke-linejoin:round;stroke-miterlimit:10;}
	.st176{fill:#F7CCC1;stroke:#1D1D1B;stroke-width:2;stroke-linecap:round;stroke-linejoin:round;stroke-miterlimit:10;}
	.st177{fill:#FF4B3C;stroke:#1D1E1C;stroke-width:2;stroke-linecap:round;stroke-linejoin:round;stroke-miterlimit:10;}
	.st178{fill:#F0F0F0;stroke:#1D1E1C;stroke-width:2;stroke-linecap:round;stroke-linejoin:round;stroke-miterlimit:10;}
	.st179{fill:#F9EFE2;stroke:#1D1E1C;stroke-width:2;stroke-linecap:round;stroke-linejoin:round;stroke-miterlimit:10;}
	.st180{fill:#9AC7AA;stroke:#1D1D1B;stroke-width:2;stroke-linecap:round;stroke-linejoin:round;stroke-miterlimit:10;}
	.st181{fill:#A2CFD6;stroke:#1D1D1B;stroke-width:2;stroke-linecap:round;stroke-linejoin:round;stroke-miterlimit:10;}
	.st182{fill:#E799A0;}
	.st183{opacity:0.41;fill:#A2CFD6;}
</style>
<g>
	<g>
		<g>
			<g>
				<path class="st20" d="M114.6,177.4c-19.5,0-39.7-4.7-39.7-12.6v-6.1c0-0.6,0.4-1,1-1h5.4c7.3-3.5,19.7-5.6,33.3-5.6
					c13.6,0,26,2.1,33.3,5.6h5.4c0.6,0,1,0.4,1,1v6.1C154.3,172.7,134.2,177.4,114.6,177.4z"/>
				<path class="st21" d="M114.6,153.2c14,0,26.2,2.2,33,5.6h5.6v6.1c0,6.4-17.3,11.6-38.7,11.6c-21.4,0-38.7-5.2-38.7-11.6v-6.1
					h5.6C88.4,155.4,100.7,153.2,114.6,153.2 M114.6,151.2c-13.6,0-26.1,2.1-33.5,5.6H76c-1.1,0-2,0.9-2,2v6.1
					c0,4.1,4.4,7.6,12.8,10.1c7.5,2.3,17.4,3.5,27.9,3.5c10.5,0,20.4-1.2,27.9-3.5c8.3-2.5,12.8-6,12.8-10.1v-6.1c0-1.1-0.9-2-2-2
					h-5.2C140.7,153.2,128.3,151.2,114.6,151.2L114.6,151.2z"/>
			</g>
			<g>
				<path class="st22" d="M114.6,171.4c-19.5,0-39.7-4.7-39.7-12.6s20.2-12.6,39.7-12.6c19.5,0,39.7,4.7,39.7,12.6
					S134.2,171.4,114.6,171.4z"/>
				<path class="st21" d="M114.6,147.1c21.4,0,38.7,5.2,38.7,11.6c0,6.4-17.3,11.6-38.7,11.6c-21.4,0-38.7-5.2-38.7-11.6
					C76,152.3,93.3,147.1,114.6,147.1 M114.6,145.1c-10.5,0-20.4,1.2-27.9,3.5c-8.3,2.5-12.8,6-12.8,10.1s4.4,7.6,12.8,10.1
					c7.5,2.3,17.4,3.5,27.9,3.5s20.4-1.2,27.9-3.5c8.3-2.5,12.8-6,12.8-10.1s-4.4-7.6-12.8-10.1
					C135.1,146.3,125.2,145.1,114.6,145.1L114.6,145.1z"/>
			</g>
		</g>
		<g>
			<g>
				<path class="st23" d="M125,162.8c-21.2,0-43.2-5.1-43.2-13.7v-11.4c0-0.4,0.2-0.7,0.6-0.9c0.1-0.1,0.3-0.1,0.4-0.1
					c0.2,0,0.4,0.1,0.6,0.2l5.7,4.4c7.9-3.7,21.3-5.9,35.9-5.9s28,2.2,35.9,5.9l5.7-4.4c0.2-0.1,0.4-0.2,0.6-0.2
					c0.2,0,0.3,0,0.4,0.1c0.3,0.2,0.6,0.5,0.6,0.9v11.4C168.2,157.7,146.3,162.8,125,162.8z"/>
				<path class="st21" d="M125,136.4c15.3,0,28.6,2.4,36,6.1l6.2-4.8v11.4c0,7-18.9,12.7-42.2,12.7c-23.3,0-42.2-5.7-42.2-12.7
					v-11.4l6.2,4.8C96.4,138.8,109.8,136.4,125,136.4 M125,134.4c-14.4,0-27.6,2.1-35.8,5.8l-5.2-4c-0.4-0.3-0.8-0.4-1.2-0.4
					c-0.3,0-0.6,0.1-0.9,0.2c-0.7,0.3-1.1,1-1.1,1.8v11.4c0,4.4,4.8,8.2,13.8,10.9c8.2,2.5,19,3.8,30.4,3.8
					c11.5,0,22.3-1.4,30.4-3.8c9-2.7,13.8-6.5,13.8-10.9v-11.4c0-0.8-0.4-1.5-1.1-1.8c-0.3-0.1-0.6-0.2-0.9-0.2
					c-0.4,0-0.9,0.1-1.2,0.4l-5.2,4C152.7,136.5,139.4,134.4,125,134.4L125,134.4z"/>
			</g>
			<g>
				<path class="st24" d="M125,151.4c-21.2,0-43.2-5.1-43.2-13.7s22-13.7,43.2-13.7c21.2,0,43.2,5.1,43.2,13.7
					S146.3,151.4,125,151.4z"/>
				<path class="st21" d="M125,125c23.3,0,42.2,5.7,42.2,12.7s-18.9,12.7-42.2,12.7s-42.2-5.7-42.2-12.7S101.7,125,125,125 M125,123
					c-21.4,0-44.2,5.2-44.2,14.7s22.8,14.7,44.2,14.7c21.4,0,44.2-5.2,44.2-14.7S146.4,123,125,123L125,123z"/>
			</g>
		</g>
		<g>
			<g>
				<path class="st25" d="M116.9,145.7c-25,0-38.4-6.3-38.4-12.3v-11.3c0-0.4,0.2-0.8,0.6-0.9c0.1-0.1,0.3-0.1,0.4-0.1
					c0.3,0,0.5,0.1,0.7,0.3l5,4.9c7.1-3.3,18.9-5.2,31.7-5.2c4.8,0,9.6-0.4,13.7-0.8c3.6-0.3,7-0.6,10-0.6c3.6,0,6.3,0.5,8.4,1.4
					h5.2c0.6,0,1,0.4,1,1v11.3C155.4,139.4,141.9,145.7,116.9,145.7z"/>
				<path class="st21" d="M140.7,120.8c3.2,0,6,0.4,8.2,1.4h5.5v11.3c0,6.2-16.8,11.3-37.4,11.3c-20.7,0-37.4-5-37.4-11.3v-11.3
					l5.5,5.4c6.6-3.2,18.4-5.4,32-5.4C126,122.2,134.2,120.8,140.7,120.8 M140.7,118.8c-3.1,0-6.5,0.3-10.1,0.6
					c-4.2,0.4-8.9,0.8-13.6,0.8c-12.7,0-24.3,1.9-31.5,5l-4.5-4.4c-0.4-0.4-0.9-0.6-1.4-0.6c-0.3,0-0.5,0.1-0.8,0.2
					c-0.7,0.3-1.2,1-1.2,1.8v11.3c0,4,4.3,7.4,12.4,9.9c7.2,2.2,16.8,3.4,27,3.4c10.2,0,19.8-1.2,27-3.4c8.1-2.4,12.4-5.9,12.4-9.9
					v-11.3c0-1.1-0.9-2-2-2h-5C147.1,119.2,144.4,118.8,140.7,118.8L140.7,118.8z"/>
			</g>
			<g>
				<path class="st26" d="M116.9,134.5c-25,0-38.4-6.3-38.4-12.3s13.5-12.3,38.4-12.3c25,0,38.4,6.3,38.4,12.3
					S141.9,134.5,116.9,134.5z"/>
				<path class="st21" d="M116.9,110.9c20.7,0,37.4,5,37.4,11.3c0,6.2-16.8,11.3-37.4,11.3s-37.4-5-37.4-11.3
					C79.5,116,96.3,110.9,116.9,110.9 M116.9,108.9c-10.2,0-19.8,1.2-27,3.4c-8.1,2.4-12.4,5.9-12.4,9.9s4.3,7.4,12.4,9.9
					c7.2,2.2,16.8,3.4,27,3.4s19.8-1.2,27-3.4c8.1-2.4,12.4-5.9,12.4-9.9s-4.3-7.4-12.4-9.9C136.7,110.1,127.1,108.9,116.9,108.9
					L116.9,108.9z"/>
			</g>
		</g>
		<g>
			<g>
				<path class="st27" d="M116.9,126c-13.3,0-27.4-3.1-27.4-8.9v-7.9c0-0.4,0.2-0.8,0.6-0.9c0.1-0.1,0.3-0.1,0.4-0.1
					c0.3,0,0.5,0.1,0.7,0.3l3.4,3.3c5-2.3,13.3-3.6,22.3-3.6c3.4,0,6.7-0.3,9.7-0.6c2.5-0.2,5-0.4,7.1-0.4c2.6,0,4.5,0.3,6,1h3.6
					c0.6,0,1,0.4,1,1v7.9C144.3,122.9,130.2,126,116.9,126z"/>
				<path class="st21" d="M133.7,108.1c2.3,0,4.2,0.3,5.8,1h3.9v7.9c0,4.4-11.8,7.9-26.4,7.9c-14.6,0-26.4-3.6-26.4-7.9v-7.9
					l3.9,3.8c4.6-2.3,13-3.8,22.5-3.8C123.3,109.1,129.1,108.1,133.7,108.1 M133.7,106.1C133.7,106.1,133.7,106.1,133.7,106.1
					c-2.2,0-4.6,0.2-7.2,0.5c-3.1,0.3-6.2,0.6-9.6,0.6c-8.8,0-16.9,1.3-22.1,3.4l-2.9-2.8c-0.4-0.4-0.9-0.6-1.4-0.6
					c-0.3,0-0.5,0.1-0.8,0.2c-0.7,0.3-1.2,1-1.2,1.8v7.9c0,2.2,1.6,5.3,9.2,7.5c5.2,1.6,12,2.4,19.2,2.4s14.1-0.9,19.2-2.4
					c7.6-2.3,9.2-5.4,9.2-7.5v-7.9c0-1.1-0.9-2-2-2h-3.4C138.3,106.5,136.3,106.1,133.7,106.1L133.7,106.1L133.7,106.1z"/>
			</g>
			<g>
				<path class="st28" d="M116.9,118.1c-13.3,0-27.4-3.1-27.4-8.9s14.1-8.9,27.4-8.9c13.3,0,27.4,3.1,27.4,8.9
					S130.2,118.1,116.9,118.1z"/>
				<path class="st21" d="M116.9,101.2c14.6,0,26.4,3.6,26.4,7.9c0,4.4-11.8,7.9-26.4,7.9c-14.6,0-26.4-3.6-26.4-7.9
					C90.6,104.8,102.4,101.2,116.9,101.2 M116.9,99.2c-7.2,0-14.1,0.9-19.2,2.4c-7.6,2.3-9.2,5.4-9.2,7.5s1.6,5.3,9.2,7.5
					c5.2,1.6,12,2.4,19.2,2.4c7.2,0,14.1-0.9,19.2-2.4c7.6-2.3,9.2-5.4,9.2-7.5s-1.6-5.3-9.2-7.5C131,100.1,124.2,99.2,116.9,99.2
					L116.9,99.2z"/>
			</g>
		</g>
	</g>
	<g>
		<ellipse class="st29" cx="114.6" cy="85.7" rx="26.4" ry="27.9"/>
		<path class="st30" d="M110.7,62c11.4,0,20.7,10.7,20.7,24s-9.3,24-20.7,24"/>
		<g>
			<path class="st31" d="M98.9,87.3c0-9.9,7.8-18,17.3-18c5.3,0,10,2.4,13.2,6.3c1.2,3.1,1.9,6.5,1.9,10.1c0,6.6-2.3,12.5-5.9,16.8
				c-2.7,1.7-5.8,2.7-9.1,2.7C106.6,105.3,98.9,97.2,98.9,87.3z"/>
		</g>
		<g>
			<path class="st31" d="M98.9,87.3c0-9.9,7.8-18,17.3-18c5.3,0,10,2.4,13.2,6.3c1.2,3.1,1.9,6.5,1.9,10.1c0,6.6-2.3,12.5-5.9,16.8
				c-2.7,1.7-5.8,2.7-9.1,2.7C106.6,105.3,98.9,97.2,98.9,87.3z"/>
		</g>
	</g>
</g>
</svg>
