<?xml version="1.0" encoding="utf-8"?>
<!-- Generator: Adobe Illustrator 19.1.0, SVG Export Plug-In . SVG Version: 6.00 Build 0)  -->
<svg version="1.1" id="Capa_1" xmlns="http://www.w3.org/2000/svg" xmlns:xlink="http://www.w3.org/1999/xlink" x="0px" y="0px"
	 viewBox="0 0 231.2 231.2" style="enable-background:new 0 0 231.2 231.2;" xml:space="preserve">
<style type="text/css">
	.st0{fill:none;}
	.st1{fill:none;stroke:#1D1E1C;stroke-width:1.5;stroke-linecap:round;}
	.st2{fill:#E74C40;stroke:#000000;stroke-width:2;stroke-miterlimit:10;}
	.st3{fill:#BCA26C;stroke:#1D1E1C;stroke-width:2;stroke-miterlimit:10;}
	.st4{fill:#FFFFFF;stroke:#1D1E1C;stroke-width:2;stroke-miterlimit:10;}
	.st5{fill:#DE3A28;stroke:#1D1E1C;stroke-width:2;stroke-miterlimit:10;}
	.st6{fill:#F8EEE1;stroke:#1D1D1B;stroke-width:2;stroke-linecap:round;stroke-linejoin:round;stroke-miterlimit:10;}
	.st7{fill:#CD8C94;stroke:#1D1D1B;stroke-width:2;stroke-linecap:round;stroke-linejoin:round;stroke-miterlimit:10;}
	.st8{fill:#FFC1C8;stroke:#1D1D1B;stroke-width:2;stroke-linecap:round;stroke-linejoin:round;stroke-miterlimit:10;}
	.st9{fill:none;stroke:#1D1D1B;stroke-width:2;stroke-linecap:round;stroke-linejoin:round;stroke-miterlimit:10;}
	.st10{fill:#8DA6A6;stroke:#1E1E1C;stroke-width:2;stroke-linecap:round;stroke-linejoin:round;stroke-miterlimit:10;}
	.st11{fill:#A4C3C6;stroke:#1E1E1C;stroke-width:2;stroke-linecap:round;stroke-linejoin:round;stroke-miterlimit:10;}
	.st12{fill:url(#);}
	.st13{fill:#E4E4E4;stroke:#1D1E1C;stroke-width:2;stroke-linecap:round;stroke-linejoin:round;stroke-miterlimit:10;}
	.st14{fill:#ED7069;stroke:#1D1D1B;stroke-width:2;stroke-linecap:round;stroke-linejoin:round;stroke-miterlimit:10;}
	.st15{fill:#1D508A;}
	.st16{fill:#1D508A;stroke:#1D1D1B;stroke-width:2;stroke-linecap:round;stroke-linejoin:round;stroke-miterlimit:10;}
	.st17{fill:#F1A4AB;stroke:#1D1D1B;stroke-width:2;stroke-linecap:round;stroke-linejoin:round;stroke-miterlimit:10;}
	.st18{fill:#1D1D1B;}
	.st19{fill:#989899;stroke:#1D1D1B;stroke-width:2;stroke-linecap:round;stroke-linejoin:round;stroke-miterlimit:10;}
	.st20{fill:#717171;stroke:#1D1D1B;stroke-width:2;stroke-linecap:round;stroke-linejoin:round;stroke-miterlimit:10;}
	.st21{fill:#BCBABB;stroke:#1D1D1B;stroke-width:2;stroke-linecap:round;stroke-linejoin:round;stroke-miterlimit:10;}
	.st22{fill:#64B5B2;}
	.st23{fill:#1D1E1C;}
	.st24{fill:#549793;}
	.st25{fill:#EEC44D;}
	.st26{fill:#D4AC46;}
	.st27{fill:#3B97D0;}
	.st28{fill:#3586B1;}
	.st29{fill:#E84E42;}
	.st30{fill:#D54037;}
	.st31{fill:#CECECD;stroke:#1D1E1C;stroke-width:2;stroke-linecap:round;stroke-linejoin:round;stroke-miterlimit:10;}
	.st32{fill:none;stroke:#1D1E1C;stroke-width:2;stroke-linecap:round;stroke-linejoin:round;stroke-miterlimit:10;}
	.st33{fill:#FFFFFF;stroke:#1E1E1C;stroke-width:2;stroke-linecap:round;stroke-linejoin:round;stroke-miterlimit:10;}
	.st34{fill:#C1737F;stroke:#1D1E1C;stroke-width:2;stroke-linecap:round;stroke-linejoin:round;stroke-miterlimit:10;}
	.st35{fill:#D4AC46;stroke:#1D1E1C;stroke-width:2;stroke-linecap:round;stroke-linejoin:round;stroke-miterlimit:10;}
	.st36{fill:#EEC44D;stroke:#1D1E1C;stroke-width:2;stroke-linecap:round;stroke-linejoin:round;stroke-miterlimit:10;}
	.st37{fill:#F7F7F5;stroke:#1D1D1B;stroke-width:2;stroke-miterlimit:10;}
	.st38{fill:#C9C8B8;stroke:#1D1D1B;stroke-width:2;stroke-miterlimit:10;}
	.st39{fill:none;stroke:#1D1D1B;stroke-width:2;stroke-miterlimit:10;}
	.st40{fill:#DD3D27;stroke:#1D1D1B;stroke-width:2;stroke-miterlimit:10;}
	.st41{clip-path:url(#SVGID_2_);fill:#FAD14D;stroke:#1D1E1C;stroke-width:2;stroke-miterlimit:10;}
	
		.st42{clip-path:url(#SVGID_2_);fill:#325B59;stroke:#1D1D1B;stroke-width:2;stroke-linecap:round;stroke-linejoin:round;stroke-miterlimit:10;}
	.st43{clip-path:url(#SVGID_2_);}
	.st44{fill:#F7F7F5;stroke:#1D1D1B;stroke-width:2;stroke-linecap:round;stroke-linejoin:round;stroke-miterlimit:10;}
	
		.st45{clip-path:url(#SVGID_2_);fill:#65C1BE;stroke:#1D1D1B;stroke-width:2;stroke-linecap:round;stroke-linejoin:round;stroke-miterlimit:10;}
	
		.st46{clip-path:url(#SVGID_2_);fill:#417C79;stroke:#1D1D1B;stroke-width:2;stroke-linecap:round;stroke-linejoin:round;stroke-miterlimit:10;}
	
		.st47{clip-path:url(#SVGID_2_);fill:#26283D;stroke:#1D1D1B;stroke-width:2;stroke-linecap:round;stroke-linejoin:round;stroke-miterlimit:10;}
	
		.st48{clip-path:url(#SVGID_2_);fill:none;stroke:#1D1D1B;stroke-width:2;stroke-linecap:round;stroke-linejoin:round;stroke-miterlimit:10;}
	
		.st49{clip-path:url(#SVGID_2_);fill:#AD6159;stroke:#1E1E1C;stroke-width:2;stroke-linecap:round;stroke-linejoin:round;stroke-miterlimit:10;}
	
		.st50{clip-path:url(#SVGID_2_);fill:#E88676;stroke:#1E1E1C;stroke-width:2;stroke-linecap:round;stroke-linejoin:round;stroke-miterlimit:10;}
	.st51{opacity:0.63;clip-path:url(#SVGID_2_);}
	.st52{fill:#FFFFFF;}
	.st53{opacity:0.36;fill:#FFFFFF;}
	.st54{opacity:0.23;}
	.st55{opacity:0.23;clip-path:url(#SVGID_2_);}
	.st56{fill:#5F999F;stroke:#1D1E1C;stroke-width:2;stroke-miterlimit:10;}
	.st57{fill:#77C1C5;stroke:#1D1E1C;stroke-width:2;stroke-miterlimit:10;}
	.st58{fill:#FBD943;stroke:#000100;stroke-width:2;stroke-miterlimit:10;}
	.st59{fill:#F1F1F1;stroke:#1D1D1B;stroke-width:2;stroke-miterlimit:10;}
	.st60{fill:#FF5546;stroke:#1D1D1B;stroke-width:2;stroke-linecap:round;stroke-miterlimit:10;}
	.st61{fill:#FF5546;stroke:#1D1D1B;stroke-width:2;stroke-miterlimit:10;}
	.st62{fill:#FFBE4A;stroke:#1E1E1C;stroke-width:2;stroke-linecap:square;stroke-linejoin:bevel;stroke-miterlimit:10;}
	.st63{stroke:#1D1E1C;stroke-width:2;stroke-miterlimit:10;}
	.st64{fill:#DDA345;}
	.st65{fill:#1E1E1C;}
	.st66{fill:#458353;}
	.st67{fill:#CB3524;stroke:#000000;stroke-width:2;stroke-linecap:round;stroke-linejoin:round;stroke-miterlimit:10;}
	.st68{fill:#DC3D26;stroke:#000000;stroke-width:2;stroke-linecap:round;stroke-linejoin:round;stroke-miterlimit:10;}
	.st69{fill:#1E508B;}
	.st70{fill:#E3AA24;stroke:#000000;stroke-width:2;stroke-linecap:round;stroke-linejoin:round;stroke-miterlimit:10;}
	.st71{fill:#3CA3DB;}
	.st72{fill:#E78476;stroke:#000000;stroke-width:2;stroke-linecap:round;stroke-linejoin:round;stroke-miterlimit:10;}
	.st73{fill:#D2756C;}
	.st74{fill:#C0BFBE;stroke:#1D1E1C;stroke-width:2;stroke-linecap:round;stroke-linejoin:round;stroke-miterlimit:10;}
	.st75{fill:#F4F4F2;stroke:#1D1E1C;stroke-width:2;stroke-linecap:round;stroke-linejoin:round;stroke-miterlimit:10;}
	.st76{fill:#FFF6EF;stroke:#1D1E1C;stroke-width:2;stroke-linecap:round;stroke-linejoin:round;stroke-miterlimit:10;}
	.st77{fill:#F3A9A6;}
	.st78{fill:#1EAF9A;}
	.st79{fill:#EE828F;}
	.st80{fill:#A4C3C6;}
	.st81{fill:#FAD04D;}
	.st82{fill:none;stroke:#1D1E1C;stroke-width:2;stroke-miterlimit:10;}
	.st83{fill:#F3A9A6;stroke:#1D1E1C;stroke-width:2;stroke-miterlimit:10;}
	.st84{fill:#FFFFFF;stroke:#1D1D1B;stroke-width:2;stroke-linecap:round;stroke-linejoin:round;stroke-miterlimit:10;}
	.st85{fill:#E2D0B3;stroke:#1D1D1B;stroke-width:2;stroke-linecap:round;stroke-linejoin:round;stroke-miterlimit:10;}
	.st86{fill:#C6B399;stroke:#1D1D1B;stroke-width:2;stroke-linecap:round;stroke-linejoin:round;stroke-miterlimit:10;}
	.st87{fill:#9B9A9A;stroke:#1D1D1B;stroke-width:2;stroke-linecap:round;stroke-linejoin:round;stroke-miterlimit:10;}
	.st88{fill:#B7B3B3;stroke:#1D1D1B;stroke-width:2;stroke-linecap:round;stroke-linejoin:round;stroke-miterlimit:10;}
	.st89{fill:#DADADA;stroke:#1D1D1B;stroke-width:2;stroke-linecap:round;stroke-linejoin:round;stroke-miterlimit:10;}
	.st90{fill:#A6C5C8;stroke:#1D1D1B;stroke-width:2;stroke-linecap:round;stroke-linejoin:round;stroke-miterlimit:10;}
	.st91{fill:#39ADAC;stroke:#1D1D1B;stroke-width:2;stroke-linecap:round;stroke-linejoin:round;stroke-miterlimit:10;}
	.st92{fill:#713662;stroke:#1D1D1B;stroke-width:2;stroke-linecap:round;stroke-linejoin:round;stroke-miterlimit:10;}
	.st93{fill:#363A5D;stroke:#1D1D1B;stroke-width:2;stroke-linecap:round;stroke-linejoin:round;stroke-miterlimit:10;}
	.st94{fill:#FF5546;stroke:#1D1D1B;stroke-width:2;stroke-linecap:round;stroke-linejoin:round;stroke-miterlimit:10;}
	.st95{fill:#DF5165;stroke:#1D1D1B;stroke-width:2;stroke-linecap:round;stroke-linejoin:round;stroke-miterlimit:10;}
	.st96{fill:#00B69E;stroke:#1D1D1B;stroke-width:2;stroke-linecap:round;stroke-linejoin:round;stroke-miterlimit:10;}
	.st97{fill:#FAD14D;stroke:#1D1D1B;stroke-width:2;stroke-linecap:round;stroke-linejoin:round;stroke-miterlimit:10;}
	.st98{fill:#00A9CF;stroke:#1D1D1B;stroke-width:2;stroke-linecap:round;stroke-linejoin:round;stroke-miterlimit:10;}
	.st99{fill:#4EB9AC;stroke:#000100;stroke-width:2;stroke-linecap:round;stroke-linejoin:round;stroke-miterlimit:10;}
	.st100{fill:#4EB9AC;}
	.st101{fill:none;stroke:#000100;stroke-width:2;stroke-linecap:round;stroke-linejoin:round;stroke-miterlimit:10;}
	.st102{fill:#FFFFFF;stroke:#000000;stroke-width:2;stroke-linecap:round;stroke-linejoin:round;stroke-miterlimit:10;}
	.st103{fill:#FFFFFF;stroke:#1D1D1B;stroke-width:2;stroke-miterlimit:10;}
	.st104{fill:#FFFFFF;stroke:#1D1D1B;stroke-width:2;stroke-linecap:round;stroke-miterlimit:10;}
	.st105{fill:#1D1D1B;stroke:#1D1D1B;stroke-width:2;stroke-miterlimit:10;}
	.st106{fill:#1D1D1B;stroke:#FFFFFF;stroke-width:2;stroke-miterlimit:10;}
	.st107{fill:#E1E6E1;stroke:#1D1D1B;stroke-width:2;stroke-linecap:round;stroke-linejoin:round;stroke-miterlimit:10;}
	.st108{fill:none;stroke:#010101;stroke-width:2;stroke-linecap:round;stroke-linejoin:round;stroke-miterlimit:10;}
	.st109{fill:#ECD9DF;stroke:#1D1D1B;stroke-width:2;stroke-linecap:round;stroke-linejoin:round;stroke-miterlimit:10;}
	.st110{stroke:#000000;stroke-width:2;stroke-linecap:round;stroke-linejoin:round;stroke-miterlimit:10;}
	.st111{fill:#B7707A;stroke:#1D1D1B;stroke-width:2;stroke-linecap:round;stroke-linejoin:round;stroke-miterlimit:10;}
	.st112{fill:#E58B95;stroke:#1D1D1B;stroke-width:2;stroke-linecap:round;stroke-linejoin:round;stroke-miterlimit:10;}
	.st113{fill:#68999B;stroke:#1D1D1B;stroke-width:2;stroke-linecap:round;stroke-linejoin:round;stroke-miterlimit:10;}
	.st114{fill:#F2C74E;stroke:#000100;stroke-width:2;stroke-linecap:round;stroke-linejoin:round;stroke-miterlimit:10;}
	.st115{fill:#BC973B;stroke:#000100;stroke-width:2;stroke-linecap:round;stroke-linejoin:round;stroke-miterlimit:10;}
	.st116{fill:#646563;stroke:#1D1D1B;stroke-width:2;stroke-linecap:round;stroke-linejoin:round;stroke-miterlimit:10;}
	.st117{fill:#B6803D;stroke:#1D1D1B;stroke-width:2;stroke-linecap:round;stroke-linejoin:round;stroke-miterlimit:10;}
	.st118{fill:#F6B456;stroke:#1D1D1B;stroke-width:2;stroke-linecap:round;stroke-linejoin:round;stroke-miterlimit:10;}
	.st119{fill:#EC716B;stroke:#1D1D1B;stroke-width:2;stroke-linecap:round;stroke-linejoin:round;stroke-miterlimit:10;}
	.st120{fill:#0B434C;stroke:#1D1D1B;stroke-width:2;stroke-linecap:round;stroke-linejoin:round;stroke-miterlimit:10;}
	.st121{fill:#1D1D1B;stroke:#1D1D1B;stroke-width:2;stroke-linecap:round;stroke-linejoin:round;stroke-miterlimit:10;}
	.st122{fill:url(#SVGID_4_);}
	.st123{fill:#1D1D1B;stroke:#1D1D1B;stroke-miterlimit:10;}
	.st124{fill:#F3A5AC;stroke:#010101;stroke-width:2;stroke-linecap:round;stroke-linejoin:round;stroke-miterlimit:10;}
	.st125{fill:#A6D3B6;stroke:#010101;stroke-width:2;stroke-linecap:round;stroke-linejoin:round;stroke-miterlimit:10;}
	.st126{fill:#A5C4C7;stroke:#010101;stroke-width:2;stroke-linecap:round;stroke-linejoin:round;stroke-miterlimit:10;}
	.st127{fill:#FAD14E;stroke:#010101;stroke-width:2;stroke-linecap:round;stroke-linejoin:round;stroke-miterlimit:10;}
	.st128{fill:#4F79A4;stroke:#1D1E1C;stroke-width:2;stroke-linecap:round;stroke-linejoin:round;stroke-miterlimit:10;}
	.st129{fill:#ED716A;stroke:#1D1E1C;stroke-width:2;stroke-miterlimit:10;}
	.st130{fill:#A8B8DC;stroke:#1D1E1C;stroke-width:2;stroke-linecap:round;stroke-linejoin:round;stroke-miterlimit:10;}
	.st131{fill:#65C0BC;stroke:#1D1E1C;stroke-width:2;stroke-linecap:round;stroke-linejoin:round;stroke-miterlimit:10;}
	.st132{fill:#C2C4C2;stroke:#1D1D1B;stroke-width:2;stroke-linecap:round;stroke-linejoin:round;stroke-miterlimit:10;}
	.st133{fill:#AAB0B5;stroke:#1D1D1B;stroke-width:2;stroke-miterlimit:10;}
	.st134{fill:#D3C2A3;stroke:#1D1D1B;stroke-width:2;stroke-linecap:square;stroke-linejoin:bevel;stroke-miterlimit:10;}
	.st135{stroke:#1D1D1B;stroke-width:2;stroke-miterlimit:10;}
	.st136{fill:#D5DCE4;stroke:#1D1D1B;stroke-width:2;stroke-miterlimit:10;}
	.st137{fill:none;stroke:#FFFFFF;stroke-width:2;stroke-linecap:round;stroke-linejoin:round;stroke-miterlimit:10;}
	.st138{fill:#5080A2;stroke:#1D1D1B;stroke-width:2;stroke-linecap:round;stroke-linejoin:round;stroke-miterlimit:10;}
	.st139{fill:#6094C0;stroke:#1D1D1B;stroke-width:2;stroke-linecap:round;stroke-linejoin:round;stroke-miterlimit:10;}
	.st140{fill:#5688AA;stroke:#1D1D1B;stroke-width:2;stroke-linecap:square;stroke-linejoin:bevel;stroke-miterlimit:10;}
	.st141{fill:#F3C43E;stroke:#1D1D1B;stroke-width:2;stroke-linecap:round;stroke-linejoin:round;stroke-miterlimit:10;}
	.st142{fill:#FABB4B;stroke:#1D1D1B;stroke-width:2;stroke-linecap:round;stroke-linejoin:round;stroke-miterlimit:10;}
	.st143{fill:#FFFFFF;stroke:#1D1D1B;stroke-width:2;stroke-linecap:square;stroke-linejoin:bevel;stroke-miterlimit:10;}
	.st144{fill:#61B675;stroke:#1D1D1B;stroke-width:2;stroke-linecap:square;stroke-linejoin:bevel;stroke-miterlimit:10;}
	.st145{fill:#37AB72;stroke:#1D1D1B;stroke-width:2;stroke-linecap:round;stroke-linejoin:round;stroke-miterlimit:10;}
	.st146{fill:none;stroke:#1D1D1B;stroke-width:2;stroke-linecap:round;stroke-miterlimit:10;}
	.st147{fill:#EDDEBC;stroke:#1D1D1B;stroke-width:2;stroke-linecap:square;stroke-linejoin:bevel;stroke-miterlimit:10;}
	.st148{fill:#52B47D;stroke:#1D1D1B;stroke-width:2;stroke-linecap:round;stroke-linejoin:round;stroke-miterlimit:10;}
	.st149{fill:#2E8D5C;stroke:#1D1D1B;stroke-width:2;stroke-linecap:round;stroke-linejoin:round;stroke-miterlimit:10;}
	.st150{opacity:0.25;fill:none;stroke:#FFFFFF;stroke-width:2;stroke-linecap:round;stroke-linejoin:round;stroke-miterlimit:10;}
	.st151{fill:none;stroke:#1D1D1B;stroke-width:2;stroke-linecap:square;stroke-linejoin:bevel;stroke-miterlimit:10;}
	.st152{fill:#E9554B;stroke:#1D1D1B;stroke-width:2;stroke-miterlimit:10;}
	.st153{fill:#E9524B;stroke:#1D1D1B;stroke-width:2;stroke-linecap:round;stroke-linejoin:round;stroke-miterlimit:10;}
	.st154{fill:#EB6661;stroke:#1D1D1B;stroke-width:2;stroke-miterlimit:10;}
	.st155{opacity:0.2;fill:#1D1D1B;}
	
		.st156{opacity:9.000000e-02;fill:none;stroke:#FFFFFF;stroke-width:2;stroke-linecap:round;stroke-linejoin:round;stroke-miterlimit:10;}
	.st157{fill:#FAD04E;stroke:#1D1D1B;stroke-width:2;stroke-linecap:round;stroke-linejoin:round;stroke-miterlimit:10;}
	.st158{fill:#E5BD4A;stroke:#1D1D1B;stroke-width:2;stroke-linecap:round;stroke-linejoin:round;stroke-miterlimit:10;}
	.st159{fill:#B68235;stroke:#1D1D1B;stroke-width:2;stroke-linecap:round;stroke-linejoin:round;stroke-miterlimit:10;}
	.st160{fill:#D2BFB9;stroke:#1D1D1B;stroke-width:2;stroke-linecap:round;stroke-linejoin:round;stroke-miterlimit:10;}
	.st161{fill:#DADAD2;}
	.st162{clip-path:url(#SVGID_8_);}
	.st163{fill:#308C89;}
	.st164{fill:#333333;}
	.st165{fill:#F0584D;}
	.st166{fill:#FAD14D;}
	.st167{fill:#3CA4DC;}
	.st168{clip-path:url(#SVGID_9_);}
	.st169{fill:#D8B144;}
	.st170{fill:#3290BA;}
	.st171{fill:#D84B48;}
	.st172{fill:#E6DDEE;stroke:#1D1E1C;stroke-width:2;stroke-linecap:square;stroke-linejoin:bevel;stroke-miterlimit:10;}
	.st173{fill:#F1F1F1;stroke:#1D1E1C;stroke-width:2;stroke-miterlimit:10;}
	.st174{fill:#F3BC12;stroke:#010101;stroke-width:2;stroke-linecap:round;stroke-linejoin:round;stroke-miterlimit:10;}
	.st175{fill:#FCD28C;stroke:#1D1E1C;stroke-width:2;stroke-linecap:round;stroke-linejoin:round;stroke-miterlimit:10;}
	.st176{fill:#ED706A;stroke:#1D1E1C;stroke-width:2;stroke-linecap:round;stroke-linejoin:round;stroke-miterlimit:10;}
	.st177{fill:#CB615E;stroke:#1D1E1C;stroke-width:2;stroke-linecap:round;stroke-linejoin:round;stroke-miterlimit:10;}
	.st178{fill:#F7CCC1;stroke:#1D1D1B;stroke-width:2;stroke-linecap:round;stroke-linejoin:round;stroke-miterlimit:10;}
	.st179{fill:#FF4B3C;stroke:#1D1E1C;stroke-width:2;stroke-linecap:round;stroke-linejoin:round;stroke-miterlimit:10;}
	.st180{fill:#F0F0F0;stroke:#1D1E1C;stroke-width:2;stroke-linecap:round;stroke-linejoin:round;stroke-miterlimit:10;}
	.st181{fill:#F9EFE2;stroke:#1D1E1C;stroke-width:2;stroke-linecap:round;stroke-linejoin:round;stroke-miterlimit:10;}
	.st182{fill:#9AC7AA;stroke:#1D1D1B;stroke-width:2;stroke-linecap:round;stroke-linejoin:round;stroke-miterlimit:10;}
	.st183{fill:#A2CFD6;stroke:#1D1D1B;stroke-width:2;stroke-linecap:round;stroke-linejoin:round;stroke-miterlimit:10;}
	.st184{fill:#E799A0;}
	.st185{opacity:0.41;fill:#A2CFD6;}
</style>
<pattern  x="-2419" y="-726" width="72" height="72" patternUnits="userSpaceOnUse" id="Nueva_muestra_de_motivo_23" viewBox="11.1 -74 72 72" style="overflow:visible;">
	<g>
		<polygon class="st0" points="11.1,-2 11.1,-74 83.1,-74 83.1,-2 		"/>
		<line class="st1" x1="34.4" y1="-68.2" x2="34.4" y2="-68.2"/>
		<line class="st1" x1="22.6" y1="-73.2" x2="22.6" y2="-73.2"/>
		<line class="st1" x1="25.6" y1="-66.2" x2="25.6" y2="-66.2"/>
		<line class="st1" x1="25.9" y1="-70.5" x2="25.9" y2="-70.5"/>
		<line class="st1" x1="28.9" y1="-66.5" x2="28.9" y2="-66.5"/>
		<line class="st1" x1="31.1" y1="-70" x2="31.1" y2="-70"/>
		<line class="st1" x1="32.4" y1="-73.5" x2="32.4" y2="-73.5"/>
		<line class="st1" x1="40.1" y1="-69" x2="40.1" y2="-69"/>
		<line class="st1" x1="36.1" y1="-70.8" x2="36.1" y2="-70.8"/>
		<line class="st1" x1="28.1" y1="-72.8" x2="28.1" y2="-72.8"/>
		<line class="st1" x1="38.9" y1="-72.8" x2="38.9" y2="-72.8"/>
		<line class="st1" x1="42.9" y1="-71.8" x2="42.9" y2="-71.8"/>
		<line class="st1" x1="40.1" y1="-69" x2="40.1" y2="-69"/>
		<line class="st1" x1="39.4" y1="-66.2" x2="39.4" y2="-66.2"/>
		<line class="st1" x1="37.4" y1="-63.2" x2="37.4" y2="-63.2"/>
		<line class="st1" x1="33.4" y1="-65" x2="33.4" y2="-65"/>
		<line class="st1" x1="33.1" y1="-61.5" x2="33.1" y2="-61.5"/>
		<line class="st1" x1="28.1" y1="-62.5" x2="28.1" y2="-62.5"/>
		<line class="st1" x1="31.4" y1="-59.2" x2="31.4" y2="-59.2"/>
		<line class="st1" x1="33.9" y1="-55.5" x2="33.9" y2="-55.5"/>
		<line class="st1" x1="36.6" y1="-54.8" x2="36.6" y2="-54.8"/>
		<line class="st1" x1="39.6" y1="-56.5" x2="39.6" y2="-56.5"/>
		<line class="st1" x1="39.1" y1="-59.8" x2="39.1" y2="-59.8"/>
		<line class="st1" x1="41.1" y1="-62" x2="41.1" y2="-62"/>
		<line class="st1" x1="45.4" y1="-62" x2="45.4" y2="-62"/>
		<line class="st1" x1="43.6" y1="-57.2" x2="43.6" y2="-57.2"/>
		<line class="st1" x1="45.9" y1="-53.8" x2="45.9" y2="-53.8"/>
		<line class="st1" x1="42.4" y1="-53.5" x2="42.4" y2="-53.5"/>
		<line class="st1" x1="38.9" y1="-52.8" x2="38.9" y2="-52.8"/>
		<line class="st1" x1="48.4" y1="-58.2" x2="48.4" y2="-58.2"/>
		<line class="st1" x1="43.1" y1="-65.5" x2="43.1" y2="-65.5"/>
		<line class="st1" x1="45.1" y1="-68.5" x2="45.1" y2="-68.5"/>
		<line class="st1" x1="47.9" y1="-72" x2="47.9" y2="-72"/>
		<line class="st1" x1="48.6" y1="-68.8" x2="48.6" y2="-68.8"/>
		<line class="st1" x1="48.4" y1="-65.8" x2="48.4" y2="-65.8"/>
		<line class="st1" x1="48.6" y1="-62" x2="48.6" y2="-62"/>
		<line class="st1" x1="52.1" y1="-70.2" x2="52.1" y2="-70.2"/>
		<line class="st1" x1="52.9" y1="-66.5" x2="52.9" y2="-66.5"/>
		<line class="st1" x1="52.4" y1="-62.5" x2="52.4" y2="-62.5"/>
		<line class="st1" x1="52.6" y1="-58" x2="52.6" y2="-58"/>
		<line class="st1" x1="54.1" y1="-54.5" x2="54.1" y2="-54.5"/>
		<line class="st1" x1="49.4" y1="-54.8" x2="49.4" y2="-54.8"/>
		<line class="st1" x1="50.6" y1="-50.2" x2="50.6" y2="-50.2"/>
		<line class="st1" x1="46.4" y1="-50.5" x2="46.4" y2="-50.5"/>
		<line class="st1" x1="58.1" y1="-53" x2="58.1" y2="-53"/>
		<line class="st1" x1="57.1" y1="-56.5" x2="57.1" y2="-56.5"/>
		<line class="st1" x1="56.1" y1="-60" x2="56.1" y2="-60"/>
		<line class="st1" x1="56.4" y1="-64" x2="56.4" y2="-64"/>
		<line class="st1" x1="56.1" y1="-68.2" x2="56.1" y2="-68.2"/>
		<line class="st1" x1="55.9" y1="-71.5" x2="55.9" y2="-71.5"/>
		<line class="st1" x1="60.9" y1="-72.5" x2="60.9" y2="-72.5"/>
		<line class="st1" x1="60.1" y1="-68.2" x2="60.1" y2="-68.2"/>
		<line class="st1" x1="63.6" y1="-68.2" x2="63.6" y2="-68.2"/>
		<line class="st1" x1="63.4" y1="-64.8" x2="63.4" y2="-64.8"/>
		<line class="st1" x1="59.6" y1="-65" x2="59.6" y2="-65"/>
		<line class="st1" x1="59.9" y1="-60.5" x2="59.9" y2="-60.5"/>
		<line class="st1" x1="63.4" y1="-60.5" x2="63.4" y2="-60.5"/>
		<line class="st1" x1="60.6" y1="-57" x2="60.6" y2="-57"/>
		<line class="st1" x1="62.1" y1="-52.8" x2="62.1" y2="-52.8"/>
		<line class="st1" x1="63.9" y1="-49.5" x2="63.9" y2="-49.5"/>
		<line class="st1" x1="66.4" y1="-52.2" x2="66.4" y2="-52.2"/>
		<line class="st1" x1="64.9" y1="-55.8" x2="64.9" y2="-55.8"/>
		<line class="st1" x1="67.1" y1="-58.8" x2="67.1" y2="-58.8"/>
		<line class="st1" x1="67.4" y1="-63" x2="67.4" y2="-63"/>
		<line class="st1" x1="67.6" y1="-68" x2="67.6" y2="-68"/>
		<line class="st1" x1="70.9" y1="-67" x2="70.9" y2="-67"/>
		<line class="st1" x1="69.1" y1="-71.5" x2="69.1" y2="-71.5"/>
		<line class="st1" x1="72.9" y1="-70.5" x2="72.9" y2="-70.5"/>
		<line class="st1" x1="76.1" y1="-72.2" x2="76.1" y2="-72.2"/>
		<line class="st1" x1="78.1" y1="-70.2" x2="78.1" y2="-70.2"/>
		<line class="st1" x1="74.6" y1="-67.2" x2="74.6" y2="-67.2"/>
		<line class="st1" x1="73.9" y1="-63.5" x2="73.9" y2="-63.5"/>
		<line class="st1" x1="71.1" y1="-61.2" x2="71.1" y2="-61.2"/>
		<line class="st1" x1="73.6" y1="-58.5" x2="73.6" y2="-58.5"/>
		<line class="st1" x1="77.4" y1="-57.5" x2="77.4" y2="-57.5"/>
		<line class="st1" x1="75.4" y1="-55.2" x2="75.4" y2="-55.2"/>
		<line class="st1" x1="71.9" y1="-54.8" x2="71.9" y2="-54.8"/>
		<line class="st1" x1="69.1" y1="-55.2" x2="69.1" y2="-55.2"/>
		<line class="st1" x1="70.9" y1="-51" x2="70.9" y2="-51"/>
		<line class="st1" x1="75.4" y1="-52.2" x2="75.4" y2="-52.2"/>
		<line class="st1" x1="79.6" y1="-51.2" x2="79.6" y2="-51.2"/>
		<line class="st1" x1="79.6" y1="-54.8" x2="79.6" y2="-54.8"/>
		<line class="st1" x1="76.6" y1="-61.5" x2="76.6" y2="-61.5"/>
		<line class="st1" x1="77.4" y1="-65.2" x2="77.4" y2="-65.2"/>
		<line class="st1" x1="80.9" y1="-67.2" x2="80.9" y2="-67.2"/>
		<line class="st1" x1="81.9" y1="-72" x2="81.9" y2="-72"/>
		<line class="st1" x1="80.9" y1="-60.8" x2="80.9" y2="-60.8"/>
		<line class="st1" x1="82.6" y1="-57.2" x2="82.6" y2="-57.2"/>
		<line class="st1" x1="67.6" y1="-68" x2="67.6" y2="-68"/>
		<line class="st1" x1="69.1" y1="-71.5" x2="69.1" y2="-71.5"/>
		<line class="st1" x1="66.1" y1="-73.8" x2="66.1" y2="-73.8"/>
		<line class="st1" x1="65.1" y1="-70.8" x2="65.1" y2="-70.8"/>
		<line class="st1" x1="35.1" y1="-51.2" x2="35.1" y2="-51.2"/>
		<line class="st1" x1="31.1" y1="-54" x2="31.1" y2="-54"/>
		<line class="st1" x1="27.1" y1="-53" x2="27.1" y2="-53"/>
		<line class="st1" x1="28.1" y1="-57" x2="28.1" y2="-57"/>
		<line class="st1" x1="25.9" y1="-60" x2="25.9" y2="-60"/>
		<line class="st1" x1="23.6" y1="-62.8" x2="23.6" y2="-62.8"/>
		<line class="st1" x1="23.6" y1="-56.5" x2="23.6" y2="-56.5"/>
		<line class="st1" x1="27.1" y1="-53" x2="27.1" y2="-53"/>
		<line class="st1" x1="29.6" y1="-50.8" x2="29.6" y2="-50.8"/>
		<line class="st1" x1="25.1" y1="-49.2" x2="25.1" y2="-49.2"/>
		<line class="st1" x1="22.6" y1="-52.2" x2="22.6" y2="-52.2"/>
		<line class="st1" x1="35.1" y1="-58.8" x2="35.1" y2="-58.8"/>
		<line class="st1" x1="13.1" y1="-68.2" x2="13.1" y2="-68.2"/>
		<line class="st1" x1="11.6" y1="-65" x2="11.6" y2="-65"/>
		<line class="st1" x1="11.9" y1="-61.8" x2="11.9" y2="-61.8"/>
		<line class="st1" x1="14.4" y1="-58.8" x2="14.4" y2="-58.8"/>
		<line class="st1" x1="10.6" y1="-57.2" x2="10.6" y2="-57.2"/>
		<line class="st1" x1="12.1" y1="-54.5" x2="12.1" y2="-54.5"/>
		<line class="st1" x1="11.4" y1="-51.2" x2="11.4" y2="-51.2"/>
		<line class="st1" x1="16.4" y1="-55.5" x2="16.4" y2="-55.5"/>
		<line class="st1" x1="14.9" y1="-62.2" x2="14.9" y2="-62.2"/>
		<line class="st1" x1="18.9" y1="-73.2" x2="18.9" y2="-73.2"/>
		<line class="st1" x1="20.1" y1="-69.5" x2="20.1" y2="-69.5"/>
		<line class="st1" x1="16.9" y1="-69" x2="16.9" y2="-69"/>
		<line class="st1" x1="17.1" y1="-65.8" x2="17.1" y2="-65.8"/>
		<line class="st1" x1="21.9" y1="-66.5" x2="21.9" y2="-66.5"/>
		<line class="st1" x1="14.9" y1="-71.8" x2="14.9" y2="-71.8"/>
		<line class="st1" x1="18.1" y1="-61" x2="18.1" y2="-61"/>
		<line class="st1" x1="20.9" y1="-63.2" x2="20.9" y2="-63.2"/>
		<line class="st1" x1="20.9" y1="-59.2" x2="20.9" y2="-59.2"/>
		<line class="st1" x1="23.6" y1="-56.5" x2="23.6" y2="-56.5"/>
		<line class="st1" x1="19.4" y1="-54.8" x2="19.4" y2="-54.8"/>
		<line class="st1" x1="16.9" y1="-49.2" x2="16.9" y2="-49.2"/>
		<line class="st1" x1="16.1" y1="-52.2" x2="16.1" y2="-52.2"/>
		<line class="st1" x1="26.1" y1="-3.5" x2="26.1" y2="-3.5"/>
		<line class="st1" x1="26.1" y1="-3.5" x2="26.1" y2="-3.5"/>
		<line class="st1" x1="29.6" y1="-4.5" x2="29.6" y2="-4.5"/>
		<line class="st1" x1="35.1" y1="-3.5" x2="35.1" y2="-3.5"/>
		<line class="st1" x1="40.4" y1="-4" x2="40.4" y2="-4"/>
		<line class="st1" x1="43.9" y1="-3.5" x2="43.9" y2="-3.5"/>
		<line class="st1" x1="48.9" y1="-4" x2="48.9" y2="-4"/>
		<line class="st1" x1="56.1" y1="-6.8" x2="56.1" y2="-6.8"/>
		<line class="st1" x1="60.9" y1="-5" x2="60.9" y2="-5"/>
		<line class="st1" x1="70.9" y1="-3.5" x2="70.9" y2="-3.5"/>
		<line class="st1" x1="78.9" y1="-2.8" x2="78.9" y2="-2.8"/>
		<line class="st1" x1="66.1" y1="-1.8" x2="66.1" y2="-1.8"/>
		<line class="st1" x1="64.9" y1="-5.5" x2="64.9" y2="-5.5"/>
		<line class="st1" x1="11.9" y1="-3.2" x2="11.9" y2="-3.2"/>
		<line class="st1" x1="21.4" y1="-4.5" x2="21.4" y2="-4.5"/>
		<line class="st1" x1="16.9" y1="-4.2" x2="16.9" y2="-4.2"/>
		<line class="st1" x1="33.1" y1="-48.5" x2="33.1" y2="-48.5"/>
		<line class="st1" x1="37.6" y1="-47.5" x2="37.6" y2="-47.5"/>
		<line class="st1" x1="41.4" y1="-49.5" x2="41.4" y2="-49.5"/>
		<line class="st1" x1="40.1" y1="-45.5" x2="40.1" y2="-45.5"/>
		<line class="st1" x1="37.4" y1="-43.5" x2="37.4" y2="-43.5"/>
		<line class="st1" x1="33.9" y1="-44.2" x2="33.9" y2="-44.2"/>
		<line class="st1" x1="30.6" y1="-43.5" x2="30.6" y2="-43.5"/>
		<line class="st1" x1="29.1" y1="-47.2" x2="29.1" y2="-47.2"/>
		<line class="st1" x1="27.1" y1="-44.8" x2="27.1" y2="-44.8"/>
		<line class="st1" x1="23.9" y1="-46" x2="23.9" y2="-46"/>
		<line class="st1" x1="20.6" y1="-44.5" x2="20.6" y2="-44.5"/>
		<line class="st1" x1="19.6" y1="-41.2" x2="19.6" y2="-41.2"/>
		<line class="st1" x1="21.1" y1="-37" x2="21.1" y2="-37"/>
		<line class="st1" x1="23.6" y1="-39.5" x2="23.6" y2="-39.5"/>
		<line class="st1" x1="26.4" y1="-42" x2="26.4" y2="-42"/>
		<line class="st1" x1="30.1" y1="-39.8" x2="30.1" y2="-39.8"/>
		<line class="st1" x1="27.1" y1="-37.2" x2="27.1" y2="-37.2"/>
		<line class="st1" x1="24.1" y1="-34.5" x2="24.1" y2="-34.5"/>
		<line class="st1" x1="20.9" y1="-32.8" x2="20.9" y2="-32.8"/>
		<line class="st1" x1="21.1" y1="-37" x2="21.1" y2="-37"/>
		<line class="st1" x1="17.9" y1="-35.5" x2="17.9" y2="-35.5"/>
		<line class="st1" x1="16.9" y1="-40" x2="16.9" y2="-40"/>
		<line class="st1" x1="16.6" y1="-45.2" x2="16.6" y2="-45.2"/>
		<line class="st1" x1="13.6" y1="-43.2" x2="13.6" y2="-43.2"/>
		<line class="st1" x1="12.9" y1="-39.2" x2="12.9" y2="-39.2"/>
		<line class="st1" x1="10.4" y1="-46.2" x2="10.4" y2="-46.2"/>
		<line class="st1" x1="12.9" y1="-47.8" x2="12.9" y2="-47.8"/>
		<line class="st1" x1="10.6" y1="-36.2" x2="10.6" y2="-36.2"/>
		<line class="st1" x1="14.1" y1="-35.8" x2="14.1" y2="-35.8"/>
		<line class="st1" x1="14.6" y1="-32" x2="14.6" y2="-32"/>
		<line class="st1" x1="9.9" y1="-32.2" x2="9.9" y2="-32.2"/>
		<line class="st1" x1="12.4" y1="-28.8" x2="12.4" y2="-28.8"/>
		<line class="st1" x1="13.9" y1="-26" x2="13.9" y2="-26"/>
		<line class="st1" x1="14.9" y1="-23" x2="14.9" y2="-23"/>
		<line class="st1" x1="18.4" y1="-25" x2="18.4" y2="-25"/>
		<line class="st1" x1="16.6" y1="-29" x2="16.6" y2="-29"/>
		<line class="st1" x1="20.6" y1="-28.5" x2="20.6" y2="-28.5"/>
		<line class="st1" x1="23.1" y1="-25.5" x2="23.1" y2="-25.5"/>
		<line class="st1" x1="26.1" y1="-24.5" x2="26.1" y2="-24.5"/>
		<line class="st1" x1="28.9" y1="-23" x2="28.9" y2="-23"/>
		<line class="st1" x1="23.6" y1="-29.8" x2="23.6" y2="-29.8"/>
		<line class="st1" x1="27.1" y1="-28.5" x2="27.1" y2="-28.5"/>
		<line class="st1" x1="30.4" y1="-27.5" x2="30.4" y2="-27.5"/>
		<line class="st1" x1="27.4" y1="-33" x2="27.4" y2="-33"/>
		<line class="st1" x1="31.4" y1="-32" x2="31.4" y2="-32"/>
		<line class="st1" x1="32.1" y1="-36.2" x2="32.1" y2="-36.2"/>
		<line class="st1" x1="34.6" y1="-33.2" x2="34.6" y2="-33.2"/>
		<line class="st1" x1="37.4" y1="-35.8" x2="37.4" y2="-35.8"/>
		<line class="st1" x1="33.6" y1="-29.2" x2="33.6" y2="-29.2"/>
		<line class="st1" x1="37.1" y1="-27.2" x2="37.1" y2="-27.2"/>
		<line class="st1" x1="37.1" y1="-23.2" x2="37.1" y2="-23.2"/>
		<line class="st1" x1="33.1" y1="-25" x2="33.1" y2="-25"/>
		<line class="st1" x1="40.6" y1="-26.2" x2="40.6" y2="-26.2"/>
		<line class="st1" x1="42.6" y1="-29.5" x2="42.6" y2="-29.5"/>
		<line class="st1" x1="41.4" y1="-33.5" x2="41.4" y2="-33.5"/>
		<line class="st1" x1="41.4" y1="-37.5" x2="41.4" y2="-37.5"/>
		<line class="st1" x1="38.1" y1="-39.2" x2="38.1" y2="-39.2"/>
		<line class="st1" x1="34.6" y1="-39.2" x2="34.6" y2="-39.2"/>
		<line class="st1" x1="41.1" y1="-42.8" x2="41.1" y2="-42.8"/>
		<line class="st1" x1="44.1" y1="-40" x2="44.1" y2="-40"/>
		<line class="st1" x1="47.1" y1="-39.5" x2="47.1" y2="-39.5"/>
		<line class="st1" x1="44.6" y1="-35.5" x2="44.6" y2="-35.5"/>
		<line class="st1" x1="45.6" y1="-31.8" x2="45.6" y2="-31.8"/>
		<line class="st1" x1="42.6" y1="-29.5" x2="42.6" y2="-29.5"/>
		<line class="st1" x1="45.9" y1="-28" x2="45.9" y2="-28"/>
		<line class="st1" x1="48.9" y1="-23.8" x2="48.9" y2="-23.8"/>
		<line class="st1" x1="43.9" y1="-24.8" x2="43.9" y2="-24.8"/>
		<line class="st1" x1="49.6" y1="-27.8" x2="49.6" y2="-27.8"/>
		<line class="st1" x1="49.4" y1="-32.2" x2="49.4" y2="-32.2"/>
		<line class="st1" x1="48.6" y1="-35.8" x2="48.6" y2="-35.8"/>
		<line class="st1" x1="44.1" y1="-40" x2="44.1" y2="-40"/>
		<line class="st1" x1="47.1" y1="-39.5" x2="47.1" y2="-39.5"/>
		<line class="st1" x1="44.9" y1="-43.2" x2="44.9" y2="-43.2"/>
		<line class="st1" x1="44.4" y1="-47.2" x2="44.4" y2="-47.2"/>
		<line class="st1" x1="48.1" y1="-47" x2="48.1" y2="-47"/>
		<line class="st1" x1="48.9" y1="-42.5" x2="48.9" y2="-42.5"/>
		<line class="st1" x1="51.1" y1="-39.2" x2="51.1" y2="-39.2"/>
		<line class="st1" x1="54.1" y1="-36.8" x2="54.1" y2="-36.8"/>
		<line class="st1" x1="53.6" y1="-33" x2="53.6" y2="-33"/>
		<line class="st1" x1="52.9" y1="-29.2" x2="52.9" y2="-29.2"/>
		<line class="st1" x1="54.9" y1="-25.8" x2="54.9" y2="-25.8"/>
		<line class="st1" x1="57.9" y1="-28.8" x2="57.9" y2="-28.8"/>
		<line class="st1" x1="57.9" y1="-24.2" x2="57.9" y2="-24.2"/>
		<line class="st1" x1="57.6" y1="-33.5" x2="57.6" y2="-33.5"/>
		<line class="st1" x1="58.9" y1="-36.5" x2="58.9" y2="-36.5"/>
		<line class="st1" x1="55.6" y1="-40.5" x2="55.6" y2="-40.5"/>
		<line class="st1" x1="53.9" y1="-43" x2="53.9" y2="-43"/>
		<line class="st1" x1="51.9" y1="-45.2" x2="51.9" y2="-45.2"/>
		<line class="st1" x1="55.1" y1="-47.2" x2="55.1" y2="-47.2"/>
		<line class="st1" x1="54.1" y1="-51.2" x2="54.1" y2="-51.2"/>
		<line class="st1" x1="58.9" y1="-48.5" x2="58.9" y2="-48.5"/>
		<line class="st1" x1="57.6" y1="-44.2" x2="57.6" y2="-44.2"/>
		<line class="st1" x1="59.6" y1="-41" x2="59.6" y2="-41"/>
		<line class="st1" x1="62.9" y1="-38.5" x2="62.9" y2="-38.5"/>
		<line class="st1" x1="62.6" y1="-34.5" x2="62.6" y2="-34.5"/>
		<line class="st1" x1="61.6" y1="-30.5" x2="61.6" y2="-30.5"/>
		<line class="st1" x1="65.4" y1="-31.2" x2="65.4" y2="-31.2"/>
		<line class="st1" x1="65.1" y1="-26.8" x2="65.1" y2="-26.8"/>
		<line class="st1" x1="67.9" y1="-23.8" x2="67.9" y2="-23.8"/>
		<line class="st1" x1="68.6" y1="-28.5" x2="68.6" y2="-28.5"/>
		<line class="st1" x1="68.6" y1="-32.2" x2="68.6" y2="-32.2"/>
		<line class="st1" x1="67.6" y1="-36.2" x2="67.6" y2="-36.2"/>
		<line class="st1" x1="38.4" y1="-31.2" x2="38.4" y2="-31.2"/>
		<line class="st1" x1="81.4" y1="-42" x2="81.4" y2="-42"/>
		<line class="st1" x1="82.4" y1="-46.2" x2="82.4" y2="-46.2"/>
		<line class="st1" x1="79.1" y1="-48" x2="79.1" y2="-48"/>
		<line class="st1" x1="79.4" y1="-38.8" x2="79.4" y2="-38.8"/>
		<line class="st1" x1="79.1" y1="-35" x2="79.1" y2="-35"/>
		<line class="st1" x1="82.6" y1="-36.2" x2="82.6" y2="-36.2"/>
		<line class="st1" x1="81.9" y1="-32.2" x2="81.9" y2="-32.2"/>
		<line class="st1" x1="81.1" y1="-24.8" x2="81.1" y2="-24.8"/>
		<line class="st1" x1="80.1" y1="-28.2" x2="80.1" y2="-28.2"/>
		<line class="st1" x1="77.6" y1="-44.2" x2="77.6" y2="-44.2"/>
		<line class="st1" x1="74.1" y1="-44" x2="74.1" y2="-44"/>
		<line class="st1" x1="75.1" y1="-48.8" x2="75.1" y2="-48.8"/>
		<line class="st1" x1="71.6" y1="-47.2" x2="71.6" y2="-47.2"/>
		<line class="st1" x1="67.9" y1="-48.2" x2="67.9" y2="-48.2"/>
		<line class="st1" x1="64.4" y1="-46.5" x2="64.4" y2="-46.5"/>
		<line class="st1" x1="61.4" y1="-45.5" x2="61.4" y2="-45.5"/>
		<line class="st1" x1="63.6" y1="-41.8" x2="63.6" y2="-41.8"/>
		<line class="st1" x1="67.9" y1="-44.2" x2="67.9" y2="-44.2"/>
		<line class="st1" x1="70.9" y1="-41.2" x2="70.9" y2="-41.2"/>
		<line class="st1" x1="67.1" y1="-39.8" x2="67.1" y2="-39.8"/>
		<line class="st1" x1="71.1" y1="-37" x2="71.1" y2="-37"/>
		<line class="st1" x1="75.6" y1="-40.5" x2="75.6" y2="-40.5"/>
		<line class="st1" x1="75.4" y1="-37.2" x2="75.4" y2="-37.2"/>
		<line class="st1" x1="72.6" y1="-33" x2="72.6" y2="-33"/>
		<line class="st1" x1="73.9" y1="-29" x2="73.9" y2="-29"/>
		<line class="st1" x1="68.6" y1="-28.5" x2="68.6" y2="-28.5"/>
		<line class="st1" x1="71.4" y1="-26.2" x2="71.4" y2="-26.2"/>
		<line class="st1" x1="76.9" y1="-26" x2="76.9" y2="-26"/>
		<line class="st1" x1="76.6" y1="-31.8" x2="76.6" y2="-31.8"/>
		<line class="st1" x1="61.1" y1="-26.2" x2="61.1" y2="-26.2"/>
		<line class="st1" x1="72.9" y1="-22.5" x2="72.9" y2="-22.5"/>
		<line class="st1" x1="17.9" y1="-16.5" x2="17.9" y2="-16.5"/>
		<line class="st1" x1="18.9" y1="-21" x2="18.9" y2="-21"/>
		<line class="st1" x1="22.1" y1="-22.2" x2="22.1" y2="-22.2"/>
		<line class="st1" x1="21.1" y1="-18.2" x2="21.1" y2="-18.2"/>
		<line class="st1" x1="24.6" y1="-16.2" x2="24.6" y2="-16.2"/>
		<line class="st1" x1="24.6" y1="-12.2" x2="24.6" y2="-12.2"/>
		<line class="st1" x1="20.6" y1="-14" x2="20.6" y2="-14"/>
		<line class="st1" x1="28.1" y1="-15.2" x2="28.1" y2="-15.2"/>
		<line class="st1" x1="28.4" y1="-12.2" x2="28.4" y2="-12.2"/>
		<line class="st1" x1="30.1" y1="-18.5" x2="30.1" y2="-18.5"/>
		<line class="st1" x1="33.1" y1="-20.8" x2="33.1" y2="-20.8"/>
		<line class="st1" x1="30.1" y1="-18.5" x2="30.1" y2="-18.5"/>
		<line class="st1" x1="33.4" y1="-17" x2="33.4" y2="-17"/>
		<line class="st1" x1="36.4" y1="-12.8" x2="36.4" y2="-12.8"/>
		<line class="st1" x1="31.4" y1="-13.8" x2="31.4" y2="-13.8"/>
		<line class="st1" x1="37.1" y1="-15.8" x2="37.1" y2="-15.8"/>
		<line class="st1" x1="36.9" y1="-20.2" x2="36.9" y2="-20.2"/>
		<line class="st1" x1="41.1" y1="-22" x2="41.1" y2="-22"/>
		<line class="st1" x1="40.4" y1="-19" x2="40.4" y2="-19"/>
		<line class="st1" x1="41.6" y1="-15.2" x2="41.6" y2="-15.2"/>
		<line class="st1" x1="45.4" y1="-17.8" x2="45.4" y2="-17.8"/>
		<line class="st1" x1="45.1" y1="-12.2" x2="45.1" y2="-12.2"/>
		<line class="st1" x1="45.6" y1="-21.2" x2="45.6" y2="-21.2"/>
		<line class="st1" x1="49.1" y1="-19.5" x2="49.1" y2="-19.5"/>
		<line class="st1" x1="25.9" y1="-20.2" x2="25.9" y2="-20.2"/>
		<line class="st1" x1="48.1" y1="-15.5" x2="48.1" y2="-15.5"/>
		<line class="st1" x1="11.9" y1="-8.8" x2="11.9" y2="-8.8"/>
		<line class="st1" x1="14.6" y1="-10" x2="14.6" y2="-10"/>
		<line class="st1" x1="13.6" y1="-6" x2="13.6" y2="-6"/>
		<line class="st1" x1="22.6" y1="-6.2" x2="22.6" y2="-6.2"/>
		<line class="st1" x1="21.4" y1="-10.2" x2="21.4" y2="-10.2"/>
		<line class="st1" x1="25.6" y1="-8.5" x2="25.6" y2="-8.5"/>
		<line class="st1" x1="22.6" y1="-6.2" x2="22.6" y2="-6.2"/>
		<line class="st1" x1="29.4" y1="-9" x2="29.4" y2="-9"/>
		<line class="st1" x1="33.6" y1="-9.8" x2="33.6" y2="-9.8"/>
		<line class="st1" x1="32.9" y1="-6.8" x2="32.9" y2="-6.8"/>
		<line class="st1" x1="37.9" y1="-5.5" x2="37.9" y2="-5.5"/>
		<line class="st1" x1="38.1" y1="-9" x2="38.1" y2="-9"/>
		<line class="st1" x1="42.1" y1="-6.5" x2="42.1" y2="-6.5"/>
		<line class="st1" x1="45.4" y1="-8" x2="45.4" y2="-8"/>
		<line class="st1" x1="18.4" y1="-8" x2="18.4" y2="-8"/>
		<line class="st1" x1="52.6" y1="-23" x2="52.6" y2="-23"/>
		<line class="st1" x1="55.1" y1="-16.8" x2="55.1" y2="-16.8"/>
		<line class="st1" x1="55.6" y1="-20.8" x2="55.6" y2="-20.8"/>
		<line class="st1" x1="60.4" y1="-21.8" x2="60.4" y2="-21.8"/>
		<line class="st1" x1="61.1" y1="-17" x2="61.1" y2="-17"/>
		<line class="st1" x1="58.1" y1="-14.2" x2="58.1" y2="-14.2"/>
		<line class="st1" x1="54.9" y1="-12.5" x2="54.9" y2="-12.5"/>
		<line class="st1" x1="55.1" y1="-16.8" x2="55.1" y2="-16.8"/>
		<line class="st1" x1="52.9" y1="-9.2" x2="52.9" y2="-9.2"/>
		<line class="st1" x1="57.6" y1="-9.5" x2="57.6" y2="-9.5"/>
		<line class="st1" x1="61.1" y1="-8.2" x2="61.1" y2="-8.2"/>
		<line class="st1" x1="61.4" y1="-12.8" x2="61.4" y2="-12.8"/>
		<line class="st1" x1="11.4" y1="-18" x2="11.4" y2="-18"/>
		<line class="st1" x1="14.4" y1="-14.2" x2="14.4" y2="-14.2"/>
		<line class="st1" x1="14.9" y1="-19" x2="14.9" y2="-19"/>
		<line class="st1" x1="81.1" y1="-6.2" x2="81.1" y2="-6.2"/>
		<line class="st1" x1="77.9" y1="-7.8" x2="77.9" y2="-7.8"/>
		<line class="st1" x1="83.9" y1="-8.8" x2="83.9" y2="-8.8"/>
		<line class="st1" x1="80.6" y1="-21.5" x2="80.6" y2="-21.5"/>
		<line class="st1" x1="80.4" y1="-16.2" x2="80.4" y2="-16.2"/>
		<line class="st1" x1="80.6" y1="-21.5" x2="80.6" y2="-21.5"/>
		<line class="st1" x1="82.1" y1="-12.5" x2="82.1" y2="-12.5"/>
		<line class="st1" x1="50.4" y1="-12" x2="50.4" y2="-12"/>
		<line class="st1" x1="48.9" y1="-9" x2="48.9" y2="-9"/>
		<line class="st1" x1="64.1" y1="-14.8" x2="64.1" y2="-14.8"/>
		<line class="st1" x1="67.1" y1="-14.2" x2="67.1" y2="-14.2"/>
		<line class="st1" x1="64.6" y1="-10.2" x2="64.6" y2="-10.2"/>
		<line class="st1" x1="68.6" y1="-10.5" x2="68.6" y2="-10.5"/>
		<line class="st1" x1="64.1" y1="-14.8" x2="64.1" y2="-14.8"/>
		<line class="st1" x1="67.1" y1="-14.2" x2="67.1" y2="-14.2"/>
		<line class="st1" x1="64.9" y1="-18.8" x2="64.9" y2="-18.8"/>
		<line class="st1" x1="68.9" y1="-17.2" x2="68.9" y2="-17.2"/>
		<line class="st1" x1="71.1" y1="-14" x2="71.1" y2="-14"/>
		<line class="st1" x1="73.1" y1="-11.8" x2="73.1" y2="-11.8"/>
		<line class="st1" x1="73.6" y1="-7.8" x2="73.6" y2="-7.8"/>
		<line class="st1" x1="75.6" y1="-15.2" x2="75.6" y2="-15.2"/>
		<line class="st1" x1="73.9" y1="-17.8" x2="73.9" y2="-17.8"/>
		<line class="st1" x1="69.6" y1="-20.8" x2="69.6" y2="-20.8"/>
		<line class="st1" x1="77.6" y1="-19" x2="77.6" y2="-19"/>
		<line class="st1" x1="77.9" y1="-11.8" x2="77.9" y2="-11.8"/>
		<line class="st1" x1="64.6" y1="-22.2" x2="64.6" y2="-22.2"/>
		<line class="st1" x1="69.4" y1="-7" x2="69.4" y2="-7"/>
		<line class="st1" x1="75.4" y1="-5" x2="75.4" y2="-5"/>
		<line class="st1" x1="76.4" y1="-22.5" x2="76.4" y2="-22.5"/>
		<line class="st1" x1="20.6" y1="-49" x2="20.6" y2="-49"/>
		<line class="st1" x1="16.9" y1="-12.5" x2="16.9" y2="-12.5"/>
		<line class="st1" x1="41.4" y1="-11.5" x2="41.4" y2="-11.5"/>
		<line class="st1" x1="51.6" y1="-17" x2="51.6" y2="-17"/>
		<line class="st1" x1="58.4" y1="-18.5" x2="58.4" y2="-18.5"/>
		<line class="st1" x1="52.1" y1="-2.5" x2="52.1" y2="-2.5"/>
		<line class="st1" x1="52.1" y1="-74.5" x2="52.1" y2="-74.5"/>
		<line class="st1" x1="78.9" y1="-74.8" x2="78.9" y2="-74.8"/>
		<line class="st1" x1="66.1" y1="-73.8" x2="66.1" y2="-73.8"/>
		<line class="st1" x1="22.6" y1="-1.2" x2="22.6" y2="-1.2"/>
		<line class="st1" x1="32.4" y1="-1.5" x2="32.4" y2="-1.5"/>
		<line class="st1" x1="28.1" y1="-0.8" x2="28.1" y2="-0.8"/>
		<line class="st1" x1="38.9" y1="-0.8" x2="38.9" y2="-0.8"/>
		<line class="st1" x1="66.1" y1="-1.8" x2="66.1" y2="-1.8"/>
		<line class="st1" x1="18.9" y1="-1.2" x2="18.9" y2="-1.2"/>
		<line class="st1" x1="66.1" y1="-1.8" x2="66.1" y2="-1.8"/>
		<line class="st1" x1="83.6" y1="-65" x2="83.6" y2="-65"/>
		<line class="st1" x1="83.9" y1="-61.8" x2="83.9" y2="-61.8"/>
		<line class="st1" x1="84.1" y1="-54.5" x2="84.1" y2="-54.5"/>
		<line class="st1" x1="83.4" y1="-51.2" x2="83.4" y2="-51.2"/>
		<line class="st1" x1="83.9" y1="-3.2" x2="83.9" y2="-3.2"/>
		<line class="st1" x1="9.9" y1="-72" x2="9.9" y2="-72"/>
		<line class="st1" x1="12.4" y1="-22" x2="12.4" y2="-22"/>
		<line class="st1" x1="11.9" y1="-75.2" x2="11.9" y2="-75.2"/>
		<line class="st1" x1="84.4" y1="-28.8" x2="84.4" y2="-28.8"/>
		<line class="st1" x1="83.4" y1="-18" x2="83.4" y2="-18"/>
		<line class="st1" x1="84.4" y1="-22" x2="84.4" y2="-22"/>
		<line class="st1" x1="57.4" y1="-3.5" x2="57.4" y2="-3.5"/>
		<line class="st1" x1="51.6" y1="-6" x2="51.6" y2="-6"/>
		<line class="st1" x1="10.1" y1="-12.5" x2="10.1" y2="-12.5"/>
		<path class="st1" d="M1.1-63.6c0.2,0,0.4-0.2,0.4-0.4c0-0.2-0.2-0.4-0.4-0.4c-0.2,0-0.4,0.2-0.4,0.4C0.8-63.8,0.9-63.6,1.1-63.6z"
			/>
	</g>
</pattern>
<g>
	<path class="st84" d="M152.6,161.4c-6.9-2.6-18.4-4.3-31.4-4.3s-24.5,1.7-31.4,4.3l-6.8,0v5.7c0,5.5,17.1,9.9,38.2,9.9
		s38.2-4.4,38.2-9.9v-5.7H152.6z"/>
	<ellipse class="st121" cx="121.2" cy="161.4" rx="38.2" ry="9.9"/>
	<ellipse class="st84" cx="121.2" cy="157.6" rx="35.6" ry="9"/>
	<path class="st9" d="M124.8,63.4c0.8-1,1.3-2.3,1.2-3.7c-0.2-2.4-2.2-4.2-4.5-4.4c-2.8-0.2-5.1,2.1-5.1,4.8c0,1.2,0.5,2.4,1.2,3.2
		c0.3,0.4,0.1,1-0.4,1c-14.5,2-25.7,14.4-25.7,29.4v62.6c0,3.4,13.3,6.2,29.7,6.2s29.7-2.8,29.7-6.2V93.8c0-15-11.2-27.4-25.7-29.4
		C124.7,64.4,124.5,63.8,124.8,63.4z"/>
	<path class="st18" d="M142.1,156.3c0-2.1-6.6-3.8-18.4-3.8s-21.4,1.7-21.4,3.8s9.6,3.8,21.4,3.8S142.1,158.4,142.1,156.3z"/>
	<path class="st84" d="M107.5,115.8c0.1-1.2,0.3-2.5,0.7-3.7c1.3-4.8,5.9-8.5,10.4-10.2c7.7-2.9,16.6-0.1,21.3,6.7
		c5.7,8.3,4.4,20.2,0.2,28.8c-2.5,5.3-6.5,9.5-11.5,12.4c-5.7,3.4-11.8,4-17.8,6.3c-1.4,0.5-2.7,1.3-4.2,1.5
		c-2.7,0.3-5.8-0.6-7.5-2.8c-1.6-2.1-1.8-5.6-1.1-8.1c0.5-1.7,1.8-2.5,2.8-3.8c0.5-0.6,0.9-1.4,1-2.2c0.2-1-0.1-1.9,0.1-2.9
		c0.3-1.2,1.4-2.1,2.1-3.1c0.8-1.4,1.4-2.9,1.9-4.4C107.6,125.7,107,120.6,107.5,115.8z"/>
	<path class="st9" d="M119.3,147.3c10.6-1.5,16.8-11.5,17.4-21.6c0.5-9.4-5.1-23.7-16.8-18.1c0,0-7.7,4.5-5.4,14.7
		c0,0,0.9,4.7,6.4,11l1.6,1.9"/>
	<path class="st121" d="M114.5,131.7c0-0.4-0.2-0.8-0.5-1.1c-0.7-0.7-1.7-0.6-2.4,0c-1,0.8-0.7,1.8-0.7,2.9c0.1,1-1.3,1.9-2.2,2
		c-0.4,0.1-0.9,0.1-1.3,0.1c-0.9,0.2-1.9,0.8-1.8,1.9c0.2,2.4,4.5,2.4,5.6,1c0.7-0.9,1.5-1.7,2-2.7
		C113.7,134.7,114.7,133.1,114.5,131.7z"/>
	<path class="st9" d="M110.5,138.9c1.1-0.8,2.2-1.6,3.5-1.9c1.6-0.4,3.2,0,4.6,0.6c1.6,0.7,3.1,2.5,5.1,2.1c2-0.4,3.1-2.7,3.2-4.6
		c0.1-3-1-5.8-2.5-8.4c-1.7-2.9-3.2-4-5.7-6.1c-1.3-1.1-2.4-2.4-3.4-3.8c-0.4-0.7-0.8-1.5-0.6-2.3"/>
	<path class="st18" d="M125,107.3c1.7,0.1,3.3,0.6,4.9,1.3c0.9,0.4,1.7,0.9,2.4,1.5c0.5,0.4,1.8,1.4,1.9,2.1c0,0-1.1-4.5-6.2-5.9
		c0,0-5.5-1.8-10.4,3.2c0,0-2,1.1-3.2,6c0,0-2.3,7.7,5.5,16.5c-0.7-1-1.5-2.1-2.1-3.1c-0.5-0.7-0.9-1.5-1.3-2.3
		c-0.5-1.1-1.1-3.7,0.2-4.5c1-0.7,2.4,0.7,3.1,1.2c1.1,0.6,2.2,1.3,3,2.2c1.4,1.6,2.5,3.5,3.3,5.5c-0.6-1.4-0.8-2.3-1.5-3.7
		c-0.6-1.3-1.6-3.2-2.7-4.1c-1.3-1.1-2.9-2-4.1-3.2c-0.6-0.6-1.1-1.2-1.6-1.9c-1-1.3-1.4-2.3-0.6-3.9c0.2-0.5,1.1-1.7,1.7-1.5
		c0.5,0.1,1.4,0.3,1.8,0c0.7-0.5,0.1-1.6,0.1-2.3c0-0.7,0.1-1.5,0.7-1.9c0.7-0.5,1.7-0.7,2.5-0.9C123.3,107.3,124.1,107.3,125,107.3
		z"/>
	<g>
		<path class="st9" d="M119,70.2c0.2,0.2,0.4,0.4,0.6,0.7c1.4,2.8-3.8,6-5.5,7.2c-2.3,1.7-8,5.9-11,4.1c-3.6-2.2,2.5-7,4.1-8.4
			C110,71,115,67,119,70.2z"/>
		<path class="st9" d="M98.4,84.4c-1.3,0.9-2.2,2.2-2.3,3.9c-0.3,5.1,12.2-1.8,5.4-4.2C100.2,83.6,99.2,83.8,98.4,84.4z"/>
	</g>
	<g>
		
			<pattern  id="SVGID_2_" xlink:href="#Nueva_muestra_de_motivo_23" patternTransform="matrix(8.667607e-02 2.382320e-03 -2.382320e-03 8.667607e-02 -4377.0674 -5906.4331)">
		</pattern>
		<path style="fill:url(#SVGID_2_);" d="M129.2,162.4c-2.3,0.2-3.9,0.2-3.9,0.2C126.7,162.6,128,162.5,129.2,162.4z"/>
	</g>
	<g>
		<path class="st52" d="M105.8,153.5c-1.2,0-2.2-0.2-2.9-0.7c-0.4-0.3-0.7-0.6-0.9-1c-0.3-0.6-0.2-1.1,0-1.4c0.4-0.8,1.2-1,1.8-1.1
			c0.1,0,0.2-0.1,0.3-0.1c1.6-0.5,3.3-1,5.2-1.3c0.2,0,0.5-0.1,0.8-0.1c1.1,0,1.7,0.5,2,0.8c0.5,0.7,0.4,1.6-0.2,2.5
			c-0.8,1.1-2,1.8-3.6,2.1C107.4,153.4,106.5,153.5,105.8,153.5z"/>
		<path class="st18" d="M110.1,148.8c0.4,0,0.9,0.1,1.1,0.4c0.3,0.4,0.1,0.9-0.2,1.3c-0.7,1-1.8,1.5-3,1.7c-0.6,0.1-1.5,0.2-2.3,0.2
			c-0.9,0-1.7-0.1-2.3-0.5c-0.2-0.1-0.4-0.3-0.5-0.5c-0.4-1,0.9-1.1,1.5-1.3c1.6-0.6,3.3-1,5-1.3
			C109.7,148.8,109.9,148.8,110.1,148.8 M110.1,146.8c-0.4,0-0.7,0-1,0.1c-1.9,0.3-3.7,0.8-5.4,1.3c-0.1,0-0.1,0-0.2,0.1
			c-0.7,0.2-1.9,0.5-2.5,1.6c-0.3,0.7-0.3,1.5,0,2.3c0.3,0.6,0.7,1.1,1.2,1.4c0.9,0.6,2,0.8,3.4,0.8c0.8,0,1.7-0.1,2.7-0.3
			c1.8-0.3,3.2-1.2,4.2-2.5c0.9-1.2,1-2.6,0.3-3.7C112.5,147.5,111.7,146.8,110.1,146.8L110.1,146.8z"/>
	</g>
	<path class="st123" d="M136.4,120.6c0,0-0.6-6.6-4.8-10.6c-0.7-1.8-2.4-3.7-6.4-3.7c-7.8,0-5.8,2.6-5.8,2.6s0.2,0,0.5-0.1
		c6-1.3,12,2.6,13.5,8.6c1.6,6.6,2,16.1-4.6,25.6C128.8,143,137.4,136.9,136.4,120.6z"/>
</g>
</svg>
