<?xml version="1.0" encoding="utf-8"?>
<!-- Generator: Adobe Illustrator 19.1.0, SVG Export Plug-In . SVG Version: 6.00 Build 0)  -->
<svg version="1.1" id="Capa_1" xmlns="http://www.w3.org/2000/svg" xmlns:xlink="http://www.w3.org/1999/xlink" x="0px" y="0px"
	 viewBox="0 0 231.2 231.2" style="enable-background:new 0 0 231.2 231.2;" xml:space="preserve">
<style type="text/css">
	.st0{fill:#E74C40;stroke:#000000;stroke-width:2;stroke-miterlimit:10;}
	.st1{fill:#BCA26C;stroke:#1D1E1C;stroke-width:2;stroke-miterlimit:10;}
	.st2{fill:#FFFFFF;stroke:#1D1E1C;stroke-width:2;stroke-miterlimit:10;}
	.st3{fill:#DE3A28;stroke:#1D1E1C;stroke-width:2;stroke-miterlimit:10;}
	.st4{fill:#F8EEE1;stroke:#1D1D1B;stroke-width:2;stroke-linecap:round;stroke-linejoin:round;stroke-miterlimit:10;}
	.st5{fill:#CD8C94;stroke:#1D1D1B;stroke-width:2;stroke-linecap:round;stroke-linejoin:round;stroke-miterlimit:10;}
	.st6{fill:#FFC1C8;stroke:#1D1D1B;stroke-width:2;stroke-linecap:round;stroke-linejoin:round;stroke-miterlimit:10;}
	.st7{fill:none;stroke:#1D1D1B;stroke-width:2;stroke-linecap:round;stroke-linejoin:round;stroke-miterlimit:10;}
	.st8{fill:#8DA6A6;stroke:#1E1E1C;stroke-width:2;stroke-linecap:round;stroke-linejoin:round;stroke-miterlimit:10;}
	.st9{fill:#A4C3C6;stroke:#1E1E1C;stroke-width:2;stroke-linecap:round;stroke-linejoin:round;stroke-miterlimit:10;}
	.st10{fill:url(#);}
	.st11{fill:#E4E4E4;stroke:#1D1E1C;stroke-width:2;stroke-linecap:round;stroke-linejoin:round;stroke-miterlimit:10;}
	.st12{fill:#ED7069;stroke:#1D1D1B;stroke-width:2;stroke-linecap:round;stroke-linejoin:round;stroke-miterlimit:10;}
	.st13{fill:#1D508A;}
	.st14{fill:#1D508A;stroke:#1D1D1B;stroke-width:2;stroke-linecap:round;stroke-linejoin:round;stroke-miterlimit:10;}
	.st15{fill:#F1A4AB;stroke:#1D1D1B;stroke-width:2;stroke-linecap:round;stroke-linejoin:round;stroke-miterlimit:10;}
	.st16{fill:#1D1D1B;}
	.st17{fill:#989899;stroke:#1D1D1B;stroke-width:2;stroke-linecap:round;stroke-linejoin:round;stroke-miterlimit:10;}
	.st18{fill:#717171;stroke:#1D1D1B;stroke-width:2;stroke-linecap:round;stroke-linejoin:round;stroke-miterlimit:10;}
	.st19{fill:#BCBABB;stroke:#1D1D1B;stroke-width:2;stroke-linecap:round;stroke-linejoin:round;stroke-miterlimit:10;}
	.st20{fill:#64B5B2;}
	.st21{fill:#1D1E1C;}
	.st22{fill:#549793;}
	.st23{fill:#EEC44D;}
	.st24{fill:#D4AC46;}
	.st25{fill:#3B97D0;}
	.st26{fill:#3586B1;}
	.st27{fill:#E84E42;}
	.st28{fill:#D54037;}
	.st29{fill:#CECECD;stroke:#1D1E1C;stroke-width:2;stroke-linecap:round;stroke-linejoin:round;stroke-miterlimit:10;}
	.st30{fill:none;stroke:#1D1E1C;stroke-width:2;stroke-linecap:round;stroke-linejoin:round;stroke-miterlimit:10;}
	.st31{fill:#FFFFFF;stroke:#1E1E1C;stroke-width:2;stroke-linecap:round;stroke-linejoin:round;stroke-miterlimit:10;}
	.st32{fill:#C1737F;stroke:#1D1E1C;stroke-width:2;stroke-linecap:round;stroke-linejoin:round;stroke-miterlimit:10;}
	.st33{fill:#D4AC46;stroke:#1D1E1C;stroke-width:2;stroke-linecap:round;stroke-linejoin:round;stroke-miterlimit:10;}
	.st34{fill:#EEC44D;stroke:#1D1E1C;stroke-width:2;stroke-linecap:round;stroke-linejoin:round;stroke-miterlimit:10;}
	.st35{fill:#F7F7F5;stroke:#1D1D1B;stroke-width:2;stroke-miterlimit:10;}
	.st36{fill:#C9C8B8;stroke:#1D1D1B;stroke-width:2;stroke-miterlimit:10;}
	.st37{fill:none;stroke:#1D1D1B;stroke-width:2;stroke-miterlimit:10;}
	.st38{fill:#DD3D27;stroke:#1D1D1B;stroke-width:2;stroke-miterlimit:10;}
	.st39{clip-path:url(#SVGID_2_);fill:#FAD14D;stroke:#1D1E1C;stroke-width:2;stroke-miterlimit:10;}
	
		.st40{clip-path:url(#SVGID_2_);fill:#325B59;stroke:#1D1D1B;stroke-width:2;stroke-linecap:round;stroke-linejoin:round;stroke-miterlimit:10;}
	.st41{clip-path:url(#SVGID_2_);}
	.st42{fill:#F7F7F5;stroke:#1D1D1B;stroke-width:2;stroke-linecap:round;stroke-linejoin:round;stroke-miterlimit:10;}
	
		.st43{clip-path:url(#SVGID_2_);fill:#65C1BE;stroke:#1D1D1B;stroke-width:2;stroke-linecap:round;stroke-linejoin:round;stroke-miterlimit:10;}
	
		.st44{clip-path:url(#SVGID_2_);fill:#417C79;stroke:#1D1D1B;stroke-width:2;stroke-linecap:round;stroke-linejoin:round;stroke-miterlimit:10;}
	
		.st45{clip-path:url(#SVGID_2_);fill:#26283D;stroke:#1D1D1B;stroke-width:2;stroke-linecap:round;stroke-linejoin:round;stroke-miterlimit:10;}
	
		.st46{clip-path:url(#SVGID_2_);fill:none;stroke:#1D1D1B;stroke-width:2;stroke-linecap:round;stroke-linejoin:round;stroke-miterlimit:10;}
	
		.st47{clip-path:url(#SVGID_2_);fill:#AD6159;stroke:#1E1E1C;stroke-width:2;stroke-linecap:round;stroke-linejoin:round;stroke-miterlimit:10;}
	
		.st48{clip-path:url(#SVGID_2_);fill:#E88676;stroke:#1E1E1C;stroke-width:2;stroke-linecap:round;stroke-linejoin:round;stroke-miterlimit:10;}
	.st49{opacity:0.63;clip-path:url(#SVGID_2_);}
	.st50{fill:#FFFFFF;}
	.st51{opacity:0.36;fill:#FFFFFF;}
	.st52{opacity:0.23;}
	.st53{opacity:0.23;clip-path:url(#SVGID_2_);}
	.st54{fill:#5F999F;stroke:#1D1E1C;stroke-width:2;stroke-miterlimit:10;}
	.st55{fill:#77C1C5;stroke:#1D1E1C;stroke-width:2;stroke-miterlimit:10;}
	.st56{fill:#FBD943;stroke:#000100;stroke-width:2;stroke-miterlimit:10;}
	.st57{fill:#F1F1F1;stroke:#1D1D1B;stroke-width:2;stroke-miterlimit:10;}
	.st58{fill:#FF5546;stroke:#1D1D1B;stroke-width:2;stroke-linecap:round;stroke-miterlimit:10;}
	.st59{fill:#FF5546;stroke:#1D1D1B;stroke-width:2;stroke-miterlimit:10;}
	.st60{fill:#FFBE4A;stroke:#1E1E1C;stroke-width:2;stroke-linecap:square;stroke-linejoin:bevel;stroke-miterlimit:10;}
	.st61{stroke:#1D1E1C;stroke-width:2;stroke-miterlimit:10;}
	.st62{fill:#DDA345;}
	.st63{fill:#1E1E1C;}
	.st64{fill:#458353;}
	.st65{fill:#CB3524;stroke:#000000;stroke-width:2;stroke-linecap:round;stroke-linejoin:round;stroke-miterlimit:10;}
	.st66{fill:#DC3D26;stroke:#000000;stroke-width:2;stroke-linecap:round;stroke-linejoin:round;stroke-miterlimit:10;}
	.st67{fill:#1E508B;}
	.st68{fill:#E3AA24;stroke:#000000;stroke-width:2;stroke-linecap:round;stroke-linejoin:round;stroke-miterlimit:10;}
	.st69{fill:#3CA3DB;}
	.st70{fill:#E78476;stroke:#000000;stroke-width:2;stroke-linecap:round;stroke-linejoin:round;stroke-miterlimit:10;}
	.st71{fill:#D2756C;}
	.st72{fill:#C0BFBE;stroke:#1D1E1C;stroke-width:2;stroke-linecap:round;stroke-linejoin:round;stroke-miterlimit:10;}
	.st73{fill:#F4F4F2;stroke:#1D1E1C;stroke-width:2;stroke-linecap:round;stroke-linejoin:round;stroke-miterlimit:10;}
	.st74{fill:#FFF6EF;stroke:#1D1E1C;stroke-width:2;stroke-linecap:round;stroke-linejoin:round;stroke-miterlimit:10;}
	.st75{fill:#F3A9A6;}
	.st76{fill:#1EAF9A;}
	.st77{fill:#EE828F;}
	.st78{fill:#A4C3C6;}
	.st79{fill:#FAD04D;}
	.st80{fill:none;stroke:#1D1E1C;stroke-width:2;stroke-miterlimit:10;}
	.st81{fill:#F3A9A6;stroke:#1D1E1C;stroke-width:2;stroke-miterlimit:10;}
	.st82{fill:#FFFFFF;stroke:#1D1D1B;stroke-width:2;stroke-linecap:round;stroke-linejoin:round;stroke-miterlimit:10;}
	.st83{fill:#E2D0B3;stroke:#1D1D1B;stroke-width:2;stroke-linecap:round;stroke-linejoin:round;stroke-miterlimit:10;}
	.st84{fill:#C6B399;stroke:#1D1D1B;stroke-width:2;stroke-linecap:round;stroke-linejoin:round;stroke-miterlimit:10;}
	.st85{fill:#9B9A9A;stroke:#1D1D1B;stroke-width:2;stroke-linecap:round;stroke-linejoin:round;stroke-miterlimit:10;}
	.st86{fill:#B7B3B3;stroke:#1D1D1B;stroke-width:2;stroke-linecap:round;stroke-linejoin:round;stroke-miterlimit:10;}
	.st87{fill:#DADADA;stroke:#1D1D1B;stroke-width:2;stroke-linecap:round;stroke-linejoin:round;stroke-miterlimit:10;}
	.st88{fill:#A6C5C8;stroke:#1D1D1B;stroke-width:2;stroke-linecap:round;stroke-linejoin:round;stroke-miterlimit:10;}
	.st89{fill:#39ADAC;stroke:#1D1D1B;stroke-width:2;stroke-linecap:round;stroke-linejoin:round;stroke-miterlimit:10;}
	.st90{fill:#713662;stroke:#1D1D1B;stroke-width:2;stroke-linecap:round;stroke-linejoin:round;stroke-miterlimit:10;}
	.st91{fill:#363A5D;stroke:#1D1D1B;stroke-width:2;stroke-linecap:round;stroke-linejoin:round;stroke-miterlimit:10;}
	.st92{fill:#FF5546;stroke:#1D1D1B;stroke-width:2;stroke-linecap:round;stroke-linejoin:round;stroke-miterlimit:10;}
	.st93{fill:#DF5165;stroke:#1D1D1B;stroke-width:2;stroke-linecap:round;stroke-linejoin:round;stroke-miterlimit:10;}
	.st94{fill:#00B69E;stroke:#1D1D1B;stroke-width:2;stroke-linecap:round;stroke-linejoin:round;stroke-miterlimit:10;}
	.st95{fill:#FAD14D;stroke:#1D1D1B;stroke-width:2;stroke-linecap:round;stroke-linejoin:round;stroke-miterlimit:10;}
	.st96{fill:#00A9CF;stroke:#1D1D1B;stroke-width:2;stroke-linecap:round;stroke-linejoin:round;stroke-miterlimit:10;}
	.st97{fill:#4EB9AC;stroke:#000100;stroke-width:2;stroke-linecap:round;stroke-linejoin:round;stroke-miterlimit:10;}
	.st98{fill:#4EB9AC;}
	.st99{fill:none;stroke:#000100;stroke-width:2;stroke-linecap:round;stroke-linejoin:round;stroke-miterlimit:10;}
	.st100{fill:#FFFFFF;stroke:#000000;stroke-width:2;stroke-linecap:round;stroke-linejoin:round;stroke-miterlimit:10;}
	.st101{fill:#FFFFFF;stroke:#1D1D1B;stroke-width:2;stroke-miterlimit:10;}
	.st102{fill:#FFFFFF;stroke:#1D1D1B;stroke-width:2;stroke-linecap:round;stroke-miterlimit:10;}
	.st103{fill:#1D1D1B;stroke:#1D1D1B;stroke-width:2;stroke-miterlimit:10;}
	.st104{fill:#1D1D1B;stroke:#FFFFFF;stroke-width:2;stroke-miterlimit:10;}
	.st105{fill:#E1E6E1;stroke:#1D1D1B;stroke-width:2;stroke-linecap:round;stroke-linejoin:round;stroke-miterlimit:10;}
	.st106{fill:none;stroke:#010101;stroke-width:2;stroke-linecap:round;stroke-linejoin:round;stroke-miterlimit:10;}
	.st107{fill:#ECD9DF;stroke:#1D1D1B;stroke-width:2;stroke-linecap:round;stroke-linejoin:round;stroke-miterlimit:10;}
	.st108{stroke:#000000;stroke-width:2;stroke-linecap:round;stroke-linejoin:round;stroke-miterlimit:10;}
	.st109{fill:#B7707A;stroke:#1D1D1B;stroke-width:2;stroke-linecap:round;stroke-linejoin:round;stroke-miterlimit:10;}
	.st110{fill:#E58B95;stroke:#1D1D1B;stroke-width:2;stroke-linecap:round;stroke-linejoin:round;stroke-miterlimit:10;}
	.st111{fill:#68999B;stroke:#1D1D1B;stroke-width:2;stroke-linecap:round;stroke-linejoin:round;stroke-miterlimit:10;}
	.st112{fill:#F2C74E;stroke:#000100;stroke-width:2;stroke-linecap:round;stroke-linejoin:round;stroke-miterlimit:10;}
	.st113{fill:#BC973B;stroke:#000100;stroke-width:2;stroke-linecap:round;stroke-linejoin:round;stroke-miterlimit:10;}
	.st114{fill:#646563;stroke:#1D1D1B;stroke-width:2;stroke-linecap:round;stroke-linejoin:round;stroke-miterlimit:10;}
	.st115{fill:#B6803D;stroke:#1D1D1B;stroke-width:2;stroke-linecap:round;stroke-linejoin:round;stroke-miterlimit:10;}
	.st116{fill:#F6B456;stroke:#1D1D1B;stroke-width:2;stroke-linecap:round;stroke-linejoin:round;stroke-miterlimit:10;}
	.st117{fill:#EC716B;stroke:#1D1D1B;stroke-width:2;stroke-linecap:round;stroke-linejoin:round;stroke-miterlimit:10;}
	.st118{fill:#0B434C;stroke:#1D1D1B;stroke-width:2;stroke-linecap:round;stroke-linejoin:round;stroke-miterlimit:10;}
	.st119{fill:#1D1D1B;stroke:#1D1D1B;stroke-width:2;stroke-linecap:round;stroke-linejoin:round;stroke-miterlimit:10;}
	.st120{fill:#1D1D1B;stroke:#1D1D1B;stroke-miterlimit:10;}
	.st121{fill:#F3A5AC;stroke:#010101;stroke-width:2;stroke-linecap:round;stroke-linejoin:round;stroke-miterlimit:10;}
	.st122{fill:#A6D3B6;stroke:#010101;stroke-width:2;stroke-linecap:round;stroke-linejoin:round;stroke-miterlimit:10;}
	.st123{fill:#A5C4C7;stroke:#010101;stroke-width:2;stroke-linecap:round;stroke-linejoin:round;stroke-miterlimit:10;}
	.st124{fill:#FAD14E;stroke:#010101;stroke-width:2;stroke-linecap:round;stroke-linejoin:round;stroke-miterlimit:10;}
	.st125{fill:#4F79A4;stroke:#1D1E1C;stroke-width:2;stroke-linecap:round;stroke-linejoin:round;stroke-miterlimit:10;}
	.st126{fill:#ED716A;stroke:#1D1E1C;stroke-width:2;stroke-miterlimit:10;}
	.st127{fill:#A8B8DC;stroke:#1D1E1C;stroke-width:2;stroke-linecap:round;stroke-linejoin:round;stroke-miterlimit:10;}
	.st128{fill:#65C0BC;stroke:#1D1E1C;stroke-width:2;stroke-linecap:round;stroke-linejoin:round;stroke-miterlimit:10;}
	.st129{fill:#C2C4C2;stroke:#1D1D1B;stroke-width:2;stroke-linecap:round;stroke-linejoin:round;stroke-miterlimit:10;}
	.st130{fill:#AAB0B5;stroke:#1D1D1B;stroke-width:2;stroke-miterlimit:10;}
	.st131{fill:#D3C2A3;stroke:#1D1D1B;stroke-width:2;stroke-linecap:square;stroke-linejoin:bevel;stroke-miterlimit:10;}
	.st132{stroke:#1D1D1B;stroke-width:2;stroke-miterlimit:10;}
	.st133{fill:#D5DCE4;stroke:#1D1D1B;stroke-width:2;stroke-miterlimit:10;}
	.st134{fill:none;stroke:#FFFFFF;stroke-width:2;stroke-linecap:round;stroke-linejoin:round;stroke-miterlimit:10;}
	.st135{fill:#5080A2;stroke:#1D1D1B;stroke-width:2;stroke-linecap:round;stroke-linejoin:round;stroke-miterlimit:10;}
	.st136{fill:#6094C0;stroke:#1D1D1B;stroke-width:2;stroke-linecap:round;stroke-linejoin:round;stroke-miterlimit:10;}
	.st137{fill:#5688AA;stroke:#1D1D1B;stroke-width:2;stroke-linecap:square;stroke-linejoin:bevel;stroke-miterlimit:10;}
	.st138{fill:#F3C43E;stroke:#1D1D1B;stroke-width:2;stroke-linecap:round;stroke-linejoin:round;stroke-miterlimit:10;}
	.st139{fill:#FABB4B;stroke:#1D1D1B;stroke-width:2;stroke-linecap:round;stroke-linejoin:round;stroke-miterlimit:10;}
	.st140{fill:#FFFFFF;stroke:#1D1D1B;stroke-width:2;stroke-linecap:square;stroke-linejoin:bevel;stroke-miterlimit:10;}
	.st141{fill:#61B675;stroke:#1D1D1B;stroke-width:2;stroke-linecap:square;stroke-linejoin:bevel;stroke-miterlimit:10;}
	.st142{fill:#37AB72;stroke:#1D1D1B;stroke-width:2;stroke-linecap:round;stroke-linejoin:round;stroke-miterlimit:10;}
	.st143{fill:none;stroke:#1D1D1B;stroke-width:2;stroke-linecap:round;stroke-miterlimit:10;}
	.st144{fill:#EDDEBC;stroke:#1D1D1B;stroke-width:2;stroke-linecap:square;stroke-linejoin:bevel;stroke-miterlimit:10;}
	.st145{fill:none;}
	.st146{fill:#52B47D;stroke:#1D1D1B;stroke-width:2;stroke-linecap:round;stroke-linejoin:round;stroke-miterlimit:10;}
	.st147{fill:#2E8D5C;stroke:#1D1D1B;stroke-width:2;stroke-linecap:round;stroke-linejoin:round;stroke-miterlimit:10;}
	.st148{opacity:0.25;fill:none;stroke:#FFFFFF;stroke-width:2;stroke-linecap:round;stroke-linejoin:round;stroke-miterlimit:10;}
	.st149{fill:none;stroke:#1D1D1B;stroke-width:2;stroke-linecap:square;stroke-linejoin:bevel;stroke-miterlimit:10;}
	.st150{fill:#E9554B;stroke:#1D1D1B;stroke-width:2;stroke-miterlimit:10;}
	.st151{fill:#E9524B;stroke:#1D1D1B;stroke-width:2;stroke-linecap:round;stroke-linejoin:round;stroke-miterlimit:10;}
	.st152{fill:#EB6661;stroke:#1D1D1B;stroke-width:2;stroke-miterlimit:10;}
	.st153{opacity:0.2;fill:#1D1D1B;}
	
		.st154{opacity:9.000000e-02;fill:none;stroke:#FFFFFF;stroke-width:2;stroke-linecap:round;stroke-linejoin:round;stroke-miterlimit:10;}
	.st155{fill:#FAD04E;stroke:#1D1D1B;stroke-width:2;stroke-linecap:round;stroke-linejoin:round;stroke-miterlimit:10;}
	.st156{fill:#E5BD4A;stroke:#1D1D1B;stroke-width:2;stroke-linecap:round;stroke-linejoin:round;stroke-miterlimit:10;}
	.st157{fill:#B68235;stroke:#1D1D1B;stroke-width:2;stroke-linecap:round;stroke-linejoin:round;stroke-miterlimit:10;}
	.st158{fill:#D2BFB9;stroke:#1D1D1B;stroke-width:2;stroke-linecap:round;stroke-linejoin:round;stroke-miterlimit:10;}
	.st159{fill:#DADAD2;}
	.st160{clip-path:url(#SVGID_6_);}
	.st161{fill:#308C89;}
	.st162{fill:#333333;}
	.st163{fill:#F0584D;}
	.st164{fill:#FAD14D;}
	.st165{fill:#3CA4DC;}
	.st166{clip-path:url(#SVGID_8_);}
	.st167{fill:#D8B144;}
	.st168{fill:#3290BA;}
	.st169{fill:#D84B48;}
	.st170{fill:#E6DDEE;stroke:#1D1E1C;stroke-width:2;stroke-linecap:square;stroke-linejoin:bevel;stroke-miterlimit:10;}
	.st171{fill:#F1F1F1;stroke:#1D1E1C;stroke-width:2;stroke-miterlimit:10;}
	.st172{fill:#F3BC12;stroke:#010101;stroke-width:2;stroke-linecap:round;stroke-linejoin:round;stroke-miterlimit:10;}
	.st173{fill:#FCD28C;stroke:#1D1E1C;stroke-width:2;stroke-linecap:round;stroke-linejoin:round;stroke-miterlimit:10;}
	.st174{fill:#ED706A;stroke:#1D1E1C;stroke-width:2;stroke-linecap:round;stroke-linejoin:round;stroke-miterlimit:10;}
	.st175{fill:#CB615E;stroke:#1D1E1C;stroke-width:2;stroke-linecap:round;stroke-linejoin:round;stroke-miterlimit:10;}
	.st176{fill:#F7CCC1;stroke:#1D1D1B;stroke-width:2;stroke-linecap:round;stroke-linejoin:round;stroke-miterlimit:10;}
	.st177{fill:#FF4B3C;stroke:#1D1E1C;stroke-width:2;stroke-linecap:round;stroke-linejoin:round;stroke-miterlimit:10;}
	.st178{fill:#F0F0F0;stroke:#1D1E1C;stroke-width:2;stroke-linecap:round;stroke-linejoin:round;stroke-miterlimit:10;}
	.st179{fill:#F9EFE2;stroke:#1D1E1C;stroke-width:2;stroke-linecap:round;stroke-linejoin:round;stroke-miterlimit:10;}
	.st180{fill:#9AC7AA;stroke:#1D1D1B;stroke-width:2;stroke-linecap:round;stroke-linejoin:round;stroke-miterlimit:10;}
	.st181{fill:#A2CFD6;stroke:#1D1D1B;stroke-width:2;stroke-linecap:round;stroke-linejoin:round;stroke-miterlimit:10;}
	.st182{fill:#E799A0;}
	.st183{opacity:0.41;fill:#A2CFD6;}
</style>
<g>
	<rect x="73.1" y="104.7" class="st158" width="47.6" height="9.2"/>
	<polygon class="st158" points="120.7,68.5 120.7,59.4 82.3,59.4 73.1,59.4 73.1,68.5 73.1,148 73.1,157.2 82.3,157.2 120.7,157.2 
		120.7,148 82.3,148 82.3,68.5 	"/>
	<rect x="122.4" y="60.6" class="st159" width="35.3" height="97.3"/>
	<g>
		<defs>
			<path id="SVGID_5_" d="M157.1,60.3c-4.2,0-8.3-0.2-12.5-0.3l-1.2,0c-0.4,0-0.8,0-1.1,0c-6.6,0.1-13.3,0-19.9,0
				c-0.1,0-0.2,0-0.4,0c0.1,0.7,0.1,1.4,0.2,2.1c0.3,3.5,0.3,7,0.3,10.6c0,4.7,0,9.4,0.1,14c0.2,4.8,0.5,9.6,0.9,14.3
				c0.3,4.7,0.6,9.5,0.8,14.2c0.2,4.6,0.6,9.2,1.3,13.8c0.4,2.4,1,4.8,1.3,7.2c0.3,2.3,0.3,4.6,0.3,6.9c0,2.3-0.1,4.6,0,6.8
				c0,2.1,0,5.2,0.1,7.4c1.8-0.1,4.2,0,7.6,0c2.8,0,6.4-0.3,9.7-0.2c3.9,0,6.5,0.2,8.9,0.2c2.6,0.1,4.6,0.1,4.6,0.1l-0.1-96.1
				C157.9,60.7,157.5,60.3,157.1,60.3z"/>
		</defs>
		<clipPath id="SVGID_2_">
			<use xlink:href="#SVGID_5_"  style="overflow:visible;"/>
		</clipPath>
		<g class="st41">
			<path class="st161" d="M117,59c-0.1,0.1-0.1,0.1-0.2,0.2c-1.8,2-3.2,4.3-4.6,6.5c-1.3,2-2.5,4.5-4.3,6.1c-2,1.8-4.4,3.1-7,3.8
				c-0.3,0.1-0.6,0.2-0.9,0.2c-1.5,0.3-3.2,0.3-4.6,0.9c-1.6,0.6-2.9,2-4.7,2.2c-1.5,0.2-1.9-0.2-2.7-1.4c-0.4-0.6,3.5-4.9,4-5.4
				c2.3-2.7,4.7-5.2,7.2-7.8c1.8-1.8,3.5-3.8,5.6-5.3H117z"/>
			<path class="st162" d="M110.4,143.9c1.2-0.5,2.5-0.9,3.6-1.6c2.9-1.8,4.3-5,5.8-7.9c0.9-1.7,1.7-3.5,3-5.1c1.2-1.4,3-2.1,4.3-3.4
				c1.4-1.3,2.2-3.1,2.5-5c0.5-2.5,1.3-4.2,3.2-5.8c1.5-1.3,3.9-2.1,4.8-4c1.2-2.5-1-4.1-3.3-2.7c-0.6,0.4-1.2,0.8-1.9,1
				c-0.7,0.2-1.5,0.1-2.2,0.3c-1,0.4-1.9,1.5-2.8,2.2c-3,2.3-6.4,4.5-8.1,8c-1,2-2.6,3.1-4.4,4.3c-2.8,2.1-3.3,5.5-4.4,8.6
				c-0.7,1.9-1.4,3.8-2.6,5.4c-0.7,0.9-1.7,1.6-2.5,2.5c-0.8,0.9-1.2,2-1.7,3.1c-0.4,0.7-1.2,1.5-1,2.4c0.1,0.4,0.7,1.3,1.2,1.3
				c1.6-0.2,2.9-1.3,4.1-2.3C108.6,144.7,109.5,144.3,110.4,143.9z"/>
			<path class="st163" d="M126,130c-0.1-0.9,2.4-2.2,2.8-2.6c1.4-1.5,2.2-3.4,3.3-5.2c0.9-1.5,1-3.3,1.9-4.7
				c1.7-2.7,4.9-3.5,7.6-4.8c2.9-1.4,6.2-3.7,8.2-6.3c0.8-1,2-1.6,2.8-2.6c1-1.2,2-2.8,3.5-3.4c1.3-0.6,2.7,0,3.9,0.6
				c1.5,0.7,1.9,1.3,0.9,2.7c-0.8,1-1.1,1.5-0.8,2.8c0.1,0.5,0.1,0.8-0.1,1.2c-0.4,0.9-1.2,1.6-1.7,2.3c-1.4,1.8-3.3,3.3-4.8,5.1
				c-1.2,1.5-2.2,3.1-3.8,4.2c-2,1.5-4.3,2.6-6.7,3.2c-2.6,0.7-5.2,0.2-7.4,2c-1.9,1.5-3.1,3.9-5.3,5.1c-0.9,0.5-3,1.5-4,0.8
				C126.1,130.2,126,130.1,126,130z"/>
			<path class="st164" d="M146.9,100.1c0,0,2.8-0.7,4-1.1c2.7-1,4.7-3.1,6.6-5.2c2.2-2.5,4.6-4.9,7.3-6.9c1.5-1.2,2.9-3,4.6-3.9
				c1.7-0.9,4.2-1,5.5-2.5c1.7-1.9-1.1-4.8-2.8-5.6c-3.4-1.6-6.6,4.2-8.8,5.8c-3.8,2.8-8.2,4.8-12.2,7.5c-1.3,0.9-1.9,2.3-2.7,3.7
				c-0.7,1.3-1.6,2.3-2.7,3.3c-1,0.9-1.9,2.3-2.4,3.6c-0.2,0.4-0.8,1.2-0.8,1.6C142.7,101.4,146.4,100.3,146.9,100.1z"/>
			<path class="st165" d="M116.9,113.7c0.4-0.1,0.7-0.2,1.1-0.3c3.1-0.9,5.9-2.6,8.3-4.7c2.1-1.9,3.6-5,5.1-7.4
				c1.7-2.7,3.4-5.5,5.5-7.9c2.7-3,6.2-5.1,9.3-7.7c2.4-2,4-4.8,1-7.2c-2.5-1.9-4.7,0.1-6.9,1.5c-1.6,1-3.3,1.7-4.4,3.4
				c-0.7,1.2-1,2.6-1.9,3.7c-2,2.4-5.1,2.9-7.7,4.1c-4.1,1.9-7.1,5.5-10.1,8.7c-2.9,3.1-5.8,6.2-8.6,9.5c-0.5,0.6-5.2,5.9-4.8,6.6
				c0.9,1.4,1.4,2,3.2,1.7c2.1-0.4,3.6-2,5.5-2.7C113.2,114.2,115.1,114.1,116.9,113.7z"/>
			<path class="st163" d="M157,59c0,0.1,0,0.2,0,0.3c0.3,2.8-3.9,5.3-5.8,6.6c-3.9,2.6-8.1,4.8-11.7,7.8c-3,2.5-4.6,6-6.4,9.4
				c-1.1,2.1-2.9,3.1-5,3.9c-1.7,0.7-3.7,2.1-5.6,2.4c-0.2,0-0.4,0-0.6,0c-1.4,0-2.5-1.1-3.8-1.1c-1.1-0.1-1.9,0.5-2.8,1.1
				c-0.7,0.4-1.9,1.3-2.8,0.9c-0.6-0.3-1.1-1-1.5-1.4c-2.8-2.8,5-7.7,6.5-9.5c2.3-2.7,4.1-5.8,6.1-8.8c1.5-2.3,3.4-4.4,4.9-6.6
				c1-1.5,1.9-3.2,2.8-4.7H157z"/>
			<path class="st162" d="M186.9,63.3c-0.4,0.6-0.8,1.1-1.2,1.6c-0.9,1-1.4,1.1-2.6,2c-2.1,1.7-4.2,3.5-6.6,4.7
				c-2.4,1.2-4.8,1.1-7.4,1.2c-2.2,0-4.3,0.5-6.5,0.8c-2,0.3-4.3,0.1-6.1,0.7c-0.9,0.3-0.9,1.2-1.7,1.7c0,0,0,0-0.1,0
				c-0.8,0.5-2.8,0.9-3.1-0.4c-0.4-1.7,1.3-3.4,2.3-4.5c1.4-1.6,2.9-3.1,4-5c0.7-1.1,1.4-2.1,2.2-2.9H186.9z"/>
			<path class="st165" d="M151.3,160.3c1.2-0.4,2.5-0.7,3.7-1.3c3-1.6,4.7-4.7,6.4-7.5c1-1.7,2-3.4,3.3-4.8c1.3-1.3,3.1-1.9,4.5-3
				c1.5-1.2,2.4-2.9,2.9-4.8c0.7-2.4,1.6-4.1,3.6-5.6c1.6-1.2,4-1.8,5.1-3.6c1.4-2.4-0.7-4.1-3.1-2.9c-0.6,0.3-1.3,0.7-2,0.8
				c-0.7,0.1-1.5-0.1-2.2,0.2c-1.1,0.4-2,1.3-2.9,2c-3.1,2.1-6.7,4-8.7,7.4c-1.1,1.9-2.9,2.8-4.7,4c-3,1.9-3.7,5.3-5.1,8.3
				c-0.8,1.8-1.7,3.7-3,5.2c-0.8,0.9-1.8,1.5-2.7,2.3c-0.9,0.8-1.3,1.9-1.9,3c-0.4,0.7-1.3,1.4-1.2,2.3c0,0.4,0.6,1.4,1.1,1.4
				c1.6-0.1,3-1.1,4.3-2C149.4,160.9,150.3,160.6,151.3,160.3z"/>
			<path class="st161" d="M202.7,131.2c-1.8,1.2-3.9,2.1-6,2.7c-2.6,0.7-5.2,0.2-7.4,2c-1.9,1.5-3.1,3.9-5.3,5.1
				c-0.9,0.5-3,1.5-4,0.8c-0.1-0.1-0.2-0.2-0.2-0.3c-0.1-0.9,2.4-2.2,2.8-2.6c1.4-1.5,2.2-3.4,3.3-5.2c0.9-1.5,1-3.3,1.9-4.7
				c1.7-2.7,4.9-3.5,7.6-4.8c2.5-1.2,5.3-3.1,7.3-5.2V131.2z"/>
			<path class="st161" d="M202.7,111.1c-1,0.3-2,0.5-2,0.5c-0.6,0.1-4.2,1.3-4.3,0.3c0-0.4,0.6-1.2,0.8-1.6c0.5-1.3,1.4-2.7,2.4-3.6
				c1.1-1,2-2,2.7-3.3c0.1-0.2,0.2-0.4,0.3-0.6V111.1z"/>
			<path class="st162" d="M167.3,126.8c0.4-0.1,0.7-0.2,1.1-0.3c3.1-0.9,5.9-2.6,8.3-4.7c2.1-1.9,3.6-5,5.1-7.4
				c1.7-2.7,3.4-5.5,5.5-7.9c2.7-3,6.2-5.1,9.3-7.7c2.4-2,4-4.8,1-7.2c-2.5-1.9-4.7,0.1-6.9,1.5c-1.6,1-3.3,1.7-4.4,3.4
				c-0.7,1.2-1,2.6-1.9,3.7c-2,2.4-5.1,2.9-7.7,4.1c-4.1,1.9-7.1,5.5-10.1,8.7c-2.9,3.1-5.8,6.2-8.6,9.5c-0.5,0.6-5.2,5.9-4.8,6.6
				c0.9,1.4,1.4,2,3.2,1.7c2.1-0.4,3.6-2,5.5-2.7C163.5,127.3,165.4,127.2,167.3,126.8z"/>
			<path class="st161" d="M202.7,63.6v15.2c-3.2,2-6.5,3.9-9.4,6.3c-3,2.5-4.6,6-6.4,9.4c-1.1,2.1-2.9,3.1-5,3.9
				c-1.7,0.7-3.7,2.1-5.6,2.4c-0.2,0-0.4,0-0.6,0c-1.4,0-2.5-1.1-3.8-1.1c-1.1-0.1-1.9,0.5-2.8,1.1c-0.7,0.4-1.9,1.3-2.8,0.9
				c-0.6-0.3-1.1-1-1.5-1.4c-2.8-2.8,5-7.7,6.5-9.5c2.3-2.7,4.1-5.8,6.1-8.8c1.5-2.3,3.4-4.4,4.9-6.6c1.7-2.4,2.8-5.3,4.9-7.5
				c1.6-1.6,4.4-2.9,6.3-4c1.8-1,3.8-1.7,5.9-1.4C200.6,62.5,201.7,63,202.7,63.6z"/>
			<path class="st164" d="M112.7,162.2C112.7,162.2,112.8,162.2,112.7,162.2c0.8-0.5,0.9-1.4,1.7-1.7c1.9-0.7,4.2-0.4,6.1-0.7
				c2.2-0.4,4.3-0.8,6.5-0.8c2.6,0,5,0,7.4-1.2c2.5-1.2,4.6-3,6.6-4.7c1.1-0.9,1.7-1,2.6-2c0.9-1,1.6-2.2,2.7-3.8c0,0,0,0,0,0
				c0.9-1.2,1.2-2.6,2.1-3.7c1-1.2,2.3-2.3,2.8-3.8c0.4-1.1-0.2-1.9-0.5-2.9c-0.9-2.7,1.2-7.5-2.3-9c-1.6-0.7-3,0.4-4.4,1.3
				c-2.3,1.5-5.1,2.5-7.2,4.3c-1.9,1.6-4.2,3.5-5.3,5.8c-1,2.1-4,4.2-6,5.3c-4.1,2.1-7.4,3.9-9.8,7.9c-1.1,1.9-2.6,3.4-4,5
				c-1,1.1-2.7,2.8-2.3,4.5C109.9,163.1,111.9,162.7,112.7,162.2z"/>
		</g>
	</g>
	<rect x="122.4" y="60" class="st7" width="35.3" height="97.3"/>
	<g>
		<path class="st159" d="M119.8,179.4c-0.1,0-0.2,0-0.2,0c-1.1-0.1-1.4-1.2-1.5-1.6c-0.2-0.7-0.3-1.4-0.4-2.1
			c-0.1-0.4-0.1-0.7-0.2-1.1c-0.5-2.9-1.6-5.5-2.7-8.3c0,0-2.5-6.3-3.1-7.7c-0.7-1.8-0.4-3.4-0.1-4.9c0.1-0.4,0.1-0.8,0.2-1.2
			l0.1-0.6c0.3-1.9,0.6-3.8,0.9-5.7c0.3-2,0.1-2.3-1.2-4.1c-0.3-0.4-0.7-1-1.2-1.6c-1.3-1.9-1.7-4.4-1.2-6.9c0.5-2.1,0.7-4.2,1-6.4
			l0.1-0.9c0.1-0.4,0.1-0.9,0.2-1.3c0.2-1.4,0.4-2.9,0.4-4.2c0-1.3-1.5-3.9-2.9-6.2c-0.3-0.5-0.6-1.1-1-1.6
			c-1.3-2.3-0.5-3.9,0.2-5.2c0.4-0.8,0.8-1.6,0.9-2.5c0.1-2.2,0-2.3-0.7-3.3c-0.2-0.2-0.3-0.4-0.5-0.7c-1.3-1.8-1.8-3-1.8-4.3
			c0-1,1.2-10.3,1.3-11.3c0,0,0-0.1,0-0.1c0.1-0.5,1.8-10,4.4-24.8c0.1-0.8,0.8-1.4,1.6-1.4l10.5,0.1c0.5,0,1,0.4,1,1l0,2.2
			c-0.1,14.7,1,25.7,2,36.4c0.7,7.5,1.4,14.5,1.7,22.6c0.1,2.6,0.2,5.3,0.3,7.9c0.4,9.3,0.8,18.8,0.1,28.2l-0.1,1.4
			c-0.1,1.4-0.2,2.9-0.2,4.2c-0.1,2.2-0.1,4.5-0.1,7.1c0,1,0,2.1,0.1,3.1c0,0.2,0,0.4,0,0.5c0.1,1.1,0.2,2.6-0.9,3.5
			c-0.4,0.4-1,0.6-1.7,0.6c-0.2,0-0.4,0-0.7,0l-0.4,0c-0.3,0-0.7-0.1-1-0.1c-0.2,0-0.4,0-0.6,0c-0.2,0-0.5,0.2-0.8,0.5
			C121.2,179,120.6,179.4,119.8,179.4z"/>
		<path class="st16" d="M112.4,60.4C112.4,60.4,112.4,60.4,112.4,60.4c0.3,0,0.5,0,0.8,0c3.2,0,6.5,0,9.7,0.1l0,2.2
			c-0.2,24.9,3.1,39.4,3.7,59c0.4,11.9,1.4,24.1,0.4,36c0,0-0.1,0.9-0.1,1.4c-0.1,1.4-0.2,2.9-0.2,4.3c-0.1,2.4-0.1,4.8-0.1,7.2
			c0,1,0,2.1,0.1,3.1c0,1,0.3,2.5-0.5,3.3c-0.3,0.3-0.7,0.3-1,0.3c-0.2,0-0.4,0-0.6,0c-0.5,0-1-0.1-1.5-0.1c-0.3,0-0.5,0-0.8,0.1
			c-0.9,0.2-1.7,1.2-2.6,1.2c0,0-0.1,0-0.1,0c-0.4,0-0.5-0.5-0.6-0.9c-0.2-1-0.4-2-0.5-3c-0.6-3.4-2-6.5-3.2-9.7
			c-0.9-2.2-1.7-4.3-2.6-6.5c-0.8-1.9-0.1-3.7,0.2-5.6c0.3-2.1,0.6-4.2,1-6.3c0.5-3-0.3-3.2-2.6-6.4c-1.2-1.8-1.5-4-1-6.1
			c0.5-2.5,0.8-4.9,1.1-7.4c0.2-1.9,0.6-3.8,0.6-5.7c0-1.9-2.2-5.3-4-8.3c-1.8-3,1.1-4.2,1.3-7.2s-0.2-2.9-1.4-4.6s-1.6-2.7-1.6-3.7
			s1.3-11.2,1.3-11.2c0.1-0.6,3.7-21.2,4.4-24.9C111.9,60.7,112.1,60.4,112.4,60.4 M112.4,58.4c-1.3,0-2.4,0.9-2.6,2.2
			c-2.1,11.8-4.2,24.1-4.4,24.8c0,0.1,0,0.1,0,0.2c-0.3,2.4-1.3,10.4-1.3,11.4c0,1.5,0.6,2.9,2,4.9c0.2,0.3,0.4,0.5,0.5,0.7
			c0.6,0.8,0.6,0.8,0.5,2.6c0,0.8-0.4,1.4-0.8,2.1c-0.7,1.4-1.9,3.4-0.2,6.2c0.3,0.5,0.6,1.1,1,1.6c1.2,2,2.8,4.7,2.8,5.7
			c0,1.3-0.2,2.7-0.4,4.1c-0.1,0.4-0.1,0.9-0.2,1.3l-0.1,0.9c-0.3,2.2-0.5,4.2-1,6.3c-0.6,2.8-0.1,5.6,1.4,7.7
			c0.5,0.7,0.9,1.2,1.2,1.6c1.3,1.7,1.3,1.7,1,3.3c-0.3,1.9-0.6,3.8-0.9,5.7l-0.1,0.6c-0.1,0.4-0.1,0.8-0.2,1.1
			c-0.3,1.6-0.7,3.5,0.2,5.5c0.6,1.4,1.1,2.9,1.7,4.3l0.9,2.2c0.2,0.4,0.3,0.8,0.5,1.2c1.1,2.7,2.1,5.3,2.6,8.1
			c0.1,0.3,0.1,0.7,0.2,1c0.1,0.7,0.2,1.4,0.4,2.1l0,0.1c0.4,1.8,1.5,2.2,2.3,2.3c0.1,0,0.2,0,0.4,0c1.1,0,1.9-0.6,2.5-1
			c0.1-0.1,0.4-0.2,0.5-0.3c0.1,0,0.2,0,0.3,0c0.3,0,0.6,0,0.9,0.1l0.4,0c0.3,0,0.5,0,0.8,0c1,0,1.8-0.3,2.4-0.9
			c1.4-1.3,1.3-3.2,1.2-4.3c0-0.2,0-0.3,0-0.5c0-1,0-2-0.1-3.1c0-2.6,0-4.9,0.1-7.1c0-1.3,0.1-2.8,0.2-4.2l0.1-1.4
			c0.7-9.4,0.3-19-0.1-28.3c-0.1-2.6-0.2-5.3-0.3-7.9c-0.3-8.1-1-15.2-1.7-22.7c-1-10.6-2.1-21.6-2-36.3l0-2.2c0-1.1-0.9-2-2-2
			l-4.9,0l-4.9,0L112.4,58.4C112.5,58.4,112.4,58.4,112.4,58.4L112.4,58.4z"/>
	</g>
	<g>
		<defs>
			<path id="SVGID_7_" d="M127.1,159.1c-0.1,1.4-0.2,2.9-0.2,4.3c-0.1,2.4-0.1,4.8-0.1,7.2c0,1,0,2.1,0.1,3.1c0,1,0.3,2.5-0.5,3.3
				c-0.4,0.4-1.1,0.3-1.6,0.3c-0.7-0.1-1.5-0.2-2.2,0c-0.9,0.2-1.7,1.3-2.7,1.2c-0.4,0-0.5-0.5-0.6-0.9c-0.2-1-0.4-2-0.5-3
				c-0.6-3.4-2-6.5-3.2-9.7c-0.9-2.2-1.7-4.3-2.6-6.5c-0.8-1.9-0.1-3.7,0.2-5.6c0.3-2.1,0.6-4.2,1-6.3c0.5-3-0.3-3.2-2.6-6.4
				c-1.2-1.8-1.5-4-1-6.1c0.5-2.5,0.8-4.9,1.1-7.4c0.2-1.9,0.6-3.8,0.6-5.7c0-1.9-2.2-5.3-4-8.3c-1.8-3,1.1-4.2,1.3-7.2
				s-0.2-2.9-1.4-4.6c-1.3-1.8-1.6-2.7-1.6-3.7s1.3-11.2,1.3-11.2c0.1-0.6,3.7-21.2,4.4-24.9c0.1-0.3,0.3-0.5,0.7-0.5
				c0.3,0,0.5,0,0.8,0c3.2,0,6.5,0,9.7,0.1l0,2.2c-0.2,24.9,3.1,39.4,3.7,59c0.4,11.9,1.4,24.1,0.4,36
				C127.2,157.7,127.2,158.6,127.1,159.1z"/>
		</defs>
		<clipPath id="SVGID_4_">
			<use xlink:href="#SVGID_7_"  style="overflow:visible;"/>
		</clipPath>
		<g style="clip-path:url(#SVGID_4_);">
			<path class="st161" d="M62.9,94.4c0,0.1,0,0.2,0,0.3c-0.4,2.6-0.2,5.3-0.1,7.9c0.1,2.3,0.5,5.1-0.1,7.4c-0.7,2.6-1.9,5-3.6,7.1
				c-0.2,0.2-0.4,0.5-0.6,0.7c-1.1,1.1-2.4,2.1-3.3,3.4c-1,1.4-1.3,3.2-2.6,4.5c-1.1,1-1.7,0.9-3,0.4c-0.6-0.3,0.2-6,0.3-6.7
				c0.4-3.5,1-7,1.6-10.5c0.4-2.5,0.8-5.1,1.6-7.6L62.9,94.4z"/>
			<path class="st161" d="M105.3,168.3c0.7-1.1,1.5-2.1,2-3.4c1.3-3.1,0.7-6.6,0.3-9.8c-0.3-1.9-0.6-3.9-0.4-5.9
				c0.2-1.8,1.3-3.4,1.6-5.2c0.4-1.9,0-3.8-0.7-5.5c-1-2.3-1.3-4.2-0.7-6.6c0.5-1.9,2-3.9,1.7-6c-0.4-2.8-3.2-2.8-4.2-0.4
				c-0.3,0.6-0.6,1.3-1,1.9c-0.5,0.6-1.2,0.9-1.6,1.5c-0.6,1-0.7,2.3-1,3.4c-1.1,3.6-2.7,7.3-2.2,11.2c0.3,2.2-0.4,4-1.1,6
				c-1.2,3.3,0.4,6.4,1.2,9.6c0.5,1.9,1,3.9,0.9,5.9c-0.1,1.2-0.5,2.3-0.7,3.5c-0.2,1.2,0.2,2.3,0.4,3.5c0.1,0.8-0.1,1.9,0.5,2.5
				c0.3,0.3,1.4,0.7,1.7,0.4c1.2-1.1,1.7-2.7,2.1-4.2C104.3,170,104.8,169.1,105.3,168.3z"/>
			<path class="st167" d="M110.8,145.9c-0.6-0.6,0.7-3.1,0.8-3.8c0.3-2-1.9-2.4-2-4.4c-0.1-1.7,0.8-4.9,0.7-6.7
				c-0.1-3.2,2-5.6,3.5-8.3c1.6-2.8,3-6.6,3.2-9.8c0.1-1.3,0.7-2.5,0.9-3.7c0.2-1.5,0.1-3.4,0.9-4.8c0.8-1.3,2.2-1.5,3.6-1.7
				c1.6-0.2,2.3,0,2.3,1.7c-0.1,1.3-0.1,1.9,0.9,2.8c0.4,0.3,0.5,0.6,0.6,1.1c0.2,0.9-0.1,2-0.1,2.9c-0.2,2.3-0.9,4.6-1.1,6.9
				c-0.2,1.9-0.1,3.8-0.8,5.6c-0.8,2.3-2.1,4.6-3.7,6.4c-1.7,2-4.2,3.1-5,5.8c-0.7,2.3-0.4,4.9-1.5,7.2c-0.5,0.9-1.6,3-2.9,3
				C111,146,110.9,146,110.8,145.9z"/>
			<path class="st168" d="M109.8,111.4c0,0,2.7-2.2,3.8-3.2c2.4-2.4,3.3-5.4,4.1-8.4c0.9-3.5,2.1-6.9,3.8-10.2
				c1-1.9,1.3-4.4,2.7-6.1c1.3-1.7,4-3.2,4.6-5.3c0.7-2.7-4.3-3.6-6.7-3.4c-4.9,0.4-4.7,7.4-6.1,10.1c-2.4,4.6-6.1,8.9-8.8,13.4
				c-0.9,1.6-0.7,3.2-0.6,4.8c0,1.5-0.3,3-0.9,4.5c-0.6,1.4-0.7,3.1-0.4,4.6c0.1,0.4-0.1,1.6,0.1,1.9
				C105.9,114.9,109.3,111.8,109.8,111.4z"/>
			<path class="st161" d="M93.7,139.7c0.3-0.3,0.5-0.5,0.7-0.8c2-2.5,3.4-5.4,4.2-8.6c0.7-2.8,0.2-6.1,0.1-9
				c-0.1-3.2-0.3-6.4,0.1-9.6c0.5-4,2.3-7.7,3.4-11.6c0.8-3.1,0.6-6.2-3.2-6.5c-3.1-0.2-3.8,2.8-4.9,5.1c-0.8,1.7-1.8,3.3-1.7,5.3
				c0.1,1.4,0.6,2.7,0.5,4.1c-0.3,3.1-2.6,5.2-4.1,7.8c-2.3,3.9-2.7,8.5-3.4,12.9c-0.7,4.2-1.3,8.4-1.7,12.7c-0.1,0.8-1,7.8-0.3,8.1
				c1.5,0.7,2.3,0.8,3.6-0.4c1.5-1.5,1.9-3.7,3-5.4C90.9,142.2,92.4,141,93.7,139.7z"/>
			<path class="st161" d="M95.9,71.9c0.1,0.1,0.1,0.1,0.2,0.2c1.8,2.1-0.2,6.5-1.1,8.7c-1.7,4.4-4,8.5-5.3,13
				c-1.1,3.7-0.4,7.5,0,11.3c0.3,2.3-0.6,4.2-1.9,6c-1,1.5-1.9,3.8-3.3,5.1c-0.1,0.1-0.3,0.2-0.4,0.4c-1.1,0.8-2.6,0.5-3.8,1.2
				c-1,0.6-1.3,1.5-1.7,2.5c-0.3,0.8-0.8,2.2-1.8,2.3c-0.6,0.1-1.5-0.2-2.1-0.3c-3.9-0.8-0.3-9.2,0-11.5c0.4-3.6,0.1-7.1,0-10.7
				c-0.1-2.8,0.3-5.5,0.3-8.3c0-1.8-0.3-3.7-0.4-5.5L95.9,71.9z"/>
			<path class="st169" d="M124,52.7c0,0.7,0,1.3-0.1,2c-0.2,1.4-0.6,1.7-1,3.1c-0.7,2.6-1.5,5.3-2.8,7.7c-1.3,2.3-3.3,3.7-5.4,5.2
				c-1.8,1.3-3.3,2.8-4.9,4.4c-1.4,1.4-3.5,2.5-4.7,4.1c-0.5,0.8-0.1,1.5-0.4,2.3c0,0,0,0,0,0.1c-0.4,0.9-1.8,2.3-2.8,1.5
				c-1.3-1.1-0.8-3.5-0.6-5c0.3-2.1,0.6-4.2,0.5-6.4c-0.1-1.3,0-2.5,0.2-3.7L124,52.7z"/>
			<path class="st161" d="M156.2,147.4c0.7-1.1,1.5-2.1,2-3.4c1.3-3.1,0.7-6.6,0.3-9.8c-0.3-1.9-0.6-3.9-0.4-5.9
				c0.2-1.8,1.3-3.4,1.6-5.2c0.4-1.9,0-3.8-0.7-5.5c-1-2.3-1.3-4.2-0.7-6.6c0.5-1.9,2-3.9,1.7-6c-0.4-2.8-3.2-2.8-4.2-0.4
				c-0.3,0.6-0.6,1.3-1,1.9c-0.5,0.6-1.2,0.9-1.6,1.5c-0.6,1-0.7,2.3-1,3.4c-1.1,3.6-2.7,7.3-2.2,11.2c0.3,2.2-0.4,4-1.1,6
				c-1.2,3.3,0.4,6.4,1.2,9.6c0.5,1.9,1,3.9,0.9,5.9c-0.1,1.2-0.5,2.3-0.7,3.5c-0.2,1.2,0.2,2.3,0.4,3.5c0.1,0.8-0.1,1.9,0.5,2.5
				c0.3,0.3,1.4,0.7,1.7,0.4c1.2-1.1,1.7-2.7,2.1-4.2C155.2,149.1,155.7,148.2,156.2,147.4z"/>
			<path class="st161" d="M174.4,105.7c-0.8,2-2,3.9-3.4,5.6c-1.7,2-4.2,3.1-5,5.8c-0.7,2.3-0.4,4.9-1.5,7.2c-0.5,0.9-1.6,3-2.9,3
				c-0.2,0-0.3-0.1-0.4-0.1c-0.6-0.6,0.7-3.1,0.8-3.8c0.3-2-0.1-4.1-0.2-6.1c-0.1-1.7-1-3.3-1.1-5c-0.1-3.2,2-5.6,3.5-8.3
				c1.3-2.4,2.6-5.6,3.1-8.4L174.4,105.7z"/>
			<path class="st161" d="M163,89.1c-0.7,0.8-1.4,1.5-1.4,1.5c-0.4,0.4-2.8,3.4-3.4,2.7c-0.2-0.3-0.2-1.4-0.3-1.8
				c-0.3-1.3-0.3-3,0-4.3c0.3-1.4,0.5-2.8,0.4-4.3c0-0.2,0-0.4-0.1-0.7L163,89.1z"/>
			<path class="st161" d="M144.6,118.8c0.3-0.3,0.5-0.5,0.7-0.8c2-2.5,3.4-5.4,4.2-8.6c0.7-2.8,0.2-6.1,0.1-9
				c-0.1-3.2-0.3-6.4,0.1-9.6c0.5-4,2.3-7.7,3.4-11.6c0.8-3.1,0.6-6.2-3.2-6.5c-3.1-0.2-3.8,2.8-4.9,5.1c-0.8,1.7-1.8,3.3-1.7,5.3
				c0.1,1.4,0.6,2.7,0.5,4.1c-0.3,3.1-2.6,5.2-4.1,7.8c-2.3,3.9-2.7,8.5-3.4,12.9c-0.7,4.2-1.3,8.4-1.7,12.7c-0.1,0.8-1,7.8-0.3,8.1
				c1.5,0.7,2.3,0.8,3.6-0.4c1.5-1.5,1.9-3.7,3-5.4C141.8,121.3,143.3,120.1,144.6,118.8z"/>
			<path class="st162" d="M117.6,182.1C117.6,182.1,117.6,182,117.6,182.1c0.4-0.9-0.1-1.6,0.5-2.4c1.2-1.6,3.2-2.7,4.7-4.1
				c1.6-1.5,3.1-3.1,4.9-4.4c2.1-1.5,4.1-2.9,5.4-5.2c1.4-2.4,2.1-5,2.8-7.7c0.4-1.4,0.8-1.7,1-3.1c0.2-1.4,0.1-2.7,0.1-4.7
				c0,0,0,0,0,0c0-1.5-0.5-2.8-0.4-4.3c0.1-1.5,0.6-3.2,0.2-4.8c-0.3-1.1-1.2-1.5-2-2.1c-2.3-1.7-2-9.6-5.7-8.8
				c-1.8,0.3-3.5,4.7-4.2,6.2c-1.1,2.5-2.8,4.9-3.5,7.6c-0.7,2.4-1.5,5.3-1.1,7.8c0.4,2.3-0.9,5.7-2,7.7c-2.2,4.1-3.9,7.4-3.7,12.1
				c0.1,2.2-0.2,4.3-0.5,6.4c-0.2,1.5-0.7,3.9,0.6,5C115.8,184.4,117.2,183,117.6,182.1z"/>
		</g>
	</g>
	<path class="st7" d="M110.9,122.8c0.2-3.4,0.5-5.9,0.6-7.2c0.1-2.3,0.8-4.3,0.9-6.6c0.3-5,0.4-10,0.6-15c0-7.5,0.7-14.9,0.7-22.4
		c0-3.4-0.6-7.8-0.6-11.2"/>
	<path class="st7" d="M119.7,165.5c0-1-0.2-33.7-0.2-33.7l-0.8-43.5L118,59.4"/>
	<line class="st7" x1="73.1" y1="59.4" x2="82.3" y2="68.5"/>
	<line class="st7" x1="73.1" y1="157.2" x2="82.3" y2="148"/>
</g>
</svg>
