<?xml version="1.0" encoding="utf-8"?>
<!-- Generator: Adobe Illustrator 19.1.0, SVG Export Plug-In . SVG Version: 6.00 Build 0)  -->
<svg version="1.1" id="Capa_1" xmlns="http://www.w3.org/2000/svg" xmlns:xlink="http://www.w3.org/1999/xlink" x="0px" y="0px"
	 viewBox="0 0 231.2 231.2" style="enable-background:new 0 0 231.2 231.2;" xml:space="preserve">
<style type="text/css">
	.st0{fill:#E74C40;stroke:#000000;stroke-width:2;stroke-miterlimit:10;}
	.st1{fill:#BCA26C;stroke:#1D1E1C;stroke-width:2;stroke-miterlimit:10;}
	.st2{fill:#FFFFFF;stroke:#1D1E1C;stroke-width:2;stroke-miterlimit:10;}
	.st3{fill:#DE3A28;stroke:#1D1E1C;stroke-width:2;stroke-miterlimit:10;}
	.st4{fill:#F8EEE1;stroke:#1D1D1B;stroke-width:2;stroke-linecap:round;stroke-linejoin:round;stroke-miterlimit:10;}
	.st5{fill:#CD8C94;stroke:#1D1D1B;stroke-width:2;stroke-linecap:round;stroke-linejoin:round;stroke-miterlimit:10;}
	.st6{fill:#FFC1C8;stroke:#1D1D1B;stroke-width:2;stroke-linecap:round;stroke-linejoin:round;stroke-miterlimit:10;}
	.st7{fill:none;stroke:#1D1D1B;stroke-width:2;stroke-linecap:round;stroke-linejoin:round;stroke-miterlimit:10;}
	.st8{fill:#8DA6A6;stroke:#1E1E1C;stroke-width:2;stroke-linecap:round;stroke-linejoin:round;stroke-miterlimit:10;}
	.st9{fill:#A4C3C6;stroke:#1E1E1C;stroke-width:2;stroke-linecap:round;stroke-linejoin:round;stroke-miterlimit:10;}
	.st10{fill:url(#);}
	.st11{fill:#E4E4E4;stroke:#1D1E1C;stroke-width:2;stroke-linecap:round;stroke-linejoin:round;stroke-miterlimit:10;}
	.st12{fill:#ED7069;stroke:#1D1D1B;stroke-width:2;stroke-linecap:round;stroke-linejoin:round;stroke-miterlimit:10;}
	.st13{fill:#1D508A;}
	.st14{fill:#1D508A;stroke:#1D1D1B;stroke-width:2;stroke-linecap:round;stroke-linejoin:round;stroke-miterlimit:10;}
	.st15{fill:#F1A4AB;stroke:#1D1D1B;stroke-width:2;stroke-linecap:round;stroke-linejoin:round;stroke-miterlimit:10;}
	.st16{fill:#1D1D1B;}
	.st17{fill:#989899;stroke:#1D1D1B;stroke-width:2;stroke-linecap:round;stroke-linejoin:round;stroke-miterlimit:10;}
	.st18{fill:#717171;stroke:#1D1D1B;stroke-width:2;stroke-linecap:round;stroke-linejoin:round;stroke-miterlimit:10;}
	.st19{fill:#BCBABB;stroke:#1D1D1B;stroke-width:2;stroke-linecap:round;stroke-linejoin:round;stroke-miterlimit:10;}
	.st20{fill:#64B5B2;}
	.st21{fill:#1D1E1C;}
	.st22{fill:#549793;}
	.st23{fill:#EEC44D;}
	.st24{fill:#D4AC46;}
	.st25{fill:#3B97D0;}
	.st26{fill:#3586B1;}
	.st27{fill:#E84E42;}
	.st28{fill:#D54037;}
	.st29{fill:#CECECD;stroke:#1D1E1C;stroke-width:2;stroke-linecap:round;stroke-linejoin:round;stroke-miterlimit:10;}
	.st30{fill:none;stroke:#1D1E1C;stroke-width:2;stroke-linecap:round;stroke-linejoin:round;stroke-miterlimit:10;}
	.st31{fill:#FFFFFF;stroke:#1E1E1C;stroke-width:2;stroke-linecap:round;stroke-linejoin:round;stroke-miterlimit:10;}
	.st32{fill:#C1737F;stroke:#1D1E1C;stroke-width:2;stroke-linecap:round;stroke-linejoin:round;stroke-miterlimit:10;}
	.st33{fill:#D4AC46;stroke:#1D1E1C;stroke-width:2;stroke-linecap:round;stroke-linejoin:round;stroke-miterlimit:10;}
	.st34{fill:#EEC44D;stroke:#1D1E1C;stroke-width:2;stroke-linecap:round;stroke-linejoin:round;stroke-miterlimit:10;}
	.st35{fill:#F7F7F5;stroke:#1D1D1B;stroke-width:2;stroke-miterlimit:10;}
	.st36{fill:#C9C8B8;stroke:#1D1D1B;stroke-width:2;stroke-miterlimit:10;}
	.st37{fill:none;stroke:#1D1D1B;stroke-width:2;stroke-miterlimit:10;}
	.st38{fill:#DD3D27;stroke:#1D1D1B;stroke-width:2;stroke-miterlimit:10;}
	.st39{clip-path:url(#SVGID_2_);fill:#FAD14D;stroke:#1D1E1C;stroke-width:2;stroke-miterlimit:10;}
	
		.st40{clip-path:url(#SVGID_2_);fill:#325B59;stroke:#1D1D1B;stroke-width:2;stroke-linecap:round;stroke-linejoin:round;stroke-miterlimit:10;}
	.st41{clip-path:url(#SVGID_2_);}
	.st42{fill:#F7F7F5;stroke:#1D1D1B;stroke-width:2;stroke-linecap:round;stroke-linejoin:round;stroke-miterlimit:10;}
	
		.st43{clip-path:url(#SVGID_2_);fill:#65C1BE;stroke:#1D1D1B;stroke-width:2;stroke-linecap:round;stroke-linejoin:round;stroke-miterlimit:10;}
	
		.st44{clip-path:url(#SVGID_2_);fill:#417C79;stroke:#1D1D1B;stroke-width:2;stroke-linecap:round;stroke-linejoin:round;stroke-miterlimit:10;}
	
		.st45{clip-path:url(#SVGID_2_);fill:#26283D;stroke:#1D1D1B;stroke-width:2;stroke-linecap:round;stroke-linejoin:round;stroke-miterlimit:10;}
	
		.st46{clip-path:url(#SVGID_2_);fill:none;stroke:#1D1D1B;stroke-width:2;stroke-linecap:round;stroke-linejoin:round;stroke-miterlimit:10;}
	
		.st47{clip-path:url(#SVGID_2_);fill:#AD6159;stroke:#1E1E1C;stroke-width:2;stroke-linecap:round;stroke-linejoin:round;stroke-miterlimit:10;}
	
		.st48{clip-path:url(#SVGID_2_);fill:#E88676;stroke:#1E1E1C;stroke-width:2;stroke-linecap:round;stroke-linejoin:round;stroke-miterlimit:10;}
	.st49{opacity:0.63;clip-path:url(#SVGID_2_);}
	.st50{fill:#FFFFFF;}
	.st51{opacity:0.36;fill:#FFFFFF;}
	.st52{opacity:0.23;}
	.st53{opacity:0.23;clip-path:url(#SVGID_2_);}
	.st54{fill:#5F999F;stroke:#1D1E1C;stroke-width:2;stroke-miterlimit:10;}
	.st55{fill:#77C1C5;stroke:#1D1E1C;stroke-width:2;stroke-miterlimit:10;}
	.st56{fill:#FBD943;stroke:#000100;stroke-width:2;stroke-miterlimit:10;}
	.st57{fill:#F1F1F1;stroke:#1D1D1B;stroke-width:2;stroke-miterlimit:10;}
	.st58{fill:#FF5546;stroke:#1D1D1B;stroke-width:2;stroke-linecap:round;stroke-miterlimit:10;}
	.st59{fill:#FF5546;stroke:#1D1D1B;stroke-width:2;stroke-miterlimit:10;}
	.st60{fill:#FFBE4A;stroke:#1E1E1C;stroke-width:2;stroke-linecap:square;stroke-linejoin:bevel;stroke-miterlimit:10;}
	.st61{stroke:#1D1E1C;stroke-width:2;stroke-miterlimit:10;}
	.st62{fill:#DDA345;}
	.st63{fill:#1E1E1C;}
	.st64{fill:#458353;}
	.st65{fill:#CB3524;stroke:#000000;stroke-width:2;stroke-linecap:round;stroke-linejoin:round;stroke-miterlimit:10;}
	.st66{fill:#DC3D26;stroke:#000000;stroke-width:2;stroke-linecap:round;stroke-linejoin:round;stroke-miterlimit:10;}
	.st67{fill:#1E508B;}
	.st68{fill:#E3AA24;stroke:#000000;stroke-width:2;stroke-linecap:round;stroke-linejoin:round;stroke-miterlimit:10;}
	.st69{fill:#3CA3DB;}
	.st70{fill:#E78476;stroke:#000000;stroke-width:2;stroke-linecap:round;stroke-linejoin:round;stroke-miterlimit:10;}
	.st71{fill:#D2756C;}
	.st72{fill:#C0BFBE;stroke:#1D1E1C;stroke-width:2;stroke-linecap:round;stroke-linejoin:round;stroke-miterlimit:10;}
	.st73{fill:#F4F4F2;stroke:#1D1E1C;stroke-width:2;stroke-linecap:round;stroke-linejoin:round;stroke-miterlimit:10;}
	.st74{fill:#FFF6EF;stroke:#1D1E1C;stroke-width:2;stroke-linecap:round;stroke-linejoin:round;stroke-miterlimit:10;}
	.st75{fill:#F3A9A6;}
	.st76{fill:#1EAF9A;}
	.st77{fill:#EE828F;}
	.st78{fill:#A4C3C6;}
	.st79{fill:#FAD04D;}
	.st80{fill:none;stroke:#1D1E1C;stroke-width:2;stroke-miterlimit:10;}
	.st81{fill:#F3A9A6;stroke:#1D1E1C;stroke-width:2;stroke-miterlimit:10;}
	.st82{fill:#FFFFFF;stroke:#1D1D1B;stroke-width:2;stroke-linecap:round;stroke-linejoin:round;stroke-miterlimit:10;}
	.st83{fill:#E2D0B3;stroke:#1D1D1B;stroke-width:2;stroke-linecap:round;stroke-linejoin:round;stroke-miterlimit:10;}
	.st84{fill:#C6B399;stroke:#1D1D1B;stroke-width:2;stroke-linecap:round;stroke-linejoin:round;stroke-miterlimit:10;}
	.st85{fill:#9B9A9A;stroke:#1D1D1B;stroke-width:2;stroke-linecap:round;stroke-linejoin:round;stroke-miterlimit:10;}
	.st86{fill:#B7B3B3;stroke:#1D1D1B;stroke-width:2;stroke-linecap:round;stroke-linejoin:round;stroke-miterlimit:10;}
	.st87{fill:#DADADA;stroke:#1D1D1B;stroke-width:2;stroke-linecap:round;stroke-linejoin:round;stroke-miterlimit:10;}
	.st88{fill:#A6C5C8;stroke:#1D1D1B;stroke-width:2;stroke-linecap:round;stroke-linejoin:round;stroke-miterlimit:10;}
	.st89{fill:#39ADAC;stroke:#1D1D1B;stroke-width:2;stroke-linecap:round;stroke-linejoin:round;stroke-miterlimit:10;}
	.st90{fill:#713662;stroke:#1D1D1B;stroke-width:2;stroke-linecap:round;stroke-linejoin:round;stroke-miterlimit:10;}
	.st91{fill:#363A5D;stroke:#1D1D1B;stroke-width:2;stroke-linecap:round;stroke-linejoin:round;stroke-miterlimit:10;}
	.st92{fill:#FF5546;stroke:#1D1D1B;stroke-width:2;stroke-linecap:round;stroke-linejoin:round;stroke-miterlimit:10;}
	.st93{fill:#DF5165;stroke:#1D1D1B;stroke-width:2;stroke-linecap:round;stroke-linejoin:round;stroke-miterlimit:10;}
	.st94{fill:#00B69E;stroke:#1D1D1B;stroke-width:2;stroke-linecap:round;stroke-linejoin:round;stroke-miterlimit:10;}
	.st95{fill:#FAD14D;stroke:#1D1D1B;stroke-width:2;stroke-linecap:round;stroke-linejoin:round;stroke-miterlimit:10;}
	.st96{fill:#00A9CF;stroke:#1D1D1B;stroke-width:2;stroke-linecap:round;stroke-linejoin:round;stroke-miterlimit:10;}
	.st97{fill:#4EB9AC;stroke:#000100;stroke-width:2;stroke-linecap:round;stroke-linejoin:round;stroke-miterlimit:10;}
	.st98{fill:#4EB9AC;}
	.st99{fill:none;stroke:#000100;stroke-width:2;stroke-linecap:round;stroke-linejoin:round;stroke-miterlimit:10;}
	.st100{fill:#FFFFFF;stroke:#000000;stroke-width:2;stroke-linecap:round;stroke-linejoin:round;stroke-miterlimit:10;}
	.st101{fill:#FFFFFF;stroke:#1D1D1B;stroke-width:2;stroke-miterlimit:10;}
	.st102{fill:#FFFFFF;stroke:#1D1D1B;stroke-width:2;stroke-linecap:round;stroke-miterlimit:10;}
	.st103{fill:#1D1D1B;stroke:#1D1D1B;stroke-width:2;stroke-miterlimit:10;}
	.st104{fill:#1D1D1B;stroke:#FFFFFF;stroke-width:2;stroke-miterlimit:10;}
	.st105{fill:#E1E6E1;stroke:#1D1D1B;stroke-width:2;stroke-linecap:round;stroke-linejoin:round;stroke-miterlimit:10;}
	.st106{fill:none;stroke:#010101;stroke-width:2;stroke-linecap:round;stroke-linejoin:round;stroke-miterlimit:10;}
	.st107{fill:#ECD9DF;stroke:#1D1D1B;stroke-width:2;stroke-linecap:round;stroke-linejoin:round;stroke-miterlimit:10;}
	.st108{stroke:#000000;stroke-width:2;stroke-linecap:round;stroke-linejoin:round;stroke-miterlimit:10;}
	.st109{fill:#B7707A;stroke:#1D1D1B;stroke-width:2;stroke-linecap:round;stroke-linejoin:round;stroke-miterlimit:10;}
	.st110{fill:#E58B95;stroke:#1D1D1B;stroke-width:2;stroke-linecap:round;stroke-linejoin:round;stroke-miterlimit:10;}
	.st111{fill:#68999B;stroke:#1D1D1B;stroke-width:2;stroke-linecap:round;stroke-linejoin:round;stroke-miterlimit:10;}
	.st112{fill:#F2C74E;stroke:#000100;stroke-width:2;stroke-linecap:round;stroke-linejoin:round;stroke-miterlimit:10;}
	.st113{fill:#BC973B;stroke:#000100;stroke-width:2;stroke-linecap:round;stroke-linejoin:round;stroke-miterlimit:10;}
	.st114{fill:#646563;stroke:#1D1D1B;stroke-width:2;stroke-linecap:round;stroke-linejoin:round;stroke-miterlimit:10;}
	.st115{fill:#B6803D;stroke:#1D1D1B;stroke-width:2;stroke-linecap:round;stroke-linejoin:round;stroke-miterlimit:10;}
	.st116{fill:#F6B456;stroke:#1D1D1B;stroke-width:2;stroke-linecap:round;stroke-linejoin:round;stroke-miterlimit:10;}
	.st117{fill:#EC716B;stroke:#1D1D1B;stroke-width:2;stroke-linecap:round;stroke-linejoin:round;stroke-miterlimit:10;}
	.st118{fill:#0B434C;stroke:#1D1D1B;stroke-width:2;stroke-linecap:round;stroke-linejoin:round;stroke-miterlimit:10;}
	.st119{fill:#1D1D1B;stroke:#1D1D1B;stroke-width:2;stroke-linecap:round;stroke-linejoin:round;stroke-miterlimit:10;}
	.st120{fill:#1D1D1B;stroke:#1D1D1B;stroke-miterlimit:10;}
	.st121{fill:#F3A5AC;stroke:#010101;stroke-width:2;stroke-linecap:round;stroke-linejoin:round;stroke-miterlimit:10;}
	.st122{fill:#A6D3B6;stroke:#010101;stroke-width:2;stroke-linecap:round;stroke-linejoin:round;stroke-miterlimit:10;}
	.st123{fill:#A5C4C7;stroke:#010101;stroke-width:2;stroke-linecap:round;stroke-linejoin:round;stroke-miterlimit:10;}
	.st124{fill:#FAD14E;stroke:#010101;stroke-width:2;stroke-linecap:round;stroke-linejoin:round;stroke-miterlimit:10;}
	.st125{fill:#4F79A4;stroke:#1D1E1C;stroke-width:2;stroke-linecap:round;stroke-linejoin:round;stroke-miterlimit:10;}
	.st126{fill:#ED716A;stroke:#1D1E1C;stroke-width:2;stroke-miterlimit:10;}
	.st127{fill:#A8B8DC;stroke:#1D1E1C;stroke-width:2;stroke-linecap:round;stroke-linejoin:round;stroke-miterlimit:10;}
	.st128{fill:#65C0BC;stroke:#1D1E1C;stroke-width:2;stroke-linecap:round;stroke-linejoin:round;stroke-miterlimit:10;}
	.st129{fill:#C2C4C2;stroke:#1D1D1B;stroke-width:2;stroke-linecap:round;stroke-linejoin:round;stroke-miterlimit:10;}
	.st130{fill:#AAB0B5;stroke:#1D1D1B;stroke-width:2;stroke-miterlimit:10;}
	.st131{fill:#D3C2A3;stroke:#1D1D1B;stroke-width:2;stroke-linecap:square;stroke-linejoin:bevel;stroke-miterlimit:10;}
	.st132{stroke:#1D1D1B;stroke-width:2;stroke-miterlimit:10;}
	.st133{fill:#D5DCE4;stroke:#1D1D1B;stroke-width:2;stroke-miterlimit:10;}
	.st134{fill:none;stroke:#FFFFFF;stroke-width:2;stroke-linecap:round;stroke-linejoin:round;stroke-miterlimit:10;}
	.st135{fill:#5080A2;stroke:#1D1D1B;stroke-width:2;stroke-linecap:round;stroke-linejoin:round;stroke-miterlimit:10;}
	.st136{fill:#6094C0;stroke:#1D1D1B;stroke-width:2;stroke-linecap:round;stroke-linejoin:round;stroke-miterlimit:10;}
	.st137{fill:#5688AA;stroke:#1D1D1B;stroke-width:2;stroke-linecap:square;stroke-linejoin:bevel;stroke-miterlimit:10;}
	.st138{fill:#F3C43E;stroke:#1D1D1B;stroke-width:2;stroke-linecap:round;stroke-linejoin:round;stroke-miterlimit:10;}
	.st139{fill:#FABB4B;stroke:#1D1D1B;stroke-width:2;stroke-linecap:round;stroke-linejoin:round;stroke-miterlimit:10;}
	.st140{fill:#FFFFFF;stroke:#1D1D1B;stroke-width:2;stroke-linecap:square;stroke-linejoin:bevel;stroke-miterlimit:10;}
	.st141{fill:#61B675;stroke:#1D1D1B;stroke-width:2;stroke-linecap:square;stroke-linejoin:bevel;stroke-miterlimit:10;}
	.st142{fill:#37AB72;stroke:#1D1D1B;stroke-width:2;stroke-linecap:round;stroke-linejoin:round;stroke-miterlimit:10;}
	.st143{fill:none;stroke:#1D1D1B;stroke-width:2;stroke-linecap:round;stroke-miterlimit:10;}
	.st144{fill:#EDDEBC;stroke:#1D1D1B;stroke-width:2;stroke-linecap:square;stroke-linejoin:bevel;stroke-miterlimit:10;}
	.st145{fill:none;}
	.st146{fill:#52B47D;stroke:#1D1D1B;stroke-width:2;stroke-linecap:round;stroke-linejoin:round;stroke-miterlimit:10;}
	.st147{fill:#2E8D5C;stroke:#1D1D1B;stroke-width:2;stroke-linecap:round;stroke-linejoin:round;stroke-miterlimit:10;}
	.st148{opacity:0.25;fill:none;stroke:#FFFFFF;stroke-width:2;stroke-linecap:round;stroke-linejoin:round;stroke-miterlimit:10;}
	.st149{fill:none;stroke:#1D1D1B;stroke-width:2;stroke-linecap:square;stroke-linejoin:bevel;stroke-miterlimit:10;}
	.st150{fill:#E9554B;stroke:#1D1D1B;stroke-width:2;stroke-miterlimit:10;}
	.st151{fill:#E9524B;stroke:#1D1D1B;stroke-width:2;stroke-linecap:round;stroke-linejoin:round;stroke-miterlimit:10;}
	.st152{fill:#EB6661;stroke:#1D1D1B;stroke-width:2;stroke-miterlimit:10;}
	.st153{opacity:0.2;fill:#1D1D1B;}
	
		.st154{opacity:9.000000e-02;fill:none;stroke:#FFFFFF;stroke-width:2;stroke-linecap:round;stroke-linejoin:round;stroke-miterlimit:10;}
	.st155{fill:#FAD04E;stroke:#1D1D1B;stroke-width:2;stroke-linecap:round;stroke-linejoin:round;stroke-miterlimit:10;}
	.st156{fill:#E5BD4A;stroke:#1D1D1B;stroke-width:2;stroke-linecap:round;stroke-linejoin:round;stroke-miterlimit:10;}
	.st157{fill:#B68235;stroke:#1D1D1B;stroke-width:2;stroke-linecap:round;stroke-linejoin:round;stroke-miterlimit:10;}
	.st158{fill:#D2BFB9;stroke:#1D1D1B;stroke-width:2;stroke-linecap:round;stroke-linejoin:round;stroke-miterlimit:10;}
	.st159{fill:#DADAD2;}
	.st160{clip-path:url(#SVGID_6_);}
	.st161{fill:#308C89;}
	.st162{fill:#333333;}
	.st163{fill:#F0584D;}
	.st164{fill:#FAD14D;}
	.st165{fill:#3CA4DC;}
	.st166{clip-path:url(#SVGID_8_);}
	.st167{fill:#D8B144;}
	.st168{fill:#3290BA;}
	.st169{fill:#D84B48;}
	.st170{fill:#E6DDEE;stroke:#1D1E1C;stroke-width:2;stroke-linecap:square;stroke-linejoin:bevel;stroke-miterlimit:10;}
	.st171{fill:#F1F1F1;stroke:#1D1E1C;stroke-width:2;stroke-miterlimit:10;}
	.st172{fill:#F3BC12;stroke:#010101;stroke-width:2;stroke-linecap:round;stroke-linejoin:round;stroke-miterlimit:10;}
	.st173{fill:#FCD28C;stroke:#1D1E1C;stroke-width:2;stroke-linecap:round;stroke-linejoin:round;stroke-miterlimit:10;}
	.st174{fill:#ED706A;stroke:#1D1E1C;stroke-width:2;stroke-linecap:round;stroke-linejoin:round;stroke-miterlimit:10;}
	.st175{fill:#CB615E;stroke:#1D1E1C;stroke-width:2;stroke-linecap:round;stroke-linejoin:round;stroke-miterlimit:10;}
	.st176{fill:#F7CCC1;stroke:#1D1D1B;stroke-width:2;stroke-linecap:round;stroke-linejoin:round;stroke-miterlimit:10;}
	.st177{fill:#FF4B3C;stroke:#1D1E1C;stroke-width:2;stroke-linecap:round;stroke-linejoin:round;stroke-miterlimit:10;}
	.st178{fill:#F0F0F0;stroke:#1D1E1C;stroke-width:2;stroke-linecap:round;stroke-linejoin:round;stroke-miterlimit:10;}
	.st179{fill:#F9EFE2;stroke:#1D1E1C;stroke-width:2;stroke-linecap:round;stroke-linejoin:round;stroke-miterlimit:10;}
	.st180{fill:#9AC7AA;stroke:#1D1D1B;stroke-width:2;stroke-linecap:round;stroke-linejoin:round;stroke-miterlimit:10;}
	.st181{fill:#A2CFD6;stroke:#1D1D1B;stroke-width:2;stroke-linecap:round;stroke-linejoin:round;stroke-miterlimit:10;}
	.st182{fill:#E799A0;}
	.st183{opacity:0.41;fill:#A2CFD6;}
</style>
<g>
	<g>
		<path class="st97" d="M122.4,52.5h-3H97c0,0,15.2,3.4,15.2,19.4l8.5-0.9h0.5l8.5,0.9c0-16,15.2-19.4,15.2-19.4H122.4z"/>
		<path class="st97" d="M129.6,70.2h-17.4c0,0-1.3,7.7-10.9,7.7h18.5h2.3h18.5C130.9,78,129.6,70.2,129.6,70.2z"/>
		<path class="st97" d="M156.5,125.9c0-6.6-2.6-12.8-7.1-17.7h0.1c0,0-9.5-10.2-9.5-30.3h-38.1c0,20.1-9.5,30.3-9.5,30.3h0.1
			c-4.5,4.9-7.1,11.1-7.1,17.7c0,9.6,5.5,18.1,14,23.5c11.4,11.1-1.6,14.9-1.6,14.9h22.9h1.4h22.9c0,0-15.5-4.6,2.3-18.3h-0.2
			C152.9,140.8,156.5,133.7,156.5,125.9z"/>
		<g>
			<path class="st98" d="M143.8,79.3c0,1.8-2.6,3.3-5.7,3.3h-34.5c-3.1,0-5.7-1.5-5.7-3.3s2.6-3.3,5.7-3.3h34.5
				C141.3,76,143.8,77.5,143.8,79.3z"/>
			<path class="st99" d="M143.8,79.3c0,1.8-2.6,3.3-5.7,3.3h-34.5c-3.1,0-5.7-1.5-5.7-3.3s2.6-3.3,5.7-3.3h34.5
				C141.3,76,143.8,77.5,143.8,79.3z"/>
		</g>
		<line class="st99" x1="100.6" y1="90.3" x2="141.3" y2="90.3"/>
		<rect x="97.7" y="164.3" class="st97" width="47" height="6.3"/>
		<line class="st99" x1="104" y1="158.3" x2="138.6" y2="158.3"/>
	</g>
	<g>
		<path class="st50" d="M95.5,91.1c-0.1,0-0.2,0-0.3-0.1L94.9,91c-0.2-0.1-0.5-0.3-0.6-0.5c-0.1-0.2-0.1-0.5,0-0.8l1.8-4.8
			c0.1-1.3,0.3-2.5,0.5-3.3c0.1-0.4,0.2-0.8,0.3-1.2c-0.2-0.3-0.3-0.5-0.4-0.8c-0.7-0.3-1.4-0.6-2.1-0.9c-0.9-0.5-2-1.1-3.1-1.9
			l-3.9-1.4c-0.2-0.1-0.5-0.3-0.6-0.5c-0.1-0.2-0.1-0.5,0-0.8l0.1-0.3c0.1-0.4,0.5-0.7,0.9-0.7c0.1,0,0.2,0,0.3,0.1l3.9,1.4
			c1.3,0.1,2.6,0.3,3.6,0.5c0.9,0.2,1.9,0.5,2.8,0.8c0,0,0,0,0,0c0.3-0.6,0.5-1.1,0.8-1.7c0.4-0.8,0.9-1.7,1.6-2.7l1.8-5
			c0.1-0.2,0.3-0.5,0.5-0.6c0.1-0.1,0.3-0.1,0.4-0.1c0.1,0,0.2,0,0.3,0.1l0.3,0.1c0.5,0.2,0.8,0.8,0.6,1.3l-1.6,4.4
			c0,1.4-0.3,2.7-0.5,3.8c-0.1,0.6-0.3,1.2-0.5,1.8c0.4,0.2,0.7,0.3,1.1,0.5c0.9,0.4,2,1,3.1,1.8l4.3,1.5c0.5,0.2,0.8,0.8,0.6,1.3
			l-0.1,0.3c-0.1,0.3-0.3,0.5-0.5,0.6c-0.1,0.1-0.3,0.1-0.4,0.1c-0.1,0-0.2,0-0.3-0.1l-4.2-1.5c-1.4-0.1-2.7-0.3-3.6-0.5
			c-0.3-0.1-0.6-0.1-0.8-0.2c-0.2,0.1-0.4,0.3-0.6,0.4c-0.2,0.5-0.4,0.9-0.7,1.4c-0.5,0.9-1.1,2-1.9,3l-1.7,4.6
			C96.3,90.9,95.9,91.1,95.5,91.1z"/>
		<path d="M103.7,66.8l0.3,0.1l-1.7,4.6c0,1.3-0.2,2.5-0.5,3.7c-0.2,0.8-0.4,1.6-0.7,2.4c0.1,0.1,0.1,0.2,0.2,0.3
			c0.5,0.2,1.1,0.5,1.6,0.8c1,0.5,2.1,1.1,3.1,1.8l4.4,1.6l-0.1,0.3l-4.3-1.5c-1.3,0-2.4-0.3-3.6-0.5c-0.5-0.1-0.9-0.2-1.4-0.3
			c-0.3,0.3-0.6,0.6-1,0.7c-0.3,0.6-0.5,1.1-0.8,1.7c-0.5,1-1.1,2-1.9,3l-1.8,4.8L95.2,90l1.8-4.9c0.1-1.2,0.3-2.2,0.5-3.3
			c0.1-0.6,0.3-1.1,0.4-1.6c-0.3-0.3-0.5-0.7-0.6-1.2c0-0.1,0-0.1,0-0.2c-0.9-0.3-1.7-0.7-2.5-1.1c-1.1-0.5-2.1-1.1-3.1-1.9l-4-1.4
			l0.1-0.3l4.1,1.4c1.2,0,2.4,0.3,3.6,0.5c1,0.2,2.1,0.5,3.1,0.9c0.2-0.1,0.4-0.2,0.6-0.2c0,0,0,0,0.1,0c0.3-0.7,0.6-1.4,1-2.1
			c0.5-0.9,1-1.8,1.6-2.7L103.7,66.8 M103.7,64.8c-0.3,0-0.6,0.1-0.8,0.2c-0.5,0.2-0.9,0.6-1,1.1l-1.8,4.9c-0.7,1-1.2,1.9-1.6,2.7
			c-0.2,0.3-0.3,0.6-0.5,0.9c-0.7-0.2-1.4-0.4-2.1-0.5c-1-0.2-2.2-0.5-3.6-0.5l-3.8-1.4c-0.2-0.1-0.4-0.1-0.7-0.1
			c-0.8,0-1.6,0.5-1.9,1.3l-0.1,0.3c-0.2,0.5-0.1,1.1,0.1,1.5s0.6,0.8,1.1,1l3.8,1.3c1.1,0.8,2.3,1.4,3.2,1.9
			c0.6,0.3,1.1,0.5,1.7,0.8c0,0.1,0.1,0.1,0.1,0.2c-0.1,0.3-0.1,0.6-0.2,0.8c-0.2,0.9-0.4,2.1-0.5,3.4l-1.7,4.7
			c-0.2,0.5-0.2,1.1,0.1,1.5c0.2,0.5,0.6,0.9,1.1,1l0.3,0.1c0.2,0.1,0.5,0.1,0.7,0.1c0.8,0,1.6-0.5,1.9-1.3l1.6-4.5
			c0.8-1.1,1.5-2.2,1.9-3c0.2-0.4,0.4-0.7,0.6-1.1c0,0,0,0,0,0c0.1,0,0.3,0.1,0.4,0.1c1,0.2,2.3,0.5,3.7,0.5l4.1,1.4
			c0.2,0.1,0.4,0.1,0.7,0.1c0.3,0,0.6-0.1,0.9-0.2c0.5-0.2,0.8-0.6,1-1.1l0.1-0.3c0.4-1-0.2-2.2-1.2-2.5l-4.2-1.5
			c-1.1-0.8-2.2-1.4-3.1-1.8c-0.1-0.1-0.2-0.1-0.3-0.2c0.1-0.4,0.2-0.7,0.3-1c0.2-1.1,0.5-2.4,0.6-3.8l1.6-4.3
			c0.4-1-0.2-2.2-1.2-2.6l-0.3-0.1C104.2,64.9,104,64.8,103.7,64.8L103.7,64.8z"/>
	</g>
	<g>
		<path class="st50" d="M146.6,137.2c-0.2,0-0.5-0.1-0.6-0.2l-0.3-0.2c-0.2-0.2-0.3-0.4-0.4-0.7c0-0.3,0.1-0.5,0.2-0.7l4.5-5.3
			c0.7-1.6,1.5-2.9,2.2-3.9c0.3-0.5,0.7-1,1-1.5c-0.1-0.5-0.2-0.9-0.1-1.4c-0.8-0.7-1.6-1.5-2.3-2.2c-0.9-1-2.1-2.3-3.1-3.8
			l-4.3-3.6c-0.2-0.2-0.3-0.4-0.4-0.7s0.1-0.5,0.2-0.7l0.2-0.3c0.2-0.2,0.5-0.4,0.8-0.4c0.2,0,0.5,0.1,0.6,0.2l4.3,3.6
			c1.7,0.7,3.1,1.6,4.2,2.3c1.1,0.7,2.2,1.5,3.3,2.3c0.1,0,0.2,0,0.3,0c0.6-0.7,1.2-1.2,1.9-1.8c0.8-0.8,2-1.7,3.3-2.6l4.7-5.5
			c0.2-0.2,0.4-0.3,0.7-0.3c0,0,0.1,0,0.1,0c0.2,0,0.5,0.1,0.6,0.2l0.3,0.2c0.4,0.4,0.5,1,0.1,1.4l-4.1,4.8
			c-0.7,1.7-1.6,3.2-2.4,4.5c-0.5,0.8-1,1.5-1.6,2.3c0.5,0.4,0.9,0.9,1.3,1.3c0.9,1,2,2.3,3,3.7l4.7,3.9c0.4,0.4,0.5,1,0.1,1.4
			l-0.2,0.3c-0.2,0.2-0.4,0.3-0.7,0.4c0,0-0.1,0-0.1,0c-0.2,0-0.5-0.1-0.6-0.2l-4.6-3.8c-1.7-0.7-3.2-1.6-4.3-2.3
			c-0.4-0.2-0.7-0.5-1.1-0.7c-0.3,0.1-0.7,0.2-1.1,0.2c-0.5,0.5-1,1-1.6,1.5c-1,0.9-2.3,2-3.8,2.9l-4.3,5.1
			C147.2,137.1,146.9,137.2,146.6,137.2z"/>
		<path d="M167.7,110.8l0.3,0.2l-4.2,5c-0.6,1.6-1.5,3.1-2.4,4.4c-0.6,0.9-1.3,1.8-1.9,2.7c0,0.2,0.1,0.3,0.1,0.5
			c0.6,0.5,1.1,1.1,1.7,1.7c1.1,1.1,2.1,2.3,3,3.7l4.8,4l-0.2,0.3l-4.7-3.9c-1.5-0.6-2.9-1.4-4.3-2.3c-0.5-0.3-1-0.7-1.5-1
			c-0.4,0.2-0.9,0.4-1.4,0.4c-0.1,0-0.1,0-0.2,0c-0.6,0.6-1.2,1.2-1.8,1.8c-1.2,1-2.4,2-3.8,2.9l-4.4,5.2l-0.3-0.2l4.6-5.4
			c0.6-1.4,1.4-2.7,2.2-3.9c0.4-0.6,0.9-1.2,1.3-1.8c-0.2-0.5-0.3-1.1-0.2-1.7c0-0.1,0-0.2,0.1-0.2c-0.9-0.8-1.8-1.7-2.7-2.6
			c-1.1-1.2-2.1-2.4-3-3.8l-4.4-3.7l0.2-0.3l4.5,3.7c1.5,0.6,2.9,1.4,4.2,2.3c1.2,0.8,2.4,1.6,3.5,2.5c0.1,0,0.2,0,0.3,0
			c0.2,0,0.4,0,0.6,0.1c0,0,0,0,0.1,0c0.7-0.7,1.4-1.4,2.2-2.1c1-0.9,2.1-1.8,3.3-2.6L167.7,110.8 M167.7,108.8c-0.1,0-0.1,0-0.2,0
			c-0.5,0-1,0.3-1.4,0.7l-4.6,5.4c-1.3,0.9-2.4,1.8-3.3,2.6c-0.5,0.4-0.9,0.9-1.4,1.3c-0.9-0.7-1.9-1.4-2.8-2
			c-1.1-0.7-2.6-1.6-4.3-2.3l-4.2-3.5c-0.4-0.3-0.8-0.5-1.3-0.5c-0.6,0-1.1,0.2-1.5,0.7l-0.2,0.3c-0.3,0.4-0.5,0.9-0.5,1.5
			c0,0.5,0.3,1,0.7,1.4l4.2,3.5c1,1.5,2.2,2.8,3.1,3.8c0.6,0.7,1.3,1.3,2,2c0,0.3,0,0.5,0.1,0.8c-0.3,0.4-0.5,0.8-0.8,1.1
			c-0.7,1-1.5,2.4-2.2,4l-4.4,5.1c-0.3,0.4-0.5,0.9-0.5,1.5c0,0.5,0.3,1,0.7,1.4l0.3,0.2c0.4,0.3,0.8,0.5,1.3,0.5
			c0.6,0,1.1-0.2,1.5-0.7l4.2-4.9c1.5-1,2.8-2.1,3.8-2.9c0.5-0.4,0.9-0.8,1.4-1.3c0.2,0,0.3-0.1,0.5-0.1c0.2,0.2,0.5,0.3,0.7,0.5
			c1.1,0.7,2.6,1.6,4.3,2.4l4.5,3.7c0.4,0.3,0.8,0.5,1.3,0.5c0.1,0,0.1,0,0.2,0c0.5,0,1-0.3,1.4-0.7l0.2-0.3
			c0.7-0.9,0.6-2.1-0.3-2.8l-4.6-3.8c-1-1.5-2.1-2.8-3-3.7c-0.2-0.3-0.5-0.5-0.7-0.8c0.4-0.5,0.8-1.1,1.1-1.6
			c0.8-1.3,1.7-2.7,2.4-4.5l4-4.7c0.7-0.8,0.6-2.1-0.2-2.8l-0.3-0.2C168.7,109,168.2,108.8,167.7,108.8L167.7,108.8z"/>
	</g>
	<ellipse class="st100" cx="95.4" cy="126.7" rx="5.7" ry="9.8"/>
</g>
</svg>
