<?xml version="1.0" encoding="utf-8"?>
<!-- Generator: Adobe Illustrator 19.1.0, SVG Export Plug-In . SVG Version: 6.00 Build 0)  -->
<svg version="1.1" id="Capa_1" xmlns="http://www.w3.org/2000/svg" xmlns:xlink="http://www.w3.org/1999/xlink" x="0px" y="0px"
	 viewBox="0 0 231.2 231.2" style="enable-background:new 0 0 231.2 231.2;" xml:space="preserve">
<style type="text/css">
	.st0{fill:none;}
	.st1{fill:#DC3D24;stroke:#010101;stroke-width:2;stroke-linecap:square;stroke-linejoin:bevel;stroke-miterlimit:10;}
	.st2{fill:none;stroke:#010101;stroke-width:2;stroke-linecap:square;stroke-linejoin:bevel;stroke-miterlimit:10;}
	.st3{fill:#E74C40;stroke:#000000;stroke-width:2;stroke-miterlimit:10;}
	.st4{fill:#BCA26C;stroke:#1D1E1C;stroke-width:2;stroke-miterlimit:10;}
	.st5{fill:#FFFFFF;stroke:#1D1E1C;stroke-width:2;stroke-miterlimit:10;}
	.st6{fill:#DE3A28;stroke:#1D1E1C;stroke-width:2;stroke-miterlimit:10;}
	.st7{fill:#F8EEE1;stroke:#1D1D1B;stroke-width:2;stroke-linecap:round;stroke-linejoin:round;stroke-miterlimit:10;}
	.st8{fill:#CD8C94;stroke:#1D1D1B;stroke-width:2;stroke-linecap:round;stroke-linejoin:round;stroke-miterlimit:10;}
	.st9{fill:#FFC1C8;stroke:#1D1D1B;stroke-width:2;stroke-linecap:round;stroke-linejoin:round;stroke-miterlimit:10;}
	.st10{fill:none;stroke:#1D1D1B;stroke-width:2;stroke-linecap:round;stroke-linejoin:round;stroke-miterlimit:10;}
	.st11{fill:#8DA6A6;stroke:#1E1E1C;stroke-width:2;stroke-linecap:round;stroke-linejoin:round;stroke-miterlimit:10;}
	.st12{fill:#A4C3C6;stroke:#1E1E1C;stroke-width:2;stroke-linecap:round;stroke-linejoin:round;stroke-miterlimit:10;}
	.st13{fill:url(#);}
	.st14{fill:#E4E4E4;stroke:#1D1E1C;stroke-width:2;stroke-linecap:round;stroke-linejoin:round;stroke-miterlimit:10;}
	.st15{fill:#ED7069;stroke:#1D1D1B;stroke-width:2;stroke-linecap:round;stroke-linejoin:round;stroke-miterlimit:10;}
	.st16{fill:#1D508A;}
	.st17{fill:#1D508A;stroke:#1D1D1B;stroke-width:2;stroke-linecap:round;stroke-linejoin:round;stroke-miterlimit:10;}
	.st18{fill:#F1A4AB;stroke:#1D1D1B;stroke-width:2;stroke-linecap:round;stroke-linejoin:round;stroke-miterlimit:10;}
	.st19{fill:#1D1D1B;}
	.st20{fill:#989899;stroke:#1D1D1B;stroke-width:2;stroke-linecap:round;stroke-linejoin:round;stroke-miterlimit:10;}
	.st21{fill:#717171;stroke:#1D1D1B;stroke-width:2;stroke-linecap:round;stroke-linejoin:round;stroke-miterlimit:10;}
	.st22{fill:#BCBABB;stroke:#1D1D1B;stroke-width:2;stroke-linecap:round;stroke-linejoin:round;stroke-miterlimit:10;}
	.st23{fill:#64B5B2;}
	.st24{fill:#1D1E1C;}
	.st25{fill:#549793;}
	.st26{fill:#EEC44D;}
	.st27{fill:#D4AC46;}
	.st28{fill:#3B97D0;}
	.st29{fill:#3586B1;}
	.st30{fill:#E84E42;}
	.st31{fill:#D54037;}
	.st32{fill:#CECECD;stroke:#1D1E1C;stroke-width:2;stroke-linecap:round;stroke-linejoin:round;stroke-miterlimit:10;}
	.st33{fill:none;stroke:#1D1E1C;stroke-width:2;stroke-linecap:round;stroke-linejoin:round;stroke-miterlimit:10;}
	.st34{fill:#FFFFFF;stroke:#1E1E1C;stroke-width:2;stroke-linecap:round;stroke-linejoin:round;stroke-miterlimit:10;}
	.st35{fill:#C1737F;stroke:#1D1E1C;stroke-width:2;stroke-linecap:round;stroke-linejoin:round;stroke-miterlimit:10;}
	.st36{fill:#D4AC46;stroke:#1D1E1C;stroke-width:2;stroke-linecap:round;stroke-linejoin:round;stroke-miterlimit:10;}
	.st37{fill:#EEC44D;stroke:#1D1E1C;stroke-width:2;stroke-linecap:round;stroke-linejoin:round;stroke-miterlimit:10;}
	.st38{fill:#F7F7F5;stroke:#1D1D1B;stroke-width:2;stroke-miterlimit:10;}
	.st39{fill:#C9C8B8;stroke:#1D1D1B;stroke-width:2;stroke-miterlimit:10;}
	.st40{fill:none;stroke:#1D1D1B;stroke-width:2;stroke-miterlimit:10;}
	.st41{fill:#DD3D27;stroke:#1D1D1B;stroke-width:2;stroke-miterlimit:10;}
	.st42{clip-path:url(#SVGID_2_);fill:#FAD14D;stroke:#1D1E1C;stroke-width:2;stroke-miterlimit:10;}
	
		.st43{clip-path:url(#SVGID_2_);fill:#325B59;stroke:#1D1D1B;stroke-width:2;stroke-linecap:round;stroke-linejoin:round;stroke-miterlimit:10;}
	.st44{clip-path:url(#SVGID_2_);}
	.st45{fill:#F7F7F5;stroke:#1D1D1B;stroke-width:2;stroke-linecap:round;stroke-linejoin:round;stroke-miterlimit:10;}
	
		.st46{clip-path:url(#SVGID_2_);fill:#65C1BE;stroke:#1D1D1B;stroke-width:2;stroke-linecap:round;stroke-linejoin:round;stroke-miterlimit:10;}
	
		.st47{clip-path:url(#SVGID_2_);fill:#417C79;stroke:#1D1D1B;stroke-width:2;stroke-linecap:round;stroke-linejoin:round;stroke-miterlimit:10;}
	
		.st48{clip-path:url(#SVGID_2_);fill:#26283D;stroke:#1D1D1B;stroke-width:2;stroke-linecap:round;stroke-linejoin:round;stroke-miterlimit:10;}
	
		.st49{clip-path:url(#SVGID_2_);fill:none;stroke:#1D1D1B;stroke-width:2;stroke-linecap:round;stroke-linejoin:round;stroke-miterlimit:10;}
	
		.st50{clip-path:url(#SVGID_2_);fill:#AD6159;stroke:#1E1E1C;stroke-width:2;stroke-linecap:round;stroke-linejoin:round;stroke-miterlimit:10;}
	
		.st51{clip-path:url(#SVGID_2_);fill:#E88676;stroke:#1E1E1C;stroke-width:2;stroke-linecap:round;stroke-linejoin:round;stroke-miterlimit:10;}
	.st52{opacity:0.63;clip-path:url(#SVGID_2_);}
	.st53{fill:#FFFFFF;}
	.st54{opacity:0.36;fill:#FFFFFF;}
	.st55{opacity:0.23;}
	.st56{opacity:0.23;clip-path:url(#SVGID_2_);}
	.st57{fill:#5F999F;stroke:#1D1E1C;stroke-width:2;stroke-miterlimit:10;}
	.st58{fill:#77C1C5;stroke:#1D1E1C;stroke-width:2;stroke-miterlimit:10;}
	.st59{fill:#FBD943;stroke:#000100;stroke-width:2;stroke-miterlimit:10;}
	.st60{fill:#F1F1F1;stroke:#1D1D1B;stroke-width:2;stroke-miterlimit:10;}
	.st61{fill:#FF5546;stroke:#1D1D1B;stroke-width:2;stroke-linecap:round;stroke-miterlimit:10;}
	.st62{fill:#FF5546;stroke:#1D1D1B;stroke-width:2;stroke-miterlimit:10;}
	.st63{fill:#FFBE4A;stroke:#1E1E1C;stroke-width:2;stroke-linecap:square;stroke-linejoin:bevel;stroke-miterlimit:10;}
	.st64{stroke:#1D1E1C;stroke-width:2;stroke-miterlimit:10;}
	.st65{fill:#DDA345;}
	.st66{fill:#1E1E1C;}
	.st67{fill:#458353;}
	.st68{fill:#CB3524;stroke:#000000;stroke-width:2;stroke-linecap:round;stroke-linejoin:round;stroke-miterlimit:10;}
	.st69{fill:#DC3D26;stroke:#000000;stroke-width:2;stroke-linecap:round;stroke-linejoin:round;stroke-miterlimit:10;}
	.st70{fill:#1E508B;}
	.st71{fill:#E3AA24;stroke:#000000;stroke-width:2;stroke-linecap:round;stroke-linejoin:round;stroke-miterlimit:10;}
	.st72{fill:#3CA3DB;}
	.st73{fill:#E78476;stroke:#000000;stroke-width:2;stroke-linecap:round;stroke-linejoin:round;stroke-miterlimit:10;}
	.st74{fill:#D2756C;}
	.st75{fill:#C0BFBE;stroke:#1D1E1C;stroke-width:2;stroke-linecap:round;stroke-linejoin:round;stroke-miterlimit:10;}
	.st76{fill:#F4F4F2;stroke:#1D1E1C;stroke-width:2;stroke-linecap:round;stroke-linejoin:round;stroke-miterlimit:10;}
	.st77{fill:#FFF6EF;stroke:#1D1E1C;stroke-width:2;stroke-linecap:round;stroke-linejoin:round;stroke-miterlimit:10;}
	.st78{fill:#F3A9A6;}
	.st79{fill:#1EAF9A;}
	.st80{fill:#EE828F;}
	.st81{fill:#A4C3C6;}
	.st82{fill:#FAD04D;}
	.st83{fill:none;stroke:#1D1E1C;stroke-width:2;stroke-miterlimit:10;}
	.st84{fill:#F3A9A6;stroke:#1D1E1C;stroke-width:2;stroke-miterlimit:10;}
	.st85{fill:#FFFFFF;stroke:#1D1D1B;stroke-width:2;stroke-linecap:round;stroke-linejoin:round;stroke-miterlimit:10;}
	.st86{fill:#E2D0B3;stroke:#1D1D1B;stroke-width:2;stroke-linecap:round;stroke-linejoin:round;stroke-miterlimit:10;}
	.st87{fill:#C6B399;stroke:#1D1D1B;stroke-width:2;stroke-linecap:round;stroke-linejoin:round;stroke-miterlimit:10;}
	.st88{fill:#9B9A9A;stroke:#1D1D1B;stroke-width:2;stroke-linecap:round;stroke-linejoin:round;stroke-miterlimit:10;}
	.st89{fill:#B7B3B3;stroke:#1D1D1B;stroke-width:2;stroke-linecap:round;stroke-linejoin:round;stroke-miterlimit:10;}
	.st90{fill:#DADADA;stroke:#1D1D1B;stroke-width:2;stroke-linecap:round;stroke-linejoin:round;stroke-miterlimit:10;}
	.st91{fill:#A6C5C8;stroke:#1D1D1B;stroke-width:2;stroke-linecap:round;stroke-linejoin:round;stroke-miterlimit:10;}
	.st92{fill:#39ADAC;stroke:#1D1D1B;stroke-width:2;stroke-linecap:round;stroke-linejoin:round;stroke-miterlimit:10;}
	.st93{fill:#713662;stroke:#1D1D1B;stroke-width:2;stroke-linecap:round;stroke-linejoin:round;stroke-miterlimit:10;}
	.st94{fill:#363A5D;stroke:#1D1D1B;stroke-width:2;stroke-linecap:round;stroke-linejoin:round;stroke-miterlimit:10;}
	.st95{fill:#FF5546;stroke:#1D1D1B;stroke-width:2;stroke-linecap:round;stroke-linejoin:round;stroke-miterlimit:10;}
	.st96{fill:#DF5165;stroke:#1D1D1B;stroke-width:2;stroke-linecap:round;stroke-linejoin:round;stroke-miterlimit:10;}
	.st97{fill:#00B69E;stroke:#1D1D1B;stroke-width:2;stroke-linecap:round;stroke-linejoin:round;stroke-miterlimit:10;}
	.st98{fill:#FAD14D;stroke:#1D1D1B;stroke-width:2;stroke-linecap:round;stroke-linejoin:round;stroke-miterlimit:10;}
	.st99{fill:#00A9CF;stroke:#1D1D1B;stroke-width:2;stroke-linecap:round;stroke-linejoin:round;stroke-miterlimit:10;}
	.st100{fill:#4EB9AC;stroke:#000100;stroke-width:2;stroke-linecap:round;stroke-linejoin:round;stroke-miterlimit:10;}
	.st101{fill:#4EB9AC;}
	.st102{fill:none;stroke:#000100;stroke-width:2;stroke-linecap:round;stroke-linejoin:round;stroke-miterlimit:10;}
	.st103{fill:#FFFFFF;stroke:#000000;stroke-width:2;stroke-linecap:round;stroke-linejoin:round;stroke-miterlimit:10;}
	.st104{fill:#FFFFFF;stroke:#1D1D1B;stroke-width:2;stroke-miterlimit:10;}
	.st105{fill:#FFFFFF;stroke:#1D1D1B;stroke-width:2;stroke-linecap:round;stroke-miterlimit:10;}
	.st106{fill:#1D1D1B;stroke:#1D1D1B;stroke-width:2;stroke-miterlimit:10;}
	.st107{fill:#1D1D1B;stroke:#FFFFFF;stroke-width:2;stroke-miterlimit:10;}
	.st108{fill:#E1E6E1;stroke:#1D1D1B;stroke-width:2;stroke-linecap:round;stroke-linejoin:round;stroke-miterlimit:10;}
	.st109{fill:none;stroke:#010101;stroke-width:2;stroke-linecap:round;stroke-linejoin:round;stroke-miterlimit:10;}
	.st110{fill:#ECD9DF;stroke:#1D1D1B;stroke-width:2;stroke-linecap:round;stroke-linejoin:round;stroke-miterlimit:10;}
	.st111{stroke:#000000;stroke-width:2;stroke-linecap:round;stroke-linejoin:round;stroke-miterlimit:10;}
	.st112{fill:#B7707A;stroke:#1D1D1B;stroke-width:2;stroke-linecap:round;stroke-linejoin:round;stroke-miterlimit:10;}
	.st113{fill:#E58B95;stroke:#1D1D1B;stroke-width:2;stroke-linecap:round;stroke-linejoin:round;stroke-miterlimit:10;}
	.st114{fill:#68999B;stroke:#1D1D1B;stroke-width:2;stroke-linecap:round;stroke-linejoin:round;stroke-miterlimit:10;}
	.st115{fill:#F2C74E;stroke:#000100;stroke-width:2;stroke-linecap:round;stroke-linejoin:round;stroke-miterlimit:10;}
	.st116{fill:#BC973B;stroke:#000100;stroke-width:2;stroke-linecap:round;stroke-linejoin:round;stroke-miterlimit:10;}
	.st117{fill:#646563;stroke:#1D1D1B;stroke-width:2;stroke-linecap:round;stroke-linejoin:round;stroke-miterlimit:10;}
	.st118{fill:#B6803D;stroke:#1D1D1B;stroke-width:2;stroke-linecap:round;stroke-linejoin:round;stroke-miterlimit:10;}
	.st119{fill:#F6B456;stroke:#1D1D1B;stroke-width:2;stroke-linecap:round;stroke-linejoin:round;stroke-miterlimit:10;}
	.st120{fill:#EC716B;stroke:#1D1D1B;stroke-width:2;stroke-linecap:round;stroke-linejoin:round;stroke-miterlimit:10;}
	.st121{fill:#0B434C;stroke:#1D1D1B;stroke-width:2;stroke-linecap:round;stroke-linejoin:round;stroke-miterlimit:10;}
	.st122{fill:#1D1D1B;stroke:#1D1D1B;stroke-width:2;stroke-linecap:round;stroke-linejoin:round;stroke-miterlimit:10;}
	.st123{fill:#1D1D1B;stroke:#1D1D1B;stroke-miterlimit:10;}
	.st124{fill:#F3A5AC;stroke:#010101;stroke-width:2;stroke-linecap:round;stroke-linejoin:round;stroke-miterlimit:10;}
	.st125{fill:#A6D3B6;stroke:#010101;stroke-width:2;stroke-linecap:round;stroke-linejoin:round;stroke-miterlimit:10;}
	.st126{fill:#A5C4C7;stroke:#010101;stroke-width:2;stroke-linecap:round;stroke-linejoin:round;stroke-miterlimit:10;}
	.st127{fill:#FAD14E;stroke:#010101;stroke-width:2;stroke-linecap:round;stroke-linejoin:round;stroke-miterlimit:10;}
	.st128{fill:#4F79A4;stroke:#1D1E1C;stroke-width:2;stroke-linecap:round;stroke-linejoin:round;stroke-miterlimit:10;}
	.st129{fill:#ED716A;stroke:#1D1E1C;stroke-width:2;stroke-miterlimit:10;}
	.st130{fill:#A8B8DC;stroke:#1D1E1C;stroke-width:2;stroke-linecap:round;stroke-linejoin:round;stroke-miterlimit:10;}
	.st131{fill:#65C0BC;stroke:#1D1E1C;stroke-width:2;stroke-linecap:round;stroke-linejoin:round;stroke-miterlimit:10;}
	.st132{fill:#C2C4C2;stroke:#1D1D1B;stroke-width:2;stroke-linecap:round;stroke-linejoin:round;stroke-miterlimit:10;}
	.st133{fill:#AAB0B5;stroke:#1D1D1B;stroke-width:2;stroke-miterlimit:10;}
	.st134{fill:#D3C2A3;stroke:#1D1D1B;stroke-width:2;stroke-linecap:square;stroke-linejoin:bevel;stroke-miterlimit:10;}
	.st135{stroke:#1D1D1B;stroke-width:2;stroke-miterlimit:10;}
	.st136{fill:#D5DCE4;stroke:#1D1D1B;stroke-width:2;stroke-miterlimit:10;}
	.st137{fill:none;stroke:#FFFFFF;stroke-width:2;stroke-linecap:round;stroke-linejoin:round;stroke-miterlimit:10;}
	.st138{fill:#5080A2;stroke:#1D1D1B;stroke-width:2;stroke-linecap:round;stroke-linejoin:round;stroke-miterlimit:10;}
	.st139{fill:#6094C0;stroke:#1D1D1B;stroke-width:2;stroke-linecap:round;stroke-linejoin:round;stroke-miterlimit:10;}
	.st140{fill:#5688AA;stroke:#1D1D1B;stroke-width:2;stroke-linecap:square;stroke-linejoin:bevel;stroke-miterlimit:10;}
	.st141{fill:#F3C43E;stroke:#1D1D1B;stroke-width:2;stroke-linecap:round;stroke-linejoin:round;stroke-miterlimit:10;}
	.st142{fill:#FABB4B;stroke:#1D1D1B;stroke-width:2;stroke-linecap:round;stroke-linejoin:round;stroke-miterlimit:10;}
	.st143{fill:#FFFFFF;stroke:#1D1D1B;stroke-width:2;stroke-linecap:square;stroke-linejoin:bevel;stroke-miterlimit:10;}
	.st144{fill:#61B675;stroke:#1D1D1B;stroke-width:2;stroke-linecap:square;stroke-linejoin:bevel;stroke-miterlimit:10;}
	.st145{fill:#37AB72;stroke:#1D1D1B;stroke-width:2;stroke-linecap:round;stroke-linejoin:round;stroke-miterlimit:10;}
	.st146{fill:none;stroke:#1D1D1B;stroke-width:2;stroke-linecap:round;stroke-miterlimit:10;}
	.st147{fill:#EDDEBC;stroke:#1D1D1B;stroke-width:2;stroke-linecap:square;stroke-linejoin:bevel;stroke-miterlimit:10;}
	.st148{fill:#52B47D;stroke:#1D1D1B;stroke-width:2;stroke-linecap:round;stroke-linejoin:round;stroke-miterlimit:10;}
	.st149{fill:#2E8D5C;stroke:#1D1D1B;stroke-width:2;stroke-linecap:round;stroke-linejoin:round;stroke-miterlimit:10;}
	.st150{opacity:0.25;fill:none;stroke:#FFFFFF;stroke-width:2;stroke-linecap:round;stroke-linejoin:round;stroke-miterlimit:10;}
	.st151{fill:none;stroke:#1D1D1B;stroke-width:2;stroke-linecap:square;stroke-linejoin:bevel;stroke-miterlimit:10;}
	.st152{fill:#E9554B;stroke:#1D1D1B;stroke-width:2;stroke-miterlimit:10;}
	.st153{fill:#E9524B;stroke:#1D1D1B;stroke-width:2;stroke-linecap:round;stroke-linejoin:round;stroke-miterlimit:10;}
	.st154{fill:#EB6661;stroke:#1D1D1B;stroke-width:2;stroke-miterlimit:10;}
	.st155{opacity:0.2;fill:#1D1D1B;}
	
		.st156{opacity:9.000000e-02;fill:none;stroke:#FFFFFF;stroke-width:2;stroke-linecap:round;stroke-linejoin:round;stroke-miterlimit:10;}
	.st157{fill:url(#SVGID_6_);}
	.st158{fill:#FAD04E;stroke:#1D1D1B;stroke-width:2;stroke-linecap:round;stroke-linejoin:round;stroke-miterlimit:10;}
	.st159{fill:#E5BD4A;stroke:#1D1D1B;stroke-width:2;stroke-linecap:round;stroke-linejoin:round;stroke-miterlimit:10;}
	.st160{fill:#B68235;stroke:#1D1D1B;stroke-width:2;stroke-linecap:round;stroke-linejoin:round;stroke-miterlimit:10;}
	.st161{fill:#D2BFB9;stroke:#1D1D1B;stroke-width:2;stroke-linecap:round;stroke-linejoin:round;stroke-miterlimit:10;}
	.st162{fill:#DADAD2;}
	.st163{clip-path:url(#SVGID_8_);}
	.st164{fill:#308C89;}
	.st165{fill:#333333;}
	.st166{fill:#F0584D;}
	.st167{fill:#FAD14D;}
	.st168{fill:#3CA4DC;}
	.st169{clip-path:url(#SVGID_9_);}
	.st170{fill:#D8B144;}
	.st171{fill:#3290BA;}
	.st172{fill:#D84B48;}
	.st173{fill:#E6DDEE;stroke:#1D1E1C;stroke-width:2;stroke-linecap:square;stroke-linejoin:bevel;stroke-miterlimit:10;}
	.st174{fill:#F1F1F1;stroke:#1D1E1C;stroke-width:2;stroke-miterlimit:10;}
	.st175{fill:#F3BC12;stroke:#010101;stroke-width:2;stroke-linecap:round;stroke-linejoin:round;stroke-miterlimit:10;}
	.st176{fill:#FCD28C;stroke:#1D1E1C;stroke-width:2;stroke-linecap:round;stroke-linejoin:round;stroke-miterlimit:10;}
	.st177{fill:#ED706A;stroke:#1D1E1C;stroke-width:2;stroke-linecap:round;stroke-linejoin:round;stroke-miterlimit:10;}
	.st178{fill:#CB615E;stroke:#1D1E1C;stroke-width:2;stroke-linecap:round;stroke-linejoin:round;stroke-miterlimit:10;}
	.st179{fill:#F7CCC1;stroke:#1D1D1B;stroke-width:2;stroke-linecap:round;stroke-linejoin:round;stroke-miterlimit:10;}
	.st180{fill:#FF4B3C;stroke:#1D1E1C;stroke-width:2;stroke-linecap:round;stroke-linejoin:round;stroke-miterlimit:10;}
	.st181{fill:#F0F0F0;stroke:#1D1E1C;stroke-width:2;stroke-linecap:round;stroke-linejoin:round;stroke-miterlimit:10;}
	.st182{fill:#F9EFE2;stroke:#1D1E1C;stroke-width:2;stroke-linecap:round;stroke-linejoin:round;stroke-miterlimit:10;}
	.st183{fill:#9AC7AA;stroke:#1D1D1B;stroke-width:2;stroke-linecap:round;stroke-linejoin:round;stroke-miterlimit:10;}
	.st184{fill:#A2CFD6;stroke:#1D1D1B;stroke-width:2;stroke-linecap:round;stroke-linejoin:round;stroke-miterlimit:10;}
	.st185{fill:#E799A0;}
	.st186{opacity:0.41;fill:#A2CFD6;}
</style>
<pattern  x="-739.4" y="-726" width="391.9" height="231.1" patternUnits="userSpaceOnUse" id="Nueva_muestra_de_motivo_10" viewBox="0 -231.1 391.9 231.1" style="overflow:visible;">
	<g>
		<polygon class="st0" points="0,0 391.9,0 391.9,-231.1 0,-231.1 		"/>
		<path class="st1" d="M161.8-79.1c2.7,2,6,7.3,6,7.3"/>
		<polyline class="st2" points="228.5,-122.5 232.5,-117.1 229.8,-114.5 226.5,-115.1 223.8,-119.1 		"/>
		<line class="st2" x1="315.8" y1="-101.8" x2="313.8" y2="-91.8"/>
		<path class="st2" d="M257.8-178.5c2,0,8,0.7,8,0.7l4.7-2"/>
		<line class="st2" x1="191.2" y1="-1.8" x2="186.5" y2="-1.1"/>
		<path class="st2" d="M303.2-37.1c0,0,1.3,1.3,4.7,2.7s3.3,1.3,3.3,1.3l2,6.7"/>
		<polyline class="st2" points="347.2,-159.1 351.8,-161.1 357.8,-163.8 363.2,-167.8 		"/>
		<path class="st2" d="M259.2-141.8c0-0.7,0-0.7,0-1.3"/>
		<path class="st2" d="M115.8-156.5l1.3,0.7c0,0,0,0,0.7,0"/>
		<path class="st2" d="M69.2-12.5c0.7,0,1.3,0,2,0l0,0c0,0.7,0,0.7,0,0.7"/>
		<path class="st2" d="M101.2-92.5c1.3,0,2,0,2.7,0l0,0h0.7c0.7-1.3-2-0.7-2-1.3c0,0,0,0,0.7,0"/>
		<path class="st2" d="M389.8-95.1c0.7-0.7,0.7-0.7,0.7-0.7"/>
		<path class="st2" d="M254.5-17.1c0.7,0.7,1.3,1.3,2,1.3v-0.7"/>
		<path class="st2" d="M387.2-59.1"/>
		<path class="st2" d="M387.8-51.1c-3.3,2.7-6.7,1.3-7.3-2s6.7-6,6.7-6"/>
		<path class="st2" d="M11.8-179.1c0,0,3.3,2,2.7,5.3"/>
		<path class="st2" d="M15.8-107.1c-2.7,2.7-6.7,5.3-6.7,5.3"/>
		<path class="st2" d="M72.5-226c0.8,1.1,0.8,3.4,1.5,4.5c0.8,1.1,2.3,1.1,3.4,0.4l3-3.8"/>
		<line class="st2" x1="189.8" y1="-229.8" x2="188.5" y2="-225.8"/>
		<polyline class="st2" points="1.2,-34.5 7.8,-33.1 15.2,-29.8 		"/>
	</g>
</pattern>
<g>
	<polygon class="st133" points="67,63.9 67,165.6 151,150.9 151.2,49.3 	"/>
	<g>
		<polyline class="st134" points="111.7,99.1 112.7,98.5 111.9,99.5 		"/>
		<polyline class="st135" points="66.8,141.8 66.8,64.8 160.4,64.8 160.4,141.8 		"/>
		<polygon class="st136" points="160.3,177.9 66.7,177.9 66.9,134.7 160.4,134.7 		"/>
		<path d="M118.3,161.7c0.2,0,0.5-0.1,0.7-0.2c0.2,0,0.5-0.1,0.7-0.1c0.4-0.1,0.8-0.2,1.2-0.3c0.2,0,0.4,0,0.6,0
			c0.3,0,0.6,0,0.9-0.2c0.1-0.1,0.2-0.1,0.3-0.2c0.1,0,0.3-0.1,0.4-0.1c0.1,0.1,0.1,0.1,0.2,0.1c0.2,0.1,0.5,0.1,0.7,0.1
			c0,0.1,0.1,0.1,0.1,0.2c0.2,0.2,0.4,0.1,0.6,0c0.1-0.1,0.3,0,0.5,0c0.2,0.1,0.5,0.1,0.7,0.2c0.6,0.3,1.2,0.4,1.9,0.4
			c0.2,0,0.3,0,0.5,0c0.2,0,0.3,0.1,0.5,0.1c0.1,0,0.3,0,0.4,0c0.1,0,0.3,0,0.4,0c0.6,0.1,1,0.5,1.6,0.6c0.3,0.1,0.6,0,0.9-0.1
			c0.2-0.1,0.4-0.2,0.6-0.3c0.3-0.1,0.6-0.1,0.9-0.1c0.3,0,0.6-0.1,0.9-0.1c0.3,0,0.6-0.2,0.8-0.3c0.3-0.1,0.6-0.2,0.9-0.3
			c0.3-0.1,0.6-0.2,0.9-0.3c0.1,0,0.2-0.1,0.4-0.1c0,0,0.1,0,0.1,0c0.2,0.1,0.5-0.1,0.5-0.3c0-0.2,0.2-0.2,0.4-0.4
			c0,0,0.1-0.1,0.1-0.1c0.2,0,0.3,0,0.5,0.1c0.2,0.1,0.5-0.1,0.5-0.3c0.1-0.2-0.1-0.4-0.3-0.5c0,0,0,0,0-0.1c0-0.1,0.1-0.1,0.1-0.1
			c0.2-0.1,0.1-0.5,0-0.6c-0.4-0.4-1.3,0.6-1.6,0.8c-0.8,0.6-1.6,1.1-2.6,1.4c-0.9,0.3-1.9,0.2-2.8,0.5c-0.3,0.1-0.7,0.4-1,0.4
			c-0.6,0-1.1-0.5-1.6-0.6c-0.9-0.2-1.8,0-2.6-0.2c-0.6-0.1-1.1-0.4-1.6-0.5c0-0.1,0-0.2-0.1-0.2c0.1-0.2-0.1-0.5-0.4-0.5
			c-0.1,0-0.2,0-0.3,0c0.1,0,0.3-0.1,0.4-0.1c0.3-0.1,0.6-0.1,0.9-0.2c0.6-0.1,1.2-0.2,1.9-0.2c0.6,0,1.3,0,1.9,0
			c0.6,0,1.3-0.1,1.9-0.2c0.3,0,0.6-0.1,0.9-0.2c0.3-0.1,0.5-0.2,0.7-0.4c0.5-0.3,1.2-0.2,1.8-0.2c0.3,0,0.7,0,1,0
			c0.3,0,0.6,0,0.9,0c0.3,0,0.6,0,0.9-0.1c0.1,0,0.1,0,0.2,0c0.2,0,0.4,0,0.5,0c0.3,0,0.5-0.4,0.3-0.6c-0.1-0.2-0.5-0.2-0.7-0.3
			c-0.6-0.1-1.1,0-1.7-0.1c-0.3,0-0.7-0.1-1.1,0c-0.3,0-0.7,0-1,0.1c-0.3,0-0.6,0-0.9,0c-0.3,0-0.6,0.1-1,0.2
			c-0.7,0.1-1.3,0.1-2,0.1c-0.6,0-1.3-0.1-1.9,0c-0.3,0-0.6,0.1-0.9,0.1c-0.3,0.1-0.5,0.1-0.8,0.2c-0.6,0.1-1,0.4-1.6,0.6
			c-0.3,0.1-0.6,0.2-0.9,0.4c-1,0.5-2,0.8-3.1,1.1c-1,0.2-5.3,1.1-6.2,1.8c-0.1,0.1,2.8-0.4,2.6-0.2
			C117.9,161.4,117.8,161.7,118.3,161.7z M128,158.2c0.2,0,0.4-0.1,0.6-0.2c0.3-0.1,0.5-0.1,0.8-0.1c0.7,0,1.3,0,2,0.1
			c0,0,0.1,0,0.1,0c0,0,0,0-0.1,0c-0.6,0.1-1.3,0.2-2,0.2C129,158.2,128.5,158.2,128,158.2z"/>
		<g>
			<path d="M129.5,152.4c-1.8,0.1-3.7,0.2-5.5,0.2c-1.5,0-2.9,0-4.4,0.1c-1.1,0-2.2,0.3-3.3,0.6c-0.4,0.1-0.8,0.2-1.1,0.6
				c-0.1,0.1-0.2,0.4-0.2,0.6c0,0.2,0.2,0.3,0.3,0.4c0.3,0.2,0.7,0.1,1,0.2c0.6,0.2-0.5,0.7-0.7,0.8c-0.5,0.2-1,0.3-1.5,0.4
				c-0.5,0.1-1,0.2-1.6,0.3c-0.7,0-1.4,0-2.1,0.2c-0.3,0.1-0.5,0.3-0.6,0.6c-0.2,0.5,0.2,0.8,0.5,1c0.4,0.2,0.9,0.2,1.4,0.2
				c1.2,0,2.4,0,3.7,0c1.1,0,2.2-0.3,3.3-0.5c0.4,0,0.7-0.2,1.1-0.1c0.1,0,0.6,0.2,0.5,0.4c0,0.3-0.7,0.3-0.8,0.6
				c-0.2,0.6,0.6,0.6,0.8,0.7c0.5,0,1.3-0.1,1.7-0.1h0.7c0.4,0,0.5,0,0.8,0c1.9-0.2,3.9-0.3,5.8-0.3V152.4z"/>
			<path class="st137" d="M110.3,157.4c0,0-0.2,0.9,2.9,0.8c0,0,2.9,0.1,4.7-0.3c0,0,1-0.2,1.9-0.2"/>
			<path class="st137" d="M120,158.9c-0.2,0.4,0.7,0.4,0.9,0.4c0.8,0,1.5-0.1,2.3-0.1"/>
			<path class="st137" d="M115.3,154.1c-0.2,0.6,1,0.6,1.2,0.7c0.2,0,0.4,0.2,0.4,0.5"/>
		</g>
		<path class="st85" d="M73.5,152.3c1.4,0.8,3,0.8,4.5,1.3c1.9,0.6,3.9,1.2,5.8,1.8c4.4,1.4,8.9,2.8,13.3,4.2c3,0.9,6,1.9,9,2.8
			l-0.1,4.8c0,0-1,1.1-1,1.1c-6.8-2.3-13.5-4.9-20.2-7.4c-2.5-0.9-5-1.9-7.5-2.8c-1.3-0.5-2.9-0.9-4-1.6
			C73.8,156.8,73.5,152.5,73.5,152.3z"/>
		<polygon class="st138" points="72.6,152 107.8,143.7 140.4,146.7 155.1,151.3 104.9,162.1 		"/>
		<path class="st139" d="M107.5,167.7l-2.6,0.6l0-0.9c0,0,1.1-2.5,0-4.9c0,0,0-0.1,0-0.1c0-0.2,0.1-0.3,0.3-0.4l1.3-0.3l4.2-0.9
			l6.3-1.3l37.2-7.8c0,0,1-0.2,1-0.1c0.4,0.9,0.6,1.9,0.4,2.9c-0.1,0.3-0.1,0.7-0.3,1c0,0.1-0.1,0.2-0.1,0.3c-0.1,0.3,0,0.5-0.4,0.6
			c-1.1,0.3-49.7,11.9-49.7,11.9"/>
		<line class="st140" x1="106.3" y1="161.8" x2="106.2" y2="161.8"/>
		<line class="st140" x1="106.4" y1="161.8" x2="106.3" y2="161.8"/>
		<line class="st140" x1="106.6" y1="161.7" x2="106.4" y2="161.8"/>
		<line class="st10" x1="73.4" y1="151.9" x2="105.6" y2="161.9"/>
		<polygon class="st104" points="89.4,123.7 89.4,133.2 124.7,128.3 124.7,119.5 		"/>
		<g>
			<path class="st141" d="M139.8,143.9c0-0.1,0-0.4,0-0.4h0l-52.9-2.2c0,0-3.5,0.6-3.5,0.7c-1.4,5.8-0.7,11.1-0.2,13.6
				c0,0,0,0,0.1,0h-0.1c0,0.1,0.1,0.2,0.2,0.3c0.1,0.1,0.2,0.2,0.3,0.2c0.4,0.2,1.1,0.1,1.6,0.1c0,0,15.7,0,26.3,0
				c8.6,0,17.2-0.1,25.9,0.1c0.6,0,1.5,0.2,2-0.1c0.1-0.1,0.2-0.1,0.3-0.2c0.1-0.1,0.1-0.2,0.2-0.3c0,0,0,0,0,0
				C140.3,153,141.2,149.7,139.8,143.9z"/>
			<path class="st10" d="M103,144c-1.4,5.8-0.5,9.1,0,11.7"/>
			<polygon class="st142" points="139.7,143.5 137,139.4 85.7,139.6 83.2,143.5 			"/>
		</g>
		<polygon class="st143" points="92.3,133.4 95.3,130.5 101.4,131.9 102.7,140.2 96.8,145.3 95,145.6 91.7,143 		"/>
		<path class="st85" d="M75.2,137.5l0.3-0.8c0.2-0.2,0.5-1.2,0.5-1.2l0.2-1.7l-0.1-4.2l-0.1-1.1c0,0-0.2-0.4-0.2-0.5
			c-0.1-0.3-0.5-0.8-0.5-0.8l24,7.6l-2.5,10.2l-21.3-7.4L75.2,137.5z"/>
		<g>
			<defs>
				<path id="SVGID_3_" d="M75.5,136.6l0.1-0.2c0.3-0.5,0.5-1.9,0.5-1.9l-0.6-7.3l25.2,7.9l-4.5,9.5l-20.9-7.7L75.5,136.6z"/>
			</defs>
			<clipPath id="SVGID_2_">
				<use xlink:href="#SVGID_3_"  style="overflow:visible;"/>
			</clipPath>
		</g>
		<path class="st145" d="M147.4,128.1c1.6,2.7,1.3,8.8-0.5,10.6c-0.4,0.4-2.6,0.6-3.2,0.7c-15.5,1.6-32.5,3.9-42.1,5.3l0,0l-6.8,1
			l0,0c0.5-0.1,0,0,0,0s0.7-0.2,0.8-0.4c2.2-2.1,1.7-10.6-0.8-11.8l0.1-3.2l23.7-2.3l21.3-1.6l7.3,0.8v0.6L147.4,128.1z"/>
		<g>
			<rect x="111.7" y="65" class="st147" width="0.7" height="23.7"/>
		</g>
		<g>
			<rect x="114.3" y="65" class="st147" width="0.7" height="23.7"/>
		</g>
		<path class="st0" d="M134.9,166.6c0,0-0.2-0.8-0.1-1.2"/>
		<path class="st0" d="M134.6,166.6c0,0-0.1-0.6,0-1.2"/>
		<path class="st0" d="M133.9,165.6c0,0-0.1,0.5,0,0.6"/>
		<path d="M121.1,93.2C121.2,93.2,121.2,93.1,121.1,93.2L121.1,93.2C121.2,93.2,121.2,93.2,121.1,93.2z"/>
		<circle cx="121.1" cy="93.5" r="0.1"/>
		<path d="M121.1,93.2C121.2,93.2,121.2,93.1,121.1,93.2L121.1,93.2C121.2,93.2,121.2,93.2,121.1,93.2z"/>
		<circle cx="121.1" cy="93.5" r="0.1"/>
		<path class="st148" d="M147.3,127.1c-0.7-0.1-0.7-0.1-1.3-0.3c-16.9-4.8-51,5.9-51,5.9v0.3v0.3l52.3-5.6L147.3,127.1L95,132.8
			l-20.7-6.5v0.2c0,0.3,0.2,0.5,0.5,0.7l20.2,6.3"/>
		<polygon class="st149" points="128.3,121.7 147.3,127.1 95,132.9 74.3,126.3 		"/>
		<g>
			<line class="st10" x1="75.3" y1="126.2" x2="96.2" y2="132.8"/>
			<line class="st10" x1="96.2" y1="132.8" x2="96.2" y2="133.3"/>
		</g>
		<g>
			<path d="M86.8,125.7c0.3,0,0.6-0.1,0.8-0.2c0.3,0,0.6-0.1,0.8-0.1c0.5-0.1,1-0.2,1.5-0.2c0.2,0,0.5,0,0.7,0c0.4,0,0.8,0,1.1-0.2
				c0.1-0.1,0.3-0.1,0.4-0.2c0.2,0,0.3-0.1,0.5-0.1c0.1,0.1,0.1,0.1,0.2,0.1c0.3,0.1,0.6,0.1,0.9,0.1c0,0.1,0.1,0.1,0.2,0.2
				c0.2,0.2,0.5,0.1,0.7,0c0.2-0.1,0.4,0,0.6,0c0.3,0.1,0.6,0.1,0.9,0.2c0.8,0.3,1.5,0.4,2.3,0.4c0.2,0,0.4,0,0.6,0
				c0.2,0,0.4,0.1,0.6,0.1c0.2,0,0.4,0,0.5,0c0.2,0,0.4,0,0.5,0c0.7,0.1,1.3,0.5,1.9,0.6c0.4,0.1,0.7,0,1.1-0.1
				c0.2-0.1,0.5-0.2,0.7-0.3c0.3-0.1,0.7-0.1,1.1-0.1c0.4,0,0.7-0.1,1.1-0.1c0.3,0,0.7-0.2,1-0.3c0.4-0.1,0.8-0.2,1.1-0.3
				c0.4-0.1,0.7-0.2,1.1-0.3c0.2,0,0.3-0.1,0.4-0.1c0,0,0.1,0,0.1,0c0.3,0.1,0.6-0.1,0.6-0.3c0-0.2,0.3-0.2,0.5-0.4
				c0,0,0.1-0.1,0.2-0.1c0.2,0,0.4,0,0.6,0.1c0.3,0.1,0.6-0.1,0.6-0.3c0.1-0.2-0.1-0.4-0.3-0.5c0,0,0,0,0-0.1c0-0.1,0.1-0.1,0.1-0.1
				c0.2-0.1,0.2-0.5,0-0.6c-0.5-0.4-1.6,0.5-1.9,0.8c-0.9,0.6-2,1.1-3.1,1.4c-1.1,0.3-2.3,0.2-3.5,0.5c-0.4,0.1-0.8,0.4-1.2,0.4
				c-0.7,0-1.3-0.4-2-0.6c-1.1-0.2-2.2,0-3.2-0.2c-0.7-0.1-1.3-0.4-2-0.5c0-0.1,0-0.2-0.1-0.2c0.1-0.2-0.1-0.5-0.5-0.5
				c-0.1,0-0.2,0-0.3,0c0.2,0,0.3-0.1,0.5-0.1c0.4-0.1,0.8-0.1,1.2-0.1c0.8-0.1,1.5-0.2,2.3-0.2c0.8,0,1.6,0,2.3,0
				c0.8,0,1.6-0.1,2.4-0.2c0.4,0,0.8-0.1,1.1-0.2c0.3-0.1,0.6-0.2,0.9-0.4c0.7-0.3,1.5-0.2,2.2-0.2c0.4,0,0.8,0,1.2,0
				c0.4,0,0.7,0,1.1,0c0.4,0,0.8,0,1.1-0.1c0.1,0,0.2,0,0.3,0c0.2,0,0.4,0,0.7,0c0.4,0,0.6-0.4,0.4-0.6c-0.1-0.2-0.6-0.2-0.8-0.3
				c-0.7-0.1-1.4,0-2.1-0.1c-0.4,0-0.9-0.1-1.3,0c-0.4,0-0.8,0-1.3,0.1c-0.4,0-0.8,0-1.2,0c-0.4,0-0.8,0.1-1.2,0.2
				c-0.8,0.1-1.6,0.1-2.4,0.1c-0.8,0-1.6-0.1-2.4,0c-0.4,0-0.8,0.1-1.1,0.1c-0.3,0.1-0.6,0.1-0.9,0.2c-0.7,0.1-1.3,0.4-1.9,0.6
				c-0.4,0.1-0.8,0.2-1.1,0.4c-1.2,0.5-2.4,0.8-3.8,1c-1.3,0.2-6.5,1.1-7.6,1.7c-0.1,0.1,3.4-0.4,3.2-0.2
				C86.3,125.5,86.1,125.8,86.8,125.7z M98.6,122.4c0.2,0,0.5-0.1,0.7-0.2c0.3-0.1,0.7-0.1,1-0.1c0.8,0,1.6,0,2.4,0.1
				c0,0,0.1,0,0.1,0c0,0,0,0-0.1,0c-0.8,0.1-1.6,0.2-2.4,0.2C99.8,122.3,99.2,122.3,98.6,122.4z"/>
			<g>
				<path class="st137" d="M88.8,123c-0.2,0.4,0.8,0.4,1.1,0.3c0.9,0,1.8-0.1,2.8-0.1"/>
				<path class="st137" d="M83.1,118.3c-0.3,0.6,1.2,0.6,1.5,0.6c0.2,0,0.5,0.2,0.5,0.4"/>
			</g>
		</g>
		<line class="st151" x1="146.2" y1="127.3" x2="134.6" y2="124"/>
		<path class="st152" d="M150.8,108.5c0-0.1-0.1-0.5-0.1-0.5l0,0l-13.4,1.9c0,0,0-0.1,0-0.1l0,0l-59.1,8.3c0,0,0,0.3,0,0.5
			c-0.6,6.2,1.7,12.2,1.7,12.2c0.1,0.1,0.1,0.2,0.2,0.3c0.1,0.1,0.2,0.1,0.3,0.2c0.4,0.2,1.2-0.1,1.7-0.2c0,0,5.3-0.7,11.8-1.7
			c0,0,18.1-2.5,29.1-4c4.5-0.6,9.8-1.4,14.6-2c0.2,0,0.4,0,0.6-0.1c6.7-0.9,12.2-1.7,12.2-1.7c0.5-0.1,1.3,0,1.7-0.3
			c0.1-0.1,0.2-0.2,0.3-0.3c0.1-0.1,0.1-0.2,0.1-0.3c0,0,0,0,0,0C152.6,117.9,153.1,114.3,150.8,108.5z"/>
		<polygon class="st153" points="150.7,107.9 143.3,100.8 84.5,109.5 78.1,118.2 		"/>
		<polygon class="st154" points="150.8,108.6 78.2,118.7 78.1,118.2 150.7,107.9 		"/>
		<g>
			<path class="st134" d="M131.1,102.6l-17-4.5c-0.2-0.1-0.4,0.1-0.5,0.3s0.1,0.4,0.3,0.5l15.4,4L131.1,102.6z"/>
		</g>
		<g>
			<path class="st134" d="M97.6,107.6l16.6-9.1c0.2-0.1,0.3-0.3,0.2-0.5c-0.1-0.2-0.3-0.3-0.5-0.2l-18.3,10.1L97.6,107.6z"/>
		</g>
		<line class="st151" x1="146.2" y1="127.4" x2="146.2" y2="127.9"/>
		<line class="st40" x1="149.4" y1="108.1" x2="149.4" y2="108.9"/>
		<polygon class="st155" points="141.3,140 142.2,140 143.1,139.6 143.1,139.3 141.2,139.5 		"/>
		<polygon class="st155" points="137.4,140 114.7,143.5 113.5,143.9 107.6,143.9 111.4,143.3 		"/>
		<path class="st155" d="M131.4,156.3l-36.8-0.1c0,0,0,0.1,0,0.1c-0.1,0.1-0.2,0.3-0.2,0.4L131.4,156.3z"/>
		<path class="st155" d="M148.4,131.4c0,0,1.2,6.1-3.6,7l-30.4,4.5l30.5-3.7c0,0,1.9,0,2.4-0.8C147.2,138.4,148.9,136.2,148.4,131.4
			z"/>
		<path class="st155" d="M96.9,142.9c0,0-0.4,2.5,6.6,1.5l-8.2,1.2C95.2,145.5,96.3,145.4,96.9,142.9z"/>
		<path class="st155" d="M143.1,128.2l4.2-0.4c0,0,0.8,0.8,1.1,3.9C148.4,131.7,147.6,127.8,143.1,128.2z"/>
		<path class="st155" d="M96.6,135.9c0,0.2,0.4-2.8,3.1-3.1l-4.5,0.6C95.2,133.5,96.6,134.4,96.6,135.9z"/>
		<path class="st155" d="M152.1,112.6c0,0,1.9,8.9-2.9,9.1l2.9-0.4C152.1,121.3,153,122.3,152.1,112.6z"/>
		<path class="st155" d="M145.1,109.5c0,0,6.3-1,6.8,3.1c0,0-0.7-3.4-1.1-4L145.1,109.5z"/>
		
			<pattern  id="SVGID_4_" xlink:href="#Nueva_muestra_de_motivo_10" patternTransform="matrix(2.834435e-02 0 0 2.834435e-02 -5687.5562 -6497.6479)">
		</pattern>
		<path style="fill:url(#SVGID_4_);" d="M151.4,111.8c0,0,0.9,2.7,0.5,6.2"/>
		<path class="st155" d="M140.4,146.9c0,0.8,0.2,1.7,0.2,2.5c0.1,0.5,0.1,1.1,0,1.6l0.7,0.6v-4.5L140.4,146.9z"/>
		<path class="st155" d="M105.3,164.3c0,0-0.2-1.8,4.6-2.8l-5.1,1.1C104.9,162.6,105.3,163.7,105.3,164.3z"/>
		<path class="st155" d="M155.6,154.2c0,0,0.3,1.5-4.7,2.8l-2.6,0.7l-39.7,9.4c-3.3,0.4-3.6-0.1-3.6-0.1l-0.2,0.4l0,0.9l12.2-2.9
			c-1.3,0.3-2.5,0.6-3.5,0.8l26.5-6.3l-0.4,0.1l8.7-2.1l0.2,0l0,0l6.3-1.5c0,0,0.4,0.1,0.4-0.6C155.2,155.8,155.9,154.9,155.6,154.2
			z"/>
		<path class="st156" d="M158.8,153.9c0,0,0.4,0.8,0,1.9"/>
		<path class="st155" d="M102.9,144.8c-0.6,2.4-0.8,4.8-0.6,7.3c0,0.4,0.6,0.4,0.6,0c-0.2-2.4,0-4.8,0.6-7.1
			C103.5,144.6,103,144.4,102.9,144.8z"/>
		<path class="st155" d="M147.1,127.2C147.1,127.2,147.1,127.2,147.1,127.2c0.2-0.1,0.4-0.1,0.2-0.2c-1.8-0.3-3.7-1-5.2-1.3
			c-0.4-0.1-1.9-0.1-1.5,0c0.2,0,2,0.6,2.1,0.7c0.7,0.7-0.9,1-1.1,1c-0.1,0-1,0.4-1.2,0.4c-2.5,0.5-0.1,0,0,0.1
			c0.1,0,0.1,0.1,0.2,0.1c1,0.1,2.1-0.2,3-0.3c0.1,0,0.2,0,0.3,0c-0.2,0.1,0,0.6,0.3,0.5c1-0.2,2-0.4,3-0.4
			C147.5,127.7,147.5,127.2,147.1,127.2z"/>
		<path class="st155" d="M78.4,127.4c-1.2-0.2-2.4-0.6-3.5-1l0,0c0,0-0.1,0-0.1,0c-0.1,0-0.2,0-0.3,0.1c0,0,0,0,0,0
			c-0.1,0.1,0,0.3,0.1,0.4c0.1,0.1,0.3,0.2,0.4,0.2c0.1,0,0.2,0,0.3,0c1,0.4,2,0.7,3,0.8C78.6,128,78.8,127.5,78.4,127.4z"/>
		<path class="st155" d="M75.7,137.4c0-0.1-0.1-0.1-0.1-0.1c-0.1-0.1-0.3-0.2-0.4-0.1c-0.1,0-0.2,0.1-0.2,0.1
			c-0.2,0-0.3,0.1-0.3,0.3c0,0,0,0,0,0c0,0.1,0,0.1,0,0.2c0,0.1,0.2,0.2,0.3,0.2c0.2,0,0.4-0.1,0.6-0.2
			C75.7,137.7,75.8,137.5,75.7,137.4z"/>
		<path class="st155" d="M95.8,144.4c-0.2,0.3-0.5,0.5-0.9,0.5c-0.1-0.1-0.1-0.1-0.3,0c0,0-0.1,0-0.1,0c-0.2,0.1-0.3,0.5,0,0.6
			c0.6,0.1,1.3-0.1,1.7-0.6C96.4,144.5,96,144.1,95.8,144.4z"/>
		<path class="st155" d="M97.6,107.2c-0.5,0-0.9,0.1-1.4,0.2c-0.2,0.1-0.1,0.3,0.1,0.3c0.1,0,0.1,0,0.2-0.1c0,0,0,0,0,0
			c0.4,0,0.8,0,1.1-0.2C97.8,107.4,97.8,107.2,97.6,107.2z"/>
		<path class="st155" d="M94.5,115.4c-0.5,0.3-1.1,0.8-0.7,1.4c0.1,0.2,0.4,0,0.3-0.2c-0.3-0.4,0.3-0.8,0.6-1
			C94.9,115.5,94.7,115.3,94.5,115.4z"/>
		<path class="st155" d="M78.1,153.2l-0.3,0.3c-0.1,0.1,0.1,0.4,0.2,0.2c0.1-0.1,0.2-0.2,0.3-0.3C78.5,153.3,78.3,153,78.1,153.2z"
			/>
		<path class="st155" d="M77.6,157.9c-0.1,0.1-0.2,0.2-0.4,0.3c-0.1,0.1,0.1,0.3,0.2,0.2c0.1-0.1,0.2-0.2,0.4-0.3
			C77.9,158,77.7,157.7,77.6,157.9z"/>
		<polygon class="st155" points="143.3,140 144.1,139.9 144.9,139.2 143.2,139.4 		"/>
		<g>
			<ellipse class="st158" cx="113.3" cy="90" rx="2.2" ry="3"/>
			<path class="st159" d="M111.6,97.5c0.2-0.7,0.7-1.1,1.2-1.7c0.1-0.1,0.2-0.6,0.2-0.8c0.1,0.1,0.3-0.2,0.4-0.2
				c0.1,0,0.1,0.3,0.2,0.3c0,0-0.1,0.5-0.1,0.6c0,0.1,0.1,0.3,0,0.4c0,0.2,0,0.4-0.1,0.5c-0.3,0.5-0.9,1.3-0.6,1.9
				c0.3,0.7,1.4,0.6,1.6-0.1c0,0,0-0.1,0-0.1c0,0,0-0.1,0-0.1c0-0.1,0.1-0.2,0.1-0.3c0-0.1,0-0.1,0.1-0.2c0.1-0.2,0.2-0.5,0.4-0.7
				c0,0,0,0,0.1,0c0.1,0,0.1,0,0.1,0c0,0,0,0,0,0.1c0,0.2,0,0.4,0,0.6c0,0.1,0,0.1,0,0.2c0.1,0.9-0.3,1.8-1.2,2.1
				c-0.5,0.2-1.1,0.1-1.6-0.1c-0.7-0.3-1-1.1-1-1.9C111.5,97.8,111.5,97.7,111.6,97.5z"/>
			<circle class="st159" cx="113.3" cy="94.2" r="1.1"/>
			<circle class="st40" cx="113.3" cy="94.1" r="0.7"/>
			<circle class="st106" cx="113.3" cy="94.2" r="0.5"/>
			<path class="st160" d="M115.1,97.2c0,0,0,0.1,0,0.1c0,0-0.1,0-0.1,0l-1.7-1.4c0,0-0.1-0.1-0.1-0.2c0-0.1,0-0.1,0.1-0.2
				c0,0,0.1-0.1,0.2-0.1c0.1,0,0.1,0,0.2,0.1L115.1,97.2z"/>
			<g>
				<line class="st146" x1="112.5" y1="86.5" x2="112.5" y2="93"/>
				<line class="st146" x1="112.9" y1="86.5" x2="112.9" y2="93"/>
				<line class="st146" x1="113.3" y1="86.5" x2="113.3" y2="93"/>
				<line class="st146" x1="113.7" y1="86.5" x2="113.7" y2="93"/>
				<line class="st146" x1="114.1" y1="86.5" x2="114.1" y2="93"/>
			</g>
		</g>
		<g>
			<path class="st147" d="M114.2,98.5c5.8,2.9,22.5,11.1,22.5,11.1c0.2,0.1,0.3,0.3,0.3,0.5l1.7,13.1c0,0.2-0.1,0.4-0.3,0.4
				c0,0,0,0-0.1,0c-0.2,0-0.4-0.1-0.4-0.3l-1.7-12.7c0-0.2-0.2-0.4-0.3-0.5c-0.5-0.3-1-0.5-1.6-0.8c-1.3-0.7-2.6-1.3-4-2
				c-1.8-0.9-3.5-1.8-5.3-2.6c-1.9-0.9-3.7-1.8-5.6-2.8c-1.6-0.8-3.2-1.6-4.7-2.4c-0.4-0.2-0.8-0.4-1.2-0.6"/>
		</g>
		<g>
			<path class="st147" d="M114,98c-0.3,0.1-0.5,0.2-0.7,0.4c-1.3,1.1-2.5,2.3-3.7,3.4c-1.7,1.5-3.3,3-5,4.5l-5.1,4.6
				c-1.3,1.2-2.6,2.4-3.9,3.5c-0.5,0.5-1,0.9-1.6,1.4c-0.2,0.1-0.2,0.3-0.2,0.5l1.8,12.7c0.2-0.1,0.5-0.1,0.7-0.2l-1.8-12.2
				c0-0.2,0-0.4,0.2-0.5c0.4-0.4,0.8-0.7,1.2-1.1l3.2-2.8c1.4-1.3,2.8-2.6,4.3-3.8c1.5-1.4,3-2.7,4.5-4.1c1.3-1.2,2.7-2.4,4-3.6
				c0.6-0.6,1.3-1.2,2-1.7c0.2-0.1,0.4-0.3,0.5-0.5c0,0,0,0,0,0C114.5,98,114.2,97.9,114,98z"/>
		</g>
		<path class="st155" d="M114.3,98c-0.5,0-1,0.2-1.4,0.6c0,0,0,0,0,0c0-0.1-0.1-0.1-0.2-0.1c-0.3,0.2-0.5,0.4-0.8,0.6
			c0,0-0.1,0.1-0.1,0.1c-0.1-0.1-0.2-0.1-0.2,0c-0.1,0.2-0.3,0.4-0.4,0.6c-0.1,0.2,0.2,0.3,0.3,0.2c0.1-0.2,0.3-0.4,0.4-0.6
			c0,0,0,0,0,0c0,0.1,0.1,0.1,0.2,0l0.8-0.6c0,0,0,0,0.1-0.1c0,0.1,0.2,0.1,0.2,0c0.3-0.3,0.7-0.5,1.2-0.5
			C114.5,98.3,114.5,98,114.3,98z"/>
		<path class="st155" d="M113.4,99.2c-0.2,0.2-0.4,0.4-0.6,0.6c-0.1,0.1,0.1,0.3,0.2,0.2c0.2-0.2,0.4-0.4,0.6-0.6
			C113.8,99.3,113.6,99.1,113.4,99.2z"/>
		<path class="st155" d="M116,99.1c-0.2-0.2-0.4-0.3-0.5-0.5c-0.1-0.1-0.4,0.1-0.2,0.2c0.2,0.2,0.4,0.3,0.5,0.5
			C116,99.4,116.2,99.2,116,99.1z"/>
		<path class="st155" d="M115.1,97.5c-0.1-0.2-0.3,0-0.3,0.2c0.2,0.4,0.2,0.8,0.1,1.2c-0.1,0.2,0.2,0.3,0.3,0.2
			C115.3,98.5,115.3,97.9,115.1,97.5z"/>
		<path class="st155" d="M113.2,95.5c0-0.2-0.3-0.3-0.3-0.1c-0.1,0.8-0.8,1.2-1.2,1.8c-0.3,0.6-0.1,1.1-0.1,1.7c0,0.2,0.3,0.2,0.3,0
			c0-0.3-0.1-0.6-0.1-1c0-0.5,0.4-0.9,0.7-1.3C112.8,96.3,113.1,96,113.2,95.5z"/>
		<path class="st155" d="M112.7,87.2c-0.9,0.7-1.5,1.6-1.5,2.7c0,1.1,0.3,2.3,1.4,2.8c0.2,0.1,0.3-0.2,0.2-0.3
			c-1-0.5-1.2-1.6-1.2-2.6c0-1,0.5-1.8,1.4-2.5C113,87.3,112.8,87.1,112.7,87.2z"/>
		<path class="st155" d="M115.1,88.5c-0.2-0.6-0.8-0.8-1.1-1.4c-0.1-0.2-0.4,0-0.3,0.2c0.2,0.3,0.4,0.4,0.7,0.7
			c0.4,0.4,0.6,1,0.7,1.6c0.2,1.1-0.2,2.4-1.2,3c-0.2,0.1,0,0.4,0.2,0.3c0.8-0.5,1.5-1.6,1.5-2.5C115.5,89.6,115.3,89,115.1,88.5z"
			/>
		<path class="st155" d="M112.3,86.8c-0.2,0.1-0.4,0.3-0.6,0.5c-0.1,0.2,0.2,0.3,0.3,0.2c0.1-0.2,0.3-0.3,0.5-0.4
			C112.6,87,112.4,86.7,112.3,86.8z"/>
		<path class="st155" d="M115.1,87.6c-0.1-0.3-0.3-0.5-0.5-0.7c-0.1-0.1-0.3,0.1-0.2,0.2c0.2,0.2,0.3,0.4,0.4,0.6
			C114.9,87.9,115.2,87.8,115.1,87.6z"/>
		<path class="st155" d="M114.4,94c-0.3,0.3-0.5,0.6-0.8,0.9c-0.1,0.1,0.1,0.4,0.2,0.2c0.3-0.3,0.5-0.6,0.8-0.9
			C114.8,94.1,114.6,93.9,114.4,94z"/>
		<path class="st155" d="M130.4,102.1c-0.4,0.1-0.8,0.2-1.3,0.3c-0.1,0-0.1,0.2-0.1,0.3c-0.1,0.1,0,0.3,0.1,0.3c0,0,0,0,0.1,0
			c0.4-0.1,0.8-0.2,1.2-0.3c0.1,0,0.1-0.2,0-0.3l0.1,0C130.7,102.3,130.6,102.1,130.4,102.1z"/>
		<path class="st155" d="M136.4,109.4c-0.2-0.1-0.3,0.2-0.2,0.3c0.3,0.2,0.5,0.5,0.6,0.9c0,0.2,0.3,0.1,0.3-0.1
			C137.1,110.1,136.8,109.7,136.4,109.4z"/>
		<path class="st155" d="M138.7,123.2c-0.2,0-0.4,0-0.6,0c-0.2,0-0.2,0.3,0,0.3c0.2,0,0.4,0,0.6,0
			C138.9,123.5,138.9,123.2,138.7,123.2z"/>
		<path class="st155" d="M113.9,98.9L113.9,98.9c-0.2,0-0.2,0.3,0,0.3h0C114.1,99.1,114.1,98.9,113.9,98.9z"/>
		<polygon class="st155" points="95.1,115.8 106.2,106.4 105.4,106.4 		"/>
		<polygon class="st155" points="122.5,103.9 123.4,103.9 136,110.1 		"/>
		<path class="st155" d="M94.4,115.4c-0.5,0.4-0.7,1-0.6,1.7c0,0.2,0.3,0.1,0.3-0.1c-0.1-0.5,0.1-1,0.5-1.4
			C94.8,115.5,94.6,115.3,94.4,115.4z"/>
		<path class="st155" d="M96.2,129.2c0,0.2-0.2,0.2-0.2,0c0-0.1-0.1-0.1-0.2-0.1c-0.1,0-0.1,0.1-0.1,0.2c0.1,0.2,0.3,0.3,0.5,0.2
			c0.2,0,0.3-0.2,0.3-0.4C96.5,129,96.2,129,96.2,129.2z"/>
		<path class="st104" d="M111.6,90.9c-0.1-0.1-0.2-0.2-0.3-0.3c-0.1,0-0.2,0-0.3,0c0,0,0,0,0,0c-0.2,0.1-0.3,0.3-0.5,0.4
			c-0.2,0.2-0.4,0.3-0.7,0.4l-0.7,0.6l0,0l0.7-0.7c0.1-0.2,0.3-0.4,0.5-0.6c0.2-0.2,0.3-0.4,0.5-0.5c0,0,0-0.1,0-0.1c0,0,0,0,0,0
			c-0.1-0.1-0.2-0.3-0.3-0.4c-0.1-0.2-0.2-0.4-0.4-0.6l-0.8-0.9l0,0l0.7,0.8c0.3,0.1,0.5,0.3,0.7,0.5c0.1,0.1,0.3,0.3,0.4,0.4
			c0,0,0.1,0,0.1,0c0.1-0.1,0.2-0.2,0.3-0.2c0.2-0.2,0.4-0.3,0.7-0.4l0.8-0.7l0,0l-0.8,0.7c-0.1,0.2-0.3,0.5-0.5,0.7
			c-0.1,0.1-0.1,0.2-0.2,0.2c0,0.1,0,0.2,0,0.3c0.1,0.1,0.2,0.2,0.2,0.3c0.1,0.2,0.3,0.4,0.4,0.7l0.8,0.9l0,0l-0.8-0.9
			C112,91.3,111.8,91.1,111.6,90.9z"/>
		<rect x="72.5" y="67.2" class="st85" width="29.6" height="30.8"/>
	</g>
</g>
</svg>
