<?xml version="1.0" encoding="utf-8"?>
<!-- Generator: Adobe Illustrator 19.1.0, SVG Export Plug-In . SVG Version: 6.00 Build 0)  -->
<svg version="1.1" id="Capa_1" xmlns="http://www.w3.org/2000/svg" xmlns:xlink="http://www.w3.org/1999/xlink" x="0px" y="0px"
	 viewBox="0 0 231.2 231.2" style="enable-background:new 0 0 231.2 231.2;" xml:space="preserve">
<style type="text/css">
	.st0{fill:#E74C40;stroke:#000000;stroke-width:2;stroke-miterlimit:10;}
	.st1{fill:#BCA26C;stroke:#1D1E1C;stroke-width:2;stroke-miterlimit:10;}
	.st2{fill:#FFFFFF;stroke:#1D1E1C;stroke-width:2;stroke-miterlimit:10;}
	.st3{fill:#DE3A28;stroke:#1D1E1C;stroke-width:2;stroke-miterlimit:10;}
	.st4{fill:#F8EEE1;stroke:#1D1D1B;stroke-width:2;stroke-linecap:round;stroke-linejoin:round;stroke-miterlimit:10;}
	.st5{fill:#CD8C94;stroke:#1D1D1B;stroke-width:2;stroke-linecap:round;stroke-linejoin:round;stroke-miterlimit:10;}
	.st6{fill:#FFC1C8;stroke:#1D1D1B;stroke-width:2;stroke-linecap:round;stroke-linejoin:round;stroke-miterlimit:10;}
	.st7{fill:none;stroke:#1D1D1B;stroke-width:2;stroke-linecap:round;stroke-linejoin:round;stroke-miterlimit:10;}
	.st8{fill:#8DA6A6;stroke:#1E1E1C;stroke-width:2;stroke-linecap:round;stroke-linejoin:round;stroke-miterlimit:10;}
	.st9{fill:#A4C3C6;stroke:#1E1E1C;stroke-width:2;stroke-linecap:round;stroke-linejoin:round;stroke-miterlimit:10;}
	.st10{fill:url(#);}
	.st11{fill:#E4E4E4;stroke:#1D1E1C;stroke-width:2;stroke-linecap:round;stroke-linejoin:round;stroke-miterlimit:10;}
	.st12{fill:#ED7069;stroke:#1D1D1B;stroke-width:2;stroke-linecap:round;stroke-linejoin:round;stroke-miterlimit:10;}
	.st13{fill:#1D508A;}
	.st14{fill:#1D508A;stroke:#1D1D1B;stroke-width:2;stroke-linecap:round;stroke-linejoin:round;stroke-miterlimit:10;}
	.st15{fill:#F1A4AB;stroke:#1D1D1B;stroke-width:2;stroke-linecap:round;stroke-linejoin:round;stroke-miterlimit:10;}
	.st16{fill:#1D1D1B;}
	.st17{fill:#989899;stroke:#1D1D1B;stroke-width:2;stroke-linecap:round;stroke-linejoin:round;stroke-miterlimit:10;}
	.st18{fill:#717171;stroke:#1D1D1B;stroke-width:2;stroke-linecap:round;stroke-linejoin:round;stroke-miterlimit:10;}
	.st19{fill:#BCBABB;stroke:#1D1D1B;stroke-width:2;stroke-linecap:round;stroke-linejoin:round;stroke-miterlimit:10;}
	.st20{fill:#64B5B2;}
	.st21{fill:#1D1E1C;}
	.st22{fill:#549793;}
	.st23{fill:#EEC44D;}
	.st24{fill:#D4AC46;}
	.st25{fill:#3B97D0;}
	.st26{fill:#3586B1;}
	.st27{fill:#E84E42;}
	.st28{fill:#D54037;}
	.st29{fill:#CECECD;stroke:#1D1E1C;stroke-width:2;stroke-linecap:round;stroke-linejoin:round;stroke-miterlimit:10;}
	.st30{fill:none;stroke:#1D1E1C;stroke-width:2;stroke-linecap:round;stroke-linejoin:round;stroke-miterlimit:10;}
	.st31{fill:#FFFFFF;stroke:#1E1E1C;stroke-width:2;stroke-linecap:round;stroke-linejoin:round;stroke-miterlimit:10;}
	.st32{fill:#C1737F;stroke:#1D1E1C;stroke-width:2;stroke-linecap:round;stroke-linejoin:round;stroke-miterlimit:10;}
	.st33{fill:#D4AC46;stroke:#1D1E1C;stroke-width:2;stroke-linecap:round;stroke-linejoin:round;stroke-miterlimit:10;}
	.st34{fill:#EEC44D;stroke:#1D1E1C;stroke-width:2;stroke-linecap:round;stroke-linejoin:round;stroke-miterlimit:10;}
	.st35{fill:#F7F7F5;stroke:#1D1D1B;stroke-width:2;stroke-miterlimit:10;}
	.st36{fill:#C9C8B8;stroke:#1D1D1B;stroke-width:2;stroke-miterlimit:10;}
	.st37{fill:none;stroke:#1D1D1B;stroke-width:2;stroke-miterlimit:10;}
	.st38{fill:#DD3D27;stroke:#1D1D1B;stroke-width:2;stroke-miterlimit:10;}
	.st39{clip-path:url(#SVGID_2_);fill:#FAD14D;stroke:#1D1E1C;stroke-width:2;stroke-miterlimit:10;}
	
		.st40{clip-path:url(#SVGID_2_);fill:#325B59;stroke:#1D1D1B;stroke-width:2;stroke-linecap:round;stroke-linejoin:round;stroke-miterlimit:10;}
	.st41{clip-path:url(#SVGID_2_);}
	.st42{fill:#F7F7F5;stroke:#1D1D1B;stroke-width:2;stroke-linecap:round;stroke-linejoin:round;stroke-miterlimit:10;}
	
		.st43{clip-path:url(#SVGID_2_);fill:#65C1BE;stroke:#1D1D1B;stroke-width:2;stroke-linecap:round;stroke-linejoin:round;stroke-miterlimit:10;}
	
		.st44{clip-path:url(#SVGID_2_);fill:#417C79;stroke:#1D1D1B;stroke-width:2;stroke-linecap:round;stroke-linejoin:round;stroke-miterlimit:10;}
	
		.st45{clip-path:url(#SVGID_2_);fill:#26283D;stroke:#1D1D1B;stroke-width:2;stroke-linecap:round;stroke-linejoin:round;stroke-miterlimit:10;}
	
		.st46{clip-path:url(#SVGID_2_);fill:none;stroke:#1D1D1B;stroke-width:2;stroke-linecap:round;stroke-linejoin:round;stroke-miterlimit:10;}
	
		.st47{clip-path:url(#SVGID_2_);fill:#AD6159;stroke:#1E1E1C;stroke-width:2;stroke-linecap:round;stroke-linejoin:round;stroke-miterlimit:10;}
	
		.st48{clip-path:url(#SVGID_2_);fill:#E88676;stroke:#1E1E1C;stroke-width:2;stroke-linecap:round;stroke-linejoin:round;stroke-miterlimit:10;}
	.st49{opacity:0.63;clip-path:url(#SVGID_2_);}
	.st50{fill:#FFFFFF;}
	.st51{opacity:0.36;fill:#FFFFFF;}
	.st52{opacity:0.23;}
	.st53{opacity:0.23;clip-path:url(#SVGID_2_);}
	.st54{fill:#5F999F;stroke:#1D1E1C;stroke-width:2;stroke-miterlimit:10;}
	.st55{fill:#77C1C5;stroke:#1D1E1C;stroke-width:2;stroke-miterlimit:10;}
	.st56{fill:#FBD943;stroke:#000100;stroke-width:2;stroke-miterlimit:10;}
	.st57{fill:#F1F1F1;stroke:#1D1D1B;stroke-width:2;stroke-miterlimit:10;}
	.st58{fill:#FF5546;stroke:#1D1D1B;stroke-width:2;stroke-linecap:round;stroke-miterlimit:10;}
	.st59{fill:#FF5546;stroke:#1D1D1B;stroke-width:2;stroke-miterlimit:10;}
	.st60{fill:#FFBE4A;stroke:#1E1E1C;stroke-width:2;stroke-linecap:square;stroke-linejoin:bevel;stroke-miterlimit:10;}
	.st61{stroke:#1D1E1C;stroke-width:2;stroke-miterlimit:10;}
	.st62{fill:#DDA345;}
	.st63{fill:#1E1E1C;}
	.st64{fill:#458353;}
	.st65{fill:#CB3524;stroke:#000000;stroke-width:2;stroke-linecap:round;stroke-linejoin:round;stroke-miterlimit:10;}
	.st66{fill:#DC3D26;stroke:#000000;stroke-width:2;stroke-linecap:round;stroke-linejoin:round;stroke-miterlimit:10;}
	.st67{fill:#1E508B;}
	.st68{fill:#E3AA24;stroke:#000000;stroke-width:2;stroke-linecap:round;stroke-linejoin:round;stroke-miterlimit:10;}
	.st69{fill:#3CA3DB;}
	.st70{fill:#E78476;stroke:#000000;stroke-width:2;stroke-linecap:round;stroke-linejoin:round;stroke-miterlimit:10;}
	.st71{fill:#D2756C;}
	.st72{fill:#C0BFBE;stroke:#1D1E1C;stroke-width:2;stroke-linecap:round;stroke-linejoin:round;stroke-miterlimit:10;}
	.st73{fill:#F4F4F2;stroke:#1D1E1C;stroke-width:2;stroke-linecap:round;stroke-linejoin:round;stroke-miterlimit:10;}
	.st74{fill:#FFF6EF;stroke:#1D1E1C;stroke-width:2;stroke-linecap:round;stroke-linejoin:round;stroke-miterlimit:10;}
	.st75{fill:#F3A9A6;}
	.st76{fill:#1EAF9A;}
	.st77{fill:#EE828F;}
	.st78{fill:#A4C3C6;}
	.st79{fill:#FAD04D;}
	.st80{fill:none;stroke:#1D1E1C;stroke-width:2;stroke-miterlimit:10;}
	.st81{fill:#F3A9A6;stroke:#1D1E1C;stroke-width:2;stroke-miterlimit:10;}
	.st82{fill:#FFFFFF;stroke:#1D1D1B;stroke-width:2;stroke-linecap:round;stroke-linejoin:round;stroke-miterlimit:10;}
	.st83{fill:#E2D0B3;stroke:#1D1D1B;stroke-width:2;stroke-linecap:round;stroke-linejoin:round;stroke-miterlimit:10;}
	.st84{fill:#C6B399;stroke:#1D1D1B;stroke-width:2;stroke-linecap:round;stroke-linejoin:round;stroke-miterlimit:10;}
	.st85{fill:#9B9A9A;stroke:#1D1D1B;stroke-width:2;stroke-linecap:round;stroke-linejoin:round;stroke-miterlimit:10;}
	.st86{fill:#B7B3B3;stroke:#1D1D1B;stroke-width:2;stroke-linecap:round;stroke-linejoin:round;stroke-miterlimit:10;}
	.st87{fill:#DADADA;stroke:#1D1D1B;stroke-width:2;stroke-linecap:round;stroke-linejoin:round;stroke-miterlimit:10;}
	.st88{fill:#A6C5C8;stroke:#1D1D1B;stroke-width:2;stroke-linecap:round;stroke-linejoin:round;stroke-miterlimit:10;}
	.st89{fill:#39ADAC;stroke:#1D1D1B;stroke-width:2;stroke-linecap:round;stroke-linejoin:round;stroke-miterlimit:10;}
	.st90{fill:#713662;stroke:#1D1D1B;stroke-width:2;stroke-linecap:round;stroke-linejoin:round;stroke-miterlimit:10;}
	.st91{fill:#363A5D;stroke:#1D1D1B;stroke-width:2;stroke-linecap:round;stroke-linejoin:round;stroke-miterlimit:10;}
	.st92{fill:#FF5546;stroke:#1D1D1B;stroke-width:2;stroke-linecap:round;stroke-linejoin:round;stroke-miterlimit:10;}
	.st93{fill:#DF5165;stroke:#1D1D1B;stroke-width:2;stroke-linecap:round;stroke-linejoin:round;stroke-miterlimit:10;}
	.st94{fill:#00B69E;stroke:#1D1D1B;stroke-width:2;stroke-linecap:round;stroke-linejoin:round;stroke-miterlimit:10;}
	.st95{fill:#FAD14D;stroke:#1D1D1B;stroke-width:2;stroke-linecap:round;stroke-linejoin:round;stroke-miterlimit:10;}
	.st96{fill:#00A9CF;stroke:#1D1D1B;stroke-width:2;stroke-linecap:round;stroke-linejoin:round;stroke-miterlimit:10;}
	.st97{fill:#4EB9AC;stroke:#000100;stroke-width:2;stroke-linecap:round;stroke-linejoin:round;stroke-miterlimit:10;}
	.st98{fill:#4EB9AC;}
	.st99{fill:none;stroke:#000100;stroke-width:2;stroke-linecap:round;stroke-linejoin:round;stroke-miterlimit:10;}
	.st100{fill:#FFFFFF;stroke:#000000;stroke-width:2;stroke-linecap:round;stroke-linejoin:round;stroke-miterlimit:10;}
	.st101{fill:#FFFFFF;stroke:#1D1D1B;stroke-width:2;stroke-miterlimit:10;}
	.st102{fill:#FFFFFF;stroke:#1D1D1B;stroke-width:2;stroke-linecap:round;stroke-miterlimit:10;}
	.st103{fill:#1D1D1B;stroke:#1D1D1B;stroke-width:2;stroke-miterlimit:10;}
	.st104{fill:#1D1D1B;stroke:#FFFFFF;stroke-width:2;stroke-miterlimit:10;}
	.st105{fill:#E1E6E1;stroke:#1D1D1B;stroke-width:2;stroke-linecap:round;stroke-linejoin:round;stroke-miterlimit:10;}
	.st106{fill:none;stroke:#010101;stroke-width:2;stroke-linecap:round;stroke-linejoin:round;stroke-miterlimit:10;}
	.st107{fill:#ECD9DF;stroke:#1D1D1B;stroke-width:2;stroke-linecap:round;stroke-linejoin:round;stroke-miterlimit:10;}
	.st108{stroke:#000000;stroke-width:2;stroke-linecap:round;stroke-linejoin:round;stroke-miterlimit:10;}
	.st109{fill:#B7707A;stroke:#1D1D1B;stroke-width:2;stroke-linecap:round;stroke-linejoin:round;stroke-miterlimit:10;}
	.st110{fill:#E58B95;stroke:#1D1D1B;stroke-width:2;stroke-linecap:round;stroke-linejoin:round;stroke-miterlimit:10;}
	.st111{fill:#68999B;stroke:#1D1D1B;stroke-width:2;stroke-linecap:round;stroke-linejoin:round;stroke-miterlimit:10;}
	.st112{fill:#F2C74E;stroke:#000100;stroke-width:2;stroke-linecap:round;stroke-linejoin:round;stroke-miterlimit:10;}
	.st113{fill:#BC973B;stroke:#000100;stroke-width:2;stroke-linecap:round;stroke-linejoin:round;stroke-miterlimit:10;}
	.st114{fill:#646563;stroke:#1D1D1B;stroke-width:2;stroke-linecap:round;stroke-linejoin:round;stroke-miterlimit:10;}
	.st115{fill:#B6803D;stroke:#1D1D1B;stroke-width:2;stroke-linecap:round;stroke-linejoin:round;stroke-miterlimit:10;}
	.st116{fill:#F6B456;stroke:#1D1D1B;stroke-width:2;stroke-linecap:round;stroke-linejoin:round;stroke-miterlimit:10;}
	.st117{fill:#EC716B;stroke:#1D1D1B;stroke-width:2;stroke-linecap:round;stroke-linejoin:round;stroke-miterlimit:10;}
	.st118{fill:#0B434C;stroke:#1D1D1B;stroke-width:2;stroke-linecap:round;stroke-linejoin:round;stroke-miterlimit:10;}
	.st119{fill:#1D1D1B;stroke:#1D1D1B;stroke-width:2;stroke-linecap:round;stroke-linejoin:round;stroke-miterlimit:10;}
	.st120{fill:#1D1D1B;stroke:#1D1D1B;stroke-miterlimit:10;}
	.st121{fill:#F3A5AC;stroke:#010101;stroke-width:2;stroke-linecap:round;stroke-linejoin:round;stroke-miterlimit:10;}
	.st122{fill:#A6D3B6;stroke:#010101;stroke-width:2;stroke-linecap:round;stroke-linejoin:round;stroke-miterlimit:10;}
	.st123{fill:#A5C4C7;stroke:#010101;stroke-width:2;stroke-linecap:round;stroke-linejoin:round;stroke-miterlimit:10;}
	.st124{fill:#FAD14E;stroke:#010101;stroke-width:2;stroke-linecap:round;stroke-linejoin:round;stroke-miterlimit:10;}
	.st125{fill:#4F79A4;stroke:#1D1E1C;stroke-width:2;stroke-linecap:round;stroke-linejoin:round;stroke-miterlimit:10;}
	.st126{fill:#ED716A;stroke:#1D1E1C;stroke-width:2;stroke-miterlimit:10;}
	.st127{fill:#A8B8DC;stroke:#1D1E1C;stroke-width:2;stroke-linecap:round;stroke-linejoin:round;stroke-miterlimit:10;}
	.st128{fill:#65C0BC;stroke:#1D1E1C;stroke-width:2;stroke-linecap:round;stroke-linejoin:round;stroke-miterlimit:10;}
	.st129{fill:#C2C4C2;stroke:#1D1D1B;stroke-width:2;stroke-linecap:round;stroke-linejoin:round;stroke-miterlimit:10;}
	.st130{fill:#AAB0B5;stroke:#1D1D1B;stroke-width:2;stroke-miterlimit:10;}
	.st131{fill:#D3C2A3;stroke:#1D1D1B;stroke-width:2;stroke-linecap:square;stroke-linejoin:bevel;stroke-miterlimit:10;}
	.st132{stroke:#1D1D1B;stroke-width:2;stroke-miterlimit:10;}
	.st133{fill:#D5DCE4;stroke:#1D1D1B;stroke-width:2;stroke-miterlimit:10;}
	.st134{fill:none;stroke:#FFFFFF;stroke-width:2;stroke-linecap:round;stroke-linejoin:round;stroke-miterlimit:10;}
	.st135{fill:#5080A2;stroke:#1D1D1B;stroke-width:2;stroke-linecap:round;stroke-linejoin:round;stroke-miterlimit:10;}
	.st136{fill:#6094C0;stroke:#1D1D1B;stroke-width:2;stroke-linecap:round;stroke-linejoin:round;stroke-miterlimit:10;}
	.st137{fill:#5688AA;stroke:#1D1D1B;stroke-width:2;stroke-linecap:square;stroke-linejoin:bevel;stroke-miterlimit:10;}
	.st138{fill:#F3C43E;stroke:#1D1D1B;stroke-width:2;stroke-linecap:round;stroke-linejoin:round;stroke-miterlimit:10;}
	.st139{fill:#FABB4B;stroke:#1D1D1B;stroke-width:2;stroke-linecap:round;stroke-linejoin:round;stroke-miterlimit:10;}
	.st140{fill:#FFFFFF;stroke:#1D1D1B;stroke-width:2;stroke-linecap:square;stroke-linejoin:bevel;stroke-miterlimit:10;}
	.st141{fill:#61B675;stroke:#1D1D1B;stroke-width:2;stroke-linecap:square;stroke-linejoin:bevel;stroke-miterlimit:10;}
	.st142{fill:#37AB72;stroke:#1D1D1B;stroke-width:2;stroke-linecap:round;stroke-linejoin:round;stroke-miterlimit:10;}
	.st143{fill:none;stroke:#1D1D1B;stroke-width:2;stroke-linecap:round;stroke-miterlimit:10;}
	.st144{fill:#EDDEBC;stroke:#1D1D1B;stroke-width:2;stroke-linecap:square;stroke-linejoin:bevel;stroke-miterlimit:10;}
	.st145{fill:none;}
	.st146{fill:#52B47D;stroke:#1D1D1B;stroke-width:2;stroke-linecap:round;stroke-linejoin:round;stroke-miterlimit:10;}
	.st147{fill:#2E8D5C;stroke:#1D1D1B;stroke-width:2;stroke-linecap:round;stroke-linejoin:round;stroke-miterlimit:10;}
	.st148{opacity:0.25;fill:none;stroke:#FFFFFF;stroke-width:2;stroke-linecap:round;stroke-linejoin:round;stroke-miterlimit:10;}
	.st149{fill:none;stroke:#1D1D1B;stroke-width:2;stroke-linecap:square;stroke-linejoin:bevel;stroke-miterlimit:10;}
	.st150{fill:#E9554B;stroke:#1D1D1B;stroke-width:2;stroke-miterlimit:10;}
	.st151{fill:#E9524B;stroke:#1D1D1B;stroke-width:2;stroke-linecap:round;stroke-linejoin:round;stroke-miterlimit:10;}
	.st152{fill:#EB6661;stroke:#1D1D1B;stroke-width:2;stroke-miterlimit:10;}
	.st153{opacity:0.2;fill:#1D1D1B;}
	
		.st154{opacity:9.000000e-02;fill:none;stroke:#FFFFFF;stroke-width:2;stroke-linecap:round;stroke-linejoin:round;stroke-miterlimit:10;}
	.st155{fill:#FAD04E;stroke:#1D1D1B;stroke-width:2;stroke-linecap:round;stroke-linejoin:round;stroke-miterlimit:10;}
	.st156{fill:#E5BD4A;stroke:#1D1D1B;stroke-width:2;stroke-linecap:round;stroke-linejoin:round;stroke-miterlimit:10;}
	.st157{fill:#B68235;stroke:#1D1D1B;stroke-width:2;stroke-linecap:round;stroke-linejoin:round;stroke-miterlimit:10;}
	.st158{fill:#D2BFB9;stroke:#1D1D1B;stroke-width:2;stroke-linecap:round;stroke-linejoin:round;stroke-miterlimit:10;}
	.st159{fill:#DADAD2;}
	.st160{clip-path:url(#SVGID_6_);}
	.st161{fill:#308C89;}
	.st162{fill:#333333;}
	.st163{fill:#F0584D;}
	.st164{fill:#FAD14D;}
	.st165{fill:#3CA4DC;}
	.st166{clip-path:url(#SVGID_8_);}
	.st167{fill:#D8B144;}
	.st168{fill:#3290BA;}
	.st169{fill:#D84B48;}
	.st170{fill:#E6DDEE;stroke:#1D1E1C;stroke-width:2;stroke-linecap:square;stroke-linejoin:bevel;stroke-miterlimit:10;}
	.st171{fill:#F1F1F1;stroke:#1D1E1C;stroke-width:2;stroke-miterlimit:10;}
	.st172{fill:#F3BC12;stroke:#010101;stroke-width:2;stroke-linecap:round;stroke-linejoin:round;stroke-miterlimit:10;}
	.st173{fill:#FCD28C;stroke:#1D1E1C;stroke-width:2;stroke-linecap:round;stroke-linejoin:round;stroke-miterlimit:10;}
	.st174{fill:#ED706A;stroke:#1D1E1C;stroke-width:2;stroke-linecap:round;stroke-linejoin:round;stroke-miterlimit:10;}
	.st175{fill:#CB615E;stroke:#1D1E1C;stroke-width:2;stroke-linecap:round;stroke-linejoin:round;stroke-miterlimit:10;}
	.st176{fill:#F7CCC1;stroke:#1D1D1B;stroke-width:2;stroke-linecap:round;stroke-linejoin:round;stroke-miterlimit:10;}
	.st177{fill:#FF4B3C;stroke:#1D1E1C;stroke-width:2;stroke-linecap:round;stroke-linejoin:round;stroke-miterlimit:10;}
	.st178{fill:#F0F0F0;stroke:#1D1E1C;stroke-width:2;stroke-linecap:round;stroke-linejoin:round;stroke-miterlimit:10;}
	.st179{fill:#F9EFE2;stroke:#1D1E1C;stroke-width:2;stroke-linecap:round;stroke-linejoin:round;stroke-miterlimit:10;}
	.st180{fill:#9AC7AA;stroke:#1D1D1B;stroke-width:2;stroke-linecap:round;stroke-linejoin:round;stroke-miterlimit:10;}
	.st181{fill:#A2CFD6;stroke:#1D1D1B;stroke-width:2;stroke-linecap:round;stroke-linejoin:round;stroke-miterlimit:10;}
	.st182{fill:#E799A0;}
	.st183{opacity:0.41;fill:#A2CFD6;}
</style>
<g>
	<g>
		<g>
			<circle class="st88" cx="153.9" cy="130.6" r="22.8"/>
			<g>
				<path class="st50" d="M156.3,149.8c-1.3,0-2.4-0.5-3-1.4c-0.6-1-0.7-2.3-0.1-3.7c0.9-2,2.8-3.3,4.4-4.3c0.4-0.3,0.9-0.6,1.3-0.9
					c2.2-1.5,4.9-3.5,7.6-3.5c0.4,0,0.8,0,1.1,0.1c0.2,0.1,0.5,0.1,0.7,0.2c0.7,0.3,1.1,0.9,1.3,1.7c0.4,1.5-0.5,3.5-1.2,4.4
					c-3.3,4.3-7.6,7.1-11.7,7.5C156.6,149.8,156.5,149.8,156.3,149.8z"/>
				<path class="st16" d="M166.6,137c0.3,0,0.6,0,0.9,0.1c0.2,0,0.3,0.1,0.4,0.2c1.6,0.8,0.5,3.5-0.3,4.5c-2.6,3.4-6.6,6.7-11,7.1
					c-0.1,0-0.3,0-0.4,0c-2.2,0-3-1.7-2.1-3.7c0.8-1.7,2.6-2.9,4.1-3.9C160.5,139.7,163.7,137,166.6,137 M166.6,135L166.6,135
					c-3,0-5.9,2-8.1,3.7c-0.4,0.3-0.9,0.6-1.3,0.9c-1.7,1.1-3.8,2.5-4.8,4.8c-0.7,1.7-0.7,3.4,0.1,4.7c0.8,1.2,2.1,1.9,3.8,1.9
					c0.2,0,0.4,0,0.6,0c4.3-0.4,8.9-3.3,12.4-7.9c0.7-0.9,1.9-3.2,1.4-5.2c-0.2-1-0.9-1.9-1.8-2.3c-0.3-0.1-0.6-0.2-0.9-0.3
					C167.5,135,167.1,135,166.6,135L166.6,135z"/>
			</g>
		</g>
		<g>
			<circle class="st89" cx="153.8" cy="108.3" r="22.8"/>
			<g>
				<path class="st50" d="M156.2,127.5c-1.3,0-2.4-0.5-3-1.4c-0.6-1-0.7-2.3-0.1-3.7c0.9-2,2.8-3.3,4.4-4.3c0.4-0.3,0.9-0.6,1.3-0.9
					c2.2-1.5,4.9-3.5,7.6-3.5c0.4,0,0.8,0,1.1,0.1c0.2,0.1,0.5,0.1,0.7,0.2c0.7,0.3,1.1,0.9,1.3,1.7c0.4,1.5-0.5,3.5-1.2,4.4
					c-3.3,4.3-7.6,7.1-11.7,7.5C156.5,127.5,156.3,127.5,156.2,127.5z"/>
				<path class="st16" d="M166.5,114.7c0.3,0,0.6,0,0.9,0.1c0.2,0,0.3,0.1,0.4,0.2c1.6,0.8,0.5,3.5-0.3,4.5c-2.6,3.4-6.6,6.7-11,7.1
					c-0.1,0-0.3,0-0.4,0c-2.2,0-3-1.7-2.1-3.7c0.8-1.7,2.6-2.9,4.1-3.9C160.4,117.4,163.6,114.7,166.5,114.7 M166.5,112.7
					L166.5,112.7c-3,0-5.9,2-8.1,3.7c-0.4,0.3-0.9,0.6-1.3,0.9c-1.7,1.1-3.8,2.5-4.8,4.8c-0.7,1.7-0.7,3.4,0.1,4.7
					c0.8,1.2,2.1,1.9,3.8,1.9c0.2,0,0.4,0,0.6,0c4.3-0.4,8.9-3.3,12.4-7.9c0.7-0.9,1.9-3.2,1.4-5.2c-0.2-1-0.9-1.9-1.8-2.3
					c-0.3-0.1-0.6-0.2-0.9-0.3C167.4,112.7,166.9,112.7,166.5,112.7L166.5,112.7z"/>
			</g>
		</g>
		<g>
			<circle class="st90" cx="153.6" cy="86" r="22.8"/>
			<g>
				<path class="st50" d="M156.1,105.2c-1.3,0-2.4-0.5-3-1.4c-0.6-1-0.7-2.3-0.1-3.7c0.9-2,2.8-3.3,4.4-4.3c0.4-0.3,0.9-0.6,1.3-0.9
					c2.2-1.5,4.9-3.5,7.6-3.5c0.4,0,0.8,0,1.1,0.1c0.2,0.1,0.5,0.1,0.7,0.2c0.7,0.3,1.1,0.9,1.3,1.7c0.4,1.5-0.5,3.5-1.2,4.4
					c-3.3,4.3-7.6,7.1-11.7,7.5C156.4,105.2,156.2,105.2,156.1,105.2z"/>
				<path class="st16" d="M166.3,92.4c0.3,0,0.6,0,0.9,0.1c0.2,0,0.3,0.1,0.4,0.2c1.6,0.8,0.5,3.5-0.3,4.5c-2.6,3.4-6.6,6.7-11,7.1
					c-0.1,0-0.3,0-0.4,0c-2.2,0-3-1.7-2.1-3.7c0.8-1.7,2.6-2.9,4.1-3.9C160.3,95.1,163.5,92.4,166.3,92.4 M166.3,90.4L166.3,90.4
					c-3,0-5.9,2-8.1,3.7c-0.4,0.3-0.9,0.6-1.3,0.9c-1.7,1.1-3.8,2.5-4.8,4.8c-0.7,1.7-0.7,3.4,0.1,4.7c0.8,1.2,2.1,1.9,3.8,1.9
					c0.2,0,0.4,0,0.6,0c4.3-0.4,8.9-3.3,12.4-7.9c0.7-0.9,1.9-3.2,1.4-5.2c-0.2-1-0.9-1.9-1.8-2.3c-0.3-0.1-0.6-0.2-0.9-0.3
					C167.3,90.4,166.8,90.4,166.3,90.4L166.3,90.4z"/>
			</g>
		</g>
	</g>
	<g>
		<g>
			<circle class="st91" cx="118" cy="138.2" r="22.8"/>
			<g>
				<path class="st50" d="M120.4,157.4c-1.3,0-2.4-0.5-3-1.4c-0.6-1-0.7-2.3-0.1-3.7c0.9-2,2.8-3.3,4.4-4.3c0.4-0.3,0.9-0.6,1.3-0.9
					c2.2-1.5,4.9-3.5,7.6-3.5c0.4,0,0.8,0,1.1,0.1c0.2,0.1,0.5,0.1,0.7,0.2c0.7,0.3,1.1,0.9,1.3,1.7c0.4,1.5-0.5,3.5-1.2,4.4
					c-3.3,4.3-7.6,7.1-11.7,7.5C120.7,157.4,120.6,157.4,120.4,157.4z"/>
				<path class="st16" d="M130.7,144.6c0.3,0,0.6,0,0.9,0.1c0.2,0,0.3,0.1,0.4,0.2c1.6,0.8,0.5,3.5-0.3,4.5c-2.6,3.4-6.6,6.7-11,7.1
					c-0.1,0-0.3,0-0.4,0c-2.2,0-3-1.7-2.1-3.7c0.8-1.7,2.6-2.9,4.1-3.9C124.6,147.3,127.8,144.6,130.7,144.6 M130.7,142.6
					L130.7,142.6c-3,0-5.9,2-8.1,3.7c-0.4,0.3-0.9,0.6-1.3,0.9c-1.7,1.1-3.8,2.5-4.8,4.8c-0.7,1.7-0.7,3.4,0.1,4.7
					c0.8,1.2,2.1,1.9,3.8,1.9c0.2,0,0.4,0,0.6,0c4.3-0.4,8.9-3.3,12.4-7.9c0.7-0.9,1.9-3.2,1.4-5.2c-0.2-1-0.9-1.9-1.8-2.3
					c-0.3-0.1-0.6-0.2-0.9-0.3C131.6,142.6,131.2,142.6,130.7,142.6L130.7,142.6z"/>
			</g>
		</g>
		<g>
			<circle class="st92" cx="117.9" cy="115.9" r="22.8"/>
			<g>
				<path class="st50" d="M120.3,135.2c-1.3,0-2.4-0.5-3-1.4c-0.6-1-0.7-2.3-0.1-3.7c0.9-2,2.8-3.3,4.4-4.3c0.4-0.3,0.9-0.6,1.3-0.9
					c2.2-1.6,4.9-3.5,7.6-3.5c0.4,0,0.8,0,1.1,0.1c0.2,0.1,0.5,0.1,0.7,0.2c0.7,0.3,1.1,0.9,1.3,1.7c0.4,1.5-0.5,3.5-1.2,4.4
					c-3.3,4.3-7.6,7.1-11.7,7.5C120.6,135.1,120.4,135.2,120.3,135.2z"/>
				<path class="st16" d="M130.6,122.3c0.3,0,0.6,0,0.9,0.1c0.2,0,0.3,0.1,0.4,0.2c1.6,0.8,0.5,3.5-0.3,4.5c-2.6,3.4-6.6,6.7-11,7.1
					c-0.1,0-0.3,0-0.4,0c-2.2,0-3-1.7-2.1-3.7c0.8-1.7,2.6-2.9,4.1-3.9C124.5,125,127.7,122.3,130.6,122.3 M130.6,120.3L130.6,120.3
					c-3,0-5.9,2-8.1,3.7c-0.4,0.3-0.9,0.6-1.3,0.9c-1.7,1.1-3.8,2.5-4.8,4.8c-0.7,1.7-0.7,3.4,0.1,4.7c0.8,1.2,2.1,1.9,3.8,1.9
					c0.2,0,0.4,0,0.6,0c4.3-0.4,8.9-3.3,12.4-7.9c0.7-0.9,1.9-3.2,1.4-5.2c-0.2-1-0.9-1.9-1.8-2.3c-0.3-0.1-0.6-0.2-0.9-0.3
					C131.5,120.3,131,120.3,130.6,120.3L130.6,120.3z"/>
			</g>
		</g>
		<g>
			<circle class="st92" cx="117.7" cy="93.6" r="22.8"/>
			<circle class="st93" cx="117.7" cy="93.6" r="22.8"/>
			<g>
				<path class="st50" d="M120.2,112.9c-1.3,0-2.4-0.5-3-1.4c-0.6-1-0.7-2.3-0.1-3.7c0.9-2,2.8-3.3,4.4-4.3c0.4-0.3,0.9-0.6,1.3-0.9
					c2.2-1.5,4.9-3.5,7.6-3.5c0.4,0,0.8,0,1.1,0.1c0.2,0.1,0.5,0.1,0.7,0.2c0.7,0.3,1.1,0.9,1.3,1.7c0.4,1.5-0.5,3.5-1.2,4.4
					c-3.3,4.3-7.6,7.1-11.7,7.5C120.5,112.9,120.3,112.9,120.2,112.9z"/>
				<path class="st16" d="M130.4,100c0.3,0,0.6,0,0.9,0.1c0.2,0,0.3,0.1,0.4,0.2c1.6,0.8,0.5,3.5-0.3,4.5c-2.6,3.4-6.6,6.7-11,7.1
					c-0.1,0-0.3,0-0.4,0c-2.2,0-3-1.7-2.1-3.7c0.8-1.7,2.6-2.9,4.1-3.9C124.4,102.7,127.6,100,130.4,100 M130.4,98L130.4,98
					c-3,0-5.9,2-8.1,3.7c-0.4,0.3-0.9,0.6-1.3,0.9c-1.7,1.1-3.8,2.5-4.8,4.8c-0.7,1.7-0.7,3.4,0.1,4.7c0.8,1.2,2.1,1.9,3.8,1.9
					c0.2,0,0.4,0,0.6,0c4.3-0.4,8.9-3.3,12.4-7.9c0.7-0.9,1.9-3.2,1.4-5.2c-0.2-1-0.9-1.9-1.8-2.3c-0.3-0.1-0.6-0.2-0.9-0.3
					C131.4,98.1,130.9,98,130.4,98L130.4,98z"/>
			</g>
		</g>
	</g>
	<g>
		<g>
			<circle class="st94" cx="82.1" cy="145.8" r="22.8"/>
			<g>
				<path class="st50" d="M84.5,165.1c-1.3,0-2.4-0.5-3-1.4c-0.6-1-0.7-2.3-0.1-3.7c0.9-2,2.8-3.3,4.4-4.3c0.4-0.3,0.9-0.6,1.3-0.9
					c2.2-1.5,4.9-3.5,7.6-3.5c0.4,0,0.8,0,1.1,0.1c0.2,0.1,0.5,0.1,0.7,0.2c0.7,0.3,1.1,0.9,1.3,1.7c0.4,1.5-0.5,3.5-1.2,4.4
					c-3.3,4.3-7.6,7.1-11.7,7.5C84.8,165.1,84.7,165.1,84.5,165.1z"/>
				<path class="st16" d="M94.8,152.2c0.3,0,0.6,0,0.9,0.1c0.2,0,0.3,0.1,0.4,0.2c1.6,0.8,0.5,3.5-0.3,4.5c-2.6,3.4-6.6,6.7-11,7.1
					c-0.1,0-0.3,0-0.4,0c-2.2,0-3-1.7-2.1-3.7c0.8-1.7,2.6-2.9,4.1-3.9C88.7,154.9,91.9,152.2,94.8,152.2 M94.8,150.2L94.8,150.2
					c-3,0-5.9,2-8.1,3.7c-0.4,0.3-0.9,0.6-1.3,0.9c-1.7,1.1-3.8,2.5-4.8,4.8c-0.7,1.7-0.7,3.4,0.1,4.7c0.8,1.2,2.1,1.9,3.8,1.9
					c0.2,0,0.4,0,0.6,0c4.3-0.4,8.9-3.3,12.4-7.9c0.7-0.9,1.9-3.2,1.4-5.2c-0.2-1-0.9-1.9-1.8-2.3c-0.3-0.1-0.6-0.2-0.9-0.3
					C95.7,150.3,95.3,150.2,94.8,150.2L94.8,150.2z"/>
			</g>
		</g>
		<g>
			<circle class="st95" cx="82" cy="123.5" r="22.8"/>
			<g>
				<path class="st50" d="M84.4,142.8c-1.3,0-2.4-0.5-3-1.4c-0.6-1-0.7-2.3-0.1-3.7c0.9-2,2.8-3.3,4.4-4.3c0.4-0.3,0.9-0.6,1.3-0.9
					c2.2-1.5,4.9-3.5,7.6-3.5c0.4,0,0.8,0,1.1,0.1c0.2,0.1,0.5,0.1,0.7,0.2c0.7,0.3,1.1,0.9,1.3,1.7c0.4,1.5-0.5,3.5-1.2,4.4
					c-3.3,4.3-7.6,7.1-11.7,7.5C84.7,142.8,84.5,142.8,84.4,142.8z"/>
				<path class="st16" d="M94.7,129.9c0.3,0,0.6,0,0.9,0.1c0.2,0,0.3,0.1,0.4,0.2c1.6,0.8,0.5,3.5-0.3,4.5c-2.6,3.4-6.6,6.7-11,7.1
					c-0.1,0-0.3,0-0.4,0c-2.2,0-3-1.7-2.1-3.7c0.8-1.7,2.6-2.9,4.1-3.9C88.6,132.6,91.8,129.9,94.7,129.9 M94.7,127.9L94.7,127.9
					c-3,0-5.9,2-8.1,3.7c-0.4,0.3-0.9,0.6-1.3,0.9c-1.7,1.1-3.8,2.5-4.8,4.8c-0.7,1.7-0.7,3.4,0.1,4.7c0.8,1.2,2.1,1.9,3.8,1.9
					c0.2,0,0.4,0,0.6,0c4.3-0.4,8.9-3.3,12.4-7.9c0.7-0.9,1.9-3.2,1.4-5.2c-0.2-1-0.9-1.9-1.8-2.3c-0.3-0.1-0.6-0.2-0.9-0.3
					C95.6,128,95.1,127.9,94.7,127.9L94.7,127.9z"/>
			</g>
		</g>
		<g>
			<circle class="st96" cx="81.8" cy="101.2" r="22.8"/>
			<g>
				<path class="st50" d="M84.3,118.7c-1.3,0-2.4-0.5-3-1.4c-0.6-1-0.7-2.3-0.1-3.7c0.9-2,2.8-3.3,4.4-4.3c0.4-0.3,0.9-0.6,1.3-0.9
					c2.2-1.5,4.9-3.5,7.6-3.5c0.4,0,0.8,0,1.1,0.1c0.2,0.1,0.5,0.1,0.7,0.2c0.7,0.3,1.1,0.9,1.3,1.7c0.4,1.5-0.5,3.5-1.2,4.4
					c-3.3,4.3-7.6,7.1-11.7,7.5C84.6,118.6,84.4,118.7,84.3,118.7z"/>
				<path class="st16" d="M94.5,105.8c0.3,0,0.6,0,0.9,0.1c0.2,0,0.3,0.1,0.4,0.2c1.6,0.8,0.5,3.5-0.3,4.5c-2.6,3.4-6.6,6.7-11,7.1
					c-0.1,0-0.3,0-0.4,0c-2.2,0-3-1.7-2.1-3.7c0.8-1.7,2.6-2.9,4.1-3.9C88.5,108.5,91.7,105.8,94.5,105.8 M94.5,103.8L94.5,103.8
					c-3,0-5.9,2-8.1,3.7c-0.4,0.3-0.9,0.6-1.3,0.9c-1.7,1.1-3.8,2.5-4.8,4.8c-0.7,1.7-0.7,3.4,0.1,4.7c0.8,1.2,2.1,1.9,3.8,1.9
					c0.2,0,0.4,0,0.6,0c4.3-0.4,8.9-3.3,12.4-7.9c0.7-0.9,1.9-3.2,1.4-5.2c-0.2-1-0.9-1.9-1.8-2.3c-0.3-0.1-0.6-0.2-0.9-0.3
					C95.5,103.8,95,103.8,94.5,103.8L94.5,103.8z"/>
			</g>
		</g>
	</g>
</g>
</svg>
