<?xml version="1.0" encoding="utf-8"?>
<!-- Generator: Adobe Illustrator 19.1.0, SVG Export Plug-In . SVG Version: 6.00 Build 0)  -->
<svg version="1.1" id="Capa_1" xmlns="http://www.w3.org/2000/svg" xmlns:xlink="http://www.w3.org/1999/xlink" x="0px" y="0px"
	 viewBox="0 0 231.2 231.2" style="enable-background:new 0 0 231.2 231.2;" xml:space="preserve">
<style type="text/css">
	.st0{fill:#E74C40;stroke:#000000;stroke-width:2;stroke-miterlimit:10;}
	.st1{fill:#BCA26C;stroke:#1D1E1C;stroke-width:2;stroke-miterlimit:10;}
	.st2{fill:#FFFFFF;stroke:#1D1E1C;stroke-width:2;stroke-miterlimit:10;}
	.st3{fill:#DE3A28;stroke:#1D1E1C;stroke-width:2;stroke-miterlimit:10;}
	.st4{fill:#F8EEE1;stroke:#1D1D1B;stroke-width:2;stroke-linecap:round;stroke-linejoin:round;stroke-miterlimit:10;}
	.st5{fill:#CD8C94;stroke:#1D1D1B;stroke-width:2;stroke-linecap:round;stroke-linejoin:round;stroke-miterlimit:10;}
	.st6{fill:#FFC1C8;stroke:#1D1D1B;stroke-width:2;stroke-linecap:round;stroke-linejoin:round;stroke-miterlimit:10;}
	.st7{fill:none;stroke:#1D1D1B;stroke-width:2;stroke-linecap:round;stroke-linejoin:round;stroke-miterlimit:10;}
	.st8{fill:#8DA6A6;stroke:#1E1E1C;stroke-width:2;stroke-linecap:round;stroke-linejoin:round;stroke-miterlimit:10;}
	.st9{fill:#A4C3C6;stroke:#1E1E1C;stroke-width:2;stroke-linecap:round;stroke-linejoin:round;stroke-miterlimit:10;}
	.st10{fill:url(#);}
	.st11{fill:#E4E4E4;stroke:#1D1E1C;stroke-width:2;stroke-linecap:round;stroke-linejoin:round;stroke-miterlimit:10;}
	.st12{fill:#ED7069;stroke:#1D1D1B;stroke-width:2;stroke-linecap:round;stroke-linejoin:round;stroke-miterlimit:10;}
	.st13{fill:#1D508A;}
	.st14{fill:#1D508A;stroke:#1D1D1B;stroke-width:2;stroke-linecap:round;stroke-linejoin:round;stroke-miterlimit:10;}
	.st15{fill:#F1A4AB;stroke:#1D1D1B;stroke-width:2;stroke-linecap:round;stroke-linejoin:round;stroke-miterlimit:10;}
	.st16{fill:#1D1D1B;}
	.st17{fill:#989899;stroke:#1D1D1B;stroke-width:2;stroke-linecap:round;stroke-linejoin:round;stroke-miterlimit:10;}
	.st18{fill:#717171;stroke:#1D1D1B;stroke-width:2;stroke-linecap:round;stroke-linejoin:round;stroke-miterlimit:10;}
	.st19{fill:#BCBABB;stroke:#1D1D1B;stroke-width:2;stroke-linecap:round;stroke-linejoin:round;stroke-miterlimit:10;}
	.st20{fill:#64B5B2;}
	.st21{fill:#1D1E1C;}
	.st22{fill:#549793;}
	.st23{fill:#EEC44D;}
	.st24{fill:#D4AC46;}
	.st25{fill:#3B97D0;}
	.st26{fill:#3586B1;}
	.st27{fill:#E84E42;}
	.st28{fill:#D54037;}
	.st29{fill:#CECECD;stroke:#1D1E1C;stroke-width:2;stroke-linecap:round;stroke-linejoin:round;stroke-miterlimit:10;}
	.st30{fill:none;stroke:#1D1E1C;stroke-width:2;stroke-linecap:round;stroke-linejoin:round;stroke-miterlimit:10;}
	.st31{fill:#FFFFFF;stroke:#1E1E1C;stroke-width:2;stroke-linecap:round;stroke-linejoin:round;stroke-miterlimit:10;}
	.st32{fill:#C1737F;stroke:#1D1E1C;stroke-width:2;stroke-linecap:round;stroke-linejoin:round;stroke-miterlimit:10;}
	.st33{fill:#D4AC46;stroke:#1D1E1C;stroke-width:2;stroke-linecap:round;stroke-linejoin:round;stroke-miterlimit:10;}
	.st34{fill:#EEC44D;stroke:#1D1E1C;stroke-width:2;stroke-linecap:round;stroke-linejoin:round;stroke-miterlimit:10;}
	.st35{fill:#F7F7F5;stroke:#1D1D1B;stroke-width:2;stroke-miterlimit:10;}
	.st36{fill:#C9C8B8;stroke:#1D1D1B;stroke-width:2;stroke-miterlimit:10;}
	.st37{fill:none;stroke:#1D1D1B;stroke-width:2;stroke-miterlimit:10;}
	.st38{fill:#DD3D27;stroke:#1D1D1B;stroke-width:2;stroke-miterlimit:10;}
	.st39{clip-path:url(#SVGID_2_);fill:#FAD14D;stroke:#1D1E1C;stroke-width:2;stroke-miterlimit:10;}
	
		.st40{clip-path:url(#SVGID_2_);fill:#325B59;stroke:#1D1D1B;stroke-width:2;stroke-linecap:round;stroke-linejoin:round;stroke-miterlimit:10;}
	.st41{clip-path:url(#SVGID_2_);}
	.st42{fill:#F7F7F5;stroke:#1D1D1B;stroke-width:2;stroke-linecap:round;stroke-linejoin:round;stroke-miterlimit:10;}
	
		.st43{clip-path:url(#SVGID_2_);fill:#65C1BE;stroke:#1D1D1B;stroke-width:2;stroke-linecap:round;stroke-linejoin:round;stroke-miterlimit:10;}
	
		.st44{clip-path:url(#SVGID_2_);fill:#417C79;stroke:#1D1D1B;stroke-width:2;stroke-linecap:round;stroke-linejoin:round;stroke-miterlimit:10;}
	
		.st45{clip-path:url(#SVGID_2_);fill:#26283D;stroke:#1D1D1B;stroke-width:2;stroke-linecap:round;stroke-linejoin:round;stroke-miterlimit:10;}
	
		.st46{clip-path:url(#SVGID_2_);fill:none;stroke:#1D1D1B;stroke-width:2;stroke-linecap:round;stroke-linejoin:round;stroke-miterlimit:10;}
	
		.st47{clip-path:url(#SVGID_2_);fill:#AD6159;stroke:#1E1E1C;stroke-width:2;stroke-linecap:round;stroke-linejoin:round;stroke-miterlimit:10;}
	
		.st48{clip-path:url(#SVGID_2_);fill:#E88676;stroke:#1E1E1C;stroke-width:2;stroke-linecap:round;stroke-linejoin:round;stroke-miterlimit:10;}
	.st49{opacity:0.63;clip-path:url(#SVGID_2_);}
	.st50{fill:#FFFFFF;}
	.st51{opacity:0.36;fill:#FFFFFF;}
	.st52{opacity:0.23;}
	.st53{opacity:0.23;clip-path:url(#SVGID_2_);}
	.st54{fill:#5F999F;stroke:#1D1E1C;stroke-width:2;stroke-miterlimit:10;}
	.st55{fill:#77C1C5;stroke:#1D1E1C;stroke-width:2;stroke-miterlimit:10;}
	.st56{fill:#FBD943;stroke:#000100;stroke-width:2;stroke-miterlimit:10;}
	.st57{fill:#F1F1F1;stroke:#1D1D1B;stroke-width:2;stroke-miterlimit:10;}
	.st58{fill:#FF5546;stroke:#1D1D1B;stroke-width:2;stroke-linecap:round;stroke-miterlimit:10;}
	.st59{fill:#FF5546;stroke:#1D1D1B;stroke-width:2;stroke-miterlimit:10;}
	.st60{fill:#FFBE4A;stroke:#1E1E1C;stroke-width:2;stroke-linecap:square;stroke-linejoin:bevel;stroke-miterlimit:10;}
	.st61{stroke:#1D1E1C;stroke-width:2;stroke-miterlimit:10;}
	.st62{fill:#DDA345;}
	.st63{fill:#1E1E1C;}
	.st64{fill:#458353;}
	.st65{fill:#CB3524;stroke:#000000;stroke-width:2;stroke-linecap:round;stroke-linejoin:round;stroke-miterlimit:10;}
	.st66{fill:#DC3D26;stroke:#000000;stroke-width:2;stroke-linecap:round;stroke-linejoin:round;stroke-miterlimit:10;}
	.st67{fill:#1E508B;}
	.st68{fill:#E3AA24;stroke:#000000;stroke-width:2;stroke-linecap:round;stroke-linejoin:round;stroke-miterlimit:10;}
	.st69{fill:#3CA3DB;}
	.st70{fill:#E78476;stroke:#000000;stroke-width:2;stroke-linecap:round;stroke-linejoin:round;stroke-miterlimit:10;}
	.st71{fill:#D2756C;}
	.st72{fill:#C0BFBE;stroke:#1D1E1C;stroke-width:2;stroke-linecap:round;stroke-linejoin:round;stroke-miterlimit:10;}
	.st73{fill:#F4F4F2;stroke:#1D1E1C;stroke-width:2;stroke-linecap:round;stroke-linejoin:round;stroke-miterlimit:10;}
	.st74{fill:#FFF6EF;stroke:#1D1E1C;stroke-width:2;stroke-linecap:round;stroke-linejoin:round;stroke-miterlimit:10;}
	.st75{fill:#F3A9A6;}
	.st76{fill:#1EAF9A;}
	.st77{fill:#EE828F;}
	.st78{fill:#A4C3C6;}
	.st79{fill:#FAD04D;}
	.st80{fill:none;stroke:#1D1E1C;stroke-width:2;stroke-miterlimit:10;}
	.st81{fill:#F3A9A6;stroke:#1D1E1C;stroke-width:2;stroke-miterlimit:10;}
	.st82{fill:#FFFFFF;stroke:#1D1D1B;stroke-width:2;stroke-linecap:round;stroke-linejoin:round;stroke-miterlimit:10;}
	.st83{fill:#E2D0B3;stroke:#1D1D1B;stroke-width:2;stroke-linecap:round;stroke-linejoin:round;stroke-miterlimit:10;}
	.st84{fill:#C6B399;stroke:#1D1D1B;stroke-width:2;stroke-linecap:round;stroke-linejoin:round;stroke-miterlimit:10;}
	.st85{fill:#9B9A9A;stroke:#1D1D1B;stroke-width:2;stroke-linecap:round;stroke-linejoin:round;stroke-miterlimit:10;}
	.st86{fill:#B7B3B3;stroke:#1D1D1B;stroke-width:2;stroke-linecap:round;stroke-linejoin:round;stroke-miterlimit:10;}
	.st87{fill:#DADADA;stroke:#1D1D1B;stroke-width:2;stroke-linecap:round;stroke-linejoin:round;stroke-miterlimit:10;}
	.st88{fill:#A6C5C8;stroke:#1D1D1B;stroke-width:2;stroke-linecap:round;stroke-linejoin:round;stroke-miterlimit:10;}
	.st89{fill:#39ADAC;stroke:#1D1D1B;stroke-width:2;stroke-linecap:round;stroke-linejoin:round;stroke-miterlimit:10;}
	.st90{fill:#713662;stroke:#1D1D1B;stroke-width:2;stroke-linecap:round;stroke-linejoin:round;stroke-miterlimit:10;}
	.st91{fill:#363A5D;stroke:#1D1D1B;stroke-width:2;stroke-linecap:round;stroke-linejoin:round;stroke-miterlimit:10;}
	.st92{fill:#FF5546;stroke:#1D1D1B;stroke-width:2;stroke-linecap:round;stroke-linejoin:round;stroke-miterlimit:10;}
	.st93{fill:#DF5165;stroke:#1D1D1B;stroke-width:2;stroke-linecap:round;stroke-linejoin:round;stroke-miterlimit:10;}
	.st94{fill:#00B69E;stroke:#1D1D1B;stroke-width:2;stroke-linecap:round;stroke-linejoin:round;stroke-miterlimit:10;}
	.st95{fill:#FAD14D;stroke:#1D1D1B;stroke-width:2;stroke-linecap:round;stroke-linejoin:round;stroke-miterlimit:10;}
	.st96{fill:#00A9CF;stroke:#1D1D1B;stroke-width:2;stroke-linecap:round;stroke-linejoin:round;stroke-miterlimit:10;}
	.st97{fill:#4EB9AC;stroke:#000100;stroke-width:2;stroke-linecap:round;stroke-linejoin:round;stroke-miterlimit:10;}
	.st98{fill:#4EB9AC;}
	.st99{fill:none;stroke:#000100;stroke-width:2;stroke-linecap:round;stroke-linejoin:round;stroke-miterlimit:10;}
	.st100{fill:#FFFFFF;stroke:#000000;stroke-width:2;stroke-linecap:round;stroke-linejoin:round;stroke-miterlimit:10;}
	.st101{fill:#FFFFFF;stroke:#1D1D1B;stroke-width:2;stroke-miterlimit:10;}
	.st102{fill:#FFFFFF;stroke:#1D1D1B;stroke-width:2;stroke-linecap:round;stroke-miterlimit:10;}
	.st103{fill:#1D1D1B;stroke:#1D1D1B;stroke-width:2;stroke-miterlimit:10;}
	.st104{fill:#1D1D1B;stroke:#FFFFFF;stroke-width:2;stroke-miterlimit:10;}
	.st105{fill:#E1E6E1;stroke:#1D1D1B;stroke-width:2;stroke-linecap:round;stroke-linejoin:round;stroke-miterlimit:10;}
	.st106{fill:none;stroke:#010101;stroke-width:2;stroke-linecap:round;stroke-linejoin:round;stroke-miterlimit:10;}
	.st107{fill:#ECD9DF;stroke:#1D1D1B;stroke-width:2;stroke-linecap:round;stroke-linejoin:round;stroke-miterlimit:10;}
	.st108{stroke:#000000;stroke-width:2;stroke-linecap:round;stroke-linejoin:round;stroke-miterlimit:10;}
	.st109{fill:#B7707A;stroke:#1D1D1B;stroke-width:2;stroke-linecap:round;stroke-linejoin:round;stroke-miterlimit:10;}
	.st110{fill:#E58B95;stroke:#1D1D1B;stroke-width:2;stroke-linecap:round;stroke-linejoin:round;stroke-miterlimit:10;}
	.st111{fill:#68999B;stroke:#1D1D1B;stroke-width:2;stroke-linecap:round;stroke-linejoin:round;stroke-miterlimit:10;}
	.st112{fill:#F2C74E;stroke:#000100;stroke-width:2;stroke-linecap:round;stroke-linejoin:round;stroke-miterlimit:10;}
	.st113{fill:#BC973B;stroke:#000100;stroke-width:2;stroke-linecap:round;stroke-linejoin:round;stroke-miterlimit:10;}
	.st114{fill:#646563;stroke:#1D1D1B;stroke-width:2;stroke-linecap:round;stroke-linejoin:round;stroke-miterlimit:10;}
	.st115{fill:#B6803D;stroke:#1D1D1B;stroke-width:2;stroke-linecap:round;stroke-linejoin:round;stroke-miterlimit:10;}
	.st116{fill:#F6B456;stroke:#1D1D1B;stroke-width:2;stroke-linecap:round;stroke-linejoin:round;stroke-miterlimit:10;}
	.st117{fill:#EC716B;stroke:#1D1D1B;stroke-width:2;stroke-linecap:round;stroke-linejoin:round;stroke-miterlimit:10;}
	.st118{fill:#0B434C;stroke:#1D1D1B;stroke-width:2;stroke-linecap:round;stroke-linejoin:round;stroke-miterlimit:10;}
	.st119{fill:#1D1D1B;stroke:#1D1D1B;stroke-width:2;stroke-linecap:round;stroke-linejoin:round;stroke-miterlimit:10;}
	.st120{fill:#1D1D1B;stroke:#1D1D1B;stroke-miterlimit:10;}
	.st121{fill:#F3A5AC;stroke:#010101;stroke-width:2;stroke-linecap:round;stroke-linejoin:round;stroke-miterlimit:10;}
	.st122{fill:#A6D3B6;stroke:#010101;stroke-width:2;stroke-linecap:round;stroke-linejoin:round;stroke-miterlimit:10;}
	.st123{fill:#A5C4C7;stroke:#010101;stroke-width:2;stroke-linecap:round;stroke-linejoin:round;stroke-miterlimit:10;}
	.st124{fill:#FAD14E;stroke:#010101;stroke-width:2;stroke-linecap:round;stroke-linejoin:round;stroke-miterlimit:10;}
	.st125{fill:#4F79A4;stroke:#1D1E1C;stroke-width:2;stroke-linecap:round;stroke-linejoin:round;stroke-miterlimit:10;}
	.st126{fill:#ED716A;stroke:#1D1E1C;stroke-width:2;stroke-miterlimit:10;}
	.st127{fill:#A8B8DC;stroke:#1D1E1C;stroke-width:2;stroke-linecap:round;stroke-linejoin:round;stroke-miterlimit:10;}
	.st128{fill:#65C0BC;stroke:#1D1E1C;stroke-width:2;stroke-linecap:round;stroke-linejoin:round;stroke-miterlimit:10;}
	.st129{fill:#C2C4C2;stroke:#1D1D1B;stroke-width:2;stroke-linecap:round;stroke-linejoin:round;stroke-miterlimit:10;}
	.st130{fill:#AAB0B5;stroke:#1D1D1B;stroke-width:2;stroke-miterlimit:10;}
	.st131{fill:#D3C2A3;stroke:#1D1D1B;stroke-width:2;stroke-linecap:square;stroke-linejoin:bevel;stroke-miterlimit:10;}
	.st132{stroke:#1D1D1B;stroke-width:2;stroke-miterlimit:10;}
	.st133{fill:#D5DCE4;stroke:#1D1D1B;stroke-width:2;stroke-miterlimit:10;}
	.st134{fill:none;stroke:#FFFFFF;stroke-width:2;stroke-linecap:round;stroke-linejoin:round;stroke-miterlimit:10;}
	.st135{fill:#5080A2;stroke:#1D1D1B;stroke-width:2;stroke-linecap:round;stroke-linejoin:round;stroke-miterlimit:10;}
	.st136{fill:#6094C0;stroke:#1D1D1B;stroke-width:2;stroke-linecap:round;stroke-linejoin:round;stroke-miterlimit:10;}
	.st137{fill:#5688AA;stroke:#1D1D1B;stroke-width:2;stroke-linecap:square;stroke-linejoin:bevel;stroke-miterlimit:10;}
	.st138{fill:#F3C43E;stroke:#1D1D1B;stroke-width:2;stroke-linecap:round;stroke-linejoin:round;stroke-miterlimit:10;}
	.st139{fill:#FABB4B;stroke:#1D1D1B;stroke-width:2;stroke-linecap:round;stroke-linejoin:round;stroke-miterlimit:10;}
	.st140{fill:#FFFFFF;stroke:#1D1D1B;stroke-width:2;stroke-linecap:square;stroke-linejoin:bevel;stroke-miterlimit:10;}
	.st141{fill:#61B675;stroke:#1D1D1B;stroke-width:2;stroke-linecap:square;stroke-linejoin:bevel;stroke-miterlimit:10;}
	.st142{fill:#37AB72;stroke:#1D1D1B;stroke-width:2;stroke-linecap:round;stroke-linejoin:round;stroke-miterlimit:10;}
	.st143{fill:none;stroke:#1D1D1B;stroke-width:2;stroke-linecap:round;stroke-miterlimit:10;}
	.st144{fill:#EDDEBC;stroke:#1D1D1B;stroke-width:2;stroke-linecap:square;stroke-linejoin:bevel;stroke-miterlimit:10;}
	.st145{fill:none;}
	.st146{fill:#52B47D;stroke:#1D1D1B;stroke-width:2;stroke-linecap:round;stroke-linejoin:round;stroke-miterlimit:10;}
	.st147{fill:#2E8D5C;stroke:#1D1D1B;stroke-width:2;stroke-linecap:round;stroke-linejoin:round;stroke-miterlimit:10;}
	.st148{opacity:0.25;fill:none;stroke:#FFFFFF;stroke-width:2;stroke-linecap:round;stroke-linejoin:round;stroke-miterlimit:10;}
	.st149{fill:none;stroke:#1D1D1B;stroke-width:2;stroke-linecap:square;stroke-linejoin:bevel;stroke-miterlimit:10;}
	.st150{fill:#E9554B;stroke:#1D1D1B;stroke-width:2;stroke-miterlimit:10;}
	.st151{fill:#E9524B;stroke:#1D1D1B;stroke-width:2;stroke-linecap:round;stroke-linejoin:round;stroke-miterlimit:10;}
	.st152{fill:#EB6661;stroke:#1D1D1B;stroke-width:2;stroke-miterlimit:10;}
	.st153{opacity:0.2;fill:#1D1D1B;}
	
		.st154{opacity:9.000000e-02;fill:none;stroke:#FFFFFF;stroke-width:2;stroke-linecap:round;stroke-linejoin:round;stroke-miterlimit:10;}
	.st155{fill:#FAD04E;stroke:#1D1D1B;stroke-width:2;stroke-linecap:round;stroke-linejoin:round;stroke-miterlimit:10;}
	.st156{fill:#E5BD4A;stroke:#1D1D1B;stroke-width:2;stroke-linecap:round;stroke-linejoin:round;stroke-miterlimit:10;}
	.st157{fill:#B68235;stroke:#1D1D1B;stroke-width:2;stroke-linecap:round;stroke-linejoin:round;stroke-miterlimit:10;}
	.st158{fill:#D2BFB9;stroke:#1D1D1B;stroke-width:2;stroke-linecap:round;stroke-linejoin:round;stroke-miterlimit:10;}
	.st159{fill:#DADAD2;}
	.st160{clip-path:url(#SVGID_6_);}
	.st161{fill:#308C89;}
	.st162{fill:#333333;}
	.st163{fill:#F0584D;}
	.st164{fill:#FAD14D;}
	.st165{fill:#3CA4DC;}
	.st166{clip-path:url(#SVGID_8_);}
	.st167{fill:#D8B144;}
	.st168{fill:#3290BA;}
	.st169{fill:#D84B48;}
	.st170{fill:#E6DDEE;stroke:#1D1E1C;stroke-width:2;stroke-linecap:square;stroke-linejoin:bevel;stroke-miterlimit:10;}
	.st171{fill:#F1F1F1;stroke:#1D1E1C;stroke-width:2;stroke-miterlimit:10;}
	.st172{fill:#F3BC12;stroke:#010101;stroke-width:2;stroke-linecap:round;stroke-linejoin:round;stroke-miterlimit:10;}
	.st173{fill:#FCD28C;stroke:#1D1E1C;stroke-width:2;stroke-linecap:round;stroke-linejoin:round;stroke-miterlimit:10;}
	.st174{fill:#ED706A;stroke:#1D1E1C;stroke-width:2;stroke-linecap:round;stroke-linejoin:round;stroke-miterlimit:10;}
	.st175{fill:#CB615E;stroke:#1D1E1C;stroke-width:2;stroke-linecap:round;stroke-linejoin:round;stroke-miterlimit:10;}
	.st176{fill:#F7CCC1;stroke:#1D1D1B;stroke-width:2;stroke-linecap:round;stroke-linejoin:round;stroke-miterlimit:10;}
	.st177{fill:#FF4B3C;stroke:#1D1E1C;stroke-width:2;stroke-linecap:round;stroke-linejoin:round;stroke-miterlimit:10;}
	.st178{fill:#F0F0F0;stroke:#1D1E1C;stroke-width:2;stroke-linecap:round;stroke-linejoin:round;stroke-miterlimit:10;}
	.st179{fill:#F9EFE2;stroke:#1D1E1C;stroke-width:2;stroke-linecap:round;stroke-linejoin:round;stroke-miterlimit:10;}
	.st180{fill:#9AC7AA;stroke:#1D1D1B;stroke-width:2;stroke-linecap:round;stroke-linejoin:round;stroke-miterlimit:10;}
	.st181{fill:#A2CFD6;stroke:#1D1D1B;stroke-width:2;stroke-linecap:round;stroke-linejoin:round;stroke-miterlimit:10;}
	.st182{fill:#E799A0;}
	.st183{opacity:0.41;fill:#A2CFD6;}
</style>
<g>
	<path class="st82" d="M77.8,149.9c0,0,0.7,0.7,1,1.4c0.3,0.7,1.2,2.6,1.2,2.6S77.3,153,77.8,149.9z"/>
	<g>
		<path class="st83" d="M145.6,139.3v24.5h2.2v-23.4C147.1,140.1,146.4,139.7,145.6,139.3z"/>
		<path class="st84" d="M147.9,140.5v23.4l1.6-0.9v-21.6C148.9,141.1,148.4,140.8,147.9,140.5z"/>
	</g>
	<path class="st85" d="M144.6,168.6l-0.4-0.7l-0.1-0.8l0.3-0.9l-0.1-0.6c0,0-0.3,0.1-0.5-0.1c-0.6-0.4-1.7-1.5-3.5-2.6
		c-0.3-0.2-1-0.4-1.4-0.7c-0.5-0.3-0.9-1-1.5-1.3c-0.2-0.1-0.6-0.1-0.8-0.2c-1.5-0.8-2.7-1.6-4.2-2.1c-0.5-0.2-1.3-0.3-1.8-0.4
		c-0.4-0.1-0.7,0.1-1,0.1c-0.5-0.1-0.8-0.5-0.8-0.5l-1.1,0.2l-1.1-0.1l-1.8,0.4l-2.2-0.3l-1.5-0.3l-2.3,0.4l4,5.1l8.2,3.3
		L144.6,168.6z"/>
	<path class="st85" d="M112.1,119.1c0.2-0.2,0.3-0.5,0.4-0.9c0.2-1.9-2.2-3.7-3.5-4.7c-0.8-0.6-1.8-1.1-2.7-1.7
		c-0.7-0.4-1.2-1-2-1.3c-0.6-0.3-2-0.2-2.3-0.5c-1.8-1.3-4.7-1.3-6.8-2c-1.7-0.6-3.5-0.9-5.4-1c-0.3,0-4.4,0.3-4.4-0.1l1.5,10.5
		l7.7,5.8c3.2-0.7,6.4-1.4,9.6-2.2c1.6-0.4,3.1-0.7,4.7-1.1C109.9,119.9,111.4,120,112.1,119.1z"/>
	<path class="st82" d="M95,68.9c-0.3,0.3-7.8,4.3-13.8,9.7c-2.8,2.6-4.6,6.1-6.3,8.6c-2.2,3.4-5.3,14.1-5.3,14.1s-4.5,10.1-4.7,16.1
		c-0.1,2.6,0,5.2,0.4,7.9c0,0-0.6,4.5,1.2,10.5c1.5,4.9,9.6,15.2,9.6,15.2s5.6,7.3,9.9,9.9c2.1,1.3,4.5,2.4,7.1,3.3l18.2,5
		l-9.5-11.6c0,0-21.8-29.6-19.9-41.8s11.3-39.2,11.3-39.2L95,68.9z"/>
	<path class="st86" d="M95,68.9c0,0.1-3.9,1.9-4.2,2.1c-5.5,3.4-10.7,7.9-14.4,13.4c-4.3,6.2-5.9,13.3-8.4,20.3
		c-2.9,8.1-4.3,17.9-2.6,26.4c0.1,0.6,0.4,1.2,0.6,1.9c2.1,9.6,8.9,17.8,15.8,24.5c4,3.8,8.9,6.4,14.1,8.3c2.6,0.9,5.3,1.7,8,2.2
		c0.9,0.2,6.7,0.4,7.1,0.8c-2.8-3.8-6.3-7.3-9.1-11.2c0,0-21.8-29.6-19.9-41.8c1.9-12.2,11.3-39.2,11.3-39.2S95,68.9,95,68.9z"/>
	<path class="st86" d="M98.1,80c0,0,1-0.4,2.5-0.6c0.5-0.1,1,0,1.6,0c1.5-0.1,3.3-0.2,5.2-0.2c0.4,0,0.8-0.2,1.2-0.1
		c1.6,0.1,3.2,0.5,4.9,0.9c0.6,0.1,1.3,0.1,1.9,0.3c0.8,0.3,1.7,0.8,2.5,1.1c0.5,0.2,1.1,0.4,1.6,0.7c1.5,0.9,2.7,2.1,4,3.5
		c0,0,15.6,9.3,16.8,13.9c1.2,4.6-2.3,33.2,2.2,36.1s14.3-2.9,16.4-12.8c2-9.9,3.2-25.3,0-29.6c-3.2-4.3-24.5-29.2-34.4-27.7
		c-9.9,1.5-28.5,9.6-28.5,9.6L98.1,80z"/>
	<path class="st86" d="M111.6,107c0-0.2,0.1-0.4,0.1-0.6c1.1-7.2,3.6-17.2,4-18.4c0.4-1.2,0.4-2.3,0.4-2.3l-17.2,8.5
		c0,0-1.9,1.3-4.3,4C100.6,100.3,106.2,103.6,111.6,107z"/>
	<path class="st86" d="M85.4,102.5c-2.2,2.9,3.2,4.1,1.5,9.5c0,0-0.5,20.9,1.4,24.3c1,1.9,2.7,3.3,4.5,4.3c1.2,0.7,2.3,1.7,3.6,2.1
		c3.9,1.3,7.9,1.8,12,2.1c2,0.1,4,0.2,6,0.3c1.8,0.1,3.7-0.2,6.2-0.5c0.2-2.2-4-4.9-5.2-6.7l-6.6-11.1c0,0-0.8,0.6-0.2-4
		c-0.7-0.2-2,0.7-2.7,0.5c-0.6-0.2-0.3,3.7-0.9,3.5c-0.5-0.1,0.2-4.9-0.3-5c-2.1-0.6-1.8-4.9-4-5.9c-0.7-0.3-1.4-0.3-2.1-0.4
		c-2-0.1-3.8-0.5-5.7-0.9c-0.8-0.1-1.6-0.4-2.3-0.7c-0.6-0.3-1.7-0.5-2.1-0.9c-0.9-0.8-6.2-3.1-5.4-2.3"/>
	<polygon class="st86" points="126,144.1 130.2,144.4 132.4,144.2 135.5,144.3 138.1,144.7 141.3,144.7 138.9,135.6 137.3,131.8 
		129.3,136.9 	"/>
	<path class="st86" d="M165.7,144.4c-0.1-0.3,0.1-0.4,0.1-0.8l-6.4-0.3l-1.7,0.2l-0.6-0.1l-0.5,0.2l-2.1-0.3l-1,0.2l-1.3-0.2l-2.5,0
		l-10,1c-0.3,0.4-0.2,0.8-0.5,1.2c-0.2,0.3-0.7,0.7-0.9,1c-0.3,0.4-1.2,1.1-1.2,1.1s-0.5,1-0.8,1.4c-0.3,0.3-1.1,0.8-1.1,0.8
		s-0.5,0.8-0.9,1.1c-0.2,0.2-0.5,0.5-0.5,0.5s-0.8,0.4-1.1,0.7c0.4,0.1,0.9,0.2,1.3,0.3c6.5,1.6,13.6,3.2,19.4,6.8
		c5.2-4.2,10.4-11.5,12.4-14.4C165.8,144.6,165.8,144.5,165.7,144.4z"/>
	<g>
		<path class="st86" d="M128.4,91.1c-6.3-0.6-10.2,4.5-12.5,10.3c0,0,0.3,0.1,0.7,0.6c3.6,4.7,4.2,11,3.2,16.6
			c-0.5,2.6-1.4,5.1-2.4,7.6c-0.2,0.5-2.3,4.2-2.2,4.3c1.8,3.3,4.5,5.2,7.4,5.4c6,0.3,9.6-3.4,13.7-11.3
			C140.3,116.8,142.1,92.5,128.4,91.1z"/>
		<path class="st82" d="M113.7,108.3c0.5-2.2,1.2-4.6,2.2-6.9l-2.8,1.9l-0.9,4C112.6,107.6,113.1,108,113.7,108.3z"/>
		<path class="st82" d="M110,118.5l-0.9,6.2l5.9,5.9c-1.5-2.8-2.5-6.6-2.7-11.3C111.6,119,110.8,118.8,110,118.5z"/>
	</g>
	<polygon class="st86" points="142.2,88.4 140.6,88.9 139.7,89.5 138.7,89.8 136.9,90.4 140.7,98.7 143.2,96.9 	"/>
	<path class="st87" d="M166.2,145c-0.2-0.2-0.4-0.4-0.5-0.7c-0.1-0.3,0.1-0.4,0.1-0.8l-5.1-0.2c-0.3,0.6-0.6,1.2-0.9,1.7
		c-0.1,0.3-0.1,0.6-0.2,0.8c-0.2,0.4-0.5,1.3-0.5,1.3s-0.5,0.7-0.7,1c-0.4,0.6-1,1-1.5,1.6c-1,1.3-2.1,2.3-3.2,3.4
		c-0.1,0.1-0.1,0.5-0.3,0.6c-0.3,0.3-1.2,0.7-1.2,0.7s-1.9,1.8-2.9,2.4c2.4,1.1,4.7,2.4,6.8,4c0.4-0.4,1-1.4,1-1.4s0.8-1,1.2-1.5
		c0.2-0.3,0.8-0.6,0.8-0.6s1.7-2.5,2.5-3.7c0.3-0.4,0.7-0.8,0.9-1.2c0.4-0.6,0.6-1.3,0.9-1.9c0.2-0.4,0.6-0.7,0.7-1.1
		c0.6-1.1,1.4-3,1.4-3s0.3-0.6,0.4-0.9C166.1,145.5,166.2,145.2,166.2,145C166.2,145,166.2,145.1,166.2,145z"/>
	<path class="st87" d="M140.3,165.6c-0.2-0.1-0.9-0.2-0.9-0.2l-0.9-0.7l-1-0.1c0,0-1-0.7-1.4-0.9c-0.5-0.2-1.5-0.8-1.5-0.8
		s-0.8,0.1-1.3-0.1c-0.1,0-0.7-0.4-0.7-0.4s-1.3-0.1-2.2-0.4c-4.3,0-8.2-0.5-11.6-1.2c-8.7-1.8-15.9-6.6-21.1-13.8
		c-5.6-7.8-8.5-16.9-9.3-26.4c-0.9-10.5,0.7-20.5,4.4-30.3c0.2-0.4,0.1-0.9,0.3-1.3c4.3-13.3,18.6-21.6,32.4-20.2
		c12.8,1.3,24.2,10.3,29.6,22c5.4,11.7,4.9,25.6,0,37.5c-0.9,2.1-1.9,4.2-3.7,5.5c-1.8,1.3-4.6,1.6-6.2,0c-1.7-1.6-1.4-4.3-1.1-6.6
		c1.5-9.8,2.9-19.6,4.4-29.5c0.3-2,0.6-4.1-0.1-6s-2.8-3.5-4.7-2.9c-2.5,0.8-2.9,4.1-2.8,6.6c-0.8-6.1-6.1-11-12.1-12.2
		s-12.4,1-17,5c-3.3,2.8-5.9,6.8-5.9,11.1c0.1,4.3,3.8,8.7,8.1,8.3c0.9-3.6,1.8-7.2,3.8-10.4c2-3.1,5.1-5.8,8.8-6.1
		c5.3-0.4,10,3.9,11.6,9c1.6,5,0.9,10.5,0,15.6c-0.7,3.9-1.5,7.9-3.3,11.4s-4.8,6.7-8.6,7.8c-3.8,1.2-8.5-0.1-10.6-3.5
		c-1.9-3-1.5-6.9-3.1-10.1c-1.7-3.5-5.8-5.6-9.6-4.9c-0.3,6.1,0.5,12.4,3.5,17.7s8.3,9.6,14.3,10.1c6.1,0.6,12.6-3.1,14.3-9
		c-0.2,4.3,3.6,8.2,7.9,8.9c4.3,0.7,8.7-1.4,11.7-4.5s4.8-7.2,6.2-11.3c3.5-10.6,4.3-22.1,1.6-33s-8.9-20.8-17.8-27.5
		c-11.6-8.6-27-10.7-40.4-5.3c-0.5,0.2-1,0.3-1.5,0.5C94,67.8,88.9,76.3,84.9,84.6c-1.8,3.6-4.2,8-4.4,12.1c0,0-0.2,5.2-0.2,5.6
		c-0.1,3.1-1.4,6-1.9,9.1c-3.7,25.1,12.8,54.6,38.9,59.4c6.3,1.2,11.7,0.7,15.1,0.2c0.5-0.1,1,0,1.4,0c1.3-0.2,2.1-0.5,2.1-0.5
		c1-0.1,2-0.3,3-0.5c0.6-0.1,1.2,0,1.8-0.1c1.4-0.3,2.7-0.7,4-1.2c-0.5-0.4-1.3-1.3-1.3-1.3s-0.8-0.4-1.1-0.6
		c-0.3-0.2-0.8-0.2-1.1-0.4c-0.1-0.1-0.4-0.1-0.4-0.1S140.5,165.7,140.3,165.6z"/>
	<polyline class="st7" points="80.3,101 81,105.3 81.4,111.6 82.4,117.5 	"/>
	<path class="st7" d="M140.9,95.8c0,0.4,0,0.8,0,1.2c0,0.4,0.1,0.8,0.1,1.2c0,1.9,0,3.7-0.1,5.5"/>
	<path class="st85" d="M94.6,98.1l0.2,0.6l0.6,0.8c0,0,0,1.3,0.5,1.8c0.2,0.3,0.2,0.8,0.5,1c0.2,0.1,0.3,0.6,0.6,0.7
		c1.3,0.7,2.7,0.9,3.5,1.2c0.4,0.2,0.7,0.6,0.7,0.6l0.7,0.4l1.1,0l0.7,0.1l0.3,0.7l1.2,0.1l2.4,1.4l0.7,0.6l1.1,0l1.2,0.3l0.8,0.7
		l0.8,0.2l0.7,0.5l0.4-0.7c0,0,0.1-0.7,0.1-0.9c0.1-0.4-0.1-2.8-0.1-2.8l-0.6-0.4l-0.1-0.6l0.2-0.7c0,0,0-1.8-0.2-2.3
		c-0.2-0.8-0.9-1.4-0.9-1.4l-1.5-0.5l-1.6-1.2l-1.3,0.2l-1.6-1.2l-1-0.1l-0.9,0.2l-1.1,0.4l-1.4,0.1l-3.5,0.1l-1.2,0.5L94.6,98.1z"
		/>
	<path class="st85" d="M132.7,152l0.6,0.8l1.3,0.8l0.7,1l1.7,0.8c0,0,2.5,2.1,2.8,2.1c0.2,0,1.7,0.5,1.7,0.5s0.9,1,1.4,1.2
		c0.7,0.4,1.4,0.5,1.4,0.5l0.9-0.1l5.1,2.3l0.7,0.1l0.7,0.7l1.4-0.4l0.8-0.9l0.8-0.2l1.5-0.3l-0.3-1.6l-0.8-1.1l-0.8-0.4l-0.1-1.4
		L153,156l-0.6-0.7l-1-0.6l-1.2-0.5l-0.8-0.7l-1.4-0.3l-2,0l-0.5-0.4l-0.5,0.2l-1.4-0.9l-1.9,0l-0.8,0.2l-1.1-0.5l-0.7,0.2l-0.8-0.1
		l-1.5,0.4l-1.1,0L132.7,152z"/>
	<path class="st85" d="M132.7,152l0.6,0.8l1.3,0.8l0.7,1l1.7,0.8c0,0,2.5,2.1,2.8,2.1c0.2,0,1.7,0.5,1.7,0.5s0.9,1,1.4,1.2
		c0.7,0.4,1.4,0.5,1.4,0.5l0.9-0.1l5.1,2.3l0.7,0.1l0.7,0.7l1.4-0.4l0.8-0.9l0.8-0.2l1.5-0.3l-0.3-1.6l-0.8-1.1l-0.8-0.4l-0.1-1.4
		L153,156l-0.6-0.7l-1-0.6l-1.2-0.5l-0.8-0.7l-1.4-0.3l-2,0l-0.5-0.4l-0.5,0.2l-1.4-0.9l-1.9,0l-0.8,0.2l-1.1-0.5l-0.7,0.2l-0.8-0.1
		l-1.5,0.4l-1.1,0L132.7,152z"/>
	<path class="st84" d="M95.9,111.9l1.2-0.6c0,0,0.9-4.6,4.6-8.6l-0.5-1.3l-2.7,0.9l-3.1,7.6L95.9,111.9z"/>
	<path class="st83" d="M93.9,111.4c0,0,1-6.6,5.8-10.6l1.5,0.5c0,0-4.8,5.5-5.3,10.5L93.9,111.4z"/>
	<path class="st84" d="M104.2,114.2l1.2-0.6c0,0,0.9-4.6,4.6-8.6l-0.5-1.3l-2.7,0.9l-3.1,7.6L104.2,114.2z"/>
	<path class="st83" d="M102.2,113.8c0,0,1-6.6,5.8-10.6l1.5,0.5c0,0-4.8,5.5-5.3,10.5L102.2,113.8z"/>
	<path class="st84" d="M140.6,155.2l0.3,1.4c0,0-3.7,3.8-6.7,4.5l-1.4-0.5c0,0,5.4-3.7,6-4.5C139.3,155.3,140.6,155.2,140.6,155.2z"
		/>
	<path class="st83" d="M131.7,159.8c-0.1-0.3,2.9-0.3,7.5-5.6l1.4,0.9c0,0-5,5.4-7.8,5.4L131.7,159.8z"/>
	<path class="st84" d="M149.1,158.3l0.4,1.6c0,0-4,4.1-7.4,5l-1.6-0.6c0,0,5.9-4.1,6.6-5S149.1,158.3,149.1,158.3z"/>
	<path class="st83" d="M139.4,163.5c-0.1-0.3,3.2-0.3,8.2-6.1l1.5,1c0,0-5.5,5.9-8.6,6L139.4,163.5z"/>
	<path class="st7" d="M109.1,98.1c0-0.2,0.1-0.4,0.2-0.5c0.1-0.3,0.2-0.5,0.5-0.4c0.2,0,0.2,0.1,0.2-0.1c0-0.3,0-0.4,0.1-0.7
		c0.1-0.2,0.2-0.4,0.3-0.6c0-0.1,0-0.1,0-0.2c0.1-0.3,0.3-0.5,0.5-0.7c0.2-0.2,0.4-0.5,0.7-0.7c0.5-0.5,0.9-1,1.4-1.5
		c0.2-0.2,0.5-0.5,0.7-0.6"/>
	<path class="st7" d="M143.3,116.7c-0.1,0.4-0.2,0.7-0.2,1.1"/>
	<path class="st85" d="M165.4,143.6c0,0.1-0.1,0.2-0.2,0.3c-0.1,0.2,0,0.4,0,0.5c0,0.3,0,0.5,0,0.8c-0.1,0.2-0.2,0.5-0.1,0.8
		c0.1,0.2,0.4,0.4,0.6,0.3c0.3-0.2,0.4-0.9,0.5-1.2c0.1-0.3,0.3-0.5,0.4-0.8c0.2-0.7-0.8-0.7-1.2-0.5"/>
	<line class="st7" x1="98.9" y1="100.1" x2="99.7" y2="100.9"/>
	<line class="st7" x1="102.6" y1="100.7" x2="101.2" y2="101.4"/>
	<line class="st7" x1="102.5" y1="103.2" x2="101.8" y2="102.7"/>
	<line class="st7" x1="101.9" y1="104" x2="101.8" y2="103"/>
	<line class="st7" x1="107.3" y1="102.5" x2="108" y2="103.2"/>
	<polyline class="st7" points="111.2,105.7 110,105 110,106.4 	"/>
	<line class="st7" x1="110.6" y1="103.5" x2="109.5" y2="103.7"/>
	<line class="st7" x1="110.7" y1="104.4" x2="109.8" y2="104.4"/>
	<line class="st7" x1="93" y1="111.9" x2="93.9" y2="111.4"/>
	<line class="st7" x1="96.6" y1="112.7" x2="95.9" y2="111.9"/>
	<line class="st7" x1="98.4" y1="111.3" x2="97.1" y2="111.3"/>
	<line class="st7" x1="93.3" y1="109.9" x2="94.1" y2="110.4"/>
	<line class="st7" x1="94.1" y1="112.5" x2="94.9" y2="111.7"/>
	<line class="st7" x1="101.8" y1="112.5" x2="102.4" y2="112.7"/>
	<line class="st7" x1="100.9" y1="114" x2="102.2" y2="113.8"/>
	<line class="st7" x1="105.9" y1="113.9" x2="105.4" y2="113.6"/>
	<line class="st7" x1="105" y1="115.1" x2="104.2" y2="114.2"/>
	<line class="st7" x1="130.3" y1="159.6" x2="131.7" y2="159.8"/>
	<line class="st7" x1="134.9" y1="162.1" x2="134.2" y2="161.1"/>
	<line class="st7" x1="138.1" y1="153.8" x2="139.2" y2="154.3"/>
	<line class="st7" x1="141.7" y1="157.3" x2="140.9" y2="156.6"/>
	<line class="st7" x1="141.7" y1="155.2" x2="140.6" y2="155.2"/>
	<line class="st7" x1="140.5" y1="153.6" x2="139.7" y2="154.6"/>
	<line class="st7" x1="138.1" y1="163.1" x2="139.4" y2="163.5"/>
	<line class="st7" x1="142.1" y1="165.4" x2="141.6" y2="164.9"/>
	<line class="st7" x1="139.7" y1="164.6" x2="140.6" y2="164.5"/>
	<line class="st7" x1="146.5" y1="156.2" x2="147.6" y2="157.3"/>
	<line class="st7" x1="150.8" y1="160.2" x2="149.4" y2="159.9"/>
	<line class="st7" x1="150.8" y1="158.3" x2="149.1" y2="158.3"/>
</g>
</svg>
