<?xml version="1.0" encoding="utf-8"?>
<!-- Generator: Adobe Illustrator 19.1.0, SVG Export Plug-In . SVG Version: 6.00 Build 0)  -->
<svg version="1.1" id="Capa_1" xmlns="http://www.w3.org/2000/svg" xmlns:xlink="http://www.w3.org/1999/xlink" x="0px" y="0px"
	 viewBox="0 0 231.2 231.2" style="enable-background:new 0 0 231.2 231.2;" xml:space="preserve">
<style type="text/css">
	.st0{fill:#E74C40;stroke:#000000;stroke-width:2;stroke-miterlimit:10;}
	.st1{fill:#BCA26C;stroke:#1D1E1C;stroke-width:2;stroke-miterlimit:10;}
	.st2{fill:#FFFFFF;stroke:#1D1E1C;stroke-width:2;stroke-miterlimit:10;}
	.st3{fill:#DE3A28;stroke:#1D1E1C;stroke-width:2;stroke-miterlimit:10;}
	.st4{fill:#F8EEE1;stroke:#1D1D1B;stroke-width:2;stroke-linecap:round;stroke-linejoin:round;stroke-miterlimit:10;}
	.st5{fill:#CD8C94;stroke:#1D1D1B;stroke-width:2;stroke-linecap:round;stroke-linejoin:round;stroke-miterlimit:10;}
	.st6{fill:#FFC1C8;stroke:#1D1D1B;stroke-width:2;stroke-linecap:round;stroke-linejoin:round;stroke-miterlimit:10;}
	.st7{fill:none;stroke:#1D1D1B;stroke-width:2;stroke-linecap:round;stroke-linejoin:round;stroke-miterlimit:10;}
	.st8{fill:#8DA6A6;stroke:#1E1E1C;stroke-width:2;stroke-linecap:round;stroke-linejoin:round;stroke-miterlimit:10;}
	.st9{fill:#A4C3C6;stroke:#1E1E1C;stroke-width:2;stroke-linecap:round;stroke-linejoin:round;stroke-miterlimit:10;}
	.st10{fill:url(#);}
	.st11{fill:#E4E4E4;stroke:#1D1E1C;stroke-width:2;stroke-linecap:round;stroke-linejoin:round;stroke-miterlimit:10;}
	.st12{fill:#ED7069;stroke:#1D1D1B;stroke-width:2;stroke-linecap:round;stroke-linejoin:round;stroke-miterlimit:10;}
	.st13{fill:#1D508A;}
	.st14{fill:#1D508A;stroke:#1D1D1B;stroke-width:2;stroke-linecap:round;stroke-linejoin:round;stroke-miterlimit:10;}
	.st15{fill:#F1A4AB;stroke:#1D1D1B;stroke-width:2;stroke-linecap:round;stroke-linejoin:round;stroke-miterlimit:10;}
	.st16{fill:#1D1D1B;}
	.st17{fill:#989899;stroke:#1D1D1B;stroke-width:2;stroke-linecap:round;stroke-linejoin:round;stroke-miterlimit:10;}
	.st18{fill:#717171;stroke:#1D1D1B;stroke-width:2;stroke-linecap:round;stroke-linejoin:round;stroke-miterlimit:10;}
	.st19{fill:#BCBABB;stroke:#1D1D1B;stroke-width:2;stroke-linecap:round;stroke-linejoin:round;stroke-miterlimit:10;}
	.st20{fill:#64B5B2;}
	.st21{fill:#1D1E1C;}
	.st22{fill:#549793;}
	.st23{fill:#EEC44D;}
	.st24{fill:#D4AC46;}
	.st25{fill:#3B97D0;}
	.st26{fill:#3586B1;}
	.st27{fill:#E84E42;}
	.st28{fill:#D54037;}
	.st29{fill:#CECECD;stroke:#1D1E1C;stroke-width:2;stroke-linecap:round;stroke-linejoin:round;stroke-miterlimit:10;}
	.st30{fill:none;stroke:#1D1E1C;stroke-width:2;stroke-linecap:round;stroke-linejoin:round;stroke-miterlimit:10;}
	.st31{fill:#FFFFFF;stroke:#1E1E1C;stroke-width:2;stroke-linecap:round;stroke-linejoin:round;stroke-miterlimit:10;}
	.st32{fill:#C1737F;stroke:#1D1E1C;stroke-width:2;stroke-linecap:round;stroke-linejoin:round;stroke-miterlimit:10;}
	.st33{fill:#D4AC46;stroke:#1D1E1C;stroke-width:2;stroke-linecap:round;stroke-linejoin:round;stroke-miterlimit:10;}
	.st34{fill:#EEC44D;stroke:#1D1E1C;stroke-width:2;stroke-linecap:round;stroke-linejoin:round;stroke-miterlimit:10;}
	.st35{fill:#F7F7F5;stroke:#1D1D1B;stroke-width:2;stroke-miterlimit:10;}
	.st36{fill:#C9C8B8;stroke:#1D1D1B;stroke-width:2;stroke-miterlimit:10;}
	.st37{fill:none;stroke:#1D1D1B;stroke-width:2;stroke-miterlimit:10;}
	.st38{fill:#DD3D27;stroke:#1D1D1B;stroke-width:2;stroke-miterlimit:10;}
	.st39{clip-path:url(#SVGID_2_);fill:#FAD14D;stroke:#1D1E1C;stroke-width:2;stroke-miterlimit:10;}
	
		.st40{clip-path:url(#SVGID_2_);fill:#325B59;stroke:#1D1D1B;stroke-width:2;stroke-linecap:round;stroke-linejoin:round;stroke-miterlimit:10;}
	.st41{clip-path:url(#SVGID_2_);}
	.st42{fill:#F7F7F5;stroke:#1D1D1B;stroke-width:2;stroke-linecap:round;stroke-linejoin:round;stroke-miterlimit:10;}
	
		.st43{clip-path:url(#SVGID_2_);fill:#65C1BE;stroke:#1D1D1B;stroke-width:2;stroke-linecap:round;stroke-linejoin:round;stroke-miterlimit:10;}
	
		.st44{clip-path:url(#SVGID_2_);fill:#417C79;stroke:#1D1D1B;stroke-width:2;stroke-linecap:round;stroke-linejoin:round;stroke-miterlimit:10;}
	
		.st45{clip-path:url(#SVGID_2_);fill:#26283D;stroke:#1D1D1B;stroke-width:2;stroke-linecap:round;stroke-linejoin:round;stroke-miterlimit:10;}
	
		.st46{clip-path:url(#SVGID_2_);fill:none;stroke:#1D1D1B;stroke-width:2;stroke-linecap:round;stroke-linejoin:round;stroke-miterlimit:10;}
	
		.st47{clip-path:url(#SVGID_2_);fill:#AD6159;stroke:#1E1E1C;stroke-width:2;stroke-linecap:round;stroke-linejoin:round;stroke-miterlimit:10;}
	
		.st48{clip-path:url(#SVGID_2_);fill:#E88676;stroke:#1E1E1C;stroke-width:2;stroke-linecap:round;stroke-linejoin:round;stroke-miterlimit:10;}
	.st49{opacity:0.63;clip-path:url(#SVGID_2_);}
	.st50{fill:#FFFFFF;}
	.st51{opacity:0.36;fill:#FFFFFF;}
	.st52{opacity:0.23;}
	.st53{opacity:0.23;clip-path:url(#SVGID_2_);}
	.st54{fill:#5F999F;stroke:#1D1E1C;stroke-width:2;stroke-miterlimit:10;}
	.st55{fill:#77C1C5;stroke:#1D1E1C;stroke-width:2;stroke-miterlimit:10;}
	.st56{fill:#FBD943;stroke:#000100;stroke-width:2;stroke-miterlimit:10;}
	.st57{fill:#F1F1F1;stroke:#1D1D1B;stroke-width:2;stroke-miterlimit:10;}
	.st58{fill:#FF5546;stroke:#1D1D1B;stroke-width:2;stroke-linecap:round;stroke-miterlimit:10;}
	.st59{fill:#FF5546;stroke:#1D1D1B;stroke-width:2;stroke-miterlimit:10;}
	.st60{fill:#FFBE4A;stroke:#1E1E1C;stroke-width:2;stroke-linecap:square;stroke-linejoin:bevel;stroke-miterlimit:10;}
	.st61{stroke:#1D1E1C;stroke-width:2;stroke-miterlimit:10;}
	.st62{fill:#DDA345;}
	.st63{fill:#1E1E1C;}
	.st64{fill:#458353;}
	.st65{fill:#CB3524;stroke:#000000;stroke-width:2;stroke-linecap:round;stroke-linejoin:round;stroke-miterlimit:10;}
	.st66{fill:#DC3D26;stroke:#000000;stroke-width:2;stroke-linecap:round;stroke-linejoin:round;stroke-miterlimit:10;}
	.st67{fill:#1E508B;}
	.st68{fill:#E3AA24;stroke:#000000;stroke-width:2;stroke-linecap:round;stroke-linejoin:round;stroke-miterlimit:10;}
	.st69{fill:#3CA3DB;}
	.st70{fill:#E78476;stroke:#000000;stroke-width:2;stroke-linecap:round;stroke-linejoin:round;stroke-miterlimit:10;}
	.st71{fill:#D2756C;}
	.st72{fill:#C0BFBE;stroke:#1D1E1C;stroke-width:2;stroke-linecap:round;stroke-linejoin:round;stroke-miterlimit:10;}
	.st73{fill:#F4F4F2;stroke:#1D1E1C;stroke-width:2;stroke-linecap:round;stroke-linejoin:round;stroke-miterlimit:10;}
	.st74{fill:#FFF6EF;stroke:#1D1E1C;stroke-width:2;stroke-linecap:round;stroke-linejoin:round;stroke-miterlimit:10;}
	.st75{fill:#F3A9A6;}
	.st76{fill:#1EAF9A;}
	.st77{fill:#EE828F;}
	.st78{fill:#A4C3C6;}
	.st79{fill:#FAD04D;}
	.st80{fill:none;stroke:#1D1E1C;stroke-width:2;stroke-miterlimit:10;}
	.st81{fill:#F3A9A6;stroke:#1D1E1C;stroke-width:2;stroke-miterlimit:10;}
	.st82{fill:#FFFFFF;stroke:#1D1D1B;stroke-width:2;stroke-linecap:round;stroke-linejoin:round;stroke-miterlimit:10;}
	.st83{fill:#E2D0B3;stroke:#1D1D1B;stroke-width:2;stroke-linecap:round;stroke-linejoin:round;stroke-miterlimit:10;}
	.st84{fill:#C6B399;stroke:#1D1D1B;stroke-width:2;stroke-linecap:round;stroke-linejoin:round;stroke-miterlimit:10;}
	.st85{fill:#9B9A9A;stroke:#1D1D1B;stroke-width:2;stroke-linecap:round;stroke-linejoin:round;stroke-miterlimit:10;}
	.st86{fill:#B7B3B3;stroke:#1D1D1B;stroke-width:2;stroke-linecap:round;stroke-linejoin:round;stroke-miterlimit:10;}
	.st87{fill:#DADADA;stroke:#1D1D1B;stroke-width:2;stroke-linecap:round;stroke-linejoin:round;stroke-miterlimit:10;}
	.st88{fill:#A6C5C8;stroke:#1D1D1B;stroke-width:2;stroke-linecap:round;stroke-linejoin:round;stroke-miterlimit:10;}
	.st89{fill:#39ADAC;stroke:#1D1D1B;stroke-width:2;stroke-linecap:round;stroke-linejoin:round;stroke-miterlimit:10;}
	.st90{fill:#713662;stroke:#1D1D1B;stroke-width:2;stroke-linecap:round;stroke-linejoin:round;stroke-miterlimit:10;}
	.st91{fill:#363A5D;stroke:#1D1D1B;stroke-width:2;stroke-linecap:round;stroke-linejoin:round;stroke-miterlimit:10;}
	.st92{fill:#FF5546;stroke:#1D1D1B;stroke-width:2;stroke-linecap:round;stroke-linejoin:round;stroke-miterlimit:10;}
	.st93{fill:#DF5165;stroke:#1D1D1B;stroke-width:2;stroke-linecap:round;stroke-linejoin:round;stroke-miterlimit:10;}
	.st94{fill:#00B69E;stroke:#1D1D1B;stroke-width:2;stroke-linecap:round;stroke-linejoin:round;stroke-miterlimit:10;}
	.st95{fill:#FAD14D;stroke:#1D1D1B;stroke-width:2;stroke-linecap:round;stroke-linejoin:round;stroke-miterlimit:10;}
	.st96{fill:#00A9CF;stroke:#1D1D1B;stroke-width:2;stroke-linecap:round;stroke-linejoin:round;stroke-miterlimit:10;}
	.st97{fill:#4EB9AC;stroke:#000100;stroke-width:2;stroke-linecap:round;stroke-linejoin:round;stroke-miterlimit:10;}
	.st98{fill:#4EB9AC;}
	.st99{fill:none;stroke:#000100;stroke-width:2;stroke-linecap:round;stroke-linejoin:round;stroke-miterlimit:10;}
	.st100{fill:#FFFFFF;stroke:#000000;stroke-width:2;stroke-linecap:round;stroke-linejoin:round;stroke-miterlimit:10;}
	.st101{fill:#FFFFFF;stroke:#1D1D1B;stroke-width:2;stroke-miterlimit:10;}
	.st102{fill:#FFFFFF;stroke:#1D1D1B;stroke-width:2;stroke-linecap:round;stroke-miterlimit:10;}
	.st103{fill:#1D1D1B;stroke:#1D1D1B;stroke-width:2;stroke-miterlimit:10;}
	.st104{fill:#1D1D1B;stroke:#FFFFFF;stroke-width:2;stroke-miterlimit:10;}
	.st105{fill:#E1E6E1;stroke:#1D1D1B;stroke-width:2;stroke-linecap:round;stroke-linejoin:round;stroke-miterlimit:10;}
	.st106{fill:none;stroke:#010101;stroke-width:2;stroke-linecap:round;stroke-linejoin:round;stroke-miterlimit:10;}
	.st107{fill:#ECD9DF;stroke:#1D1D1B;stroke-width:2;stroke-linecap:round;stroke-linejoin:round;stroke-miterlimit:10;}
	.st108{stroke:#000000;stroke-width:2;stroke-linecap:round;stroke-linejoin:round;stroke-miterlimit:10;}
	.st109{fill:#B7707A;stroke:#1D1D1B;stroke-width:2;stroke-linecap:round;stroke-linejoin:round;stroke-miterlimit:10;}
	.st110{fill:#E58B95;stroke:#1D1D1B;stroke-width:2;stroke-linecap:round;stroke-linejoin:round;stroke-miterlimit:10;}
	.st111{fill:#68999B;stroke:#1D1D1B;stroke-width:2;stroke-linecap:round;stroke-linejoin:round;stroke-miterlimit:10;}
	.st112{fill:#F2C74E;stroke:#000100;stroke-width:2;stroke-linecap:round;stroke-linejoin:round;stroke-miterlimit:10;}
	.st113{fill:#BC973B;stroke:#000100;stroke-width:2;stroke-linecap:round;stroke-linejoin:round;stroke-miterlimit:10;}
	.st114{fill:#646563;stroke:#1D1D1B;stroke-width:2;stroke-linecap:round;stroke-linejoin:round;stroke-miterlimit:10;}
	.st115{fill:#B6803D;stroke:#1D1D1B;stroke-width:2;stroke-linecap:round;stroke-linejoin:round;stroke-miterlimit:10;}
	.st116{fill:#F6B456;stroke:#1D1D1B;stroke-width:2;stroke-linecap:round;stroke-linejoin:round;stroke-miterlimit:10;}
	.st117{fill:#EC716B;stroke:#1D1D1B;stroke-width:2;stroke-linecap:round;stroke-linejoin:round;stroke-miterlimit:10;}
	.st118{fill:#0B434C;stroke:#1D1D1B;stroke-width:2;stroke-linecap:round;stroke-linejoin:round;stroke-miterlimit:10;}
	.st119{fill:#1D1D1B;stroke:#1D1D1B;stroke-width:2;stroke-linecap:round;stroke-linejoin:round;stroke-miterlimit:10;}
	.st120{fill:#1D1D1B;stroke:#1D1D1B;stroke-miterlimit:10;}
	.st121{fill:#F3A5AC;stroke:#010101;stroke-width:2;stroke-linecap:round;stroke-linejoin:round;stroke-miterlimit:10;}
	.st122{fill:#A6D3B6;stroke:#010101;stroke-width:2;stroke-linecap:round;stroke-linejoin:round;stroke-miterlimit:10;}
	.st123{fill:#A5C4C7;stroke:#010101;stroke-width:2;stroke-linecap:round;stroke-linejoin:round;stroke-miterlimit:10;}
	.st124{fill:#FAD14E;stroke:#010101;stroke-width:2;stroke-linecap:round;stroke-linejoin:round;stroke-miterlimit:10;}
	.st125{fill:#4F79A4;stroke:#1D1E1C;stroke-width:2;stroke-linecap:round;stroke-linejoin:round;stroke-miterlimit:10;}
	.st126{fill:#ED716A;stroke:#1D1E1C;stroke-width:2;stroke-miterlimit:10;}
	.st127{fill:#A8B8DC;stroke:#1D1E1C;stroke-width:2;stroke-linecap:round;stroke-linejoin:round;stroke-miterlimit:10;}
	.st128{fill:#65C0BC;stroke:#1D1E1C;stroke-width:2;stroke-linecap:round;stroke-linejoin:round;stroke-miterlimit:10;}
	.st129{fill:#C2C4C2;stroke:#1D1D1B;stroke-width:2;stroke-linecap:round;stroke-linejoin:round;stroke-miterlimit:10;}
	.st130{fill:#AAB0B5;stroke:#1D1D1B;stroke-width:2;stroke-miterlimit:10;}
	.st131{fill:#D3C2A3;stroke:#1D1D1B;stroke-width:2;stroke-linecap:square;stroke-linejoin:bevel;stroke-miterlimit:10;}
	.st132{stroke:#1D1D1B;stroke-width:2;stroke-miterlimit:10;}
	.st133{fill:#D5DCE4;stroke:#1D1D1B;stroke-width:2;stroke-miterlimit:10;}
	.st134{fill:none;stroke:#FFFFFF;stroke-width:2;stroke-linecap:round;stroke-linejoin:round;stroke-miterlimit:10;}
	.st135{fill:#5080A2;stroke:#1D1D1B;stroke-width:2;stroke-linecap:round;stroke-linejoin:round;stroke-miterlimit:10;}
	.st136{fill:#6094C0;stroke:#1D1D1B;stroke-width:2;stroke-linecap:round;stroke-linejoin:round;stroke-miterlimit:10;}
	.st137{fill:#5688AA;stroke:#1D1D1B;stroke-width:2;stroke-linecap:square;stroke-linejoin:bevel;stroke-miterlimit:10;}
	.st138{fill:#F3C43E;stroke:#1D1D1B;stroke-width:2;stroke-linecap:round;stroke-linejoin:round;stroke-miterlimit:10;}
	.st139{fill:#FABB4B;stroke:#1D1D1B;stroke-width:2;stroke-linecap:round;stroke-linejoin:round;stroke-miterlimit:10;}
	.st140{fill:#FFFFFF;stroke:#1D1D1B;stroke-width:2;stroke-linecap:square;stroke-linejoin:bevel;stroke-miterlimit:10;}
	.st141{fill:#61B675;stroke:#1D1D1B;stroke-width:2;stroke-linecap:square;stroke-linejoin:bevel;stroke-miterlimit:10;}
	.st142{fill:#37AB72;stroke:#1D1D1B;stroke-width:2;stroke-linecap:round;stroke-linejoin:round;stroke-miterlimit:10;}
	.st143{fill:none;stroke:#1D1D1B;stroke-width:2;stroke-linecap:round;stroke-miterlimit:10;}
	.st144{fill:#EDDEBC;stroke:#1D1D1B;stroke-width:2;stroke-linecap:square;stroke-linejoin:bevel;stroke-miterlimit:10;}
	.st145{fill:none;}
	.st146{fill:#52B47D;stroke:#1D1D1B;stroke-width:2;stroke-linecap:round;stroke-linejoin:round;stroke-miterlimit:10;}
	.st147{fill:#2E8D5C;stroke:#1D1D1B;stroke-width:2;stroke-linecap:round;stroke-linejoin:round;stroke-miterlimit:10;}
	.st148{opacity:0.25;fill:none;stroke:#FFFFFF;stroke-width:2;stroke-linecap:round;stroke-linejoin:round;stroke-miterlimit:10;}
	.st149{fill:none;stroke:#1D1D1B;stroke-width:2;stroke-linecap:square;stroke-linejoin:bevel;stroke-miterlimit:10;}
	.st150{fill:#E9554B;stroke:#1D1D1B;stroke-width:2;stroke-miterlimit:10;}
	.st151{fill:#E9524B;stroke:#1D1D1B;stroke-width:2;stroke-linecap:round;stroke-linejoin:round;stroke-miterlimit:10;}
	.st152{fill:#EB6661;stroke:#1D1D1B;stroke-width:2;stroke-miterlimit:10;}
	.st153{opacity:0.2;fill:#1D1D1B;}
	
		.st154{opacity:9.000000e-02;fill:none;stroke:#FFFFFF;stroke-width:2;stroke-linecap:round;stroke-linejoin:round;stroke-miterlimit:10;}
	.st155{fill:#FAD04E;stroke:#1D1D1B;stroke-width:2;stroke-linecap:round;stroke-linejoin:round;stroke-miterlimit:10;}
	.st156{fill:#E5BD4A;stroke:#1D1D1B;stroke-width:2;stroke-linecap:round;stroke-linejoin:round;stroke-miterlimit:10;}
	.st157{fill:#B68235;stroke:#1D1D1B;stroke-width:2;stroke-linecap:round;stroke-linejoin:round;stroke-miterlimit:10;}
	.st158{fill:#D2BFB9;stroke:#1D1D1B;stroke-width:2;stroke-linecap:round;stroke-linejoin:round;stroke-miterlimit:10;}
	.st159{fill:#DADAD2;}
	.st160{clip-path:url(#SVGID_6_);}
	.st161{fill:#308C89;}
	.st162{fill:#333333;}
	.st163{fill:#F0584D;}
	.st164{fill:#FAD14D;}
	.st165{fill:#3CA4DC;}
	.st166{clip-path:url(#SVGID_8_);}
	.st167{fill:#D8B144;}
	.st168{fill:#3290BA;}
	.st169{fill:#D84B48;}
	.st170{fill:#E6DDEE;stroke:#1D1E1C;stroke-width:2;stroke-linecap:square;stroke-linejoin:bevel;stroke-miterlimit:10;}
	.st171{fill:#F1F1F1;stroke:#1D1E1C;stroke-width:2;stroke-miterlimit:10;}
	.st172{fill:#F3BC12;stroke:#010101;stroke-width:2;stroke-linecap:round;stroke-linejoin:round;stroke-miterlimit:10;}
	.st173{fill:#FCD28C;stroke:#1D1E1C;stroke-width:2;stroke-linecap:round;stroke-linejoin:round;stroke-miterlimit:10;}
	.st174{fill:#ED706A;stroke:#1D1E1C;stroke-width:2;stroke-linecap:round;stroke-linejoin:round;stroke-miterlimit:10;}
	.st175{fill:#CB615E;stroke:#1D1E1C;stroke-width:2;stroke-linecap:round;stroke-linejoin:round;stroke-miterlimit:10;}
	.st176{fill:#F7CCC1;stroke:#1D1D1B;stroke-width:2;stroke-linecap:round;stroke-linejoin:round;stroke-miterlimit:10;}
	.st177{fill:#FF4B3C;stroke:#1D1E1C;stroke-width:2;stroke-linecap:round;stroke-linejoin:round;stroke-miterlimit:10;}
	.st178{fill:#F0F0F0;stroke:#1D1E1C;stroke-width:2;stroke-linecap:round;stroke-linejoin:round;stroke-miterlimit:10;}
	.st179{fill:#F9EFE2;stroke:#1D1E1C;stroke-width:2;stroke-linecap:round;stroke-linejoin:round;stroke-miterlimit:10;}
	.st180{fill:#9AC7AA;stroke:#1D1D1B;stroke-width:2;stroke-linecap:round;stroke-linejoin:round;stroke-miterlimit:10;}
	.st181{fill:#A2CFD6;stroke:#1D1D1B;stroke-width:2;stroke-linecap:round;stroke-linejoin:round;stroke-miterlimit:10;}
	.st182{fill:#E799A0;}
	.st183{opacity:0.41;fill:#A2CFD6;}
</style>
<g>
	<g>
		<path class="st60" d="M82.8,96c12-20.4,38.2-27.5,58.5-15.8c20.4,11.7,27.2,37.8,15.2,58.2c-12,20.4-38.2,27.5-58.5,15.8
			C77.7,142.5,70.9,116.4,82.8,96z"/>
	</g>
	<g>
		<path class="st61" d="M99,89.9c-0.6,0.8-1,1.7-1.3,2.2c-3.9,8.1-7.9,16.2-11.8,24.3c-0.5,1-0.8,2.5,0.2,3c0.8,0.4,1.7-0.3,2.3-0.9
			c4.1-4.2,7.6-9.1,10.2-14.3c1.2-2.3,6.9-13.9,3.3-15.6C100.7,88.1,99.7,88.9,99,89.9z"/>
		<path class="st61" d="M121,101.5c-0.6,0.8-1,1.7-1.3,2.2c-3.9,8.1-7.9,16.2-11.8,24.3c-0.5,1-0.8,2.5,0.2,3
			c0.8,0.4,1.7-0.3,2.3-0.9c4.1-4.2,7.6-9.1,10.2-14.3c1.2-2.3,6.9-13.9,3.3-15.6C122.7,99.8,121.7,100.6,121,101.5z"/>
		<g>
			<g>
				<path class="st62" d="M85.3,119.4c-0.3,0-0.5-0.1-0.7-0.2c-1.3-0.7-1.6-2.4-0.6-4.3l11.8-24.3c0.3-0.6,0.8-1.6,1.4-2.4
					c0.9-1.2,1.9-1.8,2.9-1.8c0.4,0,0.7,0.1,1.1,0.2c0.7,0.3,1.5,1,1.7,2.6c0.1,0.4-0.1,0.8-0.4,1c-0.2,0.1-0.4,0.2-0.6,0.2
					c-0.2,0-0.4,0-0.5-0.1l0.4-0.9l-0.5,0.9c-0.1,0-0.2,0-0.2,0c-0.4,0-0.8,0.4-1.4,1c-0.5,0.7-0.9,1.5-1.2,2.1l-11.8,24.3
					c-0.2,0.4-0.3,0.8-0.4,1.1c-0.1,0.5-0.5,0.9-1,0.9C85.4,119.4,85.3,119.4,85.3,119.4z"/>
				<path class="st63" d="M100.2,87.3c0.2,0,0.4,0,0.7,0.1c0.7,0.3,1,0.9,1.2,1.8c-0.1,0-0.1-0.1-0.2-0.1c-0.2-0.1-0.4-0.1-0.7-0.1
					c-0.8,0-1.5,0.6-2.1,1.4c-0.6,0.8-1,1.7-1.3,2.2c-3.9,8.1-7.9,16.2-11.8,24.3c-0.2,0.4-0.4,0.9-0.4,1.4c-0.1,0-0.2,0-0.4-0.1
					c-1-0.5-0.7-2-0.2-3c3.9-8.1,7.9-16.2,11.8-24.3c0.3-0.6,0.7-1.5,1.3-2.2C98.7,87.9,99.4,87.3,100.2,87.3 M100.2,85.3
					L100.2,85.3c-1.4,0-2.6,0.7-3.7,2.2c-0.7,0.9-1.2,1.9-1.5,2.6L89,102.2l-5.9,12.1c-1.2,2.5-0.8,4.8,1.1,5.7
					c0.3,0.2,0.6,0.3,1,0.3c0.1,0,0.2,0,0.2,0c1,0,1.8-0.7,2-1.7c0-0.2,0.1-0.5,0.3-0.8l5.5-11.4l6.3-12.9c0.3-0.5,0.7-1.3,1.1-1.9
					c0.3-0.3,0.4-0.5,0.6-0.6c0.3,0.1,0.6,0.2,0.9,0.2c0.4,0,0.8-0.1,1.1-0.3c0.6-0.4,1-1.2,0.9-2c-0.3-2.1-1.6-3-2.3-3.3
					C101.2,85.4,100.7,85.3,100.2,85.3L100.2,85.3L100.2,85.3z"/>
			</g>
			<g>
				<path class="st62" d="M107,131.1c-0.3,0-0.5-0.1-0.7-0.2c-1.3-0.7-1.6-2.4-0.6-4.3l11.8-24.3c0.3-0.6,0.8-1.6,1.4-2.4
					c0.9-1.2,1.9-1.8,2.9-1.8c0.4,0,0.7,0.1,1.1,0.2c0.7,0.3,1.5,1,1.7,2.6c0.1,0.4-0.1,0.8-0.4,1c-0.2,0.1-0.4,0.2-0.6,0.2
					c-0.2,0-0.4,0-0.5-0.1l0.4-0.9l-0.5,0.9c-0.1,0-0.2,0-0.2,0c-0.4,0-0.8,0.4-1.4,1c-0.5,0.7-0.9,1.5-1.2,2.1l-11.8,24.3
					c-0.2,0.4-0.3,0.8-0.4,1.1c-0.1,0.5-0.5,0.9-1,0.9C107,131.1,107,131.1,107,131.1z"/>
				<path class="st63" d="M121.9,99.1c0.2,0,0.4,0,0.7,0.1c0.7,0.3,1,0.9,1.2,1.8c-0.1,0-0.1-0.1-0.2-0.1c-0.2-0.1-0.4-0.1-0.7-0.1
					c-0.8,0-1.5,0.6-2.1,1.4c-0.6,0.8-1,1.7-1.3,2.2c-3.9,8.1-7.9,16.2-11.8,24.3c-0.2,0.4-0.4,0.9-0.4,1.4c-0.1,0-0.2,0-0.4-0.1
					c-1-0.5-0.7-2-0.2-3c3.9-8.1,7.9-16.2,11.8-24.3c0.3-0.6,0.7-1.5,1.3-2.2C120.3,99.7,121.1,99.1,121.9,99.1 M121.9,97.1
					C121.9,97.1,121.9,97.1,121.9,97.1c-1.4,0-2.6,0.7-3.7,2.2c-0.7,0.9-1.2,1.9-1.5,2.6l-9.6,19.6l-2.3,4.6
					c-1.2,2.5-0.8,4.8,1.1,5.7c0.3,0.2,0.6,0.3,1,0.3c0.1,0,0.2,0,0.3,0c1,0,1.8-0.7,2-1.7c0-0.2,0.1-0.5,0.3-0.8l3.9-7.9l8-16.4
					c0.3-0.5,0.7-1.3,1.1-1.9c0.3-0.3,0.4-0.5,0.5-0.6c0.3,0.1,0.6,0.2,0.9,0.2c0.4,0,0.8-0.1,1.1-0.3c0.6-0.4,1-1.2,0.9-2
					c-0.3-2.1-1.6-3-2.3-3.3C122.9,97.2,122.4,97.1,121.9,97.1L121.9,97.1L121.9,97.1z"/>
			</g>
		</g>
	</g>
	<g>
		<g>
			<path d="M98.4,126.4c-1.6,0.2-3.2,0.1-4.6,0.9c-2.7,1.7-0.8,4.1-1.5,6.6c-0.5,1.9-2.4,2.7-3.3,4.3c-1.8,3-0.2,6.7,0.2,10
				c0.2,1.7-1.2,3.6-0.8,5.2c0.5,2,1.4,2.8,1.1,5c-0.2,1.9-1,7.3,1.5,7.4c3.4,0.1,2.1-3.3,2.6-5.4c0.7-3.1,2.6-2.9,4-5.7
				c1-1.9-0.4-5.3,0.6-7.1c1-1.7,4.1-2.4,5.1-4.3c1.5-2.8,2.2-5.5,4.2-8c1.9-2.4,4.6-4.8,5-8c0.4-2.7-0.8-6.2-3.9-6.2
				c-3.4,0-5.9,3.8-8.9,4.9C99.3,126.2,98.8,126.3,98.4,126.4z"/>
		</g>
	</g>
	
		<ellipse transform="matrix(0.763 -0.6465 0.6465 0.763 -29.5692 115.5976)" class="st57" cx="142.8" cy="98.1" rx="7.1" ry="12.5"/>
</g>
</svg>
