<?xml version="1.0" encoding="utf-8"?>
<!-- Generator: Adobe Illustrator 19.1.0, SVG Export Plug-In . SVG Version: 6.00 Build 0)  -->
<svg version="1.1" id="Capa_1" xmlns="http://www.w3.org/2000/svg" xmlns:xlink="http://www.w3.org/1999/xlink" x="0px" y="0px"
	 viewBox="-181 305.7 231.2 231.2" style="enable-background:new -181 305.7 231.2 231.2;" xml:space="preserve">
<style type="text/css">
	.st0{fill:#FBD943;stroke:#1D1E1C;stroke-width:2;stroke-linecap:round;stroke-linejoin:round;stroke-miterlimit:10;}
	.st1{fill:#D1B43B;stroke:#1D1E1C;stroke-width:2;stroke-linecap:round;stroke-linejoin:round;stroke-miterlimit:10;}
	.st2{fill:none;stroke:#1D1E1C;stroke-width:2;stroke-linecap:round;stroke-linejoin:round;stroke-miterlimit:10;}
</style>
<g>
	<path class="st0" d="M-31,395.5c-0.3-0.8-0.5-1.7-0.5-2.4c-0.3-4,2-8-0.4-11.4c-0.7-1-2-1.7-2.6-2.8c-0.5-0.8-0.5-1.6-0.5-2.6
		c0-2.1-0.6-3.5-1.7-5.1c-2.6-4.4-8.3-4.2-12.7-2.8c-1.6,0.5-4,0.7-5.6,0c-6.2-3-15.1-4.8-21.6-1.4c-4.5,2.3-8.2,8.6-11.9,12.2
		c-5.7,5.6-10.2,12.4-12.3,20c-2,7.2-3.3,14.7-4.4,22.1c-0.3,3.1-0.7,6.2-1,9.2c-3.3,23.9,13.5,46,37.5,49.2s46-13.5,49.2-37.5
		C-16.6,425.9-29.9,397.9-31,395.5z"/>
	<ellipse class="st1" cx="-84.2" cy="437.4" rx="11.5" ry="22.9"/>
	<path class="st1" d="M-55.2,381.6c-0.7-1.3-1.7-2.4-2.7-3.1c-2.9-2.1-6.8-2.4-10.2-1.5c-5.4,1.6-8.3,5.6-11.1,10
		c-2.6,4.2-8.3,5.9-9.9,10.8c-0.6,1.9-0.5,4.2,0.6,5.9c1.7,2.5,5.4,3.1,8.1,2c2.7-1.2,4.8-3.6,6.2-6.3c0.8-1.7,1.6-3.5,2.8-4.8
		c4.3-4.8,10.4,1.7,15.2-2.1C-53,390-53.3,385.2-55.2,381.6z"/>
	<path class="st2" d="M-45.7,383.8c0,0,8.9-1.2,10.7-6.8"/>
</g>
</svg>
