<?xml version="1.0" encoding="utf-8"?>
<!-- Generator: Adobe Illustrator 19.1.0, SVG Export Plug-In . SVG Version: 6.00 Build 0)  -->
<svg version="1.1" id="Capa_1" xmlns="http://www.w3.org/2000/svg" xmlns:xlink="http://www.w3.org/1999/xlink" x="0px" y="0px"
	 viewBox="0 0 90.8 117.8" style="enable-background:new 0 0 90.8 117.8;" xml:space="preserve">
<style type="text/css">
	.st0{fill:#FBD943;stroke:#1D1E1C;stroke-width:2;stroke-linecap:round;stroke-linejoin:round;stroke-miterlimit:10;}
	.st1{fill:#D1B43B;stroke:#1D1E1C;stroke-width:2;stroke-linecap:round;stroke-linejoin:round;stroke-miterlimit:10;}
	.st2{fill:none;stroke:#1D1E1C;stroke-width:2;stroke-linecap:round;stroke-linejoin:round;stroke-miterlimit:10;}
</style>
<g>
	<path class="st0" d="M75,33.6c-0.3-0.8-0.5-1.6-0.5-2.3c-0.3-3.8,1.9-7.6-0.4-10.9c-0.7-1-1.9-1.6-2.5-2.7
		c-0.5-0.8-0.5-1.5-0.5-2.5c0-2-0.6-3.3-1.6-4.9c-2.5-4.2-7.9-4-12.1-2.7c-1.5,0.5-3.8,0.7-5.3,0c-5.9-2.9-14.4-4.6-20.6-1.3
		c-4.3,2.2-7.8,8.2-11.3,11.6c-5.4,5.3-9.7,11.8-11.7,19.1c-1.9,6.9-3.1,14-4.2,21.1C4,61.1,3.6,64,3.3,66.9
		c-3.1,22.8,12.9,43.8,35.7,46.9c22.8,3.1,43.8-12.9,46.9-35.7C88.8,62.5,76.1,35.8,75,33.6z"/>
	<ellipse class="st1" cx="24.4" cy="73.5" rx="11" ry="21.8"/>
	<path class="st1" d="M52,20.3c-0.7-1.2-1.6-2.3-2.6-3c-2.8-2-6.5-2.3-9.7-1.4c-5.1,1.5-7.9,5.3-10.6,9.5c-2.5,4-7.9,5.6-9.4,10.3
		c-0.6,1.8-0.5,4,0.6,5.6c1.6,2.4,5.1,3,7.7,1.9s4.6-3.4,5.9-6c0.8-1.6,1.5-3.3,2.7-4.6c4.1-4.6,9.9,1.6,14.5-2
		C54.1,28.3,53.8,23.7,52,20.3z"/>
	<path class="st2" d="M61,22.4c0,0,8.5-1.1,10.2-6.5"/>
</g>
</svg>
