<?xml version="1.0" encoding="utf-8"?>
<!-- Generator: Adobe Illustrator 19.1.0, SVG Export Plug-In . SVG Version: 6.00 Build 0)  -->
<svg version="1.1" id="Capa_1" xmlns="http://www.w3.org/2000/svg" xmlns:xlink="http://www.w3.org/1999/xlink" x="0px" y="0px"
	 viewBox="-843 425.8 231.2 231.2" style="enable-background:new -843 425.8 231.2 231.2;" xml:space="preserve">
<style type="text/css">
	.st0{fill:#FBD943;stroke:#1D1E1C;stroke-width:2;stroke-linecap:round;stroke-linejoin:round;stroke-miterlimit:10;}
	.st1{fill:#D1B43B;stroke:#1D1E1C;stroke-width:2;stroke-linecap:round;stroke-linejoin:round;stroke-miterlimit:10;}
	.st2{fill:none;stroke:#1D1E1C;stroke-width:2;stroke-linecap:round;stroke-linejoin:round;stroke-miterlimit:10;}
	.st3{fill:#4D4C4C;stroke:#1D1E1C;stroke-width:2;stroke-linecap:round;stroke-linejoin:round;stroke-miterlimit:10;}
	.st4{fill:#383838;stroke:#1D1E1C;stroke-width:2;stroke-linecap:round;stroke-linejoin:round;stroke-miterlimit:10;}
</style>
<g>
	<g>
		<path class="st0" d="M-690.4,515.5c-0.2-0.7-0.4-1.3-0.4-1.8c-0.3-3,1.5-6.1-0.3-8.8c-0.6-0.8-1.5-1.3-2.1-2.2
			c-0.4-0.7-0.4-1.2-0.4-2c0-1.6-0.5-2.6-1.4-4c-2.1-3.4-6.5-3.2-10-2.1c-1.2,0.4-3.2,0.6-4.4,0c-4.9-2.3-12-3.7-17.1-1.1
			c-3.6,1.8-6.5,6.6-9.4,9.4c-4.4,4.3-8.1,9.5-9.7,15.5c-1.6,5.6-2.6,11.3-3.5,17.1c-0.4,2.3-0.7,4.6-0.9,6.9
			c-2.6,18.4,10.7,35.4,29.6,37.9c18.9,2.5,36.3-10.4,38.9-28.8C-679.1,538.8-689.6,517.3-690.4,515.5z"/>
		<ellipse class="st1" cx="-734.5" cy="547.1" rx="8.3" ry="14.5"/>
		<path class="st1" d="M-712.2,504.7c-0.5-0.9-1.2-1.6-1.9-2.2c-2.1-1.4-4.8-1.7-7.3-1c-3.8,1.1-5.9,3.8-7.9,6.9
			c-1.9,2.9-5.9,4.1-7,7.5c-0.5,1.3-0.4,2.9,0.4,4.1c1.2,1.7,3.8,2.2,5.8,1.4c2-0.8,3.4-2.5,4.4-4.4c0.6-1.2,1.1-2.4,2-3.4
			c3.1-3.3,7.4,1.2,10.8-1.5C-710.6,510.5-710.8,507.1-712.2,504.7z"/>
		<path class="st2" d="M-702.1,506.4c0,0,7.1-0.9,8.4-5.3"/>
	</g>
	<g>
		<g>
			<path class="st3" d="M-773.4,568.8c2-14.5,15.8-24.7,30.7-22.7c14.9,2,25.3,15.3,23.3,29.9c-2,14.5-15.8,24.7-30.7,22.7
				C-765,596.6-775.5,583.3-773.4,568.8z"/>
		</g>
		<path class="st4" d="M-750,570c-4.7,5.5-11.2,7.8-14.4,5.1c-3.2-2.7-2-9.2,2.7-14.7c4.7-5.5,11.2-7.8,14.4-5.1
			C-744,558-745.3,564.5-750,570z"/>
	</g>
</g>
</svg>
