<?xml version="1.0" encoding="utf-8"?>
<!-- Generator: Adobe Illustrator 19.1.0, SVG Export Plug-In . SVG Version: 6.00 Build 0)  -->
<svg version="1.1" id="Capa_1" xmlns="http://www.w3.org/2000/svg" xmlns:xlink="http://www.w3.org/1999/xlink" x="0px" y="0px"
	 viewBox="0 0 254.2 252.4" style="enable-background:new 0 0 254.2 252.4;" xml:space="preserve">
<style type="text/css">
	.st0{fill:#EE9695;}
	.st1{opacity:0.26;fill:#1D1D1B;}
	.st2{fill:#DADAD2;stroke:#1D1D1B;stroke-width:2;stroke-linecap:round;stroke-linejoin:round;stroke-miterlimit:10;}
	.st3{fill:#1D1D1B;stroke:#1D1D1B;stroke-width:2;stroke-linecap:round;stroke-linejoin:round;stroke-miterlimit:10;}
	.st4{fill:#C1C1BF;stroke:#1D1D1B;stroke-width:2;stroke-linecap:round;stroke-linejoin:round;stroke-miterlimit:10;}
	.st5{fill:#FAD843;stroke:#1D1E1C;stroke-width:2;stroke-linecap:round;stroke-linejoin:round;stroke-miterlimit:10;}
	.st6{clip-path:url(#SVGID_2_);}
	.st7{fill:#DADAD2;stroke:#1D1D1B;stroke-width:2;stroke-miterlimit:10;}
	.st8{fill:none;stroke:#1D1E1C;stroke-width:2;stroke-miterlimit:10;}
	.st9{fill:#77C6C7;stroke:#1D1D1B;stroke-width:2;stroke-linecap:round;stroke-linejoin:round;stroke-miterlimit:10;}
	.st10{fill:none;stroke:#000000;stroke-width:2;stroke-miterlimit:10;}
	.st11{fill:#F0F0F0;stroke:#1D1E1C;stroke-width:2;stroke-miterlimit:10;}
	.st12{fill:#DBBD3E;stroke:#1D1E1C;stroke-width:1.5;stroke-miterlimit:10;}
	.st13{fill:#F0F0F0;stroke:#1D1E1C;stroke-width:1.5;stroke-miterlimit:10;}
	.st14{fill:#DADAD2;stroke:#1D1D1B;stroke-width:1.5;stroke-linecap:round;stroke-linejoin:round;stroke-miterlimit:10;}
	.st15{opacity:0.23;}
	.st16{fill:#FAD844;stroke:#1D1E1C;stroke-width:1.5;stroke-miterlimit:10;}
	.st17{fill:#FFFFFF;stroke:#000000;stroke-width:1.5;stroke-miterlimit:10;}
	.st18{fill:#BBBABA;stroke:#1D1D1B;stroke-width:2;stroke-linecap:square;stroke-miterlimit:10;}
	.st19{fill:#C1C1BF;stroke:#1D1D1B;stroke-width:1.5;stroke-linecap:round;stroke-linejoin:round;stroke-miterlimit:10;}
	.st20{fill:#AFAFA8;stroke:#1D1D1B;stroke-width:1.5;stroke-linecap:round;stroke-linejoin:round;stroke-miterlimit:10;}
	.st21{fill:#1D1D1B;}
	.st22{fill:#C1C1BF;}
	.st23{opacity:0.21;fill:#1D1E1C;}
	.st24{fill:#FFF8F1;stroke:#1D1E1C;stroke-width:2;stroke-linecap:round;stroke-linejoin:round;stroke-miterlimit:10;}
	.st25{fill:#D3B63C;stroke:#1D1E1C;stroke-width:2;stroke-linecap:round;stroke-linejoin:round;stroke-miterlimit:10;}
	.st26{fill:#FFFFFF;stroke:#1D1D1B;stroke-width:2;stroke-miterlimit:10;}
	.st27{enable-background:new    ;}
	.st28{fill:#E84E42;stroke:#1D1E1C;stroke-width:2;stroke-linecap:round;stroke-linejoin:round;stroke-miterlimit:10;}
	.st29{fill:#549E9A;stroke:#000000;stroke-width:2;stroke-linecap:round;stroke-linejoin:round;stroke-miterlimit:10;}
	.st30{fill:#65C1BE;stroke:#000000;stroke-width:2;stroke-linecap:round;stroke-linejoin:round;stroke-miterlimit:10;}
	.st31{opacity:0.2;fill:#1D1D1B;}
	.st32{fill:#333333;stroke:#1D1D1B;stroke-width:2;stroke-linecap:square;stroke-miterlimit:10;}
	.st33{opacity:0.2;}
	.st34{fill:#1D1E1C;stroke:#1D1E1C;stroke-width:2;stroke-linecap:round;stroke-linejoin:round;stroke-miterlimit:10;}
	.st35{fill:#4AC0EE;stroke:#1D1E1C;stroke-width:2;stroke-linecap:round;stroke-linejoin:round;stroke-miterlimit:10;}
	.st36{opacity:0.21;}
	.st37{fill:#1D1E1C;}
	.st38{fill:#FFFFFF;stroke:#1D1D1B;stroke-width:2;stroke-linecap:round;stroke-linejoin:round;stroke-miterlimit:10;}
	.st39{fill:#8F8D8E;stroke:#1D1D1B;stroke-width:2;stroke-linecap:round;stroke-linejoin:round;stroke-miterlimit:10;}
	.st40{fill:#549E9A;stroke:#000000;stroke-width:2;stroke-miterlimit:10;}
	.st41{clip-path:url(#SVGID_4_);}
	.st42{clip-path:url(#SVGID_6_);}
	.st43{fill:none;stroke:#1D1D1B;stroke-width:2;stroke-linecap:round;stroke-linejoin:round;stroke-miterlimit:10;}
	.st44{fill:#AFAFA8;stroke:#1D1D1B;stroke-width:2;stroke-linecap:round;stroke-linejoin:round;stroke-miterlimit:10;}
	.st45{clip-path:url(#SVGID_8_);}
	.st46{fill:#FAD843;}
	.st47{clip-path:url(#SVGID_10_);}
	.st48{opacity:0.21;fill:#1D1D1B;}
	.st49{fill:none;stroke:#1D1E1C;stroke-width:2;stroke-linecap:round;stroke-linejoin:round;stroke-miterlimit:10;}
	.st50{fill:#3D94CE;stroke:#1D1D1B;stroke-width:2;stroke-linecap:round;stroke-linejoin:round;stroke-miterlimit:10;}
	.st51{fill:#D2AA45;stroke:#000000;stroke-width:1.5;stroke-linecap:round;stroke-linejoin:round;stroke-miterlimit:10;}
	.st52{opacity:0.2;fill:#1D1E1C;}
	.st53{fill:#ECC24D;stroke:#000000;stroke-width:1.5;stroke-linecap:round;stroke-linejoin:round;stroke-miterlimit:10;}
	.st54{fill:#FFF5EE;stroke:#000000;stroke-width:1.5;stroke-linecap:round;stroke-linejoin:round;stroke-miterlimit:10;}
	.st55{fill:#0F100F;stroke:#000000;stroke-width:1.5;stroke-linecap:round;stroke-linejoin:round;stroke-miterlimit:10;}
	.st56{fill:#62B3B0;stroke:#000000;stroke-width:1.5;stroke-linecap:round;stroke-linejoin:round;stroke-miterlimit:10;}
	.st57{fill:#539592;stroke:#000000;stroke-width:1.5;stroke-linecap:round;stroke-linejoin:round;stroke-miterlimit:10;}
	.st58{fill:#E74E42;stroke:#000000;stroke-width:1.5;stroke-linecap:round;stroke-linejoin:round;stroke-miterlimit:10;}
	.st59{fill:#CCCCCB;stroke:#000000;stroke-width:1.5;stroke-linecap:round;stroke-linejoin:round;stroke-miterlimit:10;}
	.st60{fill:#B3B2B0;stroke:#000000;stroke-width:1.5;stroke-linecap:round;stroke-linejoin:round;stroke-miterlimit:10;}
	.st61{fill:url(#);stroke:#000000;stroke-width:1.5;stroke-linecap:round;stroke-linejoin:round;stroke-miterlimit:10;}
	.st62{fill:#65C1BE;stroke:#1D1E1C;stroke-width:2;stroke-miterlimit:10;}
	.st63{clip-path:url(#SVGID_12_);}
</style>
<g>
	<circle class="st46" cx="126.9" cy="126" r="123.9"/>
	<g>
		<defs>
			<circle id="SVGID_11_" cx="126.9" cy="126" r="123.9"/>
		</defs>
		<clipPath id="SVGID_2_">
			<use xlink:href="#SVGID_11_"  style="overflow:visible;"/>
		</clipPath>
		<g class="st6">
			<path class="st2" d="M51.1,227.9c1.9-6.6,4.5-12.4,9.9-17.2c5.9-5.3,14.5-8.9,21.6-12.2c6-2.8,13.5-4.5,15.3-11.9
				c1.9-8-1.9-17.3-5.5-24.3c-11.8-23.3-14.4-59.8,8.2-78.1c20.3-16.4,49.9-6.3,58.4,17.5c7.2,20.1,3.4,44.6-4.7,63.9
				c-0.6,1.4-1.2,2.8-1.9,4.2c-1,2.1-2.2,4.2-3.4,6.2c-7.7,13.3,11.7,21,11.7,21c12.3,6,11.9,5.2,19.6,9.6c5.6,3.2,11,7,15.1,12
				c4.7,5.7,7,12.4,9.2,19.3c0,0-63,42.1-155,0.3C49.1,238,50.8,228.8,51.1,227.9z"/>
			<path class="st9" d="M162.5,108.3c-0.1,0-0.1,0-0.2,0c-44.6,11.2-72.9,4.7-78.9,3.1c-0.7-0.2-1.1-0.9-1-1.6l1.1-6.6
				c0.1-0.8,0.9-1.3,1.7-1.1c6.3,1.8,32.4,7.6,73.4-3.3c0.7-0.2,1.5,0.2,1.7,1L162.5,108.3z"/>
			<path class="st2" d="M127.3,184.8c2.7,0.3,5.4,0.5,8.1,0.5c36.2,0,65.5-29.3,65.5-65.5s-29.3-65.5-65.5-65.5
				s-65.5,29.3-65.5,65.5c0,27,16.4,50.2,39.7,60.3"/>
			<path class="st48" d="M50.2,232.3c-0.3,1.2-1.4,3.8-0.9,5c0.2,0.4,2.9,2.7,3.1,2.1c9.2-27.5,41.7-44.8,69.3-46
				c2.7-0.1,15.5,1.5,15.6-3.1c0.1-3.3-2.2-4.5-4.6-5c1,0,2,0.1,3,0.1c4.6,0,9.2-0.5,13.6-1.4l-14.4-3.9
				c-23.4-10-39.7-33.2-39.7-60.3c0-15.2,5.2-29.2,13.8-40.3c0.7-0.6,1.1-0.9,1.1-0.9s-0.3,0.2-0.7,0.4c9.5-12,23.2-20.6,38.8-23.6
				c-4.1-0.8-8.2-1.2-12.5-1.2c-36.2,0-65.5,29.3-65.5,65.5c0,21.7,10.5,40.9,26.8,52.8c1.9,6.2,2.9,14.4-2.3,19.6
				c-2.2,2.2-5.1,3.7-7.9,5c-6.1,2.9-11.9,5.2-17.9,8.4c-3.7,2-6.3,3.5-9.2,6.7c-1.7,1.9-3.2,4-4.4,6.3
				C52.9,222.9,51.4,227.5,50.2,232.3z"/>
			<g>
				<path class="st11" d="M146.7,67.2c-0.5,0.4-0.9,0.8-1.3,1.4c-3.4,5.8,7.3,13.3,10.9,16.2c4.8,3.9,16.4,13.7,23.1,10.2
					c8-4.3-4.5-15.4-7.7-18.7C165.8,70.1,155.5,60.9,146.7,67.2z"/>
				<path class="st11" d="M189.1,100.3c2.7,2.2,4.5,5.1,4.5,8.7c0,11.1-25.8-5.4-11.1-9.7C185.4,98.4,187.5,98.9,189.1,100.3z"/>
			</g>
		</g>
	</g>
	<circle class="st49" cx="126.9" cy="126" r="123.9"/>
</g>
</svg>
