<?xml version="1.0" encoding="utf-8"?>
<!-- Generator: Adobe Illustrator 21.0.0, SVG Export Plug-In . SVG Version: 6.00 Build 0)  -->
<svg version="1.1" id="Layer_1" xmlns="http://www.w3.org/2000/svg" xmlns:xlink="http://www.w3.org/1999/xlink" x="0px" y="0px"
	 viewBox="0 0 109.1 109.2" style="enable-background:new 0 0 109.1 109.2;" xml:space="preserve">
<style type="text/css">
	.st0{fill:#50C1EC;}
	.st1{fill:none;stroke:#000000;stroke-width:3;stroke-miterlimit:10;}
	.st2{opacity:0.75;}
	.st3{fill:#3E93AD;stroke:#3E93AD;stroke-width:2;stroke-miterlimit:10;}
	.st4{fill:#B2B2B2;stroke:#000000;stroke-width:2;stroke-miterlimit:10;}
	.st5{fill:#898989;stroke:#000000;stroke-width:2;stroke-miterlimit:10;}
</style>
<g>
	<g>
		<rect x="3.5" y="3.6" class="st0" width="102" height="102"/>
		<rect x="3.5" y="3.6" class="st1" width="102" height="102"/>
	</g>
	<g>
		<g class="st2">
			<rect x="27.7" y="43.9" class="st3" width="48.3" height="48.3"/>
			<polygon class="st3" points="52,43.9 83,43.9 79,34 51.5,34 24.1,34 20.1,43.9 51.1,43.9 			"/>
			<polygon class="st3" points="64.5,34 64.5,23 38.5,23 38.5,34 43.9,34 43.9,27.5 59.2,27.5 59.2,34 			"/>
			<rect x="35.8" y="54.5" class="st3" width="6.6" height="31.6"/>
			<rect x="48.6" y="54.5" class="st3" width="6.6" height="31.6"/>
			<rect x="61.3" y="54.5" class="st3" width="6.6" height="31.6"/>
		</g>
		<g>
			<g>
				<rect x="30.7" y="40.9" class="st4" width="48.3" height="48.3"/>
				<polygon class="st4" points="55,40.9 86,40.9 82,31 54.5,31 27.1,31 23.1,40.9 54.1,40.9 				"/>
				<polygon class="st4" points="67.5,31 67.5,20 41.5,20 41.5,31 46.9,31 46.9,24.5 62.2,24.5 62.2,31 				"/>
				<g>
					<rect x="38.8" y="51.5" class="st5" width="6.6" height="31.6"/>
					<rect x="51.6" y="51.5" class="st5" width="6.6" height="31.6"/>
					<rect x="64.3" y="51.5" class="st5" width="6.6" height="31.6"/>
				</g>
			</g>
		</g>
	</g>
</g>
</svg>
