<?xml version="1.0" encoding="utf-8"?>
<!-- Generator: Adobe Illustrator 21.0.0, SVG Export Plug-In . SVG Version: 6.00 Build 0)  -->
<svg version="1.1" id="Layer_1" xmlns="http://www.w3.org/2000/svg" xmlns:xlink="http://www.w3.org/1999/xlink" x="0px" y="0px"
	 viewBox="0 0 105 105" style="enable-background:new 0 0 105 105;" xml:space="preserve">
<style type="text/css">
	.st0{fill:#50C1EC;}
	.st1{fill:none;stroke:#000000;stroke-width:3;stroke-miterlimit:10;}
	.st2{opacity:0.75;}
	.st3{fill:#3E93AD;stroke:#3E93AD;stroke-width:2;stroke-miterlimit:10;}
	.st4{fill:#B2B2B2;stroke:#000000;stroke-width:2;stroke-miterlimit:10;}
	.st5{fill:#898989;stroke:#000000;stroke-width:2;stroke-miterlimit:10;}
</style>
<g>
	<g>
		<rect x="1.5" y="1.5" class="st0" width="102" height="102"/>
		<rect x="1.5" y="1.5" class="st1" width="102" height="102"/>
	</g>
	<g>
		<g class="st2">
			<rect x="25.7" y="41.8" class="st3" width="48.3" height="48.3"/>
			<polygon class="st3" points="50,41.8 81,41.8 77,31.9 49.5,31.9 22.1,31.9 18.1,41.8 49.1,41.8 			"/>
			<polygon class="st3" points="62.5,31.9 62.5,20.9 36.5,20.9 36.5,31.9 41.9,31.9 41.9,25.4 57.2,25.4 57.2,31.9 			"/>
			<rect x="33.8" y="52.4" class="st3" width="6.6" height="31.6"/>
			<rect x="46.6" y="52.4" class="st3" width="6.6" height="31.6"/>
			<rect x="59.3" y="52.4" class="st3" width="6.6" height="31.6"/>
		</g>
		<g>
			<g>
				<rect x="28.7" y="38.8" class="st4" width="48.3" height="48.3"/>
				<polygon class="st4" points="53,38.8 84,38.8 80,28.9 52.5,28.9 25.1,28.9 21.1,38.8 52.1,38.8 				"/>
				<polygon class="st4" points="65.5,28.9 65.5,17.9 39.5,17.9 39.5,28.9 44.9,28.9 44.9,22.4 60.2,22.4 60.2,28.9 				"/>
				<g>
					<rect x="36.8" y="49.4" class="st5" width="6.6" height="31.6"/>
					<rect x="49.6" y="49.4" class="st5" width="6.6" height="31.6"/>
					<rect x="62.3" y="49.4" class="st5" width="6.6" height="31.6"/>
				</g>
			</g>
		</g>
	</g>
</g>
</svg>
