<?xml version="1.0" encoding="utf-8"?>
<!-- Generator: Adobe Illustrator 21.0.0, SVG Export Plug-In . SVG Version: 6.00 Build 0)  -->
<svg version="1.1" id="Layer_1" xmlns="http://www.w3.org/2000/svg" xmlns:xlink="http://www.w3.org/1999/xlink" x="0px" y="0px"
	 viewBox="0 0 105 105" style="enable-background:new 0 0 105 105;" xml:space="preserve">
<style type="text/css">
	.st0{fill:#545454;}
	.st1{fill:none;stroke:#000000;stroke-width:3;stroke-miterlimit:10;}
	.st2{opacity:0.75;}
	.st3{fill:#2B2B2B;}
	.st4{fill:#FED400;}
	.st5{fill:#ED5B47;}
	.st6{fill:#48B942;}
	.st7{fill:#639DD7;}
</style>
<g>
	<g>
		<rect x="1.5" y="1.5" class="st0" width="102" height="102"/>
		<rect x="1.5" y="1.5" class="st1" width="102" height="102"/>
	</g>
	<g>
		<g class="st2">
			<path class="st3" d="M50.3,94.3c1.2-2.1,2.4-4.1,3.5-6.1c1.4-2.4,2.8-4.8,4.2-7.2c2.6-4.5,5.2-9,7.8-13.5
				c5.5-9.7,4.3-18.6-3.5-26h10.6c4.2,0,8.3,0,12.5,0l0,0c1,0,1.2,0.2,1.6,1.1c4.4,11.6,2.9,24.5-4,35.2c-7,10.6-18,17.2-30.3,18
				c-1,0.1-2,0.1-3.2,0.1h-0.2L50.3,94.3z"/>
			<path class="st3" d="M85.4,42.5c0.2,0,0.3,0,0.4,0c0,0.1,0.1,0.2,0.2,0.4c4.3,11.3,2.9,23.8-3.9,34.3
				C75.4,87.6,64.7,94,52.7,94.8c-0.5,0-1,0.1-1.5,0.1v-0.1c1.2-2.1,2.4-4.1,3.5-6.1c1.4-2.4,2.7-4.7,4.1-7.1
				c2.6-4.4,5.2-9,7.8-13.6c5.3-9.2,4.5-18.2-2-25.5h0.1h4h4C76.5,42.5,80.9,42.5,85.4,42.5L85.4,42.5 M85.4,40.5
				C85.3,40.5,85.3,40.5,85.4,40.5c-4.2,0-8.4,0-12.6,0c-2.7,0-5.4,0-8.1,0c-1.2,0-2.3,0-3.5,0c-0.4,0-0.8,0.1-1.4,0.2
				c9,7.3,10.7,16.4,5.1,26.3c-3.9,6.9-8,13.8-11.9,20.7c-1.7,2.9-3.4,5.9-5.4,9.3c2.1-0.1,3.6-0.1,5.2-0.2
				c26.6-1.7,44.5-29.6,35.1-54.6C87.3,40.9,86.7,40.5,85.4,40.5L85.4,40.5z"/>
			<path class="st3" d="M28.1,48.1c-3-5.1-6.1-10.4-9-15.7c-0.2-0.4-0.3-1.3-0.1-1.5c7.6-9.1,18.7-14.4,30.5-14.4
				c14.3,0,27.5,7.6,34.5,20h-6.6c-1.6,0-5.7,0-5.7,0c-2.1,0-4.1,0-6.2,0s-4.1,0-6.2,0c-3.9,0-7.1,0.1-10.1,0.2
				c-9.8,0.5-16.3,5.8-18.9,15.3C30.3,52,28.1,48.1,28.1,48.1z"/>
			<path class="st3" d="M49.5,15.6v2c13.3,0,25.7,6.8,32.8,18h-1h-4c-1.6,0-3.2,0-4.8,0h-0.8c-2.1,0-4.1,0-6.2,0s-4.1,0-6.2,0
				c-4,0-7.2,0.1-10.1,0.2c-9.5,0.5-16,5.3-19.1,13.9l-1.2-2c-3-5.1-6-10.4-9-15.6c-0.1-0.1-0.1-0.4-0.1-0.6
				c7.4-8.8,18.2-13.8,29.6-13.8L49.5,15.6 M49.5,15.6c-11.5,0-23,4.8-31.3,14.8c-0.4,0.5-0.3,1.9,0.1,2.6c3.7,6.5,7.5,13,11.2,19.5
				c0.4,0.7,0.8,1.4,1.4,2.3c0.1-0.7,0.2-1.1,0.3-1.5c2.3-9.6,8.3-15,18.2-15.5c3.3-0.2,6.7-0.2,10-0.2c4.1,0,8.3,0.1,12.4,0.1
				c0.3,0,0.5,0,0.8,0c1.6,0,3.2,0,4.8,0c2.6,0,5.3,0,8.1,0c-0.1-0.5,0-0.7-0.1-0.8C77.7,22.9,63.6,15.6,49.5,15.6L49.5,15.6z"/>
			<path class="st3" d="M42.5,95.3c-16.2-2.3-30.4-17-32.4-33.5C9,52.6,10.6,44.3,15,36.5c0-0.1,0.1-0.2,0.1-0.2s3.3,5.6,4.5,7.7
				c1.3,2.3,2.7,4.6,4,6.9c3,5.2,6.1,10.7,9.4,15.8c3.8,5.8,9.4,9,15.9,9l0,0c2.1,0,4.2-0.3,6.4-1l-1.4,2.4
				C50.4,83.2,47,89,43.6,94.8c-0.1,0.1-0.6,0.3-1.1,0.3C42.6,95.3,42.6,95.3,42.5,95.3z"/>
			<path class="st3" d="M15.2,38.3L15.2,38.3c1.3,2.2,2.4,4.2,3.6,6.2c1.3,2.3,2.7,4.6,4,6.9c3,5.3,6.1,10.7,9.5,15.9
				c3.9,6.1,9.9,9.5,16.8,9.5c1.4,0,2.9-0.1,4.4-0.4l-0.3,0.5c-3.5,6-6.7,11.7-10.1,17.4c-0.1,0-0.3,0.1-0.3,0.1
				c-15.7-2.2-29.6-16.5-31.6-32.6C10,53.2,11.4,45.5,15.2,38.3 M15.2,34.4c-0.5,0.8-0.8,1.2-1,1.6c-4.6,8.1-6.2,16.7-5,25.9
				c2,17,16.5,32,33.2,34.4c0.1,0,0.2,0,0.2,0c0.7,0,1.7-0.3,2-0.8c4.3-7.2,8.5-14.5,12.9-22.2c-0.7,0.2-1,0.2-1.3,0.3
				c-2.5,0.8-4.9,1.2-7.2,1.2c-6.1,0-11.4-2.9-15.1-8.6c-4.8-7.4-9-15.1-13.4-22.7C18.8,40.6,17,37.6,15.2,34.4L15.2,34.4z"/>
			<path class="st3" d="M49.5,70.8c-4,0-7.7-1.5-10.4-4.3c-2.7-2.7-4.2-6.4-4.2-10.3c0.1-8,6.6-14.5,14.5-14.5h0.2
				c8,0.1,14.5,6.7,14.5,14.6C64.1,64.4,57.7,70.8,49.5,70.8L49.5,70.8z"/>
			<path class="st3" d="M49.4,40.7v2h0.2c7.4,0.1,13.5,6.2,13.5,13.5c0,7.6-6,13.5-13.6,13.5c-3.7,0-7.2-1.4-9.7-4s-3.9-5.9-3.9-9.5
				C36,48.7,42,42.7,49.4,42.7V40.7 M49.4,40.7c-8.4,0-15.4,7-15.5,15.5c-0.1,8.6,6.9,15.6,15.6,15.6l0,0c8.7,0,15.6-6.8,15.6-15.5
				c0-8.5-6.9-15.4-15.5-15.6C49.6,40.7,49.5,40.7,49.4,40.7L49.4,40.7z"/>
		</g>
		<g>
			<g>
				<g>
					<path class="st4" d="M53.3,91.3c1.2-2.1,2.4-4.1,3.5-6.1c1.4-2.4,2.8-4.8,4.2-7.2c2.6-4.5,5.2-9,7.8-13.5
						c5.5-9.7,4.3-18.6-3.5-26h10.6c4.2,0,8.3,0,12.5,0l0,0c1,0,1.2,0.2,1.6,1.1c4.4,11.6,2.9,24.5-4,35.2c-7,10.6-18,17.2-30.3,18
						c-1,0.1-2,0.1-3.2,0.1h-0.2L53.3,91.3z"/>
					<path d="M88.4,39.5c0.2,0,0.3,0,0.4,0c0,0.1,0.1,0.2,0.2,0.4c4.3,11.3,2.9,23.8-3.9,34.3C78.4,84.6,67.7,91,55.7,91.8
						c-0.5,0-1,0.1-1.5,0.1v-0.1c1.2-2.1,2.4-4.1,3.5-6.1c1.4-2.4,2.7-4.7,4.1-7.1c2.6-4.4,5.2-9,7.8-13.6c5.3-9.2,4.5-18.2-2-25.5
						h0.1h4h4C79.5,39.5,83.9,39.5,88.4,39.5L88.4,39.5 M88.4,37.5C88.3,37.5,88.3,37.5,88.4,37.5c-4.2,0-8.4,0-12.6,0
						c-2.7,0-5.4,0-8.1,0c-1.2,0-2.3,0-3.5,0c-0.4,0-0.8,0.1-1.4,0.2c9,7.3,10.7,16.4,5.1,26.3c-3.9,6.9-8,13.8-11.9,20.7
						c-1.7,2.9-3.4,5.9-5.4,9.3c2.1-0.1,3.6-0.1,5.2-0.2c26.6-1.7,44.5-29.6,35.1-54.6C90.3,37.9,89.7,37.5,88.4,37.5L88.4,37.5z"/>
				</g>
				<g>
					<path class="st5" d="M31.1,45.1c-3-5.1-6.1-10.4-9-15.7c-0.2-0.4-0.3-1.3-0.1-1.5c7.6-9.1,18.7-14.4,30.5-14.4
						c14.3,0,27.5,7.6,34.5,20h-6.6c-1.6,0-5.7,0-5.7,0c-2.1,0-4.1,0-6.2,0s-4.1,0-6.2,0c-3.9,0-7.1,0.1-10.1,0.2
						c-9.8,0.5-16.3,5.8-18.9,15.3C33.3,49,31.1,45.1,31.1,45.1z"/>
					<path d="M52.5,12.6v2c13.3,0,25.7,6.8,32.8,18h-1h-4c-1.6,0-3.2,0-4.8,0h-0.8c-2.1,0-4.1,0-6.2,0s-4.1,0-6.2,0
						c-4,0-7.2,0.1-10.1,0.2c-9.5,0.5-16,5.3-19.1,13.9l-1.2-2c-3-5.1-6-10.4-9-15.6c-0.1-0.1-0.1-0.4-0.1-0.6
						c7.4-8.8,18.2-13.8,29.6-13.8L52.5,12.6 M52.5,12.6c-11.5,0-23,4.8-31.3,14.8c-0.4,0.5-0.3,1.9,0.1,2.6
						c3.7,6.5,7.5,13,11.2,19.5c0.4,0.7,0.8,1.4,1.4,2.3c0.1-0.7,0.2-1.1,0.3-1.5c2.3-9.6,8.3-15,18.2-15.5c3.3-0.2,6.7-0.2,10-0.2
						c4.1,0,8.3,0.1,12.4,0.1c0.3,0,0.5,0,0.8,0c1.6,0,3.2,0,4.8,0c2.6,0,5.3,0,8.1,0c-0.1-0.5,0-0.7-0.1-0.8
						C80.7,19.9,66.6,12.6,52.5,12.6L52.5,12.6z"/>
				</g>
				<g>
					<path class="st6" d="M45.5,92.3c-16.2-2.3-30.4-17-32.4-33.5C12,49.6,13.6,41.3,18,33.5c0-0.1,0.1-0.2,0.1-0.2s3.3,5.6,4.5,7.7
						c1.3,2.3,2.7,4.6,4,6.9c3,5.2,6.1,10.7,9.4,15.8c3.8,5.8,9.4,9,15.9,9l0,0c2.1,0,4.2-0.3,6.4-1l-1.4,2.4
						C53.4,80.2,50,86,46.6,91.8c-0.1,0.1-0.6,0.3-1.1,0.3C45.6,92.3,45.6,92.3,45.5,92.3z"/>
					<path d="M18.2,35.3L18.2,35.3c1.3,2.2,2.4,4.2,3.6,6.2c1.3,2.3,2.7,4.6,4,6.9c3,5.3,6.1,10.7,9.5,15.9
						c3.9,6.1,9.9,9.5,16.8,9.5c1.4,0,2.9-0.1,4.4-0.4l-0.3,0.5c-3.5,6-6.7,11.7-10.1,17.4c-0.1,0-0.3,0.1-0.3,0.1
						c-15.7-2.2-29.6-16.5-31.6-32.6C13,50.2,14.4,42.5,18.2,35.3 M18.2,31.4c-0.5,0.8-0.8,1.2-1,1.6c-4.6,8.1-6.2,16.7-5,25.9
						c2,17,16.5,32,33.2,34.4c0.1,0,0.2,0,0.2,0c0.7,0,1.7-0.3,2-0.8c4.3-7.2,8.5-14.5,12.9-22.2c-0.7,0.2-1,0.2-1.3,0.3
						c-2.5,0.8-4.9,1.2-7.2,1.2c-6.1,0-11.4-2.9-15.1-8.6c-4.8-7.4-9-15.1-13.4-22.7C21.8,37.6,20,34.6,18.2,31.4L18.2,31.4z"/>
				</g>
				<g>
					<path class="st7" d="M52.5,67.8c-4,0-7.7-1.5-10.4-4.3c-2.7-2.7-4.2-6.4-4.2-10.3c0.1-8,6.6-14.5,14.5-14.5h0.2
						c8,0.1,14.5,6.7,14.5,14.6C67.1,61.4,60.7,67.8,52.5,67.8L52.5,67.8z"/>
					<path d="M52.4,37.7v2h0.2c7.4,0.1,13.5,6.2,13.5,13.5c0,7.6-6,13.5-13.6,13.5c-3.7,0-7.2-1.4-9.7-4s-3.9-5.9-3.9-9.5
						C39,45.7,45,39.7,52.4,39.7V37.7 M52.4,37.7c-8.4,0-15.4,7-15.5,15.5c-0.1,8.6,6.9,15.6,15.6,15.6l0,0
						c8.7,0,15.6-6.8,15.6-15.5c0-8.5-6.9-15.4-15.5-15.6C52.6,37.7,52.5,37.7,52.4,37.7L52.4,37.7z"/>
				</g>
			</g>
		</g>
	</g>
</g>
</svg>
