<?xml version="1.0" encoding="utf-8"?>
<!-- Generator: Adobe Illustrator 21.0.0, SVG Export Plug-In . SVG Version: 6.00 Build 0)  -->
<svg version="1.1" id="Layer_1" xmlns="http://www.w3.org/2000/svg" xmlns:xlink="http://www.w3.org/1999/xlink" x="0px" y="0px"
	 viewBox="0 0 109.1 109.2" style="enable-background:new 0 0 109.1 109.2;" xml:space="preserve">
<style type="text/css">
	.st0{fill:#545454;}
	.st1{fill:none;stroke:#000000;stroke-width:3;stroke-miterlimit:10;}
	.st2{opacity:0.75;}
	.st3{fill:#2B2B2B;}
	.st4{fill:#FED400;}
	.st5{fill:#ED5B47;}
	.st6{fill:#48B942;}
	.st7{fill:#639DD7;}
</style>
<g>
	<g>
		<rect x="3.5" y="3.6" class="st0" width="102" height="102"/>
		<rect x="3.5" y="3.6" class="st1" width="102" height="102"/>
	</g>
	<g>
		<g class="st2">
			<path class="st3" d="M52.3,96.4c1.2-2.1,2.4-4.1,3.5-6.1c1.4-2.4,2.8-4.8,4.2-7.2c2.6-4.5,5.2-9,7.8-13.5
				c5.5-9.7,4.3-18.6-3.5-26h10.6c4.2,0,8.3,0,12.5,0l0,0c1,0,1.2,0.2,1.6,1.1c4.4,11.6,2.9,24.5-4,35.2c-7,10.6-18,17.2-30.3,18
				c-1,0.1-2,0.1-3.2,0.1h-0.2L52.3,96.4z"/>
			<path class="st3" d="M87.4,44.6c0.2,0,0.3,0,0.4,0c0,0.1,0.1,0.2,0.2,0.4c4.3,11.3,2.9,23.8-3.9,34.3
				c-6.7,10.4-17.4,16.8-29.4,17.6c-0.5,0-1,0.1-1.5,0.1v-0.1c1.2-2.1,2.4-4.1,3.5-6.1c1.4-2.4,2.7-4.7,4.1-7.1
				c2.6-4.4,5.2-9,7.8-13.6c5.3-9.2,4.5-18.2-2-25.5h0.1h4h4C78.5,44.6,82.9,44.6,87.4,44.6L87.4,44.6 M87.4,42.6
				C87.3,42.6,87.3,42.6,87.4,42.6c-4.2,0-8.4,0-12.6,0c-2.7,0-5.4,0-8.1,0c-1.2,0-2.3,0-3.5,0c-0.4,0-0.8,0.1-1.4,0.2
				c9,7.3,10.7,16.4,5.1,26.3C63,76,58.9,82.9,55,89.8c-1.7,2.9-3.4,5.9-5.4,9.3c2.1-0.1,3.6-0.1,5.2-0.2
				c26.6-1.7,44.5-29.6,35.1-54.6C89.3,43,88.7,42.6,87.4,42.6L87.4,42.6z"/>
			<path class="st3" d="M30.1,50.2c-3-5.1-6.1-10.4-9-15.7c-0.2-0.4-0.3-1.3-0.1-1.5c7.6-9.1,18.7-14.4,30.5-14.4
				c14.3,0,27.5,7.6,34.5,20h-6.6c-1.6,0-5.7,0-5.7,0c-2.1,0-4.1,0-6.2,0s-4.1,0-6.2,0c-3.9,0-7.1,0.1-10.1,0.2
				c-9.8,0.5-16.3,5.8-18.9,15.3C32.3,54.1,30.1,50.2,30.1,50.2z"/>
			<path class="st3" d="M51.5,17.7v2c13.3,0,25.7,6.8,32.8,18h-1h-4c-1.6,0-3.2,0-4.8,0h-0.8c-2.1,0-4.1,0-6.2,0s-4.1,0-6.2,0
				c-4,0-7.2,0.1-10.1,0.2c-9.5,0.5-16,5.3-19.1,13.9l-1.2-2c-3-5.1-6-10.4-9-15.6c-0.1-0.1-0.1-0.4-0.1-0.6
				c7.4-8.8,18.2-13.8,29.6-13.8L51.5,17.7 M51.5,17.7c-11.5,0-23,4.8-31.3,14.8c-0.4,0.5-0.3,1.9,0.1,2.6c3.7,6.5,7.5,13,11.2,19.5
				c0.4,0.7,0.8,1.4,1.4,2.3c0.1-0.7,0.2-1.1,0.3-1.5c2.3-9.6,8.3-15,18.2-15.5c3.3-0.2,6.7-0.2,10-0.2c4.1,0,8.3,0.1,12.4,0.1
				c0.3,0,0.5,0,0.8,0c1.6,0,3.2,0,4.8,0c2.6,0,5.3,0,8.1,0c-0.1-0.5,0-0.7-0.1-0.8C79.7,25,65.6,17.7,51.5,17.7L51.5,17.7z"/>
			<path class="st3" d="M44.5,97.4c-16.2-2.3-30.4-17-32.4-33.5C11,54.7,12.6,46.4,17,38.6c0-0.1,0.1-0.2,0.1-0.2s3.3,5.6,4.5,7.7
				c1.3,2.3,2.7,4.6,4,6.9c3,5.2,6.1,10.7,9.4,15.8c3.8,5.8,9.4,9,15.9,9l0,0c2.1,0,4.2-0.3,6.4-1l-1.4,2.4
				c-3.5,6.1-6.9,11.9-10.3,17.7c-0.1,0.1-0.6,0.3-1.1,0.3C44.6,97.4,44.6,97.4,44.5,97.4z"/>
			<path class="st3" d="M17.2,40.4L17.2,40.4c1.3,2.2,2.4,4.2,3.6,6.2c1.3,2.3,2.7,4.6,4,6.9c3,5.3,6.1,10.7,9.5,15.9
				c3.9,6.1,9.9,9.5,16.8,9.5c1.4,0,2.9-0.1,4.4-0.4L55.2,79c-3.5,6-6.7,11.7-10.1,17.4c-0.1,0-0.3,0.1-0.3,0.1
				C29.1,94.3,15.2,80,13.2,63.9C12,55.3,13.4,47.6,17.2,40.4 M17.2,36.5c-0.5,0.8-0.8,1.2-1,1.6c-4.6,8.1-6.2,16.7-5,25.9
				c2,17,16.5,32,33.2,34.4c0.1,0,0.2,0,0.2,0c0.7,0,1.7-0.3,2-0.8c4.3-7.2,8.5-14.5,12.9-22.2c-0.7,0.2-1,0.2-1.3,0.3
				c-2.5,0.8-4.9,1.2-7.2,1.2c-6.1,0-11.4-2.9-15.1-8.6c-4.8-7.4-9-15.1-13.4-22.7C20.8,42.7,19,39.7,17.2,36.5L17.2,36.5z"/>
			<path class="st3" d="M51.5,72.9c-4,0-7.7-1.5-10.4-4.3c-2.7-2.7-4.2-6.4-4.2-10.3c0.1-8,6.6-14.5,14.5-14.5h0.2
				c8,0.1,14.5,6.7,14.5,14.6C66.1,66.5,59.7,72.9,51.5,72.9L51.5,72.9z"/>
			<path class="st3" d="M51.4,42.8v2h0.2C59,44.9,65.1,51,65.1,58.3c0,7.6-6,13.5-13.6,13.5c-3.7,0-7.2-1.4-9.7-4s-3.9-5.9-3.9-9.5
				C38,50.8,44,44.8,51.4,44.8V42.8 M51.4,42.8c-8.4,0-15.4,7-15.5,15.5c-0.1,8.6,6.9,15.6,15.6,15.6l0,0c8.7,0,15.6-6.8,15.6-15.5
				c0-8.5-6.9-15.4-15.5-15.6C51.6,42.8,51.5,42.8,51.4,42.8L51.4,42.8z"/>
		</g>
		<g>
			<g>
				<g>
					<path class="st4" d="M55.3,93.4c1.2-2.1,2.4-4.1,3.5-6.1c1.4-2.4,2.8-4.8,4.2-7.2c2.6-4.5,5.2-9,7.8-13.5
						c5.5-9.7,4.3-18.6-3.5-26h10.6c4.2,0,8.3,0,12.5,0l0,0c1,0,1.2,0.2,1.6,1.1c4.4,11.6,2.9,24.5-4,35.2c-7,10.6-18,17.2-30.3,18
						c-1,0.1-2,0.1-3.2,0.1h-0.2L55.3,93.4z"/>
					<path d="M90.4,41.6c0.2,0,0.3,0,0.4,0c0,0.1,0.1,0.2,0.2,0.4c4.3,11.3,2.9,23.8-3.9,34.3c-6.7,10.4-17.4,16.8-29.4,17.6
						c-0.5,0-1,0.1-1.5,0.1v-0.1c1.2-2.1,2.4-4.1,3.5-6.1c1.4-2.4,2.7-4.7,4.1-7.1c2.6-4.4,5.2-9,7.8-13.6c5.3-9.2,4.5-18.2-2-25.5
						h0.1h4h4C81.5,41.6,85.9,41.6,90.4,41.6L90.4,41.6 M90.4,39.6C90.3,39.6,90.3,39.6,90.4,39.6c-4.2,0-8.4,0-12.6,0
						c-2.7,0-5.4,0-8.1,0c-1.2,0-2.3,0-3.5,0c-0.4,0-0.8,0.1-1.4,0.2c9,7.3,10.7,16.4,5.1,26.3C66,73,61.9,79.9,58,86.8
						c-1.7,2.9-3.4,5.9-5.4,9.3c2.1-0.1,3.6-0.1,5.2-0.2c26.6-1.7,44.5-29.6,35.1-54.6C92.3,40,91.7,39.6,90.4,39.6L90.4,39.6z"/>
				</g>
				<g>
					<path class="st5" d="M33.1,47.2c-3-5.1-6.1-10.4-9-15.7c-0.2-0.4-0.3-1.3-0.1-1.5c7.6-9.1,18.7-14.4,30.5-14.4
						c14.3,0,27.5,7.6,34.5,20h-6.6c-1.6,0-5.7,0-5.7,0c-2.1,0-4.1,0-6.2,0s-4.1,0-6.2,0c-3.9,0-7.1,0.1-10.1,0.2
						c-9.8,0.5-16.3,5.8-18.9,15.3C35.3,51.1,33.1,47.2,33.1,47.2z"/>
					<path d="M54.5,14.7v2c13.3,0,25.7,6.8,32.8,18h-1h-4c-1.6,0-3.2,0-4.8,0h-0.8c-2.1,0-4.1,0-6.2,0s-4.1,0-6.2,0
						c-4,0-7.2,0.1-10.1,0.2c-9.5,0.5-16,5.3-19.1,13.9l-1.2-2c-3-5.1-6-10.4-9-15.6c-0.1-0.1-0.1-0.4-0.1-0.6
						c7.4-8.8,18.2-13.8,29.6-13.8L54.5,14.7 M54.5,14.7c-11.5,0-23,4.8-31.3,14.8c-0.4,0.5-0.3,1.9,0.1,2.6
						c3.7,6.5,7.5,13,11.2,19.5c0.4,0.7,0.8,1.4,1.4,2.3c0.1-0.7,0.2-1.1,0.3-1.5c2.3-9.6,8.3-15,18.2-15.5c3.3-0.2,6.7-0.2,10-0.2
						c4.1,0,8.3,0.1,12.4,0.1c0.3,0,0.5,0,0.8,0c1.6,0,3.2,0,4.8,0c2.6,0,5.3,0,8.1,0c-0.1-0.5,0-0.7-0.1-0.8
						C82.7,22,68.6,14.7,54.5,14.7L54.5,14.7z"/>
				</g>
				<g>
					<path class="st6" d="M47.5,94.4c-16.2-2.3-30.4-17-32.4-33.5C14,51.7,15.6,43.4,20,35.6c0-0.1,0.1-0.2,0.1-0.2s3.3,5.6,4.5,7.7
						c1.3,2.3,2.7,4.6,4,6.9c3,5.2,6.1,10.7,9.4,15.8c3.8,5.8,9.4,9,15.9,9l0,0c2.1,0,4.2-0.3,6.4-1l-1.4,2.4
						c-3.5,6.1-6.9,11.9-10.3,17.7c-0.1,0.1-0.6,0.3-1.1,0.3C47.6,94.4,47.6,94.4,47.5,94.4z"/>
					<path d="M20.2,37.4L20.2,37.4c1.3,2.2,2.4,4.2,3.6,6.2c1.3,2.3,2.7,4.6,4,6.9c3,5.3,6.1,10.7,9.5,15.9
						c3.9,6.1,9.9,9.5,16.8,9.5c1.4,0,2.9-0.1,4.4-0.4L58.2,76c-3.5,6-6.7,11.7-10.1,17.4c-0.1,0-0.3,0.1-0.3,0.1
						C32.1,91.3,18.2,77,16.2,60.9C15,52.3,16.4,44.6,20.2,37.4 M20.2,33.5c-0.5,0.8-0.8,1.2-1,1.6c-4.6,8.1-6.2,16.7-5,25.9
						c2,17,16.5,32,33.2,34.4c0.1,0,0.2,0,0.2,0c0.7,0,1.7-0.3,2-0.8c4.3-7.2,8.5-14.5,12.9-22.2c-0.7,0.2-1,0.2-1.3,0.3
						c-2.5,0.8-4.9,1.2-7.2,1.2c-6.1,0-11.4-2.9-15.1-8.6c-4.8-7.4-9-15.1-13.4-22.7C23.8,39.7,22,36.7,20.2,33.5L20.2,33.5z"/>
				</g>
				<g>
					<path class="st7" d="M54.5,69.9c-4,0-7.7-1.5-10.4-4.3c-2.7-2.7-4.2-6.4-4.2-10.3c0.1-8,6.6-14.5,14.5-14.5h0.2
						c8,0.1,14.5,6.7,14.5,14.6C69.1,63.5,62.7,69.9,54.5,69.9L54.5,69.9z"/>
					<path d="M54.4,39.8v2h0.2C62,41.9,68.1,48,68.1,55.3c0,7.6-6,13.5-13.6,13.5c-3.7,0-7.2-1.4-9.7-4s-3.9-5.9-3.9-9.5
						C41,47.8,47,41.8,54.4,41.8V39.8 M54.4,39.8c-8.4,0-15.4,7-15.5,15.5c-0.1,8.6,6.9,15.6,15.6,15.6l0,0
						c8.7,0,15.6-6.8,15.6-15.5c0-8.5-6.9-15.4-15.5-15.6C54.6,39.8,54.5,39.8,54.4,39.8L54.4,39.8z"/>
				</g>
			</g>
		</g>
	</g>
</g>
</svg>
