<?xml version="1.0" encoding="utf-8"?>
<!-- Generator: Adobe Illustrator 19.1.0, SVG Export Plug-In . SVG Version: 6.00 Build 0)  -->
<svg version="1.1" id="Capa_1" xmlns="http://www.w3.org/2000/svg" xmlns:xlink="http://www.w3.org/1999/xlink" x="0px" y="0px"
	 viewBox="-549.9 585 29.7 29.9" style="enable-background:new -549.9 585 29.7 29.9;" xml:space="preserve">
<style type="text/css">
	.st0{fill:#C1C1BF;}
	.st1{fill:#1D1D1B;}
</style>
<g>
	<g>
		<rect x="-548.1" y="586.9" class="st0" width="25.8" height="25.9"/>
		<path class="st1" d="M-522.3,613.8h-25.8c-0.6,0-1-0.4-1-1v-25.9c0-0.6,0.4-1,1-1h25.8c0.6,0,1,0.4,1,1v25.9
			C-521.3,613.4-521.7,613.8-522.3,613.8z M-547.1,611.8h23.8v-23.9h-23.8V611.8z"/>
	</g>
	<g>
		<g>
			<path class="st1" d="M-535.3,603.6c-0.3,0-0.5-0.1-0.7-0.3l-5.5-5.6c-0.4-0.4-0.4-1,0-1.4c0.4-0.4,1-0.4,1.4,0l5.5,5.6
				c0.4,0.4,0.4,1,0,1.4C-534.8,603.5-535,603.6-535.3,603.6z"/>
		</g>
		<g>
			<path class="st1" d="M-535.2,603.6c-0.3,0-0.5-0.1-0.7-0.3c-0.4-0.4-0.4-1,0-1.4l5.6-5.6c0.4-0.4,1-0.4,1.4,0s0.4,1,0,1.4
				l-5.6,5.6C-534.7,603.5-534.9,603.6-535.2,603.6z"/>
		</g>
	</g>
</g>
</svg>
