<?xml version="1.0" encoding="utf-8"?>
<!-- Generator: Adobe Illustrator 21.0.0, SVG Export Plug-In . SVG Version: 6.00 Build 0)  -->
<svg version="1.1" id="Capa_1" xmlns="http://www.w3.org/2000/svg" xmlns:xlink="http://www.w3.org/1999/xlink" x="0px" y="0px"
	 viewBox="0 0 13.2 7.6" style="enable-background:new 0 0 13.2 7.6;" xml:space="preserve">
<style type="text/css">
	.st0{fill:#1D1D1B;}
</style>
<g>
	<g>
		<g>
			<path class="st0" d="M6.5,7.6C6.2,7.6,6,7.5,5.8,7.3L0.3,1.7c-0.4-0.4-0.4-1,0-1.4s1-0.4,1.4,0l5.5,5.6c0.4,0.4,0.4,1,0,1.4
				C7,7.5,6.8,7.6,6.5,7.6z"/>
		</g>
		<g>
			<path class="st0" d="M6.6,7.6c-0.3,0-0.5-0.1-0.7-0.3c-0.4-0.4-0.4-1,0-1.4l5.6-5.6c0.4-0.4,1-0.4,1.4,0s0.4,1,0,1.4L7.3,7.3
				C7.1,7.5,6.9,7.6,6.6,7.6z"/>
		</g>
	</g>
</g>
</svg>
