<?xml version="1.0" encoding="utf-8"?>
<!-- Generator: Adobe Illustrator 21.0.0, SVG Export Plug-In . SVG Version: 6.00 Build 0)  -->
<svg version="1.1" id="Layer_1" xmlns="http://www.w3.org/2000/svg" xmlns:xlink="http://www.w3.org/1999/xlink" x="0px" y="0px"
	 viewBox="0 0 219 167.8" style="enable-background:new 0 0 219 167.8;" xml:space="preserve">
<style type="text/css">
	.st0{opacity:0.26;fill:#1D1E1C;}
	.st1{fill:#DBBD3E;stroke:#1D1E1C;stroke-width:2.85;stroke-miterlimit:10;}
	.st2{opacity:0.23;}
	.st3{fill:#FAD844;stroke:#1D1E1C;stroke-width:2.85;stroke-miterlimit:10;}
</style>
<path class="st0" d="M194.1,41.8l-0.2-0.5c-0.1-0.9-0.6-1.7-1-2.2c-1.9-3.9-5.8-6.4-10.1-6.4H95.6c-3.6,0-6.9-2.1-8.4-5.3l-1.3-2.7
	c-1.7-3.7-5.4-6-9.5-6H28.1c-3.4,0-6.3,2.3-7.2,5.5l-1,3.5c-0.8,3-2.6,5.6-5.1,7.3c-1.9,1.4-3.1,3.6-3.1,6c0,0.1,0,0.3,0,0.4
	c-4.9,1.4-8.4,5.9-8.2,11.2l3.7,101.8c0.2,6,5.2,10.8,11.2,10.8H188c6.1,0,11.1-4.9,11.2-11l2-101.8
	C201.4,47.7,198.4,43.5,194.1,41.8z"/>
<g>
	<path class="st1" d="M23.9,30.5V29c0-2.4,1.2-4.6,3.1-6l0,0c2.5-1.8,4.3-4.4,5.1-7.3l1-3.5C34,8.8,37,6.6,40.4,6.6h48.3
		c4.1,0,7.8,2.3,9.5,6l1.3,2.7c1.5,3.2,4.8,5.3,8.4,5.3h87.3c4.5,0,8.6,2.7,10.4,6.9l1.2,3H23.9z"/>
	<path class="st2" d="M26,24.1l178.7,2.3c0,0,1.9,1.9,1.4,3.8H23.8C23.8,30.1,24,25.2,26,24.1z"/>
	<path class="st3" d="M26.9,28.8h175.4c6.3,0,11.3,5.2,11.2,11.4l-2,101.8c-0.1,6.1-5.1,11-11.2,11H30.6c-6,0-11-4.8-11.2-10.8
		L15.7,40.5C15.4,34.1,20.5,28.8,26.9,28.8z"/>
</g>
</svg>
