<?xml version="1.0" encoding="utf-8"?>
<!-- Generator: Adobe Illustrator 21.0.0, SVG Export Plug-In . SVG Version: 6.00 Build 0)  -->
<svg version="1.1" id="Layer_1" xmlns="http://www.w3.org/2000/svg" xmlns:xlink="http://www.w3.org/1999/xlink" x="0px" y="0px"
	 viewBox="0 0 109.1 109.2" style="enable-background:new 0 0 109.1 109.2;" xml:space="preserve">
<style type="text/css">
	.st0{fill:#3FADAB;}
	.st1{fill:none;stroke:#000000;stroke-width:3;stroke-miterlimit:10;}
	.st2{fill:#2C706C;}
	.st3{fill:#DBBD3E;stroke:#1D1E1C;stroke-width:2.85;stroke-miterlimit:10;}
	.st4{opacity:0.23;enable-background:new    ;}
	.st5{fill:#FAD844;stroke:#1D1E1C;stroke-width:2.85;stroke-miterlimit:10;}
</style>
<g>
	<g>
		<rect x="3.5" y="3.6" class="st0" width="102" height="102"/>
		<rect x="3.5" y="3.6" class="st1" width="102" height="102"/>
	</g>
	<g>
		<path class="st2" d="M87,38.9l-0.1-0.2c0-0.3-0.2-0.6-0.4-0.8c-0.7-1.5-2.2-2.4-3.8-2.4H50.8c-1.4,0-2.7-0.8-3.3-2.1L47,32.3
			c-0.7-1.5-2.1-2.4-3.8-2.4H24c-1.3,0-2.5,0.9-2.9,2.2l-0.4,1.4c-0.3,1.2-1,2.2-2,2.9c-0.8,0.6-1.2,1.4-1.2,2.4l0,0
			c-1.9,0.5-3.2,2.2-3.1,4.3l1.4,38.8c0.1,2.3,2,4.1,4.3,4.1h64.6c2.3,0,4.2-1.9,4.3-4.2L89.7,43C89.8,41.2,88.6,39.6,87,38.9z"/>
		<g>
			<path class="st3" d="M22.3,34.2V34c0-1,0.5-1.8,1.2-2.4l0,0c1-0.7,1.7-1.7,2-2.9l0.4-1.4c0.4-1.3,1.5-2.2,2.9-2.2H48
				c1.6,0,3.1,0.9,3.8,2.4l0.5,1.1c0.6,1.3,1.9,2.1,3.3,2.1h31.9c1.7,0,3.3,1,4,2.5l0.5,1.1L22.3,34.2L22.3,34.2z"/>
			<path class="st4" d="M23,31.9l68,1c0,0,0.7,0.8,0.5,1.6H22.2C22.2,34.4,22.3,32.4,23,31.9z"/>
			<path class="st5" d="M23.2,33.7h67c2.4,0,4.3,2,4.3,4.4L93.8,77c0,2.3-1.9,4.2-4.3,4.2H24.6c-2.3,0-4.2-1.8-4.3-4.1l-1.4-38.9
				C18.8,35.7,20.8,33.7,23.2,33.7z"/>
		</g>
	</g>
</g>
</svg>
