<?xml version="1.0" encoding="utf-8"?>
<!-- Generator: Adobe Illustrator 19.1.0, SVG Export Plug-In . SVG Version: 6.00 Build 0)  -->
<svg version="1.1" id="Capa_1" xmlns="http://www.w3.org/2000/svg" xmlns:xlink="http://www.w3.org/1999/xlink" x="0px" y="0px"
	 viewBox="0 0 311.5 311.5" style="enable-background:new 0 0 311.5 311.5;" xml:space="preserve">
<style type="text/css">
	.st0{fill:#1D1D1B;stroke:#1D1D1B;stroke-width:1.5;stroke-linecap:round;stroke-linejoin:round;stroke-miterlimit:10;}
	.st1{fill:#BBBABA;stroke:#1D1D1B;stroke-width:1.5;stroke-linecap:square;stroke-miterlimit:10;}
	.st2{opacity:0.2;fill:#1D1D1B;}
	.st3{opacity:0.21;fill:#1D1E1C;}
	.st4{fill:#D3B63C;stroke:#1D1E1C;stroke-width:1.5;stroke-linecap:round;stroke-linejoin:round;stroke-miterlimit:10;}
	.st5{fill:#FAD843;stroke:#1D1E1C;stroke-width:1.5;stroke-linecap:round;stroke-linejoin:round;stroke-miterlimit:10;}
	.st6{fill:#E84E42;stroke:#1D1E1C;stroke-width:1.5;stroke-linecap:round;stroke-linejoin:round;stroke-miterlimit:10;}
	.st7{fill:#FFFFFF;stroke:#1D1D1B;stroke-width:1.5;stroke-miterlimit:10;}
	.st8{opacity:0.2;}
	.st9{fill:#1D1D1B;}
	.st10{fill:none;stroke:#1D1E1C;stroke-width:1.5;stroke-miterlimit:10;}
	.st11{fill:#1D1E1C;stroke:#1D1E1C;stroke-width:1.5;stroke-linecap:round;stroke-linejoin:round;stroke-miterlimit:10;}
	.st12{fill:#4AC0EE;stroke:#1D1E1C;stroke-width:1.5;stroke-linecap:round;stroke-linejoin:round;stroke-miterlimit:10;}
	.st13{opacity:0.21;}
	.st14{fill:#1D1E1C;}
	.st15{fill:#FFF8F1;stroke:#1D1E1C;stroke-width:1.5;stroke-linecap:round;stroke-linejoin:round;stroke-miterlimit:10;}
	.st16{fill:#65C1BE;stroke:#000000;stroke-width:1.5;stroke-linecap:round;stroke-linejoin:round;stroke-miterlimit:10;}
	.st17{fill:#FFFFFF;stroke:#1D1D1B;stroke-width:1.5;stroke-linecap:round;stroke-linejoin:round;stroke-miterlimit:10;}
	.st18{fill:#ADADA6;stroke:#1D1D1B;stroke-width:1.5;stroke-linecap:round;stroke-linejoin:round;stroke-miterlimit:10;}
	.st19{fill:#8F8D8E;stroke:#1D1D1B;stroke-width:1.5;stroke-linecap:round;stroke-linejoin:round;stroke-miterlimit:10;}
	.st20{fill:#DADAD2;stroke:#1D1D1B;stroke-width:1.5;stroke-linecap:round;stroke-linejoin:round;stroke-miterlimit:10;}
	.st21{fill:#65C1BE;stroke:#000000;stroke-width:1.5;stroke-miterlimit:10;}
	.st22{fill:#549E9A;stroke:#000000;stroke-width:1.5;stroke-miterlimit:10;}
	.st23{fill:#FFFFFF;}
	.st24{clip-path:url(#SVGID_2_);}
	.st25{fill:#DADAD2;stroke:#1D1D1B;stroke-width:1.5;stroke-miterlimit:10;}
	.st26{fill:#77C6C7;stroke:#1D1D1B;stroke-width:1.5;stroke-linecap:round;stroke-linejoin:round;stroke-miterlimit:10;}
	.st27{fill:none;stroke:#000000;stroke-width:1.5;stroke-miterlimit:10;}
	.st28{fill:#F0F0F0;stroke:#1D1E1C;stroke-width:1.5;stroke-miterlimit:10;}
	.st29{clip-path:url(#SVGID_4_);}
	.st30{fill:#DBBD3E;stroke:#1D1E1C;stroke-width:1.5;stroke-miterlimit:10;}
	.st31{opacity:0.23;}
	.st32{fill:#FAD844;stroke:#1D1E1C;stroke-width:1.5;stroke-miterlimit:10;}
	.st33{fill:none;stroke:#1D1D1B;stroke-width:1.5;stroke-linecap:round;stroke-linejoin:round;stroke-miterlimit:10;}
	.st34{fill:#333333;stroke:#1D1D1B;stroke-width:1.5;stroke-linecap:square;stroke-miterlimit:10;}
	.st35{fill:#FFFFFF;stroke:#1D1D1B;stroke-width:1.55;stroke-miterlimit:10;}
	.st36{fill:none;stroke:#1D1E1C;stroke-width:1.5;stroke-linecap:round;stroke-linejoin:round;stroke-miterlimit:10;}
	.st37{fill:url(#);}
	.st38{fill:#FFFFFF;stroke:#1D1E1C;stroke-width:1.5;stroke-linecap:round;stroke-linejoin:round;stroke-miterlimit:10;}
	.st39{fill:#CC413A;stroke:#1D1E1C;stroke-width:1.5;stroke-linecap:round;stroke-linejoin:round;stroke-miterlimit:10;}
	.st40{opacity:0.26;fill:#1D1E1C;}
	.st41{fill:#EEEEEE;stroke:#1D1E1C;stroke-width:1.5;stroke-miterlimit:10;}
	.st42{fill:#1D1E1C;stroke:#1D1E1C;stroke-width:1.5;stroke-miterlimit:10;}
	.st43{fill:#C1C1BF;stroke:#1D1D1B;stroke-width:1.5;stroke-linecap:round;stroke-linejoin:round;stroke-miterlimit:10;}
	.st44{fill:#AFAFA8;stroke:#1D1D1B;stroke-width:1.5;stroke-linecap:round;stroke-linejoin:round;stroke-miterlimit:10;}
	.st45{fill:#C1C1BF;}
</style>
<ellipse class="st3" cx="139.6" cy="226" rx="67.1" ry="18.8"/>
<g>
	<g>
		<path class="st21" d="M105.1,113.3v105.1h0c0.6,14.2,27.8,25.6,61.4,25.6c33.5,0,60.8-11.4,61.4-25.6h0V113.3H105.1z"/>
		<g class="st13">
			<path class="st14" d="M118.2,112.5v107c0,13.1,23.4,23.9,53.2,25.4c-2.4,0.1-3.8,0.2-6.3,0.2c-33.2,0-58.9-11.5-58.9-25.6v-107
				H118.2z"/>
		</g>
	</g>
	<path class="st22" d="M171.3,225.6L171.3,225.6c-2.6,0-4.8-2.1-4.8-4.8v-67.4c0-2.6,2.1-4.8,4.8-4.8h0c2.6,0,4.8,2.1,4.8,4.8v67.4
		C176,223.5,173.9,225.6,171.3,225.6z"/>
	<path class="st22" d="M134.4,211.8L134.4,211.8c-2.3,0-4.2-1.9-4.2-4.2v-59.1c0-2.3,1.9-4.2,4.2-4.2l0,0c2.3,0,4.2,1.9,4.2,4.2
		v59.1C138.6,209.9,136.7,211.8,134.4,211.8z"/>
	<path class="st22" d="M208.1,211.8L208.1,211.8c-2.3,0-4.2-1.9-4.2-4.2v-59.1c0-2.3,1.9-4.2,4.2-4.2l0,0c2.3,0,4.2,1.9,4.2,4.2
		v59.1C212.3,209.9,210.4,211.8,208.1,211.8z"/>
</g>
<g>
	<ellipse class="st22" cx="166.5" cy="106.9" rx="60.3" ry="25.6"/>
	<g>
		<path class="st16" d="M166.5,135.8c-35.6,0-63.5-12.7-63.5-28.8c0-16.2,27.9-28.8,63.5-28.8c35.6,0,63.5,12.7,63.5,28.8
			C230,123.1,202.1,135.8,166.5,135.8z M166.5,84.6c-27,0-57.1,9.2-57.1,22.3c0,13.2,30.1,22.3,57.1,22.3s57.1-9.2,57.1-22.3
			C223.5,93.8,193.5,84.6,166.5,84.6z"/>
	</g>
</g>
<path class="st5" d="M209.7,102.8c-2.9-1.6-6.2-1.9-9-3.6c-3.6-2.2-4.2-7.2-5.7-11.1c-2.7-6.8-9-11.4-15-15.5
	c-4.8-3.4-10.4-6.9-16.2-5.6c-4.3,1-7.5,4.4-10.4,7.8c-10.8,12.7-20.4,26.4-28.5,40.9c-0.6,1.1-2.9,3.2-2.9,4.4
	c0.1,1.4,0.9,0,2.1,0.7c8.5,4.8,16.1,6.2,22.6,7c16.7,2.1,28.7,2.5,45.2-1.1c5.4-1.2,15.4-4.2,19.8-6.5
	C215.3,118.4,214.8,105.6,209.7,102.8z"/>
<g>
	<path class="st22" d="M73.3,107.4c0.3,1.5,3.4,9.1,4,10.5c6.5,14.1,37.8,11.5,68.2-4.2c29.7-15.4,48.9-37.8,42.3-51.3l-4.9-8.4
		L73.3,107.4z"/>
	<path class="st16" d="M182.9,54c-7.8-13.4-37.8-11.5-68.2,4.2C84.4,73.9,66.7,96.7,74.5,110c7.8,13.4,37.8,11.5,68.2-4.2
		C173.1,90.2,190.7,67.4,182.9,54z"/>
	<g>
		<path class="st22" d="M117.3,86.6c-0.3-0.2-0.6-0.6-0.8-0.9l-4.3-9.3c-0.3-0.6-0.3-1.3-0.1-2c0.2-0.6,0.7-1.1,1.4-1.4l25.6-10.4
			c1.2-0.5,2.6,0,3.2,1.3l4.3,9.3c0.6,1.2,0,2.7-1.2,3.3c-1.2,0.6-2.7,0-3.3-1.2l-3.3-7.1l-21,8.5l3.2,6.9c0.6,1.2,0,2.7-1.2,3.3
			C119,87.2,118,87.1,117.3,86.6z"/>
	</g>
	<g>
		<path class="st23" d="M88.3,110.1c-2.8,0-5.1-0.9-6.7-2.6c-2-2.1-2.8-5.3-2-9c0.8-3.8,3-7.5,6.2-10.6c3.9-3.7,8.8-5.9,13.1-5.9
			c2.8,0,5.1,0.9,6.7,2.6c4.3,4.5,2.4,13.3-4.2,19.6C97.5,107.9,92.6,110.1,88.3,110.1z"/>
		<path class="st9" d="M98.8,82.8L98.8,82.8c2.6,0,4.7,0.8,6.2,2.4c1.9,2,2.5,4.9,1.8,8.3c-0.7,3.6-2.9,7.2-6,10.2
			c-3.7,3.6-8.4,5.7-12.5,5.7c-2.6,0-4.7-0.8-6.2-2.4c-1.9-2-2.5-4.9-1.8-8.3c0.7-3.6,2.9-7.2,6-10.2C90,84.9,94.7,82.8,98.8,82.8
			 M98.8,81.3c-4.4,0-9.4,2.1-13.6,6.1C78.3,94,76.4,103.2,81,108c1.8,1.9,4.4,2.8,7.3,2.8c4.4,0,9.4-2.1,13.6-6.1
			c6.9-6.6,8.8-15.9,4.2-20.7C104.3,82.2,101.7,81.3,98.8,81.3L98.8,81.3z"/>
	</g>
</g>
<path class="st33" d="M170.1,117.1c2.8-4,7.8-6.4,12.7-6.1c3,0.2,6.1,1.3,9.1,0.5c3.9-1.1,6.2-5.4,6.3-9.5c0.1-4.1-0.7-7.7-2.3-11.5
	"/>
</svg>
