<?xml version="1.0" encoding="utf-8"?>
<!-- Generator: Adobe Illustrator 19.1.0, SVG Export Plug-In . SVG Version: 6.00 Build 0)  -->
<svg version="1.1" id="Capa_1" xmlns="http://www.w3.org/2000/svg" xmlns:xlink="http://www.w3.org/1999/xlink" x="0px" y="0px"
	 viewBox="-443 445.5 311.5 311.5" style="enable-background:new -443 445.5 311.5 311.5;" xml:space="preserve">
<style type="text/css">
	.st0{fill:#DADAD2;stroke:#1D1D1B;stroke-width:1.5;stroke-linecap:round;stroke-linejoin:round;stroke-miterlimit:10;}
	.st1{opacity:0.21;}
	.st2{fill:#1D1E1C;}
	.st3{fill:#D3B63C;stroke:#1D1E1C;stroke-width:1.5;stroke-linecap:round;stroke-linejoin:round;stroke-miterlimit:10;}
	.st4{fill:#FAD843;stroke:#1D1E1C;stroke-width:1.5;stroke-linecap:round;stroke-linejoin:round;stroke-miterlimit:10;}
	.st5{fill:#8F8D8E;stroke:#1D1D1B;stroke-width:1.5;stroke-linecap:round;stroke-linejoin:round;stroke-miterlimit:10;}
	.st6{fill:#FFFFFF;stroke:#1D1D1B;stroke-width:1.5;stroke-miterlimit:10;}
</style>
<g>
	<g>
		
			<rect x="-255.7" y="514.8" transform="matrix(0.7191 -0.6949 0.6949 0.7191 -463.0834 -16.5459)" class="st0" width="7.3" height="99.4"/>
	</g>
	<g>
		
			<rect x="-373.2" y="560.9" transform="matrix(0.6948 -0.7192 0.7192 0.6948 -504.7351 -60.3942)" class="st0" width="99.4" height="7.3"/>
	</g>
</g>
<path class="st0" d="M-287.8,515.4c6.6,0,11.9,5.4,11.9,11.9c0,6.6-5.4,11.9-11.9,11.9c-6.6,0-11.9-5.4-11.9-11.9
	S-294.4,515.4-287.8,515.4z"/>
<g class="st1">
	<path class="st2" d="M-280.9,525.2c0-3.4-1.4-6.5-3.7-8.6c5.1,1.4,8.9,6,8.9,11.5c0,6.6-5.4,11.9-11.9,11.9c-3.2,0-6.1-1.3-8.2-3.3
		c1,0.3,2,0.4,3,0.4C-286.2,537.1-280.9,531.8-280.9,525.2z"/>
</g>
<path class="st3" d="M-373.6,591.4h188.5c10.3,0,18.7,8.4,18.7,18.7v66.5c0,10.3-8.4,18.7-18.7,18.7h-188.5
	c-10.3,0-18.7-8.4-18.7-18.7v-66.5C-392.3,599.8-384,591.4-373.6,591.4z"/>
<path class="st4" d="M-382,591.4h188.5c10.3,0,18.7,8.4,18.7,18.7v66.5c0,10.3-8.4,18.7-18.7,18.7H-382c-10.3,0-18.7-8.4-18.7-18.7
	v-66.5C-400.7,599.8-392.3,591.4-382,591.4z"/>
<g>
	<g>
		<path class="st5" d="M-362.5,607.5c9.4,0,14.6,6.3,14.6,14.7c0,8.1-4.7,15.5-14.6,15.5c-10.3,0-14.6-6.7-14.6-15.5
			C-377,613.8-371.9,607.5-362.5,607.5z M-362.5,632.4c6,0,8-4.6,8-10.2c0-5.5-2.6-9.4-8-9.4s-8,3.9-8,9.4
			C-370.5,627.8-368.6,632.4-362.5,632.4z"/>
		<path class="st5" d="M-338.9,611.5c0-2.7,1.3-3.8,4.1-3.8c1.4,0,2.6,0.5,3.3,1.7l11.5,18.5h0.1v-17.1c0-2.1,1.2-3.2,3.2-3.2
			s3.2,1,3.2,3.2v22.7c0,2.6-1.1,4.1-3.9,4.1c-2.1,0-2.8-0.4-3.6-1.8l-11.4-18h-0.1v16.6c0,2.1-1.2,3.2-3.2,3.2s-3.2-1-3.2-3.2
			C-338.9,634.4-338.9,611.5-338.9,611.5z"/>
		<path class="st5" d="M-303.3,611c0-2,1.3-3.3,3.3-3.3s3.3,1.3,3.3,3.3v20.5h11c1.9,0,3.4,1,3.4,2.8s-1.5,2.8-3.4,2.8h-13.7
			c-2.3,0-3.8-0.9-3.8-3.8L-303.3,611L-303.3,611z"/>
		<path class="st5" d="M-274.5,611c0-2,1.3-3.3,3.3-3.3s3.3,1.3,3.3,3.3v23.3c0,2-1.3,3.3-3.3,3.3s-3.3-1.3-3.3-3.3V611z"/>
		<path class="st5" d="M-257.7,611.5c0-2.7,1.3-3.8,4.1-3.8c1.4,0,2.6,0.5,3.3,1.7l11.5,18.5h0.1v-17.1c0-2.1,1.2-3.2,3.2-3.2
			s3.2,1,3.2,3.2v22.7c0,2.6-1.1,4.1-3.9,4.1c-2.1,0-2.8-0.4-3.6-1.8l-11.4-18h-0.1v16.6c0,2.1-1.2,3.2-3.2,3.2c-2,0-3.2-1-3.2-3.2
			L-257.7,611.5L-257.7,611.5z"/>
		<path class="st5" d="M-222,612c0-2.9,1.5-3.8,3.8-3.8h15.4c1.9,0,3.3,0.6,3.3,2.6s-1.4,2.6-3.3,2.6h-12.7v6.2h11.1
			c1.7,0,3.1,0.5,3.1,2.5s-1.4,2.5-3.1,2.5h-11.1v7h13c1.9,0,3.3,0.6,3.3,2.6c0,2.1-1.4,2.6-3.3,2.6h-15.7c-2.3,0-3.8-0.9-3.8-3.8
			V612z"/>
	</g>
	<g>
		<path class="st5" d="M-358.7,660.2c6.8,1.5,8.5,5.6,8.5,9.4c0,5.9-4.4,10.3-13.4,10.3c-9.4,0-13.7-4.7-13.7-8.3
			c0-1.8,1.3-3.1,3.1-3.1c4,0,3,5.9,10.5,5.9c3.9,0,6-2.1,6-4.3c0-1.3-0.6-2.8-3.2-3.4l-8.4-2.1c-6.8-1.7-8-5.5-8-8.9
			c0-7.3,6.7-10,13-10c5.8,0,12.7,3.3,12.7,7.6c0,1.9-1.6,3-3.4,3c-3.5,0-2.8-4.9-9.8-4.9c-3.5,0-5.4,1.6-5.4,3.9s2.7,3,5.1,3.5
			L-358.7,660.2z"/>
		<path class="st5" d="M-331.8,652.7h-7c-2.1,0-3.9-1.1-3.9-3.1s1.7-3.1,3.9-3.1h21.5c2.1,0,3.9,1.1,3.9,3.1s-1.7,3.1-3.9,3.1h-7
			V676c0,2.2-1.5,3.7-3.7,3.7c-2.3,0-3.7-1.5-3.7-3.7L-331.8,652.7L-331.8,652.7z"/>
		<path class="st5" d="M-290.4,645.7c10.7,0,16.5,7.1,16.5,16.7c0,9.2-5.4,17.5-16.5,17.5c-11.7,0-16.5-7.6-16.5-17.5
			C-306.9,652.8-301.1,645.7-290.4,645.7z M-290.4,673.9c6.8,0,9.1-5.3,9.1-11.5c0-6.3-3-10.7-9.1-10.7s-9.1,4.4-9.1,10.7
			C-299.5,668.7-297.4,673.9-290.4,673.9z"/>
		<path class="st5" d="M-263.5,650.8c0-3.3,1.7-4.4,4.4-4.4h12.4c8.9,0,11.2,4.9,11.2,9.1c0,3.5-2.1,7-5.6,7.9v0.1
			c3.8,0.5,4.5,3.3,4.5,6.6c0,3.8,1,5.2,1,6.7c0,1.7-1.8,2.9-3.5,2.9c-4.1,0-4.4-4-4.4-5.3c0-5.7-1-8-5.1-8h-7.4v9.6
			c0,2.2-1.4,3.7-3.7,3.7s-3.7-1.5-3.7-3.7L-263.5,650.8L-263.5,650.8z M-256.1,661h7.5c2.8,0,5.6-0.7,5.6-4.4
			c0-3.5-2.1-4.4-5.4-4.4h-7.7L-256.1,661L-256.1,661z"/>
		<path class="st5" d="M-224.8,650.8c0-3.3,1.7-4.4,4.4-4.4h17.4c2.2,0,3.8,0.6,3.8,3c0,2.4-1.6,3-3.8,3h-14.4v7.1h12.6
			c2,0,3.5,0.5,3.5,2.9c0,2.3-1.5,2.9-3.5,2.9h-12.6v7.9h14.8c2.2,0,3.8,0.6,3.8,3c0,2.4-1.6,3-3.8,3h-17.8c-2.6,0-4.4-1-4.4-4.4
			L-224.8,650.8L-224.8,650.8z"/>
	</g>
</g>
<ellipse transform="matrix(0.5747 -0.8184 0.8184 0.5747 -662.8199 -52.8118)" class="st6" cx="-382.2" cy="611.3" rx="14.7" ry="10.2"/>
</svg>
