<?xml version="1.0" encoding="utf-8"?>
<!-- Generator: Adobe Illustrator 21.0.0, SVG Export Plug-In . SVG Version: 6.00 Build 0)  -->
<svg version="1.1" id="Capa_1" xmlns="http://www.w3.org/2000/svg" xmlns:xlink="http://www.w3.org/1999/xlink" x="0px" y="0px"
	 viewBox="0 0 18.2 18.4" style="enable-background:new 0 0 18.2 18.4;" xml:space="preserve">
<style type="text/css">
	.st0{fill:#C1C1BF;stroke:#1D1D1B;stroke-width:1.5;stroke-linecap:round;stroke-linejoin:round;stroke-miterlimit:10;}
	.st1{fill:#C1C1BF;}
	.st2{fill:#1D1D1B;}
</style>
<g>
	<path class="st0" d="M14.2,17.4H3.9c-1.7,0-3-1.3-3-3V4c0-1.7,1.3-3,3-3h10.3c1.7,0,3,1.3,3,3v10.3C17.3,16.1,15.9,17.4,14.2,17.4z
		"/>
	<g>
		<g>
			<g>
				<g>
					<path class="st1" d="M9.1,12.8c-2,0-3.6-1.6-3.6-3.6c0-2,1.6-3.6,3.6-3.6s3.6,1.6,3.6,3.6S11,12.8,9.1,12.8z"/>
					<path class="st2" d="M9.1,6.3c1.6,0,2.9,1.3,2.9,2.9s-1.3,2.9-2.9,2.9s-2.9-1.3-2.9-2.9S7.4,6.3,9.1,6.3 M9.1,5
						C6.8,5,4.9,7,4.9,9.2s1.9,4.2,4.2,4.2s4.2-1.9,4.2-4.2S11.4,5,9.1,5L9.1,5z"/>
				</g>
				<circle cx="13.4" cy="4.9" r="1"/>
			</g>
		</g>
	</g>
</g>
</svg>
