<?xml version="1.0" encoding="utf-8"?>
<!-- Generator: Adobe Illustrator 19.1.0, SVG Export Plug-In . SVG Version: 6.00 Build 0)  -->
<svg version="1.1" id="Capa_1" xmlns="http://www.w3.org/2000/svg" xmlns:xlink="http://www.w3.org/1999/xlink" x="0px" y="0px"
	 viewBox="0 0 311.5 311.5" style="enable-background:new 0 0 311.5 311.5;" xml:space="preserve">
<style type="text/css">
	.st0{fill:#1D1D1B;stroke:#1D1D1B;stroke-width:1.5;stroke-linecap:round;stroke-linejoin:round;stroke-miterlimit:10;}
	.st1{fill:#BBBABA;stroke:#1D1D1B;stroke-width:1.5;stroke-linecap:square;stroke-miterlimit:10;}
	.st2{opacity:0.2;fill:#1D1D1B;}
	.st3{opacity:0.21;fill:#1D1E1C;}
	.st4{fill:#D3B63C;stroke:#1D1E1C;stroke-width:1.5;stroke-linecap:round;stroke-linejoin:round;stroke-miterlimit:10;}
	.st5{fill:#FAD843;stroke:#1D1E1C;stroke-width:1.5;stroke-linecap:round;stroke-linejoin:round;stroke-miterlimit:10;}
	.st6{fill:#E84E42;stroke:#1D1E1C;stroke-width:1.5;stroke-linecap:round;stroke-linejoin:round;stroke-miterlimit:10;}
	.st7{fill:#FFFFFF;stroke:#1D1D1B;stroke-width:1.5;stroke-miterlimit:10;}
	.st8{opacity:0.2;}
	.st9{fill:#1D1D1B;}
	.st10{fill:none;stroke:#1D1E1C;stroke-width:1.5;stroke-miterlimit:10;}
	.st11{fill:#1D1E1C;stroke:#1D1E1C;stroke-width:1.5;stroke-linecap:round;stroke-linejoin:round;stroke-miterlimit:10;}
	.st12{fill:#4AC0EE;stroke:#1D1E1C;stroke-width:1.5;stroke-linecap:round;stroke-linejoin:round;stroke-miterlimit:10;}
	.st13{opacity:0.21;}
	.st14{fill:#1D1E1C;}
	.st15{fill:#FFF8F1;stroke:#1D1E1C;stroke-width:1.5;stroke-linecap:round;stroke-linejoin:round;stroke-miterlimit:10;}
	.st16{fill:#65C1BE;stroke:#000000;stroke-width:1.5;stroke-linecap:round;stroke-linejoin:round;stroke-miterlimit:10;}
	.st17{fill:#FFFFFF;stroke:#1D1D1B;stroke-width:1.5;stroke-linecap:round;stroke-linejoin:round;stroke-miterlimit:10;}
	.st18{fill:#ADADA6;stroke:#1D1D1B;stroke-width:1.5;stroke-linecap:round;stroke-linejoin:round;stroke-miterlimit:10;}
	.st19{fill:#8F8D8E;stroke:#1D1D1B;stroke-width:1.5;stroke-linecap:round;stroke-linejoin:round;stroke-miterlimit:10;}
	.st20{fill:#DADAD2;stroke:#1D1D1B;stroke-width:1.5;stroke-linecap:round;stroke-linejoin:round;stroke-miterlimit:10;}
	.st21{fill:#65C1BE;stroke:#000000;stroke-width:1.5;stroke-miterlimit:10;}
	.st22{fill:#549E9A;stroke:#000000;stroke-width:1.5;stroke-miterlimit:10;}
	.st23{fill:#FFFFFF;}
	.st24{clip-path:url(#SVGID_2_);}
	.st25{fill:#DADAD2;stroke:#1D1D1B;stroke-width:1.5;stroke-miterlimit:10;}
	.st26{fill:#77C6C7;stroke:#1D1D1B;stroke-width:1.5;stroke-linecap:round;stroke-linejoin:round;stroke-miterlimit:10;}
	.st27{fill:none;stroke:#000000;stroke-width:1.5;stroke-miterlimit:10;}
	.st28{fill:#F0F0F0;stroke:#1D1E1C;stroke-width:1.5;stroke-miterlimit:10;}
	.st29{clip-path:url(#SVGID_4_);}
	.st30{fill:#DBBD3E;stroke:#1D1E1C;stroke-width:1.5;stroke-miterlimit:10;}
	.st31{opacity:0.23;}
	.st32{fill:#FAD844;stroke:#1D1E1C;stroke-width:1.5;stroke-miterlimit:10;}
	.st33{fill:none;stroke:#1D1D1B;stroke-width:1.5;stroke-linecap:round;stroke-linejoin:round;stroke-miterlimit:10;}
	.st34{fill:#333333;stroke:#1D1D1B;stroke-width:1.5;stroke-linecap:square;stroke-miterlimit:10;}
	.st35{fill:#FFFFFF;stroke:#1D1D1B;stroke-width:1.55;stroke-miterlimit:10;}
	.st36{fill:none;stroke:#1D1E1C;stroke-width:1.5;stroke-linecap:round;stroke-linejoin:round;stroke-miterlimit:10;}
	.st37{fill:url(#);}
	.st38{fill:#FFFFFF;stroke:#1D1E1C;stroke-width:1.5;stroke-linecap:round;stroke-linejoin:round;stroke-miterlimit:10;}
	.st39{fill:#CC413A;stroke:#1D1E1C;stroke-width:1.5;stroke-linecap:round;stroke-linejoin:round;stroke-miterlimit:10;}
	.st40{opacity:0.26;fill:#1D1E1C;}
	.st41{fill:#EEEEEE;stroke:#1D1E1C;stroke-width:1.5;stroke-miterlimit:10;}
	.st42{fill:#1D1E1C;stroke:#1D1E1C;stroke-width:1.5;stroke-miterlimit:10;}
	.st43{fill:#C1C1BF;stroke:#1D1D1B;stroke-width:1.5;stroke-linecap:round;stroke-linejoin:round;stroke-miterlimit:10;}
	.st44{fill:#AFAFA8;stroke:#1D1D1B;stroke-width:1.5;stroke-linecap:round;stroke-linejoin:round;stroke-miterlimit:10;}
	.st45{fill:#C1C1BF;}
</style>
<g>
	<ellipse class="st3" cx="130.9" cy="207.4" rx="78.2" ry="24.9"/>
	<g>
		<g>
			<g>
				<g>
					<circle class="st6" cx="157.4" cy="159.2" r="71.5"/>
					<g class="st8">
						<path class="st9" d="M122.5,191.8c-24.2-25.9-25.4-65-4.6-92.3c-3.3,2.2-6.4,4.6-9.4,7.4c-28.9,27-30.4,72.2-3.4,101.1
							c27,28.9,72.2,30.4,101.1,3.4c3-2.8,5.6-5.7,8-8.8C185.6,221.6,146.7,217.8,122.5,191.8z"/>
					</g>
				</g>
			</g>
		</g>
		
			<ellipse transform="matrix(-0.6068 0.7948 -0.7948 -0.6068 392.0115 46.006)" class="st7" cx="184.6" cy="120" rx="16.3" ry="28.3"/>
		<path class="st10" d="M229.1,160.7c18.2,10.1,28.7,19.4,26.8,25.2c-3.6,10.9-49.7,5.4-102.9-12.4s-93.4-41-89.8-51.9
			c1.9-5.8,15.7-6.9,36.1-4.2"/>
		<path class="st10" d="M219,121.6c22.3-1.9,37.2,0.1,38.9,6.3c2.9,11.1-38.8,31.7-93.1,45.9S63.9,190.6,61,179.5
			c-1.5-5.5,8.1-13.4,24.8-21.7"/>
		<path class="st10" d="M212.9,204.4c7.4,20.1,8.6,32.4,3.1,35.7c-9.9,5.9-40.1-27-67.5-73.3s-41.5-88.6-31.6-94.5
			c4.9-2.9,14.9,3.7,27,16.9"/>
		<circle class="st11" cx="129.7" cy="132.4" r="4.8"/>
		<circle class="st11" cx="241.7" cy="191.7" r="4.8"/>
		<circle class="st11" cx="128" cy="182.5" r="4.8"/>
	</g>
</g>
</svg>
