<?xml version="1.0" encoding="utf-8"?>
<!-- Generator: Adobe Illustrator 19.1.0, SVG Export Plug-In . SVG Version: 6.00 Build 0)  -->
<svg version="1.1" id="Capa_1" xmlns="http://www.w3.org/2000/svg" xmlns:xlink="http://www.w3.org/1999/xlink" x="0px" y="0px"
	 viewBox="0 0 311.5 311.5" style="enable-background:new 0 0 311.5 311.5;" xml:space="preserve">
<style type="text/css">
	.st0{fill:#1D1D1B;stroke:#1D1D1B;stroke-width:1.5;stroke-linecap:round;stroke-linejoin:round;stroke-miterlimit:10;}
	.st1{fill:#BBBABA;stroke:#1D1D1B;stroke-width:1.5;stroke-linecap:square;stroke-miterlimit:10;}
	.st2{opacity:0.2;fill:#1D1D1B;}
	.st3{opacity:0.21;fill:#1D1E1C;}
	.st4{fill:#D3B63C;stroke:#1D1E1C;stroke-width:1.5;stroke-linecap:round;stroke-linejoin:round;stroke-miterlimit:10;}
	.st5{fill:#FAD843;stroke:#1D1E1C;stroke-width:1.5;stroke-linecap:round;stroke-linejoin:round;stroke-miterlimit:10;}
	.st6{fill:#E84E42;stroke:#1D1E1C;stroke-width:1.5;stroke-linecap:round;stroke-linejoin:round;stroke-miterlimit:10;}
	.st7{fill:#FFFFFF;stroke:#1D1D1B;stroke-width:1.5;stroke-miterlimit:10;}
	.st8{opacity:0.2;}
	.st9{fill:#1D1D1B;}
	.st10{fill:none;stroke:#1D1E1C;stroke-width:1.5;stroke-miterlimit:10;}
	.st11{fill:#1D1E1C;stroke:#1D1E1C;stroke-width:1.5;stroke-linecap:round;stroke-linejoin:round;stroke-miterlimit:10;}
	.st12{fill:#4AC0EE;stroke:#1D1E1C;stroke-width:1.5;stroke-linecap:round;stroke-linejoin:round;stroke-miterlimit:10;}
	.st13{opacity:0.21;}
	.st14{fill:#1D1E1C;}
	.st15{fill:#FFF8F1;stroke:#1D1E1C;stroke-width:1.5;stroke-linecap:round;stroke-linejoin:round;stroke-miterlimit:10;}
	.st16{fill:#65C1BE;stroke:#000000;stroke-width:1.5;stroke-linecap:round;stroke-linejoin:round;stroke-miterlimit:10;}
	.st17{fill:#FFFFFF;stroke:#1D1D1B;stroke-width:1.5;stroke-linecap:round;stroke-linejoin:round;stroke-miterlimit:10;}
	.st18{fill:#ADADA6;stroke:#1D1D1B;stroke-width:1.5;stroke-linecap:round;stroke-linejoin:round;stroke-miterlimit:10;}
	.st19{fill:#8F8D8E;stroke:#1D1D1B;stroke-width:1.5;stroke-linecap:round;stroke-linejoin:round;stroke-miterlimit:10;}
	.st20{fill:#DADAD2;stroke:#1D1D1B;stroke-width:1.5;stroke-linecap:round;stroke-linejoin:round;stroke-miterlimit:10;}
	.st21{fill:#65C1BE;stroke:#000000;stroke-width:1.5;stroke-miterlimit:10;}
	.st22{fill:#549E9A;stroke:#000000;stroke-width:1.5;stroke-miterlimit:10;}
	.st23{fill:#FFFFFF;}
	.st24{clip-path:url(#SVGID_2_);}
	.st25{fill:#DADAD2;stroke:#1D1D1B;stroke-width:1.5;stroke-miterlimit:10;}
	.st26{fill:#77C6C7;stroke:#1D1D1B;stroke-width:1.5;stroke-linecap:round;stroke-linejoin:round;stroke-miterlimit:10;}
	.st27{fill:none;stroke:#000000;stroke-width:1.5;stroke-miterlimit:10;}
	.st28{fill:#F0F0F0;stroke:#1D1E1C;stroke-width:1.5;stroke-miterlimit:10;}
	.st29{clip-path:url(#SVGID_4_);}
	.st30{fill:#DBBD3E;stroke:#1D1E1C;stroke-width:1.5;stroke-miterlimit:10;}
	.st31{opacity:0.23;}
	.st32{fill:#FAD844;stroke:#1D1E1C;stroke-width:1.5;stroke-miterlimit:10;}
	.st33{fill:none;stroke:#1D1D1B;stroke-width:1.5;stroke-linecap:round;stroke-linejoin:round;stroke-miterlimit:10;}
	.st34{fill:#333333;stroke:#1D1D1B;stroke-width:1.5;stroke-linecap:square;stroke-miterlimit:10;}
	.st35{fill:#FFFFFF;stroke:#1D1D1B;stroke-width:1.55;stroke-miterlimit:10;}
	.st36{fill:none;stroke:#1D1E1C;stroke-width:1.5;stroke-linecap:round;stroke-linejoin:round;stroke-miterlimit:10;}
	.st37{fill:url(#);}
	.st38{fill:#FFFFFF;stroke:#1D1E1C;stroke-width:1.5;stroke-linecap:round;stroke-linejoin:round;stroke-miterlimit:10;}
	.st39{fill:#CC413A;stroke:#1D1E1C;stroke-width:1.5;stroke-linecap:round;stroke-linejoin:round;stroke-miterlimit:10;}
	.st40{opacity:0.26;fill:#1D1E1C;}
	.st41{fill:#EEEEEE;stroke:#1D1E1C;stroke-width:1.5;stroke-miterlimit:10;}
	.st42{fill:#1D1E1C;stroke:#1D1E1C;stroke-width:1.5;stroke-miterlimit:10;}
	.st43{fill:#C1C1BF;stroke:#1D1D1B;stroke-width:1.5;stroke-linecap:round;stroke-linejoin:round;stroke-miterlimit:10;}
	.st44{fill:#AFAFA8;stroke:#1D1D1B;stroke-width:1.5;stroke-linecap:round;stroke-linejoin:round;stroke-miterlimit:10;}
	.st45{fill:#C1C1BF;}
</style>
<path class="st30" d="M51.4,125.5V124c0-2.4,1.2-4.7,3.1-6h0c2.5-1.8,4.4-4.4,5.2-7.4l1-3.5c0.9-3.3,3.9-5.5,7.2-5.5h48.5
	c4.1,0,7.8,2.4,9.5,6.1l1.3,2.7c1.5,3.3,4.8,5.3,8.4,5.3h87.7c4.6,0,8.7,2.7,10.4,6.9l1.3,3H51.4z"/>
<g>
	<polygon class="st28" points="211.6,171.3 84.9,171.3 84.9,11.7 178.6,11.7 211.6,43.1 	"/>
</g>
<g>
	<polygon class="st20" points="211.6,43.1 178.5,11.7 178.5,42.2 	"/>
</g>
<path class="st31" d="M53.5,119.1l179.5,2.3c0,0,1.9,1.9,1.4,3.8H51.2C51.2,125.2,51.4,120.2,53.5,119.1z"/>
<path class="st32" d="M54.3,123.9h176.2c6.3,0,11.4,5.2,11.3,11.5l-2,102.2c-0.1,6.1-5.1,11-11.3,11H58.1c-6.1,0-11-4.8-11.3-10.9
	l-3.7-102.2C42.8,129.2,48,123.9,54.3,123.9z"/>
<path class="st35" d="M231.2,193.3c0.8-1.8,1.7-3.5,2.6-5.3c-0.8-1.2-1.3-2.7-1.1-4.3c0-0.2,0-0.4,0.1-0.7c-2.7-1.7-5.4-3.6-7.9-5.5
	c-3.3-2.6-6.5-5.3-9.4-8.5l-12.9-7.6l0.5-0.8l13,7.7c4.2,1,8,2.5,11.8,4.1c3.4,1.5,6.7,3.2,10,5c0.7-0.2,1.5-0.3,2.3-0.2
	c0.1,0,0.1,0,0.2,0c1.5-2.2,3.1-4.3,4.7-6.4c2.3-2.8,4.7-5.5,7.4-8l10-16.4l0.8,0.5l-8.8,14.6c-1,4.4-2.5,8.5-4.3,12.4
	c-1.2,2.6-2.5,5.2-3.9,7.7c0.2,0.4,0.3,0.8,0.4,1.2c1.7,1.2,3.4,2.4,5.1,3.7c3.2,2.5,6.4,5.2,9.2,8.3l14.1,8.4l-0.5,0.8l-13.8-8.2
	c-4.3-1-8.2-2.5-12.1-4.2c-1.5-0.7-2.9-1.3-4.4-2.1c-1.1,0.9-2.5,1.5-4,1.6c-1.3,1.8-2.6,3.5-3.9,5.3c-2.6,3.2-5.3,6.2-8.6,9
	l-9.2,15.2l-0.8-0.5l9.5-15.7C228.2,200.5,229.6,196.8,231.2,193.3z"/>
<path class="st36" d="M106.3,51c0.9-1.5,2.1-2.6,3.5-3.6c2.5-1.8,5.3-3.1,8.4-3.4c3-0.3,6.2,0.5,8.5,2.5c8.2,7,4.1,23.8,1.2,32.4
	c-0.4,1.3-0.9,2.6-1,4c0,1.4,0.5,2.9,1.7,3.6c4.3,2.5,9.2-6.4,11.2-8.9c1.6-1.9,3.4-3.7,5.7-4.6c2.3-1,5.1-1,7.1,0.5
	c4.1,3,2.2,7.8,3.2,12c0.5,2.3,1.9,4.5,4.1,5.4c2.9,1.2,6-0.2,9.1-0.7c4.7-0.8,9.7,0.7,13.2,3.9c3.5,3.2,5.6,8,5.4,12.7"/>
</svg>
