<?xml version="1.0" encoding="utf-8"?>
<!-- Generator: Adobe Illustrator 19.1.0, SVG Export Plug-In . SVG Version: 6.00 Build 0)  -->
<svg version="1.1" id="Capa_1" xmlns="http://www.w3.org/2000/svg" xmlns:xlink="http://www.w3.org/1999/xlink" x="0px" y="0px"
	 viewBox="-443 445.5 311.5 311.5" style="enable-background:new -443 445.5 311.5 311.5;" xml:space="preserve">
<style type="text/css">
	.st0{fill:#DADAD2;}
	.st1{fill:#1D1D1B;}
	.st2{fill:#DADAD2;stroke:#1D1D1B;stroke-width:2;stroke-linecap:round;stroke-linejoin:round;stroke-miterlimit:10;}
	.st3{opacity:0.21;}
	.st4{fill:#1D1E1C;}
	.st5{fill:#D3B63C;stroke:#1D1E1C;stroke-width:2;stroke-linecap:round;stroke-linejoin:round;stroke-miterlimit:10;}
	.st6{fill:#FAD843;stroke:#1D1E1C;stroke-width:2;stroke-linecap:round;stroke-linejoin:round;stroke-miterlimit:10;}
	.st7{fill:#FFFFFF;stroke:#1D1D1B;stroke-width:2;stroke-miterlimit:10;}
	.st8{fill:#8F8D8E;stroke:#1D1D1B;stroke-width:2;stroke-linecap:round;stroke-linejoin:round;stroke-miterlimit:10;}
</style>
<g>
	<g>
		<g>
			
				<rect x="-241.2" y="482.6" transform="matrix(0.7191 -0.6949 0.6949 0.7191 -457.0553 -5.4472)" class="st0" width="11.8" height="160.1"/>
			<path class="st1" d="M-183.9,625.3C-183.9,625.3-183.9,625.3-183.9,625.3c-0.3,0-0.5-0.1-0.7-0.3l-111.3-115.1
				c-0.2-0.2-0.3-0.4-0.3-0.7c0-0.3,0.1-0.5,0.3-0.7l8.5-8.2c0.4-0.4,1-0.4,1.4,0l111.3,115.1c0.4,0.4,0.4,1,0,1.4l-8.5,8.2
				C-183.4,625.2-183.6,625.3-183.9,625.3z M-293.7,509.2l109.9,113.7l7-6.8l-109.9-113.7L-293.7,509.2z"/>
		</g>
	</g>
	<g>
		<g>
			
				<rect x="-430.4" y="556.7" transform="matrix(0.6948 -0.7192 0.7192 0.6948 -511.5226 -80.2985)" class="st0" width="160.1" height="11.8"/>
			<path class="st1" d="M-401.7,625.2c-0.3,0-0.5-0.1-0.7-0.3l-8.5-8.2c-0.2-0.2-0.3-0.4-0.3-0.7c0-0.3,0.1-0.5,0.3-0.7l111.2-115.1
				c0.2-0.2,0.4-0.3,0.7-0.3c0.2,0,0.5,0.1,0.7,0.3l8.5,8.2c0.4,0.4,0.4,1,0,1.4L-401,624.9C-401.2,625.1-401.5,625.2-401.7,625.2z
				 M-408.8,616l7,6.8l109.8-113.7l-7-6.8L-408.8,616z"/>
		</g>
	</g>
</g>
<path class="st2" d="M-292.8,483.5c10.6,0,19.2,8.6,19.2,19.2c0,10.6-8.6,19.2-19.2,19.2c-10.6,0-19.2-8.6-19.2-19.2
	C-312,492.1-303.4,483.5-292.8,483.5z"/>
<g class="st3">
	<path class="st4" d="M-281.7,499.2c0-5.5-2.3-10.4-6-13.9c8.2,2.2,14.3,9.7,14.3,18.6c0,10.6-8.6,19.2-19.2,19.2
		c-5.1,0-9.8-2-13.2-5.3c1.6,0.4,3.2,0.7,4.9,0.7C-290.4,518.5-281.7,509.8-281.7,499.2z"/>
</g>
<path class="st5" d="M-399.7,585.9H-165c12.9,0,23.3,10.4,23.3,23.3V692c0,12.9-10.4,23.3-23.3,23.3h-234.7
	c-12.9,0-23.3-10.4-23.3-23.3v-82.8C-423,596.3-412.6,585.9-399.7,585.9z"/>
<path class="st6" d="M-410.2,585.9h234.7c12.9,0,23.3,10.4,23.3,23.3V692c0,12.9-10.4,23.3-23.3,23.3h-234.7
	c-12.9,0-23.3-10.4-23.3-23.3v-82.8C-433.4,596.3-423,585.9-410.2,585.9z"/>
<ellipse transform="matrix(0.5747 -0.8184 0.8184 0.5747 -674.2328 -76.0586)" class="st7" cx="-410.3" cy="610.6" rx="18.3" ry="12.7"/>
<g>
	<path class="st8" d="M-384.3,617.1c20.5,0,31.6,13.6,31.6,31.9c0,17.6-10.2,33.5-31.6,33.5c-22.4,0-31.6-14.6-31.6-33.5
		C-415.9,630.8-404.8,617.1-384.3,617.1z M-384.3,671.1c12.9,0,17.4-10.1,17.4-22c0-12-5.7-20.5-17.4-20.5
		c-11.6,0-17.4,8.5-17.4,20.5C-401.6,661-397.7,671.1-384.3,671.1z"/>
	<path class="st8" d="M-342.3,627c0-6.3,3.3-8.3,8.3-8.3h21.8c12,0,21.6,5.9,21.6,19.8c0,11.4-7.9,19.8-21.7,19.8H-328v16.9
		c0,4.2-2.8,7.1-7.1,7.1c-4.3,0-7.1-2.9-7.1-7.1L-342.3,627L-342.3,627z M-328,647.2h13.3c5.7,0,10-3.5,10-8.8
		c0-6.3-4.4-8.9-11.5-8.9H-328V647.2z"/>
	<path class="st8" d="M-280.8,627c0-6.3,3.3-8.3,8.3-8.3h33.4c4.2,0,7.2,1.2,7.2,5.7s-3,5.7-7.2,5.7h-27.5v13.5h24.1
		c3.7,0,6.7,1,6.7,5.5c0,4.4-2.9,5.5-6.7,5.5h-24.1v15.1h28.2c4.2,0,7.2,1.2,7.2,5.7s-3,5.7-7.2,5.7h-34.1c-5,0-8.3-2-8.3-8.3V627z"
		/>
	<path class="st8" d="M-221.9,625.8c0-5.9,2.9-8.3,8.9-8.3c3,0,5.6,1.1,7.1,3.7l24.9,40.2h0.2v-37c0-4.6,2.6-6.9,6.9-6.9
		s6.9,2.3,6.9,6.9v49c0,5.6-2.4,8.9-8.4,8.9c-4.5,0-6-1-7.8-3.8l-24.7-39h-0.2v36c0,4.6-2.6,6.9-6.9,6.9s-6.9-2.3-6.9-6.9
		L-221.9,625.8L-221.9,625.8z"/>
</g>
</svg>
