<?xml version="1.0" encoding="utf-8"?>
<!-- Generator: Adobe Illustrator 21.0.0, SVG Export Plug-In . SVG Version: 6.00 Build 0)  -->
<svg version="1.1" id="Capa_1" xmlns="http://www.w3.org/2000/svg" xmlns:xlink="http://www.w3.org/1999/xlink" x="0px" y="0px"
	 viewBox="0 0 143 150" style="enable-background:new 0 0 143 150;" xml:space="preserve">
<style type="text/css">
	.st0{fill:#DADAD2;stroke:#1D1D1B;stroke-width:2;stroke-linecap:round;stroke-linejoin:round;stroke-miterlimit:10;}
	.st1{fill:#DADAD2;}
	.st2{opacity:0.21;}
	.st3{fill:#1D1E1C;}
	.st4{fill:#DBBD3E;stroke:#1D1E1C;stroke-width:2;stroke-miterlimit:10;}
	.st5{fill:#FAD844;stroke:#1D1E1C;stroke-width:2;stroke-miterlimit:10;}
	.st6{fill:#FFFFFF;stroke:#1D1D1B;stroke-width:2;stroke-miterlimit:10;}
</style>
<g>
	<g>
		<g>
			<path class="st0" d="M115.7,90.8L115.7,90.8c-0.1,0-0.2,0-0.4-0.1L65.9,39.6c-0.1-0.1-0.1-0.2-0.1-0.4c0-0.1,0-0.2,0.1-0.4
				l3.8-3.7c0.1-0.1,0.5-0.1,0.6,0l49.5,51.2c0.1,0.1,0.1,0.5,0,0.6l-3.8,3.7C115.9,90.8,115.8,90.8,115.7,90.8z"/>
		</g>
	</g>
	<g>
		<g>
			
				<rect x="6.2" y="60.3" transform="matrix(0.6948 -0.7192 0.7192 0.6948 -32.5268 49.2739)" class="st1" width="71.1" height="5.2"/>
			<path class="st0" d="M19,90.8c-0.1,0-0.2,0-0.4-0.1l-3.8-3.7c-0.1-0.1-0.1-0.2-0.1-0.4s0-0.2,0.1-0.4l49.4-51.1
				c0.1-0.1,0.2-0.1,0.4-0.1c0.1,0,0.2,0,0.4,0.1l3.8,3.7c0.1,0.1,0.1,0.5,0,0.6L19.3,90.6C19.1,90.8,19,90.8,19,90.8z"/>
		</g>
	</g>
</g>
<path class="st0" d="M67.4,27.8c4.8,0,8.5,3.8,8.5,8.5s-3.8,8.5-8.5,8.5s-8.5-3.8-8.5-8.5C58.8,31.7,62.6,27.8,67.4,27.8z"/>
<g class="st2">
	<path class="st3" d="M72.3,34.7c0-2.4-1-4.6-2.7-6.2c3.7,1,6.3,4.3,6.3,8.3c0,4.8-3.8,8.5-8.5,8.5c-2.3,0-4.4-0.9-5.9-2.3
		c0.7,0.1,1.5,0.4,2.2,0.4C68.4,43.4,72.3,39.6,72.3,34.7z"/>
</g>
<path class="st4" d="M126.6,73.5H22.4c-5.7,0-10.2,4.6-10.4,10.4v9.9v9.1v7.9c0,5.7,4.6,10.4,10.4,10.4h104.3
	c5.7,0,10.4-4.6,10.4-10.4v-7.9v-9.1v-9.9C137,78,132.4,73.5,126.6,73.5z"/>
<path class="st5" d="M119.3,73.5H15.1c-5.7,0-10.2,4.6-10.4,10.4v9.9v9.1v7.9c0,5.7,4.6,10.4,10.4,10.4h104.3
	c5.7,0,10.4-4.6,10.4-10.4v-7.9v-9.1v-9.9C129.7,78,125.1,73.5,119.3,73.5z"/>
<ellipse transform="matrix(0.5747 -0.8184 0.8184 0.5747 -62.6718 48.2577)" class="st6" cx="15.1" cy="84.4" rx="8.2" ry="5.6"/>
<g>
	<path class="st0" d="M37.7,106.7c-1.2,1-3.4,2.4-7.3,2.4c-1.5,0-5.2-0.2-8.2-3.3c-3-3.3-3.3-7.7-3.3-9c0-1.2,0.1-4.5,2.2-7.4
		c1.2-1.7,3.9-4.8,9.3-4.8c4.4,0,7.1,2,8.3,3.2c2.2,2.3,3.4,6.1,3.4,9.3C42.1,100.6,40.7,104.3,37.7,106.7z M35.1,91.4
		c-0.2-0.4-1-1.2-2.2-1.7c-1-0.4-1.8-0.4-2.2-0.4c-1.2,0-2.2,0.4-2.6,0.6c-2.3,1.3-3.2,4.1-3.2,6.6c0,3.2,1,4.9,2,5.9
		c1,1.1,2.4,1.7,3.9,1.7c0.7,0,2.6-0.2,4-1.7c1.3-1.5,1.7-3.3,1.8-5.1C36.5,94.5,35.7,92.4,35.1,91.4z"/>
	<path class="st0" d="M65.8,97.5c-2.2,3-5.5,3.3-8.8,3.3h-3.9v7.6h-5.7v-23h11.5c2.2,0,4.3,0.2,6,1.8c0.2,0.2,0.6,0.6,1.1,1.1
		c0.5,0.7,1.2,2.4,1.2,4.8C67.4,93.6,67.1,95.7,65.8,97.5z M60.8,90.8c-1-1.2-2.6-1.2-3.9-1.2h-3.7v7h3.5c1,0,1.5,0,2-0.1
		c2.1-0.4,2.8-1.6,2.8-3.5C61.5,91.8,61.3,91.2,60.8,90.8z"/>
	<path class="st0" d="M71.8,108.3v-23h17.1v4.4H77.5v4.3h10.6v4.4H77.5v5.5h12.3v4.5H71.8L71.8,108.3z"/>
	<path class="st0" d="M108.2,108.3L99.8,94l0.2,14.3h-5.6v-23h5.6l8.4,14.5l-0.2-14.5h5.5v23C113.7,108.3,108.2,108.3,108.2,108.3z"
		/>
</g>
</svg>
