<?xml version="1.0" encoding="utf-8"?>
<!-- Generator: Adobe Illustrator 19.1.0, SVG Export Plug-In . SVG Version: 6.00 Build 0)  -->
<svg version="1.1" id="Capa_1" xmlns="http://www.w3.org/2000/svg" xmlns:xlink="http://www.w3.org/1999/xlink" x="0px" y="0px"
	 viewBox="0 0 311.5 311.5" style="enable-background:new 0 0 311.5 311.5;" xml:space="preserve">
<style type="text/css">
	.st0{fill:#1D1D1B;stroke:#1D1D1B;stroke-width:1.5;stroke-linecap:round;stroke-linejoin:round;stroke-miterlimit:10;}
	.st1{fill:#BBBABA;stroke:#1D1D1B;stroke-width:1.5;stroke-linecap:square;stroke-miterlimit:10;}
	.st2{opacity:0.2;fill:#1D1D1B;}
	.st3{opacity:0.21;fill:#1D1E1C;}
	.st4{fill:#D3B63C;stroke:#1D1E1C;stroke-width:1.5;stroke-linecap:round;stroke-linejoin:round;stroke-miterlimit:10;}
	.st5{fill:#FAD843;stroke:#1D1E1C;stroke-width:1.5;stroke-linecap:round;stroke-linejoin:round;stroke-miterlimit:10;}
	.st6{fill:#E84E42;stroke:#1D1E1C;stroke-width:1.5;stroke-linecap:round;stroke-linejoin:round;stroke-miterlimit:10;}
	.st7{fill:#FFFFFF;stroke:#1D1D1B;stroke-width:1.5;stroke-miterlimit:10;}
	.st8{opacity:0.2;}
	.st9{fill:#1D1D1B;}
	.st10{fill:none;stroke:#1D1E1C;stroke-width:1.5;stroke-miterlimit:10;}
	.st11{fill:#1D1E1C;stroke:#1D1E1C;stroke-width:1.5;stroke-linecap:round;stroke-linejoin:round;stroke-miterlimit:10;}
	.st12{fill:#4AC0EE;stroke:#1D1E1C;stroke-width:1.5;stroke-linecap:round;stroke-linejoin:round;stroke-miterlimit:10;}
	.st13{opacity:0.21;}
	.st14{fill:#1D1E1C;}
	.st15{fill:#FFF8F1;stroke:#1D1E1C;stroke-width:1.5;stroke-linecap:round;stroke-linejoin:round;stroke-miterlimit:10;}
	.st16{fill:#65C1BE;stroke:#000000;stroke-width:1.5;stroke-linecap:round;stroke-linejoin:round;stroke-miterlimit:10;}
	.st17{fill:#FFFFFF;stroke:#1D1D1B;stroke-width:1.5;stroke-linecap:round;stroke-linejoin:round;stroke-miterlimit:10;}
	.st18{fill:#ADADA6;stroke:#1D1D1B;stroke-width:1.5;stroke-linecap:round;stroke-linejoin:round;stroke-miterlimit:10;}
	.st19{fill:#8F8D8E;stroke:#1D1D1B;stroke-width:1.5;stroke-linecap:round;stroke-linejoin:round;stroke-miterlimit:10;}
	.st20{fill:#DADAD2;stroke:#1D1D1B;stroke-width:1.5;stroke-linecap:round;stroke-linejoin:round;stroke-miterlimit:10;}
	.st21{fill:#65C1BE;stroke:#000000;stroke-width:1.5;stroke-miterlimit:10;}
	.st22{fill:#549E9A;stroke:#000000;stroke-width:1.5;stroke-miterlimit:10;}
	.st23{fill:#FFFFFF;}
	.st24{clip-path:url(#SVGID_2_);}
	.st25{fill:#DADAD2;stroke:#1D1D1B;stroke-width:1.5;stroke-miterlimit:10;}
	.st26{fill:#77C6C7;stroke:#1D1D1B;stroke-width:1.5;stroke-linecap:round;stroke-linejoin:round;stroke-miterlimit:10;}
	.st27{fill:none;stroke:#000000;stroke-width:1.5;stroke-miterlimit:10;}
	.st28{fill:#F0F0F0;stroke:#1D1E1C;stroke-width:1.5;stroke-miterlimit:10;}
	.st29{clip-path:url(#SVGID_4_);}
	.st30{fill:#DBBD3E;stroke:#1D1E1C;stroke-width:1.5;stroke-miterlimit:10;}
	.st31{opacity:0.23;}
	.st32{fill:#FAD844;stroke:#1D1E1C;stroke-width:1.5;stroke-miterlimit:10;}
	.st33{fill:none;stroke:#1D1D1B;stroke-width:1.5;stroke-linecap:round;stroke-linejoin:round;stroke-miterlimit:10;}
	.st34{fill:#333333;stroke:#1D1D1B;stroke-width:1.5;stroke-linecap:square;stroke-miterlimit:10;}
	.st35{fill:#FFFFFF;stroke:#1D1D1B;stroke-width:1.55;stroke-miterlimit:10;}
	.st36{fill:none;stroke:#1D1E1C;stroke-width:1.5;stroke-linecap:round;stroke-linejoin:round;stroke-miterlimit:10;}
	.st37{fill:url(#);}
	.st38{fill:#FFFFFF;stroke:#1D1E1C;stroke-width:1.5;stroke-linecap:round;stroke-linejoin:round;stroke-miterlimit:10;}
	.st39{fill:#CC413A;stroke:#1D1E1C;stroke-width:1.5;stroke-linecap:round;stroke-linejoin:round;stroke-miterlimit:10;}
	.st40{opacity:0.26;fill:#1D1E1C;}
	.st41{fill:#EEEEEE;stroke:#1D1E1C;stroke-width:1.5;stroke-miterlimit:10;}
	.st42{fill:#1D1E1C;stroke:#1D1E1C;stroke-width:1.5;stroke-miterlimit:10;}
	.st43{fill:#C1C1BF;stroke:#1D1D1B;stroke-width:1.5;stroke-linecap:round;stroke-linejoin:round;stroke-miterlimit:10;}
	.st44{fill:#AFAFA8;stroke:#1D1D1B;stroke-width:1.5;stroke-linecap:round;stroke-linejoin:round;stroke-miterlimit:10;}
	.st45{fill:#C1C1BF;}
</style>
<ellipse class="st3" cx="139.6" cy="226" rx="67.1" ry="18.8"/>
<g>
	<g>
		<path class="st21" d="M105.1,113.3v105.1h0c0.6,14.2,27.8,25.6,61.4,25.6c33.5,0,60.8-11.4,61.4-25.6h0V113.3H105.1z"/>
		<g class="st13">
			<path class="st14" d="M118.4,112.5v107c0,13.1,23.3,23.9,53,25.4c-2.4,0.1-3.8,0.2-6.2,0.2c-33.2,0-58.8-11.5-58.8-25.6v-107
				H118.4z"/>
		</g>
	</g>
	<path class="st22" d="M171.3,225.6L171.3,225.6c-2.6,0-4.8-2.1-4.8-4.8v-67.4c0-2.6,2.1-4.8,4.8-4.8l0,0c2.6,0,4.8,2.1,4.8,4.8
		v67.4C176,223.5,173.9,225.6,171.3,225.6z"/>
	<path class="st22" d="M134.4,211.8L134.4,211.8c-2.3,0-4.2-1.9-4.2-4.2v-59.1c0-2.3,1.9-4.2,4.2-4.2h0c2.3,0,4.2,1.9,4.2,4.2v59.1
		C138.6,209.9,136.7,211.8,134.4,211.8z"/>
	<path class="st22" d="M208.1,211.8L208.1,211.8c-2.3,0-4.2-1.9-4.2-4.2v-59.1c0-2.3,1.9-4.2,4.2-4.2h0c2.3,0,4.2,1.9,4.2,4.2v59.1
		C212.3,209.9,210.4,211.8,208.1,211.8z"/>
</g>
<g>
	<ellipse class="st22" cx="166.5" cy="106.9" rx="60.3" ry="25.6"/>
	<g>
		<path class="st16" d="M166.5,135.8c-35.6,0-63.5-12.7-63.5-28.8c0-16.2,27.9-28.8,63.5-28.8c35.6,0,63.5,12.7,63.5,28.8
			C230,123.1,202.1,135.8,166.5,135.8z M166.5,84.6c-27,0-57.1,9.2-57.1,22.3c0,13.2,30.1,22.3,57.1,22.3s57.1-9.2,57.1-22.3
			C223.5,93.8,193.5,84.6,166.5,84.6z"/>
	</g>
</g>
<g>
	<path class="st22" d="M87.3,94.3c-0.4,1.4-0.7,9.7-0.7,11.2c0.1,15.5,29.5,26.2,63.7,24.6c33.4-1.6,60.2-14,59.8-29l-1-9.7
		L87.3,94.3z"/>
	<path class="st16" d="M209.2,91.3c-1.6-15.4-29.5-26.2-63.7-24.6c-34.2,1.6-59.7,15-58.2,30.4c1.6,15.4,29.5,26.2,63.7,24.6
		C185.2,120.1,210.7,106.7,209.2,91.3z"/>
	<g>
		<path class="st22" d="M136,93.6c-0.2-0.3-0.3-0.7-0.3-1.2l-0.1-10.2c0-0.7,0.3-1.3,0.8-1.8s1.2-0.7,1.8-0.7l27.6,1.2
			c1.3,0.1,2.4,1.1,2.4,2.5l0.1,10.2c0,1.4-1.1,2.5-2.5,2.5c-1.4,0-2.5-1.1-2.5-2.5l-0.1-7.9l-22.6-1l0.1,7.6c0,1.4-1.1,2.5-2.5,2.5
			C137.2,95,136.4,94.4,136,93.6z"/>
	</g>
	<g>
		<path class="st23" d="M106.6,104.3c-5.9,0-10.5-2.5-11.9-6.5c-2-5.9,3.3-13.1,12-16.1c2.5-0.9,5-1.3,7.5-1.3
			c5.9,0,10.5,2.5,11.9,6.5c2,5.9-3.3,13.1-12,16.1C111.6,103.9,109.1,104.3,106.6,104.3z"/>
		<path class="st9" d="M114.2,79.7v1.5c5.6,0,9.9,2.3,11.2,6c1.9,5.5-3.3,12.3-11.5,15.1c-2.4,0.8-4.8,1.3-7.2,1.3
			c-5.6,0-9.9-2.3-11.2-6c-1.9-5.5,3.3-12.3,11.5-15.1c2.4-0.8,4.8-1.3,7.2-1.3L114.2,79.7 M114.2,79.7c-2.5,0-5.1,0.4-7.7,1.3
			c-9,3.1-14.6,10.8-12.4,17c1.5,4.4,6.6,7,12.6,7c2.5,0,5.1-0.4,7.7-1.3c9-3.1,14.6-10.8,12.4-17C125.2,82.3,120.2,79.7,114.2,79.7
			L114.2,79.7z"/>
	</g>
</g>
</svg>
