<?xml version="1.0" encoding="utf-8"?>
<!-- Generator: Adobe Illustrator 21.0.0, SVG Export Plug-In . SVG Version: 6.00 Build 0)  -->
<svg version="1.1" xmlns="http://www.w3.org/2000/svg" xmlns:xlink="http://www.w3.org/1999/xlink" x="0px" y="0px"
	 viewBox="0 0 279.4 236.6" style="enable-background:new 0 0 279.4 236.6;" xml:space="preserve">
<style type="text/css">
	.st0{opacity:0.26;fill:#1D1E1C;enable-background:new    ;}
	.st1{fill:#EEEEEE;stroke:#1D1E1C;stroke-width:1.5;stroke-miterlimit:10;}
	.st2{opacity:0.21;}
	.st3{fill:#1D1E1C;}
	.st4{fill:#1D1E1C;stroke:#1D1E1C;stroke-width:1.5;stroke-miterlimit:10;}
	.st5{fill:#FFFFFF;stroke:#1D1D1B;stroke-width:1.5;stroke-miterlimit:10;}
</style>
<g id="eyeball">
	<path class="st0" d="M153.3,166.2c23.6-5.9,37.6-29.8,31.9-53.5s-29-38.3-52.6-32.3c-23.6,5.9-38.1,29.9-32.3,53.6
		C105.9,157.7,129.7,172.2,153.3,166.2z"/>
	<path class="st1" d="M147.3,156.2c23.6-5.9,37.6-29.8,31.9-53.5s-29-38.3-52.6-32.3C103,76.3,88.5,100.3,94.2,124
		C99.9,147.7,123.7,162.2,147.3,156.2z"/>
	<g class="st2">
		<path class="st3" d="M167.3,98.1c-3-12.3-10.6-22.1-20.6-27.9c15.5,3.6,28.4,15.8,32.4,32.6c5.7,23.7-8.3,47.6-31.9,53.5
			c-11.4,2.9-22.9,0.9-32.3-4.5c6.6,1.5,13.6,1.6,20.6-0.2C159.1,145.7,173.1,121.8,167.3,98.1z"/>
	</g>
</g>
<g id="pupil">
	
		<ellipse transform="matrix(0.368 -0.9298 0.9298 0.368 -24.0657 181.1602)" class="st4" cx="121.2" cy="108.3" rx="27.1" ry="21.2"/>
	<ellipse transform="matrix(0.368 -0.9298 0.9298 0.368 -8.934 163.2779)" class="st5" cx="115.6" cy="88.2" rx="7.4" ry="5.8"/>
</g>
</svg>
