<?xml version="1.0" encoding="utf-8"?>
<!-- Generator: Adobe Illustrator 19.1.0, SVG Export Plug-In . SVG Version: 6.00 Build 0)  -->
<svg version="1.1" id="Capa_1" xmlns="http://www.w3.org/2000/svg" xmlns:xlink="http://www.w3.org/1999/xlink" x="0px" y="0px"
	 viewBox="0 0 110 150" style="enable-background:new 0 0 110 150;" xml:space="preserve">
<style type="text/css">
	.st0{fill:#1D1D1B;stroke:#1D1D1B;stroke-width:2;stroke-linecap:round;stroke-linejoin:round;stroke-miterlimit:10;}
	.st1{fill:#BBBABA;stroke:#1D1D1B;stroke-width:2;stroke-linecap:square;stroke-miterlimit:10;}
	.st2{fill:#FFFFFF;stroke:#1D1D1B;stroke-width:2;stroke-miterlimit:10;}
	.st3{fill:#1D1D1B;}
	.st4{fill:#333333;stroke:#1D1D1B;stroke-width:2;stroke-linecap:square;stroke-miterlimit:10;}
	.st5{opacity:0.2;fill:#1D1D1B;}
	.st6{enable-background:new    ;}
	.st7{clip-path:url(#SVGID_2_);enable-background:new    ;}
	.st8{fill:#131412;}
	.st9{fill:#131312;}
	.st10{fill:#121311;}
	.st11{fill:#D3B63C;stroke:#1D1E1C;stroke-width:2;stroke-linecap:round;stroke-linejoin:round;stroke-miterlimit:10;}
	.st12{fill:#E84E42;stroke:#1D1E1C;stroke-width:2;stroke-linecap:round;stroke-linejoin:round;stroke-miterlimit:10;}
	.st13{fill:#1D1D1B;stroke:#1D1D1B;stroke-width:1.5;stroke-linecap:round;stroke-linejoin:round;stroke-miterlimit:10;}
	.st14{fill:#BBBABA;stroke:#1D1D1B;stroke-width:1.5;stroke-linecap:square;stroke-miterlimit:10;}
	.st15{opacity:0.21;fill:#1D1E1C;}
	.st16{fill:#D3B63C;stroke:#1D1E1C;stroke-width:1.5;stroke-linecap:round;stroke-linejoin:round;stroke-miterlimit:10;}
	.st17{fill:#FAD843;stroke:#1D1E1C;stroke-width:1.5;stroke-linecap:round;stroke-linejoin:round;stroke-miterlimit:10;}
	.st18{fill:#E84E42;stroke:#1D1E1C;stroke-width:1.5;stroke-linecap:round;stroke-linejoin:round;stroke-miterlimit:10;}
	.st19{fill:#FFFFFF;stroke:#1D1D1B;stroke-width:1.5;stroke-miterlimit:10;}
	.st20{fill:#FAD843;stroke:#1D1E1C;stroke-width:2;stroke-linecap:round;stroke-linejoin:round;stroke-miterlimit:10;}
	.st21{opacity:0.2;}
	.st22{fill:none;stroke:#1D1E1C;stroke-width:1.5;stroke-miterlimit:10;}
	.st23{fill:#1D1E1C;stroke:#1D1E1C;stroke-width:1.5;stroke-linecap:round;stroke-linejoin:round;stroke-miterlimit:10;}
	.st24{fill:#4AC0EE;stroke:#1D1E1C;stroke-width:1.5;stroke-linecap:round;stroke-linejoin:round;stroke-miterlimit:10;}
	.st25{opacity:0.21;}
	.st26{fill:#1D1E1C;}
	.st27{fill:#4AC0EE;stroke:#1D1E1C;stroke-width:2;stroke-linecap:round;stroke-linejoin:round;stroke-miterlimit:10;}
	.st28{fill:#FFF8F1;stroke:#1D1E1C;stroke-width:2;stroke-linecap:round;stroke-linejoin:round;stroke-miterlimit:10;}
	.st29{fill:#65C1BE;stroke:#000000;stroke-width:1.5;stroke-linecap:round;stroke-linejoin:round;stroke-miterlimit:10;}
	.st30{fill:#FFFFFF;stroke:#1D1D1B;stroke-width:1.5;stroke-linecap:round;stroke-linejoin:round;stroke-miterlimit:10;}
	.st31{fill:#ADADA6;stroke:#1D1D1B;stroke-width:1.5;stroke-linecap:round;stroke-linejoin:round;stroke-miterlimit:10;}
	.st32{fill:#8F8D8E;stroke:#1D1D1B;stroke-width:1.5;stroke-linecap:round;stroke-linejoin:round;stroke-miterlimit:10;}
	.st33{fill:#DADAD2;stroke:#1D1D1B;stroke-width:1.5;stroke-linecap:round;stroke-linejoin:round;stroke-miterlimit:10;}
	.st34{fill:#65C1BE;stroke:#000000;stroke-width:1.5;stroke-miterlimit:10;}
	.st35{fill:#549E9A;stroke:#000000;stroke-width:1.5;stroke-miterlimit:10;}
	.st36{fill:#FFFFFF;}
	.st37{fill:#65C1BE;stroke:#000000;stroke-width:2;stroke-miterlimit:10;}
	.st38{fill:#549E9A;stroke:#000000;stroke-width:2;stroke-miterlimit:10;}
	.st39{fill:#65C1BE;stroke:#000000;stroke-width:2;stroke-linecap:round;stroke-linejoin:round;stroke-miterlimit:10;}
	.st40{clip-path:url(#SVGID_4_);}
	.st41{fill:#DADAD2;stroke:#1D1D1B;stroke-width:1.5;stroke-miterlimit:10;}
	.st42{fill:#77C6C7;stroke:#1D1D1B;stroke-width:1.5;stroke-linecap:round;stroke-linejoin:round;stroke-miterlimit:10;}
	.st43{fill:none;stroke:#000000;stroke-width:1.5;stroke-miterlimit:10;}
	.st44{fill:#F0F0F0;stroke:#1D1E1C;stroke-width:1.5;stroke-miterlimit:10;}
	.st45{clip-path:url(#SVGID_6_);}
	.st46{fill:#DADAD2;stroke:#1D1D1B;stroke-width:2;stroke-miterlimit:10;}
	.st47{fill:none;stroke:#1D1E1C;stroke-width:2;stroke-miterlimit:10;}
	.st48{fill:#77C6C7;stroke:#1D1D1B;stroke-width:2;stroke-linecap:round;stroke-linejoin:round;stroke-miterlimit:10;}
	.st49{fill:#DADAD2;stroke:#1D1D1B;stroke-width:2;stroke-linecap:round;stroke-linejoin:round;stroke-miterlimit:10;}
	.st50{fill:none;stroke:#000000;stroke-width:2;stroke-miterlimit:10;}
	.st51{fill:#F0F0F0;stroke:#1D1E1C;stroke-width:2;stroke-miterlimit:10;}
	.st52{clip-path:url(#SVGID_8_);}
	.st53{clip-path:url(#SVGID_10_);}
	.st54{fill:#DBBD3E;stroke:#1D1E1C;stroke-width:1.5;stroke-miterlimit:10;}
	.st55{opacity:0.23;}
	.st56{fill:#FAD844;stroke:#1D1E1C;stroke-width:1.5;stroke-miterlimit:10;}
	.st57{fill:#FFFFFF;stroke:#1D1D1B;stroke-width:2;stroke-linecap:round;stroke-linejoin:round;stroke-miterlimit:10;}
	.st58{fill:none;stroke:#1D1D1B;stroke-width:1.5;stroke-linecap:round;stroke-linejoin:round;stroke-miterlimit:10;}
	.st59{fill:none;stroke:#1D1D1B;stroke-width:2;stroke-linecap:round;stroke-linejoin:round;stroke-miterlimit:10;}
	.st60{fill:#333333;stroke:#1D1D1B;stroke-width:1.5;stroke-linecap:square;stroke-miterlimit:10;}
	.st61{fill:#FFFFFF;stroke:#1D1D1B;stroke-width:1.55;stroke-miterlimit:10;}
	.st62{fill:#DBBD3E;stroke:#1D1E1C;stroke-width:2;stroke-miterlimit:10;}
	.st63{fill:#FAD844;stroke:#1D1E1C;stroke-width:2;stroke-miterlimit:10;}
	.st64{fill:none;stroke:#1D1E1C;stroke-width:1.5;stroke-linecap:round;stroke-linejoin:round;stroke-miterlimit:10;}
	.st65{fill:none;stroke:#1D1E1C;stroke-width:2;stroke-linecap:round;stroke-linejoin:round;stroke-miterlimit:10;}
	.st66{fill:url(#);}
	.st67{fill:#FFFFFF;stroke:#1D1E1C;stroke-width:1.5;stroke-linecap:round;stroke-linejoin:round;stroke-miterlimit:10;}
	.st68{fill:#CC413A;stroke:#1D1E1C;stroke-width:1.5;stroke-linecap:round;stroke-linejoin:round;stroke-miterlimit:10;}
	.st69{opacity:0.26;fill:#1D1E1C;}
	.st70{fill:#EEEEEE;stroke:#1D1E1C;stroke-width:1.5;stroke-miterlimit:10;}
	.st71{fill:#1D1E1C;stroke:#1D1E1C;stroke-width:1.5;stroke-miterlimit:10;}
	.st72{fill:#C1C1BF;stroke:#1D1D1B;stroke-width:1.5;stroke-linecap:round;stroke-linejoin:round;stroke-miterlimit:10;}
	.st73{fill:#AFAFA8;stroke:#1D1D1B;stroke-width:1.5;stroke-linecap:round;stroke-linejoin:round;stroke-miterlimit:10;}
	.st74{fill:#C1C1BF;}
	.st75{fill:#1D1E1C;stroke:#1D1E1C;stroke-width:2;stroke-linecap:round;stroke-linejoin:round;stroke-miterlimit:10;}
	.st76{fill:#549E9A;stroke:#000000;stroke-width:2;stroke-linecap:round;stroke-linejoin:round;stroke-miterlimit:10;}
	.st77{fill:#ADADA6;stroke:#1D1D1B;stroke-width:2;stroke-linecap:round;stroke-linejoin:round;stroke-miterlimit:10;}
	.st78{fill:#8F8D8E;stroke:#1D1D1B;stroke-width:2;stroke-linecap:round;stroke-linejoin:round;stroke-miterlimit:10;}
	.st79{clip-path:url(#SVGID_12_);enable-background:new    ;}
	.st80{fill:#0F0F0E;}
	.st81{clip-path:url(#SVGID_14_);enable-background:new    ;}
	.st82{fill:#111110;}
	.st83{fill:#10100F;}
	.st84{fill:#484747;}
	.st85{clip-path:url(#SVGID_16_);enable-background:new    ;}
	.st86{fill:#4A494A;}
	.st87{fill:#151513;}
	.st88{clip-path:url(#SVGID_18_);enable-background:new    ;}
	.st89{fill:#121211;}
	.st90{fill:#131311;}
	.st91{clip-path:url(#SVGID_20_);enable-background:new    ;}
	.st92{clip-path:url(#SVGID_22_);enable-background:new    ;}
	.st93{clip-path:url(#SVGID_24_);enable-background:new    ;}
	.st94{fill:#656465;}
	.st95{clip-path:url(#SVGID_26_);enable-background:new    ;}
	.st96{fill:#595758;}
	.st97{fill:#5C5A5B;}
	.st98{fill:#5E5D5E;}
	.st99{clip-path:url(#SVGID_28_);enable-background:new    ;}
	.st100{fill:#565555;}
	.st101{fill:#535252;}
	.st102{fill:#504F50;}
	.st103{fill:#4D4C4D;}
	.st104{clip-path:url(#SVGID_30_);enable-background:new    ;}
	.st105{clip-path:url(#SVGID_32_);enable-background:new    ;}
	.st106{clip-path:url(#SVGID_34_);enable-background:new    ;}
	.st107{clip-path:url(#SVGID_36_);enable-background:new    ;}
	.st108{fill:#484748;}
	.st109{clip-path:url(#SVGID_38_);enable-background:new    ;}
	.st110{clip-path:url(#SVGID_40_);enable-background:new    ;}
	.st111{clip-path:url(#SVGID_42_);enable-background:new    ;}
	.st112{clip-path:url(#SVGID_44_);enable-background:new    ;}
	.st113{clip-path:url(#SVGID_46_);enable-background:new    ;}
	.st114{clip-path:url(#SVGID_48_);enable-background:new    ;}
	.st115{clip-path:url(#SVGID_50_);enable-background:new    ;}
	.st116{clip-path:url(#SVGID_52_);enable-background:new    ;}
	.st117{clip-path:url(#SVGID_54_);enable-background:new    ;}
	.st118{clip-path:url(#SVGID_56_);enable-background:new    ;}
	.st119{clip-path:url(#SVGID_58_);enable-background:new    ;}
	.st120{clip-path:url(#SVGID_60_);enable-background:new    ;}
	.st121{clip-path:url(#SVGID_62_);enable-background:new    ;}
	.st122{clip-path:url(#SVGID_64_);enable-background:new    ;}
	.st123{clip-path:url(#SVGID_66_);enable-background:new    ;}
	.st124{clip-path:url(#SVGID_68_);enable-background:new    ;}
	.st125{fill:#595859;}
	.st126{clip-path:url(#SVGID_70_);enable-background:new    ;}
	.st127{clip-path:url(#SVGID_72_);enable-background:new    ;}
	.st128{clip-path:url(#SVGID_74_);enable-background:new    ;}
	.st129{fill:#585758;}
	.st130{clip-path:url(#SVGID_76_);enable-background:new    ;}
	.st131{clip-path:url(#SVGID_78_);enable-background:new    ;}
	.st132{clip-path:url(#SVGID_80_);enable-background:new    ;}
	.st133{clip-path:url(#SVGID_82_);enable-background:new    ;}
	.st134{clip-path:url(#SVGID_84_);enable-background:new    ;}
	.st135{clip-path:url(#SVGID_86_);enable-background:new    ;}
	.st136{clip-path:url(#SVGID_88_);enable-background:new    ;}
	.st137{clip-path:url(#SVGID_90_);enable-background:new    ;}
	.st138{clip-path:url(#SVGID_92_);enable-background:new    ;}
	.st139{clip-path:url(#SVGID_94_);enable-background:new    ;}
	.st140{clip-path:url(#SVGID_96_);enable-background:new    ;}
	.st141{clip-path:url(#SVGID_98_);enable-background:new    ;}
	.st142{clip-path:url(#SVGID_100_);enable-background:new    ;}
	.st143{clip-path:url(#SVGID_102_);enable-background:new    ;}
	.st144{clip-path:url(#SVGID_104_);enable-background:new    ;}
	.st145{clip-path:url(#SVGID_106_);enable-background:new    ;}
	.st146{fill:#7D7B7C;}
	.st147{fill:#191918;}
	.st148{clip-path:url(#SVGID_108_);enable-background:new    ;}
	.st149{clip-path:url(#SVGID_110_);enable-background:new    ;}
	.st150{clip-path:url(#SVGID_112_);enable-background:new    ;}
	.st151{clip-path:url(#SVGID_114_);enable-background:new    ;}
	.st152{clip-path:url(#SVGID_116_);enable-background:new    ;}
	.st153{clip-path:url(#SVGID_118_);enable-background:new    ;}
	.st154{clip-path:url(#SVGID_120_);enable-background:new    ;}
	.st155{clip-path:url(#SVGID_122_);enable-background:new    ;}
	.st156{clip-path:url(#SVGID_124_);enable-background:new    ;}
	.st157{clip-path:url(#SVGID_126_);enable-background:new    ;}
	.st158{clip-path:url(#SVGID_128_);enable-background:new    ;}
	.st159{clip-path:url(#SVGID_130_);enable-background:new    ;}
	.st160{fill:#FFFFFF;stroke:#1D1D1B;stroke-width:2;stroke-linecap:round;stroke-miterlimit:10;}
	.st161{fill:#FFF8F1;}
	.st162{fill:#D3B63C;}
	.st163{fill:#FAD843;}
</style>
<g>
	<g>
		<g>
			<g>
				<g>
					<path class="st78" d="M67.3,74.8l-5.6-0.1c-0.5-2-1.3-3.9-2.4-5.7l3.9-4c-1.6-2.3-3.7-4.4-6-6l-4,3.9c-0.9-0.5-1.8-1-2.8-1.4
						c-1-0.4-2-0.7-2.9-1l-0.1-5.6c-2.9-0.5-5.8-0.5-8.5,0l-0.1,5.6c-2,0.5-3.9,1.3-5.7,2.4l-4-3.9c-2.3,1.6-4.4,3.7-6,6l3.9,4
						c-0.5,0.9-1,1.8-1.4,2.8c-0.4,1-0.7,2-1,2.9l-5.6,0.1c-0.5,2.9-0.5,5.8,0,8.5l5.6,0.1c0.5,2,1.3,3.9,2.4,5.7l-3.9,4
						c1.6,2.3,3.7,4.4,6,6l4-3.9c0.9,0.5,1.8,1,2.8,1.4c1,0.4,2,0.7,2.9,1l0.1,5.6c2.9,0.5,5.8,0.5,8.5,0l0.1-5.6
						c2-0.5,3.9-1.3,5.7-2.4l4,3.9c2.3-1.6,4.4-3.7,6-6l-3.9-4c0.5-0.9,1-1.8,1.4-2.8c0.4-1,0.7-2,1-2.9l5.6-0.1
						C67.8,80.5,67.8,77.6,67.3,74.8z M54,83.6c-2.5,6.1-9.4,8.9-15.5,6.4c-6.1-2.5-8.9-9.4-6.4-15.5c2.5-6.1,9.4-8.9,15.5-6.4
						C53.6,70.6,56.5,77.6,54,83.6z"/>
				</g>
			</g>
		</g>
	</g>
</g>
<path class="st15" d="M57.3,97.8c-9.9,0-19,1-26.2,2.6v19.7c7.3,1.6,16.3,2.6,26.2,2.6c23.8,0,43-5.6,43-12.4
	C100.3,103.3,81.1,97.8,57.3,97.8z"/>
<g>
	<path class="st39" d="M13.5,58.4c0-7.3,16.6-13.3,37-13.3c20.4,0,37,6,37,13.3c0,0.3,0,0.6-0.1,0.9h0c0,0-8.7,39.7-11.9,54.9
		c-1,4.5-11.2,8.2-25,8.3c-13.8,0-24-3.8-25-8.3C22.3,99,13.6,59.3,13.6,59.3h0C13.5,59,13.5,58.7,13.5,58.4z"/>
	<g class="st25">
		<path class="st26" d="M80,60.4L80,60.4c0-0.3,0.1-0.6,0.1-0.9c0-4.3-17.3-11.4-26.1-11.3c-10.5,0.2-10.5-2.8-8.5-2.9
			c1.6-0.1,3.3-0.1,5-0.1c20.4,0,37,6,37,13.3c0,0.3,0,0.6-0.1,0.9h0c0,0-8.7,39.7-11.9,54.9c-0.5,2.4-3.6,4.6-8.5,6.1
			c0.1-0.3,0.2-0.6,0.3-0.9C70.7,103,80,60.4,80,60.4z"/>
	</g>
	<ellipse class="st38" cx="50.4" cy="59" rx="33.1" ry="10.9"/>
</g>
<path class="st2" d="M37.6,85c0.4,6.5-2.6,11.8-6.8,11.7s-7.8-5.3-8.2-11.9c-0.4-6.5,2.6-11.8,6.8-11.7S37.2,78.4,37.6,85z"/>
<path class="st20" d="M23.8,52.6c1.8-1,4-1.2,5.8-2.3c2.3-1.4,2.7-4.6,3.7-7.2c1.7-4.4,5.8-7.3,9.6-10c3.1-2.2,6.7-4.4,10.4-3.6
	c2.8,0.6,4.8,2.8,6.7,5c6.9,8.2,13.1,17,18.4,26.3c0.4,0.7,1.9,2,1.8,2.8c-0.1,0.9-0.6,0-1.4,0.5c-5.5,3.1-10.4,4-14.6,4.5
	C53.5,70.1,46,70.5,35,68.6c-3.5-0.6-10.3-2.7-13.1-4.2C19.7,63.3,20.5,54.5,23.8,52.6z"/>
<path class="st59" d="M46.4,65.6c-0.6-3.2-3.5-5.8-6.7-6.2c-1.8-0.2-3.7,0.2-5.5-0.2c-1.5-0.4-2.9-1.5-3.5-2.9
	c-0.9-1.8-0.3-3.6,0-5.4c0.4-2.1,1.4-4.1,2-6.1"/>
<g>
	<path class="st38" d="M26.4,21.8c-0.6,0.5-3.1,3.8-3.5,4.4c-4.3,6.4,8,19.5,26,28.7c17.7,9.1,34.9,11.7,38.9,5.5l2.2-4.3L26.4,21.8
		z"/>
	<path class="st39" d="M90,56.1c3.5-6.8-8-19.5-26-28.7C45.9,18.1,29,16.2,25.6,23c-3.5,6.8,8,19.5,26,28.7
		C69.7,61,86.5,62.9,90,56.1z"/>
</g>
</svg>
