<?xml version="1.0" encoding="utf-8"?>
<!-- Generator: Adobe Illustrator 19.1.0, SVG Export Plug-In . SVG Version: 6.00 Build 0)  -->
<svg version="1.1" id="Capa_1" xmlns="http://www.w3.org/2000/svg" xmlns:xlink="http://www.w3.org/1999/xlink" x="0px" y="0px"
	 viewBox="-443 445.5 311.5 311.5" style="enable-background:new -443 445.5 311.5 311.5;" xml:space="preserve">
<style type="text/css">
	.st0{fill:#DADAD2;stroke:#1D1D1B;stroke-width:1.5;stroke-linecap:round;stroke-linejoin:round;stroke-miterlimit:10;}
	.st1{opacity:0.21;}
	.st2{fill:#1D1E1C;}
	.st3{fill:#D3B63C;stroke:#1D1E1C;stroke-width:1.5;stroke-linecap:round;stroke-linejoin:round;stroke-miterlimit:10;}
	.st4{fill:#FAD843;stroke:#1D1E1C;stroke-width:1.5;stroke-linecap:round;stroke-linejoin:round;stroke-miterlimit:10;}
	.st5{fill:#FFFFFF;stroke:#1D1D1B;stroke-width:1.5;stroke-miterlimit:10;}
	.st6{fill:#8F8D8E;stroke:#1D1D1B;stroke-width:1.5;stroke-linecap:round;stroke-linejoin:round;stroke-miterlimit:10;}
</style>
<g>
	<g>
		
			<rect x="-255.7" y="514.8" transform="matrix(0.7191 -0.6949 0.6949 0.7191 -463.0834 -16.5459)" class="st0" width="7.3" height="99.4"/>
	</g>
	<g>
		
			<rect x="-373.2" y="560.9" transform="matrix(0.6948 -0.7192 0.7192 0.6948 -504.7351 -60.3942)" class="st0" width="99.4" height="7.3"/>
	</g>
</g>
<path class="st0" d="M-287.8,515.4c6.6,0,11.9,5.4,11.9,11.9c0,6.6-5.4,11.9-11.9,11.9c-6.6,0-11.9-5.4-11.9-11.9
	S-294.4,515.4-287.8,515.4z"/>
<g class="st1">
	<path class="st2" d="M-280.9,525.2c0-3.4-1.4-6.5-3.7-8.6c5.1,1.4,8.9,6,8.9,11.5c0,6.6-5.4,11.9-11.9,11.9c-3.2,0-6.1-1.3-8.2-3.3
		c1,0.3,2,0.4,3,0.4C-286.2,537.1-280.9,531.8-280.9,525.2z"/>
</g>
<path class="st3" d="M-373.6,591.4h188.5c10.3,0,18.7,8.4,18.7,18.7v66.5c0,10.3-8.4,18.7-18.7,18.7h-188.5
	c-10.3,0-18.7-8.4-18.7-18.7v-66.5C-392.3,599.8-384,591.4-373.6,591.4z"/>
<path class="st4" d="M-382,591.4h188.5c10.3,0,18.7,8.4,18.7,18.7v66.5c0,10.3-8.4,18.7-18.7,18.7H-382c-10.3,0-18.7-8.4-18.7-18.7
	v-66.5C-400.7,599.8-392.3,591.4-382,591.4z"/>
<ellipse transform="matrix(0.5747 -0.8184 0.8184 0.5747 -662.8199 -52.8118)" class="st5" cx="-382.2" cy="611.3" rx="14.7" ry="10.2"/>
<g>
	<path class="st6" d="M-357.1,620.1c15.1,0,23.3,10,23.3,23.5c0,13-7.5,24.7-23.3,24.7c-16.5,0-23.3-10.7-23.3-24.7
		C-380.4,630.2-372.2,620.1-357.1,620.1z M-357.1,659.9c9.5,0,12.8-7.4,12.8-16.2s-4.2-15.1-12.8-15.1s-12.8,6.3-12.8,15.1
		S-366.9,659.9-357.1,659.9z"/>
	<path class="st6" d="M-326.1,627.4c0-4.7,2.4-6.1,6.1-6.1h16c8.8,0,15.9,4.4,15.9,14.6c0,8.4-5.8,14.6-16,14.6h-11.6V663
		c0,3.1-2,5.2-5.2,5.2c-3.2,0-5.2-2.1-5.2-5.2V627.4z M-315.6,642.3h9.8c4.2,0,7.4-2.6,7.4-6.5c0-4.6-3.3-6.5-8.4-6.5h-8.7v13
		H-315.6z"/>
	<path class="st6" d="M-280.8,627.4c0-4.7,2.4-6.1,6.1-6.1h24.6c3.1,0,5.3,0.9,5.3,4.2c0,3.3-2.2,4.2-5.3,4.2h-20.3v10h17.8
		c2.7,0,4.9,0.8,4.9,4c0,3.3-2.2,4-4.9,4h-17.8v11.1h20.8c3.1,0,5.3,0.9,5.3,4.2c0,3.3-2.2,4.2-5.3,4.2h-25.1
		c-3.7,0-6.1-1.5-6.1-6.1V627.4z"/>
	<path class="st6" d="M-237.5,626.5c0-4.3,2.1-6.1,6.6-6.1c2.2,0,4.1,0.8,5.2,2.7l18.3,29.6h0.1v-27.3c0-3.4,1.9-5,5-5s5,1.7,5,5
		v36.1c0,4.2-1.8,6.5-6.2,6.5c-3.3,0-4.4-0.7-5.8-2.8l-17.9-28.7h-0.1V663c0,3.4-1.9,5.1-5,5.1s-5-1.7-5-5.1v-36.5H-237.5z"/>
</g>
</svg>
