<?xml version="1.0" encoding="utf-8"?>
<!-- Generator: Adobe Illustrator 21.0.0, SVG Export Plug-In . SVG Version: 6.00 Build 0)  -->
<svg version="1.1" id="Capa_1" xmlns="http://www.w3.org/2000/svg" xmlns:xlink="http://www.w3.org/1999/xlink" x="0px" y="0px"
	 viewBox="0 0 143 150" style="enable-background:new 0 0 143 150;" xml:space="preserve">
<style type="text/css">
	.st0{fill:#DADAD2;stroke:#1D1D1B;stroke-width:2;stroke-linecap:round;stroke-linejoin:round;stroke-miterlimit:10;}
	.st1{fill:#DADAD2;}
	.st2{opacity:0.21;}
	.st3{fill:#1D1E1C;}
	.st4{fill:#DBBD3E;stroke:#1D1E1C;stroke-width:2;stroke-miterlimit:10;}
	.st5{fill:#FAD844;stroke:#1D1E1C;stroke-width:2;stroke-miterlimit:10;}
	.st6{fill:#FFFFFF;stroke:#1D1D1B;stroke-width:2;stroke-miterlimit:10;}
</style>
<g>
	<g>
		<g>
			<path class="st0" d="M115.7,90.8L115.7,90.8c-0.1,0-0.2,0-0.4-0.1L65.9,39.6c-0.1-0.1-0.1-0.2-0.1-0.4c0-0.1,0-0.2,0.1-0.4
				l3.8-3.7c0.1-0.1,0.5-0.1,0.6,0l49.5,51.1c0.1,0.1,0.1,0.5,0,0.6l-3.8,3.7C115.9,90.8,115.8,90.8,115.7,90.8z"/>
		</g>
	</g>
	<g>
		<g>
			
				<rect x="6.1" y="60.3" transform="matrix(0.6948 -0.7192 0.7192 0.6948 -32.5141 49.1659)" class="st1" width="71.1" height="5.2"/>
			<path class="st0" d="M19,90.8c-0.1,0-0.2,0-0.4-0.1l-3.8-3.7c-0.1-0.1-0.1-0.2-0.1-0.4s0-0.2,0.1-0.4l49.4-51.1
				c0.1-0.1,0.2-0.1,0.4-0.1c0.1,0,0.2,0,0.4,0.1l3.8,3.7c0.1,0.1,0.1,0.5,0,0.6L19.3,90.6C19.1,90.8,19,90.8,19,90.8z"/>
		</g>
	</g>
</g>
<path class="st0" d="M67.4,27.8c4.8,0,8.5,3.8,8.5,8.5s-3.8,8.5-8.5,8.5s-8.5-3.8-8.5-8.5C58.8,31.7,62.6,27.8,67.4,27.8z"/>
<g class="st2">
	<path class="st3" d="M72.3,34.7c0-2.4-1-4.6-2.7-6.2c3.7,1,6.3,4.3,6.3,8.3c0,4.8-3.8,8.5-8.5,8.5c-2.3,0-4.4-0.9-5.9-2.3
		c0.7,0.1,1.5,0.4,2.2,0.4C68.4,43.3,72.3,39.6,72.3,34.7z"/>
</g>
<path class="st4" d="M126.6,73.5H22.4c-5.7,0-10.2,4.6-10.4,10.4v9.9v9.1v7.9c0,5.7,4.6,10.4,10.4,10.4h104.3
	c5.7,0,10.4-4.6,10.4-10.4v-7.9v-9.1v-9.9C137,78,132.4,73.5,126.6,73.5z"/>
<path class="st5" d="M119.3,73.5H15.1c-5.7,0-10.2,4.6-10.4,10.4v9.9v9.1v7.9c0,5.7,4.6,10.4,10.4,10.4h104.3
	c5.7,0,10.4-4.6,10.4-10.4v-7.9v-9.1v-9.9C129.7,78,125.1,73.5,119.3,73.5z"/>
<g>
	<path class="st0" d="M30.7,104.9c-2,3.5-6.1,4-7.2,4.1c-0.7,0.1-1.5,0.1-2.3,0.1c-4.5,0-7.1-1.5-8.5-2.7c-0.6-0.5-0.9-0.9-1.8-2
		l4.3-2.7c0.1,0.1,0.5,0.6,1,1c1.5,1.2,3.7,2,5.6,2c0.2,0,1,0,1.8-0.2c0.1,0,2.4-0.7,2.4-2.4c0-2.1-3-2.2-5-2.4
		c-1.1-0.1-2.2-0.4-3.2-0.6c-1.6-0.4-3.2-1-4.3-2.4c-0.2-0.2-0.7-0.9-1-1.7c-0.1-0.4-0.2-1.1-0.2-2c0-0.2,0-1,0.1-1.6
		c0.2-1.5,0.9-2.6,2-3.7c1.1-1.1,3.3-2.3,7.1-2.3c1.3,0,4.4,0.1,7.4,2.2c0.7,0.5,1.2,0.9,2.6,2.1l-4.1,3c-1.2-1.2-2.1-2-3.8-2.4
		c-0.2-0.1-1.1-0.4-2.1-0.4c-2.3,0-3.4,1.3-3.4,2.4c0,0.6,0.4,1,0.5,1.2c0.7,0.9,2.1,0.9,4.1,1.1c1.3,0.2,2.6,0.5,3.8,0.7
		c0.9,0.1,3.8,0.7,4.9,3.5c0.1,0.4,0.5,1.3,0.5,2.4C31.5,101.8,31.5,103.2,30.7,104.9z"/>
	<path class="st0" d="M46.2,90.4v18.2h-5.7V90.4h-6v-4.5H52v4.5H46.2z"/>
	<path class="st0" d="M72.9,107.1c-1.2,1-3.4,2.4-7.2,2.4c-1.3,0-5.1-0.2-8-3.3c-3-3.2-3.3-7.6-3.3-8.9c0-1.2,0.1-4.4,2.2-7.3
		c1.1-1.7,3.8-4.6,9-4.6c4.3,0,7,2,8,3.2c2.2,2.2,3.4,6,3.4,9C77.1,101,75.5,104.6,72.9,107.1z M69.9,92.1c-0.2-0.4-1-1.2-2.2-1.7
		c-1-0.4-1.8-0.4-2.2-0.4c-1.2,0-2.1,0.4-2.6,0.6c-2.2,1.3-2.9,4-2.9,6.5c0,3,1,4.8,2,5.7c1,1.1,2.3,1.6,3.8,1.6
		c0.7,0,2.6-0.2,3.9-1.7c1.3-1.3,1.7-3.2,1.8-5C71.4,94.9,70.5,93,69.9,92.1z"/>
	<path class="st0" d="M96,108.5l-4.5-8H88v8h-5.7V86h10.2c0.6,0,1.3,0,2,0c1,0.1,4.6,0.2,6.3,3.5c0.4,0.6,0.9,2,0.9,3.8
		c0,2.6-1,3.9-1.8,4.6c-0.4,0.4-0.7,0.6-1.1,0.9c-0.4,0.2-0.9,0.5-1.8,0.9l5.2,9L96,108.5L96,108.5z M92.7,90.2h-4.9v6.2h4.6
		c0.2,0,0.9,0,1.5-0.2c1.8-0.6,2-2.3,2-2.9C96,90.2,93.7,90.2,92.7,90.2z"/>
	<path class="st0" d="M106.6,108.5V86h16.8v4.4h-11.1v4.1h10.4v4.3h-10.4v5.4h12.2v4.5L106.6,108.5L106.6,108.5z"/>
</g>
<ellipse transform="matrix(0.5747 -0.8184 0.8184 0.5747 -62.5609 48.3021)" class="st6" cx="15.2" cy="84.3" rx="8.2" ry="5.6"/>
</svg>
