<?xml version="1.0" encoding="utf-8"?>
<!-- Generator: Adobe Illustrator 19.1.0, SVG Export Plug-In . SVG Version: 6.00 Build 0)  -->
<svg version="1.1" id="Capa_1" xmlns="http://www.w3.org/2000/svg" xmlns:xlink="http://www.w3.org/1999/xlink" x="0px" y="0px"
	 viewBox="0 0 311.5 311.5" style="enable-background:new 0 0 311.5 311.5;" xml:space="preserve">
<style type="text/css">
	.st0{fill:#1D1D1B;stroke:#1D1D1B;stroke-width:1.5;stroke-linecap:round;stroke-linejoin:round;stroke-miterlimit:10;}
	.st1{fill:#BBBABA;stroke:#1D1D1B;stroke-width:1.5;stroke-linecap:square;stroke-miterlimit:10;}
	.st2{opacity:0.2;fill:#1D1D1B;}
	.st3{opacity:0.21;fill:#1D1E1C;}
	.st4{fill:#D3B63C;stroke:#1D1E1C;stroke-width:1.5;stroke-linecap:round;stroke-linejoin:round;stroke-miterlimit:10;}
	.st5{fill:#FAD843;stroke:#1D1E1C;stroke-width:1.5;stroke-linecap:round;stroke-linejoin:round;stroke-miterlimit:10;}
	.st6{fill:#E84E42;stroke:#1D1E1C;stroke-width:1.5;stroke-linecap:round;stroke-linejoin:round;stroke-miterlimit:10;}
	.st7{fill:#FFFFFF;stroke:#1D1D1B;stroke-width:1.5;stroke-miterlimit:10;}
	.st8{opacity:0.2;}
	.st9{fill:#1D1D1B;}
	.st10{fill:none;stroke:#1D1E1C;stroke-width:1.5;stroke-miterlimit:10;}
	.st11{fill:#1D1E1C;stroke:#1D1E1C;stroke-width:1.5;stroke-linecap:round;stroke-linejoin:round;stroke-miterlimit:10;}
	.st12{fill:#4AC0EE;stroke:#1D1E1C;stroke-width:1.5;stroke-linecap:round;stroke-linejoin:round;stroke-miterlimit:10;}
	.st13{opacity:0.21;}
	.st14{fill:#1D1E1C;}
	.st15{fill:#FFF8F1;stroke:#1D1E1C;stroke-width:1.5;stroke-linecap:round;stroke-linejoin:round;stroke-miterlimit:10;}
	.st16{fill:#65C1BE;stroke:#000000;stroke-width:1.5;stroke-linecap:round;stroke-linejoin:round;stroke-miterlimit:10;}
	.st17{fill:#FFFFFF;stroke:#1D1D1B;stroke-width:1.5;stroke-linecap:round;stroke-linejoin:round;stroke-miterlimit:10;}
	.st18{fill:#ADADA6;stroke:#1D1D1B;stroke-width:1.5;stroke-linecap:round;stroke-linejoin:round;stroke-miterlimit:10;}
	.st19{fill:#8F8D8E;stroke:#1D1D1B;stroke-width:1.5;stroke-linecap:round;stroke-linejoin:round;stroke-miterlimit:10;}
	.st20{fill:#DADAD2;stroke:#1D1D1B;stroke-width:1.5;stroke-linecap:round;stroke-linejoin:round;stroke-miterlimit:10;}
	.st21{fill:#65C1BE;stroke:#000000;stroke-width:1.5;stroke-miterlimit:10;}
	.st22{fill:#549E9A;stroke:#000000;stroke-width:1.5;stroke-miterlimit:10;}
	.st23{fill:#FFFFFF;}
	.st24{clip-path:url(#SVGID_2_);}
	.st25{fill:#DADAD2;stroke:#1D1D1B;stroke-width:1.5;stroke-miterlimit:10;}
	.st26{fill:#77C6C7;stroke:#1D1D1B;stroke-width:1.5;stroke-linecap:round;stroke-linejoin:round;stroke-miterlimit:10;}
	.st27{fill:none;stroke:#000000;stroke-width:1.5;stroke-miterlimit:10;}
	.st28{fill:#F0F0F0;stroke:#1D1E1C;stroke-width:1.5;stroke-miterlimit:10;}
	.st29{clip-path:url(#SVGID_4_);}
	.st30{fill:#DBBD3E;stroke:#1D1E1C;stroke-width:1.5;stroke-miterlimit:10;}
	.st31{opacity:0.23;}
	.st32{fill:#FAD844;stroke:#1D1E1C;stroke-width:1.5;stroke-miterlimit:10;}
	.st33{fill:none;stroke:#1D1D1B;stroke-width:1.5;stroke-linecap:round;stroke-linejoin:round;stroke-miterlimit:10;}
	.st34{fill:#333333;stroke:#1D1D1B;stroke-width:1.5;stroke-linecap:square;stroke-miterlimit:10;}
	.st35{fill:#FFFFFF;stroke:#1D1D1B;stroke-width:1.55;stroke-miterlimit:10;}
	.st36{fill:none;stroke:#1D1E1C;stroke-width:1.5;stroke-linecap:round;stroke-linejoin:round;stroke-miterlimit:10;}
	.st37{fill:url(#);}
	.st38{fill:#FFFFFF;stroke:#1D1E1C;stroke-width:1.5;stroke-linecap:round;stroke-linejoin:round;stroke-miterlimit:10;}
	.st39{fill:#CC413A;stroke:#1D1E1C;stroke-width:1.5;stroke-linecap:round;stroke-linejoin:round;stroke-miterlimit:10;}
	.st40{opacity:0.26;fill:#1D1E1C;}
	.st41{fill:#EEEEEE;stroke:#1D1E1C;stroke-width:1.5;stroke-miterlimit:10;}
	.st42{fill:#1D1E1C;stroke:#1D1E1C;stroke-width:1.5;stroke-miterlimit:10;}
	.st43{fill:#C1C1BF;stroke:#1D1D1B;stroke-width:1.5;stroke-linecap:round;stroke-linejoin:round;stroke-miterlimit:10;}
	.st44{fill:#AFAFA8;stroke:#1D1D1B;stroke-width:1.5;stroke-linecap:round;stroke-linejoin:round;stroke-miterlimit:10;}
	.st45{fill:#C1C1BF;}
</style>
<g>
	<g>
		<circle class="st5" cx="156.3" cy="156.1" r="113.2"/>
		<g>
			<defs>
				<circle id="SVGID_3_" cx="156.3" cy="156.1" r="113.2"/>
			</defs>
			<clipPath id="SVGID_2_">
				<use xlink:href="#SVGID_3_"  style="overflow:visible;"/>
			</clipPath>
			<g class="st24">
				<path class="st25" d="M234.4,250.4c-1.8-6.1-4.2-11.4-9.1-15.9c-5.4-4.9-13.4-8.2-19.9-11.3c-5.6-2.6-12.5-4.2-14.1-11
					c-1.7-7.4,1.8-15.9,5.1-22.4c10.9-21.5,13.3-55.3-7.6-72.2c-18.7-15.1-46.1-5.9-53.9,16.1c-6.6,18.5-3.2,41.2,4.3,59
					c0.5,1.3,1.1,2.6,1.7,3.9c1,2,2,3.9,3.1,5.8c7.1,12.3-10.8,19.4-10.8,19.4c-11.4,5.5-11,4.8-18.1,8.9
					c-5.2,2.9-10.1,6.5-13.9,11.1c-4.3,5.2-6.5,11.4-8.5,17.8c0,0,57,23.6,143.2,0.3C236.2,259.7,234.6,251.2,234.4,250.4z"/>
				<path class="st26" d="M131.4,140c0.1,0,0.1,0,0.2,0c41.2,10.4,67.3,4.4,72.8,2.8c0.6-0.2,1-0.8,0.9-1.4l-1-6.1
					c-0.1-0.7-0.9-1.2-1.6-1c-5.8,1.6-30,7-67.7-3c-0.7-0.2-1.4,0.2-1.6,0.9L131.4,140z"/>
				<path class="st20" d="M170,210.6c2.5,0.3,4.9,0.5,7.5,0.5c33.4,0,60.5-27.1,60.5-60.5S211,90,177.5,90S117,117.1,117,150.5
					c0,25,15.1,46.4,36.7,55.7"/>
			</g>
		</g>
		<circle class="st27" cx="156.3" cy="156.1" r="113.2"/>
	</g>
	
		<ellipse transform="matrix(0.7612 -0.6485 0.6485 0.7612 -31.3204 166.213)" class="st28" cx="210.1" cy="125.6" rx="12" ry="22.1"/>
</g>
</svg>
