<?xml version="1.0" encoding="utf-8"?>
<!-- Generator: Adobe Illustrator 19.1.0, SVG Export Plug-In . SVG Version: 6.00 Build 0)  -->
<svg version="1.1" id="Capa_1" xmlns="http://www.w3.org/2000/svg" xmlns:xlink="http://www.w3.org/1999/xlink" x="0px" y="0px"
	 viewBox="-544 526 110 150" style="enable-background:new -544 526 110 150;" xml:space="preserve">
<style type="text/css">
	.st0{opacity:0.21;fill:#1D1E1C;}
	.st1{fill:#FFF8F1;stroke:#1D1E1C;stroke-width:2;stroke-linecap:round;stroke-linejoin:round;stroke-miterlimit:10;}
	.st2{opacity:0.21;}
	.st3{fill:#1D1E1C;}
	.st4{fill:#4AC0EE;stroke:#1D1E1C;stroke-width:2;stroke-linecap:round;stroke-linejoin:round;stroke-miterlimit:10;}
	.st5{fill:#1D1E1C;stroke:#1D1E1C;stroke-width:2;stroke-linecap:round;stroke-linejoin:round;stroke-miterlimit:10;}
	.st6{fill:#FFFFFF;stroke:#1D1D1B;stroke-width:2;stroke-miterlimit:10;}
</style>
<g>
	<g>
		<ellipse class="st0" cx="-488.7" cy="647.1" rx="46.9" ry="14.1"/>
		<g>
			<path class="st1" d="M-435.6,615.9c0,0,0-0.1,0-0.1h0c0,0,0,0,0,0c-0.1-9.8-5.3-18.7-13.9-25.3c0,0,0,0,0,0
				c-0.6-0.4-1.2-0.9-1.7-1.3c0,0-0.1,0-0.1-0.1c-0.6-0.4-1.2-0.8-1.8-1.2c0,0-0.1-0.1-0.2-0.1c-0.6-0.4-1.2-0.7-1.8-1.1
				c-0.1,0-0.1-0.1-0.2-0.1c-0.6-0.3-1.2-0.7-1.8-1c-0.1,0-0.2-0.1-0.3-0.1c-0.6-0.3-1.2-0.6-1.8-0.9c-0.1-0.1-0.3-0.1-0.4-0.2
				c-0.6-0.3-1.1-0.5-1.7-0.8c-0.2-0.1-0.4-0.1-0.5-0.2c-0.6-0.2-1.1-0.5-1.7-0.7c-0.2-0.1-0.4-0.1-0.6-0.2
				c-0.6-0.2-1.1-0.4-1.7-0.6c-0.2-0.1-0.5-0.2-0.7-0.2c-0.5-0.2-1.1-0.4-1.6-0.5c-0.3-0.1-0.6-0.2-0.9-0.2c-0.5-0.1-1-0.3-1.5-0.4
				c-0.3-0.1-0.6-0.2-1-0.2c-0.5-0.1-1-0.2-1.5-0.4c-0.4-0.1-0.7-0.1-1.1-0.2c-0.5-0.1-1-0.2-1.4-0.3c-0.4-0.1-0.9-0.1-1.3-0.2
				c-0.4-0.1-0.8-0.1-1.3-0.2c-0.4-0.1-0.9-0.1-1.3-0.2c-0.4-0.1-0.8-0.1-1.3-0.2c-0.5-0.1-1-0.1-1.4-0.1c-0.4,0-0.8-0.1-1.2-0.1
				c-0.6,0-1.1-0.1-1.7-0.1c-0.3,0-0.7,0-1-0.1c-0.9,0-1.8,0-2.7,0c-0.9,0-1.8,0-2.7,0c-25.4,0.9-46,14.5-49.8,32
				c-0.4,1.9-0.6,3.8-0.6,5.8c0,0.6,0,1.2,0.1,1.7c0,0.2,0,0.3,0,0.5c0,0.4,0.1,0.9,0.1,1.3c0,0.2,0,0.3,0.1,0.5
				c0.1,0.5,0.2,1.1,0.3,1.6c0,0.2,0.1,0.4,0.1,0.6c0.1,0.3,0.2,0.6,0.2,1c0.1,0.3,0.1,0.5,0.2,0.8c0.1,0.2,0.2,0.5,0.2,0.7
				c0.2,0.6,0.4,1.3,0.7,1.9c0,0.1,0.1,0.1,0.1,0.2c0.2,0.4,0.3,0.8,0.5,1.2c0,0.1,0.1,0.1,0.1,0.2c7.1,14.9,27,25.7,50.3,25.7
				l1.8,0l0,0C-458.4,653-435.6,636.3-435.6,615.9z"/>
			<g class="st2">
				<path class="st3" d="M-435.6,615.7L-435.6,615.7C-435.6,615.7-435.6,615.7-435.6,615.7c-0.1-9.8-5.3-18.7-13.9-25.4c0,0,0,0,0,0
					c-0.6-0.4-1.2-0.9-1.7-1.3c0,0-0.1,0-0.1-0.1c-0.6-0.4-1.2-0.8-1.8-1.2c0,0-0.1-0.1-0.2-0.1c-0.6-0.4-1.2-0.7-1.8-1.1
					c-0.1,0-0.1-0.1-0.2-0.1c-0.6-0.3-1.2-0.7-1.8-1c-0.1,0-0.2-0.1-0.3-0.1c-0.6-0.3-1.2-0.6-1.8-0.9c-0.1-0.1-0.3-0.1-0.4-0.2
					c-0.6-0.3-1.1-0.5-1.7-0.8c-0.2-0.1-0.4-0.1-0.5-0.2c-0.6-0.2-1.1-0.5-1.7-0.7c-0.2-0.1-0.4-0.1-0.6-0.2
					c-0.6-0.2-1.1-0.4-1.7-0.6c-0.2-0.1-0.5-0.2-0.7-0.2c-0.1,0-0.2-0.1-0.3-0.1c0.2,0.1,0.4,0.2,0.6,0.4c0.1,0,0.1,0.1,0.2,0.1
					c0.6,0.4,1.2,0.7,1.8,1.1c0,0,0.1,0.1,0.2,0.1c0.6,0.4,1.2,0.8,1.8,1.2c0,0,0.1,0,0.1,0.1c0.6,0.4,1.2,0.9,1.7,1.3c0,0,0,0,0,0
					c8.6,6.7,13.8,15.6,13.9,25.3c0,0,0,0,0,0h0c0,0,0,0.1,0,0.1c0,20.5-22.8,37.1-51.4,37.8l-1.8,0c-7.9,0-15.3-1.2-22-3.4
					c9.1,5.1,20.5,8.1,32.9,8.1l1.8,0c28.5-0.7,51.4-17.3,51.4-37.8C-435.6,615.8-435.6,615.8-435.6,615.7z"/>
			</g>
			<circle class="st4" cx="-488.8" cy="616.5" r="25.7"/>
			<circle class="st5" cx="-488.8" cy="616.5" r="10.9"/>
			<path class="st6" d="M-513,612.6c-6.3,6.5-14.2,8.6-17.7,4.8c-3.5-3.8-1.3-12.2,5-18.7c6.3-6.5,14.2-8.6,17.7-4.8
				S-506.8,606.1-513,612.6z"/>
		</g>
	</g>
	<circle class="st6" cx="-496.5" cy="610.2" r="3.2"/>
</g>
</svg>
