<?xml version="1.0" encoding="utf-8"?>
<!-- Generator: Adobe Illustrator 19.1.0, SVG Export Plug-In . SVG Version: 6.00 Build 0)  -->
<svg version="1.1" id="Capa_1" xmlns="http://www.w3.org/2000/svg" xmlns:xlink="http://www.w3.org/1999/xlink" x="0px" y="0px"
	 viewBox="0 0 110 150" style="enable-background:new 0 0 110 150;" xml:space="preserve">
<style type="text/css">
	.st0{fill:#1D1D1B;stroke:#1D1D1B;stroke-width:2;stroke-linecap:round;stroke-linejoin:round;stroke-miterlimit:10;}
	.st1{fill:#BBBABA;stroke:#1D1D1B;stroke-width:2;stroke-linecap:square;stroke-miterlimit:10;}
	.st2{fill:#FFFFFF;stroke:#1D1D1B;stroke-width:2;stroke-miterlimit:10;}
	.st3{fill:#1D1D1B;}
	.st4{fill:#333333;stroke:#1D1D1B;stroke-width:2;stroke-linecap:square;stroke-miterlimit:10;}
	.st5{opacity:0.2;fill:#1D1D1B;}
	.st6{enable-background:new    ;}
	.st7{clip-path:url(#SVGID_2_);enable-background:new    ;}
	.st8{fill:#131412;}
	.st9{fill:#131312;}
	.st10{fill:#121311;}
	.st11{fill:#D3B63C;stroke:#1D1E1C;stroke-width:2;stroke-linecap:round;stroke-linejoin:round;stroke-miterlimit:10;}
	.st12{fill:#E84E42;stroke:#1D1E1C;stroke-width:2;stroke-linecap:round;stroke-linejoin:round;stroke-miterlimit:10;}
	.st13{fill:#1D1D1B;stroke:#1D1D1B;stroke-width:1.5;stroke-linecap:round;stroke-linejoin:round;stroke-miterlimit:10;}
	.st14{fill:#BBBABA;stroke:#1D1D1B;stroke-width:1.5;stroke-linecap:square;stroke-miterlimit:10;}
	.st15{opacity:0.21;fill:#1D1E1C;}
	.st16{fill:#D3B63C;stroke:#1D1E1C;stroke-width:1.5;stroke-linecap:round;stroke-linejoin:round;stroke-miterlimit:10;}
	.st17{fill:#FAD843;stroke:#1D1E1C;stroke-width:1.5;stroke-linecap:round;stroke-linejoin:round;stroke-miterlimit:10;}
	.st18{fill:#E84E42;stroke:#1D1E1C;stroke-width:1.5;stroke-linecap:round;stroke-linejoin:round;stroke-miterlimit:10;}
	.st19{fill:#FFFFFF;stroke:#1D1D1B;stroke-width:1.5;stroke-miterlimit:10;}
	.st20{fill:#FAD843;stroke:#1D1E1C;stroke-width:2;stroke-linecap:round;stroke-linejoin:round;stroke-miterlimit:10;}
	.st21{opacity:0.2;}
	.st22{fill:none;stroke:#1D1E1C;stroke-width:1.5;stroke-miterlimit:10;}
	.st23{fill:#1D1E1C;stroke:#1D1E1C;stroke-width:1.5;stroke-linecap:round;stroke-linejoin:round;stroke-miterlimit:10;}
	.st24{fill:#4AC0EE;stroke:#1D1E1C;stroke-width:1.5;stroke-linecap:round;stroke-linejoin:round;stroke-miterlimit:10;}
	.st25{opacity:0.21;}
	.st26{fill:#1D1E1C;}
	.st27{fill:#4AC0EE;stroke:#1D1E1C;stroke-width:2;stroke-linecap:round;stroke-linejoin:round;stroke-miterlimit:10;}
	.st28{fill:#FFF8F1;stroke:#1D1E1C;stroke-width:2;stroke-linecap:round;stroke-linejoin:round;stroke-miterlimit:10;}
	.st29{fill:#65C1BE;stroke:#000000;stroke-width:1.5;stroke-linecap:round;stroke-linejoin:round;stroke-miterlimit:10;}
	.st30{fill:#FFFFFF;stroke:#1D1D1B;stroke-width:1.5;stroke-linecap:round;stroke-linejoin:round;stroke-miterlimit:10;}
	.st31{fill:#ADADA6;stroke:#1D1D1B;stroke-width:1.5;stroke-linecap:round;stroke-linejoin:round;stroke-miterlimit:10;}
	.st32{fill:#8F8D8E;stroke:#1D1D1B;stroke-width:1.5;stroke-linecap:round;stroke-linejoin:round;stroke-miterlimit:10;}
	.st33{fill:#DADAD2;stroke:#1D1D1B;stroke-width:1.5;stroke-linecap:round;stroke-linejoin:round;stroke-miterlimit:10;}
	.st34{fill:#65C1BE;stroke:#000000;stroke-width:1.5;stroke-miterlimit:10;}
	.st35{fill:#549E9A;stroke:#000000;stroke-width:1.5;stroke-miterlimit:10;}
	.st36{fill:#FFFFFF;}
	.st37{fill:#65C1BE;stroke:#000000;stroke-width:2;stroke-miterlimit:10;}
	.st38{fill:#549E9A;stroke:#000000;stroke-width:2;stroke-miterlimit:10;}
	.st39{fill:#65C1BE;stroke:#000000;stroke-width:2;stroke-linecap:round;stroke-linejoin:round;stroke-miterlimit:10;}
	.st40{clip-path:url(#SVGID_4_);}
	.st41{fill:#DADAD2;stroke:#1D1D1B;stroke-width:1.5;stroke-miterlimit:10;}
	.st42{fill:#77C6C7;stroke:#1D1D1B;stroke-width:1.5;stroke-linecap:round;stroke-linejoin:round;stroke-miterlimit:10;}
	.st43{fill:none;stroke:#000000;stroke-width:1.5;stroke-miterlimit:10;}
	.st44{fill:#F0F0F0;stroke:#1D1E1C;stroke-width:1.5;stroke-miterlimit:10;}
	.st45{clip-path:url(#SVGID_6_);}
	.st46{fill:#DADAD2;stroke:#1D1D1B;stroke-width:2;stroke-miterlimit:10;}
	.st47{fill:none;stroke:#1D1E1C;stroke-width:2;stroke-miterlimit:10;}
	.st48{fill:#77C6C7;stroke:#1D1D1B;stroke-width:2;stroke-linecap:round;stroke-linejoin:round;stroke-miterlimit:10;}
	.st49{fill:#DADAD2;stroke:#1D1D1B;stroke-width:2;stroke-linecap:round;stroke-linejoin:round;stroke-miterlimit:10;}
	.st50{fill:none;stroke:#000000;stroke-width:2;stroke-miterlimit:10;}
	.st51{fill:#F0F0F0;stroke:#1D1E1C;stroke-width:2;stroke-miterlimit:10;}
	.st52{clip-path:url(#SVGID_8_);}
	.st53{clip-path:url(#SVGID_10_);}
	.st54{fill:#DBBD3E;stroke:#1D1E1C;stroke-width:1.5;stroke-miterlimit:10;}
	.st55{opacity:0.23;}
	.st56{fill:#FAD844;stroke:#1D1E1C;stroke-width:1.5;stroke-miterlimit:10;}
	.st57{fill:#FFFFFF;stroke:#1D1D1B;stroke-width:2;stroke-linecap:round;stroke-linejoin:round;stroke-miterlimit:10;}
	.st58{fill:none;stroke:#1D1D1B;stroke-width:1.5;stroke-linecap:round;stroke-linejoin:round;stroke-miterlimit:10;}
	.st59{fill:none;stroke:#1D1D1B;stroke-width:2;stroke-linecap:round;stroke-linejoin:round;stroke-miterlimit:10;}
	.st60{fill:#333333;stroke:#1D1D1B;stroke-width:1.5;stroke-linecap:square;stroke-miterlimit:10;}
	.st61{fill:#FFFFFF;stroke:#1D1D1B;stroke-width:1.55;stroke-miterlimit:10;}
	.st62{fill:#DBBD3E;stroke:#1D1E1C;stroke-width:2;stroke-miterlimit:10;}
	.st63{fill:#FAD844;stroke:#1D1E1C;stroke-width:2;stroke-miterlimit:10;}
	.st64{fill:none;stroke:#1D1E1C;stroke-width:1.5;stroke-linecap:round;stroke-linejoin:round;stroke-miterlimit:10;}
	.st65{fill:none;stroke:#1D1E1C;stroke-width:2;stroke-linecap:round;stroke-linejoin:round;stroke-miterlimit:10;}
	.st66{fill:url(#);}
	.st67{fill:#FFFFFF;stroke:#1D1E1C;stroke-width:1.5;stroke-linecap:round;stroke-linejoin:round;stroke-miterlimit:10;}
	.st68{fill:#CC413A;stroke:#1D1E1C;stroke-width:1.5;stroke-linecap:round;stroke-linejoin:round;stroke-miterlimit:10;}
	.st69{opacity:0.26;fill:#1D1E1C;}
	.st70{fill:#EEEEEE;stroke:#1D1E1C;stroke-width:1.5;stroke-miterlimit:10;}
	.st71{fill:#1D1E1C;stroke:#1D1E1C;stroke-width:1.5;stroke-miterlimit:10;}
	.st72{fill:#C1C1BF;stroke:#1D1D1B;stroke-width:1.5;stroke-linecap:round;stroke-linejoin:round;stroke-miterlimit:10;}
	.st73{fill:#AFAFA8;stroke:#1D1D1B;stroke-width:1.5;stroke-linecap:round;stroke-linejoin:round;stroke-miterlimit:10;}
	.st74{fill:#C1C1BF;}
	.st75{fill:#1D1E1C;stroke:#1D1E1C;stroke-width:2;stroke-linecap:round;stroke-linejoin:round;stroke-miterlimit:10;}
	.st76{fill:#549E9A;stroke:#000000;stroke-width:2;stroke-linecap:round;stroke-linejoin:round;stroke-miterlimit:10;}
	.st77{fill:#ADADA6;stroke:#1D1D1B;stroke-width:2;stroke-linecap:round;stroke-linejoin:round;stroke-miterlimit:10;}
	.st78{fill:#8F8D8E;stroke:#1D1D1B;stroke-width:2;stroke-linecap:round;stroke-linejoin:round;stroke-miterlimit:10;}
	.st79{clip-path:url(#SVGID_12_);enable-background:new    ;}
	.st80{fill:#0F0F0E;}
	.st81{clip-path:url(#SVGID_14_);enable-background:new    ;}
	.st82{fill:#111110;}
	.st83{fill:#10100F;}
	.st84{fill:#484747;}
	.st85{clip-path:url(#SVGID_16_);enable-background:new    ;}
	.st86{fill:#4A494A;}
	.st87{fill:#151513;}
	.st88{clip-path:url(#SVGID_18_);enable-background:new    ;}
	.st89{fill:#121211;}
	.st90{fill:#131311;}
	.st91{clip-path:url(#SVGID_20_);enable-background:new    ;}
	.st92{clip-path:url(#SVGID_22_);enable-background:new    ;}
	.st93{clip-path:url(#SVGID_24_);enable-background:new    ;}
	.st94{fill:#656465;}
	.st95{clip-path:url(#SVGID_26_);enable-background:new    ;}
	.st96{fill:#595758;}
	.st97{fill:#5C5A5B;}
	.st98{fill:#5E5D5E;}
	.st99{clip-path:url(#SVGID_28_);enable-background:new    ;}
	.st100{fill:#565555;}
	.st101{fill:#535252;}
	.st102{fill:#504F50;}
	.st103{fill:#4D4C4D;}
	.st104{clip-path:url(#SVGID_30_);enable-background:new    ;}
	.st105{clip-path:url(#SVGID_32_);enable-background:new    ;}
	.st106{clip-path:url(#SVGID_34_);enable-background:new    ;}
	.st107{clip-path:url(#SVGID_36_);enable-background:new    ;}
	.st108{fill:#484748;}
	.st109{clip-path:url(#SVGID_38_);enable-background:new    ;}
	.st110{clip-path:url(#SVGID_40_);enable-background:new    ;}
	.st111{clip-path:url(#SVGID_42_);enable-background:new    ;}
	.st112{clip-path:url(#SVGID_44_);enable-background:new    ;}
	.st113{clip-path:url(#SVGID_46_);enable-background:new    ;}
	.st114{clip-path:url(#SVGID_48_);enable-background:new    ;}
	.st115{clip-path:url(#SVGID_50_);enable-background:new    ;}
	.st116{clip-path:url(#SVGID_52_);enable-background:new    ;}
	.st117{clip-path:url(#SVGID_54_);enable-background:new    ;}
	.st118{clip-path:url(#SVGID_56_);enable-background:new    ;}
	.st119{clip-path:url(#SVGID_58_);enable-background:new    ;}
	.st120{clip-path:url(#SVGID_60_);enable-background:new    ;}
	.st121{clip-path:url(#SVGID_62_);enable-background:new    ;}
	.st122{clip-path:url(#SVGID_64_);enable-background:new    ;}
	.st123{clip-path:url(#SVGID_66_);enable-background:new    ;}
	.st124{clip-path:url(#SVGID_68_);enable-background:new    ;}
	.st125{fill:#595859;}
	.st126{clip-path:url(#SVGID_70_);enable-background:new    ;}
	.st127{clip-path:url(#SVGID_72_);enable-background:new    ;}
	.st128{clip-path:url(#SVGID_74_);enable-background:new    ;}
	.st129{fill:#585758;}
	.st130{clip-path:url(#SVGID_76_);enable-background:new    ;}
	.st131{clip-path:url(#SVGID_78_);enable-background:new    ;}
	.st132{clip-path:url(#SVGID_80_);enable-background:new    ;}
	.st133{clip-path:url(#SVGID_82_);enable-background:new    ;}
	.st134{clip-path:url(#SVGID_84_);enable-background:new    ;}
	.st135{clip-path:url(#SVGID_86_);enable-background:new    ;}
	.st136{clip-path:url(#SVGID_88_);enable-background:new    ;}
	.st137{clip-path:url(#SVGID_90_);enable-background:new    ;}
	.st138{clip-path:url(#SVGID_92_);enable-background:new    ;}
	.st139{clip-path:url(#SVGID_94_);enable-background:new    ;}
	.st140{clip-path:url(#SVGID_96_);enable-background:new    ;}
	.st141{clip-path:url(#SVGID_98_);enable-background:new    ;}
	.st142{clip-path:url(#SVGID_100_);enable-background:new    ;}
	.st143{clip-path:url(#SVGID_102_);enable-background:new    ;}
	.st144{clip-path:url(#SVGID_104_);enable-background:new    ;}
	.st145{clip-path:url(#SVGID_106_);enable-background:new    ;}
	.st146{fill:#7D7B7C;}
	.st147{fill:#191918;}
	.st148{clip-path:url(#SVGID_108_);enable-background:new    ;}
	.st149{clip-path:url(#SVGID_110_);enable-background:new    ;}
	.st150{clip-path:url(#SVGID_112_);enable-background:new    ;}
	.st151{clip-path:url(#SVGID_114_);enable-background:new    ;}
	.st152{clip-path:url(#SVGID_116_);enable-background:new    ;}
	.st153{clip-path:url(#SVGID_118_);enable-background:new    ;}
	.st154{clip-path:url(#SVGID_120_);enable-background:new    ;}
	.st155{clip-path:url(#SVGID_122_);enable-background:new    ;}
	.st156{clip-path:url(#SVGID_124_);enable-background:new    ;}
	.st157{clip-path:url(#SVGID_126_);enable-background:new    ;}
	.st158{clip-path:url(#SVGID_128_);enable-background:new    ;}
	.st159{clip-path:url(#SVGID_130_);enable-background:new    ;}
	.st160{fill:#FFFFFF;stroke:#1D1D1B;stroke-width:2;stroke-linecap:round;stroke-miterlimit:10;}
	.st161{fill:#FFF8F1;}
	.st162{fill:#D3B63C;}
	.st163{fill:#FAD843;}
</style>
<g>
	<g class="st25">
		<ellipse class="st26" cx="53.1" cy="112.2" rx="42" ry="10"/>
	</g>
	<g>
		<g>
			
				<rect x="3" y="44.5" transform="matrix(-0.9969 -7.838677e-02 7.838677e-02 -0.9969 76.989 156.6059)" class="st161" width="77.1" height="64.5"/>
			<path class="st26" d="M77.5,113C77.4,113,77.4,113,77.5,113l-76.9-6c-0.6,0-1-0.5-0.9-1.1l5.1-64.3c0-0.3,0.1-0.5,0.3-0.7
				s0.5-0.3,0.7-0.2l76.8,6c0.6,0,1,0.5,0.9,1.1L78.4,112c0,0.3-0.1,0.5-0.3,0.7C77.9,112.9,77.7,113,77.5,113z M1.7,105l74.8,5.9
				l4.9-62.3L6.6,42.7L1.7,105z"/>
		</g>
		<g>
			
				<rect x="10.2" y="51.6" transform="matrix(-0.9969 -7.838677e-02 7.838677e-02 -0.9969 76.989 156.6059)" class="st162" width="62.8" height="50.3"/>
			<path class="st26" d="M70.9,105.3C70.9,105.3,70.8,105.3,70.9,105.3l-62.6-4.9c-0.3,0-0.5-0.1-0.7-0.3c-0.2-0.2-0.3-0.5-0.2-0.7
				l3.9-50.2c0-0.6,0.5-1,1.1-0.9l62.6,4.9c0.3,0,0.5,0.1,0.7,0.3c0.2,0.2,0.3,0.5,0.2,0.7l-3.9,50.2
				C71.8,104.9,71.4,105.3,70.9,105.3z M9.4,98.5l60.6,4.8l3.8-48.2l-60.6-4.8L9.4,98.5z"/>
		</g>
	</g>
	<g class="st25">
		<polygon class="st26" points="94.5,94.6 88.8,45.6 12.4,55.6 18.4,107.3 33.8,108.2 		"/>
	</g>
	<g>
		
			<rect x="20.3" y="50.9" transform="matrix(-0.9731 0.2304 -0.2304 -0.9731 135.3315 150.4511)" class="st161" width="77.1" height="64.5"/>
		<path class="st26" d="M28.8,124.4c-0.5,0-0.9-0.3-1-0.8L13,60.9c-0.1-0.3,0-0.5,0.1-0.8c0.1-0.2,0.4-0.4,0.6-0.4l75-17.8
			c0.3-0.1,0.5,0,0.8,0.1c0.2,0.1,0.4,0.4,0.4,0.6l14.9,62.8c0.1,0.5-0.2,1.1-0.7,1.2l-75,17.8C29,124.4,28.9,124.4,28.8,124.4z
			 M15.2,61.4l14.4,60.8l73-17.3L88.2,44.1L15.2,61.4z"/>
	</g>
	<g>
		<path class="st163" d="M31.9,63.9c0.2,0.3,0.5,0.6,0.7,0.9c0.3,0.7,0.7,1.3,1,2c0.5,1.2,0.5,2.8,0.3,4.1c-0.3,1.2-0.9,2.7-1.8,3.6
			c-0.3,0.3-0.4,0.3-0.8,0.7c-0.4,0.4-0.6,0.6-1,0.8c-1.1,0.7-2.3,1.1-3.7,1.2c-0.5,0-1-0.1-1.5-0.1l9.6,38l60.9-15.3L83.3,51.1
			L31.9,63.9z"/>
		<path class="st26" d="M34.6,116.1c-0.2,0-0.4,0-0.5-0.1c-0.2-0.1-0.4-0.4-0.5-0.6l-9.6-38c-0.1-0.3,0-0.6,0.2-0.9
			c0.2-0.2,0.5-0.4,0.8-0.4l1.4,0.1c1.1-0.1,2.2-0.4,3.1-1.1c0.3-0.2,0.4-0.2,0.6-0.4l0.3-0.3c0.2-0.1,0.3-0.2,0.4-0.3
			c0.1-0.1,0.2-0.2,0.4-0.3c0.7-0.7,1.3-1.9,1.5-3.1c0.2-1.2,0.2-2.6-0.2-3.5c-0.2-0.5-0.5-1.1-0.8-1.6l-0.2-0.4
			c-0.1-0.2-0.3-0.4-0.5-0.7c-0.2-0.3-0.3-0.6-0.2-1c0.1-0.3,0.4-0.6,0.7-0.7L83,50.1c0.5-0.1,1.1,0.2,1.2,0.7l12.3,48.8
			c0.1,0.3,0,0.5-0.1,0.8c-0.1,0.2-0.4,0.4-0.6,0.5l-60.9,15.3C34.8,116.1,34.7,116.1,34.6,116.1z M26.4,78.2l9,35.7l58.9-14.8
			L82.5,52.3L33.6,64.6l0.1,0.1c0.3,0.6,0.6,1.2,0.9,1.8c0.5,1.3,0.6,3.1,0.3,4.6c-0.3,1.5-1.1,3.1-2.1,4.1
			c-0.2,0.2-0.3,0.3-0.5,0.5l-0.6,0.5c-0.3,0.2-0.5,0.5-0.9,0.7c-1.2,0.8-2.6,1.2-4.1,1.4C26.6,78.2,26.5,78.2,26.4,78.2L26.4,78.2z
			"/>
	</g>
	<g>
		<path class="st36" d="M39.7,76.2c-2.1,7.2-7.1,11.7-11.1,10.3c-4-1.5-5.6-8.5-3.5-15.6s7.1-11.7,11.1-10.3
			C40.3,62.1,41.8,69.1,39.7,76.2z"/>
		<path class="st3" d="M30.1,87.8c-0.7,0-1.3-0.1-1.9-0.3c-4.6-1.7-6.4-9.1-4.1-16.9c1.5-5,4.3-8.9,7.5-10.5c1.7-0.8,3.4-1,4.9-0.4
			c4.6,1.7,6.4,9.1,4.1,16.9c-1.5,5-4.3,8.9-7.5,10.5C32.1,87.5,31.1,87.8,30.1,87.8z M34.7,61.3c-0.7,0-1.4,0.2-2.1,0.6
			c-2.7,1.4-5.2,4.9-6.5,9.3c-1.9,6.5-0.6,13.1,2.8,14.4c1,0.4,2.2,0.3,3.4-0.3c2.7-1.4,5.2-4.9,6.5-9.3l0,0
			c1.9-6.5,0.6-13.1-2.8-14.4C35.5,61.4,35.1,61.3,34.7,61.3z"/>
	</g>
	<g>
		<path class="st162" d="M31,100.5c0,0,27.7-22.2,39.3-25.2c11.6-3,20.6,6.1,20.6,6.1l4.6,18.4l-60.9,15.3L31,100.5z"/>
		<path class="st26" d="M34.6,116.1c-0.2,0-0.4,0-0.5-0.1c-0.2-0.1-0.4-0.4-0.5-0.6L30,100.8c-0.1-0.4,0-0.8,0.3-1
			c1.1-0.9,28-22.4,39.6-25.4c12-3.2,21.2,6,21.6,6.4c0.1,0.1,0.2,0.3,0.3,0.5l4.6,18.4c0.1,0.3,0,0.5-0.1,0.8
			c-0.1,0.2-0.4,0.4-0.6,0.5l-60.9,15.3C34.8,116.1,34.7,116.1,34.6,116.1z M32.1,100.9l3.3,13l58.9-14.8L90,81.9
			c-1.3-1.2-9.5-8.3-19.5-5.7C60.1,79,35.9,97.9,32.1,100.9z"/>
	</g>
</g>
</svg>
