<?xml version="1.0" encoding="utf-8"?>
<!-- Generator: Adobe Illustrator 19.1.0, SVG Export Plug-In . SVG Version: 6.00 Build 0)  -->
<svg version="1.1" id="Capa_1" xmlns="http://www.w3.org/2000/svg" xmlns:xlink="http://www.w3.org/1999/xlink" x="0px" y="0px"
	 viewBox="0 0 311.5 311.5" style="enable-background:new 0 0 311.5 311.5;" xml:space="preserve">
<style type="text/css">
	.st0{fill:#1D1D1B;stroke:#1D1D1B;stroke-width:1.5;stroke-linecap:round;stroke-linejoin:round;stroke-miterlimit:10;}
	.st1{fill:#BBBABA;stroke:#1D1D1B;stroke-width:1.5;stroke-linecap:square;stroke-miterlimit:10;}
	.st2{opacity:0.2;fill:#1D1D1B;}
	.st3{opacity:0.21;fill:#1D1E1C;}
	.st4{fill:#D3B63C;stroke:#1D1E1C;stroke-width:1.5;stroke-linecap:round;stroke-linejoin:round;stroke-miterlimit:10;}
	.st5{fill:#FAD843;stroke:#1D1E1C;stroke-width:1.5;stroke-linecap:round;stroke-linejoin:round;stroke-miterlimit:10;}
	.st6{fill:#E84E42;stroke:#1D1E1C;stroke-width:1.5;stroke-linecap:round;stroke-linejoin:round;stroke-miterlimit:10;}
	.st7{fill:#FFFFFF;stroke:#1D1D1B;stroke-width:1.5;stroke-miterlimit:10;}
	.st8{opacity:0.2;}
	.st9{fill:#1D1D1B;}
	.st10{fill:none;stroke:#1D1E1C;stroke-width:1.5;stroke-miterlimit:10;}
	.st11{fill:#1D1E1C;stroke:#1D1E1C;stroke-width:1.5;stroke-linecap:round;stroke-linejoin:round;stroke-miterlimit:10;}
	.st12{fill:#4AC0EE;stroke:#1D1E1C;stroke-width:1.5;stroke-linecap:round;stroke-linejoin:round;stroke-miterlimit:10;}
	.st13{opacity:0.21;}
	.st14{fill:#1D1E1C;}
	.st15{fill:#FFF8F1;stroke:#1D1E1C;stroke-width:1.5;stroke-linecap:round;stroke-linejoin:round;stroke-miterlimit:10;}
	.st16{fill:#65C1BE;stroke:#000000;stroke-width:1.5;stroke-linecap:round;stroke-linejoin:round;stroke-miterlimit:10;}
	.st17{fill:#FFFFFF;stroke:#1D1D1B;stroke-width:1.5;stroke-linecap:round;stroke-linejoin:round;stroke-miterlimit:10;}
	.st18{fill:#ADADA6;stroke:#1D1D1B;stroke-width:1.5;stroke-linecap:round;stroke-linejoin:round;stroke-miterlimit:10;}
	.st19{fill:#8F8D8E;stroke:#1D1D1B;stroke-width:1.5;stroke-linecap:round;stroke-linejoin:round;stroke-miterlimit:10;}
	.st20{fill:#DADAD2;stroke:#1D1D1B;stroke-width:1.5;stroke-linecap:round;stroke-linejoin:round;stroke-miterlimit:10;}
	.st21{fill:#65C1BE;stroke:#000000;stroke-width:1.5;stroke-miterlimit:10;}
	.st22{fill:#549E9A;stroke:#000000;stroke-width:1.5;stroke-miterlimit:10;}
	.st23{fill:#FFFFFF;}
	.st24{clip-path:url(#SVGID_2_);}
	.st25{fill:#DADAD2;stroke:#1D1D1B;stroke-width:1.5;stroke-miterlimit:10;}
	.st26{fill:#77C6C7;stroke:#1D1D1B;stroke-width:1.5;stroke-linecap:round;stroke-linejoin:round;stroke-miterlimit:10;}
	.st27{fill:none;stroke:#000000;stroke-width:1.5;stroke-miterlimit:10;}
	.st28{fill:#F0F0F0;stroke:#1D1E1C;stroke-width:1.5;stroke-miterlimit:10;}
	.st29{clip-path:url(#SVGID_4_);}
	.st30{fill:#DBBD3E;stroke:#1D1E1C;stroke-width:1.5;stroke-miterlimit:10;}
	.st31{opacity:0.23;}
	.st32{fill:#FAD844;stroke:#1D1E1C;stroke-width:1.5;stroke-miterlimit:10;}
	.st33{fill:none;stroke:#1D1D1B;stroke-width:1.5;stroke-linecap:round;stroke-linejoin:round;stroke-miterlimit:10;}
	.st34{fill:#333333;stroke:#1D1D1B;stroke-width:1.5;stroke-linecap:square;stroke-miterlimit:10;}
	.st35{fill:#FFFFFF;stroke:#1D1D1B;stroke-width:1.55;stroke-miterlimit:10;}
	.st36{fill:none;stroke:#1D1E1C;stroke-width:1.5;stroke-linecap:round;stroke-linejoin:round;stroke-miterlimit:10;}
	.st37{fill:url(#);}
	.st38{fill:#FFFFFF;stroke:#1D1E1C;stroke-width:1.5;stroke-linecap:round;stroke-linejoin:round;stroke-miterlimit:10;}
	.st39{fill:#CC413A;stroke:#1D1E1C;stroke-width:1.5;stroke-linecap:round;stroke-linejoin:round;stroke-miterlimit:10;}
	.st40{opacity:0.26;fill:#1D1E1C;}
	.st41{fill:#EEEEEE;stroke:#1D1E1C;stroke-width:1.5;stroke-miterlimit:10;}
	.st42{fill:#1D1E1C;stroke:#1D1E1C;stroke-width:1.5;stroke-miterlimit:10;}
	.st43{fill:#C1C1BF;stroke:#1D1D1B;stroke-width:1.5;stroke-linecap:round;stroke-linejoin:round;stroke-miterlimit:10;}
	.st44{fill:#AFAFA8;stroke:#1D1D1B;stroke-width:1.5;stroke-linecap:round;stroke-linejoin:round;stroke-miterlimit:10;}
	.st45{fill:#C1C1BF;}
</style>
<path class="st3" d="M214.3,213.3c0,10.5-30.5,19.1-68.2,19.1s-79.8-8.5-79.8-19.1s42.1-19.1,79.8-19.1S214.3,202.8,214.3,213.3z"/>
<g>
	<g>
		<g>
			<circle class="st18" cx="156.1" cy="155.2" r="22.8"/>
		</g>
		<circle class="st19" cx="166.3" cy="157.1" r="59.4"/>
		<g>
			<path class="st20" d="M90.8,155.2c0,42.6,34.6,77.2,77.2,77.2c42.6,0,77.2-34.6,77.2-77.2S210.6,78,168,78
				C125.4,78,90.8,112.6,90.8,155.2z"/>
			<g class="st13">
				<path class="st14" d="M112.5,144.7c0-25.6,12.4-48.2,31.6-62.3c-31.5,9.7-54.4,39.1-54.4,73.8c0,42.6,34.6,77.2,77.2,77.2
					c17.1,0,32.9-5.6,45.6-14.9c-7.2,2.2-14.9,3.4-22.8,3.4C147,221.9,112.5,187.3,112.5,144.7z"/>
			</g>
		</g>
	</g>
</g>
<g>
	<path class="st19" d="M220.7,160.1c0.6-5.4,0.2-11-1.2-16.4l-10.8,0.5c-0.6-1.9-1.3-3.7-2.2-5.5c-0.9-1.8-1.9-3.5-3.1-5.1l6.9-8.3
		c-3.5-4.4-7.8-8-12.4-10.8l-7.2,8c-3.5-1.8-7.3-3.1-11.3-3.8l-1-10.8c-5.4-0.6-11-0.2-16.4,1.2l0.5,10.8c-1.9,0.6-3.7,1.3-5.5,2.2
		c-1.8,0.9-3.5,1.9-5.1,3.1l-8.3-6.9c-4.4,3.5-8,7.8-10.8,12.4l8,7.2c-1.8,3.5-3.1,7.3-3.8,11.3l-10.8,1c-0.6,5.4-0.2,11,1.2,16.4
		l10.8-0.5c0.6,1.9,1.3,3.7,2.2,5.5c0.9,1.8,1.9,3.5,3.1,5.1l-6.9,8.3c3.5,4.4,7.8,8,12.4,10.8l7.2-8c3.5,1.8,7.3,3.1,11.3,3.8
		l1,10.8c5.4,0.6,11,0.2,16.4-1.2l-0.5-10.8c1.9-0.6,3.7-1.3,5.5-2.2c1.8-0.9,3.5-1.9,5.1-3.1l8.3,6.9c4.4-3.5,8-7.8,10.8-12.4
		l-8-7.2c1.8-3.5,3.1-7.3,3.8-11.3L220.7,160.1z M183.8,175.6c-11.3,5.6-25,1.1-30.6-10.2c-5.6-11.3-1.1-25,10.2-30.6
		c11.3-5.6,25-1.1,30.6,10.2C199.6,156.3,195,170,183.8,175.6z"/>
</g>
<ellipse transform="matrix(-0.6969 0.7172 -0.7172 -0.6969 432.027 53.8755)" class="st7" cx="204.6" cy="118.2" rx="14.2" ry="24.8"/>
</svg>
