<?xml version="1.0" encoding="utf-8"?>
<!-- Generator: Adobe Illustrator 19.1.0, SVG Export Plug-In . SVG Version: 6.00 Build 0)  -->
<svg version="1.1" id="Capa_1" xmlns="http://www.w3.org/2000/svg" xmlns:xlink="http://www.w3.org/1999/xlink" x="0px" y="0px"
	 viewBox="0 0 63.3 63.3" style="enable-background:new 0 0 63.3 63.3;" xml:space="preserve">
<style type="text/css">
	.st0{fill:#FAD844;stroke:#1D1D1B;stroke-width:2;stroke-linecap:round;stroke-linejoin:round;stroke-miterlimit:10;}
	.st1{fill:none;stroke:#1D1E1C;stroke-width:2;stroke-miterlimit:10;}
	.st2{fill:#C6AB38;stroke:#1D1D1B;stroke-width:2;stroke-linecap:round;stroke-linejoin:round;stroke-miterlimit:10;}
	.st3{opacity:0.4;fill:#1D1E1C;}
	.st4{fill:#FFFFFF;stroke:#1D1D1B;stroke-width:2;stroke-miterlimit:10;}
	.st5{fill:#E84E42;stroke:#1D1E1C;stroke-width:2;stroke-linecap:round;stroke-linejoin:round;stroke-miterlimit:10;}
	.st6{opacity:0.4;fill:#1D1E1C;stroke:#1D1E1C;stroke-width:2;stroke-miterlimit:10;}
	.st7{fill:#E84E42;stroke:#1D1E1C;stroke-width:2;stroke-miterlimit:10;}
	.st8{fill:#B23932;stroke:#1D1E1C;stroke-width:2;stroke-miterlimit:10;}
	.st9{fill:#E84E42;}
	.st10{fill:#1D1E1C;}
	.st11{fill:#65C1BE;stroke:#1D1D1B;stroke-width:2;stroke-linecap:round;stroke-linejoin:round;stroke-miterlimit:10;}
	.st12{fill:#539995;stroke:#1D1D1B;stroke-width:2;stroke-linecap:round;stroke-linejoin:round;stroke-miterlimit:10;}
	.st13{fill:none;stroke:#1D1D1B;stroke-width:2;stroke-linecap:round;stroke-linejoin:round;stroke-miterlimit:10;}
	.st14{fill:#4AC0EE;stroke:#1D1E1C;stroke-width:2;stroke-linecap:round;stroke-linejoin:round;stroke-miterlimit:10;}
	.st15{fill:#38889B;stroke:#1D1E1C;stroke-width:2;stroke-linecap:round;stroke-linejoin:round;stroke-miterlimit:10;}
	.st16{fill:none;stroke:#1D1E1C;stroke-width:2;stroke-linecap:round;stroke-linejoin:round;stroke-miterlimit:10;}
</style>
<g>
	<path class="st11" d="M16,59.1h30.9c6.6,0,12-5.4,12-12V16.2c0-6.6-5.4-12-12-12H16c-6.6,0-12,5.4-12,12v30.9
		C4,53.7,9.4,59.1,16,59.1z"/>
	<path class="st6" d="M15.4,48.7h32c0.5,0,0.9-0.4,0.9-0.9V21.6c0-0.5-0.4-0.9-0.9-0.9h-32c-0.5,0-0.9,0.4-0.9,0.9v26.2
		C14.5,48.3,14.9,48.7,15.4,48.7z"/>
	<rect x="14.5" y="17.7" class="st12" width="33.8" height="28"/>
	<polyline class="st13" points="47.5,19.1 31.4,33.3 15.4,19.1 	"/>
	<line class="st13" x1="48.3" y1="45.6" x2="37.1" y2="29.6"/>
	<line class="st13" x1="14.5" y1="45.3" x2="25.8" y2="29.6"/>
	<g>
		
			<ellipse transform="matrix(-0.6068 0.7948 -0.7948 -0.6068 87.0593 -8.3626)" class="st4" cx="45.6" cy="17.4" rx="7.7" ry="9.5"/>
	</g>
</g>
</svg>
