<?xml version="1.0" encoding="utf-8"?>
<!-- Generator: Adobe Illustrator 21.0.0, SVG Export Plug-In . SVG Version: 6.00 Build 0)  -->
<svg version="1.1" id="Capa_1" xmlns="http://www.w3.org/2000/svg" xmlns:xlink="http://www.w3.org/1999/xlink" x="0px" y="0px"
	 viewBox="0 0 191.7 108.9" style="enable-background:new 0 0 191.7 108.9;" xml:space="preserve">
<style type="text/css">
	.st0{fill:#1D1D1B;stroke:#1D1D1B;stroke-width:1.5;stroke-linecap:round;stroke-linejoin:round;stroke-miterlimit:10;}
	.st1{fill:#BBBABA;stroke:#1D1D1B;stroke-width:1.5;stroke-linecap:square;stroke-miterlimit:10;}
	.st2{fill:#333333;stroke:#1D1D1B;stroke-width:1.5;stroke-linecap:square;stroke-miterlimit:10;}
	.st3{fill:#FFFFFF;stroke:#1D1D1B;stroke-width:1.5;stroke-miterlimit:10;}
</style>
<g>
	<g>
		<g>
			<ellipse class="st0" cx="96" cy="73.5" rx="94.4" ry="34"/>
			<g>
				<path class="st1" d="M96.1,55.4c44.5,0,81.8,11.1,91.8,26c1.7-2.6,2.6-5.2,2.6-8c0-18.8-42.3-34-94.4-34S1.7,54.6,1.7,73.4
					c0,2.8,0.9,5.4,2.6,8C14.3,66.5,51.6,55.4,96.1,55.4z"/>
			</g>
		</g>
	</g>
</g>
<g>
	<path class="st2" d="M168.3,94.8c1.5-5.9,2.3-12.1,2.3-18.5c0-41.2-33.4-74.6-74.6-74.6S21.4,35.1,21.4,76.3
		c0,6.4,0.8,12.7,2.3,18.6C41,102.3,66.9,107,95.8,107C125,106.9,151,102.2,168.3,94.8z"/>
</g>
<ellipse transform="matrix(0.7172 -0.6969 0.6969 0.7172 -7.6031 54.4998)" class="st3" cx="63.3" cy="36.6" rx="23.1" ry="13.3"/>
</svg>
