<?xml version="1.0" encoding="utf-8"?>
<!-- Generator: Adobe Illustrator 19.1.0, SVG Export Plug-In . SVG Version: 6.00 Build 0)  -->
<svg version="1.1" id="Capa_1" xmlns="http://www.w3.org/2000/svg" xmlns:xlink="http://www.w3.org/1999/xlink" x="0px" y="0px"
	 viewBox="-443 1244.5 311.5 311.5" style="enable-background:new -443 1244.5 311.5 311.5;" xml:space="preserve">
<style type="text/css">
	.st0{fill:#8F8D8E;stroke:#1D1D1B;stroke-width:1.5;stroke-linecap:round;stroke-linejoin:round;stroke-miterlimit:10;}
	.st1{opacity:0.21;}
	.st2{fill:#1D1E1C;}
	.st3{fill:#D3B63C;stroke:#1D1E1C;stroke-width:1.5;stroke-linecap:round;stroke-linejoin:round;stroke-miterlimit:10;}
	.st4{fill:#FAD843;stroke:#1D1E1C;stroke-width:1.5;stroke-linecap:round;stroke-linejoin:round;stroke-miterlimit:10;}
	.st5{fill:#FFFFFF;stroke:#1D1D1B;stroke-width:1.5;stroke-miterlimit:10;}
</style>
<g>
	<g>
		
			<rect x="-255.4" y="1308.7" transform="matrix(-0.7191 0.6949 -0.6949 -0.7191 511.0394 2510.1897)" class="st0" width="7.3" height="99.4"/>
	</g>
	<g>
		
			<rect x="-372.9" y="1354.7" transform="matrix(-0.6948 0.7192 -0.7192 -0.6948 429.0309 2534.7012)" class="st0" width="99.4" height="7.3"/>
	</g>
</g>
<path class="st0" d="M-287.5,1309.3c6.6,0,11.9,5.4,11.9,11.9c0,6.6-5.4,11.9-11.9,11.9c-6.6,0-11.9-5.4-11.9-11.9
	C-299.5,1314.6-294.1,1309.3-287.5,1309.3z"/>
<g class="st1">
	<path class="st2" d="M-280.6,1319c0-3.4-1.4-6.5-3.7-8.6c5.1,1.4,8.9,6,8.9,11.5c0,6.6-5.4,11.9-11.9,11.9c-3.2,0-6.1-1.3-8.2-3.3
		c1,0.3,2,0.4,3,0.4C-286,1331-280.6,1325.6-280.6,1319z"/>
</g>
<path class="st3" d="M-373.4,1385.3h188.5c10.3,0,18.7,8.4,18.7,18.7v66.5c0,10.3-8.4,18.7-18.7,18.7h-188.5
	c-10.3,0-18.7-8.4-18.7-18.7V1404C-392.1,1393.6-383.7,1385.3-373.4,1385.3z"/>
<path class="st4" d="M-381.8,1385.3h188.5c10.3,0,18.7,8.4,18.7,18.7v66.5c0,10.3-8.4,18.7-18.7,18.7h-188.5
	c-10.3,0-18.7-8.4-18.7-18.7V1404C-400.4,1393.6-392.1,1385.3-381.8,1385.3z"/>
<ellipse transform="matrix(0.8184 0.5747 -0.5747 0.8184 738.1344 474.6852)" class="st5" cx="-381.9" cy="1405.1" rx="10.2" ry="14.7"/>
<g>
	<path class="st5" d="M-356.9,1413.7c15.1,0,23.3,10,23.3,23.5c0,13-7.5,24.7-23.3,24.7c-16.5,0-23.3-10.7-23.3-24.7
		C-380.2,1423.8-372,1413.7-356.9,1413.7z M-356.9,1453.5c9.5,0,12.8-7.4,12.8-16.2s-4.2-15.1-12.8-15.1c-8.6,0-12.8,6.3-12.8,15.1
		S-366.8,1453.5-356.9,1453.5z"/>
	<path class="st5" d="M-325.9,1421c0-4.7,2.4-6.1,6.1-6.1h16c8.8,0,15.9,4.4,15.9,14.6c0,8.4-5.8,14.6-16,14.6h-11.6v12.5
		c0,3.1-2,5.2-5.2,5.2c-3.2,0-5.2-2.1-5.2-5.2V1421z M-315.5,1435.9h9.8c4.2,0,7.4-2.6,7.4-6.5c0-4.6-3.3-6.5-8.4-6.5h-8.7V1435.9z"
		/>
	<path class="st5" d="M-280.7,1421c0-4.7,2.4-6.1,6.1-6.1h24.6c3.1,0,5.3,0.9,5.3,4.2c0,3.3-2.2,4.2-5.3,4.2h-20.3v10h17.8
		c2.7,0,4.9,0.8,4.9,4c0,3.3-2.2,4-4.9,4h-17.8v11.1h20.8c3.1,0,5.3,0.9,5.3,4.2c0,3.3-2.2,4.2-5.3,4.2h-25.1
		c-3.7,0-6.1-1.5-6.1-6.1V1421z"/>
	<path class="st5" d="M-237.3,1420.1c0-4.3,2.1-6.1,6.6-6.1c2.2,0,4.1,0.8,5.2,2.7l18.3,29.6h0.1V1419c0-3.4,1.9-5,5-5
		c3.1,0,5,1.7,5,5v36.1c0,4.2-1.8,6.5-6.2,6.5c-3.3,0-4.4-0.7-5.8-2.8l-18.2-28.8h-0.1v26.5c0,3.4-1.9,5.1-5,5.1c-3.1,0-5-1.7-5-5.1
		V1420.1z"/>
</g>
</svg>
