<?xml version="1.0" encoding="utf-8"?>
<!-- Generator: Adobe Illustrator 19.1.0, SVG Export Plug-In . SVG Version: 6.00 Build 0)  -->
<svg version="1.1" id="Capa_1" xmlns="http://www.w3.org/2000/svg" xmlns:xlink="http://www.w3.org/1999/xlink" x="0px" y="0px"
	 viewBox="0 0 63.3 63.3" style="enable-background:new 0 0 63.3 63.3;" xml:space="preserve">
<style type="text/css">
	.st0{fill:#FAD844;stroke:#1D1D1B;stroke-width:2;stroke-linecap:round;stroke-linejoin:round;stroke-miterlimit:10;}
	.st1{fill:none;stroke:#1D1E1C;stroke-width:2;stroke-miterlimit:10;}
	.st2{fill:#C6AB38;stroke:#1D1D1B;stroke-width:2;stroke-linecap:round;stroke-linejoin:round;stroke-miterlimit:10;}
	.st3{opacity:0.4;fill:#1D1E1C;}
	.st4{fill:#FFFFFF;stroke:#1D1D1B;stroke-width:2;stroke-miterlimit:10;}
	.st5{fill:#E84E42;stroke:#1D1E1C;stroke-width:2;stroke-linecap:round;stroke-linejoin:round;stroke-miterlimit:10;}
	.st6{opacity:0.4;fill:#1D1E1C;stroke:#1D1E1C;stroke-width:2;stroke-miterlimit:10;}
	.st7{fill:#E84E42;stroke:#1D1E1C;stroke-width:2;stroke-miterlimit:10;}
	.st8{fill:#B23932;stroke:#1D1E1C;stroke-width:2;stroke-miterlimit:10;}
	.st9{fill:#E84E42;}
	.st10{fill:#1D1E1C;}
	.st11{fill:#65C1BE;stroke:#1D1D1B;stroke-width:2;stroke-linecap:round;stroke-linejoin:round;stroke-miterlimit:10;}
	.st12{fill:#539995;stroke:#1D1D1B;stroke-width:2;stroke-linecap:round;stroke-linejoin:round;stroke-miterlimit:10;}
	.st13{fill:none;stroke:#1D1D1B;stroke-width:2;stroke-linecap:round;stroke-linejoin:round;stroke-miterlimit:10;}
	.st14{fill:#4AC0EE;stroke:#1D1E1C;stroke-width:2;stroke-linecap:round;stroke-linejoin:round;stroke-miterlimit:10;}
	.st15{fill:#38889B;stroke:#1D1E1C;stroke-width:2;stroke-linecap:round;stroke-linejoin:round;stroke-miterlimit:10;}
	.st16{fill:none;stroke:#1D1E1C;stroke-width:2;stroke-linecap:round;stroke-linejoin:round;stroke-miterlimit:10;}
</style>
<g>
	<path class="st0" d="M15.9,59.6h30.9c6.6,0,12-5.4,12-12V16.6c0-6.6-5.4-12-12-12H15.9c-6.6,0-12,5.4-12,12v30.9
		C3.9,54.2,9.3,59.6,15.9,59.6z"/>
	<path class="st2" d="M13.1,49.2h36.6v-3.2c0-6.3-5.1-11.4-11.4-11.4H24.4c-6.3,0-11.4,5.1-11.4,11.4V49.2z"/>
	<path class="st3" d="M31.4,40c-3.6,0-6.8-1.8-8.7-4.6c1.5-0.6,3.2-0.9,4.9-0.9h7.7c1.7,0,3.4,0.3,4.9,0.9C38.2,38.2,35,40,31.4,40z
		"/>
	<circle class="st2" cx="31.4" cy="25.7" r="10.6"/>
	<g>
		
			<ellipse transform="matrix(-0.6068 0.7948 -0.7948 -0.6068 87.3228 -7.5809)" class="st4" cx="45.5" cy="17.8" rx="7.7" ry="9.5"/>
	</g>
</g>
</svg>
