<?xml version="1.0" encoding="utf-8"?>
<!-- Generator: Adobe Illustrator 21.0.0, SVG Export Plug-In . SVG Version: 6.00 Build 0)  -->
<svg version="1.1" id="Layer_1" xmlns="http://www.w3.org/2000/svg" xmlns:xlink="http://www.w3.org/1999/xlink" x="0px" y="0px"
	 viewBox="0 0 90 90" style="enable-background:new 0 0 90 90;" xml:space="preserve">
<style type="text/css">
	.st0{fill:#EEEEEE;stroke:#1D1E1C;stroke-width:1.5;stroke-miterlimit:10;}
	.st1{opacity:0.21;}
	.st2{fill:#1D1E1C;}
</style>
<g id="eyeball">
	<path class="st0" d="M55.6,87.9C79.2,82,93.2,58.1,87.5,34.4S58.5-3.9,34.9,2.1C11.3,8-3.2,32,2.5,55.7S32,93.9,55.6,87.9z"/>
	<g class="st1">
		<path class="st2" d="M75.6,29.8C72.6,17.5,65,7.7,55,1.9c15.5,3.6,28.4,15.8,32.4,32.6c5.7,23.7-8.3,47.6-31.9,53.5
			c-11.4,2.9-22.9,0.9-32.3-4.5c6.6,1.5,13.6,1.6,20.6-0.2C67.4,77.4,81.4,53.5,75.6,29.8z"/>
	</g>
</g>
</svg>
