<?xml version="1.0" encoding="utf-8"?>
<!-- Generator: Adobe Illustrator 19.1.0, SVG Export Plug-In . SVG Version: 6.00 Build 0)  -->
<svg version="1.1" id="Capa_1" xmlns="http://www.w3.org/2000/svg" xmlns:xlink="http://www.w3.org/1999/xlink" x="0px" y="0px"
	 viewBox="0 0 63.3 63.3" style="enable-background:new 0 0 63.3 63.3;" xml:space="preserve">
<style type="text/css">
	.st0{fill:#FAD844;stroke:#1D1D1B;stroke-width:2;stroke-linecap:round;stroke-linejoin:round;stroke-miterlimit:10;}
	.st1{fill:none;stroke:#1D1E1C;stroke-width:2;stroke-miterlimit:10;}
	.st2{fill:#C6AB38;stroke:#1D1D1B;stroke-width:2;stroke-linecap:round;stroke-linejoin:round;stroke-miterlimit:10;}
	.st3{opacity:0.4;fill:#1D1E1C;}
	.st4{fill:#FFFFFF;stroke:#1D1D1B;stroke-width:2;stroke-miterlimit:10;}
	.st5{fill:#E84E42;stroke:#1D1E1C;stroke-width:2;stroke-linecap:round;stroke-linejoin:round;stroke-miterlimit:10;}
	.st6{opacity:0.4;fill:#1D1E1C;stroke:#1D1E1C;stroke-width:2;stroke-miterlimit:10;}
	.st7{fill:#E84E42;stroke:#1D1E1C;stroke-width:2;stroke-miterlimit:10;}
	.st8{fill:#B23932;stroke:#1D1E1C;stroke-width:2;stroke-miterlimit:10;}
	.st9{fill:#E84E42;}
	.st10{fill:#1D1E1C;}
	.st11{fill:#65C1BE;stroke:#1D1D1B;stroke-width:2;stroke-linecap:round;stroke-linejoin:round;stroke-miterlimit:10;}
	.st12{fill:#539995;stroke:#1D1D1B;stroke-width:2;stroke-linecap:round;stroke-linejoin:round;stroke-miterlimit:10;}
	.st13{fill:none;stroke:#1D1D1B;stroke-width:2;stroke-linecap:round;stroke-linejoin:round;stroke-miterlimit:10;}
	.st14{fill:#4AC0EE;stroke:#1D1E1C;stroke-width:2;stroke-linecap:round;stroke-linejoin:round;stroke-miterlimit:10;}
	.st15{fill:#38889B;stroke:#1D1E1C;stroke-width:2;stroke-linecap:round;stroke-linejoin:round;stroke-miterlimit:10;}
	.st16{fill:none;stroke:#1D1E1C;stroke-width:2;stroke-linecap:round;stroke-linejoin:round;stroke-miterlimit:10;}
</style>
<g>
	<path class="st5" d="M15.9,59.1h30.9c6.6,0,12-5.4,12-12V16.2c0-6.6-5.4-12-12-12H15.9c-6.6,0-12,5.4-12,12v30.9
		C3.9,53.7,9.3,59.1,15.9,59.1z"/>
	<g>
		<circle class="st6" cx="31.4" cy="33.8" r="17"/>
		<circle class="st7" cx="31.4" cy="31.7" r="17"/>
		<circle class="st8" cx="31.4" cy="31.7" r="7.5"/>
		<g>
			<path class="st9" d="M27,30.1c-1.9,0-3.4-1.5-3.4-3.4c0-1.9,1.5-3.4,3.4-3.4s3.4,1.5,3.4,3.4C30.4,28.5,28.9,30.1,27,30.1z"/>
			<g>
				<path class="st10" d="M27,24.2c1.4,0,2.4,1.1,2.4,2.4s-1.1,2.4-2.4,2.4c-1.4,0-2.4-1.1-2.4-2.4S25.6,24.2,27,24.2 M27,22.2
					c-2.5,0-4.4,2-4.4,4.4s2,4.4,4.4,4.4s4.4-2,4.4-4.4S29.4,22.2,27,22.2L27,22.2z"/>
			</g>
		</g>
	</g>
	<g>
		
			<ellipse transform="matrix(-0.6068 0.7948 -0.7948 -0.6068 86.9604 -8.3136)" class="st4" cx="45.5" cy="17.4" rx="7.7" ry="9.5"/>
	</g>
</g>
</svg>
