<?xml version="1.0" encoding="utf-8"?>
<!-- Generator: Adobe Illustrator 19.1.0, SVG Export Plug-In . SVG Version: 6.00 Build 0)  -->
<svg version="1.1" id="Capa_1" xmlns="http://www.w3.org/2000/svg" xmlns:xlink="http://www.w3.org/1999/xlink" x="0px" y="0px"
	 viewBox="-443 445.5 311.5 311.5" style="enable-background:new -443 445.5 311.5 311.5;" xml:space="preserve">
<style type="text/css">
	.st0{fill:#DADAD2;}
	.st1{fill:#1D1D1B;}
	.st2{fill:#DADAD2;stroke:#1D1D1B;stroke-width:2;stroke-linecap:round;stroke-linejoin:round;stroke-miterlimit:10;}
	.st3{opacity:0.21;}
	.st4{fill:#1D1E1C;}
	.st5{fill:#D3B63C;stroke:#1D1E1C;stroke-width:2;stroke-linecap:round;stroke-linejoin:round;stroke-miterlimit:10;}
	.st6{fill:#FAD843;stroke:#1D1E1C;stroke-width:2;stroke-linecap:round;stroke-linejoin:round;stroke-miterlimit:10;}
	.st7{fill:#8F8D8E;stroke:#1D1D1B;stroke-width:2;stroke-linecap:round;stroke-linejoin:round;stroke-miterlimit:10;}
	.st8{fill:#FFFFFF;stroke:#1D1D1B;stroke-width:2;stroke-miterlimit:10;}
</style>
<g>
	<g>
		<g>
			
				<rect x="-241.2" y="482.6" transform="matrix(0.7191 -0.6949 0.6949 0.7191 -457.0553 -5.4472)" class="st0" width="11.8" height="160.1"/>
			<path class="st1" d="M-183.9,625.3C-183.9,625.3-183.9,625.3-183.9,625.3c-0.3,0-0.5-0.1-0.7-0.3l-111.3-115.1
				c-0.2-0.2-0.3-0.4-0.3-0.7c0-0.3,0.1-0.5,0.3-0.7l8.5-8.2c0.4-0.4,1-0.4,1.4,0l111.3,115.1c0.4,0.4,0.4,1,0,1.4l-8.5,8.2
				C-183.4,625.2-183.6,625.3-183.9,625.3z M-293.7,509.2l109.9,113.7l7-6.8l-109.9-113.7L-293.7,509.2z"/>
		</g>
	</g>
	<g>
		<g>
			
				<rect x="-430.4" y="556.7" transform="matrix(0.6948 -0.7192 0.7192 0.6948 -511.5226 -80.2985)" class="st0" width="160.1" height="11.8"/>
			<path class="st1" d="M-401.7,625.2c-0.3,0-0.5-0.1-0.7-0.3l-8.5-8.2c-0.2-0.2-0.3-0.4-0.3-0.7c0-0.3,0.1-0.5,0.3-0.7l111.2-115.1
				c0.2-0.2,0.4-0.3,0.7-0.3c0.2,0,0.5,0.1,0.7,0.3l8.5,8.2c0.4,0.4,0.4,1,0,1.4L-401,624.9C-401.2,625.1-401.5,625.2-401.7,625.2z
				 M-408.8,616l7,6.8l109.8-113.7l-7-6.8L-408.8,616z"/>
		</g>
	</g>
</g>
<path class="st2" d="M-292.8,483.5c10.6,0,19.2,8.6,19.2,19.2c0,10.6-8.6,19.2-19.2,19.2c-10.6,0-19.2-8.6-19.2-19.2
	C-312,492.1-303.4,483.5-292.8,483.5z"/>
<g class="st3">
	<path class="st4" d="M-281.7,499.2c0-5.5-2.3-10.4-6-13.9c8.2,2.2,14.3,9.7,14.3,18.6c0,10.6-8.6,19.2-19.2,19.2
		c-5.1,0-9.8-2-13.2-5.3c1.6,0.4,3.2,0.7,4.9,0.7C-290.4,518.5-281.7,509.8-281.7,499.2z"/>
</g>
<path class="st5" d="M-399.7,585.9H-165c12.9,0,23.3,10.4,23.3,23.3V692c0,12.9-10.4,23.3-23.3,23.3h-234.7
	c-12.9,0-23.3-10.4-23.3-23.3v-82.8C-423,596.3-412.6,585.9-399.7,585.9z"/>
<path class="st6" d="M-410.2,585.9h234.7c12.9,0,23.3,10.4,23.3,23.3V692c0,12.9-10.4,23.3-23.3,23.3h-234.7
	c-12.9,0-23.3-10.4-23.3-23.3v-82.8C-433.4,596.3-423,585.9-410.2,585.9z"/>
<g>
	<g>
		<path class="st7" d="M-385.8,606c11.8,0,18.1,7.8,18.1,18.3c0,10.1-5.9,19.2-18.1,19.2c-12.9,0-18.2-8.4-18.2-19.2
			C-404,613.8-397.6,606-385.8,606z M-385.8,637c7.4,0,10-5.8,10-12.7c0-6.9-3.3-11.8-10-11.8c-6.7,0-10,4.9-10,11.8
			C-395.8,631.2-393.5,637-385.8,637z"/>
		<path class="st7" d="M-356.5,611c0-3.4,1.6-4.8,5.1-4.8c1.7,0,3.2,0.6,4.1,2.1l14.3,23.1h0.1v-21.3c0-2.6,1.5-3.9,3.9-3.9
			s3.9,1.3,3.9,3.9v28.2c0,3.2-1.4,5.1-4.8,5.1c-2.6,0-3.4-0.5-4.5-2.2l-14.2-22.4h-0.1v20.7c0,2.6-1.5,3.9-3.9,3.9
			s-3.9-1.3-3.9-3.9V611z"/>
		<path class="st7" d="M-312.2,610.3c0-2.4,1.6-4.1,4.1-4.1s4.1,1.6,4.1,4.1v25.6h13.7c2.3,0,4.2,1.2,4.2,3.4s-1.9,3.4-4.2,3.4
			h-17.1c-2.9,0-4.8-1.1-4.8-4.8V610.3z"/>
		<path class="st7" d="M-276.3,610.3c0-2.4,1.6-4.1,4.1-4.1s4.1,1.6,4.1,4.1v29c0,2.4-1.6,4.1-4.1,4.1s-4.1-1.6-4.1-4.1V610.3z"/>
		<path class="st7" d="M-255.4,611c0-3.4,1.6-4.8,5.1-4.8c1.7,0,3.2,0.6,4.1,2.1l14.3,23.1h0.1v-21.3c0-2.6,1.5-3.9,3.9-3.9
			s3.9,1.3,3.9,3.9v28.2c0,3.2-1.4,5.1-4.8,5.1c-2.6,0-3.4-0.5-4.5-2.2l-14.2-22.4h-0.1v20.7c0,2.6-1.5,3.9-3.9,3.9
			s-3.9-1.3-3.9-3.9L-255.4,611L-255.4,611z"/>
		<path class="st7" d="M-210.9,611.6c0-3.6,1.9-4.8,4.8-4.8h19.2c2.4,0,4.1,0.7,4.1,3.3c0,2.6-1.7,3.3-4.1,3.3h-15.8v7.8h13.9
			c2.1,0,3.8,0.6,3.8,3.1s-1.7,3.1-3.8,3.1h-13.9v8.7h16.2c2.4,0,4.1,0.7,4.1,3.3s-1.7,3.3-4.1,3.3h-19.6c-2.9,0-4.8-1.1-4.8-4.8
			L-210.9,611.6L-210.9,611.6z"/>
	</g>
	<g>
		<path class="st7" d="M-381.1,671.6c8.5,1.9,10.6,7,10.6,11.7c0,7.3-5.5,12.8-16.7,12.8c-11.8,0-17-5.9-17-10.3
			c0-2.3,1.6-3.8,3.9-3.8c5,0,3.7,7.4,13.1,7.4c4.8,0,7.5-2.7,7.5-5.4c0-1.6-0.8-3.4-4-4.2l-10.5-2.7c-8.4-2.2-10-6.8-10-11.1
			c0-9,8.4-12.4,16.2-12.4c7.2,0,15.8,4.1,15.8,9.5c0,2.3-2,3.7-4.2,3.7c-4.3,0-3.5-6.1-12.2-6.1c-4.3,0-6.7,2-6.7,4.8
			s3.4,3.7,6.3,4.4L-381.1,671.6z"/>
		<path class="st7" d="M-347.7,662.3h-8.8c-2.7,0-4.8-1.4-4.8-3.9s2.2-3.9,4.8-3.9h26.8c2.7,0,4.8,1.4,4.8,3.9s-2.1,3.9-4.8,3.9
			h-8.8v29c0,2.8-1.8,4.6-4.6,4.6c-2.8,0-4.6-1.9-4.6-4.6V662.3z"/>
		<path class="st7" d="M-296,653.5c13.3,0,20.6,8.9,20.6,20.8c0,11.5-6.7,21.8-20.6,21.8c-14.6,0-20.6-9.5-20.6-21.8
			C-316.6,662.4-309.4,653.5-296,653.5z M-296,688.7c8.4,0,11.3-6.6,11.3-14.4S-288.4,661-296,661s-11.3,5.5-11.3,13.3
			S-304.7,688.7-296,688.7z"/>
		<path class="st7" d="M-262.6,659.9c0-4.1,2.2-5.4,5.4-5.4h15.4c11,0,14,6.1,14,11.3c0,4.4-2.6,8.8-7,9.8v0.1
			c4.7,0.7,5.6,4.1,5.6,8.3c0,4.7,1.2,6.4,1.2,8.4c0,2.1-2.2,3.6-4.4,3.6c-5.1,0-5.5-4.9-5.5-6.6c0-7.1-1.3-10-6.4-10h-9.2v11.9
			c0,2.8-1.8,4.6-4.6,4.6c-2.8,0-4.6-1.9-4.6-4.6v-31.4H-262.6z M-253.3,672.5h9.3c3.5,0,7-0.9,7-5.5c0-4.4-2.7-5.5-6.7-5.5h-9.6
			V672.5z"/>
		<path class="st7" d="M-214.4,659.9c0-4.1,2.1-5.4,5.4-5.4h21.8c2.7,0,4.7,0.8,4.7,3.7c0,2.9-2,3.7-4.7,3.7h-17.9v8.8h15.7
			c2.4,0,4.4,0.7,4.4,3.6c0,2.9-1.9,3.6-4.4,3.6h-15.7v9.8h18.4c2.7,0,4.7,0.8,4.7,3.7c0,2.9-2,3.7-4.7,3.7H-209
			c-3.3,0-5.4-1.3-5.4-5.4V659.9z"/>
	</g>
</g>
<ellipse transform="matrix(0.5747 -0.8184 0.8184 0.5747 -674.2328 -76.0586)" class="st8" cx="-410.3" cy="610.6" rx="18.3" ry="12.7"/>
</svg>
