<?xml version="1.0" encoding="utf-8"?>
<!-- Generator: Adobe Illustrator 19.1.0, SVG Export Plug-In . SVG Version: 6.00 Build 0)  -->
<svg version="1.1" id="Capa_1" xmlns="http://www.w3.org/2000/svg" xmlns:xlink="http://www.w3.org/1999/xlink" x="0px" y="0px"
	 viewBox="0 0 110 150" style="enable-background:new 0 0 110 150;" xml:space="preserve">
<style type="text/css">
	.st0{fill:#1D1D1B;stroke:#1D1D1B;stroke-width:2;stroke-linecap:round;stroke-linejoin:round;stroke-miterlimit:10;}
	.st1{fill:#BBBABA;stroke:#1D1D1B;stroke-width:2;stroke-linecap:square;stroke-miterlimit:10;}
	.st2{fill:#FFFFFF;stroke:#1D1D1B;stroke-width:2;stroke-miterlimit:10;}
	.st3{fill:#1D1D1B;}
	.st4{fill:#333333;stroke:#1D1D1B;stroke-width:2;stroke-linecap:square;stroke-miterlimit:10;}
	.st5{opacity:0.2;fill:#1D1D1B;}
	.st6{enable-background:new    ;}
	.st7{clip-path:url(#SVGID_2_);enable-background:new    ;}
	.st8{fill:#131412;}
	.st9{fill:#131312;}
	.st10{fill:#121311;}
	.st11{fill:#D3B63C;stroke:#1D1E1C;stroke-width:2;stroke-linecap:round;stroke-linejoin:round;stroke-miterlimit:10;}
	.st12{fill:#E84E42;stroke:#1D1E1C;stroke-width:2;stroke-linecap:round;stroke-linejoin:round;stroke-miterlimit:10;}
	.st13{fill:#1D1D1B;stroke:#1D1D1B;stroke-width:1.5;stroke-linecap:round;stroke-linejoin:round;stroke-miterlimit:10;}
	.st14{fill:#BBBABA;stroke:#1D1D1B;stroke-width:1.5;stroke-linecap:square;stroke-miterlimit:10;}
	.st15{opacity:0.21;fill:#1D1E1C;}
	.st16{fill:#D3B63C;stroke:#1D1E1C;stroke-width:1.5;stroke-linecap:round;stroke-linejoin:round;stroke-miterlimit:10;}
	.st17{fill:#FAD843;stroke:#1D1E1C;stroke-width:1.5;stroke-linecap:round;stroke-linejoin:round;stroke-miterlimit:10;}
	.st18{fill:#E84E42;stroke:#1D1E1C;stroke-width:1.5;stroke-linecap:round;stroke-linejoin:round;stroke-miterlimit:10;}
	.st19{fill:#FFFFFF;stroke:#1D1D1B;stroke-width:1.5;stroke-miterlimit:10;}
	.st20{fill:#FAD843;stroke:#1D1E1C;stroke-width:2;stroke-linecap:round;stroke-linejoin:round;stroke-miterlimit:10;}
	.st21{opacity:0.2;}
	.st22{fill:none;stroke:#1D1E1C;stroke-width:1.5;stroke-miterlimit:10;}
	.st23{fill:#1D1E1C;stroke:#1D1E1C;stroke-width:1.5;stroke-linecap:round;stroke-linejoin:round;stroke-miterlimit:10;}
	.st24{fill:#4AC0EE;stroke:#1D1E1C;stroke-width:1.5;stroke-linecap:round;stroke-linejoin:round;stroke-miterlimit:10;}
	.st25{opacity:0.21;}
	.st26{fill:#1D1E1C;}
	.st27{fill:#4AC0EE;stroke:#1D1E1C;stroke-width:2;stroke-linecap:round;stroke-linejoin:round;stroke-miterlimit:10;}
	.st28{fill:#FFF8F1;stroke:#1D1E1C;stroke-width:2;stroke-linecap:round;stroke-linejoin:round;stroke-miterlimit:10;}
	.st29{fill:#65C1BE;stroke:#000000;stroke-width:1.5;stroke-linecap:round;stroke-linejoin:round;stroke-miterlimit:10;}
	.st30{fill:#FFFFFF;stroke:#1D1D1B;stroke-width:1.5;stroke-linecap:round;stroke-linejoin:round;stroke-miterlimit:10;}
	.st31{fill:#ADADA6;stroke:#1D1D1B;stroke-width:1.5;stroke-linecap:round;stroke-linejoin:round;stroke-miterlimit:10;}
	.st32{fill:#8F8D8E;stroke:#1D1D1B;stroke-width:1.5;stroke-linecap:round;stroke-linejoin:round;stroke-miterlimit:10;}
	.st33{fill:#DADAD2;stroke:#1D1D1B;stroke-width:1.5;stroke-linecap:round;stroke-linejoin:round;stroke-miterlimit:10;}
	.st34{fill:#65C1BE;stroke:#000000;stroke-width:1.5;stroke-miterlimit:10;}
	.st35{fill:#549E9A;stroke:#000000;stroke-width:1.5;stroke-miterlimit:10;}
	.st36{fill:#FFFFFF;}
	.st37{fill:#65C1BE;stroke:#000000;stroke-width:2;stroke-miterlimit:10;}
	.st38{fill:#549E9A;stroke:#000000;stroke-width:2;stroke-miterlimit:10;}
	.st39{fill:#65C1BE;stroke:#000000;stroke-width:2;stroke-linecap:round;stroke-linejoin:round;stroke-miterlimit:10;}
	.st40{clip-path:url(#SVGID_4_);}
	.st41{fill:#DADAD2;stroke:#1D1D1B;stroke-width:1.5;stroke-miterlimit:10;}
	.st42{fill:#77C6C7;stroke:#1D1D1B;stroke-width:1.5;stroke-linecap:round;stroke-linejoin:round;stroke-miterlimit:10;}
	.st43{fill:none;stroke:#000000;stroke-width:1.5;stroke-miterlimit:10;}
	.st44{fill:#F0F0F0;stroke:#1D1E1C;stroke-width:1.5;stroke-miterlimit:10;}
	.st45{clip-path:url(#SVGID_6_);}
	.st46{fill:#DADAD2;stroke:#1D1D1B;stroke-width:2;stroke-miterlimit:10;}
	.st47{fill:none;stroke:#1D1E1C;stroke-width:2;stroke-miterlimit:10;}
	.st48{fill:#77C6C7;stroke:#1D1D1B;stroke-width:2;stroke-linecap:round;stroke-linejoin:round;stroke-miterlimit:10;}
	.st49{fill:#DADAD2;stroke:#1D1D1B;stroke-width:2;stroke-linecap:round;stroke-linejoin:round;stroke-miterlimit:10;}
	.st50{fill:none;stroke:#000000;stroke-width:2;stroke-miterlimit:10;}
	.st51{fill:#F0F0F0;stroke:#1D1E1C;stroke-width:2;stroke-miterlimit:10;}
	.st52{clip-path:url(#SVGID_8_);}
	.st53{clip-path:url(#SVGID_10_);}
	.st54{fill:#DBBD3E;stroke:#1D1E1C;stroke-width:1.5;stroke-miterlimit:10;}
	.st55{opacity:0.23;}
	.st56{fill:#FAD844;stroke:#1D1E1C;stroke-width:1.5;stroke-miterlimit:10;}
	.st57{fill:#FFFFFF;stroke:#1D1D1B;stroke-width:2;stroke-linecap:round;stroke-linejoin:round;stroke-miterlimit:10;}
	.st58{fill:none;stroke:#1D1D1B;stroke-width:1.5;stroke-linecap:round;stroke-linejoin:round;stroke-miterlimit:10;}
	.st59{fill:none;stroke:#1D1D1B;stroke-width:2;stroke-linecap:round;stroke-linejoin:round;stroke-miterlimit:10;}
	.st60{fill:#333333;stroke:#1D1D1B;stroke-width:1.5;stroke-linecap:square;stroke-miterlimit:10;}
	.st61{fill:#FFFFFF;stroke:#1D1D1B;stroke-width:1.55;stroke-miterlimit:10;}
	.st62{fill:#DBBD3E;stroke:#1D1E1C;stroke-width:2;stroke-miterlimit:10;}
	.st63{fill:#FAD844;stroke:#1D1E1C;stroke-width:2;stroke-miterlimit:10;}
	.st64{fill:none;stroke:#1D1E1C;stroke-width:1.5;stroke-linecap:round;stroke-linejoin:round;stroke-miterlimit:10;}
	.st65{fill:none;stroke:#1D1E1C;stroke-width:2;stroke-linecap:round;stroke-linejoin:round;stroke-miterlimit:10;}
	.st66{fill:url(#);}
	.st67{fill:#FFFFFF;stroke:#1D1E1C;stroke-width:1.5;stroke-linecap:round;stroke-linejoin:round;stroke-miterlimit:10;}
	.st68{fill:#CC413A;stroke:#1D1E1C;stroke-width:1.5;stroke-linecap:round;stroke-linejoin:round;stroke-miterlimit:10;}
	.st69{opacity:0.26;fill:#1D1E1C;}
	.st70{fill:#EEEEEE;stroke:#1D1E1C;stroke-width:1.5;stroke-miterlimit:10;}
	.st71{fill:#1D1E1C;stroke:#1D1E1C;stroke-width:1.5;stroke-miterlimit:10;}
	.st72{fill:#C1C1BF;stroke:#1D1D1B;stroke-width:1.5;stroke-linecap:round;stroke-linejoin:round;stroke-miterlimit:10;}
	.st73{fill:#AFAFA8;stroke:#1D1D1B;stroke-width:1.5;stroke-linecap:round;stroke-linejoin:round;stroke-miterlimit:10;}
	.st74{fill:#C1C1BF;}
	.st75{fill:#1D1E1C;stroke:#1D1E1C;stroke-width:2;stroke-linecap:round;stroke-linejoin:round;stroke-miterlimit:10;}
	.st76{fill:#549E9A;stroke:#000000;stroke-width:2;stroke-linecap:round;stroke-linejoin:round;stroke-miterlimit:10;}
	.st77{fill:#ADADA6;stroke:#1D1D1B;stroke-width:2;stroke-linecap:round;stroke-linejoin:round;stroke-miterlimit:10;}
	.st78{fill:#8F8D8E;stroke:#1D1D1B;stroke-width:2;stroke-linecap:round;stroke-linejoin:round;stroke-miterlimit:10;}
	.st79{clip-path:url(#SVGID_12_);enable-background:new    ;}
	.st80{fill:#0F0F0E;}
	.st81{clip-path:url(#SVGID_14_);enable-background:new    ;}
	.st82{fill:#111110;}
	.st83{fill:#10100F;}
	.st84{fill:#484747;}
	.st85{clip-path:url(#SVGID_16_);enable-background:new    ;}
	.st86{fill:#4A494A;}
	.st87{fill:#151513;}
	.st88{clip-path:url(#SVGID_18_);enable-background:new    ;}
	.st89{fill:#121211;}
	.st90{fill:#131311;}
	.st91{clip-path:url(#SVGID_20_);enable-background:new    ;}
	.st92{clip-path:url(#SVGID_22_);enable-background:new    ;}
	.st93{clip-path:url(#SVGID_24_);enable-background:new    ;}
	.st94{fill:#656465;}
	.st95{clip-path:url(#SVGID_26_);enable-background:new    ;}
	.st96{fill:#595758;}
	.st97{fill:#5C5A5B;}
	.st98{fill:#5E5D5E;}
	.st99{clip-path:url(#SVGID_28_);enable-background:new    ;}
	.st100{fill:#565555;}
	.st101{fill:#535252;}
	.st102{fill:#504F50;}
	.st103{fill:#4D4C4D;}
	.st104{clip-path:url(#SVGID_30_);enable-background:new    ;}
	.st105{clip-path:url(#SVGID_32_);enable-background:new    ;}
	.st106{clip-path:url(#SVGID_34_);enable-background:new    ;}
	.st107{clip-path:url(#SVGID_36_);enable-background:new    ;}
	.st108{fill:#484748;}
	.st109{clip-path:url(#SVGID_38_);enable-background:new    ;}
	.st110{clip-path:url(#SVGID_40_);enable-background:new    ;}
	.st111{clip-path:url(#SVGID_42_);enable-background:new    ;}
	.st112{clip-path:url(#SVGID_44_);enable-background:new    ;}
	.st113{clip-path:url(#SVGID_46_);enable-background:new    ;}
	.st114{clip-path:url(#SVGID_48_);enable-background:new    ;}
	.st115{clip-path:url(#SVGID_50_);enable-background:new    ;}
	.st116{clip-path:url(#SVGID_52_);enable-background:new    ;}
	.st117{clip-path:url(#SVGID_54_);enable-background:new    ;}
	.st118{clip-path:url(#SVGID_56_);enable-background:new    ;}
	.st119{clip-path:url(#SVGID_58_);enable-background:new    ;}
	.st120{clip-path:url(#SVGID_60_);enable-background:new    ;}
	.st121{clip-path:url(#SVGID_62_);enable-background:new    ;}
	.st122{clip-path:url(#SVGID_64_);enable-background:new    ;}
	.st123{clip-path:url(#SVGID_66_);enable-background:new    ;}
	.st124{clip-path:url(#SVGID_68_);enable-background:new    ;}
	.st125{fill:#595859;}
	.st126{clip-path:url(#SVGID_70_);enable-background:new    ;}
	.st127{clip-path:url(#SVGID_72_);enable-background:new    ;}
	.st128{clip-path:url(#SVGID_74_);enable-background:new    ;}
	.st129{fill:#585758;}
	.st130{clip-path:url(#SVGID_76_);enable-background:new    ;}
	.st131{clip-path:url(#SVGID_78_);enable-background:new    ;}
	.st132{clip-path:url(#SVGID_80_);enable-background:new    ;}
	.st133{clip-path:url(#SVGID_82_);enable-background:new    ;}
	.st134{clip-path:url(#SVGID_84_);enable-background:new    ;}
	.st135{clip-path:url(#SVGID_86_);enable-background:new    ;}
	.st136{clip-path:url(#SVGID_88_);enable-background:new    ;}
	.st137{clip-path:url(#SVGID_90_);enable-background:new    ;}
	.st138{clip-path:url(#SVGID_92_);enable-background:new    ;}
	.st139{clip-path:url(#SVGID_94_);enable-background:new    ;}
	.st140{clip-path:url(#SVGID_96_);enable-background:new    ;}
	.st141{clip-path:url(#SVGID_98_);enable-background:new    ;}
	.st142{clip-path:url(#SVGID_100_);enable-background:new    ;}
	.st143{clip-path:url(#SVGID_102_);enable-background:new    ;}
	.st144{clip-path:url(#SVGID_104_);enable-background:new    ;}
	.st145{clip-path:url(#SVGID_106_);enable-background:new    ;}
	.st146{fill:#7D7B7C;}
	.st147{fill:#191918;}
	.st148{clip-path:url(#SVGID_108_);enable-background:new    ;}
	.st149{clip-path:url(#SVGID_110_);enable-background:new    ;}
	.st150{clip-path:url(#SVGID_112_);enable-background:new    ;}
	.st151{clip-path:url(#SVGID_114_);enable-background:new    ;}
	.st152{clip-path:url(#SVGID_116_);enable-background:new    ;}
	.st153{clip-path:url(#SVGID_118_);enable-background:new    ;}
	.st154{clip-path:url(#SVGID_120_);enable-background:new    ;}
	.st155{clip-path:url(#SVGID_122_);enable-background:new    ;}
	.st156{clip-path:url(#SVGID_124_);enable-background:new    ;}
	.st157{clip-path:url(#SVGID_126_);enable-background:new    ;}
	.st158{clip-path:url(#SVGID_128_);enable-background:new    ;}
	.st159{clip-path:url(#SVGID_130_);enable-background:new    ;}
	.st160{fill:#FFFFFF;stroke:#1D1D1B;stroke-width:2;stroke-linecap:round;stroke-miterlimit:10;}
	.st161{fill:#FFF8F1;}
	.st162{fill:#D3B63C;}
	.st163{fill:#FAD843;}
</style>
<g>
	<g class="st25">
		<ellipse class="st26" cx="52.7" cy="112.4" rx="42" ry="10"/>
	</g>
	<g>
		<g>
			<g>
				
					<rect x="3.7" y="47" transform="matrix(0.9969 -7.838677e-02 7.838677e-02 0.9969 -6.0832 3.5578)" class="st161" width="77.1" height="64.5"/>
				<path class="st26" d="M6.4,115.4c-0.5,0-1-0.4-1-0.9L0.3,50.2c0-0.3,0.1-0.5,0.2-0.7c0.2-0.2,0.4-0.3,0.7-0.3l76.8-6
					c0.3,0,0.5,0.1,0.7,0.2c0.2,0.2,0.3,0.4,0.3,0.7l5.1,64.3c0,0.6-0.4,1-0.9,1.1L6.4,115.4C6.4,115.4,6.4,115.4,6.4,115.4z
					 M2.4,51.1l4.9,62.3l74.8-5.9l-4.9-62.3L2.4,51.1z"/>
			</g>
			<g>
				
					<rect x="10.9" y="54.1" transform="matrix(0.9969 -7.838677e-02 7.838677e-02 0.9969 -6.0832 3.5578)" class="st162" width="62.8" height="50.3"/>
				<path class="st26" d="M13,107.8c-0.5,0-1-0.4-1-0.9L8,56.7c0-0.3,0.1-0.5,0.2-0.7c0.2-0.2,0.4-0.3,0.7-0.3l62.6-4.9
					c0.3,0,0.5,0.1,0.7,0.2c0.2,0.2,0.3,0.4,0.3,0.7l3.9,50.2c0,0.6-0.4,1-0.9,1.1L13,107.8C13,107.8,13,107.8,13,107.8z M10.1,57.6
					l3.8,48.2l60.6-4.8l-3.8-48.2L10.1,57.6z"/>
			</g>
		</g>
		<g>
			<g class="st25">
				<polygon class="st26" points="92,112.9 103.4,64.8 33.3,48.2 28.1,48.2 13.5,109.8 26.6,112.9 				"/>
			</g>
			<g>
				
					<rect x="25.2" y="51.1" transform="matrix(0.9731 0.2304 -0.2304 0.9731 20.9166 -12.4452)" class="st161" width="77.1" height="64.5"/>
				<path class="st26" d="M93.8,124.6c-0.1,0-0.2,0-0.2,0l-75-17.8c-0.5-0.1-0.9-0.7-0.7-1.2l14.9-62.8c0.1-0.5,0.7-0.9,1.2-0.7
					l75,17.8c0.3,0.1,0.5,0.2,0.6,0.4c0.1,0.2,0.2,0.5,0.1,0.8l-14.9,62.8C94.7,124.3,94.3,124.6,93.8,124.6z M20,105.1l73,17.3
					l14.4-60.8l-73-17.3L20,105.1z"/>
			</g>
			<g>
				<path class="st163" d="M48.6,53.9c0.1,0.3,0.2,0.7,0.2,1.1c0,0.7,0,1.5-0.1,2.3c-0.1,1.3-0.9,2.7-1.7,3.7c-0.8,1-2,1.9-3.2,2.3
					c-0.3,0.1-0.5,0.1-1,0.2c-0.5,0.1-0.8,0.2-1.3,0.2c-1.3,0.1-2.6-0.1-3.8-0.6c-0.4-0.3-0.8-0.5-1.3-0.8l-9,38.1L88.5,115l11.6-49
					L48.6,53.9z"/>
				<path class="st26" d="M88.5,116c-0.1,0-0.2,0-0.2,0l-61.1-14.5c-0.3-0.1-0.5-0.2-0.6-0.4c-0.1-0.2-0.2-0.5-0.1-0.8l9-38.1
					c0.1-0.3,0.3-0.6,0.6-0.7c0.3-0.1,0.6-0.1,0.9,0.1l1.2,0.7c1.1,0.4,2.1,0.6,3.3,0.5c0.2,0,0.4,0,0.7-0.1l0.4-0.1
					c0.2,0,0.3-0.1,0.5-0.1c0.2,0,0.3-0.1,0.5-0.1c1-0.3,2-1.1,2.8-2c0.8-0.9,1.3-2.2,1.4-3.2c0.1-0.6,0.1-1.2,0.1-1.8l0-0.4
					c0-0.2-0.1-0.5-0.2-0.8c-0.1-0.3,0-0.7,0.3-0.9c0.2-0.2,0.6-0.4,0.9-0.3l51.5,12.2c0.5,0.1,0.9,0.7,0.7,1.2l-11.6,49
					c-0.1,0.3-0.2,0.5-0.4,0.6C88.8,116,88.7,116,88.5,116z M28.6,99.8l59.1,14l11.1-47L49.8,55.2l0,0.2c0,0.6,0,1.3-0.1,2
					c-0.1,1.4-0.9,3-1.9,4.3c-1,1.2-2.4,2.2-3.7,2.7c-0.3,0.1-0.4,0.1-0.7,0.2l-0.8,0.2c-0.3,0.1-0.7,0.2-1.1,0.2
					c-1.5,0.1-2.9-0.1-4.3-0.7c0,0-0.1,0-0.1-0.1L37.1,64L28.6,99.8z"/>
			</g>
		</g>
		<g>
			<path class="st36" d="M49.8,68.4c-5.2,5.4-11.7,7.2-14.6,4c-2.9-3.2-1-10.1,4.1-15.5s11.7-7.2,14.6-4C56.8,56.1,55,63,49.8,68.4z
				"/>
			<path class="st3" d="M39.1,74.9c0,0-0.1,0-0.1,0c-1.9,0-3.5-0.7-4.6-1.9c-3.3-3.6-1.5-11,4.2-16.8c3.6-3.7,7.9-5.9,11.5-5.9
				c1.9,0,3.5,0.7,4.6,1.9c3.3,3.6,1.5,11-4.2,16.8C47,72.7,42.7,74.9,39.1,74.9z M50,52.3c-3,0-6.8,2-9.9,5.2
				c-4.7,4.9-6.6,11.4-4.1,14.1c0.7,0.8,1.8,1.2,3.1,1.2c0,0,0.1,0,0.1,0c3,0,6.8-2,9.9-5.2c4.7-4.9,6.6-11.4,4.1-14.1
				C52.5,52.7,51.4,52.3,50,52.3C50,52.3,50,52.3,50,52.3z"/>
		</g>
		<g>
			<path class="st162" d="M30.9,85.9c0,0,34.8-6.9,46.5-4.3C89,84.2,92.9,96.5,92.9,96.5L88.5,115l-61.1-14.5L30.9,85.9z"/>
			<path class="st26" d="M88.5,116c-0.1,0-0.2,0-0.2,0l-61.1-14.5c-0.3-0.1-0.5-0.2-0.6-0.4c-0.1-0.2-0.2-0.5-0.1-0.8l3.5-14.7
				c0.1-0.4,0.4-0.7,0.8-0.8c1.4-0.3,35.2-7,46.9-4.3c12.1,2.7,16.1,15.1,16.2,15.6c0.1,0.2,0.1,0.4,0,0.5l-4.4,18.5
				c-0.1,0.3-0.2,0.5-0.4,0.6C88.8,116,88.7,116,88.5,116z M28.6,99.8l59.1,14l4.1-17.2c-0.6-1.7-4.6-11.7-14.7-14
				c-10.5-2.4-40.7,3.3-45.4,4.2L28.6,99.8z"/>
		</g>
	</g>
</g>
</svg>
