<?xml version="1.0" encoding="utf-8"?>
<!-- Generator: Adobe Illustrator 19.1.0, SVG Export Plug-In . SVG Version: 6.00 Build 0)  -->
<svg version="1.1" id="Capa_1" xmlns="http://www.w3.org/2000/svg" xmlns:xlink="http://www.w3.org/1999/xlink" x="0px" y="0px"
	 viewBox="-443 833.5 311.5 311.5" style="enable-background:new -443 833.5 311.5 311.5;" xml:space="preserve">
<style type="text/css">
	.st0{fill:#8F8D8E;stroke:#1D1D1B;stroke-width:1.5;stroke-linecap:round;stroke-linejoin:round;stroke-miterlimit:10;}
	.st1{opacity:0.21;}
	.st2{fill:#1D1E1C;}
	.st3{fill:#D3B63C;stroke:#1D1E1C;stroke-width:1.5;stroke-linecap:round;stroke-linejoin:round;stroke-miterlimit:10;}
	.st4{fill:#FAD843;stroke:#1D1E1C;stroke-width:1.5;stroke-linecap:round;stroke-linejoin:round;stroke-miterlimit:10;}
	.st5{fill:#FFFFFF;stroke:#1D1D1B;stroke-width:1.5;stroke-miterlimit:10;}
</style>
<g>
	<g>
		
			<rect x="-255.4" y="897.7" transform="matrix(-0.7191 0.6949 -0.6949 -0.7191 225.4505 1803.6224)" class="st0" width="7.3" height="99.4"/>
	</g>
	<g>
		
			<rect x="-372.9" y="943.7" transform="matrix(-0.6948 0.7192 -0.7192 -0.6948 133.4569 1838.1193)" class="st0" width="99.4" height="7.3"/>
	</g>
</g>
<path class="st0" d="M-287.5,898.3c6.6,0,11.9,5.4,11.9,11.9c0,6.6-5.4,11.9-11.9,11.9c-6.6,0-11.9-5.4-11.9-11.9
	C-299.5,903.6-294.1,898.3-287.5,898.3z"/>
<g class="st1">
	<path class="st2" d="M-280.6,908c0-3.4-1.4-6.5-3.7-8.6c5.1,1.4,8.9,6,8.9,11.5c0,6.6-5.4,11.9-11.9,11.9c-3.2,0-6.1-1.3-8.2-3.3
		c1,0.3,2,0.4,3,0.4C-286,920-280.6,914.6-280.6,908z"/>
</g>
<path class="st3" d="M-373.4,974.3h188.5c10.3,0,18.7,8.4,18.7,18.7v66.5c0,10.3-8.4,18.7-18.7,18.7h-188.5
	c-10.3,0-18.7-8.4-18.7-18.7V993C-392.1,982.6-383.7,974.3-373.4,974.3z"/>
<path class="st4" d="M-381.8,974.3h188.5c10.3,0,18.7,8.4,18.7,18.7v66.5c0,10.3-8.4,18.7-18.7,18.7h-188.5
	c-10.3,0-18.7-8.4-18.7-18.7V993C-400.4,982.6-392.1,974.3-381.8,974.3z"/>
<g>
	<g>
		<path class="st5" d="M-362.2,990.4c9.4,0,14.6,6.3,14.6,14.7c0,8.1-4.7,15.5-14.6,15.5c-10.3,0-14.6-6.7-14.6-15.5
			C-376.8,996.7-371.7,990.4-362.2,990.4z M-362.2,1015.3c6,0,8-4.6,8-10.2c0-5.5-2.6-9.4-8-9.4c-5.4,0-8,3.9-8,9.4
			C-370.2,1010.6-368.4,1015.3-362.2,1015.3z"/>
		<path class="st5" d="M-338.6,994.4c0-2.7,1.3-3.8,4.1-3.8c1.4,0,2.6,0.5,3.3,1.7l11.5,18.5h0.1v-17.1c0-2.1,1.2-3.2,3.2-3.2
			s3.2,1,3.2,3.2v22.6c0,2.6-1.1,4.1-3.9,4.1c-2.1,0-2.8-0.4-3.6-1.8l-11.4-18h-0.1v16.6c0,2.1-1.2,3.2-3.2,3.2s-3.2-1-3.2-3.2
			V994.4z"/>
		<path class="st5" d="M-303.1,993.8c0-2,1.3-3.3,3.3-3.3c2,0,3.3,1.3,3.3,3.3v20.5h11c1.9,0,3.4,1,3.4,2.8c0,1.8-1.5,2.8-3.4,2.8
			h-13.7c-2.3,0-3.8-0.9-3.8-3.8V993.8z"/>
		<path class="st5" d="M-274.3,993.8c0-2,1.3-3.3,3.3-3.3c2,0,3.3,1.3,3.3,3.3v23.3c0,2-1.3,3.3-3.3,3.3c-2,0-3.3-1.3-3.3-3.3V993.8
			z"/>
		<path class="st5" d="M-257.5,994.4c0-2.7,1.3-3.8,4.1-3.8c1.4,0,2.6,0.5,3.3,1.7l11.5,18.5h0.1v-17.1c0-2.1,1.2-3.2,3.2-3.2
			c2,0,3.2,1,3.2,3.2v22.6c0,2.6-1.1,4.1-3.9,4.1c-2.1,0-2.8-0.4-3.6-1.8l-11.4-18h-0.1v16.6c0,2.1-1.2,3.2-3.2,3.2s-3.2-1-3.2-3.2
			V994.4z"/>
		<path class="st5" d="M-221.7,994.9c0-2.9,1.5-3.8,3.8-3.8h15.4c1.9,0,3.3,0.6,3.3,2.6c0,2.1-1.4,2.6-3.3,2.6h-12.7v6.2h11.1
			c1.7,0,3.1,0.5,3.1,2.5c0,2-1.4,2.5-3.1,2.5h-11.1v7h13c1.9,0,3.3,0.6,3.3,2.6c0,2.1-1.4,2.6-3.3,2.6h-15.7
			c-2.3,0-3.8-0.9-3.8-3.8V994.9z"/>
	</g>
	<g>
		<path class="st5" d="M-358.5,1043.1c6.8,1.5,8.5,5.6,8.5,9.4c0,5.9-4.4,10.3-13.4,10.3c-9.4,0-13.7-4.7-13.7-8.3
			c0-1.8,1.3-3.1,3.1-3.1c4,0,3,5.9,10.5,5.9c3.9,0,6-2.1,6-4.3c0-1.3-0.6-2.8-3.2-3.4l-8.4-2.1c-6.8-1.7-8-5.5-8-8.9
			c0-7.3,6.7-10,13-10c5.8,0,12.7,3.3,12.7,7.6c0,1.9-1.6,3-3.4,3c-3.5,0-2.8-4.9-9.8-4.9c-3.5,0-5.4,1.6-5.4,3.9
			c0,2.3,2.7,3,5.1,3.5L-358.5,1043.1z"/>
		<path class="st5" d="M-331.6,1035.6h-7c-2.1,0-3.9-1.1-3.9-3.1s1.7-3.1,3.9-3.1h21.5c2.1,0,3.9,1.1,3.9,3.1s-1.7,3.1-3.9,3.1h-7
			v23.3c0,2.2-1.5,3.7-3.7,3.7s-3.7-1.5-3.7-3.7V1035.6z"/>
		<path class="st5" d="M-290.1,1028.5c10.7,0,16.5,7.1,16.5,16.7c0,9.2-5.4,17.5-16.5,17.5c-11.7,0-16.5-7.6-16.5-17.5
			C-306.6,1035.7-300.8,1028.5-290.1,1028.5z M-290.1,1056.8c6.8,0,9.1-5.3,9.1-11.5c0-6.3-3-10.7-9.1-10.7c-6.1,0-9.1,4.4-9.1,10.7
			C-299.2,1051.5-297.1,1056.8-290.1,1056.8z"/>
		<path class="st5" d="M-263.3,1033.7c0-3.3,1.7-4.4,4.4-4.4h12.4c8.9,0,11.2,4.9,11.2,9.1c0,3.5-2.1,7-5.6,7.9v0.1
			c3.8,0.5,4.5,3.3,4.5,6.6c0,3.8,1,5.2,1,6.7c0,1.7-1.8,2.9-3.5,2.9c-4.1,0-4.4-4-4.4-5.3c0-5.7-1-8-5.1-8h-7.4v9.6
			c0,2.2-1.4,3.7-3.7,3.7c-2.3,0-3.7-1.5-3.7-3.7V1033.7z M-255.8,1043.8h7.5c2.8,0,5.6-0.7,5.6-4.4c0-3.5-2.1-4.4-5.4-4.4h-7.7
			V1043.8z"/>
		<path class="st5" d="M-224.5,1033.7c0-3.3,1.7-4.4,4.4-4.4h17.5c2.2,0,3.8,0.6,3.8,3s-1.6,3-3.8,3h-14.4v7.1h12.6
			c2,0,3.5,0.5,3.5,2.9c0,2.3-1.5,2.9-3.5,2.9h-12.6v7.9h14.8c2.2,0,3.8,0.6,3.8,3c0,2.4-1.6,3-3.8,3h-17.8c-2.6,0-4.4-1-4.4-4.4
			V1033.7z"/>
	</g>
</g>
<ellipse transform="matrix(0.8184 0.5747 -0.5747 0.8184 501.9383 400.0368)" class="st5" cx="-381.9" cy="994.1" rx="10.2" ry="14.7"/>
</svg>
