<?xml version="1.0" encoding="utf-8"?>
<!-- Generator: Adobe Illustrator 19.1.0, SVG Export Plug-In . SVG Version: 6.00 Build 0)  -->
<svg version="1.1" id="Capa_1" xmlns="http://www.w3.org/2000/svg" xmlns:xlink="http://www.w3.org/1999/xlink" x="0px" y="0px"
	 viewBox="0 0 311.5 311.5" style="enable-background:new 0 0 311.5 311.5;" xml:space="preserve">
<style type="text/css">
	.st0{enable-background:new    ;}
	.st1{clip-path:url(#SVGID_2_);enable-background:new    ;}
	.st2{fill:#131412;}
	.st3{fill:#131312;}
	.st4{fill:#121311;}
	.st5{fill:#D3B63C;stroke:#1D1E1C;stroke-width:2;stroke-linecap:round;stroke-linejoin:round;stroke-miterlimit:10;}
	.st6{fill:#E84E42;stroke:#1D1E1C;stroke-width:2;stroke-linecap:round;stroke-linejoin:round;stroke-miterlimit:10;}
	.st7{fill:#1D1D1B;stroke:#1D1D1B;stroke-width:1.5;stroke-linecap:round;stroke-linejoin:round;stroke-miterlimit:10;}
	.st8{fill:#BBBABA;stroke:#1D1D1B;stroke-width:1.5;stroke-linecap:square;stroke-miterlimit:10;}
	.st9{opacity:0.2;fill:#1D1D1B;}
	.st10{opacity:0.21;fill:#1D1E1C;}
	.st11{fill:#D3B63C;stroke:#1D1E1C;stroke-width:1.5;stroke-linecap:round;stroke-linejoin:round;stroke-miterlimit:10;}
	.st12{fill:#FAD843;stroke:#1D1E1C;stroke-width:1.5;stroke-linecap:round;stroke-linejoin:round;stroke-miterlimit:10;}
	.st13{fill:#E84E42;stroke:#1D1E1C;stroke-width:1.5;stroke-linecap:round;stroke-linejoin:round;stroke-miterlimit:10;}
	.st14{fill:#FFFFFF;stroke:#1D1D1B;stroke-width:1.5;stroke-miterlimit:10;}
	.st15{fill:#FAD843;stroke:#1D1E1C;stroke-width:2;stroke-linecap:round;stroke-linejoin:round;stroke-miterlimit:10;}
	.st16{fill:#FFFFFF;stroke:#1D1D1B;stroke-width:2;stroke-miterlimit:10;}
	.st17{opacity:0.2;}
	.st18{fill:#1D1D1B;}
	.st19{fill:none;stroke:#1D1E1C;stroke-width:1.5;stroke-miterlimit:10;}
	.st20{fill:#1D1E1C;stroke:#1D1E1C;stroke-width:1.5;stroke-linecap:round;stroke-linejoin:round;stroke-miterlimit:10;}
	.st21{fill:#4AC0EE;stroke:#1D1E1C;stroke-width:1.5;stroke-linecap:round;stroke-linejoin:round;stroke-miterlimit:10;}
	.st22{opacity:0.21;}
	.st23{fill:#1D1E1C;}
	.st24{fill:#4AC0EE;stroke:#1D1E1C;stroke-width:2;stroke-linecap:round;stroke-linejoin:round;stroke-miterlimit:10;}
	.st25{fill:#FFF8F1;stroke:#1D1E1C;stroke-width:2;stroke-linecap:round;stroke-linejoin:round;stroke-miterlimit:10;}
	.st26{fill:#65C1BE;stroke:#000000;stroke-width:1.5;stroke-linecap:round;stroke-linejoin:round;stroke-miterlimit:10;}
	.st27{fill:#FFFFFF;stroke:#1D1D1B;stroke-width:1.5;stroke-linecap:round;stroke-linejoin:round;stroke-miterlimit:10;}
	.st28{fill:#ADADA6;stroke:#1D1D1B;stroke-width:1.5;stroke-linecap:round;stroke-linejoin:round;stroke-miterlimit:10;}
	.st29{fill:#8F8D8E;stroke:#1D1D1B;stroke-width:1.5;stroke-linecap:round;stroke-linejoin:round;stroke-miterlimit:10;}
	.st30{fill:#DADAD2;stroke:#1D1D1B;stroke-width:1.5;stroke-linecap:round;stroke-linejoin:round;stroke-miterlimit:10;}
	.st31{fill:#65C1BE;stroke:#000000;stroke-width:1.5;stroke-miterlimit:10;}
	.st32{fill:#549E9A;stroke:#000000;stroke-width:1.5;stroke-miterlimit:10;}
	.st33{fill:#FFFFFF;}
	.st34{fill:#65C1BE;stroke:#000000;stroke-width:2;stroke-miterlimit:10;}
	.st35{fill:#549E9A;stroke:#000000;stroke-width:2;stroke-miterlimit:10;}
	.st36{fill:#65C1BE;stroke:#000000;stroke-width:2;stroke-linecap:round;stroke-linejoin:round;stroke-miterlimit:10;}
	.st37{clip-path:url(#SVGID_4_);}
	.st38{fill:#DADAD2;stroke:#1D1D1B;stroke-width:1.5;stroke-miterlimit:10;}
	.st39{fill:#77C6C7;stroke:#1D1D1B;stroke-width:1.5;stroke-linecap:round;stroke-linejoin:round;stroke-miterlimit:10;}
	.st40{fill:none;stroke:#000000;stroke-width:1.5;stroke-miterlimit:10;}
	.st41{fill:#F0F0F0;stroke:#1D1E1C;stroke-width:1.5;stroke-miterlimit:10;}
	.st42{clip-path:url(#SVGID_6_);}
	.st43{fill:#DADAD2;stroke:#1D1D1B;stroke-width:2;stroke-miterlimit:10;}
	.st44{fill:none;stroke:#1D1E1C;stroke-width:2;stroke-miterlimit:10;}
	.st45{fill:#77C6C7;stroke:#1D1D1B;stroke-width:2;stroke-linecap:round;stroke-linejoin:round;stroke-miterlimit:10;}
	.st46{fill:#DADAD2;stroke:#1D1D1B;stroke-width:2;stroke-linecap:round;stroke-linejoin:round;stroke-miterlimit:10;}
	.st47{fill:none;stroke:#000000;stroke-width:2;stroke-miterlimit:10;}
	.st48{fill:#F0F0F0;stroke:#1D1E1C;stroke-width:2;stroke-miterlimit:10;}
	.st49{clip-path:url(#SVGID_8_);}
	.st50{clip-path:url(#SVGID_10_);}
	.st51{fill:#DBBD3E;stroke:#1D1E1C;stroke-width:1.5;stroke-miterlimit:10;}
	.st52{opacity:0.23;}
	.st53{fill:#FAD844;stroke:#1D1E1C;stroke-width:1.5;stroke-miterlimit:10;}
	.st54{fill:#FFFFFF;stroke:#1D1D1B;stroke-width:2;stroke-linecap:round;stroke-linejoin:round;stroke-miterlimit:10;}
	.st55{fill:none;stroke:#1D1D1B;stroke-width:1.5;stroke-linecap:round;stroke-linejoin:round;stroke-miterlimit:10;}
	.st56{fill:none;stroke:#1D1D1B;stroke-width:2;stroke-linecap:round;stroke-linejoin:round;stroke-miterlimit:10;}
	.st57{fill:#333333;stroke:#1D1D1B;stroke-width:1.5;stroke-linecap:square;stroke-miterlimit:10;}
	.st58{fill:#1D1D1B;stroke:#1D1D1B;stroke-width:2;stroke-linecap:round;stroke-linejoin:round;stroke-miterlimit:10;}
	.st59{fill:#BBBABA;stroke:#1D1D1B;stroke-width:2;stroke-linecap:square;stroke-miterlimit:10;}
	.st60{fill:#333333;stroke:#1D1D1B;stroke-width:2;stroke-linecap:square;stroke-miterlimit:10;}
	.st61{fill:#FFFFFF;stroke:#1D1D1B;stroke-width:1.55;stroke-miterlimit:10;}
	.st62{fill:#DBBD3E;stroke:#1D1E1C;stroke-width:2;stroke-miterlimit:10;}
	.st63{fill:#FAD844;stroke:#1D1E1C;stroke-width:2;stroke-miterlimit:10;}
	.st64{fill:none;stroke:#1D1E1C;stroke-width:1.5;stroke-linecap:round;stroke-linejoin:round;stroke-miterlimit:10;}
	.st65{fill:none;stroke:#1D1E1C;stroke-width:2;stroke-linecap:round;stroke-linejoin:round;stroke-miterlimit:10;}
	.st66{fill:url(#);}
	.st67{fill:#FFFFFF;stroke:#1D1E1C;stroke-width:1.5;stroke-linecap:round;stroke-linejoin:round;stroke-miterlimit:10;}
	.st68{fill:#CC413A;stroke:#1D1E1C;stroke-width:1.5;stroke-linecap:round;stroke-linejoin:round;stroke-miterlimit:10;}
	.st69{opacity:0.26;fill:#1D1E1C;}
	.st70{fill:#EEEEEE;stroke:#1D1E1C;stroke-width:1.5;stroke-miterlimit:10;}
	.st71{fill:#1D1E1C;stroke:#1D1E1C;stroke-width:1.5;stroke-miterlimit:10;}
	.st72{fill:#C1C1BF;stroke:#1D1D1B;stroke-width:1.5;stroke-linecap:round;stroke-linejoin:round;stroke-miterlimit:10;}
	.st73{fill:#AFAFA8;stroke:#1D1D1B;stroke-width:1.5;stroke-linecap:round;stroke-linejoin:round;stroke-miterlimit:10;}
	.st74{fill:#C1C1BF;}
	.st75{fill:#1D1E1C;stroke:#1D1E1C;stroke-width:2;stroke-linecap:round;stroke-linejoin:round;stroke-miterlimit:10;}
	.st76{fill:#549E9A;stroke:#000000;stroke-width:2;stroke-linecap:round;stroke-linejoin:round;stroke-miterlimit:10;}
	.st77{fill:#ADADA6;stroke:#1D1D1B;stroke-width:2;stroke-linecap:round;stroke-linejoin:round;stroke-miterlimit:10;}
	.st78{fill:#8F8D8E;stroke:#1D1D1B;stroke-width:2;stroke-linecap:round;stroke-linejoin:round;stroke-miterlimit:10;}
	.st79{clip-path:url(#SVGID_12_);enable-background:new    ;}
	.st80{fill:#0F0F0E;}
	.st81{clip-path:url(#SVGID_14_);enable-background:new    ;}
	.st82{fill:#111110;}
	.st83{fill:#10100F;}
	.st84{fill:#484747;}
	.st85{clip-path:url(#SVGID_16_);enable-background:new    ;}
	.st86{fill:#4A494A;}
	.st87{fill:#151513;}
	.st88{clip-path:url(#SVGID_18_);enable-background:new    ;}
	.st89{fill:#121211;}
	.st90{fill:#131311;}
	.st91{clip-path:url(#SVGID_20_);enable-background:new    ;}
	.st92{clip-path:url(#SVGID_22_);enable-background:new    ;}
	.st93{clip-path:url(#SVGID_24_);enable-background:new    ;}
	.st94{fill:#656465;}
	.st95{clip-path:url(#SVGID_26_);enable-background:new    ;}
	.st96{fill:#595758;}
	.st97{fill:#5C5A5B;}
	.st98{fill:#5E5D5E;}
	.st99{clip-path:url(#SVGID_28_);enable-background:new    ;}
	.st100{fill:#565555;}
	.st101{fill:#535252;}
	.st102{fill:#504F50;}
	.st103{fill:#4D4C4D;}
	.st104{clip-path:url(#SVGID_30_);enable-background:new    ;}
	.st105{clip-path:url(#SVGID_32_);enable-background:new    ;}
	.st106{clip-path:url(#SVGID_34_);enable-background:new    ;}
	.st107{clip-path:url(#SVGID_36_);enable-background:new    ;}
	.st108{fill:#484748;}
	.st109{clip-path:url(#SVGID_38_);enable-background:new    ;}
	.st110{clip-path:url(#SVGID_40_);enable-background:new    ;}
	.st111{clip-path:url(#SVGID_42_);enable-background:new    ;}
	.st112{clip-path:url(#SVGID_44_);enable-background:new    ;}
	.st113{clip-path:url(#SVGID_46_);enable-background:new    ;}
	.st114{clip-path:url(#SVGID_48_);enable-background:new    ;}
	.st115{clip-path:url(#SVGID_50_);enable-background:new    ;}
	.st116{clip-path:url(#SVGID_52_);enable-background:new    ;}
	.st117{clip-path:url(#SVGID_54_);enable-background:new    ;}
	.st118{clip-path:url(#SVGID_56_);enable-background:new    ;}
	.st119{clip-path:url(#SVGID_58_);enable-background:new    ;}
	.st120{clip-path:url(#SVGID_60_);enable-background:new    ;}
	.st121{clip-path:url(#SVGID_62_);enable-background:new    ;}
	.st122{clip-path:url(#SVGID_64_);enable-background:new    ;}
	.st123{clip-path:url(#SVGID_66_);enable-background:new    ;}
	.st124{clip-path:url(#SVGID_68_);enable-background:new    ;}
	.st125{fill:#595859;}
	.st126{clip-path:url(#SVGID_70_);enable-background:new    ;}
	.st127{clip-path:url(#SVGID_72_);enable-background:new    ;}
	.st128{clip-path:url(#SVGID_74_);enable-background:new    ;}
	.st129{fill:#585758;}
	.st130{clip-path:url(#SVGID_76_);enable-background:new    ;}
	.st131{clip-path:url(#SVGID_78_);enable-background:new    ;}
	.st132{clip-path:url(#SVGID_80_);enable-background:new    ;}
	.st133{clip-path:url(#SVGID_82_);enable-background:new    ;}
	.st134{clip-path:url(#SVGID_84_);enable-background:new    ;}
	.st135{clip-path:url(#SVGID_86_);enable-background:new    ;}
	.st136{clip-path:url(#SVGID_88_);enable-background:new    ;}
	.st137{clip-path:url(#SVGID_90_);enable-background:new    ;}
	.st138{clip-path:url(#SVGID_92_);enable-background:new    ;}
	.st139{clip-path:url(#SVGID_94_);enable-background:new    ;}
	.st140{clip-path:url(#SVGID_96_);enable-background:new    ;}
	.st141{clip-path:url(#SVGID_98_);enable-background:new    ;}
	.st142{clip-path:url(#SVGID_100_);enable-background:new    ;}
	.st143{clip-path:url(#SVGID_102_);enable-background:new    ;}
	.st144{clip-path:url(#SVGID_104_);enable-background:new    ;}
	.st145{clip-path:url(#SVGID_106_);enable-background:new    ;}
	.st146{fill:#7D7B7C;}
	.st147{fill:#191918;}
	.st148{clip-path:url(#SVGID_108_);enable-background:new    ;}
	.st149{clip-path:url(#SVGID_110_);enable-background:new    ;}
	.st150{clip-path:url(#SVGID_112_);enable-background:new    ;}
	.st151{clip-path:url(#SVGID_114_);enable-background:new    ;}
	.st152{clip-path:url(#SVGID_116_);enable-background:new    ;}
	.st153{clip-path:url(#SVGID_118_);enable-background:new    ;}
	.st154{clip-path:url(#SVGID_120_);enable-background:new    ;}
	.st155{clip-path:url(#SVGID_122_);enable-background:new    ;}
	.st156{clip-path:url(#SVGID_124_);enable-background:new    ;}
	.st157{clip-path:url(#SVGID_126_);enable-background:new    ;}
	.st158{clip-path:url(#SVGID_128_);enable-background:new    ;}
	.st159{clip-path:url(#SVGID_130_);enable-background:new    ;}
	.st160{fill:#FFFFFF;stroke:#1D1D1B;stroke-width:2;stroke-linecap:round;stroke-miterlimit:10;}
</style>
<path class="st10" d="M173.3,199.8c-15.3,0-29.4,1.5-40.7,4v30.6c11.3,2.5,25.4,4,40.7,4c36.9,0,66.9-8.6,66.9-19.3
	C240.2,208.5,210.2,199.8,173.3,199.8z"/>
<path class="st36" d="M105.3,138.7c0-11.4,25.7-20.6,57.4-20.6c31.7,0,57.4,9.2,57.4,20.6c0,0.5-0.1,0.9-0.1,1.4h0
	c0,0-13.5,61.6-18.5,85.2c-1.5,6.9-17.4,12.8-38.8,12.8c-21.4,0-37.3-5.9-38.8-12.8c-5-23.6-18.5-85.2-18.5-85.2h0
	C105.3,139.6,105.3,139.2,105.3,138.7z"/>
<g class="st22">
	<path class="st23" d="M208.7,141.7L208.7,141.7c0.1-0.5,0.1-1,0.1-1.5c0-6.7-26.9-17.8-40.6-17.5c-16.3,0.3-16.3-4.3-13.2-4.5
		c2.5-0.1,5.1-0.2,7.7-0.2c31.7,0,57.4,9.2,57.4,20.6c0,0.5-0.1,0.9-0.1,1.4h0c0,0-13.5,61.6-18.5,85.2c-0.8,3.7-5.6,7.1-13.2,9.4
		c0.2-0.4,0.4-0.9,0.5-1.3C194.1,208,208.7,141.7,208.7,141.7z"/>
</g>
<ellipse class="st35" cx="162.7" cy="139.6" rx="51.3" ry="16.9"/>
<path class="st16" d="M142.7,179.9c0.6,10.1-4.1,18.3-10.5,18.2c-6.4-0.1-12.2-8.3-12.8-18.4c-0.6-10.1,4.1-18.3,10.5-18.2
	C136.4,161.6,142.1,169.8,142.7,179.9z"/>
<path class="st15" d="M121.2,129.7c2.9-1.6,6.2-1.9,9-3.6c3.6-2.2,4.2-7.2,5.7-11.1c2.7-6.8,9-11.4,15-15.5
	c4.8-3.4,10.4-6.9,16.2-5.6c4.3,1,7.5,4.4,10.4,7.8c10.8,12.7,20.4,26.4,28.5,40.9c0.6,1.1,2.9,3.2,2.9,4.4c-0.1,1.4-0.9,0-2.1,0.7
	c-8.5,4.8-16.1,6.2-22.6,7c-16.7,2.1-28.3,2.7-45.3-0.2c-5.4-0.9-15.9-4.2-20.4-6.5C114.8,146.3,116,132.6,121.2,129.7z"/>
<path class="st56" d="M156.2,149.9c-0.9-5-5.4-9.1-10.4-9.6c-2.8-0.3-5.8,0.4-8.5-0.4c-2.4-0.6-4.4-2.3-5.5-4.5
	c-1.4-2.8-0.5-5.5,0-8.4c0.6-3.3,2.1-6.3,3.1-9.5"/>
<g>
	<path class="st35" d="M124.1,84.9c-0.9,0.8-4.8,5.9-5.4,6.9c-6.6,10,12.4,30.2,40.4,44.6c27.5,14.1,54.2,18.2,60.4,8.5l3.4-6.7
		L124.1,84.9z"/>
	<path class="st36" d="M223,138.2c5.4-10.6-12.4-30.2-40.4-44.6c-28.1-14.4-54.3-17.4-59.7-6.8c-5.4,10.6,12.4,30.2,40.4,44.6
		C191.3,145.8,217.6,148.8,223,138.2z"/>
</g>
</svg>
