<?xml version="1.0" encoding="utf-8"?>
<!-- Generator: Adobe Illustrator 19.1.0, SVG Export Plug-In . SVG Version: 6.00 Build 0)  -->
<svg version="1.1" id="Capa_1" xmlns="http://www.w3.org/2000/svg" xmlns:xlink="http://www.w3.org/1999/xlink" x="0px" y="0px"
	 viewBox="0 0 63.3 63.3" style="enable-background:new 0 0 63.3 63.3;" xml:space="preserve">
<style type="text/css">
	.st0{fill:#FAD844;stroke:#1D1D1B;stroke-width:2;stroke-linecap:round;stroke-linejoin:round;stroke-miterlimit:10;}
	.st1{fill:none;stroke:#1D1E1C;stroke-width:2;stroke-miterlimit:10;}
	.st2{fill:#C6AB38;stroke:#1D1D1B;stroke-width:2;stroke-linecap:round;stroke-linejoin:round;stroke-miterlimit:10;}
	.st3{opacity:0.4;fill:#1D1E1C;}
	.st4{fill:#FFFFFF;stroke:#1D1D1B;stroke-width:2;stroke-miterlimit:10;}
	.st5{fill:#E84E42;stroke:#1D1E1C;stroke-width:2;stroke-linecap:round;stroke-linejoin:round;stroke-miterlimit:10;}
	.st6{opacity:0.4;fill:#1D1E1C;stroke:#1D1E1C;stroke-width:2;stroke-miterlimit:10;}
	.st7{fill:#E84E42;stroke:#1D1E1C;stroke-width:2;stroke-miterlimit:10;}
	.st8{fill:#B23932;stroke:#1D1E1C;stroke-width:2;stroke-miterlimit:10;}
	.st9{fill:#E84E42;}
	.st10{fill:#1D1E1C;}
	.st11{fill:#65C1BE;stroke:#1D1D1B;stroke-width:2;stroke-linecap:round;stroke-linejoin:round;stroke-miterlimit:10;}
	.st12{fill:#539995;stroke:#1D1D1B;stroke-width:2;stroke-linecap:round;stroke-linejoin:round;stroke-miterlimit:10;}
	.st13{fill:none;stroke:#1D1D1B;stroke-width:2;stroke-linecap:round;stroke-linejoin:round;stroke-miterlimit:10;}
	.st14{fill:#4AC0EE;stroke:#1D1E1C;stroke-width:2;stroke-linecap:round;stroke-linejoin:round;stroke-miterlimit:10;}
	.st15{fill:#38889B;stroke:#1D1E1C;stroke-width:2;stroke-linecap:round;stroke-linejoin:round;stroke-miterlimit:10;}
	.st16{fill:none;stroke:#1D1E1C;stroke-width:2;stroke-linecap:round;stroke-linejoin:round;stroke-miterlimit:10;}
</style>
<g>
	<path class="st14" d="M15.9,59.1h30.9c6.6,0,12-5.4,12-12V16.2c0-6.6-5.4-12-12-12H15.9c-6.6,0-12,5.4-12,12v30.9
		C3.9,53.7,9.3,59.1,15.9,59.1z"/>
	<path class="st15" d="M14.3,26.8v-3.9c0-0.9,0.2-1.7,0.6-2.2l0,0c0.5-0.6,0.8-1.6,0.9-2.7l0.2-1.3c0.2-1.2,0.7-2,1.3-2h8.7
		c0.7,0,1.4,0.9,1.7,2.2l0.2,1c0.3,1.2,0.9,1.9,1.5,1.9h15.7c0.8,0,3,0.6,3.3,2.1v8.9L14.3,26.8z"/>
	<path class="st6" d="M16.2,25.6h30.3c1.1,0,2,1.1,1.9,2.5l-0.4,19.7c0,1.3-0.9,2.4-1.9,2.4H16.9c-1,0-1.9-1-1.9-2.3l-0.6-19.7
		C14.2,26.7,15.1,25.6,16.2,25.6z"/>
	<path class="st14" d="M16.2,23.5h30.3c1.1,0,2,1.1,1.9,2.5l-0.4,19.7c0,1.3-0.9,2.4-1.9,2.4H16.9c-1,0-1.9-1-1.9-2.3L14.3,26
		C14.2,24.6,15.1,23.5,16.2,23.5z"/>
	<g>
		
			<ellipse transform="matrix(-0.6068 0.7948 -0.7948 -0.6068 86.9603 -8.3136)" class="st4" cx="45.5" cy="17.4" rx="7.7" ry="9.5"/>
	</g>
	<path class="st16" d="M24.7,41.3c1-4.7,3.8-4.6,7-5.8c3-1.1,5.2-1.9,6.3-7.2"/>
</g>
</svg>
