<?xml version="1.0" encoding="utf-8"?>
<!-- Generator: Adobe Illustrator 21.0.0, SVG Export Plug-In . SVG Version: 6.00 Build 0)  -->
<svg version="1.1" id="Layer_1" xmlns="http://www.w3.org/2000/svg" xmlns:xlink="http://www.w3.org/1999/xlink" x="0px" y="0px"
	 viewBox="0 0 99.2 99.2" style="enable-background:new 0 0 99.2 99.2;" xml:space="preserve">
<style type="text/css">
	.st0{opacity:0.26;fill:#1D1E1C;enable-background:new    ;}
	.st1{fill:#EEEEEE;stroke:#1D1E1C;stroke-width:1.5;stroke-miterlimit:10;}
	.st2{opacity:0.21;}
	.st3{fill:#1D1E1C;}
</style>
<g id="eyeball">
	<path class="st0" d="M63.6,97.9c23.6-5.9,37.6-29.8,31.9-53.5s-29-38.3-52.6-32.3C19.3,18,4.8,42,10.6,65.7
		C16.2,89.4,40,103.9,63.6,97.9z"/>
	<path class="st1" d="M57.6,87.9C81.2,82,95.2,58.1,89.5,34.4S60.5-3.9,36.9,2.1C13.3,8-1.2,32,4.5,55.7
		C10.2,79.4,34,93.9,57.6,87.9z"/>
	<g class="st2">
		<path class="st3" d="M77.6,29.8C74.6,17.5,67,7.7,57,1.9c15.5,3.6,28.4,15.8,32.4,32.6c5.7,23.7-8.3,47.6-31.9,53.5
			c-11.4,2.9-22.9,0.9-32.3-4.5c6.6,1.5,13.6,1.6,20.6-0.2C69.4,77.4,83.4,53.5,77.6,29.8z"/>
	</g>
</g>
</svg>
