<?xml version="1.0" encoding="utf-8"?>
<!-- Generator: Adobe Illustrator 21.0.0, SVG Export Plug-In . SVG Version: 6.00 Build 0)  -->
<svg version="1.1" id="Layer_1" xmlns="http://www.w3.org/2000/svg" xmlns:xlink="http://www.w3.org/1999/xlink" x="0px" y="0px"
	 viewBox="0 0 105 105" style="enable-background:new 0 0 105 105;" xml:space="preserve">
<style type="text/css">
	.st0{fill:#9F2EBB;stroke:#000000;stroke-width:3;stroke-miterlimit:10;}
	.st1{opacity:0.75;}
	.st2{fill:#601D70;}
	.st3{fill:#FFFFFF;}
</style>
<g>
	<g>
		<rect x="1.5" y="1.5" class="st0" width="102" height="102"/>
		<g id="nkvpMc.tif_8_">
			<g class="st1">
				<path class="st2" d="M51.1,90.3c-6.4,0-11.7-0.1-17.1-0.3c-9.2-0.5-15.9-6.5-17.5-15.8c-0.3-1.5-0.4-3-0.5-4.5
					c0-0.7-0.1-1.3-0.2-2V45.8c0-0.6,0.1-1.2,0.1-1.7c0.1-1.2,0.2-2.4,0.3-3.6c1-9.5,7.6-16.1,17.1-17.1c1.2-0.1,2.4-0.2,3.6-0.3
					c0.5,0,1.1-0.1,1.6-0.1h21.9l1.1,0.1c0.7,0.1,1.4,0.1,2.1,0.2c4.4,0.3,7.8,1.3,10.7,3.1c5.1,3.3,7.9,8.2,8.4,14.7
					c0.3,4.5,0.4,8.9,0.4,12.6v2c0,5.5,0,11.1-0.4,16.7c-0.6,9.2-6.5,15.8-15.5,17.4c-3.4,0.6-6.8,0.6-10.1,0.6L51.1,90.3z
					 M49.5,30.6c-1.5,0.1-3.1,0.1-4.7,0.1c-3.6,0.1-7.2,0.2-10.8,0.5c-5,0.4-8.4,3.3-9.5,8.2C24.2,40.7,24,42,24,43.3
					c-0.1,5.9-0.2,12.8-0.2,19.9c0,3.2,0.1,6.2,0.4,9c0.3,3.5,1.8,6.1,4.4,7.9c1.7,1.2,3.8,1.9,6,2c4.8,0.2,8.5,0.3,12,0.3h0.5
					c6.3,0,12-0.1,17.3-0.3c2.9-0.1,5.3-1.1,7.3-2.9c2-1.9,3.1-4.4,3.3-7.5c0.2-4.2,0.4-8.4,0.3-12.6v-0.6c0-5.5,0-11.2-0.4-16.8
					c-0.4-6.1-4-9.8-10.1-10.4c-3.5-0.3-7-0.4-10.6-0.5C52.8,30.7,51.1,30.7,49.5,30.6z"/>
				<path class="st2" d="M60.6,23.9c1,0.1,2.1,0.2,3.1,0.2c3.6,0.2,7.2,1,10.3,3c5.1,3.3,7.5,8.1,8,14c0.3,4.2,0.4,8.4,0.4,12.5
					c0,6.2,0,12.5-0.4,18.7c-0.5,8.8-6.1,15-14.7,16.4c-3.2,0.6-6.6,0.6-9.9,0.6c-2.1,0-4.2,0-6.3,0c-5.7,0-11.4,0-17.1-0.3
					c-8.9-0.5-15-6.2-16.5-15c-0.4-2.1-0.4-4.3-0.6-6.4c0-7.3,0-14.6,0-21.9c0.1-1.7,0.2-3.5,0.4-5.2c1-9.1,7.1-15.3,16.2-16.2
					c1.7-0.2,3.5-0.3,5.2-0.4C46,23.9,53.3,23.9,60.6,23.9 M46.7,83.4c0.2,0,0.3,0,0.5,0c5.8,0,11.6-0.1,17.4-0.3
					c3-0.1,5.7-1.1,7.9-3.2c2.4-2.2,3.4-5.1,3.6-8.2c0.2-4.2,0.4-8.4,0.3-12.7c0-5.8,0-11.7-0.4-17.5c-0.4-6.6-4.4-10.7-11-11.3
					c-5.1-0.4-10.2-0.4-15.5-0.6c-5.1,0.2-10.4,0.2-15.6,0.6c-5.6,0.4-9.3,3.8-10.4,9C23.2,40.6,23,42,23,43.4
					c-0.1,6.6-0.2,13.2-0.2,19.9c0,3,0.1,6,0.4,9c0.3,3.6,1.8,6.6,4.9,8.7c2,1.4,4.2,2,6.6,2.1C38.7,83.3,42.7,83.4,46.7,83.4
					 M60.6,21.9L60.6,21.9H38.7h-0.1h-0.1c-0.5,0-1.1,0.1-1.6,0.1c-1.2,0.1-2.4,0.2-3.6,0.3c-10,1.1-16.9,8-18,18
					c-0.1,1.2-0.2,2.4-0.3,3.6c0,0.5-0.1,1.1-0.1,1.6v0.1v0.1v21.9v0.1v0.1c0.1,0.7,0.1,1.3,0.2,2c0.1,1.5,0.2,3,0.5,4.6
					C17.3,84.1,24.3,90.5,34,91c5.4,0.3,10.8,0.3,17.2,0.3h3.2h3.1c3.3,0,6.8-0.1,10.2-0.6C77.1,89,83.3,82,83.9,72.3
					c0.3-5.6,0.4-11.3,0.4-16.8v-2c0-3.7,0-8.2-0.4-12.7c-0.5-6.8-3.5-12-8.9-15.5c-3.1-2-6.6-3-11.2-3.3c-0.7,0-1.4-0.1-2.1-0.1
					L60.6,21.9L60.6,21.9L60.6,21.9z M46.7,81.4c-3.5,0-7.2-0.1-12-0.3c-2.1-0.1-4-0.7-5.5-1.8c-2.4-1.6-3.7-4-4-7.2
					c-0.3-2.8-0.4-5.7-0.4-8.9c0-7,0.1-14,0.2-19.8c0-1.2,0.2-2.4,0.5-3.7c1-4.4,4.1-7.1,8.7-7.5c3.6-0.3,7.2-0.4,10.8-0.5
					c1.6,0,3.1-0.1,4.6-0.1c1.6,0.1,3.2,0.1,4.8,0.1c3.6,0.1,7.1,0.2,10.5,0.5c5.6,0.5,8.8,3.8,9.2,9.4c0.3,5.5,0.3,11.2,0.4,16.7
					v0.6c0,4.2-0.1,8.4-0.3,12.5c-0.2,2.9-1.1,5.1-3,6.9c-1.7,1.7-4,2.6-6.6,2.7c-5.3,0.2-11,0.3-17.3,0.3L46.7,81.4L46.7,81.4z"/>
				<path class="st2" d="M49.6,74.4c-9.8,0-17.8-8-17.8-17.8c0-4.8,1.8-9.3,5.2-12.6s7.8-5.2,12.6-5.2c9.8,0,17.8,8,17.9,17.8
					C67.5,66.4,59.5,74.4,49.6,74.4L49.6,74.4z M49.6,46.7c-5.5,0-9.9,4.4-9.9,9.9s4.4,9.9,9.9,9.9c5.4,0,9.9-4.5,9.9-9.9
					c0-2.6-1-5.1-2.9-7C54.7,47.8,52.3,46.7,49.6,46.7v-1V46.7z"/>
				<path class="st2" d="M49.6,39.8c9.3,0,16.8,7.5,16.8,16.8s-7.5,16.8-16.8,16.9l0,0c-9.3,0-16.8-7.5-16.8-16.8
					C32.8,47.3,40.3,39.8,49.6,39.8L49.6,39.8 M49.6,67.5c6,0,10.9-4.9,10.9-10.9s-4.9-10.9-10.9-10.9l0,0c-6,0-10.9,4.9-10.9,10.9
					C38.7,62.6,43.6,67.5,49.6,67.5L49.6,67.5 M49.6,37.8L49.6,37.8c-5,0-9.8,2-13.3,5.5s-5.5,8.3-5.5,13.3
					c0,10.4,8.4,18.8,18.8,18.8s18.9-8.5,18.8-18.9C68.4,46.2,60,37.8,49.6,37.8L49.6,37.8z M49.6,67.5v-2c-4.9,0-8.9-4-8.9-8.9
					s4-8.9,8.9-8.9c2.4,0,4.6,0.9,6.3,2.6c1.7,1.7,2.6,3.9,2.6,6.3c0,4.8-4.1,8.9-8.9,8.9V67.5L49.6,67.5z"/>
				<path class="st2" d="M67.1,44.1c-1.3,0-2.6-0.5-3.5-1.4s-1.4-2.2-1.4-3.5c0-2.7,2.2-4.9,4.9-4.9c2.8,0,5,2.1,5,4.9
					c0,1.3-0.5,2.6-1.4,3.5C69.6,43.6,68.4,44.1,67.1,44.1L67.1,44.1z"/>
				<path class="st2" d="M67.1,35.2c2.2,0,3.9,1.7,4,3.9c0,2.2-1.8,4-3.9,4l0,0c-2.2,0-3.9-1.8-3.9-4C63.2,36.9,64.9,35.2,67.1,35.2
					C67,35.2,67,35.2,67.1,35.2 M67.1,33.2L67.1,33.2L67.1,33.2c-3.3,0-5.9,2.6-5.9,5.9c0,1.6,0.6,3.1,1.7,4.2
					c1.1,1.1,2.6,1.7,4.2,1.7s3.1-0.6,4.2-1.8c1.1-1.1,1.7-2.6,1.7-4.2C73,35.8,70.4,33.2,67.1,33.2L67.1,33.2z"/>
			</g>
			<g>
				<g>
					<g>
						<g>
							<path class="st3" d="M54.1,87.3c-6.4,0-11.7-0.1-17.1-0.3c-9.2-0.5-15.9-6.5-17.5-15.8c-0.3-1.5-0.4-3-0.5-4.5
								c0-0.7-0.1-1.3-0.2-2V42.8c0-0.6,0.1-1.2,0.1-1.7c0.1-1.2,0.2-2.4,0.3-3.6c1-9.5,7.6-16.1,17.1-17.1c1.2-0.1,2.4-0.2,3.6-0.3
								c0.5,0,1.1-0.1,1.6-0.1h21.9l1.1,0.1c0.7,0.1,1.4,0.1,2.1,0.2c4.4,0.3,7.8,1.3,10.7,3.1c5.1,3.3,7.9,8.2,8.4,14.7
								c0.3,4.5,0.4,8.9,0.4,12.6v2c0,5.5,0,11.1-0.4,16.7c-0.6,9.2-6.5,15.8-15.5,17.4c-3.4,0.6-6.8,0.6-10.1,0.6L54.1,87.3z
								 M52.5,27.6c-1.5,0.1-3.1,0.1-4.7,0.1c-3.6,0.1-7.2,0.2-10.8,0.5c-5,0.4-8.4,3.3-9.5,8.2C27.2,37.7,27,39,27,40.3
								c-0.1,5.9-0.2,12.8-0.2,19.9c0,3.2,0.1,6.2,0.4,9c0.3,3.5,1.8,6.1,4.4,7.9c1.7,1.2,3.8,1.9,6,2c4.8,0.2,8.5,0.3,12,0.3h0.5
								c6.3,0,12-0.1,17.3-0.3c2.9-0.1,5.3-1.1,7.3-2.9c2-1.9,3.1-4.4,3.3-7.5c0.2-4.2,0.4-8.4,0.3-12.6v-0.6c0-5.5,0-11.2-0.4-16.8
								c-0.4-6.1-4-9.8-10.1-10.4c-3.5-0.3-7-0.4-10.6-0.5C55.8,27.7,54.1,27.7,52.5,27.6z"/>
							<path d="M63.6,20.9c1,0.1,2.1,0.2,3.1,0.2c3.6,0.2,7.2,1,10.3,3c5.1,3.3,7.5,8.1,8,14c0.3,4.2,0.4,8.4,0.4,12.5
								c0,6.2,0,12.5-0.4,18.7c-0.5,8.8-6.1,15-14.7,16.4c-3.2,0.6-6.6,0.6-9.9,0.6c-2.1,0-4.2,0-6.3,0c-5.7,0-11.4,0-17.1-0.3
								c-8.9-0.5-15-6.2-16.5-15c-0.4-2.1-0.4-4.3-0.6-6.4c0-7.3,0-14.6,0-21.9c0.1-1.7,0.2-3.5,0.4-5.2c1-9.1,7.1-15.3,16.2-16.2
								c1.7-0.2,3.5-0.3,5.2-0.4C49,20.9,56.3,20.9,63.6,20.9 M49.7,80.4c0.2,0,0.3,0,0.5,0c5.8,0,11.6-0.1,17.4-0.3
								c3-0.1,5.7-1.1,7.9-3.2c2.4-2.2,3.4-5.1,3.6-8.2c0.2-4.2,0.4-8.4,0.3-12.7c0-5.8,0-11.7-0.4-17.5c-0.4-6.6-4.4-10.7-11-11.3
								c-5.1-0.4-10.2-0.4-15.5-0.6c-5.1,0.2-10.4,0.2-15.6,0.6c-5.6,0.4-9.3,3.8-10.4,9C26.2,37.6,26,39,26,40.4
								c-0.1,6.6-0.2,13.2-0.2,19.9c0,3,0.1,6,0.4,9c0.3,3.6,1.8,6.6,4.9,8.7c2,1.4,4.2,2,6.6,2.1C41.7,80.3,45.7,80.4,49.7,80.4
								 M63.6,18.9L63.6,18.9H41.7h-0.1h-0.1c-0.5,0-1.1,0.1-1.6,0.1c-1.2,0.1-2.4,0.2-3.6,0.3c-10,1.1-16.9,8-18,18
								c-0.1,1.2-0.2,2.4-0.3,3.6c0,0.5-0.1,1.1-0.1,1.6v0.1v0.1v21.9v0.1v0.1c0.1,0.7,0.1,1.3,0.2,2c0.1,1.5,0.2,3,0.5,4.6
								C20.3,81.1,27.3,87.5,37,88c5.4,0.3,10.8,0.3,17.2,0.3h3.2h3.1c3.3,0,6.8-0.1,10.2-0.6C80.1,86,86.3,79,86.9,69.3
								c0.3-5.6,0.4-11.3,0.4-16.8v-2c0-3.7,0-8.2-0.4-12.7c-0.5-6.8-3.5-12-8.9-15.5c-3.1-2-6.6-3-11.2-3.3c-0.7,0-1.4-0.1-2.1-0.1
								L63.6,18.9L63.6,18.9L63.6,18.9z M49.7,78.4c-3.5,0-7.2-0.1-12-0.3c-2.1-0.1-4-0.7-5.5-1.8c-2.4-1.6-3.7-4-4-7.2
								c-0.3-2.8-0.4-5.7-0.4-8.9c0-7,0.1-14,0.2-19.8c0-1.2,0.2-2.4,0.5-3.7c1-4.4,4.1-7.1,8.7-7.5c3.6-0.3,7.2-0.4,10.8-0.5
								c1.6,0,3.1-0.1,4.6-0.1c1.6,0.1,3.2,0.1,4.8,0.1c3.6,0.1,7.1,0.2,10.5,0.5c5.6,0.5,8.8,3.8,9.2,9.4
								c0.3,5.5,0.3,11.2,0.4,16.7v0.6c0,4.2-0.1,8.4-0.3,12.5c-0.2,2.9-1.1,5.1-3,6.9c-1.7,1.7-4,2.6-6.6,2.7
								c-5.3,0.2-11,0.3-17.3,0.3L49.7,78.4L49.7,78.4z"/>
						</g>
						<g>
							<path class="st3" d="M52.6,71.4c-9.8,0-17.8-8-17.8-17.8c0-4.8,1.8-9.3,5.2-12.6s7.8-5.2,12.6-5.2c9.8,0,17.8,8,17.9,17.8
								C70.5,63.4,62.5,71.4,52.6,71.4L52.6,71.4z M52.6,43.7c-5.5,0-9.9,4.4-9.9,9.9s4.4,9.9,9.9,9.9c5.4,0,9.9-4.5,9.9-9.9
								c0-2.6-1-5.1-2.9-7C57.7,44.8,55.3,43.7,52.6,43.7v-1V43.7z"/>
							<path d="M52.6,36.8c9.3,0,16.8,7.5,16.8,16.8s-7.5,16.8-16.8,16.9l0,0c-9.3,0-16.8-7.5-16.8-16.8
								C35.8,44.3,43.3,36.8,52.6,36.8L52.6,36.8 M52.6,64.5c6,0,10.9-4.9,10.9-10.9s-4.9-10.9-10.9-10.9l0,0
								c-6,0-10.9,4.9-10.9,10.9C41.7,59.6,46.6,64.5,52.6,64.5L52.6,64.5 M52.6,34.8L52.6,34.8c-5,0-9.8,2-13.3,5.5
								s-5.5,8.3-5.5,13.3c0,10.4,8.4,18.8,18.8,18.8s18.9-8.5,18.8-18.9C71.4,43.2,63,34.8,52.6,34.8L52.6,34.8z M52.6,64.5v-2
								c-4.9,0-8.9-4-8.9-8.9s4-8.9,8.9-8.9c2.4,0,4.6,0.9,6.3,2.6c1.7,1.7,2.6,3.9,2.6,6.3c0,4.8-4.1,8.9-8.9,8.9V64.5L52.6,64.5z"
								/>
						</g>
						<g>
							<path class="st3" d="M70.1,41.1c-1.3,0-2.6-0.5-3.5-1.4s-1.4-2.2-1.4-3.5c0-2.7,2.2-4.9,4.9-4.9c2.8,0,5,2.1,5,4.9
								c0,1.3-0.5,2.6-1.4,3.5C72.6,40.6,71.4,41.1,70.1,41.1L70.1,41.1z"/>
							<path d="M70.1,32.2c2.2,0,3.9,1.7,4,3.9c0,2.2-1.8,4-3.9,4l0,0c-2.2,0-3.9-1.8-3.9-4C66.2,33.9,67.9,32.2,70.1,32.2
								C70,32.2,70,32.2,70.1,32.2 M70.1,30.2L70.1,30.2L70.1,30.2c-3.3,0-5.9,2.6-5.9,5.9c0,1.6,0.6,3.1,1.7,4.2
								c1.1,1.1,2.6,1.7,4.2,1.7s3.1-0.6,4.2-1.8c1.1-1.1,1.7-2.6,1.7-4.2C76,32.8,73.4,30.2,70.1,30.2L70.1,30.2z"/>
						</g>
					</g>
				</g>
			</g>
		</g>
	</g>
</g>
</svg>
