<?xml version="1.0" encoding="utf-8"?>
<!-- Generator: Adobe Illustrator 21.0.0, SVG Export Plug-In . SVG Version: 6.00 Build 0)  -->
<svg version="1.1" id="Layer_1" xmlns="http://www.w3.org/2000/svg" xmlns:xlink="http://www.w3.org/1999/xlink" x="0px" y="0px"
	 viewBox="0 0 109.1 109.2" style="enable-background:new 0 0 109.1 109.2;" xml:space="preserve">
<style type="text/css">
	.st0{fill:#9F2EBB;stroke:#000000;stroke-width:3;stroke-miterlimit:10;}
	.st1{opacity:0.75;}
	.st2{fill:#601D70;}
	.st3{fill:#FFFFFF;}
</style>
<g>
	<g>
		<rect x="3.5" y="3.5" class="st0" width="102" height="102"/>
		<g id="nkvpMc.tif_8_">
			<g class="st1">
				<path class="st2" d="M53.1,92.3c-6.4,0-11.7-0.1-17.1-0.3c-9.2-0.5-15.9-6.5-17.5-15.8c-0.3-1.5-0.4-3-0.5-4.5
					c0-0.7-0.1-1.3-0.2-2V47.8c0-0.6,0.1-1.2,0.1-1.7c0.1-1.2,0.2-2.4,0.3-3.6c1-9.5,7.6-16.1,17.1-17.1c1.2-0.1,2.4-0.2,3.6-0.3
					c0.5,0,1.1-0.1,1.6-0.1h21.9l1.1,0.1c0.7,0.1,1.4,0.1,2.1,0.2c4.4,0.3,7.8,1.3,10.7,3.1c5.1,3.3,7.9,8.2,8.4,14.7
					c0.3,4.5,0.4,8.9,0.4,12.6v2c0,5.5,0,11.1-0.4,16.7c-0.6,9.2-6.5,15.8-15.5,17.4c-3.4,0.6-6.8,0.6-10.1,0.6L53.1,92.3z
					 M51.5,32.6c-1.5,0.1-3.1,0.1-4.7,0.1c-3.6,0.1-7.2,0.2-10.8,0.5c-5,0.4-8.4,3.3-9.5,8.2C26.2,42.7,26,44,26,45.3
					c-0.1,5.9-0.2,12.8-0.2,19.9c0,3.2,0.1,6.2,0.4,9c0.3,3.5,1.8,6.1,4.4,7.9c1.7,1.2,3.8,1.9,6,2c4.8,0.2,8.5,0.3,12,0.3h0.5
					c6.3,0,12-0.1,17.3-0.3c2.9-0.1,5.3-1.1,7.3-2.9c2-1.9,3.1-4.4,3.3-7.5c0.2-4.2,0.4-8.4,0.3-12.6v-0.6c0-5.5,0-11.2-0.4-16.8
					c-0.4-6.1-4-9.8-10.1-10.4c-3.5-0.3-7-0.4-10.6-0.5C54.8,32.7,53.1,32.7,51.5,32.6z"/>
				<path class="st2" d="M62.6,25.9c1,0.1,2.1,0.2,3.1,0.2c3.6,0.2,7.2,1,10.3,3c5.1,3.3,7.5,8.1,8,14c0.3,4.2,0.4,8.4,0.4,12.5
					c0,6.2,0,12.5-0.4,18.7c-0.5,8.8-6.1,15-14.7,16.4c-3.2,0.6-6.6,0.6-9.9,0.6c-2.1,0-4.2,0-6.3,0c-5.7,0-11.4,0-17.1-0.3
					c-8.9-0.5-15-6.2-16.5-15c-0.4-2.1-0.4-4.3-0.6-6.4c0-7.3,0-14.6,0-21.9c0.1-1.7,0.2-3.5,0.4-5.2c1-9.1,7.1-15.3,16.2-16.2
					c1.7-0.2,3.5-0.3,5.2-0.4C48,25.9,55.3,25.9,62.6,25.9 M48.7,85.4c0.2,0,0.3,0,0.5,0c5.8,0,11.6-0.1,17.4-0.3
					c3-0.1,5.7-1.1,7.9-3.2c2.4-2.2,3.4-5.1,3.6-8.2c0.2-4.2,0.4-8.4,0.3-12.7c0-5.8,0-11.7-0.4-17.5c-0.4-6.6-4.4-10.7-11-11.3
					c-5.1-0.4-10.2-0.4-15.5-0.6c-5.1,0.2-10.4,0.2-15.6,0.6c-5.6,0.4-9.3,3.8-10.4,9C25.2,42.6,25,44,25,45.4
					c-0.1,6.6-0.2,13.2-0.2,19.9c0,3,0.1,6,0.4,9c0.3,3.6,1.8,6.6,4.9,8.7c2,1.4,4.2,2,6.6,2.1C40.7,85.3,44.7,85.4,48.7,85.4
					 M62.6,23.9L62.6,23.9H40.7h-0.1h-0.1c-0.5,0-1.1,0.1-1.6,0.1c-1.2,0.1-2.4,0.2-3.6,0.3c-10,1.1-16.9,8-18,18
					c-0.1,1.2-0.2,2.4-0.3,3.6c0,0.5-0.1,1.1-0.1,1.6v0.1v0.1v21.9v0.1v0.1c0.1,0.7,0.1,1.3,0.2,2c0.1,1.5,0.2,3,0.5,4.6
					C19.3,86.1,26.3,92.5,36,93c5.4,0.3,10.8,0.3,17.2,0.3h3.2h3.1c3.3,0,6.8-0.1,10.2-0.6C79.1,91,85.3,84,85.9,74.3
					c0.3-5.6,0.4-11.3,0.4-16.8v-2c0-3.7,0-8.2-0.4-12.7c-0.5-6.8-3.5-12-8.9-15.5c-3.1-2-6.6-3-11.2-3.3c-0.7,0-1.4-0.1-2.1-0.1
					L62.6,23.9L62.6,23.9L62.6,23.9z M48.7,83.4c-3.5,0-7.2-0.1-12-0.3c-2.1-0.1-4-0.7-5.5-1.8c-2.4-1.6-3.7-4-4-7.2
					c-0.3-2.8-0.4-5.7-0.4-8.9c0-7,0.1-14,0.2-19.8c0-1.2,0.2-2.4,0.5-3.7c1-4.4,4.1-7.1,8.7-7.5c3.6-0.3,7.2-0.4,10.8-0.5
					c1.6,0,3.1-0.1,4.6-0.1c1.6,0.1,3.2,0.1,4.8,0.1c3.6,0.1,7.1,0.2,10.5,0.5c5.6,0.5,8.8,3.8,9.2,9.4c0.3,5.5,0.3,11.2,0.4,16.7
					v0.6c0,4.2-0.1,8.4-0.3,12.5c-0.2,2.9-1.1,5.1-3,6.9c-1.7,1.7-4,2.6-6.6,2.7c-5.3,0.2-11,0.3-17.3,0.3L48.7,83.4L48.7,83.4z"/>
				<path class="st2" d="M51.6,76.4c-9.8,0-17.8-8-17.8-17.8c0-4.8,1.8-9.3,5.2-12.6s7.8-5.2,12.6-5.2c9.8,0,17.8,8,17.9,17.8
					C69.5,68.4,61.5,76.4,51.6,76.4L51.6,76.4z M51.6,48.7c-5.5,0-9.9,4.4-9.9,9.9s4.4,9.9,9.9,9.9c5.4,0,9.9-4.5,9.9-9.9
					c0-2.6-1-5.1-2.9-7C56.7,49.8,54.3,48.7,51.6,48.7v-1V48.7z"/>
				<path class="st2" d="M51.6,41.8c9.3,0,16.8,7.5,16.8,16.8s-7.5,16.8-16.8,16.9l0,0c-9.3,0-16.8-7.5-16.8-16.8
					C34.8,49.3,42.3,41.8,51.6,41.8L51.6,41.8 M51.6,69.5c6,0,10.9-4.9,10.9-10.9s-4.9-10.9-10.9-10.9l0,0c-6,0-10.9,4.9-10.9,10.9
					C40.7,64.6,45.6,69.5,51.6,69.5L51.6,69.5 M51.6,39.8L51.6,39.8c-5,0-9.8,2-13.3,5.5s-5.5,8.3-5.5,13.3
					c0,10.4,8.4,18.8,18.8,18.8s18.9-8.5,18.8-18.9C70.4,48.2,62,39.8,51.6,39.8L51.6,39.8z M51.6,69.5v-2c-4.9,0-8.9-4-8.9-8.9
					s4-8.9,8.9-8.9c2.4,0,4.6,0.9,6.3,2.6c1.7,1.7,2.6,3.9,2.6,6.3c0,4.8-4.1,8.9-8.9,8.9V69.5L51.6,69.5z"/>
				<path class="st2" d="M69.1,46.1c-1.3,0-2.6-0.5-3.5-1.4s-1.4-2.2-1.4-3.5c0-2.7,2.2-4.9,4.9-4.9c2.8,0,5,2.1,5,4.9
					c0,1.3-0.5,2.6-1.4,3.5C71.6,45.6,70.4,46.1,69.1,46.1L69.1,46.1z"/>
				<path class="st2" d="M69.1,37.2c2.2,0,3.9,1.7,4,3.9c0,2.2-1.8,4-3.9,4l0,0c-2.2,0-3.9-1.8-3.9-4C65.2,38.9,66.9,37.2,69.1,37.2
					C69,37.2,69,37.2,69.1,37.2 M69.1,35.2L69.1,35.2L69.1,35.2c-3.3,0-5.9,2.6-5.9,5.9c0,1.6,0.6,3.1,1.7,4.2
					c1.1,1.1,2.6,1.7,4.2,1.7s3.1-0.6,4.2-1.8c1.1-1.1,1.7-2.6,1.7-4.2C75,37.8,72.4,35.2,69.1,35.2L69.1,35.2z"/>
			</g>
			<g>
				<g>
					<g>
						<g>
							<path class="st3" d="M56.1,89.3c-6.4,0-11.7-0.1-17.1-0.3c-9.2-0.5-15.9-6.5-17.5-15.8c-0.3-1.5-0.4-3-0.5-4.5
								c0-0.7-0.1-1.3-0.2-2V44.8c0-0.6,0.1-1.2,0.1-1.7c0.1-1.2,0.2-2.4,0.3-3.6c1-9.5,7.6-16.1,17.1-17.1c1.2-0.1,2.4-0.2,3.6-0.3
								c0.5,0,1.1-0.1,1.6-0.1h21.9l1.1,0.1c0.7,0.1,1.4,0.1,2.1,0.2c4.4,0.3,7.8,1.3,10.7,3.1c5.1,3.3,7.9,8.2,8.4,14.7
								c0.3,4.5,0.4,8.9,0.4,12.6v2c0,5.5,0,11.1-0.4,16.7c-0.6,9.2-6.5,15.8-15.5,17.4c-3.4,0.6-6.8,0.6-10.1,0.6L56.1,89.3z
								 M54.5,29.6c-1.5,0.1-3.1,0.1-4.7,0.1c-3.6,0.1-7.2,0.2-10.8,0.5c-5,0.4-8.4,3.3-9.5,8.2C29.2,39.7,29,41,29,42.3
								c-0.1,5.9-0.2,12.8-0.2,19.9c0,3.2,0.1,6.2,0.4,9c0.3,3.5,1.8,6.1,4.4,7.9c1.7,1.2,3.8,1.9,6,2c4.8,0.2,8.5,0.3,12,0.3h0.5
								c6.3,0,12-0.1,17.3-0.3c2.9-0.1,5.3-1.1,7.3-2.9c2-1.9,3.1-4.4,3.3-7.5c0.2-4.2,0.4-8.4,0.3-12.6v-0.6c0-5.5,0-11.2-0.4-16.8
								c-0.4-6.1-4-9.8-10.1-10.4c-3.5-0.3-7-0.4-10.6-0.5C57.8,29.7,56.1,29.7,54.5,29.6z"/>
							<path d="M65.6,22.9c1,0.1,2.1,0.2,3.1,0.2c3.6,0.2,7.2,1,10.3,3c5.1,3.3,7.5,8.1,8,14c0.3,4.2,0.4,8.4,0.4,12.5
								c0,6.2,0,12.5-0.4,18.7c-0.5,8.8-6.1,15-14.7,16.4c-3.2,0.6-6.6,0.6-9.9,0.6c-2.1,0-4.2,0-6.3,0c-5.7,0-11.4,0-17.1-0.3
								c-8.9-0.5-15-6.2-16.5-15c-0.4-2.1-0.4-4.3-0.6-6.4c0-7.3,0-14.6,0-21.9c0.1-1.7,0.2-3.5,0.4-5.2c1-9.1,7.1-15.3,16.2-16.2
								c1.7-0.2,3.5-0.3,5.2-0.4C51,22.9,58.3,22.9,65.6,22.9 M51.7,82.4c0.2,0,0.3,0,0.5,0c5.8,0,11.6-0.1,17.4-0.3
								c3-0.1,5.7-1.1,7.9-3.2c2.4-2.2,3.4-5.1,3.6-8.2c0.2-4.2,0.4-8.4,0.3-12.7c0-5.8,0-11.7-0.4-17.5c-0.4-6.6-4.4-10.7-11-11.3
								c-5.1-0.4-10.2-0.4-15.5-0.6c-5.1,0.2-10.4,0.2-15.6,0.6c-5.6,0.4-9.3,3.8-10.4,9C28.2,39.6,28,41,28,42.4
								c-0.1,6.6-0.2,13.2-0.2,19.9c0,3,0.1,6,0.4,9c0.3,3.6,1.8,6.6,4.9,8.7c2,1.4,4.2,2,6.6,2.1C43.7,82.3,47.7,82.4,51.7,82.4
								 M65.6,20.9L65.6,20.9H43.7h-0.1h-0.1c-0.5,0-1.1,0.1-1.6,0.1c-1.2,0.1-2.4,0.2-3.6,0.3c-10,1.1-16.9,8-18,18
								c-0.1,1.2-0.2,2.4-0.3,3.6c0,0.5-0.1,1.1-0.1,1.6v0.1v0.1v21.9v0.1v0.1c0.1,0.7,0.1,1.3,0.2,2c0.1,1.5,0.2,3,0.5,4.6
								C22.3,83.1,29.3,89.5,39,90c5.4,0.3,10.8,0.3,17.2,0.3h3.2h3.1c3.3,0,6.8-0.1,10.2-0.6C82.1,88,88.3,81,88.9,71.3
								c0.3-5.6,0.4-11.3,0.4-16.8v-2c0-3.7,0-8.2-0.4-12.7c-0.5-6.8-3.5-12-8.9-15.5c-3.1-2-6.6-3-11.2-3.3c-0.7,0-1.4-0.1-2.1-0.1
								L65.6,20.9L65.6,20.9L65.6,20.9z M51.7,80.4c-3.5,0-7.2-0.1-12-0.3c-2.1-0.1-4-0.7-5.5-1.8c-2.4-1.6-3.7-4-4-7.2
								c-0.3-2.8-0.4-5.7-0.4-8.9c0-7,0.1-14,0.2-19.8c0-1.2,0.2-2.4,0.5-3.7c1-4.4,4.1-7.1,8.7-7.5c3.6-0.3,7.2-0.4,10.8-0.5
								c1.6,0,3.1-0.1,4.6-0.1c1.6,0.1,3.2,0.1,4.8,0.1c3.6,0.1,7.1,0.2,10.5,0.5c5.6,0.5,8.8,3.8,9.2,9.4
								c0.3,5.5,0.3,11.2,0.4,16.7v0.6c0,4.2-0.1,8.4-0.3,12.5c-0.2,2.9-1.1,5.1-3,6.9c-1.7,1.7-4,2.6-6.6,2.7
								c-5.3,0.2-11,0.3-17.3,0.3L51.7,80.4L51.7,80.4z"/>
						</g>
						<g>
							<path class="st3" d="M54.6,73.4c-9.8,0-17.8-8-17.8-17.8c0-4.8,1.8-9.3,5.2-12.6s7.8-5.2,12.6-5.2c9.8,0,17.8,8,17.9,17.8
								C72.5,65.4,64.5,73.4,54.6,73.4L54.6,73.4z M54.6,45.7c-5.5,0-9.9,4.4-9.9,9.9s4.4,9.9,9.9,9.9c5.4,0,9.9-4.5,9.9-9.9
								c0-2.6-1-5.1-2.9-7C59.7,46.8,57.3,45.7,54.6,45.7v-1V45.7z"/>
							<path d="M54.6,38.8c9.3,0,16.8,7.5,16.8,16.8s-7.5,16.8-16.8,16.9l0,0c-9.3,0-16.8-7.5-16.8-16.8
								C37.8,46.3,45.3,38.8,54.6,38.8L54.6,38.8 M54.6,66.5c6,0,10.9-4.9,10.9-10.9s-4.9-10.9-10.9-10.9l0,0
								c-6,0-10.9,4.9-10.9,10.9C43.7,61.6,48.6,66.5,54.6,66.5L54.6,66.5 M54.6,36.8L54.6,36.8c-5,0-9.8,2-13.3,5.5
								s-5.5,8.3-5.5,13.3c0,10.4,8.4,18.8,18.8,18.8s18.9-8.5,18.8-18.9C73.4,45.2,65,36.8,54.6,36.8L54.6,36.8z M54.6,66.5v-2
								c-4.9,0-8.9-4-8.9-8.9s4-8.9,8.9-8.9c2.4,0,4.6,0.9,6.3,2.6c1.7,1.7,2.6,3.9,2.6,6.3c0,4.8-4.1,8.9-8.9,8.9V66.5L54.6,66.5z"
								/>
						</g>
						<g>
							<path class="st3" d="M72.1,43.1c-1.3,0-2.6-0.5-3.5-1.4s-1.4-2.2-1.4-3.5c0-2.7,2.2-4.9,4.9-4.9c2.8,0,5,2.1,5,4.9
								c0,1.3-0.5,2.6-1.4,3.5C74.6,42.6,73.4,43.1,72.1,43.1L72.1,43.1z"/>
							<path d="M72.1,34.2c2.2,0,3.9,1.7,4,3.9c0,2.2-1.8,4-3.9,4l0,0c-2.2,0-3.9-1.8-3.9-4C68.2,35.9,69.9,34.2,72.1,34.2
								C72,34.2,72,34.2,72.1,34.2 M72.1,32.2L72.1,32.2L72.1,32.2c-3.3,0-5.9,2.6-5.9,5.9c0,1.6,0.6,3.1,1.7,4.2
								c1.1,1.1,2.6,1.7,4.2,1.7s3.1-0.6,4.2-1.8c1.1-1.1,1.7-2.6,1.7-4.2C78,34.8,75.4,32.2,72.1,32.2L72.1,32.2z"/>
						</g>
					</g>
				</g>
			</g>
		</g>
	</g>
</g>
</svg>
