<?xml version="1.0" encoding="utf-8"?>
<!-- Generator: Adobe Illustrator 21.0.0, SVG Export Plug-In . SVG Version: 6.00 Build 0)  -->
<svg version="1.1" id="Layer_1" xmlns="http://www.w3.org/2000/svg" xmlns:xlink="http://www.w3.org/1999/xlink" x="0px" y="0px"
	 viewBox="0 0 192.9 320.2" style="enable-background:new 0 0 192.9 320.2;" xml:space="preserve">
<style type="text/css">
	.st0{fill:#1D1D1B;stroke:#1D1D1B;stroke-width:1.5;stroke-linecap:round;stroke-linejoin:round;stroke-miterlimit:10;}
	.st1{fill:#D6B650;stroke:#1D1D1B;stroke-width:1.5;stroke-linecap:square;stroke-miterlimit:10;}
	.st2{fill:#333333;stroke:#1D1D1B;stroke-width:2;stroke-linecap:square;stroke-miterlimit:10;}
	.st3{fill:#FFFFFF;stroke:#1D1D1B;stroke-width:2;stroke-miterlimit:10;}
	.st4{fill:#FBD952;}
	.st5{fill:none;stroke:#1D1D1B;stroke-width:1.5;stroke-linecap:round;stroke-linejoin:round;stroke-miterlimit:10;}
</style>
<g id="back-line">
	<g>
		<path class="st0" d="M187.9,293.5c-10.5,14.7-47.4,25.5-91.4,25.5c-44.5,0-81.8-11.1-91.8-26"/>
		<path class="st0" d="M4.7,293c-1.7-2.6-2.6-5.2-2.6-8c0-18.8,42.3-34,94.4-34s94.4,15.2,94.4,34c0,2.9-1,5.8-3,8.5"/>
		<g>
			<path class="st1" d="M96.6,266.9c44.5,0,81.8,11.1,91.8,26c1.7-2.6,2.6-5.2,2.6-8c0-18.8-42.3-34-94.4-34s-94.4,15.2-94.4,34
				c0,2.8,0.9,5.4,2.6,8C14.8,278,52.1,266.9,96.6,266.9z"/>
		</g>
	</g>
</g>
<g id="ball">
	<g>
		<circle class="st2" cx="96.6" cy="240.5" r="71.1"/>
		
			<ellipse transform="matrix(0.7172 -0.6969 0.6969 0.7172 -124.0825 102.89)" class="st3" cx="64.7" cy="204.3" rx="22.7" ry="13"/>
	</g>
</g>
<g id="background">
	<path class="st4" d="M187.3,295.1c-11.2,14.3-47.6,24.7-90.8,24.7s-79.7-10.5-90.9-24.7h-5.8v28h192.9v-28H187.3z"/>
</g>
<g id="front-line">
	<path class="st5" d="M187.9,293.5c-10.5,14.7-47.4,25.5-91.4,25.5c-44.5,0-81.8-11.1-91.8-26"/>
</g>
</svg>
