<?xml version="1.0" encoding="utf-8"?>
<!-- Generator: Adobe Illustrator 21.0.0, SVG Export Plug-In . SVG Version: 6.00 Build 0)  -->
<svg version="1.1" id="Layer_1" xmlns="http://www.w3.org/2000/svg" xmlns:xlink="http://www.w3.org/1999/xlink" x="0px" y="0px"
	 viewBox="0 0 105 105" style="enable-background:new 0 0 105 105;" xml:space="preserve">
<style type="text/css">
	.st0{fill:#50C1EC;}
	.st1{fill:none;stroke:#000000;stroke-width:3;stroke-miterlimit:10;}
	.st2{fill:#47A7C4;stroke:#47A7C4;stroke-width:3;stroke-miterlimit:10;}
	.st3{fill:#969A99;stroke:#000000;stroke-width:2;stroke-miterlimit:10;}
	.st4{fill:#333333;stroke:#000000;stroke-width:2;stroke-miterlimit:10;}
	.st5{fill:#BABABA;stroke:#000000;stroke-width:2;stroke-miterlimit:10;}
	.st6{fill:none;stroke:#000000;stroke-width:2;stroke-linecap:round;stroke-miterlimit:10;}
	.st7{fill:#ED5B47;stroke:#000000;stroke-width:2;stroke-miterlimit:10;}
	.st8{fill:#3FADAB;stroke:#000000;stroke-width:2;stroke-miterlimit:10;}
</style>
<g>
	<g>
		<rect x="1.5" y="1.5" class="st0" width="102" height="102"/>
		<rect x="1.5" y="1.5" class="st1" width="102" height="102"/>
	</g>
	<g>
		<path class="st2" d="M85.3,73.1L65.9,92.5c-2.3,2.3-6.2,2.3-8.5,0L17.3,52.3c-2.3-2.3-2.3-6.2,0-8.5l19.4-19.4
			c2.3-2.3,6.2-2.3,8.5,0l40.2,40.2C87.6,67,87.6,70.8,85.3,73.1z"/>
		<path class="st2" d="M15.4,37.4L15.4,37.4c-1,1-1,2.6,0,3.5l2.4,2.4l3.5-3.5l-2.4-2.4C18,36.4,16.4,36.4,15.4,37.4z"/>
		<path class="st3" d="M87.3,69.1L67.9,88.5c-2.3,2.3-6.2,2.3-8.5,0L19.3,48.3c-2.3-2.3-2.3-6.2,0-8.5l19.4-19.4
			c2.3-2.3,6.2-2.3,8.5,0l40.2,40.2C89.6,63,89.6,66.8,87.3,69.1z"/>
		<path class="st4" d="M58,41.3L40.1,59.2c-1.2,1.2-3.1,1.2-4.2,0l-10-10c-1.2-1.2-1.2-3.1,0-4.2L43.7,27c1.2-1.2,3.1-1.2,4.2,0
			l10,10C59.2,38.2,59.2,40.1,58,41.3z"/>
		<ellipse transform="matrix(0.7071 -0.7071 0.7071 0.7071 -22.9395 53.6891)" class="st5" cx="53.3" cy="54.5" rx="2.8" ry="2.8"/>
		<g>
			<path class="st5" d="M52.8,68.7l-2.5,2.5c-0.7,0.7-1.9,0.7-2.6,0l0,0c-0.7-0.7-0.7-1.9,0-2.6l2.5-2.5c0.7-0.7,1.9-0.7,2.6,0l0,0
				C53.5,66.8,53.5,67.9,52.8,68.7z"/>
			<path class="st5" d="M61.4,60.1l-2.5,2.5c-0.7,0.7-1.9,0.7-2.6,0l0,0c-0.7-0.7-0.7-1.9,0-2.6l2.5-2.5c0.7-0.7,1.9-0.7,2.6,0l0,0
				C62.1,58.2,62.1,59.4,61.4,60.1z"/>
			<path class="st5" d="M69.9,51.6L67.5,54c-0.7,0.7-1.9,0.7-2.6,0l0,0c-0.7-0.7-0.7-1.9,0-2.6l2.5-2.5c0.7-0.7,1.9-0.7,2.6,0l0,0
				C70.6,49.7,70.6,50.8,69.9,51.6z"/>
			<path class="st5" d="M57.4,73.2l-2.5,2.5c-0.7,0.7-1.9,0.7-2.6,0l0,0c-0.7-0.7-0.7-1.9,0-2.6l2.5-2.5c0.7-0.7,1.9-0.7,2.6,0l0,0
				C58.1,71.3,58.1,72.5,57.4,73.2z"/>
			<path class="st5" d="M65.9,64.7l-2.5,2.5c-0.7,0.7-1.9,0.7-2.6,0l0,0c-0.7-0.7-0.7-1.9,0-2.6l2.5-2.5c0.7-0.7,1.9-0.7,2.6,0h0
				C66.6,62.8,66.6,63.9,65.9,64.7z"/>
			<path class="st5" d="M74.5,56.1L72,58.5c-0.7,0.7-1.9,0.7-2.6,0l0,0c-0.7-0.7-0.7-1.9,0-2.6l2.5-2.5c0.7-0.7,1.9-0.7,2.6,0v0
				C75.2,54.2,75.2,55.4,74.5,56.1z"/>
			<path class="st5" d="M61.9,77.8l-2.5,2.5c-0.7,0.7-1.9,0.7-2.6,0h0c-0.7-0.7-0.7-1.9,0-2.6l2.5-2.5c0.7-0.7,1.9-0.7,2.6,0h0
				C62.6,75.9,62.6,77,61.9,77.8z"/>
			<path class="st5" d="M70.5,69.2L68,71.6c-0.7,0.7-1.9,0.7-2.6,0h0c-0.7-0.7-0.7-1.9,0-2.6l2.5-2.5c0.7-0.7,1.9-0.7,2.6,0v0
				C71.2,67.3,71.2,68.5,70.5,69.2z"/>
			<path class="st5" d="M79,60.6l-2.5,2.5c-0.7,0.7-1.9,0.7-2.6,0v0c-0.7-0.7-0.7-1.9,0-2.6l2.5-2.5c0.7-0.7,1.9-0.7,2.6,0l0,0
				C79.7,58.8,79.7,59.9,79,60.6z"/>
			<path class="st5" d="M66.4,82.3L64,84.7c-0.7,0.7-1.9,0.7-2.6,0l0,0c-0.7-0.7-0.7-1.9,0-2.6l2.5-2.5c0.7-0.7,1.9-0.7,2.6,0l0,0
				C67.2,80.4,67.2,81.6,66.4,82.3z"/>
			<path class="st5" d="M75,73.7l-2.5,2.5c-0.7,0.7-1.9,0.7-2.6,0v0c-0.7-0.7-0.7-1.9,0-2.6l2.5-2.5c0.7-0.7,1.9-0.7,2.6,0l0,0
				C75.7,71.9,75.7,73,75,73.7z"/>
			<path class="st5" d="M83.5,65.2l-2.5,2.5c-0.7,0.7-1.9,0.7-2.6,0h0c-0.7-0.7-0.7-1.9,0-2.6l2.5-2.5c0.7-0.7,1.9-0.7,2.6,0l0,0
				C84.3,63.3,84.3,64.5,83.5,65.2z"/>
		</g>
		<line class="st6" x1="26.1" y1="39.2" x2="38.5" y2="26.8"/>
		<ellipse transform="matrix(0.9393 -0.3431 0.3431 0.9393 -18.6943 19.3052)" class="st7" cx="45.2" cy="62.5" rx="4.6" ry="2.3"/>
		<ellipse transform="matrix(0.3431 -0.9393 0.9393 0.3431 -3.4836 88.0209)" class="st8" cx="61.2" cy="46.5" rx="4.6" ry="2.3"/>
		<path class="st3" d="M17.4,33.4L17.4,33.4c-1,1-1,2.6,0,3.5l2.4,2.4l3.5-3.5l-2.4-2.4C20,32.4,18.4,32.4,17.4,33.4z"/>
	</g>
</g>
</svg>
