<?xml version="1.0" encoding="utf-8"?>
<!-- Generator: Adobe Illustrator 21.0.0, SVG Export Plug-In . SVG Version: 6.00 Build 0)  -->
<svg version="1.1" id="Layer_1" xmlns="http://www.w3.org/2000/svg" xmlns:xlink="http://www.w3.org/1999/xlink" x="0px" y="0px"
	 viewBox="0 0 105 105" style="enable-background:new 0 0 105 105;" xml:space="preserve">
<style type="text/css">
	.st0{fill:#FF6969;}
	.st1{fill:none;stroke:#000000;stroke-width:3;stroke-miterlimit:10;}
	.st2{opacity:0.75;}
	.st3{fill:#AD4B4B;}
	.st4{fill:#5B5B5B;}
</style>
<g>
	<g>
		<rect x="1.5" y="1.5" class="st0" width="102" height="102"/>
		<rect x="1.5" y="1.5" class="st1" width="102" height="102"/>
	</g>
	<g id="Ir1DM7.tif_3_">
		<g class="st2">
			<path class="st3" d="M50.1,94.4c-0.5,0-1,0-1.5,0c-2.7-0.1-5.4-0.5-7.9-1.1c-5.6-1.4-10.6-3.9-15-7.4c-3.3-2.6-6.1-5.7-8.3-9.1
				C13,69.9,10.8,62.2,11.1,54c0.1-3.8,0.8-7.6,2.1-11.2c2.5-7.1,6.7-13.1,12.7-17.8c3.2-2.6,6.8-4.6,10.8-6
				c3.1-1.1,6.4-1.9,9.6-2.2c0.6-0.1,1.1-0.1,1.7-0.1l0.8-0.1h2.6c0.1,0,0.2,0,0.3,0c2.8,0.1,5.5,0.5,8.2,1.2
				c5.6,1.4,10.6,4,15.1,7.7c4.4,3.7,7.9,8.2,10.4,13.4c1.8,3.9,3,8,3.5,12.3c0.1,0.7,0.1,1.4,0.2,2.1l0.1,1v2.5v0.1
				c0,0.1,0,0.3,0,0.4c-0.1,1.7-0.3,3.4-0.6,5.3c-0.9,5.2-2.9,10.1-5.9,14.5c-2.2,3.3-4.9,6.3-8.1,8.8c-3,2.4-6.3,4.3-9.8,5.7
				C59.9,93.5,55,94.4,50.1,94.4z M19.6,58.2c-0.7,1.1-1,2.4-1,3.8v0.3c0,0.2,0,0.4,0.1,0.6c0.2,1.5,0.7,2.9,1.3,4
				c2.1,4.4,4.8,8.5,8,12.3c0.7,0.8,1.7,1.9,3.2,2.6c0.6,0.3,1.1,0.4,1.7,0.4l0,0c0.5,0,0.9-0.1,1.4-0.3c1.8-0.7,2.1-2.3,2.2-2.9
				c0.2-1.2-0.1-2.4-0.9-3.5c-0.8-1-1.8-1.6-2.9-1.7c-0.6,0-1.2-0.2-1.9-0.3c-1.1-0.2-1.8-0.5-2.4-1.1L28,72
				c-0.2-0.2-0.4-0.5-0.6-0.8c-1.3-1.6-1.4-3.3-0.5-5.1c0.3-0.6,0.7-1.3,1-1.9l0.5-0.9c0.6-1.1,1.2-2.1,1.6-3.4
				c0.6-1.6,0.3-3.1-0.8-4.3c-0.7-0.7-1.4-1.2-2.2-1.5c0.3-0.2,0.6-0.6,0.8-1.1c0.5-1.1,0.6-2.2,0.6-3.2v-0.3c0-0.2,0-0.4,0-0.7
				c-0.1-1-0.4-1.8-0.9-2.4c-0.8-1-1.7-1.2-2.3-1.2c-0.1,0-0.1,0-0.2,0c-1.3,0.1-2.5,1.2-2.6,2.6c0,0.4,0,0.8,0.1,1.3l0,0
				c-0.6-0.1-1-0.2-1.5-0.2s-0.9,0.2-1.3,0.5c-0.2,0.2-0.7,0.7-0.8,1.3c0,0.1,0,0.2-0.1,0.2S18.5,51,18.4,51c-1,0.5-1.5,1.4-1.4,2.4
				c-0.9,0.4-1.4,1.6-1.1,2.6c0.4,1.1,1.1,1.9,2.2,2.2c0.2,0.1,0.5,0.1,0.7,0.1C19.1,58.3,19.4,58.3,19.6,58.2z M73.2,54.4
				c-0.7,0.2-1.4,0.6-2,1.3c-1.6,1.7-1.4,3.5-1,4.6c0.4,0.9,0.8,1.8,1.2,2.5c0.3,0.6,0.6,1.2,0.9,1.7c0.4,0.7,0.8,1.3,1.1,2
				c0.6,1.1,0.6,2.3,0.2,3.5c-0.3,0.7-0.7,1.3-1.3,1.9L72,72.3c-0.5,0.7-1.2,1.1-2.2,1.3l-0.3,0.1c-0.7,0.1-1.4,0.3-2,0.3
				c-2.4,0.2-4,2.7-3.9,4.6c0.1,1.7,1,3,2.4,3.4c0.4,0.1,0.8,0.2,1.2,0.2l0,0c0.7,0,1.4-0.2,2.1-0.6c1-0.6,1.9-1.4,2.5-2.2
				c1.4-1.4,2.5-3.1,3.5-4.5c2.3-3.3,3.9-6.1,5.1-8.9c0.7-1.6,1-2.9,1-4.2v-0.1v-0.1c0-0.2,0-0.3-0.1-0.5c0-0.4-0.1-0.8-0.2-1.3
				c-0.2-0.7-0.5-1.3-0.8-1.8c0.2,0.1,0.5,0.1,0.8,0.1h0.1c1.3,0,2.6-1.2,2.8-2.5c0.1-0.7-0.1-1.3-0.5-1.8c-0.2-0.2-0.4-0.4-0.7-0.5
				c0.1-0.9-0.2-1.7-1-2.2c-0.3-0.2-0.5-0.3-0.8-0.4c0-0.1,0-0.1,0-0.2c-0.2-0.9-0.9-1.6-1.8-1.8c0.1,0.2-0.1,0.2-0.2,0.2
				c-0.3,0-0.8,0.1-1.2,0.4c0.1-0.4,0.1-0.9,0-1.3c-0.1-1.1-0.8-2-1.9-2.4c-0.3-0.1-0.6-0.2-0.9-0.2c-0.7,0-1.3,0.3-1.9,0.8
				c-0.3,0.3-0.6,0.8-0.9,1.3c-0.4,0.8-0.5,1.7-0.5,2.7v0.4c0,0.3,0.1,0.7,0.1,1c0.1,0.7,0.3,1.6,0.9,2.3
				C72.9,54.2,73,54.3,73.2,54.4z M55.4,61.5c-0.3,0.2-0.6,0.5-0.7,0.6c-0.1,0.1-0.1,0.2-0.2,0.2c-0.1,0.2-0.2,0.3-0.3,0.5
				c-0.3,0.4-0.5,0.8-0.8,1.2c-0.6,1.1-1.1,2.2-1.1,3.6v0.1l0.1,0.5c0,0.3,0.1,0.7,0.2,1c0.4,1.5,1.7,2.6,3.2,2.6l0,0
				c0.7,0,1.3-0.2,1.8-0.6c1-0.7,1.3-1.8,1.4-2.6v-0.1c0.4,0.6,1,0.9,1.7,0.9c1.1,0,2.1-0.7,2.4-1.7c0.1,0,0.2,0,0.2,0
				c0.8,0,1.4-0.4,1.9-1.1c0.3-0.4,0.4-0.9,0.5-1.4c0.4-0.1,0.8-0.2,1.1-0.7c0.2-0.2,0.4-0.6,0.6-1.1c0.4-1.5-0.4-3.4-1.9-4.2
				c-0.4-0.2-0.7-0.3-1.1-0.3c0.1-0.1,0.2-0.2,0.3-0.3c0.9-1,2.1-2.5,1.9-4.7l-0.1-0.7c-0.1-0.5-0.1-1.1-0.2-1.6
				c-0.1-0.7-0.2-1.5-0.5-2.3c-0.9-3.2-1.7-5.9-2.5-8.5c-0.8-2.8-1.7-5-2.7-6.9c-0.6-1.3-1.4-2.6-2.5-3.7c-0.8-0.8-1.8-1.3-2.8-1.3
				c-0.2,0-0.5,0-0.7,0.1c-2,0.4-3.4,2.2-3.4,4.4c0,2.1,0.9,3.8,2.8,4.9c0.6,0.4,1.2,0.8,1.7,1.4c1.1,1.2,1.9,2.7,2.4,4.6
				c0.4,1.3,0.2,2.7-0.3,3.9c-0.4,0.8-0.9,1.6-1.7,2.5c-0.3,0.3-0.5,0.6-0.8,0.9c-0.5,0.6-1.1,1.2-1.6,1.8c-1.1,1.4-1.6,2.9-1.4,4.4
				c0.1,1.8,1,3.1,2.6,3.7C55.1,61.4,55.3,61.4,55.4,61.5z M41.1,68.4c0.1,0.6,0.3,1.1,0.6,1.6c0.6,1,1.5,1.6,2.7,1.6
				c0.2,0,0.3,0,0.5,0c1.2-0.2,2.1-0.9,2.5-2.1c0.1-0.4,0.2-0.8,0.3-1.2c0-0.2,0.1-0.3,0.1-0.5l0.2-1l-0.3-0.1
				c-0.2-1.6-0.9-2.8-1.5-3.8c-0.3-0.5-0.7-0.9-1.2-1.4c-0.1-0.1-0.2-0.1-0.2-0.2c0.5-0.2,1-0.4,1.4-0.8c1.2-1,1.7-2.4,1.5-4.3
				c-0.2-1.8-1.2-3.1-2.1-4.1c-0.3-0.4-0.7-0.7-1-1.1c-0.6-0.6-1.1-1.2-1.6-1.9c-0.9-1.1-1.3-2.4-1.3-3.7c0-1,0.3-2.1,0.8-3.3
				c0.6-1.2,1.2-2.5,2.4-3.3c0.3-0.2,0.6-0.5,1-0.7c0.3-0.2,0.5-0.4,0.8-0.6c1.9-1.4,2.7-4.1,1.8-6.3c-0.6-1.6-2.1-2.7-3.7-2.7
				c-0.3,0-0.6,0-0.9,0.1c-1.3,0.3-2.2,1.2-2.7,1.9c-1.2,1.5-2.2,3.3-3,5.4c-1.5,3.9-2.8,8.1-4,12.9c-0.4,1.7-0.7,3.2-0.7,4.5
				c0,1.9,0.2,2.8,1.3,4.1c0.3,0.4,0.7,0.8,1,1.1c-0.1,0-0.1,0-0.2,0c-0.3,0-0.7,0.2-1,0.3c-1.2,0.7-1.9,1.9-2,3.4
				c0,0.9,0.3,1.7,1,2.2c0.2,0.2,0.5,0.3,0.8,0.4c0.1,0.8,0.4,1.5,1,2c0.4,0.4,0.9,0.5,1.4,0.5c0.1,0,0.2,0,0.2,0
				c0.3,0.9,1.1,1.5,2.1,1.7c0.1,0,0.2,0,0.3,0C39.8,69.3,40.5,69.2,41.1,68.4z M41.8,63.3c-0.1-0.4-0.2-0.7-0.4-1.1
				c-0.1-0.2-0.2-0.3-0.3-0.4c0.3,0,0.6,0.1,1,0.1c0.2,0,0.3,0,0.5,0c-0.2,0.3-0.4,0.6-0.5,0.9C42,62.9,41.9,63.1,41.8,63.3z
				 M58.3,63.3c-0.1-0.3-0.2-0.6-0.4-0.8c-0.1-0.2-0.2-0.4-0.4-0.6c0.1,0,0.2,0,0.4,0l0,0c0.4,0,0.7,0,1.1-0.1
				c-0.2,0.2-0.4,0.5-0.6,0.9c0,0.1-0.1,0.2-0.1,0.3C58.3,63.1,58.3,63.2,58.3,63.3z M60.7,61.3L60.7,61.3
				C60.8,61.3,60.8,61.3,60.7,61.3C60.8,61.3,60.7,61.3,60.7,61.3z M39.2,61.3C39.3,61.3,39.3,61.3,39.2,61.3
				C39.3,61.3,39.3,61.3,39.2,61.3C39.3,61.3,39.3,61.3,39.2,61.3z M21.9,55.7c0-0.1,0.1-0.2,0.1-0.3c0.9-0.1,1.6-0.8,1.7-1.8
				c0-0.2,0-0.4,0-0.7c0.2,0.3,0.4,0.5,0.6,0.8c0.1,0.1,0.3,0.4,0.7,0.7c-0.1,0-0.2,0-0.2,0C23.8,54.6,22.9,55,21.9,55.7z
				 M78.1,55.7c-0.2-0.2-0.5-0.3-0.7-0.4c0.2,0.1,0.4,0.2,0.7,0.2C78.1,55.5,78.1,55.6,78.1,55.7z M77.3,55.2
				c-0.5-0.3-1.1-0.5-1.8-0.7c-0.1,0-0.3-0.1-0.4-0.1l0,0c0.3-0.2,0.5-0.4,0.7-0.7c0.2-0.2,0.3-0.4,0.5-0.7c0,0.4,0.1,0.8,0.2,1.1
				C76.6,54.6,76.9,55,77.3,55.2z"/>
			<path class="st3" d="M51.2,17.6c0.1,0,0.2,0,0.3,0c2.7,0.1,5.4,0.5,8,1.2c5.4,1.4,10.4,3.9,14.7,7.5c4.3,3.6,7.7,8,10.1,13
				c1.8,3.8,2.9,7.8,3.4,11.9c0.1,0.7,0.1,1.4,0.2,2.1c0,0.3,0,0.6,0.1,0.9v2.5l0,0c0,0.2,0,0.3,0,0.5c-0.1,1.6-0.2,3.3-0.6,5.1
				c-0.9,5.1-2.9,9.8-5.7,14.2c-2.2,3.2-4.8,6.1-7.9,8.6c-2.9,2.3-6.1,4.2-9.5,5.6c-4.5,1.8-9.2,2.7-14.1,2.7c-0.5,0-1,0-1.5,0
				c-2.6-0.1-5.2-0.5-7.7-1.1c-5.4-1.3-10.3-3.8-14.6-7.2c-3.2-2.6-5.9-5.6-8.1-8.9C14,69.5,11.9,62,12.2,54c0.1-3.7,0.8-7.4,2-10.9
				c2.4-6.9,6.6-12.8,12.3-17.4c3.1-2.5,6.6-4.5,10.5-5.9c3-1.1,6.2-1.8,9.4-2.1c0.5-0.1,1.1-0.1,1.6-0.1l0.7-0.1h2.5 M53.7,61.7
				C53.6,61.7,53.6,61.7,53.7,61.7c-0.1,0.2-0.2,0.3-0.3,0.5c-0.3,0.4-0.6,0.8-0.8,1.3c-0.6,1.2-1.2,2.5-1.2,4v0.2v0.2
				c0,0.1,0,0.2,0,0.4c0,0.3,0.1,0.7,0.2,1.1c0.5,2,2.2,3.3,4.1,3.3c0.9,0,1.7-0.3,2.4-0.8s1.1-1.2,1.4-1.8c0.4,0.2,0.8,0.2,1.2,0.2
				l0,0c1.3,0,2.4-0.7,3-1.8c0.9-0.1,1.7-0.7,2.3-1.5c0.2-0.4,0.4-0.8,0.5-1.2c0.3-0.2,0.7-0.4,1-0.8c0.3-0.3,0.6-0.8,0.8-1.4
				c0.5-1.9-0.4-4.2-2.2-5.3c0.9-1.1,1.7-2.6,1.5-4.7l0,0l0,0c0-0.2,0-0.4-0.1-0.7c-0.1-0.5-0.1-1.1-0.2-1.6
				c-0.1-0.8-0.3-1.6-0.5-2.4c-0.9-3.2-1.7-5.9-2.5-8.5c-0.9-2.9-1.7-5.1-2.8-7.1c-0.7-1.3-1.5-2.7-2.7-3.9c-1-1-2.2-1.6-3.5-1.6
				c-0.3,0-0.6,0-0.9,0.1c-2.5,0.5-4.2,2.7-4.2,5.4c0,2.4,1.1,4.4,3.2,5.8c0.5,0.3,1.1,0.8,1.6,1.2c1,1.1,1.7,2.4,2.2,4.2
				c0.3,1.1,0.2,2.2-0.3,3.2c-0.3,0.7-0.8,1.4-1.6,2.2c-0.3,0.3-0.5,0.6-0.8,0.8c-0.5,0.6-1.1,1.2-1.6,1.9c-1.2,1.5-1.8,3.3-1.6,5.2
				C51.6,59.4,52.4,60.8,53.7,61.7 M33.9,58.3c-1.4,0.9-2.3,2.4-2.4,4.1c-0.1,1.2,0.5,2.3,1.4,3.1c0.2,0.1,0.3,0.2,0.5,0.3
				c0.2,1,0.8,1.6,1.2,2c0.5,0.4,1,0.7,1.6,0.7c0.5,0.9,1.4,1.5,2.6,1.7c0.2,0,0.3,0,0.5,0c0.3,0,0.7,0,1.2-0.2
				c0.1,0.2,0.1,0.3,0.2,0.4c0.8,1.4,2,2.1,3.6,2.1c0.2,0,0.4,0,0.6,0c1.6-0.2,2.9-1.2,3.4-2.8c0.1-0.5,0.2-0.9,0.3-1.3
				c0-0.1,0.1-0.3,0.1-0.4l0.4-1.9L48.5,66c-0.3-1.5-1-2.7-1.6-3.5c-0.2-0.3-0.4-0.5-0.6-0.8c0.1-0.1,0.2-0.2,0.3-0.2
				c1.5-1.2,2.1-3,1.9-5.2c-0.2-2.1-1.4-3.6-2.3-4.7c-0.3-0.4-0.7-0.7-1-1.1c-0.6-0.6-1.1-1.2-1.6-1.8c-0.7-0.9-1.1-1.9-1.1-3.1
				c0-0.9,0.2-1.8,0.8-2.9c0.5-1.1,1.1-2.2,2.1-3c0.3-0.2,0.6-0.4,0.9-0.6c0.3-0.2,0.6-0.4,0.8-0.6c2.2-1.7,3.2-4.9,2.2-7.4
				c-0.8-2-2.6-3.3-4.7-3.3c-0.4,0-0.7,0-1.1,0.1c-1.6,0.4-2.6,1.5-3.2,2.2c-1.2,1.6-2.3,3.4-3.1,5.6c-1.5,3.9-2.8,8.1-4.1,13
				c-0.4,1.7-0.7,3.3-0.7,4.7l0,0l0,0C32.4,55.6,32.6,56.8,33.9,58.3L33.9,58.3 M71.6,54c-0.4,0.3-0.8,0.6-1.2,1
				c-1.6,1.7-2,3.7-1.2,5.6c0.4,1,0.8,1.8,1.2,2.6c0.3,0.6,0.6,1.2,1,1.7c0.4,0.7,0.7,1.3,1.1,2c0.4,0.9,0.5,1.8,0.1,2.7
				c-0.2,0.5-0.6,1.1-1.1,1.7l-0.3,0.3c-0.4,0.5-0.9,0.8-1.6,0.9l-0.3,0.1c-0.7,0.1-1.3,0.3-1.9,0.3c-3,0.2-5,3.2-4.8,5.7
				c0.2,2.1,1.3,3.7,3.1,4.3c0.5,0.2,1,0.3,1.6,0.3c0.9,0,1.8-0.3,2.6-0.7c1.1-0.7,2-1.6,2.8-2.3c1.4-1.5,2.6-3.2,3.6-4.6
				c2.3-3.3,4-6.2,5.2-9c0.5-1.1,1.1-2.7,1.1-4.6v-0.2v-0.2c0-0.1,0-0.3-0.1-0.4c-0.1-0.4-0.1-0.9-0.3-1.4c0-0.2-0.1-0.3-0.2-0.5
				c1.6-0.3,2.9-1.7,3.1-3.3c0.1-0.9-0.1-1.9-0.7-2.6c-0.1-0.2-0.3-0.3-0.4-0.4c-0.1-1-0.5-1.9-1.4-2.5c-0.2-0.1-0.4-0.2-0.6-0.3
				c-0.4-1.1-1.3-1.9-2.4-2.2c-0.2-0.1-0.4-0.1-0.6-0.1c0,0-0.1,0-0.2,0c-0.2-1.5-1.1-2.6-2.5-3.2c-0.4-0.2-0.9-0.2-1.3-0.2
				c-0.9,0-1.8,0.4-2.6,1.1c-0.4,0.4-0.8,0.9-1.1,1.6c-0.5,1-0.6,2.1-0.6,3.2v0.1v0.1v0.2c0,0.3,0.1,0.7,0.1,1.1
				C71,52.5,71.2,53.3,71.6,54 M21.3,47.9c-0.1,0-0.1,0-0.2,0c-0.7,0-1.4,0.3-2,0.8c-0.3,0.3-0.8,0.8-1,1.4l0,0
				c-1.2,0.5-1.9,1.6-2,2.8c-1,0.8-1.5,2.2-1.1,3.4c0.5,1.5,1.5,2.5,2.9,2.8c0.1,0,0.1,0,0.2,0c-0.3,0.9-0.4,1.8-0.5,2.7v0.1V62v0.2
				c0,0.2,0,0.4,0.1,0.7c0.2,1.7,0.8,3.2,1.3,4.3c2.1,4.5,4.9,8.7,8.2,12.6c0.7,0.8,1.9,2.1,3.5,2.9c0.7,0.4,1.4,0.5,2.2,0.5
				c0.6,0,1.2-0.1,1.7-0.3c1.5-0.6,2.5-1.8,2.8-3.6c0.3-1.5-0.1-3-1.1-4.3c-0.9-1.2-2.3-2-3.6-2.1c-0.5,0-1.1-0.2-1.8-0.3
				c-0.9-0.2-1.5-0.4-1.8-0.8c-0.1-0.2-0.3-0.3-0.4-0.5c-0.2-0.2-0.4-0.5-0.6-0.7c-1-1.3-1.2-2.6-0.4-4c0.3-0.6,0.6-1.2,1-1.8
				l0.2-0.4l0.3-0.5c0.6-1.1,1.3-2.2,1.7-3.5c0.7-1.9,0.3-3.8-1-5.3c-0.5-0.5-0.9-0.9-1.4-1.2c0-0.1,0.1-0.2,0.1-0.3
				c0.6-1.3,0.7-2.5,0.7-3.7v-0.1v-0.1v-0.2c0-0.2,0-0.5-0.1-0.7c-0.1-1.2-0.5-2.1-1.1-2.9c-1-1.3-2.3-1.6-3.1-1.6
				c-0.1,0-0.2,0-0.3,0C23,44.6,21.5,46.1,21.3,47.9 M51.4,15.6c-0.9,0-1.8,0-2.7,0c-0.8,0.1-1.6,0.1-2.5,0.2
				c-3.4,0.3-6.7,1.1-9.9,2.2c-4,1.5-7.7,3.5-11,6.2c-6.1,4.9-10.4,10.9-13,18.3c-1.3,3.7-2,7.6-2.1,11.5
				c-0.3,8.4,1.8,16.2,6.4,23.3c2.3,3.6,5.2,6.7,8.5,9.4c4.6,3.7,9.7,6.2,15.3,7.6c2.7,0.7,5.4,1,8.1,1.1c0.5,0,1,0,1.6,0
				c5.1,0,10.1-0.9,14.8-2.9c3.6-1.5,7-3.4,10-5.9c3.2-2.6,6-5.6,8.3-9.1c3-4.6,5.1-9.5,6-14.9c0.3-1.8,0.5-3.6,0.6-5.4
				c0-0.2,0-0.3,0-0.5c0-0.9,0-1.8,0-2.7c-0.1-1.1-0.1-2.1-0.3-3.2c-0.5-4.4-1.7-8.6-3.6-12.6c-2.5-5.4-6.1-9.9-10.7-13.7
				s-9.7-6.4-15.5-7.9c-2.8-0.7-5.5-1.1-8.4-1.2C51.5,15.6,51.4,15.6,51.4,15.6L51.4,15.6z M57.9,60.9c-0.8,0-1.7-0.2-2.5-0.5
				c-1.3-0.5-1.8-1.5-2-2.9c-0.1-1.4,0.4-2.7,1.2-3.7c0.7-0.9,1.6-1.7,2.4-2.6c0.7-0.8,1.4-1.7,1.9-2.7c0.7-1.5,0.8-3,0.4-4.6
				c-0.5-1.9-1.3-3.6-2.7-5c-0.6-0.6-1.2-1.1-1.9-1.5c-1.5-1-2.3-2.3-2.3-4.1c0-1.7,1.1-3.1,2.6-3.4c0.2,0,0.4-0.1,0.5-0.1
				c0.8,0,1.5,0.4,2.1,1c1,1,1.7,2.2,2.3,3.5c1.1,2.2,1.9,4.4,2.6,6.7c0.8,2.8,1.7,5.6,2.5,8.5c0.2,0.7,0.3,1.5,0.4,2.2
				s0.2,1.5,0.2,2.2c0.1,1.6-0.6,2.8-1.7,3.9c-1.3,1.4-2.9,2.5-4.8,3C58.8,60.9,58.3,60.9,57.9,60.9L57.9,60.9z M42.1,60.9
				c-1.8,0-3.3-0.8-4.7-1.9c-0.7-0.6-1.4-1.3-2-2c-0.9-1-1-1.7-1-3.4c0-1.3,0.3-2.8,0.7-4.3c1.1-4.3,2.4-8.6,4-12.8
				c0.7-1.8,1.6-3.6,2.8-5.1c0.6-0.7,1.2-1.3,2.1-1.5c0.2-0.1,0.4-0.1,0.6-0.1c1.2,0,2.3,0.8,2.8,2c0.7,1.7,0,4-1.5,5.1
				c-0.6,0.4-1.2,0.8-1.8,1.3c-1.2,1-2,2.3-2.6,3.7c-0.5,1.2-0.9,2.4-0.9,3.7c0,1.6,0.5,3.1,1.5,4.3c0.8,1,1.8,2,2.7,3
				s1.7,2.2,1.9,3.6c0.2,1.3-0.1,2.5-1.1,3.4c-0.8,0.6-1.7,0.8-2.7,0.9C42.5,60.9,42.3,60.9,42.1,60.9L42.1,60.9z M74.1,53.7
				c-0.2,0-0.4-0.1-0.5-0.3c-0.4-0.5-0.6-1.2-0.7-1.9c-0.1-0.5-0.1-0.9-0.1-1.2c0-0.9,0-1.6,0.4-2.3c0.2-0.4,0.4-0.7,0.7-1
				c0.3-0.3,0.7-0.5,1.2-0.5c0.2,0,0.4,0,0.6,0.1c0.7,0.3,1.2,0.8,1.2,1.6c0.1,0.5,0,1-0.1,1.4c-0.3,1.3-0.8,2.4-1.6,3.5
				c-0.1,0.2-0.3,0.4-0.5,0.5C74.4,53.6,74.2,53.7,74.1,53.7L74.1,53.7z M25.9,53.7c-0.3,0-0.6-0.2-0.9-0.6c-0.8-1-1.3-2.2-1.7-3.5
				c-0.1-0.5-0.2-0.9-0.1-1.4c0.1-0.9,0.8-1.6,1.7-1.7H25c0.6,0,1.1,0.3,1.5,0.8c0.4,0.6,0.6,1.2,0.7,1.9c0,0.3,0,0.6,0.1,0.8
				c0,1-0.1,2-0.5,2.8C26.5,53.4,26.3,53.7,25.9,53.7L25.9,53.7z M19.8,52.1c0-0.4,0-0.8,0.1-1.2c0.1-0.3,0.3-0.6,0.6-0.8
				c0.2-0.2,0.4-0.3,0.6-0.3s0.4,0.1,0.7,0.2c0.5,0.4,0.8,0.9,0.9,1.5s0.1,1.3,0.1,1.9c0,0.6-0.4,0.9-0.8,0.9
				c-0.2,0-0.4-0.1-0.6-0.2c-0.2-0.1-0.3-0.2-0.4-0.3c0.1,0.4,0.2,0.8,0.2,1.2c0,0.5-0.2,0.8-0.6,0.8c-0.1,0-0.2,0-0.4-0.1
				c-0.2-0.1-0.4-0.2-0.7-0.4c0,0.1,0.1,0.2,0.1,0.2c0,0.1,0.1,0.3,0.1,0.4c0.2,0.8-0.1,1.3-0.8,1.3c-0.1,0-0.3,0-0.4-0.1
				c-0.8-0.2-1.3-0.8-1.5-1.5c-0.2-0.5,0.1-1.2,0.6-1.4c0.3-0.1,0.6-0.1,0.9-0.1c-0.1-0.2-0.2-0.5-0.3-0.8C18,52.6,18.4,52,19,51.7
				c0,0.2,0.1,0.2,0.2,0.2C19.4,51.9,19.6,52,19.8,52.1L19.8,52.1z M78.1,54.4c-0.3,0-0.5-0.2-0.6-0.5c-0.3-1.2-0.2-2.3,0.5-3.4
				c0.2-0.3,0.5-0.6,1-0.6c0.1,0,0.2,0,0.2,0c0.5,0.1,0.9,0.5,1,1c0.1,0.4,0.1,0.8,0.1,1.2c0.2-0.2,0.4-0.2,0.6-0.2s0.4,0.1,0.6,0.2
				c0.5,0.3,0.7,0.8,0.6,1.4c-0.1,0.3-0.2,0.6-0.3,0.9l0,0l0,0l0,0c0.1,0,0.3-0.1,0.4-0.1c0.7,0,1.2,0.6,1.1,1.4
				c-0.1,0.8-1,1.6-1.9,1.7c0,0,0,0-0.1,0c-0.6,0-0.9-0.3-0.9-0.9c0-0.3,0.1-0.7,0.2-1c-0.2,0.1-0.4,0.3-0.7,0.4
				c-0.1,0-0.2,0.1-0.3,0.1c-0.4,0-0.6-0.3-0.6-0.7s0.1-0.8,0.2-1.2c-0.2,0.1-0.5,0.3-0.8,0.4C78.3,54.4,78.2,54.4,78.1,54.4
				L78.1,54.4z M67.2,81.3c-0.3,0-0.6-0.1-0.9-0.2c-1-0.3-1.6-1.3-1.7-2.6c-0.1-1.5,1.2-3.4,3-3.6c0.8-0.1,1.6-0.3,2.5-0.4
				c1.1-0.2,2-0.7,2.8-1.7c0.6-0.8,1.3-1.6,1.7-2.5c0.6-1.5,0.5-2.9-0.2-4.3c-0.6-1.3-1.4-2.5-2-3.8c-0.4-0.8-0.8-1.6-1.1-2.4
				c-0.6-1.3-0.2-2.5,0.8-3.5c0.7-0.7,1.5-1.1,2.4-1.1c0.3,0,0.6,0.1,1,0.2c2.5,0.8,4.3,2.3,5.1,4.9c0.2,0.5,0.2,1.1,0.3,1.6
				c0,1.4-0.4,2.6-1,3.8c-1.3,3.1-3.1,5.9-5,8.7c-1.1,1.5-2.1,3-3.4,4.4c-0.7,0.7-1.4,1.5-2.3,2C68.3,81.1,67.8,81.3,67.2,81.3
				L67.2,81.3z M32.8,81.3c-0.4,0-0.9-0.1-1.3-0.3c-1.1-0.6-2-1.4-2.8-2.4c-3.2-3.7-5.8-7.7-7.9-12.1c-0.6-1.2-1-2.4-1.2-3.7
				c0-0.3,0-0.6-0.1-0.8c0-2.4,1.1-4.1,2.9-5.4c0.7-0.5,1.5-1,2.4-1.2c0.3-0.1,0.6-0.1,0.9-0.1c1,0,1.8,0.4,2.6,1.3
				c0.9,1,1.1,2.1,0.6,3.3c-0.5,1.3-1.2,2.5-1.8,3.7c-0.4,0.8-0.9,1.5-1.3,2.3c-1.1,2.2-0.8,4.2,0.6,6.1c0.3,0.4,0.7,0.8,1,1.2
				c0.8,0.9,1.8,1.2,2.9,1.4c0.7,0.1,1.4,0.3,2,0.3c1.7,0.1,3.2,2.1,2.9,4c-0.2,1-0.6,1.8-1.6,2.1C33.5,81.2,33.1,81.3,32.8,81.3
				L32.8,81.3z M63.6,61.8c0-0.4,0-0.7,0-1c0.1-0.7,0.3-1,0.7-1c0.2,0,0.4,0.1,0.7,0.2c1,0.6,1.7,2,1.4,3.1
				c-0.1,0.2-0.2,0.5-0.4,0.7c-0.2,0.2-0.4,0.4-0.7,0.4c-0.2,0-0.4-0.1-0.7-0.2c0,0.2,0,0.3,0,0.4c0.1,0.6,0,1.1-0.3,1.6
				c-0.3,0.4-0.6,0.6-1.1,0.6c-0.3,0-0.6-0.1-1-0.4c0,0.3-0.1,0.6-0.1,0.9c-0.2,0.7-0.8,1.2-1.5,1.2l0,0c-0.4,0-0.7-0.2-0.9-0.5
				c-0.5-0.9-0.7-1.9-0.7-2.9c0-0.5,0.2-1.1,0.3-1.6v-0.1c0.2-0.6,0.5-0.8,0.9-0.8c0.3,0,0.6,0.2,0.9,0.5c0.1,0.1,0.2,0.3,0.4,0.4
				c0.1-0.4,0.1-0.7,0.2-1.1c0.1-0.6,0.4-0.9,0.8-0.9c0.2,0,0.5,0.1,0.8,0.3C63.3,61.5,63.5,61.7,63.6,61.8L63.6,61.8z M34.7,64.1
				c-0.2,0-0.4-0.1-0.6-0.2c-0.4-0.3-0.7-0.8-0.6-1.4c0.1-1.1,0.5-2,1.5-2.6c0.2-0.1,0.4-0.2,0.6-0.2c0.1,0,0.1,0,0.2,0
				c0.4,0,0.6,0.2,0.6,0.6c0.1,0.5,0.1,0.9,0.1,1.4c0.1-0.1,0.3-0.3,0.5-0.4c0.2-0.1,0.4-0.2,0.6-0.2c0.4,0,0.7,0.2,0.8,0.7
				c0.1,0.4,0.1,0.8,0.2,1.2c0.2-0.2,0.4-0.4,0.6-0.6c0.2-0.2,0.4-0.3,0.6-0.3c0.3,0,0.5,0.2,0.7,0.5c0.3,0.5,0.4,1.1,0.5,1.6
				c0.2,1,0,2-0.4,2.9c-0.3,0.7-0.7,1.1-1.2,1.1c-0.1,0-0.1,0-0.2,0c-0.8-0.1-1.3-0.7-1.4-1.5c0-0.2,0-0.4,0-0.6
				c-0.4,0.3-0.8,0.4-1,0.4c-0.3,0-0.5-0.1-0.7-0.3c-0.6-0.5-0.7-1.1-0.7-1.8c0-0.2,0-0.4,0.1-0.6C35.2,64.1,34.9,64.1,34.7,64.1
				L34.7,64.1z M44.4,70.6c-0.8,0-1.4-0.3-1.8-1.1c-0.3-0.5-0.5-1.1-0.5-1.7c0-1.6,0.3-3.1,0.9-4.6c0.1-0.2,0.2-0.5,0.4-0.6
				c0.2-0.2,0.3-0.3,0.5-0.3c0.1,0,0.3,0.1,0.4,0.2c0.4,0.3,0.7,0.7,1,1.2c0.7,1.2,1.3,2.4,1.4,3.8c0,0.1,0,0.2,0,0.3c0,0,0,0,0.1,0
				c-0.1,0.5-0.2,1-0.3,1.5c-0.3,0.8-0.8,1.3-1.7,1.4C44.6,70.6,44.5,70.6,44.4,70.6L44.4,70.6z M55.7,70.6c-1,0-1.9-0.7-2.2-1.8
				c-0.1-0.4-0.1-0.9-0.2-1.3c0-1.2,0.5-2.2,1-3.2c0.3-0.6,0.7-1.1,1-1.6l0.1-0.1c0.3-0.3,0.6-0.5,0.8-0.5c0.3,0,0.5,0.2,0.8,0.7
				c0.4,0.8,0.7,1.7,0.8,2.7c0.2,0.9,0.3,1.8,0.1,2.7c-0.1,0.8-0.4,1.5-1,2C56.5,70.5,56.1,70.6,55.7,70.6L55.7,70.6z"/>
		</g>
		<g>
			<g>
				<g>
					<g>
						<path class="st4" d="M53.1,91.4c-0.5,0-1,0-1.5,0c-2.7-0.1-5.4-0.5-7.9-1.1c-5.6-1.4-10.6-3.9-15-7.4
							c-3.3-2.6-6.1-5.7-8.3-9.1C16,66.9,13.8,59.2,14.1,51c0.1-3.8,0.8-7.6,2.1-11.2c2.5-7.1,6.7-13.1,12.7-17.8
							c3.2-2.6,6.8-4.6,10.8-6c3.1-1.1,6.4-1.9,9.6-2.2c0.6-0.1,1.1-0.1,1.7-0.1l0.8-0.1h2.6c0.1,0,0.2,0,0.3,0
							c2.8,0.1,5.5,0.5,8.2,1.2c5.6,1.4,10.6,4,15.1,7.7c4.4,3.7,7.9,8.2,10.4,13.4c1.8,3.9,3,8,3.5,12.3c0.1,0.7,0.1,1.4,0.2,2.1
							l0.1,1v2.5v0.1c0,0.1,0,0.3,0,0.4c-0.1,1.7-0.3,3.4-0.6,5.3c-0.9,5.2-2.9,10.1-5.9,14.5c-2.2,3.3-4.9,6.3-8.1,8.8
							c-3,2.4-6.3,4.3-9.8,5.7C62.9,90.5,58,91.4,53.1,91.4z M22.6,55.2c-0.7,1.1-1,2.4-1,3.8v0.3c0,0.2,0,0.4,0.1,0.6
							c0.2,1.5,0.7,2.9,1.3,4c2.1,4.4,4.8,8.5,8,12.3c0.7,0.8,1.7,1.9,3.2,2.6c0.6,0.3,1.1,0.4,1.7,0.4l0,0c0.5,0,0.9-0.1,1.4-0.3
							c1.8-0.7,2.1-2.3,2.2-2.9c0.2-1.2-0.1-2.4-0.9-3.5c-0.8-1-1.8-1.6-2.9-1.7c-0.6,0-1.2-0.2-1.9-0.3c-1.1-0.2-1.8-0.5-2.4-1.1
							L31,69c-0.2-0.2-0.4-0.5-0.6-0.8c-1.3-1.6-1.4-3.3-0.5-5.1c0.3-0.6,0.7-1.3,1-1.9l0.5-0.9c0.6-1.1,1.2-2.1,1.6-3.4
							c0.6-1.6,0.3-3.1-0.8-4.3c-0.7-0.7-1.4-1.2-2.2-1.5c0.3-0.2,0.6-0.6,0.8-1.1c0.5-1.1,0.6-2.2,0.6-3.2v-0.3c0-0.2,0-0.4,0-0.7
							c-0.1-1-0.4-1.8-0.9-2.4c-0.8-1-1.7-1.2-2.3-1.2c-0.1,0-0.1,0-0.2,0c-1.3,0.1-2.5,1.2-2.6,2.6c0,0.4,0,0.8,0.1,1.3l0,0
							c-0.6-0.1-1-0.2-1.5-0.2s-0.9,0.2-1.3,0.5c-0.2,0.2-0.7,0.7-0.8,1.3c0,0.1,0,0.2-0.1,0.2S21.5,48,21.4,48
							c-1,0.5-1.5,1.4-1.4,2.4c-0.9,0.4-1.4,1.6-1.1,2.6c0.4,1.1,1.1,1.9,2.2,2.2c0.2,0.1,0.5,0.1,0.7,0.1
							C22.1,55.3,22.4,55.3,22.6,55.2z M76.2,51.4c-0.7,0.2-1.4,0.6-2,1.3c-1.6,1.7-1.4,3.5-1,4.6c0.4,0.9,0.8,1.8,1.2,2.5
							c0.3,0.6,0.6,1.2,0.9,1.7c0.4,0.7,0.8,1.3,1.1,2c0.6,1.1,0.6,2.3,0.2,3.5c-0.3,0.7-0.7,1.3-1.3,1.9L75,69.3
							c-0.5,0.7-1.2,1.1-2.2,1.3l-0.3,0.1c-0.7,0.1-1.4,0.3-2,0.3c-2.4,0.2-4,2.7-3.9,4.6c0.1,1.7,1,3,2.4,3.4
							c0.4,0.1,0.8,0.2,1.2,0.2l0,0c0.7,0,1.4-0.2,2.1-0.6c1-0.6,1.9-1.4,2.5-2.2c1.4-1.4,2.5-3.1,3.5-4.5c2.3-3.3,3.9-6.1,5.1-8.9
							c0.7-1.6,1-2.9,1-4.2v-0.1v-0.1c0-0.2,0-0.3-0.1-0.5c0-0.4-0.1-0.8-0.2-1.3c-0.2-0.7-0.5-1.3-0.8-1.8c0.2,0.1,0.5,0.1,0.8,0.1
							h0.1c1.3,0,2.6-1.2,2.8-2.5c0.1-0.7-0.1-1.3-0.5-1.8c-0.2-0.2-0.4-0.4-0.7-0.5c0.1-0.9-0.2-1.7-1-2.2
							c-0.3-0.2-0.5-0.3-0.8-0.4c0-0.1,0-0.1,0-0.2c-0.2-0.9-0.9-1.6-1.8-1.8c0.1,0.2-0.1,0.2-0.2,0.2c-0.3,0-0.8,0.1-1.2,0.4
							c0.1-0.4,0.1-0.9,0-1.3c-0.1-1.1-0.8-2-1.9-2.4c-0.3-0.1-0.6-0.2-0.9-0.2c-0.7,0-1.3,0.3-1.9,0.8c-0.3,0.3-0.6,0.8-0.9,1.3
							c-0.4,0.8-0.5,1.7-0.5,2.7v0.4c0,0.3,0.1,0.7,0.1,1c0.1,0.7,0.3,1.6,0.9,2.3C75.9,51.2,76,51.3,76.2,51.4z M58.4,58.5
							c-0.3,0.2-0.6,0.5-0.7,0.6c-0.1,0.1-0.1,0.2-0.2,0.2c-0.1,0.2-0.2,0.3-0.3,0.5c-0.3,0.4-0.5,0.8-0.8,1.2
							c-0.6,1.1-1.1,2.2-1.1,3.6v0.1l0.1,0.5c0,0.3,0.1,0.7,0.2,1c0.4,1.5,1.7,2.6,3.2,2.6l0,0c0.7,0,1.3-0.2,1.8-0.6
							c1-0.7,1.3-1.8,1.4-2.6v-0.1c0.4,0.6,1,0.9,1.7,0.9c1.1,0,2.1-0.7,2.4-1.7c0.1,0,0.2,0,0.2,0c0.8,0,1.4-0.4,1.9-1.1
							c0.3-0.4,0.4-0.9,0.5-1.4c0.4-0.1,0.8-0.2,1.1-0.7c0.2-0.2,0.4-0.6,0.6-1.1c0.4-1.5-0.4-3.4-1.9-4.2c-0.4-0.2-0.7-0.3-1.1-0.3
							c0.1-0.1,0.2-0.2,0.3-0.3c0.9-1,2.1-2.5,1.9-4.7l-0.1-0.7c-0.1-0.5-0.1-1.1-0.2-1.6c-0.1-0.7-0.2-1.5-0.5-2.3
							c-0.9-3.2-1.7-5.9-2.5-8.5c-0.8-2.8-1.7-5-2.7-6.9c-0.6-1.3-1.4-2.6-2.5-3.7c-0.8-0.8-1.8-1.3-2.8-1.3c-0.2,0-0.5,0-0.7,0.1
							c-2,0.4-3.4,2.2-3.4,4.4c0,2.1,0.9,3.8,2.8,4.9c0.6,0.4,1.2,0.8,1.7,1.4c1.1,1.2,1.9,2.7,2.4,4.6c0.4,1.3,0.2,2.7-0.3,3.9
							c-0.4,0.8-0.9,1.6-1.7,2.5c-0.3,0.3-0.5,0.6-0.8,0.9c-0.5,0.6-1.1,1.2-1.6,1.8c-1.1,1.4-1.6,2.9-1.4,4.4
							c0.1,1.8,1,3.1,2.6,3.7C58.1,58.4,58.3,58.4,58.4,58.5z M44.1,65.4c0.1,0.6,0.3,1.1,0.6,1.6c0.6,1,1.5,1.6,2.7,1.6
							c0.2,0,0.3,0,0.5,0c1.2-0.2,2.1-0.9,2.5-2.1c0.1-0.4,0.2-0.8,0.3-1.2c0-0.2,0.1-0.3,0.1-0.5l0.2-1l-0.3-0.1
							c-0.2-1.6-0.9-2.8-1.5-3.8c-0.3-0.5-0.7-0.9-1.2-1.4c-0.1-0.1-0.2-0.1-0.2-0.2c0.5-0.2,1-0.4,1.4-0.8c1.2-1,1.7-2.4,1.5-4.3
							c-0.2-1.8-1.2-3.1-2.1-4.1c-0.3-0.4-0.7-0.7-1-1.1c-0.6-0.6-1.1-1.2-1.6-1.9c-0.9-1.1-1.3-2.4-1.3-3.7c0-1,0.3-2.1,0.8-3.3
							c0.6-1.2,1.2-2.5,2.4-3.3c0.3-0.2,0.6-0.5,1-0.7c0.3-0.2,0.5-0.4,0.8-0.6c1.9-1.4,2.7-4.1,1.8-6.3c-0.6-1.6-2.1-2.7-3.7-2.7
							c-0.3,0-0.6,0-0.9,0.1c-1.3,0.3-2.2,1.2-2.7,1.9c-1.2,1.5-2.2,3.3-3,5.4c-1.5,3.9-2.8,8.1-4,12.9c-0.4,1.7-0.7,3.2-0.7,4.5
							c0,1.9,0.2,2.8,1.3,4.1c0.3,0.4,0.7,0.8,1,1.1c-0.1,0-0.1,0-0.2,0c-0.3,0-0.7,0.2-1,0.3c-1.2,0.7-1.9,1.9-2,3.4
							c0,0.9,0.3,1.7,1,2.2c0.2,0.2,0.5,0.3,0.8,0.4c0.1,0.8,0.4,1.5,1,2c0.4,0.4,0.9,0.5,1.4,0.5c0.1,0,0.2,0,0.2,0
							c0.3,0.9,1.1,1.5,2.1,1.7c0.1,0,0.2,0,0.3,0C42.8,66.3,43.5,66.2,44.1,65.4z M44.8,60.3c-0.1-0.4-0.2-0.7-0.4-1.1
							c-0.1-0.2-0.2-0.3-0.3-0.4c0.3,0,0.6,0.1,1,0.1c0.2,0,0.3,0,0.5,0c-0.2,0.3-0.4,0.6-0.5,0.9C45,59.9,44.9,60.1,44.8,60.3z
							 M61.3,60.3c-0.1-0.3-0.2-0.6-0.4-0.8c-0.1-0.2-0.2-0.4-0.4-0.6c0.1,0,0.2,0,0.4,0l0,0c0.4,0,0.7,0,1.1-0.1
							c-0.2,0.2-0.4,0.5-0.6,0.9c0,0.1-0.1,0.2-0.1,0.3C61.3,60.1,61.3,60.2,61.3,60.3z M63.7,58.3L63.7,58.3
							C63.8,58.3,63.8,58.3,63.7,58.3C63.8,58.3,63.7,58.3,63.7,58.3z M42.2,58.3C42.3,58.3,42.3,58.3,42.2,58.3
							C42.3,58.3,42.3,58.3,42.2,58.3C42.3,58.3,42.3,58.3,42.2,58.3z M24.9,52.7c0-0.1,0.1-0.2,0.1-0.3c0.9-0.1,1.6-0.8,1.7-1.8
							c0-0.2,0-0.4,0-0.7c0.2,0.3,0.4,0.5,0.6,0.8c0.1,0.1,0.3,0.4,0.7,0.7c-0.1,0-0.2,0-0.2,0C26.8,51.6,25.9,52,24.9,52.7z
							 M81.1,52.7c-0.2-0.2-0.5-0.3-0.7-0.4c0.2,0.1,0.4,0.2,0.7,0.2C81.1,52.5,81.1,52.6,81.1,52.7z M80.3,52.2
							c-0.5-0.3-1.1-0.5-1.8-0.7c-0.1,0-0.3-0.1-0.4-0.1l0,0c0.3-0.2,0.5-0.4,0.7-0.7c0.2-0.2,0.3-0.4,0.5-0.7
							c0,0.4,0.1,0.8,0.2,1.1C79.6,51.6,79.9,52,80.3,52.2z"/>
						<path d="M54.2,14.6c0.1,0,0.2,0,0.3,0c2.7,0.1,5.4,0.5,8,1.2c5.4,1.4,10.4,3.9,14.7,7.5c4.3,3.6,7.7,8,10.1,13
							c1.8,3.8,2.9,7.8,3.4,11.9c0.1,0.7,0.1,1.4,0.2,2.1c0,0.3,0,0.6,0.1,0.9v2.5l0,0c0,0.2,0,0.3,0,0.5c-0.1,1.6-0.2,3.3-0.6,5.1
							c-0.9,5.1-2.9,9.8-5.7,14.2c-2.2,3.2-4.8,6.1-7.9,8.6c-2.9,2.3-6.1,4.2-9.5,5.6c-4.5,1.8-9.2,2.7-14.1,2.7c-0.5,0-1,0-1.5,0
							c-2.6-0.1-5.2-0.5-7.7-1.1c-5.4-1.3-10.3-3.8-14.6-7.2c-3.2-2.6-5.9-5.6-8.1-8.9C17,66.5,14.9,59,15.2,51
							c0.1-3.7,0.8-7.4,2-10.9c2.4-6.9,6.6-12.8,12.3-17.4c3.1-2.5,6.6-4.5,10.5-5.9c3-1.1,6.2-1.8,9.4-2.1c0.5-0.1,1.1-0.1,1.6-0.1
							l0.7-0.1h2.5 M56.7,58.7C56.6,58.7,56.6,58.7,56.7,58.7c-0.1,0.2-0.2,0.3-0.3,0.5c-0.3,0.4-0.6,0.8-0.8,1.3
							c-0.6,1.2-1.2,2.5-1.2,4v0.2v0.2c0,0.1,0,0.2,0,0.4c0,0.3,0.1,0.7,0.2,1.1c0.5,2,2.2,3.3,4.1,3.3c0.9,0,1.7-0.3,2.4-0.8
							s1.1-1.2,1.4-1.8c0.4,0.2,0.8,0.2,1.2,0.2l0,0c1.3,0,2.4-0.7,3-1.8c0.9-0.1,1.7-0.7,2.3-1.5c0.2-0.4,0.4-0.8,0.5-1.2
							c0.3-0.2,0.7-0.4,1-0.8c0.3-0.3,0.6-0.8,0.8-1.4c0.5-1.9-0.4-4.2-2.2-5.3c0.9-1.1,1.7-2.6,1.5-4.7l0,0l0,0
							c0-0.2,0-0.4-0.1-0.7c-0.1-0.5-0.1-1.1-0.2-1.6c-0.1-0.8-0.3-1.6-0.5-2.4c-0.9-3.2-1.7-5.9-2.5-8.5c-0.9-2.9-1.7-5.1-2.8-7.1
							c-0.7-1.3-1.5-2.7-2.7-3.9c-1-1-2.2-1.6-3.5-1.6c-0.3,0-0.6,0-0.9,0.1c-2.5,0.5-4.2,2.7-4.2,5.4c0,2.4,1.1,4.4,3.2,5.8
							c0.5,0.3,1.1,0.8,1.6,1.2c1,1.1,1.7,2.4,2.2,4.2c0.3,1.1,0.2,2.2-0.3,3.2c-0.3,0.7-0.8,1.4-1.6,2.2c-0.3,0.3-0.5,0.6-0.8,0.8
							c-0.5,0.6-1.1,1.2-1.6,1.9c-1.2,1.5-1.8,3.3-1.6,5.2C54.6,56.4,55.4,57.8,56.7,58.7 M36.9,55.3c-1.4,0.9-2.3,2.4-2.4,4.1
							c-0.1,1.2,0.5,2.3,1.4,3.1c0.2,0.1,0.3,0.2,0.5,0.3c0.2,1,0.8,1.6,1.2,2c0.5,0.4,1,0.7,1.6,0.7c0.5,0.9,1.4,1.5,2.6,1.7
							c0.2,0,0.3,0,0.5,0c0.3,0,0.7,0,1.2-0.2c0.1,0.2,0.1,0.3,0.2,0.4c0.8,1.4,2,2.1,3.6,2.1c0.2,0,0.4,0,0.6,0
							c1.6-0.2,2.9-1.2,3.4-2.8c0.1-0.5,0.2-0.9,0.3-1.3c0-0.1,0.1-0.3,0.1-0.4l0.4-1.9L51.5,63c-0.3-1.5-1-2.7-1.6-3.5
							c-0.2-0.3-0.4-0.5-0.6-0.8c0.1-0.1,0.2-0.2,0.3-0.2c1.5-1.2,2.1-3,1.9-5.2c-0.2-2.1-1.4-3.6-2.3-4.7c-0.3-0.4-0.7-0.7-1-1.1
							c-0.6-0.6-1.1-1.2-1.6-1.8c-0.7-0.9-1.1-1.9-1.1-3.1c0-0.9,0.2-1.8,0.8-2.9c0.5-1.1,1.1-2.2,2.1-3c0.3-0.2,0.6-0.4,0.9-0.6
							c0.3-0.2,0.6-0.4,0.8-0.6c2.2-1.7,3.2-4.9,2.2-7.4c-0.8-2-2.6-3.3-4.7-3.3c-0.4,0-0.7,0-1.1,0.1c-1.6,0.4-2.6,1.5-3.2,2.2
							c-1.2,1.6-2.3,3.4-3.1,5.6c-1.5,3.9-2.8,8.1-4.1,13c-0.4,1.7-0.7,3.3-0.7,4.7l0,0l0,0C35.4,52.6,35.6,53.8,36.9,55.3
							L36.9,55.3 M74.6,51c-0.4,0.3-0.8,0.6-1.2,1c-1.6,1.7-2,3.7-1.2,5.6c0.4,1,0.8,1.8,1.2,2.6c0.3,0.6,0.6,1.2,1,1.7
							c0.4,0.7,0.7,1.3,1.1,2c0.4,0.9,0.5,1.8,0.1,2.7c-0.2,0.5-0.6,1.1-1.1,1.7l-0.3,0.3c-0.4,0.5-0.9,0.8-1.6,0.9l-0.3,0.1
							c-0.7,0.1-1.3,0.3-1.9,0.3c-3,0.2-5,3.2-4.8,5.7c0.2,2.1,1.3,3.7,3.1,4.3c0.5,0.2,1,0.3,1.6,0.3c0.9,0,1.8-0.3,2.6-0.7
							c1.1-0.7,2-1.6,2.8-2.3c1.4-1.5,2.6-3.2,3.6-4.6c2.3-3.3,4-6.2,5.2-9c0.5-1.1,1.1-2.7,1.1-4.6v-0.2v-0.2c0-0.1,0-0.3-0.1-0.4
							c-0.1-0.4-0.1-0.9-0.3-1.4c0-0.2-0.1-0.3-0.2-0.5c1.6-0.3,2.9-1.7,3.1-3.3c0.1-0.9-0.1-1.9-0.7-2.6c-0.1-0.2-0.3-0.3-0.4-0.4
							c-0.1-1-0.5-1.9-1.4-2.5c-0.2-0.1-0.4-0.2-0.6-0.3c-0.4-1.1-1.3-1.9-2.4-2.2c-0.2-0.1-0.4-0.1-0.6-0.1c0,0-0.1,0-0.2,0
							c-0.2-1.5-1.1-2.6-2.5-3.2c-0.4-0.2-0.9-0.2-1.3-0.2c-0.9,0-1.8,0.4-2.6,1.1c-0.4,0.4-0.8,0.9-1.1,1.6c-0.5,1-0.6,2.1-0.6,3.2
							v0.1v0.1v0.2c0,0.3,0.1,0.7,0.1,1.1C74,49.5,74.2,50.3,74.6,51 M24.3,44.9c-0.1,0-0.1,0-0.2,0c-0.7,0-1.4,0.3-2,0.8
							c-0.3,0.3-0.8,0.8-1,1.4l0,0c-1.2,0.5-1.9,1.6-2,2.8c-1,0.8-1.5,2.2-1.1,3.4c0.5,1.5,1.5,2.5,2.9,2.8c0.1,0,0.1,0,0.2,0
							c-0.3,0.9-0.4,1.8-0.5,2.7v0.1V59v0.2c0,0.2,0,0.4,0.1,0.7c0.2,1.7,0.8,3.2,1.3,4.3c2.1,4.5,4.9,8.7,8.2,12.6
							c0.7,0.8,1.9,2.1,3.5,2.9c0.7,0.4,1.4,0.5,2.2,0.5c0.6,0,1.2-0.1,1.7-0.3c1.5-0.6,2.5-1.8,2.8-3.6c0.3-1.5-0.1-3-1.1-4.3
							c-0.9-1.2-2.3-2-3.6-2.1c-0.5,0-1.1-0.2-1.8-0.3c-0.9-0.2-1.5-0.4-1.8-0.8c-0.1-0.2-0.3-0.3-0.4-0.5c-0.2-0.2-0.4-0.5-0.6-0.7
							c-1-1.3-1.2-2.6-0.4-4c0.3-0.6,0.6-1.2,1-1.8l0.2-0.4l0.3-0.5c0.6-1.1,1.3-2.2,1.7-3.5c0.7-1.9,0.3-3.8-1-5.3
							c-0.5-0.5-0.9-0.9-1.4-1.2c0-0.1,0.1-0.2,0.1-0.3c0.6-1.3,0.7-2.5,0.7-3.7v-0.1v-0.1v-0.2c0-0.2,0-0.5-0.1-0.7
							c-0.1-1.2-0.5-2.1-1.1-2.9c-1-1.3-2.3-1.6-3.1-1.6c-0.1,0-0.2,0-0.3,0C26,41.6,24.5,43.1,24.3,44.9 M54.4,12.6
							c-0.9,0-1.8,0-2.7,0c-0.8,0.1-1.6,0.1-2.5,0.2c-3.4,0.3-6.7,1.1-9.9,2.2c-4,1.5-7.7,3.5-11,6.2c-6.1,4.9-10.4,10.9-13,18.3
							c-1.3,3.7-2,7.6-2.1,11.5c-0.3,8.4,1.8,16.2,6.4,23.3c2.3,3.6,5.2,6.7,8.5,9.4c4.6,3.7,9.7,6.2,15.3,7.6
							c2.7,0.7,5.4,1,8.1,1.1c0.5,0,1,0,1.6,0c5.1,0,10.1-0.9,14.8-2.9c3.6-1.5,7-3.4,10-5.9c3.2-2.6,6-5.6,8.3-9.1
							c3-4.6,5.1-9.5,6-14.9c0.3-1.8,0.5-3.6,0.6-5.4c0-0.2,0-0.3,0-0.5c0-0.9,0-1.8,0-2.7c-0.1-1.1-0.1-2.1-0.3-3.2
							c-0.5-4.4-1.7-8.6-3.6-12.6c-2.5-5.4-6.1-9.9-10.7-13.7s-9.7-6.4-15.5-7.9c-2.8-0.7-5.5-1.1-8.4-1.2
							C54.5,12.6,54.4,12.6,54.4,12.6L54.4,12.6z M60.9,57.9c-0.8,0-1.7-0.2-2.5-0.5c-1.3-0.5-1.8-1.5-2-2.9
							c-0.1-1.4,0.4-2.7,1.2-3.7c0.7-0.9,1.6-1.7,2.4-2.6c0.7-0.8,1.4-1.7,1.9-2.7c0.7-1.5,0.8-3,0.4-4.6c-0.5-1.9-1.3-3.6-2.7-5
							c-0.6-0.6-1.2-1.1-1.9-1.5c-1.5-1-2.3-2.3-2.3-4.1c0-1.7,1.1-3.1,2.6-3.4c0.2,0,0.4-0.1,0.5-0.1c0.8,0,1.5,0.4,2.1,1
							c1,1,1.7,2.2,2.3,3.5c1.1,2.2,1.9,4.4,2.6,6.7c0.8,2.8,1.7,5.6,2.5,8.5c0.2,0.7,0.3,1.5,0.4,2.2s0.2,1.5,0.2,2.2
							c0.1,1.6-0.6,2.8-1.7,3.9c-1.3,1.4-2.9,2.5-4.8,3C61.8,57.9,61.3,57.9,60.9,57.9L60.9,57.9z M45.1,57.9
							c-1.8,0-3.3-0.8-4.7-1.9c-0.7-0.6-1.4-1.3-2-2c-0.9-1-1-1.7-1-3.4c0-1.3,0.3-2.8,0.7-4.3c1.1-4.3,2.4-8.6,4-12.8
							c0.7-1.8,1.6-3.6,2.8-5.1c0.6-0.7,1.2-1.3,2.1-1.5c0.2-0.1,0.4-0.1,0.6-0.1c1.2,0,2.3,0.8,2.8,2c0.7,1.7,0,4-1.5,5.1
							c-0.6,0.4-1.2,0.8-1.8,1.3c-1.2,1-2,2.3-2.6,3.7c-0.5,1.2-0.9,2.4-0.9,3.7c0,1.6,0.5,3.1,1.5,4.3c0.8,1,1.8,2,2.7,3
							s1.7,2.2,1.9,3.6c0.2,1.3-0.1,2.5-1.1,3.4c-0.8,0.6-1.7,0.8-2.7,0.9C45.5,57.9,45.3,57.9,45.1,57.9L45.1,57.9z M77.1,50.7
							c-0.2,0-0.4-0.1-0.5-0.3c-0.4-0.5-0.6-1.2-0.7-1.9c-0.1-0.5-0.1-0.9-0.1-1.2c0-0.9,0-1.6,0.4-2.3c0.2-0.4,0.4-0.7,0.7-1
							c0.3-0.3,0.7-0.5,1.2-0.5c0.2,0,0.4,0,0.6,0.1c0.7,0.3,1.2,0.8,1.2,1.6c0.1,0.5,0,1-0.1,1.4c-0.3,1.3-0.8,2.4-1.6,3.5
							c-0.1,0.2-0.3,0.4-0.5,0.5C77.4,50.6,77.2,50.7,77.1,50.7L77.1,50.7z M28.9,50.7c-0.3,0-0.6-0.2-0.9-0.6
							c-0.8-1-1.3-2.2-1.7-3.5c-0.1-0.5-0.2-0.9-0.1-1.4c0.1-0.9,0.8-1.6,1.7-1.7H28c0.6,0,1.1,0.3,1.5,0.8c0.4,0.6,0.6,1.2,0.7,1.9
							c0,0.3,0,0.6,0.1,0.8c0,1-0.1,2-0.5,2.8C29.5,50.4,29.3,50.7,28.9,50.7L28.9,50.7z M22.8,49.1c0-0.4,0-0.8,0.1-1.2
							c0.1-0.3,0.3-0.6,0.6-0.8c0.2-0.2,0.4-0.3,0.6-0.3s0.4,0.1,0.7,0.2c0.5,0.4,0.8,0.9,0.9,1.5s0.1,1.3,0.1,1.9
							c0,0.6-0.4,0.9-0.8,0.9c-0.2,0-0.4-0.1-0.6-0.2c-0.2-0.1-0.3-0.2-0.4-0.3c0.1,0.4,0.2,0.8,0.2,1.2c0,0.5-0.2,0.8-0.6,0.8
							c-0.1,0-0.2,0-0.4-0.1c-0.2-0.1-0.4-0.2-0.7-0.4c0,0.1,0.1,0.2,0.1,0.2c0,0.1,0.1,0.3,0.1,0.4c0.2,0.8-0.1,1.3-0.8,1.3
							c-0.1,0-0.3,0-0.4-0.1c-0.8-0.2-1.3-0.8-1.5-1.5c-0.2-0.5,0.1-1.2,0.6-1.4c0.3-0.1,0.6-0.1,0.9-0.1c-0.1-0.2-0.2-0.5-0.3-0.8
							C21,49.6,21.4,49,22,48.7c0,0.2,0.1,0.2,0.2,0.2C22.4,48.9,22.6,49,22.8,49.1L22.8,49.1z M81.1,51.4c-0.3,0-0.5-0.2-0.6-0.5
							c-0.3-1.2-0.2-2.3,0.5-3.4c0.2-0.3,0.5-0.6,1-0.6c0.1,0,0.2,0,0.2,0c0.5,0.1,0.9,0.5,1,1c0.1,0.4,0.1,0.8,0.1,1.2
							c0.2-0.2,0.4-0.2,0.6-0.2s0.4,0.1,0.6,0.2c0.5,0.3,0.7,0.8,0.6,1.4c-0.1,0.3-0.2,0.6-0.3,0.9l0,0l0,0l0,0
							c0.1,0,0.3-0.1,0.4-0.1c0.7,0,1.2,0.6,1.1,1.4c-0.1,0.8-1,1.6-1.9,1.7c0,0,0,0-0.1,0c-0.6,0-0.9-0.3-0.9-0.9
							c0-0.3,0.1-0.7,0.2-1c-0.2,0.1-0.4,0.3-0.7,0.4c-0.1,0-0.2,0.1-0.3,0.1c-0.4,0-0.6-0.3-0.6-0.7s0.1-0.8,0.2-1.2
							c-0.2,0.1-0.5,0.3-0.8,0.4C81.3,51.4,81.2,51.4,81.1,51.4L81.1,51.4z M70.2,78.3c-0.3,0-0.6-0.1-0.9-0.2
							c-1-0.3-1.6-1.3-1.7-2.6c-0.1-1.5,1.2-3.4,3-3.6c0.8-0.1,1.6-0.3,2.5-0.4c1.1-0.2,2-0.7,2.8-1.7c0.6-0.8,1.3-1.6,1.7-2.5
							c0.6-1.5,0.5-2.9-0.2-4.3c-0.6-1.3-1.4-2.5-2-3.8c-0.4-0.8-0.8-1.6-1.1-2.4c-0.6-1.3-0.2-2.5,0.8-3.5c0.7-0.7,1.5-1.1,2.4-1.1
							c0.3,0,0.6,0.1,1,0.2c2.5,0.8,4.3,2.3,5.1,4.9c0.2,0.5,0.2,1.1,0.3,1.6c0,1.4-0.4,2.6-1,3.8c-1.3,3.1-3.1,5.9-5,8.7
							c-1.1,1.5-2.1,3-3.4,4.4c-0.7,0.7-1.4,1.5-2.3,2C71.3,78.1,70.8,78.3,70.2,78.3L70.2,78.3z M35.8,78.3c-0.4,0-0.9-0.1-1.3-0.3
							c-1.1-0.6-2-1.4-2.8-2.4c-3.2-3.7-5.8-7.7-7.9-12.1c-0.6-1.2-1-2.4-1.2-3.7c0-0.3,0-0.6-0.1-0.8c0-2.4,1.1-4.1,2.9-5.4
							c0.7-0.5,1.5-1,2.4-1.2c0.3-0.1,0.6-0.1,0.9-0.1c1,0,1.8,0.4,2.6,1.3c0.9,1,1.1,2.1,0.6,3.3c-0.5,1.3-1.2,2.5-1.8,3.7
							c-0.4,0.8-0.9,1.5-1.3,2.3c-1.1,2.2-0.8,4.2,0.6,6.1c0.3,0.4,0.7,0.8,1,1.2c0.8,0.9,1.8,1.2,2.9,1.4c0.7,0.1,1.4,0.3,2,0.3
							c1.7,0.1,3.2,2.1,2.9,4c-0.2,1-0.6,1.8-1.6,2.1C36.5,78.2,36.1,78.3,35.8,78.3L35.8,78.3z M66.6,58.8c0-0.4,0-0.7,0-1
							c0.1-0.7,0.3-1,0.7-1c0.2,0,0.4,0.1,0.7,0.2c1,0.6,1.7,2,1.4,3.1c-0.1,0.2-0.2,0.5-0.4,0.7c-0.2,0.2-0.4,0.4-0.7,0.4
							c-0.2,0-0.4-0.1-0.7-0.2c0,0.2,0,0.3,0,0.4c0.1,0.6,0,1.1-0.3,1.6c-0.3,0.4-0.6,0.6-1.1,0.6c-0.3,0-0.6-0.1-1-0.4
							c0,0.3-0.1,0.6-0.1,0.9c-0.2,0.7-0.8,1.2-1.5,1.2l0,0c-0.4,0-0.7-0.2-0.9-0.5c-0.5-0.9-0.7-1.9-0.7-2.9c0-0.5,0.2-1.1,0.3-1.6
							v-0.1c0.2-0.6,0.5-0.8,0.9-0.8c0.3,0,0.6,0.2,0.9,0.5c0.1,0.1,0.2,0.3,0.4,0.4c0.1-0.4,0.1-0.7,0.2-1.1
							c0.1-0.6,0.4-0.9,0.8-0.9c0.2,0,0.5,0.1,0.8,0.3C66.3,58.5,66.5,58.7,66.6,58.8L66.6,58.8z M37.7,61.1c-0.2,0-0.4-0.1-0.6-0.2
							c-0.4-0.3-0.7-0.8-0.6-1.4c0.1-1.1,0.5-2,1.5-2.6c0.2-0.1,0.4-0.2,0.6-0.2c0.1,0,0.1,0,0.2,0c0.4,0,0.6,0.2,0.6,0.6
							c0.1,0.5,0.1,0.9,0.1,1.4c0.1-0.1,0.3-0.3,0.5-0.4c0.2-0.1,0.4-0.2,0.6-0.2c0.4,0,0.7,0.2,0.8,0.7c0.1,0.4,0.1,0.8,0.2,1.2
							c0.2-0.2,0.4-0.4,0.6-0.6c0.2-0.2,0.4-0.3,0.6-0.3c0.3,0,0.5,0.2,0.7,0.5c0.3,0.5,0.4,1.1,0.5,1.6c0.2,1,0,2-0.4,2.9
							c-0.3,0.7-0.7,1.1-1.2,1.1c-0.1,0-0.1,0-0.2,0c-0.8-0.1-1.3-0.7-1.4-1.5c0-0.2,0-0.4,0-0.6c-0.4,0.3-0.8,0.4-1,0.4
							c-0.3,0-0.5-0.1-0.7-0.3c-0.6-0.5-0.7-1.1-0.7-1.8c0-0.2,0-0.4,0.1-0.6C38.2,61.1,37.9,61.1,37.7,61.1L37.7,61.1z M47.4,67.6
							c-0.8,0-1.4-0.3-1.8-1.1c-0.3-0.5-0.5-1.1-0.5-1.7c0-1.6,0.3-3.1,0.9-4.6c0.1-0.2,0.2-0.5,0.4-0.6c0.2-0.2,0.3-0.3,0.5-0.3
							c0.1,0,0.3,0.1,0.4,0.2c0.4,0.3,0.7,0.7,1,1.2c0.7,1.2,1.3,2.4,1.4,3.8c0,0.1,0,0.2,0,0.3c0,0,0,0,0.1,0
							c-0.1,0.5-0.2,1-0.3,1.5c-0.3,0.8-0.8,1.3-1.7,1.4C47.6,67.6,47.5,67.6,47.4,67.6L47.4,67.6z M58.7,67.6c-1,0-1.9-0.7-2.2-1.8
							c-0.1-0.4-0.1-0.9-0.2-1.3c0-1.2,0.5-2.2,1-3.2c0.3-0.6,0.7-1.1,1-1.6l0.1-0.1c0.3-0.3,0.6-0.5,0.8-0.5c0.3,0,0.5,0.2,0.8,0.7
							c0.4,0.8,0.7,1.7,0.8,2.7c0.2,0.9,0.3,1.8,0.1,2.7c-0.1,0.8-0.4,1.5-1,2C59.5,67.5,59.1,67.6,58.7,67.6L58.7,67.6z"/>
					</g>
				</g>
			</g>
		</g>
	</g>
</g>
</svg>
