<?xml version="1.0" encoding="utf-8"?>
<!-- Generator: Adobe Illustrator 21.0.0, SVG Export Plug-In . SVG Version: 6.00 Build 0)  -->
<svg version="1.1" id="Layer_1" xmlns="http://www.w3.org/2000/svg" xmlns:xlink="http://www.w3.org/1999/xlink" x="0px" y="0px"
	 viewBox="0 0 109.1 109.2" style="enable-background:new 0 0 109.1 109.2;" xml:space="preserve">
<style type="text/css">
	.st0{fill:#FF6969;}
	.st1{fill:none;stroke:#000000;stroke-width:3;stroke-miterlimit:10;}
	.st2{opacity:0.75;}
	.st3{fill:#AD4B4B;}
	.st4{fill:#5B5B5B;}
</style>
<g>
	<g>
		<rect x="3.5" y="3.6" class="st0" width="102" height="102"/>
		<rect x="3.5" y="3.6" class="st1" width="102" height="102"/>
	</g>
	<g id="Ir1DM7.tif_3_">
		<g class="st2">
			<path class="st3" d="M52.1,96.5c-0.5,0-1,0-1.5,0c-2.7-0.1-5.4-0.5-7.9-1.1c-5.6-1.4-10.6-3.9-15-7.4c-3.3-2.6-6.1-5.7-8.3-9.1
				C15,72,12.8,64.3,13.1,56.1c0.1-3.8,0.8-7.6,2.1-11.2c2.5-7.1,6.7-13.1,12.7-17.8c3.2-2.6,6.8-4.6,10.8-6
				c3.1-1.1,6.4-1.9,9.6-2.2c0.6-0.1,1.1-0.1,1.7-0.1l0.8-0.1h2.6c0.1,0,0.2,0,0.3,0c2.8,0.1,5.5,0.5,8.2,1.2
				c5.6,1.4,10.6,4,15.1,7.7c4.4,3.7,7.9,8.2,10.4,13.4c1.8,3.9,3,8,3.5,12.3c0.1,0.7,0.1,1.4,0.2,2.1l0.1,1v2.5V59
				c0,0.1,0,0.3,0,0.4c-0.1,1.7-0.3,3.4-0.6,5.3c-0.9,5.2-2.9,10.1-5.9,14.5c-2.2,3.3-4.9,6.3-8.1,8.8c-3,2.4-6.3,4.3-9.8,5.7
				C61.9,95.6,57,96.5,52.1,96.5z M21.6,60.3c-0.7,1.1-1,2.4-1,3.8v0.3c0,0.2,0,0.4,0.1,0.6c0.2,1.5,0.7,2.9,1.3,4
				c2.1,4.4,4.8,8.5,8,12.3c0.7,0.8,1.7,1.9,3.2,2.6c0.6,0.3,1.1,0.4,1.7,0.4l0,0c0.5,0,0.9-0.1,1.4-0.3c1.8-0.7,2.1-2.3,2.2-2.9
				c0.2-1.2-0.1-2.4-0.9-3.5c-0.8-1-1.8-1.6-2.9-1.7c-0.6,0-1.2-0.2-1.9-0.3c-1.1-0.2-1.8-0.5-2.4-1.1L30,74.1
				c-0.2-0.2-0.4-0.5-0.6-0.8c-1.3-1.6-1.4-3.3-0.5-5.1c0.3-0.6,0.7-1.3,1-1.9l0.5-0.9c0.6-1.1,1.2-2.1,1.6-3.4
				c0.6-1.6,0.3-3.1-0.8-4.3c-0.7-0.7-1.4-1.2-2.2-1.5c0.3-0.2,0.6-0.6,0.8-1.1c0.5-1.1,0.6-2.2,0.6-3.2v-0.3c0-0.2,0-0.4,0-0.7
				c-0.1-1-0.4-1.8-0.9-2.4c-0.8-1-1.7-1.2-2.3-1.2c-0.1,0-0.1,0-0.2,0c-1.3,0.1-2.5,1.2-2.6,2.6c0,0.4,0,0.8,0.1,1.3l0,0
				c-0.6-0.1-1-0.2-1.5-0.2s-0.9,0.2-1.3,0.5c-0.2,0.2-0.7,0.7-0.8,1.3c0,0.1,0,0.2-0.1,0.2s-0.3,0.1-0.4,0.1
				c-1,0.5-1.5,1.4-1.4,2.4c-0.9,0.4-1.4,1.6-1.1,2.6c0.4,1.1,1.1,1.9,2.2,2.2c0.2,0.1,0.5,0.1,0.7,0.1
				C21.1,60.4,21.4,60.4,21.6,60.3z M75.2,56.5c-0.7,0.2-1.4,0.6-2,1.3c-1.6,1.7-1.4,3.5-1,4.6c0.4,0.9,0.8,1.8,1.2,2.5
				c0.3,0.6,0.6,1.2,0.9,1.7c0.4,0.7,0.8,1.3,1.1,2c0.6,1.1,0.6,2.3,0.2,3.5c-0.3,0.7-0.7,1.3-1.3,1.9L74,74.4
				c-0.5,0.7-1.2,1.1-2.2,1.3l-0.3,0.1c-0.7,0.1-1.4,0.3-2,0.3c-2.4,0.2-4,2.7-3.9,4.6c0.1,1.7,1,3,2.4,3.4c0.4,0.1,0.8,0.2,1.2,0.2
				l0,0c0.7,0,1.4-0.2,2.1-0.6c1-0.6,1.9-1.4,2.5-2.2c1.4-1.4,2.5-3.1,3.5-4.5c2.3-3.3,3.9-6.1,5.1-8.9c0.7-1.6,1-2.9,1-4.2v-0.1
				v-0.1c0-0.2,0-0.3-0.1-0.5c0-0.4-0.1-0.8-0.2-1.3c-0.2-0.7-0.5-1.3-0.8-1.8c0.2,0.1,0.5,0.1,0.8,0.1h0.1c1.3,0,2.6-1.2,2.8-2.5
				c0.1-0.7-0.1-1.3-0.5-1.8c-0.2-0.2-0.4-0.4-0.7-0.5c0.1-0.9-0.2-1.7-1-2.2c-0.3-0.2-0.5-0.3-0.8-0.4c0-0.1,0-0.1,0-0.2
				c-0.2-0.9-0.9-1.6-1.8-1.8C81.3,51,81.1,51,81,51c-0.3,0-0.8,0.1-1.2,0.4c0.1-0.4,0.1-0.9,0-1.3c-0.1-1.1-0.8-2-1.9-2.4
				c-0.3-0.1-0.6-0.2-0.9-0.2c-0.7,0-1.3,0.3-1.9,0.8c-0.3,0.3-0.6,0.8-0.9,1.3c-0.4,0.8-0.5,1.7-0.5,2.7v0.4c0,0.3,0.1,0.7,0.1,1
				c0.1,0.7,0.3,1.6,0.9,2.3C74.9,56.3,75,56.4,75.2,56.5z M57.4,63.6c-0.3,0.2-0.6,0.5-0.7,0.6c-0.1,0.1-0.1,0.2-0.2,0.2
				c-0.1,0.2-0.2,0.3-0.3,0.5c-0.3,0.4-0.5,0.8-0.8,1.2c-0.6,1.1-1.1,2.2-1.1,3.6v0.1l0.1,0.5c0,0.3,0.1,0.7,0.2,1
				c0.4,1.5,1.7,2.6,3.2,2.6l0,0c0.7,0,1.3-0.2,1.8-0.6c1-0.7,1.3-1.8,1.4-2.6v-0.1c0.4,0.6,1,0.9,1.7,0.9c1.1,0,2.1-0.7,2.4-1.7
				c0.1,0,0.2,0,0.2,0c0.8,0,1.4-0.4,1.9-1.1c0.3-0.4,0.4-0.9,0.5-1.4c0.4-0.1,0.8-0.2,1.1-0.7c0.2-0.2,0.4-0.6,0.6-1.1
				c0.4-1.5-0.4-3.4-1.9-4.2c-0.4-0.2-0.7-0.3-1.1-0.3c0.1-0.1,0.2-0.2,0.3-0.3c0.9-1,2.1-2.5,1.9-4.7l-0.1-0.7
				c-0.1-0.5-0.1-1.1-0.2-1.6c-0.1-0.7-0.2-1.5-0.5-2.3c-0.9-3.2-1.7-5.9-2.5-8.5c-0.8-2.8-1.7-5-2.7-6.9c-0.6-1.3-1.4-2.6-2.5-3.7
				c-0.8-0.8-1.8-1.3-2.8-1.3c-0.2,0-0.5,0-0.7,0.1c-2,0.4-3.4,2.2-3.4,4.4c0,2.1,0.9,3.8,2.8,4.9c0.6,0.4,1.2,0.8,1.7,1.4
				c1.1,1.2,1.9,2.7,2.4,4.6c0.4,1.3,0.2,2.7-0.3,3.9c-0.4,0.8-0.9,1.6-1.7,2.5c-0.3,0.3-0.5,0.6-0.8,0.9c-0.5,0.6-1.1,1.2-1.6,1.8
				c-1.1,1.4-1.6,2.9-1.4,4.4c0.1,1.8,1,3.1,2.6,3.7C57.1,63.5,57.3,63.5,57.4,63.6z M43.1,70.5c0.1,0.6,0.3,1.1,0.6,1.6
				c0.6,1,1.5,1.6,2.7,1.6c0.2,0,0.3,0,0.5,0c1.2-0.2,2.1-0.9,2.5-2.1c0.1-0.4,0.2-0.8,0.3-1.2c0-0.2,0.1-0.3,0.1-0.5l0.2-1
				l-0.3-0.1c-0.2-1.6-0.9-2.8-1.5-3.8c-0.3-0.5-0.7-0.9-1.2-1.4c-0.1-0.1-0.2-0.1-0.2-0.2c0.5-0.2,1-0.4,1.4-0.8
				c1.2-1,1.7-2.4,1.5-4.3c-0.2-1.8-1.2-3.1-2.1-4.1c-0.3-0.4-0.7-0.7-1-1.1c-0.6-0.6-1.1-1.2-1.6-1.9c-0.9-1.1-1.3-2.4-1.3-3.7
				c0-1,0.3-2.1,0.8-3.3c0.6-1.2,1.2-2.5,2.4-3.3c0.3-0.2,0.6-0.5,1-0.7c0.3-0.2,0.5-0.4,0.8-0.6c1.9-1.4,2.7-4.1,1.8-6.3
				c-0.6-1.6-2.1-2.7-3.7-2.7c-0.3,0-0.6,0-0.9,0.1c-1.3,0.3-2.2,1.2-2.7,1.9c-1.2,1.5-2.2,3.3-3,5.4c-1.5,3.9-2.8,8.1-4,12.9
				c-0.4,1.7-0.7,3.2-0.7,4.5c0,1.9,0.2,2.8,1.3,4.1c0.3,0.4,0.7,0.8,1,1.1c-0.1,0-0.1,0-0.2,0c-0.3,0-0.7,0.2-1,0.3
				c-1.2,0.7-1.9,1.9-2,3.4c0,0.9,0.3,1.7,1,2.2c0.2,0.2,0.5,0.3,0.8,0.4c0.1,0.8,0.4,1.5,1,2c0.4,0.4,0.9,0.5,1.4,0.5
				c0.1,0,0.2,0,0.2,0c0.3,0.9,1.1,1.5,2.1,1.7c0.1,0,0.2,0,0.3,0C41.8,71.4,42.5,71.3,43.1,70.5z M43.8,65.4
				c-0.1-0.4-0.2-0.7-0.4-1.1c-0.1-0.2-0.2-0.3-0.3-0.4c0.3,0,0.6,0.1,1,0.1c0.2,0,0.3,0,0.5,0c-0.2,0.3-0.4,0.6-0.5,0.9
				C44,65,43.9,65.2,43.8,65.4z M60.3,65.4c-0.1-0.3-0.2-0.6-0.4-0.8c-0.1-0.2-0.2-0.4-0.4-0.6c0.1,0,0.2,0,0.4,0l0,0
				c0.4,0,0.7,0,1.1-0.1c-0.2,0.2-0.4,0.5-0.6,0.9c0,0.1-0.1,0.2-0.1,0.3C60.3,65.2,60.3,65.3,60.3,65.4z M62.7,63.4L62.7,63.4
				C62.8,63.4,62.8,63.4,62.7,63.4C62.8,63.4,62.7,63.4,62.7,63.4z M41.2,63.4C41.3,63.4,41.3,63.4,41.2,63.4
				C41.3,63.4,41.3,63.4,41.2,63.4C41.3,63.4,41.3,63.4,41.2,63.4z M23.9,57.8c0-0.1,0.1-0.2,0.1-0.3c0.9-0.1,1.6-0.8,1.7-1.8
				c0-0.2,0-0.4,0-0.7c0.2,0.3,0.4,0.5,0.6,0.8c0.1,0.1,0.3,0.4,0.7,0.7c-0.1,0-0.2,0-0.2,0C25.8,56.7,24.9,57.1,23.9,57.8z
				 M80.1,57.8c-0.2-0.2-0.5-0.3-0.7-0.4c0.2,0.1,0.4,0.2,0.7,0.2C80.1,57.6,80.1,57.7,80.1,57.8z M79.3,57.3
				c-0.5-0.3-1.1-0.5-1.8-0.7c-0.1,0-0.3-0.1-0.4-0.1l0,0c0.3-0.2,0.5-0.4,0.7-0.7c0.2-0.2,0.3-0.4,0.5-0.7c0,0.4,0.1,0.8,0.2,1.1
				C78.6,56.7,78.9,57.1,79.3,57.3z"/>
			<path class="st3" d="M53.2,19.7c0.1,0,0.2,0,0.3,0c2.7,0.1,5.4,0.5,8,1.2c5.4,1.4,10.4,3.9,14.7,7.5c4.3,3.6,7.7,8,10.1,13
				c1.8,3.8,2.9,7.8,3.4,11.9c0.1,0.7,0.1,1.4,0.2,2.1c0,0.3,0,0.6,0.1,0.9v2.5l0,0c0,0.2,0,0.3,0,0.5c-0.1,1.6-0.2,3.3-0.6,5.1
				c-0.9,5.1-2.9,9.8-5.7,14.2c-2.2,3.2-4.8,6.1-7.9,8.6c-2.9,2.3-6.1,4.2-9.5,5.6c-4.5,1.8-9.2,2.7-14.1,2.7c-0.5,0-1,0-1.5,0
				c-2.6-0.1-5.2-0.5-7.7-1.1c-5.4-1.3-10.3-3.8-14.6-7.2c-3.2-2.6-5.9-5.6-8.1-8.9c-4.3-6.7-6.4-14.2-6.1-22.2
				c0.1-3.7,0.8-7.4,2-10.9c2.4-6.9,6.6-12.8,12.3-17.4c3.1-2.5,6.6-4.5,10.5-5.9c3-1.1,6.2-1.8,9.4-2.1c0.5-0.1,1.1-0.1,1.6-0.1
				l0.7-0.1h2.5 M55.7,63.8C55.6,63.8,55.6,63.8,55.7,63.8c-0.1,0.2-0.2,0.3-0.3,0.5c-0.3,0.4-0.6,0.8-0.8,1.3
				c-0.6,1.2-1.2,2.5-1.2,4v0.2V70c0,0.1,0,0.2,0,0.4c0,0.3,0.1,0.7,0.2,1.1c0.5,2,2.2,3.3,4.1,3.3c0.9,0,1.7-0.3,2.4-0.8
				s1.1-1.2,1.4-1.8c0.4,0.2,0.8,0.2,1.2,0.2l0,0c1.3,0,2.4-0.7,3-1.8c0.9-0.1,1.7-0.7,2.3-1.5c0.2-0.4,0.4-0.8,0.5-1.2
				c0.3-0.2,0.7-0.4,1-0.8c0.3-0.3,0.6-0.8,0.8-1.4c0.5-1.9-0.4-4.2-2.2-5.3c0.9-1.1,1.7-2.6,1.5-4.7l0,0l0,0c0-0.2,0-0.4-0.1-0.7
				c-0.1-0.5-0.1-1.1-0.2-1.6c-0.1-0.8-0.3-1.6-0.5-2.4c-0.9-3.2-1.7-5.9-2.5-8.5c-0.9-2.9-1.7-5.1-2.8-7.1
				c-0.7-1.3-1.5-2.7-2.7-3.9c-1-1-2.2-1.6-3.5-1.6c-0.3,0-0.6,0-0.9,0.1c-2.5,0.5-4.2,2.7-4.2,5.4c0,2.4,1.1,4.4,3.2,5.8
				c0.5,0.3,1.1,0.8,1.6,1.2c1,1.1,1.7,2.4,2.2,4.2c0.3,1.1,0.2,2.2-0.3,3.2c-0.3,0.7-0.8,1.4-1.6,2.2c-0.3,0.3-0.5,0.6-0.8,0.8
				c-0.5,0.6-1.1,1.2-1.6,1.9c-1.2,1.5-1.8,3.3-1.6,5.2C53.6,61.5,54.4,62.9,55.7,63.8 M35.9,60.4c-1.4,0.9-2.3,2.4-2.4,4.1
				c-0.1,1.2,0.5,2.3,1.4,3.1c0.2,0.1,0.3,0.2,0.5,0.3c0.2,1,0.8,1.6,1.2,2c0.5,0.4,1,0.7,1.6,0.7c0.5,0.9,1.4,1.5,2.6,1.7
				c0.2,0,0.3,0,0.5,0c0.3,0,0.7,0,1.2-0.2c0.1,0.2,0.1,0.3,0.2,0.4c0.8,1.4,2,2.1,3.6,2.1c0.2,0,0.4,0,0.6,0
				c1.6-0.2,2.9-1.2,3.4-2.8c0.1-0.5,0.2-0.9,0.3-1.3c0-0.1,0.1-0.3,0.1-0.4l0.4-1.9l-0.6-0.1c-0.3-1.5-1-2.7-1.6-3.5
				c-0.2-0.3-0.4-0.5-0.6-0.8c0.1-0.1,0.2-0.2,0.3-0.2c1.5-1.2,2.1-3,1.9-5.2c-0.2-2.1-1.4-3.6-2.3-4.7c-0.3-0.4-0.7-0.7-1-1.1
				c-0.6-0.6-1.1-1.2-1.6-1.8c-0.7-0.9-1.1-1.9-1.1-3.1c0-0.9,0.2-1.8,0.8-2.9c0.5-1.1,1.1-2.2,2.1-3c0.3-0.2,0.6-0.4,0.9-0.6
				c0.3-0.2,0.6-0.4,0.8-0.6c2.2-1.7,3.2-4.9,2.2-7.4c-0.8-2-2.6-3.3-4.7-3.3c-0.4,0-0.7,0-1.1,0.1c-1.6,0.4-2.6,1.5-3.2,2.2
				c-1.2,1.6-2.3,3.4-3.1,5.6c-1.5,3.9-2.8,8.1-4.1,13c-0.4,1.7-0.7,3.3-0.7,4.7l0,0l0,0C34.4,57.7,34.6,58.9,35.9,60.4L35.9,60.4
				 M73.6,56.1c-0.4,0.3-0.8,0.6-1.2,1c-1.6,1.7-2,3.7-1.2,5.6c0.4,1,0.8,1.8,1.2,2.6c0.3,0.6,0.6,1.2,1,1.7c0.4,0.7,0.7,1.3,1.1,2
				c0.4,0.9,0.5,1.8,0.1,2.7c-0.2,0.5-0.6,1.1-1.1,1.7l-0.3,0.3c-0.4,0.5-0.9,0.8-1.6,0.9l-0.3,0.1C70.6,74.8,70,75,69.4,75
				c-3,0.2-5,3.2-4.8,5.7c0.2,2.1,1.3,3.7,3.1,4.3c0.5,0.2,1,0.3,1.6,0.3c0.9,0,1.8-0.3,2.6-0.7c1.1-0.7,2-1.6,2.8-2.3
				c1.4-1.5,2.6-3.2,3.6-4.6c2.3-3.3,4-6.2,5.2-9c0.5-1.1,1.1-2.7,1.1-4.6v-0.2v-0.2c0-0.1,0-0.3-0.1-0.4c-0.1-0.4-0.1-0.9-0.3-1.4
				c0-0.2-0.1-0.3-0.2-0.5c1.6-0.3,2.9-1.7,3.1-3.3c0.1-0.9-0.1-1.9-0.7-2.6c-0.1-0.2-0.3-0.3-0.4-0.4c-0.1-1-0.5-1.9-1.4-2.5
				c-0.2-0.1-0.4-0.2-0.6-0.3c-0.4-1.1-1.3-1.9-2.4-2.2C81.4,50,81.2,50,81,50c0,0-0.1,0-0.2,0c-0.2-1.5-1.1-2.6-2.5-3.2
				c-0.4-0.2-0.9-0.2-1.3-0.2c-0.9,0-1.8,0.4-2.6,1.1c-0.4,0.4-0.8,0.9-1.1,1.6c-0.5,1-0.6,2.1-0.6,3.2v0.1v0.1v0.2
				c0,0.3,0.1,0.7,0.1,1.1C73,54.6,73.2,55.4,73.6,56.1 M23.3,50c-0.1,0-0.1,0-0.2,0c-0.7,0-1.4,0.3-2,0.8c-0.3,0.3-0.8,0.8-1,1.4
				l0,0c-1.2,0.5-1.9,1.6-2,2.8c-1,0.8-1.5,2.2-1.1,3.4c0.5,1.5,1.5,2.5,2.9,2.8c0.1,0,0.1,0,0.2,0c-0.3,0.9-0.4,1.8-0.5,2.7V64v0.1
				v0.2c0,0.2,0,0.4,0.1,0.7c0.2,1.7,0.8,3.2,1.3,4.3c2.1,4.5,4.9,8.7,8.2,12.6c0.7,0.8,1.9,2.1,3.5,2.9c0.7,0.4,1.4,0.5,2.2,0.5
				c0.6,0,1.2-0.1,1.7-0.3c1.5-0.6,2.5-1.8,2.8-3.6c0.3-1.5-0.1-3-1.1-4.3c-0.9-1.2-2.3-2-3.6-2.1c-0.5,0-1.1-0.2-1.8-0.3
				c-0.9-0.2-1.5-0.4-1.8-0.8c-0.1-0.2-0.3-0.3-0.4-0.5c-0.2-0.2-0.4-0.5-0.6-0.7c-1-1.3-1.2-2.6-0.4-4c0.3-0.6,0.6-1.2,1-1.8
				l0.2-0.4l0.3-0.5c0.6-1.1,1.3-2.2,1.7-3.5c0.7-1.9,0.3-3.8-1-5.3c-0.5-0.5-0.9-0.9-1.4-1.2c0-0.1,0.1-0.2,0.1-0.3
				c0.6-1.3,0.7-2.5,0.7-3.7v-0.1v-0.1v-0.2c0-0.2,0-0.5-0.1-0.7c-0.1-1.2-0.5-2.1-1.1-2.9c-1-1.3-2.3-1.6-3.1-1.6
				c-0.1,0-0.2,0-0.3,0C25,46.7,23.5,48.2,23.3,50 M53.4,17.7c-0.9,0-1.8,0-2.7,0c-0.8,0.1-1.6,0.1-2.5,0.2
				c-3.4,0.3-6.7,1.1-9.9,2.2c-4,1.5-7.7,3.5-11,6.2c-6.1,4.9-10.4,10.9-13,18.3c-1.3,3.7-2,7.6-2.1,11.5
				c-0.3,8.4,1.8,16.2,6.4,23.3c2.3,3.6,5.2,6.7,8.5,9.4c4.6,3.7,9.7,6.2,15.3,7.6c2.7,0.7,5.4,1,8.1,1.1c0.5,0,1,0,1.6,0
				c5.1,0,10.1-0.9,14.8-2.9c3.6-1.5,7-3.4,10-5.9c3.2-2.6,6-5.6,8.3-9.1c3-4.6,5.1-9.5,6-14.9c0.3-1.8,0.5-3.6,0.6-5.4
				c0-0.2,0-0.3,0-0.5c0-0.9,0-1.8,0-2.7c-0.1-1.1-0.1-2.1-0.3-3.2c-0.5-4.4-1.7-8.6-3.6-12.6c-2.5-5.4-6.1-9.9-10.7-13.7
				s-9.7-6.4-15.5-7.9c-2.8-0.7-5.5-1.1-8.4-1.2C53.5,17.7,53.4,17.7,53.4,17.7L53.4,17.7z M59.9,63c-0.8,0-1.7-0.2-2.5-0.5
				c-1.3-0.5-1.8-1.5-2-2.9c-0.1-1.4,0.4-2.7,1.2-3.7c0.7-0.9,1.6-1.7,2.4-2.6c0.7-0.8,1.4-1.7,1.9-2.7c0.7-1.5,0.8-3,0.4-4.6
				c-0.5-1.9-1.3-3.6-2.7-5c-0.6-0.6-1.2-1.1-1.9-1.5c-1.5-1-2.3-2.3-2.3-4.1c0-1.7,1.1-3.1,2.6-3.4c0.2,0,0.4-0.1,0.5-0.1
				c0.8,0,1.5,0.4,2.1,1c1,1,1.7,2.2,2.3,3.5c1.1,2.2,1.9,4.4,2.6,6.7c0.8,2.8,1.7,5.6,2.5,8.5c0.2,0.7,0.3,1.5,0.4,2.2
				s0.2,1.5,0.2,2.2c0.1,1.6-0.6,2.8-1.7,3.9c-1.3,1.4-2.9,2.5-4.8,3C60.8,63,60.3,63,59.9,63L59.9,63z M44.1,63
				c-1.8,0-3.3-0.8-4.7-1.9c-0.7-0.6-1.4-1.3-2-2c-0.9-1-1-1.7-1-3.4c0-1.3,0.3-2.8,0.7-4.3c1.1-4.3,2.4-8.6,4-12.8
				c0.7-1.8,1.6-3.6,2.8-5.1c0.6-0.7,1.2-1.3,2.1-1.5c0.2-0.1,0.4-0.1,0.6-0.1c1.2,0,2.3,0.8,2.8,2c0.7,1.7,0,4-1.5,5.1
				c-0.6,0.4-1.2,0.8-1.8,1.3c-1.2,1-2,2.3-2.6,3.7c-0.5,1.2-0.9,2.4-0.9,3.7c0,1.6,0.5,3.1,1.5,4.3c0.8,1,1.8,2,2.7,3
				s1.7,2.2,1.9,3.6c0.2,1.3-0.1,2.5-1.1,3.4c-0.8,0.6-1.7,0.8-2.7,0.9C44.5,63,44.3,63,44.1,63L44.1,63z M76.1,55.8
				c-0.2,0-0.4-0.1-0.5-0.3c-0.4-0.5-0.6-1.2-0.7-1.9c-0.1-0.5-0.1-0.9-0.1-1.2c0-0.9,0-1.6,0.4-2.3c0.2-0.4,0.4-0.7,0.7-1
				c0.3-0.3,0.7-0.5,1.2-0.5c0.2,0,0.4,0,0.6,0.1c0.7,0.3,1.2,0.8,1.2,1.6c0.1,0.5,0,1-0.1,1.4c-0.3,1.3-0.8,2.4-1.6,3.5
				c-0.1,0.2-0.3,0.4-0.5,0.5C76.4,55.7,76.2,55.8,76.1,55.8L76.1,55.8z M27.9,55.8c-0.3,0-0.6-0.2-0.9-0.6c-0.8-1-1.3-2.2-1.7-3.5
				c-0.1-0.5-0.2-0.9-0.1-1.4c0.1-0.9,0.8-1.6,1.7-1.7H27c0.6,0,1.1,0.3,1.5,0.8c0.4,0.6,0.6,1.2,0.7,1.9c0,0.3,0,0.6,0.1,0.8
				c0,1-0.1,2-0.5,2.8C28.5,55.5,28.3,55.8,27.9,55.8L27.9,55.8z M21.8,54.2c0-0.4,0-0.8,0.1-1.2c0.1-0.3,0.3-0.6,0.6-0.8
				c0.2-0.2,0.4-0.3,0.6-0.3s0.4,0.1,0.7,0.2c0.5,0.4,0.8,0.9,0.9,1.5s0.1,1.3,0.1,1.9c0,0.6-0.4,0.9-0.8,0.9
				c-0.2,0-0.4-0.1-0.6-0.2c-0.2-0.1-0.3-0.2-0.4-0.3c0.1,0.4,0.2,0.8,0.2,1.2c0,0.5-0.2,0.8-0.6,0.8c-0.1,0-0.2,0-0.4-0.1
				c-0.2-0.1-0.4-0.2-0.7-0.4c0,0.1,0.1,0.2,0.1,0.2c0,0.1,0.1,0.3,0.1,0.4c0.2,0.8-0.1,1.3-0.8,1.3c-0.1,0-0.3,0-0.4-0.1
				c-0.8-0.2-1.3-0.8-1.5-1.5c-0.2-0.5,0.1-1.2,0.6-1.4c0.3-0.1,0.6-0.1,0.9-0.1c-0.1-0.2-0.2-0.5-0.3-0.8c-0.2-0.7,0.2-1.3,0.8-1.6
				c0,0.2,0.1,0.2,0.2,0.2C21.4,54,21.6,54.1,21.8,54.2L21.8,54.2z M80.1,56.5c-0.3,0-0.5-0.2-0.6-0.5c-0.3-1.2-0.2-2.3,0.5-3.4
				c0.2-0.3,0.5-0.6,1-0.6c0.1,0,0.2,0,0.2,0c0.5,0.1,0.9,0.5,1,1c0.1,0.4,0.1,0.8,0.1,1.2c0.2-0.2,0.4-0.2,0.6-0.2s0.4,0.1,0.6,0.2
				c0.5,0.3,0.7,0.8,0.6,1.4c-0.1,0.3-0.2,0.6-0.3,0.9l0,0l0,0l0,0c0.1,0,0.3-0.1,0.4-0.1c0.7,0,1.2,0.6,1.1,1.4
				c-0.1,0.8-1,1.6-1.9,1.7c0,0,0,0-0.1,0c-0.6,0-0.9-0.3-0.9-0.9c0-0.3,0.1-0.7,0.2-1c-0.2,0.1-0.4,0.3-0.7,0.4
				c-0.1,0-0.2,0.1-0.3,0.1c-0.4,0-0.6-0.3-0.6-0.7s0.1-0.8,0.2-1.2c-0.2,0.1-0.5,0.3-0.8,0.4C80.3,56.5,80.2,56.5,80.1,56.5
				L80.1,56.5z M69.2,83.4c-0.3,0-0.6-0.1-0.9-0.2c-1-0.3-1.6-1.3-1.7-2.6c-0.1-1.5,1.2-3.4,3-3.6c0.8-0.1,1.6-0.3,2.5-0.4
				c1.1-0.2,2-0.7,2.8-1.7c0.6-0.8,1.3-1.6,1.7-2.5c0.6-1.5,0.5-2.9-0.2-4.3c-0.6-1.3-1.4-2.5-2-3.8c-0.4-0.8-0.8-1.6-1.1-2.4
				c-0.6-1.3-0.2-2.5,0.8-3.5c0.7-0.7,1.5-1.1,2.4-1.1c0.3,0,0.6,0.1,1,0.2c2.5,0.8,4.3,2.3,5.1,4.9c0.2,0.5,0.2,1.1,0.3,1.6
				c0,1.4-0.4,2.6-1,3.8c-1.3,3.1-3.1,5.9-5,8.7c-1.1,1.5-2.1,3-3.4,4.4c-0.7,0.7-1.4,1.5-2.3,2C70.3,83.2,69.8,83.4,69.2,83.4
				L69.2,83.4z M34.8,83.4c-0.4,0-0.9-0.1-1.3-0.3c-1.1-0.6-2-1.4-2.8-2.4c-3.2-3.7-5.8-7.7-7.9-12.1c-0.6-1.2-1-2.4-1.2-3.7
				c0-0.3,0-0.6-0.1-0.8c0-2.4,1.1-4.1,2.9-5.4c0.7-0.5,1.5-1,2.4-1.2c0.3-0.1,0.6-0.1,0.9-0.1c1,0,1.8,0.4,2.6,1.3
				c0.9,1,1.1,2.1,0.6,3.3c-0.5,1.3-1.2,2.5-1.8,3.7c-0.4,0.8-0.9,1.5-1.3,2.3c-1.1,2.2-0.8,4.2,0.6,6.1c0.3,0.4,0.7,0.8,1,1.2
				c0.8,0.9,1.8,1.2,2.9,1.4c0.7,0.1,1.4,0.3,2,0.3c1.7,0.1,3.2,2.1,2.9,4c-0.2,1-0.6,1.8-1.6,2.1C35.5,83.3,35.1,83.4,34.8,83.4
				L34.8,83.4z M65.6,63.9c0-0.4,0-0.7,0-1c0.1-0.7,0.3-1,0.7-1c0.2,0,0.4,0.1,0.7,0.2c1,0.6,1.7,2,1.4,3.1
				c-0.1,0.2-0.2,0.5-0.4,0.7c-0.2,0.2-0.4,0.4-0.7,0.4c-0.2,0-0.4-0.1-0.7-0.2c0,0.2,0,0.3,0,0.4c0.1,0.6,0,1.1-0.3,1.6
				c-0.3,0.4-0.6,0.6-1.1,0.6c-0.3,0-0.6-0.1-1-0.4c0,0.3-0.1,0.6-0.1,0.9c-0.2,0.7-0.8,1.2-1.5,1.2l0,0c-0.4,0-0.7-0.2-0.9-0.5
				C61.2,69,61,68,61,67c0-0.5,0.2-1.1,0.3-1.6v-0.1c0.2-0.6,0.5-0.8,0.9-0.8c0.3,0,0.6,0.2,0.9,0.5c0.1,0.1,0.2,0.3,0.4,0.4
				c0.1-0.4,0.1-0.7,0.2-1.1c0.1-0.6,0.4-0.9,0.8-0.9c0.2,0,0.5,0.1,0.8,0.3C65.3,63.6,65.5,63.8,65.6,63.9L65.6,63.9z M36.7,66.2
				c-0.2,0-0.4-0.1-0.6-0.2c-0.4-0.3-0.7-0.8-0.6-1.4c0.1-1.1,0.5-2,1.5-2.6c0.2-0.1,0.4-0.2,0.6-0.2c0.1,0,0.1,0,0.2,0
				c0.4,0,0.6,0.2,0.6,0.6c0.1,0.5,0.1,0.9,0.1,1.4c0.1-0.1,0.3-0.3,0.5-0.4c0.2-0.1,0.4-0.2,0.6-0.2c0.4,0,0.7,0.2,0.8,0.7
				c0.1,0.4,0.1,0.8,0.2,1.2c0.2-0.2,0.4-0.4,0.6-0.6c0.2-0.2,0.4-0.3,0.6-0.3c0.3,0,0.5,0.2,0.7,0.5c0.3,0.5,0.4,1.1,0.5,1.6
				c0.2,1,0,2-0.4,2.9c-0.3,0.7-0.7,1.1-1.2,1.1c-0.1,0-0.1,0-0.2,0c-0.8-0.1-1.3-0.7-1.4-1.5c0-0.2,0-0.4,0-0.6
				c-0.4,0.3-0.8,0.4-1,0.4c-0.3,0-0.5-0.1-0.7-0.3c-0.6-0.5-0.7-1.1-0.7-1.8c0-0.2,0-0.4,0.1-0.6C37.2,66.2,36.9,66.2,36.7,66.2
				L36.7,66.2z M46.4,72.7c-0.8,0-1.4-0.3-1.8-1.1c-0.3-0.5-0.5-1.1-0.5-1.7c0-1.6,0.3-3.1,0.9-4.6c0.1-0.2,0.2-0.5,0.4-0.6
				c0.2-0.2,0.3-0.3,0.5-0.3c0.1,0,0.3,0.1,0.4,0.2c0.4,0.3,0.7,0.7,1,1.2c0.7,1.2,1.3,2.4,1.4,3.8c0,0.1,0,0.2,0,0.3c0,0,0,0,0.1,0
				c-0.1,0.5-0.2,1-0.3,1.5c-0.3,0.8-0.8,1.3-1.7,1.4C46.6,72.7,46.5,72.7,46.4,72.7L46.4,72.7z M57.7,72.7c-1,0-1.9-0.7-2.2-1.8
				c-0.1-0.4-0.1-0.9-0.2-1.3c0-1.2,0.5-2.2,1-3.2c0.3-0.6,0.7-1.1,1-1.6l0.1-0.1c0.3-0.3,0.6-0.5,0.8-0.5c0.3,0,0.5,0.2,0.8,0.7
				c0.4,0.8,0.7,1.7,0.8,2.7c0.2,0.9,0.3,1.8,0.1,2.7c-0.1,0.8-0.4,1.5-1,2C58.5,72.6,58.1,72.7,57.7,72.7L57.7,72.7z"/>
		</g>
		<g>
			<g>
				<g>
					<g>
						<path class="st4" d="M55.1,93.5c-0.5,0-1,0-1.5,0c-2.7-0.1-5.4-0.5-7.9-1.1c-5.6-1.4-10.6-3.9-15-7.4
							c-3.3-2.6-6.1-5.7-8.3-9.1C18,69,15.8,61.3,16.1,53.1c0.1-3.8,0.8-7.6,2.1-11.2c2.5-7.1,6.7-13.1,12.7-17.8
							c3.2-2.6,6.8-4.6,10.8-6c3.1-1.1,6.4-1.9,9.6-2.2c0.6-0.1,1.1-0.1,1.7-0.1l0.8-0.1h2.6c0.1,0,0.2,0,0.3,0
							c2.8,0.1,5.5,0.5,8.2,1.2c5.6,1.4,10.6,4,15.1,7.7c4.4,3.7,7.9,8.2,10.4,13.4c1.8,3.9,3,8,3.5,12.3c0.1,0.7,0.1,1.4,0.2,2.1
							l0.1,1v2.5V56c0,0.1,0,0.3,0,0.4c-0.1,1.7-0.3,3.4-0.6,5.3c-0.9,5.2-2.9,10.1-5.9,14.5c-2.2,3.3-4.9,6.3-8.1,8.8
							c-3,2.4-6.3,4.3-9.8,5.7C64.9,92.6,60,93.5,55.1,93.5z M24.6,57.3c-0.7,1.1-1,2.4-1,3.8v0.3c0,0.2,0,0.4,0.1,0.6
							c0.2,1.5,0.7,2.9,1.3,4c2.1,4.4,4.8,8.5,8,12.3c0.7,0.8,1.7,1.9,3.2,2.6c0.6,0.3,1.1,0.4,1.7,0.4l0,0c0.5,0,0.9-0.1,1.4-0.3
							c1.8-0.7,2.1-2.3,2.2-2.9c0.2-1.2-0.1-2.4-0.9-3.5c-0.8-1-1.8-1.6-2.9-1.7c-0.6,0-1.2-0.2-1.9-0.3c-1.1-0.2-1.8-0.5-2.4-1.1
							L33,71.1c-0.2-0.2-0.4-0.5-0.6-0.8c-1.3-1.6-1.4-3.3-0.5-5.1c0.3-0.6,0.7-1.3,1-1.9l0.5-0.9c0.6-1.1,1.2-2.1,1.6-3.4
							c0.6-1.6,0.3-3.1-0.8-4.3c-0.7-0.7-1.4-1.2-2.2-1.5c0.3-0.2,0.6-0.6,0.8-1.1c0.5-1.1,0.6-2.2,0.6-3.2v-0.3c0-0.2,0-0.4,0-0.7
							c-0.1-1-0.4-1.8-0.9-2.4c-0.8-1-1.7-1.2-2.3-1.2c-0.1,0-0.1,0-0.2,0c-1.3,0.1-2.5,1.2-2.6,2.6c0,0.4,0,0.8,0.1,1.3l0,0
							c-0.6-0.1-1-0.2-1.5-0.2s-0.9,0.2-1.3,0.5c-0.2,0.2-0.7,0.7-0.8,1.3c0,0.1,0,0.2-0.1,0.2s-0.3,0.1-0.4,0.1
							c-1,0.5-1.5,1.4-1.4,2.4c-0.9,0.4-1.4,1.6-1.1,2.6c0.4,1.1,1.1,1.9,2.2,2.2c0.2,0.1,0.5,0.1,0.7,0.1
							C24.1,57.4,24.4,57.4,24.6,57.3z M78.2,53.5c-0.7,0.2-1.4,0.6-2,1.3c-1.6,1.7-1.4,3.5-1,4.6c0.4,0.9,0.8,1.8,1.2,2.5
							c0.3,0.6,0.6,1.2,0.9,1.7c0.4,0.7,0.8,1.3,1.1,2c0.6,1.1,0.6,2.3,0.2,3.5c-0.3,0.7-0.7,1.3-1.3,1.9L77,71.4
							c-0.5,0.7-1.2,1.1-2.2,1.3l-0.3,0.1c-0.7,0.1-1.4,0.3-2,0.3c-2.4,0.2-4,2.7-3.9,4.6c0.1,1.7,1,3,2.4,3.4
							c0.4,0.1,0.8,0.2,1.2,0.2l0,0c0.7,0,1.4-0.2,2.1-0.6c1-0.6,1.9-1.4,2.5-2.2c1.4-1.4,2.5-3.1,3.5-4.5c2.3-3.3,3.9-6.1,5.1-8.9
							c0.7-1.6,1-2.9,1-4.2v-0.1v-0.1c0-0.2,0-0.3-0.1-0.5c0-0.4-0.1-0.8-0.2-1.3c-0.2-0.7-0.5-1.3-0.8-1.8c0.2,0.1,0.5,0.1,0.8,0.1
							h0.1c1.3,0,2.6-1.2,2.8-2.5c0.1-0.7-0.1-1.3-0.5-1.8c-0.2-0.2-0.4-0.4-0.7-0.5c0.1-0.9-0.2-1.7-1-2.2
							c-0.3-0.2-0.5-0.3-0.8-0.4c0-0.1,0-0.1,0-0.2c-0.2-0.9-0.9-1.6-1.8-1.8C84.3,48,84.1,48,84,48c-0.3,0-0.8,0.1-1.2,0.4
							c0.1-0.4,0.1-0.9,0-1.3c-0.1-1.1-0.8-2-1.9-2.4c-0.3-0.1-0.6-0.2-0.9-0.2c-0.7,0-1.3,0.3-1.9,0.8c-0.3,0.3-0.6,0.8-0.9,1.3
							c-0.4,0.8-0.5,1.7-0.5,2.7v0.4c0,0.3,0.1,0.7,0.1,1c0.1,0.7,0.3,1.6,0.9,2.3C77.9,53.3,78,53.4,78.2,53.5z M60.4,60.6
							c-0.3,0.2-0.6,0.5-0.7,0.6c-0.1,0.1-0.1,0.2-0.2,0.2c-0.1,0.2-0.2,0.3-0.3,0.5c-0.3,0.4-0.5,0.8-0.8,1.2
							c-0.6,1.1-1.1,2.2-1.1,3.6v0.1l0.1,0.5c0,0.3,0.1,0.7,0.2,1c0.4,1.5,1.7,2.6,3.2,2.6l0,0c0.7,0,1.3-0.2,1.8-0.6
							c1-0.7,1.3-1.8,1.4-2.6v-0.1c0.4,0.6,1,0.9,1.7,0.9c1.1,0,2.1-0.7,2.4-1.7c0.1,0,0.2,0,0.2,0c0.8,0,1.4-0.4,1.9-1.1
							c0.3-0.4,0.4-0.9,0.5-1.4c0.4-0.1,0.8-0.2,1.1-0.7c0.2-0.2,0.4-0.6,0.6-1.1c0.4-1.5-0.4-3.4-1.9-4.2c-0.4-0.2-0.7-0.3-1.1-0.3
							c0.1-0.1,0.2-0.2,0.3-0.3c0.9-1,2.1-2.5,1.9-4.7l-0.1-0.7c-0.1-0.5-0.1-1.1-0.2-1.6c-0.1-0.7-0.2-1.5-0.5-2.3
							c-0.9-3.2-1.7-5.9-2.5-8.5c-0.8-2.8-1.7-5-2.7-6.9c-0.6-1.3-1.4-2.6-2.5-3.7c-0.8-0.8-1.8-1.3-2.8-1.3c-0.2,0-0.5,0-0.7,0.1
							c-2,0.4-3.4,2.2-3.4,4.4c0,2.1,0.9,3.8,2.8,4.9c0.6,0.4,1.2,0.8,1.7,1.4c1.1,1.2,1.9,2.7,2.4,4.6c0.4,1.3,0.2,2.7-0.3,3.9
							c-0.4,0.8-0.9,1.6-1.7,2.5c-0.3,0.3-0.5,0.6-0.8,0.9c-0.5,0.6-1.1,1.2-1.6,1.8c-1.1,1.4-1.6,2.9-1.4,4.4
							c0.1,1.8,1,3.1,2.6,3.7C60.1,60.5,60.3,60.5,60.4,60.6z M46.1,67.5c0.1,0.6,0.3,1.1,0.6,1.6c0.6,1,1.5,1.6,2.7,1.6
							c0.2,0,0.3,0,0.5,0c1.2-0.2,2.1-0.9,2.5-2.1c0.1-0.4,0.2-0.8,0.3-1.2c0-0.2,0.1-0.3,0.1-0.5l0.2-1l-0.3-0.1
							c-0.2-1.6-0.9-2.8-1.5-3.8c-0.3-0.5-0.7-0.9-1.2-1.4c-0.1-0.1-0.2-0.1-0.2-0.2c0.5-0.2,1-0.4,1.4-0.8c1.2-1,1.7-2.4,1.5-4.3
							c-0.2-1.8-1.2-3.1-2.1-4.1c-0.3-0.4-0.7-0.7-1-1.1c-0.6-0.6-1.1-1.2-1.6-1.9c-0.9-1.1-1.3-2.4-1.3-3.7c0-1,0.3-2.1,0.8-3.3
							c0.6-1.2,1.2-2.5,2.4-3.3c0.3-0.2,0.6-0.5,1-0.7c0.3-0.2,0.5-0.4,0.8-0.6c1.9-1.4,2.7-4.1,1.8-6.3c-0.6-1.6-2.1-2.7-3.7-2.7
							c-0.3,0-0.6,0-0.9,0.1c-1.3,0.3-2.2,1.2-2.7,1.9c-1.2,1.5-2.2,3.3-3,5.4c-1.5,3.9-2.8,8.1-4,12.9c-0.4,1.7-0.7,3.2-0.7,4.5
							c0,1.9,0.2,2.8,1.3,4.1c0.3,0.4,0.7,0.8,1,1.1c-0.1,0-0.1,0-0.2,0c-0.3,0-0.7,0.2-1,0.3c-1.2,0.7-1.9,1.9-2,3.4
							c0,0.9,0.3,1.7,1,2.2c0.2,0.2,0.5,0.3,0.8,0.4c0.1,0.8,0.4,1.5,1,2c0.4,0.4,0.9,0.5,1.4,0.5c0.1,0,0.2,0,0.2,0
							c0.3,0.9,1.1,1.5,2.1,1.7c0.1,0,0.2,0,0.3,0C44.8,68.4,45.5,68.3,46.1,67.5z M46.8,62.4c-0.1-0.4-0.2-0.7-0.4-1.1
							c-0.1-0.2-0.2-0.3-0.3-0.4c0.3,0,0.6,0.1,1,0.1c0.2,0,0.3,0,0.5,0c-0.2,0.3-0.4,0.6-0.5,0.9C47,62,46.9,62.2,46.8,62.4z
							 M63.3,62.4c-0.1-0.3-0.2-0.6-0.4-0.8c-0.1-0.2-0.2-0.4-0.4-0.6c0.1,0,0.2,0,0.4,0l0,0c0.4,0,0.7,0,1.1-0.1
							c-0.2,0.2-0.4,0.5-0.6,0.9c0,0.1-0.1,0.2-0.1,0.3C63.3,62.2,63.3,62.3,63.3,62.4z M65.7,60.4L65.7,60.4
							C65.8,60.4,65.8,60.4,65.7,60.4C65.8,60.4,65.7,60.4,65.7,60.4z M44.2,60.4C44.3,60.4,44.3,60.4,44.2,60.4
							C44.3,60.4,44.3,60.4,44.2,60.4C44.3,60.4,44.3,60.4,44.2,60.4z M26.9,54.8c0-0.1,0.1-0.2,0.1-0.3c0.9-0.1,1.6-0.8,1.7-1.8
							c0-0.2,0-0.4,0-0.7c0.2,0.3,0.4,0.5,0.6,0.8c0.1,0.1,0.3,0.4,0.7,0.7c-0.1,0-0.2,0-0.2,0C28.8,53.7,27.9,54.1,26.9,54.8z
							 M83.1,54.8c-0.2-0.2-0.5-0.3-0.7-0.4c0.2,0.1,0.4,0.2,0.7,0.2C83.1,54.6,83.1,54.7,83.1,54.8z M82.3,54.3
							c-0.5-0.3-1.1-0.5-1.8-0.7c-0.1,0-0.3-0.1-0.4-0.1l0,0c0.3-0.2,0.5-0.4,0.7-0.7c0.2-0.2,0.3-0.4,0.5-0.7
							c0,0.4,0.1,0.8,0.2,1.1C81.6,53.7,81.9,54.1,82.3,54.3z"/>
						<path d="M56.2,16.7c0.1,0,0.2,0,0.3,0c2.7,0.1,5.4,0.5,8,1.2c5.4,1.4,10.4,3.9,14.7,7.5c4.3,3.6,7.7,8,10.1,13
							c1.8,3.8,2.9,7.8,3.4,11.9c0.1,0.7,0.1,1.4,0.2,2.1c0,0.3,0,0.6,0.1,0.9v2.5l0,0c0,0.2,0,0.3,0,0.5c-0.1,1.6-0.2,3.3-0.6,5.1
							c-0.9,5.1-2.9,9.8-5.7,14.2c-2.2,3.2-4.8,6.1-7.9,8.6c-2.9,2.3-6.1,4.2-9.5,5.6c-4.5,1.8-9.2,2.7-14.1,2.7c-0.5,0-1,0-1.5,0
							c-2.6-0.1-5.2-0.5-7.7-1.1c-5.4-1.3-10.3-3.8-14.6-7.2c-3.2-2.6-5.9-5.6-8.1-8.9c-4.3-6.7-6.4-14.2-6.1-22.2
							c0.1-3.7,0.8-7.4,2-10.9c2.4-6.9,6.6-12.8,12.3-17.4c3.1-2.5,6.6-4.5,10.5-5.9c3-1.1,6.2-1.8,9.4-2.1c0.5-0.1,1.1-0.1,1.6-0.1
							l0.7-0.1h2.5 M58.7,60.8C58.6,60.8,58.6,60.8,58.7,60.8c-0.1,0.2-0.2,0.3-0.3,0.5c-0.3,0.4-0.6,0.8-0.8,1.3
							c-0.6,1.2-1.2,2.5-1.2,4v0.2V67c0,0.1,0,0.2,0,0.4c0,0.3,0.1,0.7,0.2,1.1c0.5,2,2.2,3.3,4.1,3.3c0.9,0,1.7-0.3,2.4-0.8
							s1.1-1.2,1.4-1.8c0.4,0.2,0.8,0.2,1.2,0.2l0,0c1.3,0,2.4-0.7,3-1.8c0.9-0.1,1.7-0.7,2.3-1.5c0.2-0.4,0.4-0.8,0.5-1.2
							c0.3-0.2,0.7-0.4,1-0.8c0.3-0.3,0.6-0.8,0.8-1.4c0.5-1.9-0.4-4.2-2.2-5.3c0.9-1.1,1.7-2.6,1.5-4.7l0,0l0,0
							c0-0.2,0-0.4-0.1-0.7c-0.1-0.5-0.1-1.1-0.2-1.6c-0.1-0.8-0.3-1.6-0.5-2.4c-0.9-3.2-1.7-5.9-2.5-8.5c-0.9-2.9-1.7-5.1-2.8-7.1
							c-0.7-1.3-1.5-2.7-2.7-3.9c-1-1-2.2-1.6-3.5-1.6c-0.3,0-0.6,0-0.9,0.1c-2.5,0.5-4.2,2.7-4.2,5.4c0,2.4,1.1,4.4,3.2,5.8
							c0.5,0.3,1.1,0.8,1.6,1.2c1,1.1,1.7,2.4,2.2,4.2c0.3,1.1,0.2,2.2-0.3,3.2c-0.3,0.7-0.8,1.4-1.6,2.2c-0.3,0.3-0.5,0.6-0.8,0.8
							c-0.5,0.6-1.1,1.2-1.6,1.9c-1.2,1.5-1.8,3.3-1.6,5.2C56.6,58.5,57.4,59.9,58.7,60.8 M38.9,57.4c-1.4,0.9-2.3,2.4-2.4,4.1
							c-0.1,1.2,0.5,2.3,1.4,3.1c0.2,0.1,0.3,0.2,0.5,0.3c0.2,1,0.8,1.6,1.2,2c0.5,0.4,1,0.7,1.6,0.7c0.5,0.9,1.4,1.5,2.6,1.7
							c0.2,0,0.3,0,0.5,0c0.3,0,0.7,0,1.2-0.2c0.1,0.2,0.1,0.3,0.2,0.4c0.8,1.4,2,2.1,3.6,2.1c0.2,0,0.4,0,0.6,0
							c1.6-0.2,2.9-1.2,3.4-2.8c0.1-0.5,0.2-0.9,0.3-1.3c0-0.1,0.1-0.3,0.1-0.4l0.4-1.9l-0.6-0.1c-0.3-1.5-1-2.7-1.6-3.5
							c-0.2-0.3-0.4-0.5-0.6-0.8c0.1-0.1,0.2-0.2,0.3-0.2c1.5-1.2,2.1-3,1.9-5.2c-0.2-2.1-1.4-3.6-2.3-4.7c-0.3-0.4-0.7-0.7-1-1.1
							c-0.6-0.6-1.1-1.2-1.6-1.8c-0.7-0.9-1.1-1.9-1.1-3.1c0-0.9,0.2-1.8,0.8-2.9c0.5-1.1,1.1-2.2,2.1-3c0.3-0.2,0.6-0.4,0.9-0.6
							c0.3-0.2,0.6-0.4,0.8-0.6c2.2-1.7,3.2-4.9,2.2-7.4c-0.8-2-2.6-3.3-4.7-3.3c-0.4,0-0.7,0-1.1,0.1c-1.6,0.4-2.6,1.5-3.2,2.2
							c-1.2,1.6-2.3,3.4-3.1,5.6c-1.5,3.9-2.8,8.1-4.1,13c-0.4,1.7-0.7,3.3-0.7,4.7l0,0l0,0C37.4,54.7,37.6,55.9,38.9,57.4
							L38.9,57.4 M76.6,53.1c-0.4,0.3-0.8,0.6-1.2,1c-1.6,1.7-2,3.7-1.2,5.6c0.4,1,0.8,1.8,1.2,2.6c0.3,0.6,0.6,1.2,1,1.7
							c0.4,0.7,0.7,1.3,1.1,2c0.4,0.9,0.5,1.8,0.1,2.7c-0.2,0.5-0.6,1.1-1.1,1.7l-0.3,0.3c-0.4,0.5-0.9,0.8-1.6,0.9l-0.3,0.1
							C73.6,71.8,73,72,72.4,72c-3,0.2-5,3.2-4.8,5.7c0.2,2.1,1.3,3.7,3.1,4.3c0.5,0.2,1,0.3,1.6,0.3c0.9,0,1.8-0.3,2.6-0.7
							c1.1-0.7,2-1.6,2.8-2.3c1.4-1.5,2.6-3.2,3.6-4.6c2.3-3.3,4-6.2,5.2-9c0.5-1.1,1.1-2.7,1.1-4.6v-0.2v-0.2c0-0.1,0-0.3-0.1-0.4
							c-0.1-0.4-0.1-0.9-0.3-1.4c0-0.2-0.1-0.3-0.2-0.5c1.6-0.3,2.9-1.7,3.1-3.3c0.1-0.9-0.1-1.9-0.7-2.6c-0.1-0.2-0.3-0.3-0.4-0.4
							c-0.1-1-0.5-1.9-1.4-2.5c-0.2-0.1-0.4-0.2-0.6-0.3c-0.4-1.1-1.3-1.9-2.4-2.2C84.4,47,84.2,47,84,47c0,0-0.1,0-0.2,0
							c-0.2-1.5-1.1-2.6-2.5-3.2c-0.4-0.2-0.9-0.2-1.3-0.2c-0.9,0-1.8,0.4-2.6,1.1c-0.4,0.4-0.8,0.9-1.1,1.6c-0.5,1-0.6,2.1-0.6,3.2
							v0.1v0.1v0.2c0,0.3,0.1,0.7,0.1,1.1C76,51.6,76.2,52.4,76.6,53.1 M26.3,47c-0.1,0-0.1,0-0.2,0c-0.7,0-1.4,0.3-2,0.8
							c-0.3,0.3-0.8,0.8-1,1.4l0,0c-1.2,0.5-1.9,1.6-2,2.8c-1,0.8-1.5,2.2-1.1,3.4c0.5,1.5,1.5,2.5,2.9,2.8c0.1,0,0.1,0,0.2,0
							c-0.3,0.9-0.4,1.8-0.5,2.7V61v0.1v0.2c0,0.2,0,0.4,0.1,0.7c0.2,1.7,0.8,3.2,1.3,4.3c2.1,4.5,4.9,8.7,8.2,12.6
							c0.7,0.8,1.9,2.1,3.5,2.9c0.7,0.4,1.4,0.5,2.2,0.5c0.6,0,1.2-0.1,1.7-0.3c1.5-0.6,2.5-1.8,2.8-3.6c0.3-1.5-0.1-3-1.1-4.3
							c-0.9-1.2-2.3-2-3.6-2.1c-0.5,0-1.1-0.2-1.8-0.3c-0.9-0.2-1.5-0.4-1.8-0.8c-0.1-0.2-0.3-0.3-0.4-0.5c-0.2-0.2-0.4-0.5-0.6-0.7
							c-1-1.3-1.2-2.6-0.4-4c0.3-0.6,0.6-1.2,1-1.8l0.2-0.4l0.3-0.5c0.6-1.1,1.3-2.2,1.7-3.5c0.7-1.9,0.3-3.8-1-5.3
							c-0.5-0.5-0.9-0.9-1.4-1.2c0-0.1,0.1-0.2,0.1-0.3c0.6-1.3,0.7-2.5,0.7-3.7v-0.1v-0.1v-0.2c0-0.2,0-0.5-0.1-0.7
							c-0.1-1.2-0.5-2.1-1.1-2.9c-1-1.3-2.3-1.6-3.1-1.6c-0.1,0-0.2,0-0.3,0C28,43.7,26.5,45.2,26.3,47 M56.4,14.7
							c-0.9,0-1.8,0-2.7,0c-0.8,0.1-1.6,0.1-2.5,0.2c-3.4,0.3-6.7,1.1-9.9,2.2c-4,1.5-7.7,3.5-11,6.2c-6.1,4.9-10.4,10.9-13,18.3
							c-1.3,3.7-2,7.6-2.1,11.5c-0.3,8.4,1.8,16.2,6.4,23.3c2.3,3.6,5.2,6.7,8.5,9.4c4.6,3.7,9.7,6.2,15.3,7.6
							c2.7,0.7,5.4,1,8.1,1.1c0.5,0,1,0,1.6,0c5.1,0,10.1-0.9,14.8-2.9c3.6-1.5,7-3.4,10-5.9c3.2-2.6,6-5.6,8.3-9.1
							c3-4.6,5.1-9.5,6-14.9c0.3-1.8,0.5-3.6,0.6-5.4c0-0.2,0-0.3,0-0.5c0-0.9,0-1.8,0-2.7c-0.1-1.1-0.1-2.1-0.3-3.2
							c-0.5-4.4-1.7-8.6-3.6-12.6c-2.5-5.4-6.1-9.9-10.7-13.7s-9.7-6.4-15.5-7.9c-2.8-0.7-5.5-1.1-8.4-1.2
							C56.5,14.7,56.4,14.7,56.4,14.7L56.4,14.7z M62.9,60c-0.8,0-1.7-0.2-2.5-0.5c-1.3-0.5-1.8-1.5-2-2.9c-0.1-1.4,0.4-2.7,1.2-3.7
							c0.7-0.9,1.6-1.7,2.4-2.6c0.7-0.8,1.4-1.7,1.9-2.7c0.7-1.5,0.8-3,0.4-4.6c-0.5-1.9-1.3-3.6-2.7-5c-0.6-0.6-1.2-1.1-1.9-1.5
							c-1.5-1-2.3-2.3-2.3-4.1c0-1.7,1.1-3.1,2.6-3.4c0.2,0,0.4-0.1,0.5-0.1c0.8,0,1.5,0.4,2.1,1c1,1,1.7,2.2,2.3,3.5
							c1.1,2.2,1.9,4.4,2.6,6.7c0.8,2.8,1.7,5.6,2.5,8.5c0.2,0.7,0.3,1.5,0.4,2.2s0.2,1.5,0.2,2.2c0.1,1.6-0.6,2.8-1.7,3.9
							c-1.3,1.4-2.9,2.5-4.8,3C63.8,60,63.3,60,62.9,60L62.9,60z M47.1,60c-1.8,0-3.3-0.8-4.7-1.9c-0.7-0.6-1.4-1.3-2-2
							c-0.9-1-1-1.7-1-3.4c0-1.3,0.3-2.8,0.7-4.3c1.1-4.3,2.4-8.6,4-12.8c0.7-1.8,1.6-3.6,2.8-5.1c0.6-0.7,1.2-1.3,2.1-1.5
							c0.2-0.1,0.4-0.1,0.6-0.1c1.2,0,2.3,0.8,2.8,2c0.7,1.7,0,4-1.5,5.1c-0.6,0.4-1.2,0.8-1.8,1.3c-1.2,1-2,2.3-2.6,3.7
							c-0.5,1.2-0.9,2.4-0.9,3.7c0,1.6,0.5,3.1,1.5,4.3c0.8,1,1.8,2,2.7,3s1.7,2.2,1.9,3.6c0.2,1.3-0.1,2.5-1.1,3.4
							c-0.8,0.6-1.7,0.8-2.7,0.9C47.5,60,47.3,60,47.1,60L47.1,60z M79.1,52.8c-0.2,0-0.4-0.1-0.5-0.3c-0.4-0.5-0.6-1.2-0.7-1.9
							c-0.1-0.5-0.1-0.9-0.1-1.2c0-0.9,0-1.6,0.4-2.3c0.2-0.4,0.4-0.7,0.7-1c0.3-0.3,0.7-0.5,1.2-0.5c0.2,0,0.4,0,0.6,0.1
							c0.7,0.3,1.2,0.8,1.2,1.6c0.1,0.5,0,1-0.1,1.4c-0.3,1.3-0.8,2.4-1.6,3.5c-0.1,0.2-0.3,0.4-0.5,0.5
							C79.4,52.7,79.2,52.8,79.1,52.8L79.1,52.8z M30.9,52.8c-0.3,0-0.6-0.2-0.9-0.6c-0.8-1-1.3-2.2-1.7-3.5
							c-0.1-0.5-0.2-0.9-0.1-1.4c0.1-0.9,0.8-1.6,1.7-1.7H30c0.6,0,1.1,0.3,1.5,0.8c0.4,0.6,0.6,1.2,0.7,1.9c0,0.3,0,0.6,0.1,0.8
							c0,1-0.1,2-0.5,2.8C31.5,52.5,31.3,52.8,30.9,52.8L30.9,52.8z M24.8,51.2c0-0.4,0-0.8,0.1-1.2c0.1-0.3,0.3-0.6,0.6-0.8
							c0.2-0.2,0.4-0.3,0.6-0.3s0.4,0.1,0.7,0.2c0.5,0.4,0.8,0.9,0.9,1.5s0.1,1.3,0.1,1.9c0,0.6-0.4,0.9-0.8,0.9
							c-0.2,0-0.4-0.1-0.6-0.2c-0.2-0.1-0.3-0.2-0.4-0.3c0.1,0.4,0.2,0.8,0.2,1.2c0,0.5-0.2,0.8-0.6,0.8c-0.1,0-0.2,0-0.4-0.1
							c-0.2-0.1-0.4-0.2-0.7-0.4c0,0.1,0.1,0.2,0.1,0.2c0,0.1,0.1,0.3,0.1,0.4c0.2,0.8-0.1,1.3-0.8,1.3c-0.1,0-0.3,0-0.4-0.1
							c-0.8-0.2-1.3-0.8-1.5-1.5c-0.2-0.5,0.1-1.2,0.6-1.4c0.3-0.1,0.6-0.1,0.9-0.1c-0.1-0.2-0.2-0.5-0.3-0.8
							c-0.2-0.7,0.2-1.3,0.8-1.6c0,0.2,0.1,0.2,0.2,0.2C24.4,51,24.6,51.1,24.8,51.2L24.8,51.2z M83.1,53.5c-0.3,0-0.5-0.2-0.6-0.5
							c-0.3-1.2-0.2-2.3,0.5-3.4c0.2-0.3,0.5-0.6,1-0.6c0.1,0,0.2,0,0.2,0c0.5,0.1,0.9,0.5,1,1c0.1,0.4,0.1,0.8,0.1,1.2
							c0.2-0.2,0.4-0.2,0.6-0.2s0.4,0.1,0.6,0.2c0.5,0.3,0.7,0.8,0.6,1.4c-0.1,0.3-0.2,0.6-0.3,0.9l0,0l0,0l0,0
							c0.1,0,0.3-0.1,0.4-0.1c0.7,0,1.2,0.6,1.1,1.4c-0.1,0.8-1,1.6-1.9,1.7c0,0,0,0-0.1,0c-0.6,0-0.9-0.3-0.9-0.9
							c0-0.3,0.1-0.7,0.2-1c-0.2,0.1-0.4,0.3-0.7,0.4c-0.1,0-0.2,0.1-0.3,0.1c-0.4,0-0.6-0.3-0.6-0.7s0.1-0.8,0.2-1.2
							c-0.2,0.1-0.5,0.3-0.8,0.4C83.3,53.5,83.2,53.5,83.1,53.5L83.1,53.5z M72.2,80.4c-0.3,0-0.6-0.1-0.9-0.2
							c-1-0.3-1.6-1.3-1.7-2.6c-0.1-1.5,1.2-3.4,3-3.6c0.8-0.1,1.6-0.3,2.5-0.4c1.1-0.2,2-0.7,2.8-1.7c0.6-0.8,1.3-1.6,1.7-2.5
							c0.6-1.5,0.5-2.9-0.2-4.3c-0.6-1.3-1.4-2.5-2-3.8c-0.4-0.8-0.8-1.6-1.1-2.4c-0.6-1.3-0.2-2.5,0.8-3.5c0.7-0.7,1.5-1.1,2.4-1.1
							c0.3,0,0.6,0.1,1,0.2c2.5,0.8,4.3,2.3,5.1,4.9c0.2,0.5,0.2,1.1,0.3,1.6c0,1.4-0.4,2.6-1,3.8c-1.3,3.1-3.1,5.9-5,8.7
							c-1.1,1.5-2.1,3-3.4,4.4c-0.7,0.7-1.4,1.5-2.3,2C73.3,80.2,72.8,80.4,72.2,80.4L72.2,80.4z M37.8,80.4c-0.4,0-0.9-0.1-1.3-0.3
							c-1.1-0.6-2-1.4-2.8-2.4c-3.2-3.7-5.8-7.7-7.9-12.1c-0.6-1.2-1-2.4-1.2-3.7c0-0.3,0-0.6-0.1-0.8c0-2.4,1.1-4.1,2.9-5.4
							c0.7-0.5,1.5-1,2.4-1.2c0.3-0.1,0.6-0.1,0.9-0.1c1,0,1.8,0.4,2.6,1.3c0.9,1,1.1,2.1,0.6,3.3c-0.5,1.3-1.2,2.5-1.8,3.7
							c-0.4,0.8-0.9,1.5-1.3,2.3c-1.1,2.2-0.8,4.2,0.6,6.1c0.3,0.4,0.7,0.8,1,1.2c0.8,0.9,1.8,1.2,2.9,1.4c0.7,0.1,1.4,0.3,2,0.3
							c1.7,0.1,3.2,2.1,2.9,4c-0.2,1-0.6,1.8-1.6,2.1C38.5,80.3,38.1,80.4,37.8,80.4L37.8,80.4z M68.6,60.9c0-0.4,0-0.7,0-1
							c0.1-0.7,0.3-1,0.7-1c0.2,0,0.4,0.1,0.7,0.2c1,0.6,1.7,2,1.4,3.1c-0.1,0.2-0.2,0.5-0.4,0.7c-0.2,0.2-0.4,0.4-0.7,0.4
							c-0.2,0-0.4-0.1-0.7-0.2c0,0.2,0,0.3,0,0.4c0.1,0.6,0,1.1-0.3,1.6c-0.3,0.4-0.6,0.6-1.1,0.6c-0.3,0-0.6-0.1-1-0.4
							c0,0.3-0.1,0.6-0.1,0.9c-0.2,0.7-0.8,1.2-1.5,1.2l0,0c-0.4,0-0.7-0.2-0.9-0.5C64.2,66,64,65,64,64c0-0.5,0.2-1.1,0.3-1.6v-0.1
							c0.2-0.6,0.5-0.8,0.9-0.8c0.3,0,0.6,0.2,0.9,0.5c0.1,0.1,0.2,0.3,0.4,0.4c0.1-0.4,0.1-0.7,0.2-1.1c0.1-0.6,0.4-0.9,0.8-0.9
							c0.2,0,0.5,0.1,0.8,0.3C68.3,60.6,68.5,60.8,68.6,60.9L68.6,60.9z M39.7,63.2c-0.2,0-0.4-0.1-0.6-0.2
							c-0.4-0.3-0.7-0.8-0.6-1.4c0.1-1.1,0.5-2,1.5-2.6c0.2-0.1,0.4-0.2,0.6-0.2c0.1,0,0.1,0,0.2,0c0.4,0,0.6,0.2,0.6,0.6
							c0.1,0.5,0.1,0.9,0.1,1.4c0.1-0.1,0.3-0.3,0.5-0.4c0.2-0.1,0.4-0.2,0.6-0.2c0.4,0,0.7,0.2,0.8,0.7c0.1,0.4,0.1,0.8,0.2,1.2
							c0.2-0.2,0.4-0.4,0.6-0.6c0.2-0.2,0.4-0.3,0.6-0.3c0.3,0,0.5,0.2,0.7,0.5c0.3,0.5,0.4,1.1,0.5,1.6c0.2,1,0,2-0.4,2.9
							c-0.3,0.7-0.7,1.1-1.2,1.1c-0.1,0-0.1,0-0.2,0c-0.8-0.1-1.3-0.7-1.4-1.5c0-0.2,0-0.4,0-0.6c-0.4,0.3-0.8,0.4-1,0.4
							c-0.3,0-0.5-0.1-0.7-0.3c-0.6-0.5-0.7-1.1-0.7-1.8c0-0.2,0-0.4,0.1-0.6C40.2,63.2,39.9,63.2,39.7,63.2L39.7,63.2z M49.4,69.7
							c-0.8,0-1.4-0.3-1.8-1.1c-0.3-0.5-0.5-1.1-0.5-1.7c0-1.6,0.3-3.1,0.9-4.6c0.1-0.2,0.2-0.5,0.4-0.6c0.2-0.2,0.3-0.3,0.5-0.3
							c0.1,0,0.3,0.1,0.4,0.2c0.4,0.3,0.7,0.7,1,1.2c0.7,1.2,1.3,2.4,1.4,3.8c0,0.1,0,0.2,0,0.3c0,0,0,0,0.1,0
							c-0.1,0.5-0.2,1-0.3,1.5c-0.3,0.8-0.8,1.3-1.7,1.4C49.6,69.7,49.5,69.7,49.4,69.7L49.4,69.7z M60.7,69.7c-1,0-1.9-0.7-2.2-1.8
							c-0.1-0.4-0.1-0.9-0.2-1.3c0-1.2,0.5-2.2,1-3.2c0.3-0.6,0.7-1.1,1-1.6l0.1-0.1c0.3-0.3,0.6-0.5,0.8-0.5c0.3,0,0.5,0.2,0.8,0.7
							c0.4,0.8,0.7,1.7,0.8,2.7c0.2,0.9,0.3,1.8,0.1,2.7c-0.1,0.8-0.4,1.5-1,2C61.5,69.6,61.1,69.7,60.7,69.7L60.7,69.7z"/>
					</g>
				</g>
			</g>
		</g>
	</g>
</g>
</svg>
