<?xml version="1.0" encoding="utf-8"?>
<!-- Generator: Adobe Illustrator 21.0.0, SVG Export Plug-In . SVG Version: 6.00 Build 0)  -->
<svg version="1.1" id="Layer_1" xmlns="http://www.w3.org/2000/svg" xmlns:xlink="http://www.w3.org/1999/xlink" x="0px" y="0px"
	 viewBox="0 0 105 105" style="enable-background:new 0 0 105 105;" xml:space="preserve">
<style type="text/css">
	.st0{fill:#3FADAB;}
	.st1{fill:none;stroke:#000000;stroke-width:3;stroke-miterlimit:10;}
	.st2{fill:#2D7773;}
	.st3{fill:#B2B2B2;stroke:#000000;stroke-width:2;stroke-miterlimit:10;}
	.st4{fill:#545454;stroke:#000000;stroke-width:2;stroke-miterlimit:10;}
	.st5{fill:#B2B2B2;}
	.st6{fill:#FFFFFF;stroke:#000000;stroke-width:2;stroke-miterlimit:10;}
	.st7{fill:none;stroke:#000000;stroke-width:2;stroke-miterlimit:10;}
</style>
<g>
	<g>
		<g>
			<g>
				<rect x="1.5" y="1.5" class="st0" width="102" height="102"/>
				<rect x="1.5" y="1.5" class="st1" width="102" height="102"/>
			</g>
		</g>
	</g>
	<g>
		<path class="st2" d="M81,94H14.7c-4.9,0-9-4-9-9V63.6c0-5,4.1-9,9-9H81c4.9,0,9,4,9,9V85C90,89.9,85.9,94,81,94z"/>
		<path class="st2" d="M75.8,87.1H19.8c-1.6,0-3-1.3-3-3v-6.8c0-1.6,1.4-3,3-3h56.1c1.6,0,3,1.4,3,3v6.8
			C78.8,85.8,77.5,87.1,75.8,87.1z"/>
		<path class="st2" d="M78.8,81.5H16.8v-4.2c0-1.6,1.4-3,3-3h56.1c1.6,0,3,1.4,3,3V81.5z"/>
		<g>
			<path class="st2" d="M21.7,62.9c0,1.6-1.4,2.9-3,2.9c-1.6,0-2.8-1.4-2.8-2.9c0-1.6,1.4-2.9,3-2.9C20.4,60,21.7,61.3,21.7,62.9z"
				/>
		</g>
		<g>
			<path class="st2" d="M27.5,65.7c-1.5,0-2.9-1.2-2.9-2.8c-0.1-1.6,1.3-2.9,2.8-3c1.5,0,2.9,1.3,2.9,2.8
				C30.4,64.3,29,65.7,27.5,65.7z"/>
		</g>
		<rect x="22.1" y="23.3" class="st2" width="51.5" height="31.2"/>
		<line class="st2" x1="28.5" y1="30.3" x2="66.9" y2="30.3"/>
		<line class="st2" x1="28.5" y1="36.3" x2="66.9" y2="36.3"/>
		<line class="st2" x1="28.5" y1="42.3" x2="66.9" y2="42.3"/>
		<line class="st2" x1="28.5" y1="48.3" x2="66.9" y2="48.3"/>
	</g>
	<g>
		<path class="st3" d="M85.6,89.8H19.3c-4.9,0-9-4-9-9V59.4c0-5,4.1-9,9-9h66.3c4.9,0,9,4,9,9v21.4C94.6,85.8,90.5,89.8,85.6,89.8z"
			/>
		<path class="st3" d="M80.4,82.9H24.4c-1.6,0-3-1.4-3-3v-6.8c0-1.6,1.4-3,3-3h56.1c1.6,0,3,1.4,3,3v6.8
			C83.4,81.6,82.1,82.9,80.4,82.9z"/>
		<path class="st4" d="M83.4,77.3H21.4v-4.2c0-1.6,1.4-3,3-3h56.1c1.6,0,3,1.4,3,3V77.3z"/>
		<g>
			<path class="st5" d="M23.3,60.5c-1,0-1.9-0.9-1.8-1.9c0-1,0.9-1.9,1.9-1.9c1.1,0,1.9,0.9,1.9,1.9C25.3,59.7,24.4,60.5,23.3,60.5
				L23.3,60.5z"/>
			<path d="M23.3,55.8c-1.5,0-2.8,1.3-2.9,2.9c0,1.6,1.2,2.9,2.8,2.9c0,0,0.1,0,0.1,0c1.5,0,2.9-1.3,2.9-2.9
				C26.3,57.1,25,55.8,23.3,55.8C23.4,55.8,23.4,55.8,23.3,55.8L23.3,55.8z"/>
		</g>
		<g>
			<path class="st5" d="M32,60.5c-1,0-1.8-0.8-1.9-1.8c0-0.5,0.2-1,0.5-1.3c0.4-0.4,0.8-0.6,1.3-0.6h0c1,0,1.9,0.9,1.9,1.8
				c0,0.5-0.2,1-0.5,1.3C33,60.3,32.5,60.5,32,60.5L32,60.5z"/>
			<path d="M32,55.8C32,55.8,32,55.8,32,55.8c-1.6,0-3,1.4-2.9,3c0.1,1.6,1.4,2.8,2.9,2.8c0,0,0,0,0.1,0c1.6,0,2.9-1.4,2.9-3
				C34.9,57,33.6,55.8,32,55.8L32,55.8z"/>
		</g>
		<rect x="26.7" y="19.1" class="st6" width="51.5" height="31.2"/>
		<line class="st7" x1="33.1" y1="26.1" x2="71.5" y2="26.1"/>
		<line class="st7" x1="33.1" y1="32.1" x2="71.5" y2="32.1"/>
		<line class="st7" x1="33.1" y1="38.1" x2="71.5" y2="38.1"/>
		<line class="st7" x1="33.1" y1="44.1" x2="71.5" y2="44.1"/>
	</g>
</g>
</svg>
