<?xml version="1.0" encoding="utf-8"?>
<!-- Generator: Adobe Illustrator 21.0.0, SVG Export Plug-In . SVG Version: 6.00 Build 0)  -->
<svg version="1.1" id="Layer_1" xmlns="http://www.w3.org/2000/svg" xmlns:xlink="http://www.w3.org/1999/xlink" x="0px" y="0px"
	 viewBox="0 0 105 105" style="enable-background:new 0 0 105 105;" xml:space="preserve">
<style type="text/css">
	.st0{fill:#DF3400;stroke:#000000;stroke-width:3;stroke-miterlimit:10;}
	.st1{fill:#A31F00;}
	.st2{fill:#B2B2B2;}
</style>
<g>
	<rect x="1.5" y="1.5" class="st0" width="102" height="102"/>
	<g>
		<g>
			<path class="st1" d="M28.3,61.5c-0.7,0-1.3-0.5-1.4-1.2c-0.1-1.1-0.3-2.3-0.4-3.4c-0.1-1-0.8-1.3-1-1.4c-1.4-0.6-2.8-1.2-4.1-1.7
				c-0.2-0.1-0.5-0.2-0.7-0.2c-0.3,0-0.6,0.1-0.9,0.4c-0.8,0.7-1.6,1.3-2.5,2c-0.4,0.3-0.8,0.5-1.1,0.5c-0.4,0-0.7-0.2-1.1-0.6
				c-1.2-1.2-2.5-2.4-3.7-3.7c-0.8-0.8-0.8-1.4-0.2-2.3c0.6-0.8,1.3-1.6,2-2.4c0.4-0.5,0.5-1.1,0.2-1.7c-0.6-1.3-1.2-2.7-1.7-3.9
				c-0.2-0.6-0.7-0.9-1.3-1l-0.2,0c-1.1-0.1-2.2-0.2-3.2-0.4c-0.5-0.1-0.9-0.3-1.1-0.8c0-0.1-0.1-0.2-0.1-0.3V33
				c0.3-0.8,0.8-1.1,1.7-1.1c0.5,0,1.1-0.1,1.6-0.2c0.4,0,0.7-0.1,1.1-0.1c1-0.1,1.2-0.8,1.3-1c0.6-1.5,1.1-2.9,1.7-4.3
				c0.3-0.6,0.2-1.2-0.2-1.7c-0.4-0.5-0.8-1-1.2-1.6l-0.6-0.7c-0.6-0.8-0.6-1.5,0.1-2.2c1.2-1.2,2.5-2.5,3.7-3.7
				c0.4-0.4,0.8-0.6,1.1-0.6c0.3,0,0.7,0.1,1.1,0.4l0.8,0.6c0.5,0.4,1,0.8,1.5,1.2c0.2,0.2,0.6,0.3,0.9,0.3c0.2,0,0.5-0.1,0.7-0.2
				c1.5-0.8,3.1-1.5,4.7-2c0.5-0.1,0.9-0.6,1-1.2c0.1-0.9,0.2-1.8,0.3-2.7c0.1-1.1,0.6-1.5,1.6-1.5l5.4,0c0.6,0,1.3,0.2,1.5,1.3
				c0.1,1,0.3,2,0.4,2.9c0.1,0.6,0.4,1.1,1,1.3c0.8,0.3,1.6,0.7,2.5,1c0.7,0.3,1.5,0.6,2.2,0.9c0.2,0.1,0.4,0.1,0.6,0.1
				c0.2,0,0.6,0,0.9-0.3c0.4-0.3,0.9-0.7,1.3-1c0.3-0.2,0.6-0.5,0.9-0.7c0.4-0.3,0.7-0.4,1-0.4c0.3,0,0.7,0.2,1,0.5
				c1.3,1.2,2.6,2.6,3.9,3.9c0.6,0.6,0.6,1.3,0.1,2c-0.6,0.7-1.2,1.5-1.8,2.2c-0.6,0.7-0.3,1.4-0.2,1.6c0.6,1.4,1.2,2.9,1.8,4.3
				c0.2,0.6,0.7,0.9,1.3,1l0.5,0c0.9,0.1,1.8,0.2,2.6,0.3c0.7,0.1,1.1,0.6,1.1,1.3c0,1.9,0,3.8,0,5.9c0,0.6-0.5,1.2-1.1,1.3
				c-0.9,0.1-1.9,0.2-2.8,0.3l-0.3,0c-0.6,0.1-1.1,0.4-1.3,1c-0.6,1.4-1.2,2.8-1.8,4.3c-0.1,0.3-0.4,1,0.2,1.7
				c0.5,0.7,1.1,1.3,1.6,2l0.2,0.3c0.7,0.8,0.6,1.5-0.1,2.2c-1.2,1.3-2.5,2.5-3.8,3.8c-0.4,0.4-0.7,0.5-1.1,0.5c0,0,0,0,0,0
				c-0.3,0-0.7-0.1-1-0.4c-0.8-0.6-1.6-1.3-2.4-1.9c-0.3-0.2-0.6-0.4-1-0.4c-0.3,0-0.5,0.1-0.7,0.2c-1.5,0.6-2.9,1.2-4.3,1.8
				c-0.4,0.2-1.1,0.5-1.1,1.5c-0.1,0.7-0.1,1.4-0.2,2.2l-0.1,1c-0.1,0.8-0.7,1.3-1.4,1.3l-2.7,0L28.3,61.5z M31.4,25.4
				c-5.6,0-10.3,4.5-10.5,10c-0.1,2.9,1,5.7,3,7.7c1.9,2,4.6,3.1,7.2,3.1l0.3,0c5.7,0,10.4-4.6,10.4-10.3c0-2.8-1.1-5.5-3-7.5
				C36.9,26.5,34.2,25.4,31.4,25.4L31.4,25.4z"/>
			<path class="st1" d="M31.8,11.6l2.4,0c0.4,0,0.5,0.1,0.5,0.4c0.1,0.9,0.2,1.9,0.3,2.8c0.1,1,0.7,1.7,1.6,2.1
				c0.8,0.3,1.6,0.7,2.4,1c0.7,0.3,1.5,0.6,2.2,0.9c0.3,0.1,0.6,0.2,1,0.2c0.6,0,1.1-0.2,1.5-0.5c0.5-0.3,0.9-0.7,1.3-1.1
				c0.3-0.2,0.6-0.5,0.9-0.7c0.2-0.2,0.3-0.2,0.4-0.2c0.1,0,0.2,0.1,0.3,0.2c1.3,1.2,2.6,2.5,3.9,3.9c0.2,0.2,0.3,0.3,0,0.7
				c-0.6,0.8-1.2,1.5-1.7,2.2c-0.4,0.5-0.9,1.4-0.4,2.6c0.6,1.5,1.2,2.9,1.8,4.3c0.4,0.9,1.1,1.5,2.1,1.6l0.5,0
				c0.9,0.1,1.7,0.2,2.6,0.3c0.3,0,0.3,0.2,0.3,0.3c0,1.9,0,3.8,0,5.9c0,0.2-0.2,0.3-0.3,0.3c-0.9,0.1-1.8,0.2-2.8,0.3l-0.3,0
				c-1,0.1-1.8,0.7-2.2,1.6c-0.6,1.4-1.2,2.8-1.8,4.3c-0.5,1.3-0.1,2.2,0.3,2.7c0.5,0.6,1,1.3,1.5,2l0.3,0.3c0.4,0.5,0.3,0.5,0,0.9
				c-1.2,1.3-2.5,2.5-3.7,3.8c-0.2,0.2-0.3,0.2-0.4,0.2c-0.1,0-0.2-0.1-0.4-0.2c-0.9-0.7-1.6-1.3-2.4-1.9c-0.5-0.4-1-0.6-1.6-0.6
				c-0.4,0-0.7,0.1-1.1,0.2c-1.5,0.6-2.9,1.2-4.3,1.7c-1.3,0.5-1.7,1.5-1.8,2.3c-0.1,0.7-0.1,1.4-0.2,2.1c0,0.3-0.1,0.6-0.1,1
				c0,0.4-0.3,0.4-0.4,0.4c-0.9,0-1.8,0-2.8,0l-2.9,0c-0.4,0-0.4-0.3-0.4-0.3c-0.1-1.1-0.3-2.2-0.4-3.4c-0.1-0.7-0.4-1.7-1.7-2.2
				c-1.4-0.6-2.8-1.2-4.1-1.7c-0.4-0.2-0.7-0.2-1.1-0.2c-0.6,0-1.1,0.2-1.6,0.6c-0.8,0.7-1.6,1.3-2.5,1.9c-0.3,0.2-0.4,0.3-0.5,0.3
				c0,0-0.2-0.1-0.4-0.3c-1.2-1.2-2.5-2.4-3.7-3.7c-0.4-0.4-0.4-0.5-0.1-0.9c0.7-0.9,1.3-1.7,1.9-2.4c0.7-0.8,0.8-1.8,0.4-2.7
				c-0.6-1.3-1.1-2.6-1.6-3.9c-0.4-1-1.1-1.5-2.2-1.6l-0.2,0c-1.1-0.1-2.1-0.2-3.2-0.4c-0.1,0-0.2,0-0.3-0.3c0,0,0,0,0-0.1v-5.9
				C7,33,7.1,32.9,7.6,32.8c0.6,0,1.1-0.1,1.7-0.2c0.3,0,0.7-0.1,1-0.1c0.6-0.1,1.7-0.3,2.2-1.7c0.6-1.5,1.1-2.9,1.7-4.3
				c0.5-1.2,0.1-2.1-0.4-2.7c-0.4-0.5-0.8-1-1.2-1.6L12,21.6c-0.3-0.4-0.3-0.5,0-0.9c1.2-1.2,2.5-2.5,3.7-3.7
				c0.2-0.2,0.4-0.3,0.4-0.3c0.1,0,0.2,0,0.4,0.2c0.3,0.2,0.5,0.4,0.8,0.6c0.5,0.4,1,0.8,1.5,1.2c0.6,0.4,1.2,0.5,1.5,0.5
				c0.4,0,0.8-0.1,1.2-0.3c1.4-0.8,2.9-1.4,4.5-1.9c0.9-0.3,1.6-1.1,1.7-2c0.1-0.9,0.2-1.8,0.3-2.8c0.1-0.6,0.2-0.6,0.7-0.6l0.8,0
				L31.8,11.6 M31.1,47.3c0.1,0,0.2,0,0.3,0c6.3,0,11.4-5.1,11.4-11.3c0-3.1-1.2-6-3.3-8.2c-2.2-2.2-5-3.4-8.1-3.4
				c-6.1,0-11.3,4.9-11.5,11c-0.1,3.2,1.1,6.2,3.2,8.4C25.3,46,28.2,47.3,31.1,47.3 M31.8,9.6c-1,0-2,0-3,0c-1.6,0-2.5,0.9-2.6,2.4
				c-0.1,0.9-0.2,1.8-0.3,2.7c0,0.1-0.2,0.3-0.3,0.3c-1.7,0.5-3.3,1.2-4.9,2.1c0,0-0.1,0-0.2,0c-0.1,0-0.2,0-0.3-0.1
				c-0.8-0.6-1.5-1.2-2.3-1.8c-0.6-0.4-1.1-0.7-1.7-0.7c-0.6,0-1.3,0.3-1.8,0.9c-1.2,1.2-2.5,2.5-3.7,3.7c-1.1,1.1-1.2,2.3-0.2,3.6
				c0.6,0.8,1.2,1.5,1.8,2.3c0.2,0.2,0.2,0.4,0.1,0.7c-0.6,1.4-1.2,2.9-1.7,4.3c-0.1,0.3-0.2,0.4-0.5,0.4c-0.9,0.1-1.8,0.2-2.7,0.3
				c-1.3,0.1-2.2,0.7-2.6,2c0,2.2,0,4.5,0,6.7C4.9,39.7,5,39.8,5,40c0.4,0.8,1,1.3,1.8,1.4c1.1,0.2,2.3,0.3,3.4,0.4
				c0.3,0,0.4,0.1,0.5,0.4c0.5,1.3,1.1,2.6,1.7,4c0.1,0.3,0.1,0.4-0.1,0.6c-0.7,0.8-1.3,1.6-2,2.5c-1,1.2-0.9,2.5,0.2,3.6
				c1.2,1.2,2.5,2.5,3.7,3.7c0.6,0.6,1.2,0.9,1.8,0.9c0.6,0,1.1-0.2,1.7-0.7c0.8-0.6,1.7-1.3,2.5-2c0.1-0.1,0.2-0.1,0.3-0.1
				c0.1,0,0.2,0,0.3,0.1c1.4,0.6,2.7,1.2,4.1,1.8c0.3,0.1,0.4,0.2,0.4,0.5c0.1,1.1,0.2,2.3,0.4,3.4c0.2,1.2,1.2,2.1,2.4,2.1
				c1,0,2,0,2.9,0c0.9,0,1.8,0,2.8,0c1.3,0,2.3-0.9,2.4-2.2c0.1-1,0.3-2.1,0.4-3.1c0-0.4,0.2-0.5,0.5-0.6c1.5-0.6,2.9-1.2,4.4-1.8
				c0.1,0,0.2-0.1,0.3-0.1c0.1,0,0.2,0,0.3,0.1c0.8,0.7,1.6,1.3,2.4,1.9c0.5,0.4,1.1,0.6,1.6,0.6c0.6,0,1.2-0.3,1.8-0.8
				c1.3-1.2,2.5-2.5,3.8-3.8c1.1-1.1,1.2-2.3,0.2-3.5c-0.6-0.8-1.2-1.6-1.8-2.3c-0.2-0.2-0.2-0.4-0.1-0.7c0.6-1.4,1.2-2.9,1.8-4.4
				c0.1-0.3,0.2-0.4,0.5-0.4c1-0.1,2.1-0.2,3.1-0.4c1.1-0.2,2-1.1,2-2.2c0-2,0-4,0-6c0-1.2-0.8-2.1-2-2.2c-1-0.2-2.1-0.3-3.1-0.4
				c-0.3,0-0.4-0.1-0.5-0.4c-0.6-1.5-1.2-2.9-1.8-4.4c-0.1-0.2-0.1-0.4,0.1-0.6c0.6-0.7,1.2-1.5,1.8-2.2c0.8-1.1,0.8-2.3-0.1-3.3
				c-1.3-1.3-2.6-2.7-3.9-4c-0.5-0.5-1.1-0.8-1.7-0.8c-0.5,0-1.1,0.2-1.6,0.6c-0.7,0.6-1.4,1.2-2.2,1.7c-0.1,0.1-0.2,0.1-0.3,0.1
				c-0.1,0-0.2,0-0.2,0c-1.6-0.6-3.1-1.3-4.7-1.9c-0.3-0.1-0.3-0.2-0.4-0.5c-0.1-1-0.2-2-0.4-2.9c-0.2-1.3-1.1-2.1-2.5-2.1
				C33.4,9.6,32.6,9.6,31.8,9.6L31.8,9.6z M31.1,45.3c-4.7,0-9.4-4-9.2-9.8c0.1-4.8,4.2-9,9.5-9c0,0,0,0,0,0c5.2,0,9.4,4.3,9.4,9.6
				c0,5.1-4.3,9.3-9.4,9.3C31.3,45.3,31.2,45.3,31.1,45.3L31.1,45.3z"/>
		</g>
		<g>
			<path class="st1" d="M71.9,79.2c-0.7,0-1.2-0.4-1.4-1.1c-0.2-0.7-0.3-1.4-0.5-2.3c-0.1-0.7-0.5-1.1-1.2-1.3
				c-1.2-0.4-2.3-0.7-3.3-1.1c-0.2-0.1-0.4-0.1-0.6-0.1c-0.4,0-0.7,0.2-1,0.4c-0.5,0.5-1.1,1-1.6,1.5c-0.3,0.3-0.7,0.4-1,0.4
				c-0.3,0-0.6-0.1-0.9-0.4c-1-0.8-2-1.7-3.1-2.6c-0.4-0.4-0.5-1.1-0.2-1.7c0.4-0.6,0.8-1.3,1.3-1.9c0.4-0.5,0.4-1.1,0.1-1.7
				c-0.5-0.9-1-1.9-1.5-3c-0.3-0.6-0.8-0.9-1.4-0.9c-0.8,0-1.5,0-2.3-0.1c-0.7,0-1.2-0.5-1.3-1.1c-0.2-1.4-0.3-2.8-0.4-4.2
				c0-0.7,0.4-1.2,1.1-1.4c0.7-0.2,1.4-0.3,2.1-0.4c0.6-0.1,1-0.5,1.2-1.1c0.3-1.2,0.7-2.4,1.1-3.6c0.2-0.6,0.1-1.1-0.4-1.6
				c-0.5-0.5-0.9-0.9-1.3-1.4l-0.2-0.2c-0.5-0.5-0.5-1.2-0.2-1.6c0.9-1.1,1.8-2.3,2.9-3.4c0.2-0.2,0.5-0.3,0.8-0.3
				c0.3,0,0.5,0.1,0.7,0.2c0.2,0.1,0.5,0.3,0.7,0.4l1.7,1.1l1.4-0.7c1.1-0.5,2.2-1.1,3.2-1.6c0.4-0.2,0.8-0.7,0.8-1.2
				c0-0.4,0-0.8,0.1-1.2c0-0.3,0-0.5,0-0.8c0-0.8,0.5-1.3,1.2-1.4c1.3-0.1,2.5-0.2,3.8-0.3c0.1,0,0.1,0,0.2,0c0.9,0,1.3,0.4,1.5,1.3
				c0,0.2,0.1,0.4,0.1,0.6c0.1,0.4,0.1,0.8,0.2,1.2c0.1,0.5,0.5,0.9,1,1.1c1.3,0.4,2.6,0.9,3.9,1.3c0.1,0,0.3,0.1,0.4,0.1
				c0.4,0,0.7-0.1,1-0.3c0.3-0.3,0.7-0.6,1-0.9l0.4-0.4c0.3-0.3,0.7-0.5,1-0.5c0.3,0,0.6,0.1,0.9,0.4c1,0.8,2,1.6,3,2.5
				c0.5,0.5,0.6,1.2,0.2,1.8c-0.4,0.6-0.7,1.1-1.1,1.7C86,48,86,48.6,86.3,49.2c0.7,1.3,1.2,2.3,1.7,3.3c0.3,0.6,0.8,0.9,1.4,0.9
				c0.7,0,1.3,0,2,0.1c0.7,0,1.2,0.5,1.3,1.1c0.2,1.3,0.3,2.8,0.4,4.2c0,0.6-0.4,1.2-1,1.3c-0.3,0.1-0.7,0.2-1.1,0.2
				c-0.4,0.1-0.8,0.2-1.1,0.3c-0.5,0.1-0.9,0.5-1.1,1c-0.2,0.6-0.4,1.2-0.6,1.8c-0.2,0.6-0.4,1.2-0.6,1.8c-0.2,0.6-0.1,1.2,0.4,1.6
				c0.5,0.5,1,1,1.5,1.5c0.5,0.6,0.6,1.3,0.1,1.9c-0.8,1-1.7,2-2.5,3c-0.3,0.3-0.6,0.5-1,0.5l0,0c-0.2,0-0.5-0.1-0.7-0.2
				c-0.3-0.2-0.7-0.4-1-0.6c-0.3-0.2-0.7-0.4-1-0.6c-0.3-0.2-0.6-0.2-0.8-0.2c-0.2,0-0.4,0-0.7,0.2c-0.6,0.3-1.1,0.6-1.7,0.8
				c-0.6,0.3-1.2,0.6-1.8,0.9c-0.6,0.3-0.9,0.8-0.9,1.4c0,0.7,0,1.4-0.1,2.2c0,0.8-0.5,1.3-1.3,1.4c-1.2,0.1-2.4,0.2-3.9,0.3
				L71.9,79.2z M72.3,49.6c-4.5,0-8.5,3.8-8.6,8.4c-0.1,5,3.7,8.9,8.6,9.1l0.2,0c4.7,0,8.6-3.9,8.6-8.7c0-4.9-3.8-8.7-8.7-8.8
				L72.3,49.6z"/>
			<path class="st1" d="M72.7,38.7C72.7,38.7,72.7,38.7,72.7,38.7L72.7,38.7c0.3,0,0.4,0,0.6,0.6c0,0.2,0.1,0.4,0.1,0.6
				c0.1,0.4,0.2,0.8,0.3,1.2c0.2,0.8,0.9,1.5,1.7,1.8c1.3,0.4,2.6,0.9,3.9,1.3c0.2,0.1,0.5,0.1,0.7,0.1c0.6,0,1.2-0.2,1.6-0.6
				c0.4-0.3,0.7-0.6,1-0.9c0.1-0.1,0.3-0.3,0.4-0.4c0.1-0.1,0.3-0.2,0.4-0.2c0.1,0,0.2,0.1,0.3,0.1c1,0.8,2,1.6,3,2.5
				c0.1,0.1,0.2,0.3,0.1,0.5c-0.3,0.5-0.6,1-1.1,1.6c-0.3,0.5-0.8,1.5-0.1,2.7c0.7,1.2,1.2,2.3,1.6,3.2c0.5,0.9,1.3,1.5,2.3,1.5
				c0.7,0,1.4,0,2,0.1c0.1,0,0.3,0.1,0.3,0.2c0.2,1.3,0.3,2.7,0.4,4.1c0,0.2-0.2,0.3-0.3,0.3c-0.3,0.1-0.7,0.2-1,0.2
				c-0.4,0.1-0.8,0.2-1.2,0.3c-0.8,0.2-1.5,0.9-1.8,1.7c-0.2,0.6-0.4,1.2-0.6,1.8c-0.2,0.6-0.4,1.2-0.6,1.8c-0.3,1-0.1,1.9,0.6,2.6
				c0.5,0.5,0.9,0.9,1.4,1.5c0.2,0.2,0.2,0.4,0,0.6c-0.8,1-1.6,2-2.5,3c-0.1,0.1-0.2,0.2-0.3,0.2c-0.1,0-0.1,0-0.2-0.1
				c-0.3-0.2-0.6-0.4-1-0.6c-0.3-0.2-0.7-0.4-1-0.7c-0.4-0.2-0.8-0.3-1.3-0.3c-0.4,0-0.8,0.1-1.1,0.3c-0.6,0.3-1.1,0.6-1.7,0.8
				c-0.6,0.3-1.2,0.6-1.8,0.9c-0.9,0.5-1.5,1.3-1.5,2.3c0,0.6,0,1.3-0.1,2.1c0,0.4-0.2,0.5-0.4,0.5c-1.2,0.1-2.4,0.2-3.8,0.3l-0.1,0
				c-0.2,0-0.3,0-0.4-0.3c-0.2-0.6-0.3-1.3-0.4-2.2c-0.1-0.6-0.5-1.6-1.9-2.1c-1.2-0.4-2.3-0.7-3.3-1.1c-0.3-0.1-0.6-0.2-0.9-0.2
				c-0.4,0-1.1,0.1-1.7,0.7c-0.4,0.4-1,1-1.6,1.5c-0.1,0.1-0.3,0.2-0.3,0.2c-0.1,0-0.2-0.1-0.3-0.1c-1-0.8-2-1.6-3.1-2.6
				c-0.1,0-0.1-0.3,0-0.4c0.4-0.6,0.8-1.2,1.3-1.9c0.6-0.9,0.6-1.8,0.1-2.7c-0.5-0.9-1-1.9-1.5-2.9c-0.5-0.9-1.3-1.5-2.3-1.5
				c-0.9,0-1.6,0-2.3-0.1c-0.3,0-0.3-0.1-0.3-0.2c-0.2-1.3-0.3-2.7-0.4-4.1c0-0.2,0.2-0.3,0.3-0.3c0.6-0.1,1.3-0.3,2-0.4
				c0.6-0.1,1.6-0.5,2-1.8c0.4-1.4,0.7-2.5,1.1-3.5c0.3-1,0.1-1.9-0.6-2.6C57,49,56.6,48.5,56.2,48L56,47.9
				c-0.1-0.1-0.2-0.3-0.1-0.3c0.8-1.1,1.8-2.2,2.8-3.4c0,0,0,0,0.1,0c0.1,0,0.2,0,0.2,0.1c0.2,0.1,0.4,0.3,0.6,0.4l0.3,0.2l0.7,0.5
				l0.2,0.2l1,0.6l1-0.5l0.9-0.5c1.1-0.5,2.2-1.1,3.2-1.6c0.8-0.4,1.3-1.2,1.4-2.1c0-0.4,0-0.9,0.1-1.3c0-0.3,0-0.5,0-0.8
				c0-0.4,0.3-0.4,0.3-0.4c1.3-0.1,2.5-0.2,3.7-0.3C72.6,38.7,72.6,38.7,72.7,38.7 M72.5,68c5.3,0,9.6-4.3,9.6-9.7
				c0-5.4-4.2-9.7-9.6-9.8c-0.1,0-0.1,0-0.2,0c-5.1,0-9.4,4.3-9.6,9.4c-0.1,5.5,4.1,9.9,9.6,10.1C72.4,68,72.5,68,72.5,68
				 M72.7,36.7c-0.1,0-0.2,0-0.2,0c-1.3,0.1-2.5,0.2-3.8,0.3c-1.2,0.1-2.1,1.1-2.1,2.3c0,0.7,0,1.3-0.1,2c0,0.1-0.1,0.4-0.3,0.4
				c-1.3,0.7-2.7,1.3-4.1,2c-0.2-0.2-0.6-0.4-0.9-0.6c-0.3-0.2-0.7-0.5-1-0.7c-0.4-0.2-0.8-0.3-1.3-0.3c-0.6,0-1.2,0.2-1.6,0.7
				c-1,1.1-2,2.3-2.9,3.5c-0.7,0.9-0.5,2.1,0.2,2.9c0.5,0.5,1,1.1,1.5,1.6c0.2,0.2,0.2,0.3,0.1,0.6c-0.4,1.2-0.7,2.4-1.1,3.6
				c-0.1,0.2-0.2,0.4-0.4,0.4c-0.7,0.1-1.4,0.3-2.2,0.4c-1.2,0.3-1.9,1.2-1.9,2.4c0.1,1.4,0.2,2.9,0.4,4.3c0.1,1.2,1,1.9,2.2,2
				c0.8,0,1.6,0.1,2.3,0.1c0.3,0,0.4,0.1,0.5,0.4c0.5,1,1,2,1.6,3c0.1,0.3,0.1,0.4,0,0.6c-0.5,0.7-0.9,1.3-1.3,2
				c-0.6,1-0.4,2.3,0.4,3c1,0.9,2.1,1.8,3.1,2.6c0.5,0.4,1,0.6,1.5,0.6c0.6,0,1.1-0.2,1.7-0.7c0.6-0.5,1.1-1,1.7-1.6
				c0.1-0.1,0.2-0.2,0.3-0.2c0.1,0,0.1,0,0.2,0c1.1,0.4,2.2,0.7,3.4,1.1c0.3,0.1,0.4,0.2,0.5,0.5c0.1,0.8,0.3,1.6,0.5,2.3
				c0.3,1.2,1.2,1.9,2.3,1.9c0.1,0,0.1,0,0.2,0c1.3-0.1,2.6-0.2,3.9-0.3c1.3-0.1,2.1-1.1,2.2-2.4c0-0.7,0.1-1.5,0.1-2.2
				c0-0.3,0.1-0.4,0.4-0.5c1.2-0.6,2.3-1.2,3.5-1.7c0.1,0,0.2-0.1,0.3-0.1c0.1,0,0.2,0,0.3,0.1c0.7,0.4,1.3,0.9,2,1.3
				c0.4,0.2,0.8,0.4,1.2,0.4c0.7,0,1.3-0.3,1.8-0.8c0.9-1,1.7-2,2.6-3c0.8-1,0.7-2.2-0.1-3.2c-0.5-0.5-1-1.1-1.5-1.6
				c-0.2-0.2-0.2-0.3-0.1-0.6c0.4-1.2,0.8-2.4,1.2-3.6c0.1-0.2,0.2-0.3,0.4-0.4c0.7-0.2,1.5-0.3,2.2-0.5c1.1-0.3,1.8-1.2,1.8-2.4
				c-0.1-1.4-0.2-2.9-0.4-4.3c-0.1-1.1-1.1-1.9-2.2-2c-0.7,0-1.4-0.1-2.1-0.1c-0.3,0-0.4-0.1-0.5-0.3c-0.5-1.1-1.1-2.2-1.7-3.3
				c-0.1-0.2-0.1-0.4,0-0.6c0.4-0.6,0.8-1.1,1.1-1.7c0.6-1,0.5-2.3-0.4-3.1c-1-0.9-2-1.7-3-2.6c-0.5-0.4-1-0.6-1.5-0.6
				c-0.6,0-1.2,0.2-1.7,0.7c-0.5,0.4-0.9,0.9-1.4,1.3c-0.1,0.1-0.2,0.1-0.4,0.1c0,0-0.1,0-0.1,0c-1.3-0.4-2.6-0.8-3.9-1.3
				c-0.2-0.1-0.3-0.2-0.4-0.4c-0.1-0.6-0.2-1.2-0.4-1.7C74.9,37.5,74,36.7,72.7,36.7L72.7,36.7z M72.5,66c-0.1,0-0.1,0-0.2,0
				c-4.4-0.1-7.8-3.6-7.7-8c0.1-4,3.6-7.4,7.6-7.4c0.1,0,0.1,0,0.2,0c4.2,0,7.7,3.4,7.7,7.8C80.1,62.6,76.7,66,72.5,66L72.5,66z"/>
		</g>
		<g>
			<path class="st1" d="M40.6,96.9c-0.7,0-1.3,0-2,0c-0.9,0-1.4-0.5-1.5-1.4c0-0.1,0-0.3,0-0.5c0-0.5,0-1.2-0.4-1.7
				c-0.4-0.5-1-0.7-1.5-0.9c-0.2,0-0.3-0.1-0.4-0.1c-0.5-0.2-0.9-0.4-1.2-0.6c-0.3-0.2-0.5-0.2-0.8-0.2c-0.3,0-0.7,0.1-1,0.4
				c-0.3,0.3-0.7,0.5-1,0.8c-0.3,0.2-0.6,0.4-0.9,0.4c-0.4,0-0.7-0.2-1-0.5c-0.5-0.5-1-1-1.5-1.6c-0.6-0.6-0.7-1.3-0.1-2
				c0.1-0.1,0.2-0.3,0.3-0.4c0.2-0.2,0.4-0.5,0.6-0.7c0.3-0.4,0.3-1,0.2-1.4c-0.4-0.9-0.7-1.8-1-2.6C27,83.5,26.5,83.1,26,83
				c-0.3-0.1-0.7-0.1-1.1-0.2l-0.4-0.1c-0.8-0.1-1.2-0.6-1.2-1.4c0-0.8,0-1.7,0-2.6c0-0.6,0.6-1.2,1.3-1.2c0.1,0,0.2,0,0.3,0
				c0.1,0,0.3,0,0.4,0c0.1,0,0.2,0,0.2,0c1.3,0,1.6-1.1,1.7-1.4c0.2-0.7,0.5-1.3,0.8-2l0.1-0.3c0.3-0.6,0.2-1.2-0.2-1.7
				c-0.3-0.4-0.6-0.7-0.8-1.1c-0.4-0.6-0.4-1.2,0.1-1.7c0.6-0.6,1.3-1.3,2-1.9c0.3-0.2,0.5-0.3,0.7-0.3c0.3,0,0.5,0.1,0.8,0.2
				c0.4,0.3,0.8,0.6,1,0.8c0.3,0.3,0.6,0.4,1,0.4c0.2,0,0.4,0,0.7-0.2c0.9-0.4,1.8-0.8,2.8-1.2c0.7-0.3,1.1-0.8,1.2-1.5
				c0-0.2,0-0.4,0.1-0.6c0-0.1,0-0.3,0.1-0.4c0.1-0.7,0.6-1.2,1.3-1.2c0.3,0,0.7,0,1,0c0.5,0,1,0,1.6,0c0.7,0,1.3,0.5,1.4,1.3
				c0,0.1,0,0.2,0,0.2c0,0,0,0.1,0,0.1c-0.2,1.6,1.2,2,1.6,2.2c0.6,0.2,1.1,0.5,1.7,0.8l0.4,0.2c0.2,0.1,0.4,0.2,0.8,0.2
				c0.4,0,0.7-0.1,1-0.4c0.3-0.2,0.6-0.5,0.9-0.7c0.3-0.2,0.5-0.3,0.8-0.3c0.3,0,0.6,0.1,0.9,0.4c0.6,0.6,1.2,1.2,1.7,1.8
				c0.5,0.6,0.5,1.2,0.1,1.8c-0.1,0.1-0.2,0.2-0.3,0.3c-0.3,0.4-0.7,0.8-0.8,1.4c-0.1,0.6,0.2,1.1,0.4,1.5c0.1,0.1,0.1,0.2,0.2,0.4
				c0.2,0.4,0.4,0.9,0.5,1.4c0.1,0.6,0.5,1.2,1.6,1.3c0.3,0,0.7,0.1,1,0.1c0.7,0.1,1.1,0.6,1.1,1.3c0,0.9,0,1.7,0,2.5
				c0,0.7-0.5,1.2-1.3,1.3l-0.1,0c-0.3,0-0.6,0.1-0.9,0.1c-0.7,0-1.3,0.4-1.6,1.1c-0.3,0.7-0.6,1.5-1.1,2.5
				c-0.3,0.6-0.2,1.2,0.2,1.7c0.3,0.4,0.6,0.8,0.8,1.1c0.4,0.6,0.3,1.2-0.2,1.7c-0.5,0.6-1.1,1.1-1.8,1.7c-0.3,0.3-0.6,0.4-0.8,0.4
				c-0.5,0-0.9-0.2-1.2-0.5c-0.1-0.1-0.2-0.2-0.3-0.2c-0.4-0.3-0.8-0.7-1.4-0.8l-0.1,0l-0.1,0c-0.5,0-0.9,0.2-1.2,0.4
				c-0.1,0.1-0.2,0.1-0.3,0.2c-0.6,0.2-1.1,0.4-1.7,0.6c-0.7,0.2-1.1,0.7-1.1,1.4c0,0.4-0.1,0.9-0.2,1.3c-0.1,0.7-0.6,1.2-1.4,1.2
				H40.6z M40,72.9c-1.9,0-3.8,0.8-5.2,2.1c-1.4,1.4-2.1,3.2-2.1,5.1c0,4.1,3.2,7.3,7.2,7.3c4,0,7.3-3.2,7.3-7.2
				c0-2-0.7-3.8-2.1-5.2C43.8,73.6,42,72.9,40,72.9L40,72.9z"/>
			<path class="st1" d="M39.9,64.7c0.5,0,1,0,1.5,0c0.1,0,0.4,0,0.4,0.4c0,0.1,0,0.2,0,0.3c-0.1,0.9,0.2,2.4,2.3,3.1
				c0.5,0.2,1,0.4,1.6,0.7l0.4,0.2c0.4,0.2,0.8,0.3,1.2,0.3c0.4,0,1-0.1,1.6-0.6c0.3-0.2,0.5-0.4,0.8-0.6c0.1-0.1,0.2-0.1,0.3-0.1
				c0.1,0,0.2,0.1,0.2,0.1c0.6,0.6,1.1,1.1,1.7,1.7c0.2,0.2,0.2,0.3,0,0.5c-0.1,0.1-0.1,0.2-0.2,0.2c-0.4,0.4-0.9,1-1.1,2
				c-0.1,0.9,0.3,1.7,0.6,2.1c0,0.1,0.1,0.2,0.1,0.2c0.2,0.4,0.3,0.8,0.4,1.2c0.3,1.2,1.2,2,2.5,2c0.3,0,0.6,0.1,0.9,0.1
				c0.3,0.1,0.3,0.2,0.3,0.4c0,0.8,0,1.6,0,2.4c0,0.2,0,0.4-0.4,0.4L55,82c-0.3,0-0.5,0.1-0.7,0.1c-0.7,0-1.9,0.2-2.5,1.8
				c-0.3,0.7-0.6,1.5-1.1,2.5c-0.6,1.3-0.1,2.3,0.3,2.8c0.3,0.4,0.6,0.7,0.8,1c0.1,0.2,0.1,0.3,0,0.5c-0.5,0.5-1.1,1.1-1.7,1.7
				c-0.1,0.1-0.1,0.1-0.1,0.1c-0.2,0-0.4-0.1-0.5-0.2c-0.1-0.1-0.1-0.1-0.2-0.2c-0.4-0.4-1-1-2-1.1c-0.1,0-0.2,0-0.3,0
				c-0.8,0-1.4,0.3-1.7,0.6c-0.1,0-0.1,0.1-0.2,0.1c-0.5,0.2-1.1,0.4-1.6,0.5c-1.1,0.3-1.8,1.2-1.9,2.3c0,0.4-0.1,0.8-0.2,1.2
				c0,0.3-0.2,0.4-0.4,0.4l-0.3,0c-0.7,0-1.3,0-2,0c-0.4,0-0.5-0.1-0.5-0.5c0-0.1,0-0.2,0-0.4c0-0.6,0-1.5-0.6-2.3
				c-0.6-0.8-1.4-1-2-1.2c-0.1,0-0.3-0.1-0.3-0.1c-0.3-0.1-0.7-0.3-1.1-0.5c-0.4-0.2-0.8-0.4-1.3-0.4c-0.6,0-1.1,0.2-1.6,0.6
				c-0.3,0.2-0.6,0.5-1,0.8c-0.2,0.1-0.3,0.2-0.4,0.2c-0.1,0-0.2-0.1-0.3-0.2c-0.5-0.5-1-1-1.5-1.5c-0.3-0.3-0.3-0.4,0-0.7
				c0.1-0.1,0.2-0.3,0.3-0.4c0.2-0.2,0.4-0.5,0.6-0.8c0.5-0.7,0.6-1.6,0.3-2.4c-0.4-0.9-0.7-1.8-1.1-2.6c-0.3-0.7-1-1.3-1.8-1.5
				c-0.4-0.1-0.8-0.1-1.1-0.2c-0.1,0-0.3,0-0.4-0.1c-0.4-0.1-0.4-0.2-0.4-0.4c0-0.8,0-1.7,0-2.5c0-0.1,0.2-0.3,0.4-0.3
				c0.1,0,0.2,0,0.4,0c0.1,0,0.2,0,0.2,0c0.1,0,0.2,0,0.3,0c0.7,0,2.1-0.3,2.7-2.1c0.2-0.6,0.5-1.2,0.8-1.9l0.1-0.3
				c0.6-1.3,0-2.3-0.3-2.7c-0.3-0.3-0.5-0.7-0.8-1c-0.2-0.3-0.1-0.4,0-0.5c0.6-0.6,1.2-1.3,1.9-1.9c0,0,0,0,0.1,0c0,0,0.1,0,0.2,0.1
				c0.3,0.2,0.7,0.5,0.9,0.7c0.6,0.5,1.2,0.6,1.6,0.6c0.4,0,0.7-0.1,1.1-0.2c0.9-0.4,1.8-0.8,2.7-1.1c1.5-0.5,1.8-1.7,1.8-2.4
				c0-0.2,0-0.3,0.1-0.5c0-0.1,0-0.3,0.1-0.4c0-0.2,0.2-0.3,0.3-0.3C39.2,64.7,39.6,64.7,39.9,64.7 M40,88.4L40,88.4
				c4.6,0,8.3-3.7,8.3-8.2c0-2.2-0.8-4.3-2.4-5.9c-1.6-1.6-3.6-2.5-5.9-2.5c-2.2,0-4.3,0.9-5.9,2.4c-1.6,1.6-2.4,3.6-2.4,5.8
				C31.7,84.8,35.4,88.4,40,88.4L40,88.4 M39.9,62.7c-0.3,0-0.7,0-1,0c-1.2,0-2.1,0.9-2.2,2.1c0,0.3-0.1,0.7-0.1,1
				c0,0.3-0.2,0.5-0.5,0.6c-1,0.4-1.9,0.8-2.9,1.2c-0.1,0-0.2,0.1-0.3,0.1c-0.1,0-0.2,0-0.3-0.1c-0.4-0.3-0.7-0.6-1.1-0.9
				c-0.4-0.3-0.9-0.4-1.3-0.4c-0.5,0-1,0.2-1.4,0.5c-0.7,0.6-1.4,1.3-2.1,2c-0.8,0.8-0.8,2-0.2,3c0.3,0.4,0.6,0.8,0.9,1.1
				c0.2,0.2,0.2,0.4,0.1,0.6c-0.4,0.8-0.7,1.6-1,2.4c-0.1,0.5-0.3,0.7-0.8,0.7c0,0-0.1,0-0.1,0c0,0-0.1,0-0.1,0
				c-0.3,0-0.5,0.1-0.8,0.1c-1.2,0.1-2.1,1-2.2,2.2c0,0.9-0.1,1.8,0,2.7c0,1.2,0.9,2.1,2.1,2.3c0.5,0.1,1,0.1,1.4,0.2
				c0.2,0,0.4,0.2,0.4,0.3c0.4,0.8,0.7,1.7,1,2.5c0.1,0.1,0,0.4,0,0.5c-0.3,0.4-0.6,0.7-0.9,1.1c-0.9,1.1-0.8,2.3,0.2,3.3
				c0.5,0.5,1,1.1,1.5,1.6c0.5,0.5,1.1,0.8,1.7,0.8c0.5,0,1-0.2,1.5-0.5c0.4-0.3,0.7-0.5,1.1-0.8c0.1-0.1,0.2-0.1,0.3-0.1
				c0.1,0,0.2,0,0.3,0.1c0.4,0.2,0.8,0.4,1.3,0.6c0.5,0.2,1.2,0.3,1.5,0.7c0.3,0.4,0.2,1.1,0.2,1.7c0.2,1.4,1.1,2.2,2.5,2.2
				c0.7,0,1.3,0,2,0c0.1,0,0.2,0,0.3,0c1.2,0,2.2-0.8,2.4-2c0.1-0.5,0.1-0.9,0.2-1.4c0-0.3,0.1-0.4,0.4-0.5c0.6-0.2,1.2-0.4,1.8-0.6
				c0.4-0.2,0.8-0.5,1.2-0.5c0,0,0,0,0.1,0c0.4,0.1,0.8,0.5,1.2,0.8c0.5,0.4,1,0.7,1.9,0.7c0.5,0,1-0.2,1.4-0.6
				c0.6-0.6,1.2-1.2,1.8-1.8c0.8-0.8,0.9-2,0.3-3c-0.3-0.4-0.6-0.8-0.9-1.2c-0.2-0.2-0.2-0.4,0-0.6c0.4-0.8,0.8-1.7,1.1-2.6
				c0.1-0.3,0.3-0.5,0.6-0.5c0.4,0,0.8-0.1,1.1-0.1c1.2-0.2,2-1.1,2.1-2.3c0-0.9,0-1.7,0-2.6c0-1.2-0.8-2-2-2.3
				c-0.4-0.1-0.8-0.1-1.2-0.2c-0.4,0-0.5-0.1-0.6-0.5c-0.1-0.5-0.3-1-0.5-1.5c-0.2-0.5-0.6-1-0.6-1.4c0.1-0.5,0.6-0.8,0.9-1.3
				c0.7-1,0.7-2.1-0.1-3.1c-0.6-0.6-1.2-1.3-1.8-1.9c-0.5-0.5-1-0.7-1.6-0.7c-0.5,0-0.9,0.1-1.4,0.4c-0.3,0.2-0.7,0.5-1,0.7
				c-0.1,0.1-0.2,0.1-0.3,0.1c-0.1,0-0.2,0-0.3-0.1c-0.8-0.4-1.5-0.8-2.3-1c-0.6-0.2-1-0.4-0.9-1.2c0-0.2,0-0.4-0.1-0.6
				c-0.1-1.3-1.1-2.2-2.3-2.2C41,62.7,40.4,62.7,39.9,62.7L39.9,62.7z M40,86.4C40,86.4,40,86.4,40,86.4c-3.5,0-6.2-2.8-6.2-6.3
				c0-3.4,2.8-6.2,6.3-6.2c0,0,0,0,0,0c3.5,0,6.3,2.8,6.3,6.4C46.3,83.7,43.5,86.4,40,86.4L40,86.4z"/>
		</g>
	</g>
	<g>
		<g>
			<path class="st2" d="M31.1,59c-0.7,0-1.3-0.5-1.4-1.2c-0.1-1.1-0.3-2.3-0.4-3.4c-0.1-1-0.8-1.3-1-1.4c-1.4-0.6-2.8-1.2-4.1-1.7
				c-0.2-0.1-0.5-0.2-0.7-0.2c-0.3,0-0.6,0.1-0.9,0.4c-0.8,0.7-1.6,1.3-2.5,2c-0.4,0.3-0.8,0.5-1.1,0.5c-0.4,0-0.7-0.2-1.1-0.6
				c-1.2-1.2-2.5-2.4-3.7-3.7c-0.8-0.8-0.8-1.4-0.2-2.3c0.6-0.8,1.3-1.6,2-2.4c0.4-0.5,0.5-1.1,0.2-1.7c-0.6-1.3-1.2-2.7-1.7-3.9
				c-0.2-0.6-0.7-0.9-1.3-1l-0.2,0c-1.1-0.1-2.2-0.2-3.2-0.4c-0.5-0.1-0.9-0.3-1.1-0.8l-0.1-0.3v-6.3c0.3-0.8,0.8-1.1,1.7-1.1
				c0.5,0,1.1-0.1,1.6-0.2c0.4,0,0.7-0.1,1.1-0.1c1-0.1,1.2-0.8,1.3-1.1c0.6-1.5,1.1-2.9,1.7-4.3c0.3-0.6,0.2-1.2-0.2-1.7
				c-0.4-0.5-0.8-1-1.3-1.6L14,19.8c-0.6-0.8-0.6-1.5,0.1-2.2c1.2-1.2,2.5-2.5,3.7-3.7c0.4-0.4,0.8-0.6,1.1-0.6
				c0.3,0,0.7,0.1,1.1,0.4l0.8,0.6c0.5,0.4,1,0.8,1.5,1.2c0.2,0.2,0.6,0.3,0.9,0.3c0.2,0,0.5-0.1,0.7-0.2c1.5-0.8,3.1-1.5,4.7-2
				c0.5-0.1,0.9-0.6,1-1.2c0.1-0.9,0.2-1.8,0.3-2.7c0.1-1.1,0.6-1.5,1.6-1.5l5.4,0c0.6,0,1.3,0.2,1.5,1.3c0.1,1,0.3,2,0.4,2.9
				c0.1,0.6,0.4,1.1,1,1.3c0.8,0.3,1.6,0.7,2.4,1c0.7,0.3,1.5,0.6,2.2,0.9c0.2,0.1,0.4,0.1,0.6,0.1c0.2,0,0.6,0,0.9-0.3
				c0.5-0.3,0.9-0.7,1.3-1c0.3-0.2,0.6-0.5,0.9-0.7c0.4-0.3,0.7-0.4,1-0.4c0.3,0,0.7,0.2,1,0.5c1.3,1.2,2.6,2.6,3.9,3.9
				c0.6,0.6,0.6,1.3,0.1,2c-0.6,0.7-1.2,1.5-1.8,2.2c-0.6,0.7-0.3,1.4-0.2,1.6c0.6,1.4,1.2,2.9,1.8,4.3c0.2,0.6,0.7,0.9,1.3,1l0.5,0
				c0.9,0.1,1.8,0.2,2.6,0.3c0.7,0.1,1.1,0.6,1.1,1.3c0,1.9,0,3.8,0,5.9c0,0.6-0.5,1.2-1.1,1.3c-0.9,0.1-1.9,0.2-2.8,0.3l-0.3,0
				c-0.7,0.1-1.1,0.4-1.3,1c-0.6,1.4-1.2,2.8-1.8,4.3c-0.1,0.3-0.4,1,0.2,1.7c0.5,0.6,1,1.3,1.6,2l0.3,0.3c0.6,0.8,0.6,1.5-0.1,2.2
				c-1.2,1.3-2.5,2.5-3.8,3.8c-0.4,0.4-0.7,0.5-1.1,0.5l0,0c-0.3,0-0.7-0.1-1-0.4c-0.8-0.6-1.6-1.3-2.4-1.9c-0.3-0.2-0.6-0.4-1-0.4
				c-0.3,0-0.5,0.1-0.7,0.2c-1.5,0.6-2.9,1.2-4.3,1.8c-0.4,0.2-1.1,0.5-1.1,1.5c-0.1,0.7-0.2,1.4-0.2,2.2l-0.1,1
				c-0.1,0.8-0.7,1.3-1.4,1.3l-2.7,0L31.1,59z M34.2,23c-5.6,0-10.3,4.5-10.5,10c-0.1,2.9,1,5.7,3,7.7c1.9,2,4.6,3.1,7.2,3.1l0.3,0
				c5.7,0,10.4-4.6,10.4-10.3c0-2.8-1.1-5.5-3-7.5C39.6,24.1,37,23,34.2,23L34.2,23z"/>
			<path d="M34.6,9.2l2.4,0c0.4,0,0.5,0.1,0.5,0.4c0.1,0.9,0.2,1.9,0.3,2.8c0.1,1,0.7,1.7,1.6,2.1c0.8,0.3,1.6,0.7,2.4,1
				c0.7,0.3,1.5,0.6,2.2,0.9c0.3,0.1,0.6,0.2,1,0.2c0.6,0,1.1-0.2,1.5-0.5c0.5-0.3,0.9-0.7,1.3-1.1c0.3-0.2,0.6-0.5,0.9-0.7
				c0.2-0.2,0.3-0.2,0.4-0.2c0.1,0,0.2,0.1,0.3,0.2c1.3,1.2,2.6,2.6,3.9,3.9c0.2,0.2,0.3,0.3,0,0.7c-0.6,0.8-1.2,1.5-1.7,2.2
				c-0.4,0.5-0.9,1.4-0.4,2.6c0.6,1.5,1.2,2.9,1.8,4.3c0.4,0.9,1.1,1.5,2.1,1.6l0.5,0c0.9,0.1,1.7,0.2,2.6,0.3
				c0.3,0,0.3,0.2,0.3,0.3c0,1.9,0,3.8,0,5.9c0,0.2-0.2,0.3-0.3,0.3c-0.9,0.1-1.8,0.2-2.8,0.3l-0.3,0c-1,0.1-1.8,0.7-2.2,1.6
				c-0.6,1.4-1.2,2.8-1.8,4.3c-0.5,1.3-0.1,2.2,0.3,2.7c0.5,0.6,1,1.3,1.5,2l0.3,0.3c0.4,0.5,0.3,0.5,0,0.9
				c-1.2,1.3-2.5,2.5-3.7,3.8c-0.2,0.2-0.3,0.2-0.4,0.2c-0.1,0-0.2-0.1-0.4-0.2c-0.9-0.7-1.6-1.3-2.4-1.9c-0.5-0.4-1-0.6-1.6-0.6
				c-0.4,0-0.7,0.1-1.1,0.2c-1.5,0.6-2.9,1.2-4.3,1.7c-1.3,0.5-1.7,1.5-1.8,2.3c-0.1,0.7-0.1,1.4-0.2,2.1c0,0.3-0.1,0.6-0.1,1
				c0,0.4-0.3,0.4-0.4,0.4c-0.9,0-1.8,0-2.8,0l-2.9,0c-0.4,0-0.4-0.3-0.4-0.3c-0.1-1.1-0.3-2.2-0.4-3.4c-0.1-0.7-0.4-1.7-1.7-2.2
				c-1.4-0.6-2.8-1.2-4.1-1.7c-0.4-0.2-0.7-0.2-1.1-0.2c-0.6,0-1.1,0.2-1.6,0.6c-0.8,0.7-1.6,1.3-2.5,1.9c-0.3,0.2-0.4,0.3-0.5,0.3
				c0,0-0.2-0.1-0.4-0.3c-1.2-1.2-2.5-2.4-3.7-3.7c-0.4-0.4-0.4-0.5-0.1-0.9c0.7-0.9,1.3-1.7,1.9-2.4c0.7-0.8,0.8-1.8,0.4-2.7
				c-0.6-1.3-1.1-2.6-1.6-3.9c-0.4-1-1.1-1.5-2.2-1.6l-0.2,0C12.1,37.2,11,37.1,10,37c-0.1,0-0.2,0-0.3-0.3c0,0,0,0,0-0.1v-5.9
				c0.1-0.2,0.3-0.3,0.8-0.3c0.6,0,1.1-0.1,1.7-0.2c0.3,0,0.7-0.1,1-0.1c0.6-0.1,1.7-0.3,2.2-1.7c0.6-1.5,1.1-2.9,1.7-4.3
				c0.5-1.2,0.1-2.1-0.4-2.7c-0.4-0.5-0.8-1-1.2-1.6l-0.6-0.7c-0.3-0.4-0.3-0.5,0-0.9c1.2-1.2,2.5-2.5,3.7-3.7
				c0.2-0.2,0.4-0.3,0.4-0.3c0.1,0,0.2,0,0.4,0.2c0.3,0.2,0.5,0.4,0.8,0.6c0.5,0.4,1,0.8,1.5,1.2c0.6,0.4,1.2,0.5,1.5,0.5
				c0.4,0,0.8-0.1,1.2-0.3c1.4-0.8,2.9-1.4,4.5-1.9c0.9-0.3,1.6-1.1,1.7-2c0.1-0.9,0.2-1.8,0.3-2.8c0.1-0.6,0.2-0.6,0.7-0.6l0.8,0
				L34.6,9.2 M33.9,44.8c0.1,0,0.2,0,0.3,0c6.3,0,11.4-5.1,11.4-11.3c0-3.1-1.2-6-3.3-8.2c-2.2-2.2-5-3.4-8.1-3.4
				c-6.1,0-11.3,4.9-11.5,11c-0.1,3.2,1.1,6.2,3.2,8.4C28.1,43.6,31,44.8,33.9,44.8 M34.6,7.2c-1,0-2,0-3,0c-1.6,0-2.5,0.9-2.6,2.4
				c-0.1,0.9-0.2,1.8-0.3,2.7c0,0.1-0.2,0.3-0.3,0.3c-1.7,0.5-3.3,1.2-4.9,2.1c0,0-0.1,0-0.2,0c-0.1,0-0.2,0-0.3-0.1
				c-0.8-0.6-1.5-1.2-2.3-1.8c-0.6-0.4-1.1-0.7-1.7-0.7c-0.6,0-1.3,0.3-1.8,0.9c-1.2,1.2-2.5,2.5-3.7,3.7c-1.1,1.1-1.2,2.3-0.2,3.6
				c0.6,0.8,1.2,1.5,1.8,2.3c0.2,0.2,0.2,0.4,0.1,0.7c-0.6,1.4-1.2,2.9-1.7,4.3c-0.1,0.3-0.2,0.4-0.5,0.4c-0.9,0.1-1.8,0.2-2.7,0.3
				c-1.3,0.1-2.2,0.7-2.6,2c0,2.2,0,4.5,0,6.7c0.1,0.2,0.1,0.3,0.2,0.5c0.4,0.8,1,1.3,1.8,1.4c1.1,0.2,2.3,0.3,3.4,0.4
				c0.3,0,0.4,0.1,0.5,0.4c0.5,1.3,1.1,2.6,1.7,4c0.1,0.3,0.1,0.4-0.1,0.6c-0.7,0.8-1.3,1.6-2,2.5c-1,1.2-0.9,2.5,0.2,3.6
				c1.2,1.2,2.5,2.5,3.7,3.7c0.6,0.6,1.2,0.9,1.8,0.9c0.6,0,1.1-0.2,1.7-0.7c0.8-0.6,1.7-1.3,2.5-2c0.1-0.1,0.2-0.1,0.3-0.1
				c0.1,0,0.2,0,0.3,0.1c1.4,0.6,2.7,1.2,4.1,1.8c0.3,0.1,0.4,0.2,0.4,0.5c0.1,1.1,0.2,2.3,0.4,3.4c0.2,1.2,1.2,2.1,2.4,2.1
				c1,0,2,0,2.9,0c0.9,0,1.8,0,2.8,0c1.3,0,2.3-0.9,2.4-2.2c0.1-1,0.3-2.1,0.4-3.1c0-0.4,0.2-0.5,0.5-0.6c1.5-0.6,2.9-1.2,4.4-1.8
				c0.1,0,0.2-0.1,0.3-0.1c0.1,0,0.2,0,0.3,0.1c0.8,0.7,1.6,1.3,2.4,1.9c0.5,0.4,1.1,0.6,1.6,0.6c0.6,0,1.2-0.3,1.8-0.8
				c1.3-1.2,2.5-2.5,3.8-3.8c1.1-1.1,1.2-2.3,0.2-3.5c-0.6-0.8-1.2-1.6-1.8-2.3c-0.2-0.2-0.2-0.4-0.1-0.7c0.6-1.4,1.2-2.9,1.8-4.4
				c0.1-0.3,0.2-0.4,0.5-0.4c1-0.1,2.1-0.2,3.1-0.4c1.1-0.2,2-1.1,2-2.2c0-2,0-4,0-6c0-1.2-0.8-2.1-2-2.2c-1-0.2-2.1-0.3-3.1-0.4
				c-0.3,0-0.4-0.1-0.5-0.4c-0.6-1.5-1.2-2.9-1.8-4.4c-0.1-0.2-0.1-0.4,0.1-0.6c0.6-0.7,1.2-1.5,1.8-2.2c0.8-1.1,0.8-2.3-0.1-3.3
				c-1.3-1.3-2.6-2.7-3.9-4c-0.5-0.5-1.1-0.8-1.7-0.8c-0.5,0-1.1,0.2-1.6,0.6c-0.7,0.6-1.4,1.2-2.2,1.7c-0.1,0.1-0.2,0.1-0.3,0.1
				c-0.1,0-0.2,0-0.2,0c-1.6-0.6-3.1-1.3-4.7-1.9c-0.3-0.1-0.3-0.2-0.4-0.5c-0.1-1-0.2-2-0.4-2.9c-0.2-1.3-1.1-2.1-2.5-2.1
				C36.2,7.2,35.4,7.2,34.6,7.2L34.6,7.2z M33.9,42.8c-4.7,0-9.4-4-9.2-9.8c0.1-4.8,4.2-9,9.5-9c0,0,0,0,0,0c5.2,0,9.4,4.3,9.4,9.6
				c0,5.1-4.3,9.3-9.4,9.3C34.1,42.8,34,42.8,33.9,42.8L33.9,42.8z"/>
		</g>
		<g>
			<path class="st2" d="M74.7,76.8c-0.7,0-1.2-0.4-1.4-1.1c-0.2-0.7-0.3-1.4-0.5-2.3c-0.1-0.6-0.5-1.1-1.2-1.3
				c-1.2-0.4-2.3-0.7-3.3-1.1c-0.2-0.1-0.4-0.1-0.6-0.1c-0.4,0-0.7,0.2-1,0.4c-0.5,0.5-1.1,1-1.6,1.5c-0.3,0.3-0.7,0.4-1,0.4
				c-0.3,0-0.6-0.1-0.9-0.4c-1-0.8-2.1-1.7-3.1-2.6c-0.4-0.4-0.5-1.1-0.2-1.7c0.4-0.6,0.8-1.3,1.3-1.9c0.4-0.5,0.4-1.1,0.1-1.7
				c-0.5-0.9-1-1.9-1.5-3c-0.3-0.6-0.8-0.9-1.4-0.9c-0.8,0-1.5,0-2.3-0.1c-0.7,0-1.2-0.5-1.3-1.1c-0.2-1.4-0.3-2.8-0.4-4.2
				c0-0.7,0.4-1.2,1.1-1.3c0.7-0.2,1.4-0.3,2.1-0.4c0.6-0.1,1-0.5,1.2-1.1c0.3-1.2,0.7-2.4,1.1-3.6c0.2-0.6,0.1-1.1-0.4-1.6
				c-0.4-0.5-0.9-0.9-1.3-1.4l-0.2-0.2c-0.5-0.5-0.5-1.2-0.2-1.6c0.9-1.1,1.8-2.3,2.9-3.4c0.2-0.2,0.5-0.3,0.8-0.3
				c0.3,0,0.5,0.1,0.7,0.2c0.2,0.1,0.5,0.3,0.7,0.4l1.7,1.1l1.5-0.7c1.1-0.5,2.1-1,3.2-1.6c0.4-0.2,0.8-0.7,0.8-1.2
				c0-0.4,0-0.8,0.1-1.2c0-0.3,0-0.5,0-0.8c0-0.8,0.5-1.3,1.2-1.4c1.3-0.1,2.5-0.2,3.8-0.3c0.1,0,0.1,0,0.2,0c0.9,0,1.3,0.4,1.5,1.3
				c0,0.2,0.1,0.4,0.1,0.6c0.1,0.4,0.1,0.8,0.2,1.2c0.1,0.5,0.5,0.9,1,1.1c1.3,0.4,2.6,0.9,3.9,1.3c0.1,0,0.3,0.1,0.4,0.1
				c0.4,0,0.7-0.1,1-0.3c0.3-0.3,0.7-0.6,1-0.9l0.4-0.4c0.3-0.3,0.7-0.5,1-0.5c0.3,0,0.6,0.1,0.9,0.4c1,0.8,2,1.6,3,2.5
				c0.5,0.5,0.6,1.2,0.2,1.8c-0.4,0.6-0.7,1.1-1.1,1.7c-0.4,0.5-0.4,1.1-0.1,1.6c0.7,1.3,1.2,2.3,1.7,3.3c0.3,0.6,0.8,0.9,1.4,0.9
				c0.7,0,1.3,0,2,0.1c0.7,0,1.2,0.5,1.3,1.1c0.2,1.4,0.3,2.8,0.4,4.2c0,0.6-0.4,1.2-1,1.3c-0.3,0.1-0.7,0.2-1.1,0.2
				c-0.4,0.1-0.8,0.2-1.1,0.3c-0.5,0.1-0.9,0.5-1.1,1c-0.2,0.6-0.4,1.2-0.6,1.8c-0.2,0.6-0.4,1.2-0.6,1.9c-0.2,0.6-0.1,1.2,0.4,1.6
				c0.5,0.5,1,1,1.5,1.5c0.5,0.6,0.6,1.3,0.1,1.9c-0.8,1-1.7,2-2.5,3c-0.3,0.3-0.6,0.5-1,0.5l0,0c-0.2,0-0.5-0.1-0.7-0.2
				c-0.3-0.2-0.7-0.4-1-0.7c-0.3-0.2-0.6-0.4-1-0.6c-0.3-0.2-0.6-0.2-0.8-0.2c-0.2,0-0.4,0-0.7,0.2c-0.6,0.3-1.1,0.6-1.7,0.8
				c-0.6,0.3-1.2,0.6-1.8,0.9c-0.6,0.3-0.9,0.8-0.9,1.4c0,0.7,0,1.4-0.1,2.2c0,0.8-0.5,1.3-1.3,1.4c-1.2,0.1-2.4,0.2-3.9,0.3
				L74.7,76.8z M75.1,47.1c-4.5,0-8.5,3.8-8.6,8.4c-0.1,5,3.7,8.9,8.6,9.1l0.2,0c4.7,0,8.6-3.9,8.6-8.7c0-4.9-3.8-8.7-8.7-8.8
				L75.1,47.1z"/>
			<path d="M75.4,36.3C75.4,36.3,75.4,36.3,75.4,36.3L75.4,36.3c0.3,0,0.4,0,0.6,0.6c0,0.2,0.1,0.4,0.1,0.6c0.1,0.4,0.2,0.8,0.3,1.2
				c0.2,0.8,0.9,1.5,1.7,1.8c1.3,0.4,2.6,0.9,3.9,1.3c0.2,0.1,0.5,0.1,0.7,0.1c0.6,0,1.2-0.2,1.6-0.6c0.4-0.3,0.7-0.6,1-0.9
				c0.1-0.1,0.3-0.3,0.4-0.4c0.1-0.1,0.3-0.2,0.4-0.2c0.1,0,0.2,0.1,0.3,0.1c1,0.8,2,1.6,3,2.5c0.1,0.1,0.2,0.3,0.1,0.5
				c-0.3,0.5-0.6,1-1.1,1.6c-0.3,0.5-0.8,1.5-0.1,2.7c0.7,1.2,1.2,2.3,1.6,3.2c0.5,0.9,1.3,1.5,2.3,1.5c0.7,0,1.4,0,2,0.1
				c0.1,0,0.3,0.1,0.3,0.2c0.2,1.3,0.3,2.7,0.4,4.1c0,0.2-0.2,0.3-0.3,0.3c-0.3,0.1-0.7,0.2-1,0.2c-0.4,0.1-0.8,0.2-1.2,0.3
				c-0.8,0.2-1.5,0.9-1.8,1.7c-0.2,0.6-0.4,1.2-0.6,1.8c-0.2,0.6-0.4,1.2-0.6,1.8c-0.3,1-0.1,1.9,0.6,2.6c0.5,0.5,0.9,0.9,1.4,1.5
				c0.2,0.2,0.2,0.4,0,0.6c-0.8,1-1.6,2-2.5,3c-0.1,0.1-0.2,0.2-0.3,0.2c-0.1,0-0.1,0-0.2-0.1c-0.3-0.2-0.6-0.4-1-0.6
				c-0.3-0.2-0.7-0.4-1-0.7c-0.4-0.2-0.8-0.3-1.3-0.3c-0.4,0-0.8,0.1-1.1,0.3c-0.6,0.3-1.1,0.6-1.7,0.8c-0.6,0.3-1.2,0.6-1.8,0.9
				c-0.9,0.5-1.5,1.3-1.5,2.3c0,0.6,0,1.3-0.1,2.1c0,0.4-0.2,0.5-0.4,0.5c-1.2,0.1-2.4,0.2-3.8,0.3l-0.1,0c-0.2,0-0.3,0-0.4-0.3
				c-0.2-0.6-0.3-1.3-0.4-2.2c-0.1-0.6-0.5-1.6-1.9-2.1c-1.2-0.4-2.3-0.7-3.3-1.1c-0.3-0.1-0.6-0.2-0.9-0.2c-0.4,0-1.1,0.1-1.7,0.7
				c-0.4,0.4-1,1-1.6,1.5c-0.1,0.1-0.3,0.2-0.3,0.2c-0.1,0-0.2-0.1-0.3-0.1c-1-0.8-2-1.6-3.1-2.6c-0.1-0.1-0.1-0.3,0-0.4
				c0.4-0.6,0.8-1.2,1.3-1.9c0.6-0.9,0.6-1.8,0.1-2.7c-0.5-0.9-1-1.9-1.5-2.9c-0.5-0.9-1.3-1.5-2.3-1.5c-0.9,0-1.6,0-2.3-0.1
				c-0.3,0-0.3-0.1-0.3-0.2c-0.2-1.3-0.3-2.7-0.4-4.1c0-0.2,0.2-0.3,0.3-0.3c0.6-0.1,1.3-0.3,2-0.4c0.6-0.1,1.6-0.5,2-1.8
				c0.4-1.4,0.7-2.5,1.1-3.5c0.3-1,0.1-1.9-0.6-2.6c-0.4-0.5-0.9-0.9-1.3-1.4l-0.2-0.2c-0.1-0.1-0.2-0.3-0.1-0.3
				c0.8-1.1,1.8-2.2,2.8-3.4c0,0,0,0,0.1,0c0.1,0,0.2,0,0.2,0.1c0.2,0.1,0.4,0.3,0.6,0.4l0.3,0.2l0.7,0.5l0.2,0.2l1,0.6l1-0.5
				l0.9-0.5c1.1-0.5,2.2-1.1,3.2-1.6c0.8-0.4,1.3-1.2,1.4-2.1c0-0.4,0-0.9,0.1-1.3c0-0.3,0-0.5,0-0.8c0-0.4,0.3-0.4,0.3-0.4
				c1.3-0.1,2.5-0.2,3.7-0.3C75.4,36.3,75.4,36.3,75.4,36.3 M75.3,65.6c5.3,0,9.6-4.3,9.6-9.7c0-5.4-4.2-9.7-9.6-9.8
				c-0.1,0-0.1,0-0.2,0c-5.1,0-9.4,4.3-9.6,9.4c-0.1,5.5,4.1,9.9,9.6,10.1C75.2,65.6,75.2,65.6,75.3,65.6 M75.4,34.3
				c-0.1,0-0.2,0-0.2,0c-1.3,0.1-2.5,0.2-3.8,0.3c-1.2,0.1-2.1,1.1-2.1,2.3c0,0.7,0,1.3-0.1,2c0,0.1-0.1,0.4-0.3,0.4
				c-1.3,0.7-2.7,1.3-4.1,2c-0.2-0.2-0.6-0.4-0.9-0.6c-0.3-0.2-0.7-0.5-1-0.7c-0.4-0.2-0.8-0.3-1.3-0.3c-0.6,0-1.2,0.2-1.6,0.7
				c-1,1.1-2,2.3-2.9,3.5c-0.7,0.9-0.5,2.1,0.2,2.9c0.5,0.5,1,1.1,1.5,1.6C59,48.6,59,48.7,59,49c-0.4,1.2-0.7,2.4-1.1,3.6
				c-0.1,0.2-0.2,0.4-0.4,0.4c-0.7,0.1-1.4,0.3-2.2,0.4c-1.2,0.3-1.9,1.2-1.9,2.4c0.1,1.4,0.2,2.9,0.4,4.3c0.1,1.2,1,1.9,2.2,2
				c0.8,0,1.6,0.1,2.3,0.1c0.3,0,0.4,0.1,0.5,0.4c0.5,1,1,2,1.6,3c0.1,0.3,0.1,0.4,0,0.6c-0.5,0.7-0.9,1.3-1.3,2
				c-0.6,1-0.4,2.3,0.4,3c1,0.9,2.1,1.8,3.1,2.6c0.5,0.4,1,0.6,1.5,0.6c0.6,0,1.1-0.2,1.7-0.7c0.6-0.5,1.1-1,1.7-1.6
				c0.1-0.1,0.2-0.2,0.3-0.2c0.1,0,0.1,0,0.2,0c1.1,0.4,2.2,0.7,3.4,1.1c0.3,0.1,0.4,0.2,0.5,0.5c0.1,0.8,0.3,1.6,0.5,2.3
				c0.3,1.2,1.2,1.9,2.3,1.9c0.1,0,0.1,0,0.2,0c1.3-0.1,2.6-0.2,3.9-0.3c1.3-0.1,2.1-1.1,2.2-2.4c0-0.7,0.1-1.5,0.1-2.2
				c0-0.3,0.1-0.4,0.4-0.5c1.2-0.6,2.3-1.2,3.5-1.7c0.1,0,0.2-0.1,0.3-0.1c0.1,0,0.2,0,0.3,0.1c0.7,0.4,1.3,0.9,2,1.3
				c0.4,0.2,0.8,0.4,1.2,0.4c0.7,0,1.3-0.3,1.8-0.8c0.9-1,1.7-2,2.6-3c0.8-1,0.7-2.2-0.1-3.2c-0.5-0.5-1-1.1-1.5-1.6
				c-0.2-0.2-0.2-0.3-0.1-0.6c0.4-1.2,0.8-2.4,1.2-3.6c0.1-0.2,0.2-0.3,0.4-0.4c0.7-0.2,1.5-0.3,2.2-0.5c1.1-0.3,1.8-1.2,1.8-2.4
				c-0.1-1.4-0.2-2.9-0.4-4.3c-0.1-1.1-1.1-1.9-2.2-2c-0.7,0-1.4-0.1-2.1-0.1c-0.3,0-0.4-0.1-0.5-0.3c-0.5-1.1-1.1-2.2-1.7-3.3
				c-0.1-0.2-0.1-0.4,0-0.6c0.4-0.6,0.8-1.1,1.1-1.7c0.6-1,0.5-2.3-0.4-3.1c-1-0.9-2-1.7-3-2.6c-0.5-0.4-1-0.6-1.5-0.6
				c-0.6,0-1.2,0.2-1.7,0.7c-0.5,0.4-0.9,0.9-1.4,1.3c-0.1,0.1-0.2,0.1-0.4,0.1c0,0-0.1,0-0.1,0c-1.3-0.4-2.6-0.8-3.9-1.3
				c-0.2-0.1-0.3-0.2-0.4-0.4c-0.1-0.6-0.2-1.2-0.4-1.7C77.7,35,76.8,34.3,75.4,34.3L75.4,34.3z M75.3,63.6c-0.1,0-0.1,0-0.2,0
				c-4.4-0.1-7.8-3.6-7.7-8c0.1-4,3.6-7.4,7.6-7.4c0.1,0,0.1,0,0.2,0c4.2,0,7.7,3.4,7.7,7.8C82.9,60.2,79.4,63.6,75.3,63.6
				L75.3,63.6z"/>
		</g>
		<g>
			<path class="st2" d="M43.4,94.5c-0.7,0-1.3,0-2,0c-0.9,0-1.4-0.5-1.5-1.4c0-0.1,0-0.3,0-0.5c0-0.5,0-1.2-0.4-1.7
				c-0.4-0.5-1-0.7-1.5-0.9c-0.2,0-0.3-0.1-0.4-0.1c-0.5-0.2-0.9-0.4-1.2-0.6c-0.3-0.2-0.5-0.2-0.8-0.2c-0.3,0-0.7,0.1-1,0.4
				c-0.3,0.3-0.7,0.5-1,0.8c-0.3,0.2-0.6,0.4-0.9,0.4c-0.4,0-0.7-0.2-1-0.5c-0.5-0.5-1-1-1.5-1.6c-0.6-0.6-0.7-1.3-0.1-2
				c0.1-0.1,0.2-0.3,0.3-0.4c0.2-0.2,0.4-0.5,0.6-0.7c0.3-0.4,0.3-1,0.2-1.4c-0.4-0.9-0.7-1.8-1-2.6c-0.2-0.4-0.6-0.8-1.1-0.9
				c-0.3-0.1-0.7-0.1-1-0.2l-0.4-0.1c-0.8-0.1-1.2-0.6-1.2-1.4c0-0.9,0-1.7,0-2.6c0-0.6,0.6-1.2,1.3-1.2c0.1,0,0.2,0,0.3,0
				c0.1,0,0.3,0,0.4,0c0.1,0,0.2,0,0.2,0c1.3,0,1.6-1.1,1.7-1.4c0.2-0.7,0.5-1.3,0.8-2l0.1-0.3c0.3-0.6,0.2-1.2-0.2-1.7
				c-0.3-0.4-0.6-0.7-0.8-1.1c-0.4-0.6-0.4-1.2,0.1-1.7c0.6-0.6,1.3-1.3,2-1.9c0.3-0.2,0.5-0.3,0.7-0.3c0.3,0,0.5,0.1,0.8,0.2
				c0.4,0.3,0.8,0.6,1,0.8c0.3,0.3,0.6,0.4,1,0.4c0.2,0,0.4,0,0.7-0.2c0.8-0.4,1.8-0.8,2.8-1.2c0.7-0.3,1.1-0.8,1.2-1.5
				c0-0.2,0-0.4,0.1-0.6c0-0.1,0-0.3,0.1-0.4c0.1-0.7,0.6-1.2,1.3-1.2c0.3,0,0.7,0,1,0c0.5,0,1,0,1.6,0c0.7,0,1.3,0.5,1.4,1.3
				c0,0.1,0,0.2,0,0.2c0,0,0,0.1,0,0.1c-0.2,1.6,1.2,2,1.6,2.2c0.6,0.2,1.1,0.5,1.7,0.8l0.4,0.2c0.2,0.1,0.4,0.2,0.8,0.2
				c0.3,0,0.7-0.1,1-0.4c0.3-0.2,0.6-0.5,0.9-0.7c0.3-0.2,0.6-0.3,0.8-0.3c0.3,0,0.6,0.1,0.9,0.4c0.6,0.6,1.2,1.2,1.7,1.8
				c0.5,0.6,0.5,1.2,0.1,1.8c-0.1,0.1-0.2,0.2-0.3,0.3c-0.3,0.4-0.7,0.8-0.8,1.4c-0.1,0.6,0.2,1.1,0.4,1.5c0.1,0.1,0.1,0.2,0.2,0.4
				c0.2,0.4,0.4,0.9,0.5,1.4c0.1,0.5,0.5,1.2,1.6,1.3c0.3,0,0.7,0.1,1,0.1c0.7,0.1,1.1,0.6,1.1,1.3c0,0.9,0,1.7,0,2.5
				c0,0.7-0.5,1.2-1.3,1.3l-0.1,0c-0.3,0-0.6,0.1-0.9,0.1c-0.7,0-1.3,0.4-1.6,1.1c-0.3,0.7-0.6,1.5-1.1,2.5
				c-0.3,0.6-0.2,1.2,0.2,1.7c0.3,0.4,0.6,0.8,0.8,1.1c0.4,0.6,0.3,1.2-0.2,1.7c-0.5,0.6-1.1,1.1-1.8,1.7c-0.3,0.3-0.6,0.4-0.8,0.4
				c-0.5,0-0.9-0.2-1.2-0.5c-0.1-0.1-0.2-0.2-0.3-0.2c-0.4-0.3-0.8-0.7-1.4-0.8l-0.1,0l-0.1,0c-0.5,0-0.9,0.2-1.2,0.4
				C48.3,89.9,48.2,90,48,90c-0.6,0.2-1.1,0.4-1.7,0.6c-0.7,0.2-1.1,0.7-1.1,1.4c0,0.4-0.1,0.9-0.2,1.3c-0.1,0.7-0.6,1.2-1.4,1.2
				H43.4z M42.8,70.4c-1.9,0-3.8,0.8-5.2,2.1c-1.4,1.4-2.1,3.2-2.1,5.1c0,4.1,3.2,7.3,7.2,7.3c4,0,7.3-3.2,7.3-7.2
				C50.1,73.7,46.9,70.4,42.8,70.4L42.8,70.4z"/>
			<path d="M42.7,62.2c0.5,0,1,0,1.5,0c0.1,0,0.4,0,0.4,0.4c0,0.1,0,0.2,0,0.3c-0.1,0.9,0.2,2.4,2.3,3.1c0.5,0.2,1,0.4,1.6,0.7
				L49,67c0.4,0.2,0.8,0.3,1.2,0.3c0.4,0,1-0.1,1.6-0.6c0.3-0.2,0.5-0.4,0.8-0.6c0.1-0.1,0.2-0.1,0.3-0.1c0.1,0,0.2,0.1,0.2,0.1
				c0.6,0.6,1.1,1.1,1.7,1.7c0.2,0.2,0.2,0.3,0,0.5c-0.1,0.1-0.1,0.2-0.2,0.2c-0.4,0.4-0.9,1-1.1,2c-0.1,0.9,0.3,1.7,0.6,2.1
				c0,0.1,0.1,0.2,0.1,0.2c0.2,0.4,0.3,0.8,0.4,1.2c0.3,1.2,1.2,2,2.5,2c0.3,0,0.6,0.1,0.9,0.1c0.3,0.1,0.3,0.2,0.3,0.4
				c0,0.8,0,1.6,0,2.4c0,0.2,0,0.4-0.4,0.4l-0.1,0c-0.3,0-0.5,0.1-0.7,0.1c-0.7,0-1.9,0.2-2.5,1.8c-0.3,0.7-0.6,1.5-1.1,2.5
				c-0.6,1.3-0.1,2.3,0.3,2.8c0.3,0.4,0.6,0.7,0.8,1c0.1,0.2,0.1,0.3,0,0.5c-0.5,0.5-1.1,1.1-1.7,1.7c-0.1,0.1-0.1,0.1-0.1,0.1
				c-0.2,0-0.4-0.1-0.5-0.2c-0.1-0.1-0.1-0.1-0.2-0.2c-0.4-0.4-1-1-2-1.1c-0.1,0-0.2,0-0.3,0c-0.8,0-1.4,0.3-1.7,0.6
				c-0.1,0-0.1,0.1-0.2,0.1c-0.5,0.2-1.1,0.4-1.6,0.5c-1.1,0.3-1.8,1.2-1.9,2.3c0,0.4-0.1,0.8-0.2,1.2c0,0.3-0.2,0.4-0.4,0.4l-0.3,0
				c-0.7,0-1.3,0-2,0c-0.4,0-0.5-0.1-0.5-0.5c0-0.1,0-0.2,0-0.4c0-0.6,0-1.5-0.6-2.3c-0.6-0.8-1.4-1-2-1.2c-0.1,0-0.3-0.1-0.3-0.1
				c-0.3-0.1-0.7-0.3-1.1-0.5c-0.4-0.2-0.8-0.4-1.3-0.4c-0.6,0-1.1,0.2-1.6,0.6c-0.3,0.2-0.6,0.5-1,0.8c-0.2,0.1-0.3,0.2-0.4,0.2
				c-0.1,0-0.2-0.1-0.3-0.2c-0.5-0.5-1-1-1.5-1.5c-0.3-0.3-0.3-0.4,0-0.7c0.1-0.1,0.2-0.3,0.3-0.4c0.2-0.2,0.4-0.5,0.6-0.8
				c0.5-0.7,0.6-1.6,0.3-2.4c-0.4-0.9-0.7-1.8-1.1-2.6c-0.3-0.7-1-1.3-1.8-1.5c-0.4-0.1-0.8-0.1-1.1-0.2c-0.1,0-0.3,0-0.4-0.1
				c-0.4-0.1-0.4-0.2-0.4-0.4c0-0.8,0-1.7,0-2.5c0-0.1,0.2-0.3,0.4-0.3c0.1,0,0.2,0,0.4,0c0.1,0,0.2,0,0.2,0c0.1,0,0.2,0,0.3,0
				c0.7,0,2.1-0.3,2.7-2.1c0.2-0.6,0.5-1.2,0.8-1.9l0.1-0.3c0.6-1.3,0-2.3-0.3-2.7c-0.3-0.3-0.5-0.7-0.8-1c-0.2-0.3-0.1-0.4,0-0.5
				c0.6-0.6,1.2-1.3,1.9-1.9c0,0,0,0,0.1,0c0,0,0.1,0,0.2,0.1c0.3,0.2,0.7,0.5,0.9,0.7c0.6,0.5,1.2,0.6,1.6,0.6
				c0.4,0,0.7-0.1,1.1-0.2c0.9-0.4,1.8-0.8,2.7-1.1c1.5-0.5,1.8-1.7,1.8-2.4c0-0.2,0-0.3,0.1-0.5c0-0.1,0-0.3,0.1-0.4
				c0-0.2,0.2-0.3,0.3-0.3C42,62.2,42.4,62.2,42.7,62.2 M42.8,86L42.8,86c4.6,0,8.3-3.7,8.3-8.2c0-2.2-0.8-4.3-2.4-5.9
				c-1.6-1.6-3.6-2.5-5.9-2.5c-2.2,0-4.3,0.9-5.9,2.4c-1.6,1.6-2.4,3.6-2.4,5.8C34.5,82.3,38.1,86,42.8,86L42.8,86 M42.7,60.2
				c-0.3,0-0.7,0-1,0c-1.2,0-2.1,0.9-2.2,2.1c0,0.3-0.1,0.7-0.1,1c0,0.3-0.2,0.5-0.5,0.6c-1,0.4-1.9,0.8-2.9,1.2
				c-0.1,0-0.2,0.1-0.3,0.1c-0.1,0-0.2,0-0.3-0.1c-0.4-0.3-0.7-0.6-1.1-0.9c-0.4-0.3-0.9-0.4-1.3-0.4c-0.5,0-1,0.2-1.4,0.5
				c-0.7,0.6-1.4,1.3-2.1,2c-0.8,0.8-0.8,2-0.2,3c0.3,0.4,0.6,0.8,0.9,1.1c0.2,0.2,0.2,0.4,0.1,0.6c-0.4,0.8-0.7,1.6-1,2.4
				C29,73.8,28.8,74,28.4,74c0,0-0.1,0-0.1,0c0,0-0.1,0-0.1,0c-0.3,0-0.5,0.1-0.8,0.1c-1.2,0.1-2.1,1-2.2,2.2c0,0.9-0.1,1.8,0,2.7
				c0,1.2,0.9,2.1,2.1,2.3c0.5,0.1,1,0.1,1.4,0.2c0.2,0,0.4,0.2,0.4,0.3c0.4,0.8,0.7,1.7,1,2.5c0.1,0.1,0,0.4,0,0.5
				c-0.3,0.4-0.6,0.7-0.9,1.1c-0.9,1.1-0.8,2.3,0.2,3.3c0.5,0.5,1,1.1,1.5,1.6c0.5,0.5,1.1,0.8,1.7,0.8c0.5,0,1-0.2,1.5-0.5
				c0.4-0.3,0.7-0.5,1.1-0.8c0.1-0.1,0.2-0.1,0.3-0.1c0.1,0,0.2,0,0.3,0.1c0.4,0.2,0.8,0.4,1.3,0.6c0.5,0.2,1.2,0.3,1.5,0.7
				c0.3,0.4,0.2,1.1,0.2,1.7c0.2,1.4,1.1,2.2,2.5,2.2c0.7,0,1.3,0,2,0c0.1,0,0.2,0,0.3,0c1.2,0,2.2-0.8,2.4-2
				c0.1-0.5,0.1-0.9,0.2-1.4c0-0.3,0.1-0.4,0.4-0.5c0.6-0.2,1.2-0.4,1.8-0.6c0.4-0.2,0.8-0.5,1.2-0.5c0,0,0,0,0.1,0
				c0.4,0.1,0.8,0.5,1.2,0.8c0.5,0.4,1,0.7,1.9,0.7c0.5,0,1-0.2,1.4-0.6c0.6-0.6,1.2-1.2,1.8-1.8c0.8-0.8,0.9-2,0.3-3
				c-0.3-0.4-0.6-0.8-0.9-1.2c-0.2-0.2-0.2-0.4,0-0.6c0.4-0.8,0.8-1.7,1.1-2.6c0.1-0.3,0.3-0.5,0.6-0.5c0.4,0,0.8-0.1,1.1-0.1
				c1.2-0.2,2-1.1,2.1-2.3c0-0.9,0-1.7,0-2.6c0-1.2-0.8-2-2-2.3c-0.4-0.1-0.8-0.1-1.2-0.2c-0.4,0-0.5-0.1-0.6-0.5
				c-0.1-0.5-0.3-1-0.5-1.5c-0.2-0.5-0.6-1-0.6-1.4c0.1-0.5,0.6-0.8,0.9-1.3c0.7-1,0.7-2.1-0.1-3.1c-0.6-0.6-1.2-1.3-1.8-1.9
				c-0.5-0.5-1-0.7-1.6-0.7c-0.5,0-0.9,0.1-1.4,0.4c-0.3,0.2-0.7,0.5-1,0.7c-0.1,0.1-0.2,0.1-0.3,0.1c-0.1,0-0.2,0-0.3-0.1
				c-0.8-0.4-1.5-0.8-2.3-1c-0.6-0.2-1-0.4-0.9-1.2c0-0.2,0-0.4-0.1-0.6c-0.1-1.3-1.1-2.2-2.3-2.2C43.8,60.2,43.2,60.2,42.7,60.2
				L42.7,60.2z M42.8,84C42.8,84,42.8,84,42.8,84c-3.5,0-6.2-2.8-6.2-6.3c0-3.4,2.8-6.2,6.3-6.2c0,0,0,0,0,0c3.5,0,6.3,2.8,6.3,6.4
				C49.1,81.2,46.2,84,42.8,84L42.8,84z"/>
		</g>
	</g>
</g>
</svg>
