<?xml version="1.0" encoding="utf-8"?>
<!-- Generator: Adobe Illustrator 21.0.0, SVG Export Plug-In . SVG Version: 6.00 Build 0)  -->
<svg version="1.1" id="Layer_1" xmlns="http://www.w3.org/2000/svg" xmlns:xlink="http://www.w3.org/1999/xlink" x="0px" y="0px"
	 viewBox="0 0 105 105" style="enable-background:new 0 0 105 105;" xml:space="preserve">
<style type="text/css">
	.st0{fill:#545454;}
	.st1{fill:none;stroke:#000000;stroke-width:3;stroke-miterlimit:10;}
	.st2{opacity:0.75;}
	.st3{fill:#282828;}
	.st4{fill:#1ED760;}
</style>
<g>
	<g>
		<rect x="1.5" y="1.5" class="st0" width="102" height="102"/>
		<rect x="1.5" y="1.5" class="st1" width="102" height="102"/>
	</g>
	<g>
		<g class="st2">
			<path class="st3" d="M49.5,92.9c-20.6,0-37.4-16.8-37.4-37.4s16.8-37.4,37.4-37.4S87,34.9,87,55.5S70.2,92.9,49.5,92.9z
				 M44.8,67.5c6.6,0,12.8,1.7,18.4,5.1c0.3,0.2,0.6,0.3,0.8,0.3c0.5,0,0.9-0.2,1.1-0.7c0.6-1-0.2-1.6-0.6-2
				c-0.3-0.2-0.7-0.4-1.1-0.6c-6-3.3-12.5-4.9-20.5-4.9h-0.6c-3.2,0-7.4,0.5-12,1.6c-1,0.2-1.2,0.7-1.3,1.2c0,0.5,0,0.8,0.2,1
				c0.3,0.3,0.8,0.5,1.4,0.5c0.2,0,0.4,0,0.6,0c0.9-0.1,1.8-0.3,2.7-0.4c3.3-0.5,6.6-1,10-1C44.2,67.5,44.5,67.5,44.8,67.5z
				 M43.1,56.8c3.2,0,6.5,0.3,9.8,1c5.1,1,9.6,2.6,13.7,5c0.4,0.2,0.9,0.4,1.3,0.4c1,0,1.8-0.7,1.9-1.7c0.1-0.8-0.1-1.5-1.6-2.3
				c-7.3-4.3-15.5-6.3-25-6.3c-0.6,0-1.2,0-1.8,0l0,0c-0.2,0-0.3,0-0.5,0c-0.1,0-0.3,0-0.4,0c-0.1,0-0.2,0-0.3,0L38,53.3
				c-2.9,0.5-6,1-9,1.5c-1,0.2-1.5,1-1.5,1.8c0,0.7,0.2,1.5,1,1.8c0.3,0.1,0.6,0.1,1,0.1s0.8-0.1,1.1-0.1
				C34.8,57.3,38.9,56.8,43.1,56.8z M43.7,45.4c11.1,0,19.9,2,27.6,6.3c0.4,0.2,0.8,0.3,1.2,0.3c0.9,0,1.7-0.5,2.2-1.3
				c0.7-1.2,0.4-2.6-0.8-3.3c-0.9-0.6-2-1.2-3.4-1.8c-7.5-3.5-16.1-5.2-26.3-5.3h-0.3c-6.2,0-12.2,0.8-16.5,2.1
				c-1.7,0.5-2.5,1.8-2.2,3.2c0.3,1.2,1.2,1.8,2.4,1.8c0.3,0,0.7-0.1,1.1-0.2c4.4-1.2,9-1.8,14.2-1.9L43.7,45.4z"/>
			<path class="st3" d="M49.5,19.1C69.7,19.1,86,35.4,86,55.5S69.7,91.9,49.5,91.9c-20.1,0-36.4-16.3-36.4-36.4S29.4,19.1,49.5,19.1
				 M27.6,48.5c0.4,0,0.9-0.1,1.3-0.2c4.6-1.3,9.2-1.8,13.9-1.8c0.3,0,0.5,0,0.8,0c9.5,0,18.7,1.4,27.1,6.2c0.5,0.3,1.1,0.4,1.7,0.4
				c1.2,0,2.4-0.7,3-1.8c0.9-1.7,0.5-3.6-1.2-4.7c-1.1-0.7-2.3-1.3-3.5-1.9c-8.5-3.9-17.4-5.3-26.7-5.3c-0.1,0-0.2,0-0.3,0
				c-6.3,0-12.4,0.8-16.8,2.1c-2.2,0.7-3.4,2.5-2.8,4.4C24.7,47.5,26,48.5,27.6,48.5 M29.6,59.5c0.5,0,1-0.1,1.4-0.2
				c4-1.1,8.1-1.6,12.1-1.6c3.2,0,6.4,0.3,9.6,0.9c4.7,0.9,9.2,2.5,13.4,4.9c0.6,0.4,1.2,0.5,1.8,0.5c1.4,0,2.7-1,2.9-2.6
				c0.2-1.6-0.8-2.5-2-3.3c-8-4.6-16.6-6.4-25.6-6.4c-0.6,0-1.2,0-1.8,0c-0.3,0-0.6,0-0.8,0s-0.3,0-0.5,0c-3.8,0.6-7.5,1.2-11.3,1.9
				c-1.4,0.3-2.3,1.5-2.3,2.7c0,1.3,0.5,2.4,1.7,2.7C28.7,59.5,29.1,59.5,29.6,59.5 M30.8,70c0.2,0,0.5,0,0.7-0.1
				c4.2-0.6,8.3-1.3,12.5-1.4c0.3,0,0.5,0,0.8,0c6.3,0,12.4,1.6,17.9,4.9c0.5,0.3,0.9,0.4,1.4,0.4c0.8,0,1.5-0.4,2-1.2
				c0.7-1.2,0.3-2.5-0.9-3.3c-0.4-0.2-0.8-0.5-1.1-0.7c-6.3-3.5-13-5-20.9-5c-0.1,0-0.2,0-0.2,0c-0.1,0-0.2,0-0.4,0
				c-3.6,0-7.9,0.6-12.2,1.6c-1.2,0.3-1.9,0.9-2.1,2.1C27.9,69,29,70,30.8,70 M49.5,17.1c-21.2,0-38.4,17.2-38.4,38.4
				s17.3,38.4,38.4,38.4S88,76.7,88,55.5S70.7,17.1,49.5,17.1L49.5,17.1z M27.6,46.5c-0.8,0-1.3-0.4-1.5-1.1c-0.3-1.3,0.9-1.8,1.5-2
				c4.2-1.3,10.1-2.1,16.2-2.1h0.3c10,0.1,18.5,1.8,25.8,5.2c1.3,0.6,2.4,1.2,3.3,1.7c0.7,0.5,0.9,1.2,0.5,2
				c-0.3,0.5-0.8,0.8-1.3,0.8c-0.2,0-0.5-0.1-0.7-0.2c-7.8-4.4-16.8-6.4-28.1-6.4c-0.3,0-0.5,0-0.8,0c-5.3,0-10,0.7-14.5,1.9
				C28.1,46.4,27.9,46.5,27.6,46.5L27.6,46.5z M29.6,57.5c-0.3,0-0.5,0-0.7-0.1c-0.1,0-0.3-0.1-0.3-0.8c0-0.3,0.2-0.7,0.7-0.8
				c3-0.6,6-1.1,8.9-1.5l2.3-0.4c0,0,0.1,0,0.2,0c0.1,0,0.2,0,0.3,0c0.2,0,0.3,0,0.5,0l0,0l0,0c0.6,0,1.2,0,1.7,0
				c9.3,0,17.4,2,24.6,6.1c1.1,0.6,1.1,1,1.1,1.3c-0.1,0.7-0.7,0.8-0.9,0.8c-0.3,0-0.5-0.1-0.8-0.2c-4.2-2.5-8.8-4.2-14.1-5.2
				c-3.4-0.6-6.7-1-10-1c-4.3,0-8.5,0.6-12.6,1.6C30.2,57.5,29.9,57.5,29.6,57.5L29.6,57.5z M30.1,67.8c0,0,0-0.1,0-0.3
				c0-0.1,0-0.2,0-0.2s0.1-0.1,0.5-0.2c4.6-1,8.6-1.6,11.8-1.6h0.3H43c7.8,0,14.1,1.5,20,4.7c0.4,0.2,0.7,0.4,1,0.6
				c0.5,0.3,0.4,0.5,0.3,0.6s-0.2,0.2-0.3,0.2c-0.1,0-0.2,0-0.3-0.1c-5.8-3.4-12.1-5.2-18.9-5.2c-0.3,0-0.5,0-0.8,0
				c-3.4,0.1-6.8,0.6-10.1,1c-0.9,0.1-1.8,0.3-2.7,0.4c-0.2,0-0.3,0-0.4,0C30.4,68,30.2,67.9,30.1,67.8L30.1,67.8z"/>
		</g>
		<g>
			<path class="st4" d="M52.5,89.9c-20.6,0-37.4-16.8-37.4-37.4s16.8-37.4,37.4-37.4S90,31.9,90,52.5S73.2,89.9,52.5,89.9z
				 M47.8,64.5c6.6,0,12.8,1.7,18.4,5.1c0.3,0.2,0.6,0.3,0.8,0.3c0.5,0,0.9-0.2,1.1-0.7c0.6-1-0.2-1.6-0.6-2
				c-0.3-0.2-0.7-0.4-1.1-0.6c-6-3.3-12.5-4.9-20.5-4.9h-0.6c-3.2,0-7.4,0.5-12,1.6c-1,0.2-1.2,0.7-1.3,1.2c0,0.5,0,0.8,0.2,1
				c0.3,0.3,0.8,0.5,1.4,0.5c0.2,0,0.4,0,0.6,0c0.9-0.1,1.8-0.3,2.7-0.4c3.3-0.5,6.6-1,10-1C47.2,64.5,47.5,64.5,47.8,64.5z
				 M46.1,53.8c3.2,0,6.5,0.3,9.8,1c5.1,1,9.6,2.6,13.7,5c0.4,0.2,0.9,0.4,1.3,0.4c1,0,1.8-0.7,1.9-1.7c0.1-0.8-0.1-1.5-1.6-2.3
				c-7.3-4.3-15.5-6.3-25-6.3c-0.6,0-1.2,0-1.8,0l0,0c-0.2,0-0.3,0-0.5,0c-0.1,0-0.3,0-0.4,0c-0.1,0-0.2,0-0.3,0L41,50.3
				c-2.9,0.5-6,1-9,1.5c-1,0.2-1.5,1-1.5,1.8c0,0.7,0.2,1.5,1,1.8c0.3,0.1,0.6,0.1,1,0.1s0.8-0.1,1.1-0.1
				C37.8,54.3,41.9,53.8,46.1,53.8z M46.7,42.4c11.1,0,19.9,2,27.6,6.3c0.4,0.2,0.8,0.3,1.2,0.3c0.9,0,1.7-0.5,2.2-1.3
				c0.7-1.2,0.4-2.6-0.8-3.3c-0.9-0.6-2-1.2-3.4-1.8c-7.5-3.5-16.1-5.2-26.3-5.3h-0.3c-6.2,0-12.2,0.8-16.5,2.1
				c-1.7,0.5-2.5,1.8-2.2,3.2c0.3,1.2,1.2,1.8,2.4,1.8c0.3,0,0.7-0.1,1.1-0.2c4.4-1.2,9-1.8,14.2-1.9L46.7,42.4z"/>
			<path d="M52.5,16.1C72.7,16.1,89,32.4,89,52.5S72.7,88.9,52.5,88.9c-20.1,0-36.4-16.3-36.4-36.4S32.4,16.1,52.5,16.1 M30.6,45.5
				c0.4,0,0.9-0.1,1.3-0.2c4.6-1.3,9.2-1.8,13.9-1.8c0.3,0,0.5,0,0.8,0c9.5,0,18.7,1.4,27.1,6.2c0.5,0.3,1.1,0.4,1.7,0.4
				c1.2,0,2.4-0.7,3-1.8c0.9-1.7,0.5-3.6-1.2-4.7c-1.1-0.7-2.3-1.3-3.5-1.9c-8.5-3.9-17.4-5.3-26.7-5.3c-0.1,0-0.2,0-0.3,0
				c-6.3,0-12.4,0.8-16.8,2.1c-2.2,0.7-3.4,2.5-2.8,4.4C27.7,44.5,29,45.5,30.6,45.5 M32.6,56.5c0.5,0,1-0.1,1.4-0.2
				c4-1.1,8.1-1.6,12.1-1.6c3.2,0,6.4,0.3,9.6,0.9c4.7,0.9,9.2,2.5,13.4,4.9c0.6,0.4,1.2,0.5,1.8,0.5c1.4,0,2.7-1,2.9-2.6
				c0.2-1.6-0.8-2.5-2-3.3c-8-4.6-16.6-6.4-25.6-6.4c-0.6,0-1.2,0-1.8,0c-0.3,0-0.6,0-0.8,0s-0.3,0-0.5,0c-3.8,0.6-7.5,1.2-11.3,1.9
				c-1.4,0.3-2.3,1.5-2.3,2.7c0,1.3,0.5,2.4,1.7,2.7C31.7,56.5,32.1,56.5,32.6,56.5 M33.8,67c0.2,0,0.5,0,0.7-0.1
				c4.2-0.6,8.3-1.3,12.5-1.4c0.3,0,0.5,0,0.8,0c6.3,0,12.4,1.6,17.9,4.9c0.5,0.3,0.9,0.4,1.4,0.4c0.8,0,1.5-0.4,2-1.2
				c0.7-1.2,0.3-2.5-0.9-3.3c-0.4-0.2-0.8-0.5-1.1-0.7c-6.3-3.5-13-5-20.9-5c-0.1,0-0.2,0-0.2,0c-0.1,0-0.2,0-0.4,0
				c-3.6,0-7.9,0.6-12.2,1.6c-1.2,0.3-1.9,0.9-2.1,2.1C30.9,66,32,67,33.8,67 M52.5,14.1c-21.2,0-38.4,17.2-38.4,38.4
				s17.3,38.4,38.4,38.4S91,73.7,91,52.5S73.7,14.1,52.5,14.1L52.5,14.1z M30.6,43.5c-0.8,0-1.3-0.4-1.5-1.1c-0.3-1.3,0.9-1.8,1.5-2
				c4.2-1.3,10.1-2.1,16.2-2.1h0.3c10,0.1,18.5,1.8,25.8,5.2c1.3,0.6,2.4,1.2,3.3,1.7c0.7,0.5,0.9,1.2,0.5,2
				c-0.3,0.5-0.8,0.8-1.3,0.8c-0.2,0-0.5-0.1-0.7-0.2c-7.8-4.4-16.8-6.4-28.1-6.4c-0.3,0-0.5,0-0.8,0c-5.3,0-10,0.7-14.5,1.9
				C31.1,43.4,30.9,43.5,30.6,43.5L30.6,43.5z M32.6,54.5c-0.3,0-0.5,0-0.7-0.1c-0.1,0-0.3-0.1-0.3-0.8c0-0.3,0.2-0.7,0.7-0.8
				c3-0.6,6-1.1,8.9-1.5l2.3-0.4c0,0,0.1,0,0.2,0c0.1,0,0.2,0,0.3,0c0.2,0,0.3,0,0.5,0l0,0l0,0c0.6,0,1.2,0,1.7,0
				c9.3,0,17.4,2,24.6,6.1c1.1,0.6,1.1,1,1.1,1.3c-0.1,0.7-0.7,0.8-0.9,0.8c-0.3,0-0.5-0.1-0.8-0.2c-4.2-2.5-8.8-4.2-14.1-5.2
				c-3.4-0.6-6.7-1-10-1c-4.3,0-8.5,0.6-12.6,1.6C33.2,54.5,32.9,54.5,32.6,54.5L32.6,54.5z M33.1,64.8c0,0,0-0.1,0-0.3
				c0-0.1,0-0.2,0-0.2s0.1-0.1,0.5-0.2c4.6-1,8.6-1.6,11.8-1.6h0.3H46c7.8,0,14.1,1.5,20,4.7c0.4,0.2,0.7,0.4,1,0.6
				c0.5,0.3,0.4,0.5,0.3,0.6s-0.2,0.2-0.3,0.2c-0.1,0-0.2,0-0.3-0.1c-5.8-3.4-12.1-5.2-18.9-5.2c-0.3,0-0.5,0-0.8,0
				c-3.4,0.1-6.8,0.6-10.1,1c-0.9,0.1-1.8,0.3-2.7,0.4c-0.2,0-0.3,0-0.4,0C33.4,65,33.2,64.9,33.1,64.8L33.1,64.8z"/>
		</g>
	</g>
</g>
</svg>
