<?xml version="1.0" encoding="utf-8"?>
<!-- Generator: Adobe Illustrator 21.0.0, SVG Export Plug-In . SVG Version: 6.00 Build 0)  -->
<svg version="1.1" id="Layer_1" xmlns="http://www.w3.org/2000/svg" xmlns:xlink="http://www.w3.org/1999/xlink" x="0px" y="0px"
	 viewBox="0 0 109.1 109.2" style="enable-background:new 0 0 109.1 109.2;" xml:space="preserve">
<style type="text/css">
	.st0{fill:#545454;}
	.st1{fill:none;stroke:#000000;stroke-width:3;stroke-miterlimit:10;}
	.st2{opacity:0.75;}
	.st3{fill:#282828;}
	.st4{fill:#1ED760;}
</style>
<g>
	<g>
		<rect x="3.5" y="3.6" class="st0" width="102" height="102"/>
		<rect x="3.5" y="3.6" class="st1" width="102" height="102"/>
	</g>
	<g>
		<g class="st2">
			<path class="st3" d="M51.5,95c-20.6,0-37.4-16.8-37.4-37.4s16.8-37.4,37.4-37.4S89,37,89,57.6S72.2,95,51.5,95z M46.8,69.6
				c6.6,0,12.8,1.7,18.4,5.1c0.3,0.2,0.6,0.3,0.8,0.3c0.5,0,0.9-0.2,1.1-0.7c0.6-1-0.2-1.6-0.6-2c-0.3-0.2-0.7-0.4-1.1-0.6
				c-6-3.3-12.5-4.9-20.5-4.9h-0.6c-3.2,0-7.4,0.5-12,1.6c-1,0.2-1.2,0.7-1.3,1.2c0,0.5,0,0.8,0.2,1c0.3,0.3,0.8,0.5,1.4,0.5
				c0.2,0,0.4,0,0.6,0c0.9-0.1,1.8-0.3,2.7-0.4c3.3-0.5,6.6-1,10-1C46.2,69.6,46.5,69.6,46.8,69.6z M45.1,58.9c3.2,0,6.5,0.3,9.8,1
				c5.1,1,9.6,2.6,13.7,5c0.4,0.2,0.9,0.4,1.3,0.4c1,0,1.8-0.7,1.9-1.7c0.1-0.8-0.1-1.5-1.6-2.3C62.9,57,54.7,55,45.2,55
				c-0.6,0-1.2,0-1.8,0l0,0c-0.2,0-0.3,0-0.5,0c-0.1,0-0.3,0-0.4,0c-0.1,0-0.2,0-0.3,0L40,55.4c-2.9,0.5-6,1-9,1.5
				c-1,0.2-1.5,1-1.5,1.8c0,0.7,0.2,1.5,1,1.8c0.3,0.1,0.6,0.1,1,0.1s0.8-0.1,1.1-0.1C36.8,59.4,40.9,58.9,45.1,58.9z M45.7,47.5
				c11.1,0,19.9,2,27.6,6.3c0.4,0.2,0.8,0.3,1.2,0.3c0.9,0,1.7-0.5,2.2-1.3c0.7-1.2,0.4-2.6-0.8-3.3c-0.9-0.6-2-1.2-3.4-1.8
				c-7.5-3.5-16.1-5.2-26.3-5.3h-0.3c-6.2,0-12.2,0.8-16.5,2.1c-1.7,0.5-2.5,1.8-2.2,3.2c0.3,1.2,1.2,1.8,2.4,1.8
				c0.3,0,0.7-0.1,1.1-0.2c4.4-1.2,9-1.8,14.2-1.9L45.7,47.5z"/>
			<path class="st3" d="M51.5,21.2C71.7,21.2,88,37.5,88,57.6S71.7,94,51.5,94c-20.1,0-36.4-16.3-36.4-36.4S31.4,21.2,51.5,21.2
				 M29.6,50.6c0.4,0,0.9-0.1,1.3-0.2c4.6-1.3,9.2-1.8,13.9-1.8c0.3,0,0.5,0,0.8,0c9.5,0,18.7,1.4,27.1,6.2c0.5,0.3,1.1,0.4,1.7,0.4
				c1.2,0,2.4-0.7,3-1.8c0.9-1.7,0.5-3.6-1.2-4.7c-1.1-0.7-2.3-1.3-3.5-1.9c-8.5-3.9-17.4-5.3-26.7-5.3c-0.1,0-0.2,0-0.3,0
				c-6.3,0-12.4,0.8-16.8,2.1c-2.2,0.7-3.4,2.5-2.8,4.4C26.7,49.6,28,50.6,29.6,50.6 M31.6,61.6c0.5,0,1-0.1,1.4-0.2
				c4-1.1,8.1-1.6,12.1-1.6c3.2,0,6.4,0.3,9.6,0.9c4.7,0.9,9.2,2.5,13.4,4.9c0.6,0.4,1.2,0.5,1.8,0.5c1.4,0,2.7-1,2.9-2.6
				c0.2-1.6-0.8-2.5-2-3.3c-8-4.6-16.6-6.4-25.6-6.4c-0.6,0-1.2,0-1.8,0c-0.3,0-0.6,0-0.8,0s-0.3,0-0.5,0c-3.8,0.6-7.5,1.2-11.3,1.9
				c-1.4,0.3-2.3,1.5-2.3,2.7c0,1.3,0.5,2.4,1.7,2.7C30.7,61.6,31.1,61.6,31.6,61.6 M32.8,72.1c0.2,0,0.5,0,0.7-0.1
				c4.2-0.6,8.3-1.3,12.5-1.4c0.3,0,0.5,0,0.8,0c6.3,0,12.4,1.6,17.9,4.9c0.5,0.3,0.9,0.4,1.4,0.4c0.8,0,1.5-0.4,2-1.2
				c0.7-1.2,0.3-2.5-0.9-3.3c-0.4-0.2-0.8-0.5-1.1-0.7c-6.3-3.5-13-5-20.9-5c-0.1,0-0.2,0-0.2,0c-0.1,0-0.2,0-0.4,0
				c-3.6,0-7.9,0.6-12.2,1.6c-1.2,0.3-1.9,0.9-2.1,2.1C29.9,71.1,31,72.1,32.8,72.1 M51.5,19.2c-21.2,0-38.4,17.2-38.4,38.4
				S30.4,96,51.5,96S90,78.8,90,57.6S72.7,19.2,51.5,19.2L51.5,19.2z M29.6,48.6c-0.8,0-1.3-0.4-1.5-1.1c-0.3-1.3,0.9-1.8,1.5-2
				c4.2-1.3,10.1-2.1,16.2-2.1h0.3c10,0.1,18.5,1.8,25.8,5.2c1.3,0.6,2.4,1.2,3.3,1.7c0.7,0.5,0.9,1.2,0.5,2
				c-0.3,0.5-0.8,0.8-1.3,0.8c-0.2,0-0.5-0.1-0.7-0.2c-7.8-4.4-16.8-6.4-28.1-6.4c-0.3,0-0.5,0-0.8,0c-5.3,0-10,0.7-14.5,1.9
				C30.1,48.5,29.9,48.6,29.6,48.6L29.6,48.6z M31.6,59.6c-0.3,0-0.5,0-0.7-0.1c-0.1,0-0.3-0.1-0.3-0.8c0-0.3,0.2-0.7,0.7-0.8
				c3-0.6,6-1.1,8.9-1.5l2.3-0.4c0,0,0.1,0,0.2,0c0.1,0,0.2,0,0.3,0c0.2,0,0.3,0,0.5,0l0,0l0,0c0.6,0,1.2,0,1.7,0
				c9.3,0,17.4,2,24.6,6.1c1.1,0.6,1.1,1,1.1,1.3c-0.1,0.7-0.7,0.8-0.9,0.8c-0.3,0-0.5-0.1-0.8-0.2c-4.2-2.5-8.8-4.2-14.1-5.2
				c-3.4-0.6-6.7-1-10-1c-4.3,0-8.5,0.6-12.6,1.6C32.2,59.6,31.9,59.6,31.6,59.6L31.6,59.6z M32.1,69.9c0,0,0-0.1,0-0.3
				c0-0.1,0-0.2,0-0.2s0.1-0.1,0.5-0.2c4.6-1,8.6-1.6,11.8-1.6h0.3H45c7.8,0,14.1,1.5,20,4.7c0.4,0.2,0.7,0.4,1,0.6
				c0.5,0.3,0.4,0.5,0.3,0.6s-0.2,0.2-0.3,0.2c-0.1,0-0.2,0-0.3-0.1c-5.8-3.4-12.1-5.2-18.9-5.2c-0.3,0-0.5,0-0.8,0
				c-3.4,0.1-6.8,0.6-10.1,1c-0.9,0.1-1.8,0.3-2.7,0.4c-0.2,0-0.3,0-0.4,0C32.4,70.1,32.2,70,32.1,69.9L32.1,69.9z"/>
		</g>
		<g>
			<path class="st4" d="M54.5,92c-20.6,0-37.4-16.8-37.4-37.4s16.8-37.4,37.4-37.4S92,34,92,54.6S75.2,92,54.5,92z M49.8,66.6
				c6.6,0,12.8,1.7,18.4,5.1c0.3,0.2,0.6,0.3,0.8,0.3c0.5,0,0.9-0.2,1.1-0.7c0.6-1-0.2-1.6-0.6-2c-0.3-0.2-0.7-0.4-1.1-0.6
				c-6-3.3-12.5-4.9-20.5-4.9h-0.6c-3.2,0-7.4,0.5-12,1.6c-1,0.2-1.2,0.7-1.3,1.2c0,0.5,0,0.8,0.2,1c0.3,0.3,0.8,0.5,1.4,0.5
				c0.2,0,0.4,0,0.6,0c0.9-0.1,1.8-0.3,2.7-0.4c3.3-0.5,6.6-1,10-1C49.2,66.6,49.5,66.6,49.8,66.6z M48.1,55.9c3.2,0,6.5,0.3,9.8,1
				c5.1,1,9.6,2.6,13.7,5c0.4,0.2,0.9,0.4,1.3,0.4c1,0,1.8-0.7,1.9-1.7c0.1-0.8-0.1-1.5-1.6-2.3C65.9,54,57.7,52,48.2,52
				c-0.6,0-1.2,0-1.8,0l0,0c-0.2,0-0.3,0-0.5,0c-0.1,0-0.3,0-0.4,0c-0.1,0-0.2,0-0.3,0L43,52.4c-2.9,0.5-6,1-9,1.5
				c-1,0.2-1.5,1-1.5,1.8c0,0.7,0.2,1.5,1,1.8c0.3,0.1,0.6,0.1,1,0.1s0.8-0.1,1.1-0.1C39.8,56.4,43.9,55.9,48.1,55.9z M48.7,44.5
				c11.1,0,19.9,2,27.6,6.3c0.4,0.2,0.8,0.3,1.2,0.3c0.9,0,1.7-0.5,2.2-1.3c0.7-1.2,0.4-2.6-0.8-3.3c-0.9-0.6-2-1.2-3.4-1.8
				c-7.5-3.5-16.1-5.2-26.3-5.3h-0.3c-6.2,0-12.2,0.8-16.5,2.1c-1.7,0.5-2.5,1.8-2.2,3.2c0.3,1.2,1.2,1.8,2.4,1.8
				c0.3,0,0.7-0.1,1.1-0.2c4.4-1.2,9-1.8,14.2-1.9L48.7,44.5z"/>
			<path d="M54.5,18.2C74.7,18.2,91,34.5,91,54.6S74.7,91,54.5,91c-20.1,0-36.4-16.3-36.4-36.4S34.4,18.2,54.5,18.2 M32.6,47.6
				c0.4,0,0.9-0.1,1.3-0.2c4.6-1.3,9.2-1.8,13.9-1.8c0.3,0,0.5,0,0.8,0c9.5,0,18.7,1.4,27.1,6.2c0.5,0.3,1.1,0.4,1.7,0.4
				c1.2,0,2.4-0.7,3-1.8c0.9-1.7,0.5-3.6-1.2-4.7c-1.1-0.7-2.3-1.3-3.5-1.9c-8.5-3.9-17.4-5.3-26.7-5.3c-0.1,0-0.2,0-0.3,0
				c-6.3,0-12.4,0.8-16.8,2.1c-2.2,0.7-3.4,2.5-2.8,4.4C29.7,46.6,31,47.6,32.6,47.6 M34.6,58.6c0.5,0,1-0.1,1.4-0.2
				c4-1.1,8.1-1.6,12.1-1.6c3.2,0,6.4,0.3,9.6,0.9c4.7,0.9,9.2,2.5,13.4,4.9c0.6,0.4,1.2,0.5,1.8,0.5c1.4,0,2.7-1,2.9-2.6
				c0.2-1.6-0.8-2.5-2-3.3c-8-4.6-16.6-6.4-25.6-6.4c-0.6,0-1.2,0-1.8,0c-0.3,0-0.6,0-0.8,0s-0.3,0-0.5,0c-3.8,0.6-7.5,1.2-11.3,1.9
				c-1.4,0.3-2.3,1.5-2.3,2.7c0,1.3,0.5,2.4,1.7,2.7C33.7,58.6,34.1,58.6,34.6,58.6 M35.8,69.1c0.2,0,0.5,0,0.7-0.1
				c4.2-0.6,8.3-1.3,12.5-1.4c0.3,0,0.5,0,0.8,0c6.3,0,12.4,1.6,17.9,4.9c0.5,0.3,0.9,0.4,1.4,0.4c0.8,0,1.5-0.4,2-1.2
				c0.7-1.2,0.3-2.5-0.9-3.3c-0.4-0.2-0.8-0.5-1.1-0.7c-6.3-3.5-13-5-20.9-5c-0.1,0-0.2,0-0.2,0c-0.1,0-0.2,0-0.4,0
				c-3.6,0-7.9,0.6-12.2,1.6c-1.2,0.3-1.9,0.9-2.1,2.1C32.9,68.1,34,69.1,35.8,69.1 M54.5,16.2c-21.2,0-38.4,17.2-38.4,38.4
				S33.4,93,54.5,93S93,75.8,93,54.6S75.7,16.2,54.5,16.2L54.5,16.2z M32.6,45.6c-0.8,0-1.3-0.4-1.5-1.1c-0.3-1.3,0.9-1.8,1.5-2
				c4.2-1.3,10.1-2.1,16.2-2.1h0.3c10,0.1,18.5,1.8,25.8,5.2c1.3,0.6,2.4,1.2,3.3,1.7c0.7,0.5,0.9,1.2,0.5,2
				c-0.3,0.5-0.8,0.8-1.3,0.8c-0.2,0-0.5-0.1-0.7-0.2c-7.8-4.4-16.8-6.4-28.1-6.4c-0.3,0-0.5,0-0.8,0c-5.3,0-10,0.7-14.5,1.9
				C33.1,45.5,32.9,45.6,32.6,45.6L32.6,45.6z M34.6,56.6c-0.3,0-0.5,0-0.7-0.1c-0.1,0-0.3-0.1-0.3-0.8c0-0.3,0.2-0.7,0.7-0.8
				c3-0.6,6-1.1,8.9-1.5l2.3-0.4c0,0,0.1,0,0.2,0c0.1,0,0.2,0,0.3,0c0.2,0,0.3,0,0.5,0l0,0l0,0c0.6,0,1.2,0,1.7,0
				c9.3,0,17.4,2,24.6,6.1c1.1,0.6,1.1,1,1.1,1.3c-0.1,0.7-0.7,0.8-0.9,0.8c-0.3,0-0.5-0.1-0.8-0.2c-4.2-2.5-8.8-4.2-14.1-5.2
				c-3.4-0.6-6.7-1-10-1c-4.3,0-8.5,0.6-12.6,1.6C35.2,56.6,34.9,56.6,34.6,56.6L34.6,56.6z M35.1,66.9c0,0,0-0.1,0-0.3
				c0-0.1,0-0.2,0-0.2s0.1-0.1,0.5-0.2c4.6-1,8.6-1.6,11.8-1.6h0.3H48c7.8,0,14.1,1.5,20,4.7c0.4,0.2,0.7,0.4,1,0.6
				c0.5,0.3,0.4,0.5,0.3,0.6s-0.2,0.2-0.3,0.2c-0.1,0-0.2,0-0.3-0.1c-5.8-3.4-12.1-5.2-18.9-5.2c-0.3,0-0.5,0-0.8,0
				c-3.4,0.1-6.8,0.6-10.1,1c-0.9,0.1-1.8,0.3-2.7,0.4c-0.2,0-0.3,0-0.4,0C35.4,67.1,35.2,67,35.1,66.9L35.1,66.9z"/>
		</g>
	</g>
</g>
</svg>
