<?xml version="1.0" encoding="utf-8"?>
<!-- Generator: Adobe Illustrator 21.0.0, SVG Export Plug-In . SVG Version: 6.00 Build 0)  -->
<svg version="1.1" id="Capa_1" xmlns="http://www.w3.org/2000/svg" xmlns:xlink="http://www.w3.org/1999/xlink" x="0px" y="0px"
	 viewBox="0 0 358.2 358.2" style="enable-background:new 0 0 358.2 358.2;" xml:space="preserve">
<style type="text/css">
	.st0{fill:none;}
	.st1{fill:#B3DEE9;stroke:#1D1E1C;stroke-width:0.5795;stroke-linecap:round;stroke-linejoin:round;stroke-miterlimit:10;}
	.st2{fill:#66C0BC;stroke:#1D1E1C;stroke-width:0.6021;stroke-linecap:round;stroke-linejoin:round;stroke-miterlimit:10;}
	
		.st3{opacity:0.7;fill:#C0C0BB;stroke:#1D1E1C;stroke-width:0.4515;stroke-linecap:round;stroke-linejoin:round;stroke-miterlimit:10;enable-background:new    ;}
	
		.st4{opacity:0.7;fill:#D7D7CF;stroke:#1D1E1C;stroke-width:0.4515;stroke-linecap:round;stroke-linejoin:round;stroke-miterlimit:10;enable-background:new    ;}
	.st5{opacity:0.7;}
	.st6{fill:#A5A49E;}
	.st7{fill:#1D1E1C;}
	.st8{fill:#8D8B8C;stroke:#1D1E1C;stroke-width:0.6021;stroke-linecap:round;stroke-linejoin:round;stroke-miterlimit:10;}
	.st9{fill:#A9A8A8;stroke:#1D1E1C;stroke-width:0.6021;stroke-linecap:round;stroke-linejoin:round;stroke-miterlimit:10;}
	.st10{fill:#4C928F;stroke:#1D1E1C;stroke-width:0.6021;stroke-linecap:round;stroke-linejoin:round;stroke-miterlimit:10;}
	.st11{opacity:0.27;fill:#1D1E1C;enable-background:new    ;}
	.st12{fill:#F0DAC5;stroke:#1E1E1C;stroke-width:0.4515;stroke-linecap:round;stroke-linejoin:round;stroke-miterlimit:10;}
	.st13{fill:#FCE6D4;stroke:#1E1E1C;stroke-width:0.4515;stroke-linecap:round;stroke-linejoin:round;stroke-miterlimit:10;}
	.st14{fill:#E1CABB;stroke:#1E1E1C;stroke-width:0.4515;stroke-linecap:round;stroke-linejoin:round;stroke-miterlimit:10;}
	
		.st15{opacity:0.68;fill:none;stroke:#EFEFEF;stroke-width:1.2041;stroke-linecap:round;stroke-linejoin:round;stroke-miterlimit:10;enable-background:new    ;}
	.st16{fill:#FFFFFF;stroke:#1D1E1C;stroke-width:0.6021;stroke-miterlimit:10;}
	.st17{fill:#83CACD;stroke:#1D1E1C;stroke-width:0.6021;stroke-linecap:round;stroke-linejoin:round;stroke-miterlimit:10;}
	.st18{fill:#F5B5B1;stroke:#1D1E1C;stroke-width:0.6021;stroke-miterlimit:10;}
	.st19{fill:#F7C5C6;stroke:#1D1E1C;stroke-width:0.6021;stroke-miterlimit:10;}
	.st20{fill:#C59290;stroke:#1D1E1C;stroke-width:0.6021;stroke-miterlimit:10;}
	.st21{fill:#F39E97;stroke:#1D1E1C;stroke-width:0.6021;stroke-miterlimit:10;}
	.st22{fill:#FFF7F0;stroke:#000000;stroke-width:0.6021;stroke-miterlimit:10;}
	.st23{fill:url(#SVGID_1_);}
	.st24{fill:#7BB2E1;stroke:#1D1E1C;stroke-width:0.6021;stroke-linecap:round;stroke-linejoin:round;stroke-miterlimit:10;}
	.st25{fill:#8FCBF0;stroke:#1D1E1C;stroke-width:0.6021;stroke-linecap:round;stroke-linejoin:round;stroke-miterlimit:10;}
	.st26{fill:#5E8DAE;stroke:#1D1E1C;stroke-width:0.6021;stroke-linecap:round;stroke-linejoin:round;stroke-miterlimit:10;}
	.st27{fill:#DF5266;stroke:#1D1E1C;stroke-width:0.6021;stroke-miterlimit:10;}
	.st28{fill:#FAD04D;stroke:#1D1E1C;stroke-width:0.6021;stroke-linecap:round;stroke-linejoin:round;stroke-miterlimit:10;}
	.st29{fill:#FFDB7C;stroke:#1D1E1C;stroke-width:0.6021;stroke-linecap:round;stroke-linejoin:round;stroke-miterlimit:10;}
	.st30{fill:#D6AF41;stroke:#1D1E1C;stroke-width:0.6021;stroke-linecap:round;stroke-linejoin:round;stroke-miterlimit:10;}
	.st31{fill:none;stroke:#1D1D1B;stroke-width:2;stroke-miterlimit:10;}
</style>
<pattern  x="-2.8" y="361" width="378.6" height="379.3" patternUnits="userSpaceOnUse" id="SVGID_2_" viewBox="0 -379.3 378.6 379.3" style="overflow:visible;">
	<g>
		<rect y="-379.3" class="st0" width="378.6" height="379.3"/>
		<g>
			<polygon class="st0" points="0,-379.3 378.6,-379.3 378.6,0 0,0 			"/>
		</g>
	</g>
</pattern>
<rect x="1" y="1" class="st1" width="356.2" height="356.2"/>
<polygon class="st2" points="0.5,320.2 0.5,357.3 357.5,357.3 357.5,271.3 "/>
<g>
	<polygon class="st3" points="66.4,319.1 299.2,287.1 299.2,299 66.4,329.3 	"/>
	<polygon class="st4" points="299.2,287.4 276.5,274 43.3,305.3 66.4,319.4 	"/>
	<g class="st5">
		<polygon class="st6" points="66.4,329.3 43.3,315.4 43.3,305.2 66.4,319.1 		"/>
		<path class="st7" d="M66.2,329.5l-23-14c-0.1,0-0.1-0.1-0.1-0.2v-10.2c0-0.1,0-0.2,0.1-0.2s0.2,0,0.3,0l23,14
			c0.1,0,0.1,0.1,0.1,0.2v10.2c0,0.1,0,0.2-0.1,0.2h-0.1C66.3,329.6,66.3,329.6,66.2,329.5z M43.6,305.6v9.6l22.5,13.7v-9.6
			L43.6,305.6z"/>
	</g>
</g>
<g>
	<g>
		<polygon class="st8" points="136.7,252.7 273.8,233.3 277.9,282.4 140.8,301.7 		"/>
		<polygon class="st9" points="273.7,233.3 269.3,230.5 132.2,250.1 136.6,252.9 		"/>
		<polygon class="st10" points="136.6,252.9 132.2,250.1 136.7,296.8 141.3,301.9 		"/>
	</g>
	<path class="st11" d="M132.4,250.3l4.1,46.4l-6.6-8.9L132.4,250.3C133.7,251,132,250.6,132.4,250.3z"/>
</g>
<g>
	<polygon class="st12" points="173.2,292.7 226.6,285.4 226.6,289.8 173.2,297.1 	"/>
	<polygon class="st13" points="226.6,285.4 216.7,279.3 163.3,286.7 173.2,292.7 	"/>
	<polygon class="st14" points="173.2,297.1 163.3,291.1 163.3,286.7 173.2,292.7 	"/>
</g>
<line class="st15" x1="293.5" y1="285.8" x2="279.6" y2="277.1"/>
<g>
	<path class="st11" d="M35.7,326.2c0.1-0.3,0.4-0.5,0.8-0.8c2.4-1.6,6.3-0.5,9-0.2c1.6,0.2,9.1,1,9.1,3.6c0,1.4-4.1,2.1-9.2,1.5
		c-1.9-0.2-3.8-0.6-5.2-1C38.6,328.8,34.9,327.8,35.7,326.2z"/>
	<circle class="st16" cx="50.8" cy="322.7" r="7.4"/>
	<path class="st11" d="M50.8,315.2c0.5,0,1,0.1,1.5,0.2c-3.4,0.7-5.9,3.7-5.9,7.2c0,3.6,2.5,6.5,5.9,7.2c-0.5,0.1-1,0.2-1.5,0.2
		c-4.1,0-7.4-3.3-7.4-7.4C43.3,318.5,46.7,315.2,50.8,315.2z"/>
</g>
<line class="st15" x1="288" y1="286.5" x2="68.1" y2="316.9"/>
<g>
	<g>
		<polygon class="st2" points="75.1,189.3 86.1,187.7 96.8,310.4 85.8,312 		"/>
		<polygon class="st17" points="86.1,187.7 81.3,184.7 70.3,186.3 75.1,189.3 		"/>
		<polygon class="st10" points="75.1,189.3 70.3,186.3 81,308.9 85.8,312 		"/>
	</g>
	<polygon class="st11" points="81,308.9 74.6,301.6 70.3,186.3 	"/>
</g>
<g>
	<g>
		<polygon class="st18" points="96.7,158.9 168.2,148.8 181.8,303.7 110.4,313.7 		"/>
		<polygon class="st19" points="167.7,148.5 162.9,145.5 92.6,156.4 96.7,158.9 		"/>
		<polygon class="st20" points="96.7,158.9 92.6,156.4 105.6,310.6 110.4,313.7 		"/>
	</g>
	<polygon class="st11" points="92.6,156.4 99.1,303.3 105.6,310.6 	"/>
</g>
<g>
	<path class="st11" d="M196.8,283.2c0-1.4,4.1-2.1,9.2-1.5c5.1,0.6,9.2,2.2,9.2,3.6c0,1.4-4.1,2.1-9.2,1.5S196.8,284.6,196.8,283.2z
		"/>
	<circle class="st21" cx="211.3" cy="279.2" r="7.4"/>
	<path class="st11" d="M211.3,271.7c0.5,0,1,0.1,1.5,0.2c-3.4,0.7-5.9,3.7-5.9,7.2c0,3.6,2.5,6.5,5.9,7.2c-0.5,0.1-1,0.2-1.5,0.2
		c-4.1,0-7.4-3.3-7.4-7.4S207.2,271.7,211.3,271.7z"/>
</g>
<g>
	<path class="st22" d="M193.4,108.4l65.4-9.5c0,0,3,33.1,3,33.9l-5.4-0.5l-3.2,0.7l-1.6,1.8l-1.5-1.4l-2.6-0.2l-0.9,1.1l-2.1,0.6
		l-2,1.5l-2.7-0.6l-1.6,0.9l-2.4-0.2l-2.9-0.2l-3,0.9l-1.7,0.6l-4,0.8l-2.3-0.2l-2,0.4l-2.9,0.7l-3.4-0.6L211,140l-3.3-0.1l-4.3,1.2
		l-4.9,0.9h-2.3C195.7,133.4,194.6,118.2,193.4,108.4z"/>
	<pattern  id="SVGID_1_" xlink:href="#SVGID_2_" patternTransform="matrix(-0.1261 0 0 -0.1261 -32595.3691 -15849.3955)">
	</pattern>
	<path class="st23" d="M195.7,133c-1.1-8.5-1.2-15.1-2.3-24.6l65.4-9.5c0,0,3,33.1,3,33.9l-5.4-0.5l-3.2,0.7l-1.6,1.8l-1.5-1.4
		l-2.6-0.2l-0.9,1.1l-2.1,0.6l-2,1.5l-2.7-0.6l-1.6,0.9l-2.4-0.2l-2.9-0.2l-3,0.9l-1.7,0.6l-4,0.8l-2.3-0.2l-2,0.4l-2.9,0.7
		l-3.4-0.6L211,140l-3.3-0.1l-4.3,1.2l-4.9,0.9h-2.3C196.1,139.5,196,135.4,195.7,133z"/>
	<polygon class="st11" points="258.8,98.9 193.4,104.2 193.9,108.2 	"/>
	<g>
		<g>
			<polygon class="st24" points="180.4,78.4 191.4,76.8 211.3,299.3 200.3,300.9 			"/>
			<polygon class="st25" points="191.4,76.8 186.6,73.8 175.6,75.4 180.4,78.4 			"/>
			<polygon class="st26" points="180.4,78.4 175.6,75.4 195.5,297.8 200.3,300.9 			"/>
		</g>
		<polygon class="st11" points="195.5,297.8 187.2,286.4 175.6,75.4 		"/>
	</g>
</g>
<path class="st27" d="M217.5,207.7L217.5,207.7l-79.8,11.4l3.2,33.4l45.9-6.2C205.7,243.6,219.2,226.7,217.5,207.7z"/>
<g>
	<g>
		<polygon class="st28" points="127,78.6 139.3,76.8 161.3,324.6 149.1,326.2 		"/>
		<polygon class="st29" points="139.3,76.8 133.9,73.4 121.6,75.2 127,78.6 		"/>
		<polygon class="st30" points="127,78.6 121.6,75.2 143.7,322.8 149.1,326.2 		"/>
	</g>
	<polygon class="st11" points="143.7,322.8 139.3,319.4 121.6,75.2 	"/>
</g>
<rect x="1" y="1" class="st31" width="356.2" height="356.2"/>
</svg>
