<?xml version="1.0" encoding="utf-8"?>
<!-- Generator: Adobe Illustrator 21.0.0, SVG Export Plug-In . SVG Version: 6.00 Build 0)  -->
<svg version="1.1" id="Layer_1" xmlns="http://www.w3.org/2000/svg" xmlns:xlink="http://www.w3.org/1999/xlink" x="0px" y="0px"
	 viewBox="0 0 105 105" style="enable-background:new 0 0 105 105;" xml:space="preserve">
<style type="text/css">
	.st0{fill:#395976;stroke:#000000;stroke-width:3;stroke-miterlimit:10;}
	.st1{fill:#203442;stroke:#203442;stroke-width:3;stroke-miterlimit:10;}
	.st2{fill:#FFFFFF;stroke:#000000;stroke-width:2;stroke-miterlimit:10;}
</style>
<g>
	<g>
		<rect x="1.5" y="1.5" class="st0" width="102" height="102"/>
		<g>
			<g>
				<path class="st1" d="M62.2,53.4c-3.6,0-7.2,0-10.9,0c0,0.3-0.1,0.5-0.1,0.7c0,4.5,0,9,0,13.5c0,1,0.1,2,0.3,3
					c0.1,0.5,0.4,1,0.8,1.3c1.7,1.5,3.7,1.7,5.9,1c1.2-0.3,2.4-0.7,3.6-1.1c0.2-0.1,0.4-0.1,0.7-0.1c0,0.3,0.1,0.6,0.1,0.9
					c0,2.8,0,5.7,0,8.5c0,0.6-0.2,0.9-0.8,1.1c-4.9,1.4-9.7,1.7-14.6,0.2c-4.2-1.3-6.6-4.2-7.4-8.5c-0.1-0.7-0.2-1.4-0.2-2.2
					c0-5.8-0.1-11.5-0.1-17.3c0-0.3,0-0.6,0-1c-1.7,0-3.3,0-5,0c0-2.9,0-5.8,0-8.7c0.1,0,0.2-0.1,0.3-0.1c4.4-0.3,7.8-3.4,8.7-7.7
					c0.2-0.8,0.3-1.6,0.5-2.4c0.1-0.5,0.3-0.6,0.8-0.6c1.9,0,3.8,0,5.7,0c0.6,0,0.8,0.2,0.8,0.8c0,3,0,6,0,9.1
					c0,0.7,0.2,0.9,0.9,0.9c3.1,0,6.1,0,9.2,0c0.6,0,0.9,0.1,0.9,0.9c0,2.4,0,4.7,0,7.1C62.3,52.9,62.2,53.1,62.2,53.4z"/>
			</g>
			<g>
				<g>
					<path class="st2" d="M65.2,50.4c-3.6,0-7.2,0-10.9,0c0,0.3-0.1,0.5-0.1,0.7c0,4.5,0,9,0,13.5c0,1,0.1,2,0.3,3
						c0.1,0.5,0.4,1,0.8,1.3c1.7,1.5,3.7,1.7,5.9,1c1.2-0.3,2.4-0.7,3.6-1.1c0.2-0.1,0.4-0.1,0.7-0.1c0,0.3,0.1,0.6,0.1,0.9
						c0,2.8,0,5.7,0,8.5c0,0.6-0.2,0.9-0.8,1.1c-4.9,1.4-9.7,1.7-14.6,0.2c-4.2-1.3-6.6-4.2-7.4-8.5c-0.1-0.7-0.2-1.4-0.2-2.2
						c0-5.8-0.1-11.5-0.1-17.3c0-0.3,0-0.6,0-1c-1.7,0-3.3,0-5,0c0-2.9,0-5.8,0-8.7c0.1,0,0.2-0.1,0.3-0.1c4.4-0.3,7.8-3.4,8.7-7.7
						c0.2-0.8,0.3-1.6,0.5-2.4c0.1-0.5,0.3-0.6,0.8-0.6c1.9,0,3.8,0,5.7,0c0.6,0,0.8,0.2,0.8,0.8c0,3,0,6,0,9.1
						c0,0.7,0.2,0.9,0.9,0.9c3.1,0,6.1,0,9.2,0c0.6,0,0.9,0.1,0.9,0.9c0,2.4,0,4.7,0,7.1C65.3,49.9,65.2,50.1,65.2,50.4z"/>
				</g>
			</g>
		</g>
	</g>
</g>
</svg>
